<svg width="304" height="160" viewBox="0 0 304 160" fill="none" xmlns="http://www.w3.org/2000/svg">
<path d="M297.121 117.674L291.123 117.802L288.079 117.852C287.059 117.875 286.035 117.852 285.016 117.88H284.815V117.674L284.787 112.545V112.316H285.016L291.068 112.344C293.089 112.344 295.105 112.394 297.121 112.417H297.249V112.545C297.249 113.414 297.212 114.278 297.189 115.132L297.121 117.674ZM297.121 117.674L297.057 115.091C297.034 114.241 297.006 113.4 296.997 112.559L297.121 112.687C295.105 112.71 293.089 112.76 291.068 112.76L285.016 112.787L285.244 112.559V117.674L285.039 117.473C286.035 117.473 287.032 117.473 288.033 117.496L291.009 117.573L297.121 117.674Z" fill="#EBEBEB"/>
<path d="M290.37 124.121L284.372 124.249L281.323 124.3C280.308 124.3 279.284 124.3 278.265 124.327H278.063V124.121V119.006V118.777H278.292L284.345 118.809C286.361 118.809 288.381 118.86 290.397 118.882H290.525V119.006C290.525 119.874 290.488 120.738 290.466 121.593L290.37 124.121ZM290.37 124.121L290.306 121.538C290.283 120.688 290.255 119.847 290.246 119.006L290.37 119.134C288.354 119.157 286.333 119.207 284.317 119.207L278.265 119.234L278.493 119.006V124.121L278.287 123.92C279.284 123.92 280.281 123.92 281.282 123.943L284.285 123.998L290.37 124.121Z" fill="#EBEBEB"/>
<path d="M303.872 124.121L297.874 124.249L294.829 124.3C293.81 124.3 292.786 124.3 291.767 124.327H291.566V124.121L291.538 119.006V118.777H291.767L297.819 118.809C299.84 118.809 301.856 118.86 303.872 118.882H304V119.006C304 119.874 303.958 120.738 303.94 121.593L303.872 124.121ZM303.872 124.121L303.808 121.538C303.808 120.688 303.757 119.847 303.748 119.006L303.872 119.134C301.856 119.157 299.84 119.207 297.819 119.207L291.767 119.234L291.995 119.006V124.121L291.79 123.92C292.791 123.92 293.783 123.92 294.784 123.943L297.792 123.998L303.872 124.121Z" fill="#EBEBEB"/>
<path d="M124.514 56.803L118.517 56.931L115.472 56.9813C114.453 56.9813 113.429 56.9813 112.409 56.9813H112.208V56.7756L112.181 51.6602V51.4316H112.409L118.462 51.4591C120.482 51.4591 122.498 51.5093 124.514 51.5322H124.642V51.6556C124.642 52.5242 124.601 53.3836 124.578 54.2385L124.514 56.803ZM124.514 56.803L124.45 54.2156C124.45 53.3653 124.4 52.5242 124.391 51.6876L124.514 51.8111C122.498 51.8111 120.482 51.8842 118.462 51.8842L112.409 51.9162L112.638 51.6876L112.615 56.803L112.409 56.5973C113.406 56.5973 114.402 56.5973 115.403 56.6247L118.411 56.675L124.514 56.803Z" fill="#EBEBEB"/>
<path d="M117.753 63.2534L111.755 63.3814L108.706 63.4317C107.691 63.4317 106.667 63.4317 105.648 63.4546H105.447V63.2488L105.41 58.1426V57.9141H105.639L111.691 57.9415C113.707 57.9415 115.728 57.9918 117.744 58.0146H117.872V58.1426C117.872 59.0112 117.835 59.8706 117.812 60.7255L117.753 63.2534ZM117.753 63.2534L117.689 60.666C117.666 59.8158 117.639 58.9746 117.629 58.1381L117.753 58.2615C115.737 58.2843 113.716 58.3346 111.7 58.3346L105.648 58.3666L105.876 58.1381L105.867 63.2534L105.662 63.0477C106.658 63.0477 107.655 63.0477 108.656 63.0751L111.659 63.1254L117.753 63.2534Z" fill="#EBEBEB"/>
<path d="M131.266 63.2534L125.269 63.3814L122.224 63.4317C121.205 63.4317 120.185 63.4317 119.161 63.4546H118.96V63.2488L118.933 58.1426V57.9141H119.161L125.214 57.9415C127.234 57.9415 129.25 57.9918 131.266 58.0146H131.394V58.1426C131.394 59.0112 131.353 59.8706 131.335 60.7255L131.266 63.2534ZM131.266 63.2534L131.202 60.666C131.202 59.8158 131.152 58.9746 131.143 58.1381L131.266 58.2615C129.25 58.2843 127.234 58.3346 125.214 58.3346L119.161 58.3666L119.39 58.1381L119.367 63.2534L119.161 63.0477C120.162 63.0477 121.154 63.0477 122.155 63.0751L125.163 63.1254L131.266 63.2534Z" fill="#EBEBEB"/>
<path d="M25.8142 90.6493L19.8166 90.7773L16.7675 90.8276C15.7526 90.8276 14.7286 90.8276 13.7092 90.8504H13.5264V90.6447V85.5293V85.3008H13.7549L19.8074 85.3282C21.8234 85.3282 23.8439 85.3785 25.8599 85.4014H25.9879V85.5248C25.9879 86.3933 25.9513 87.2528 25.9285 88.1076L25.8142 90.6493ZM25.8142 90.6493L25.7502 88.0619C25.7502 87.2116 25.6999 86.3705 25.6908 85.5339L25.8142 85.6573C23.7982 85.6802 21.7777 85.7305 19.7617 85.7305L13.7092 85.7625L13.9378 85.5339L13.9149 90.6493L13.7092 90.4436C14.7058 90.4436 15.7023 90.4436 16.7035 90.471L19.7069 90.5213L25.8142 90.6493Z" fill="#EBEBEB"/>
<path d="M226.489 56.8016L220.491 56.9296L217.447 56.9799C216.427 57.0028 215.403 56.9799 214.384 57.0028H214.183V56.7971L214.155 51.6817V51.4531H214.384L220.436 51.4806C222.457 51.4806 224.473 51.5354 226.489 51.5583H226.617V51.6817C226.617 52.5503 226.58 53.4142 226.557 54.2645L226.489 56.8016ZM226.489 56.8016L226.425 54.2188C226.402 53.364 226.375 52.5228 226.365 51.6863L226.489 51.8097C224.473 51.8325 222.457 51.8828 220.436 51.8874L214.384 51.9148L214.612 51.6863L214.59 56.8016L214.384 56.5959C215.38 56.5959 216.377 56.5959 217.378 56.6233L220.386 56.6736L226.489 56.8016Z" fill="#EBEBEB"/>
<path d="M296.421 7.11737L290.424 7.24537L287.375 7.29565C286.36 7.29565 285.336 7.29565 284.316 7.32308H284.115V7.11737V2.00201V1.77344H284.344L290.396 1.80087C292.412 1.80087 294.433 1.85572 296.449 1.87858H296.577V2.00201C296.577 2.87057 296.54 3.73456 296.517 4.58483L296.421 7.11737ZM296.421 7.11737L296.357 4.53454C296.335 3.6797 296.307 2.83857 296.298 2.00201L296.421 2.12543C294.405 2.12543 292.385 2.19858 290.369 2.20315L284.316 2.23057L284.545 2.00201L284.522 7.11737L284.316 6.91166C285.313 6.91166 286.309 6.91166 287.311 6.93908L290.314 6.98937L296.421 7.11737Z" fill="#EBEBEB"/>
<path d="M303.173 13.5672L297.176 13.6952L294.131 13.7455C293.112 13.7684 292.088 13.7455 291.068 13.7684H290.867V13.5627L290.84 8.44732V8.21875H291.068L297.121 8.24618C299.141 8.24618 301.157 8.30103 303.173 8.32389H303.301V8.44732C303.301 9.31588 303.26 10.1799 303.237 11.0301L303.173 13.5672ZM303.173 13.5672L303.109 10.9844C303.109 10.1296 303.059 9.28845 303.05 8.45189L303.173 8.57532C301.157 8.59817 299.141 8.64846 297.121 8.65303L291.068 8.68046L291.297 8.45189V13.5672L291.091 13.3615C292.088 13.3615 293.084 13.3615 294.086 13.389L297.093 13.4393L303.173 13.5672Z" fill="#EBEBEB"/>
<path d="M12.3107 7.12323L6.30849 7.25122L3.26396 7.30151C2.24911 7.30151 1.22513 7.30151 0.205712 7.32894H0V7.12323V2.00787V1.7793H0.233139L6.28563 1.8113C8.30161 1.8113 10.3176 1.86158 12.3381 1.88444H12.4616V2.00787C12.4616 2.87643 12.4204 3.74041 12.4021 4.59526L12.3107 7.12323ZM12.3107 7.12323L12.2421 4.5404C12.2421 3.68556 12.1918 2.84443 12.1827 2.00787L12.3107 2.13129C10.2901 2.15872 8.27418 2.20443 6.2582 2.209L0.205712 2.23643L0.43428 2.00787L0.406852 7.12323L0.205712 6.94494C1.20227 6.94494 2.19426 6.94494 3.19539 6.94494L6.20335 6.99523L12.3107 7.12323Z" fill="#EBEBEB"/>
<path d="M160.579 70.5738C160.018 71.1037 159.322 71.469 158.567 71.6298C158.11 71.7487 157.603 71.8172 157.118 71.9041H155.464C154.782 71.7989 154.092 71.7167 153.429 71.5841C150.952 71.0524 148.606 70.033 146.526 68.5853C141.051 64.9657 136.438 60.1871 133.014 54.5877C131.865 52.7401 131.075 50.6932 130.682 48.5535C130.582 47.9913 130.504 47.4244 130.417 46.8576V45.2027C130.554 44.5673 130.664 43.9227 130.833 43.2965C131 42.7087 131.315 42.1735 131.747 41.7422C131.83 41.8153 131.903 41.8748 131.976 41.9479C134.609 44.578 137.244 47.208 139.88 49.8381C139.965 49.9091 140.026 50.0051 140.054 50.1125C140.082 50.2199 140.075 50.3334 140.035 50.4369C139.835 51.0887 139.808 51.7815 139.957 52.4468C140.106 53.1122 140.426 53.7272 140.885 54.2312C143.134 56.7853 145.542 59.1946 148.094 61.4448C148.603 61.9068 149.224 62.2279 149.895 62.3763C150.566 62.5246 151.265 62.4951 151.921 62.2905C152.113 62.2402 152.25 62.2082 152.414 62.3728C155.105 65.079 157.803 67.7792 160.506 70.4732C160.519 70.487 160.538 70.5281 160.579 70.5738Z" fill="#EBEBEB"/>
<path d="M165.754 64.6623V65.2109C165.515 65.5545 165.258 65.8842 164.981 66.1983C164.168 67.044 163.327 67.8623 162.499 68.6897L162.243 68.932L154.115 60.8087C155.18 59.7573 156.241 58.683 157.338 57.6361C157.457 57.5257 157.597 57.4404 157.749 57.3851C157.902 57.3298 158.064 57.3056 158.226 57.3142C158.388 57.3227 158.547 57.3637 158.693 57.4347C158.838 57.5057 158.969 57.6053 159.075 57.7276C159.688 58.3218 160.282 58.9298 160.904 59.5287C162.316 60.9458 163.738 62.3538 165.137 63.7801C165.365 64.0575 165.572 64.3525 165.754 64.6623Z" fill="#EBEBEB"/>
<path d="M144.447 45.2435C143.442 46.2172 142.413 47.168 141.416 48.1097L133.353 40.0504C133.531 39.8904 133.737 39.7213 133.924 39.5384C134.665 38.8024 135.391 38.0482 136.146 37.3259C136.452 37.057 136.774 36.8067 137.11 36.5762H137.663C137.972 36.7655 138.265 36.9779 138.541 37.2116C140.516 39.1681 142.483 41.1338 144.443 43.1087C145.183 43.8492 145.183 44.5166 144.447 45.2435Z" fill="#EBEBEB"/>
<path d="M9.30273 49.727H62.2072V16.1641H9.30273V49.727Z" fill="#EBEBEB"/>
<path d="M72.104 49.7264H62.207V39.418L72.104 49.7264Z" fill="#EBEBEB"/>
<path d="M56.0816 21.9648H15.4238V22.6048H56.0816V21.9648Z" fill="white"/>
<path d="M36.4384 25.4121H15.4238V26.0521H36.4384V25.4121Z" fill="white"/>
<path d="M48.3011 32.3008H15.4238V32.9408H48.3011V32.3008Z" fill="white"/>
<path d="M56.0816 35.7422H15.4238V36.3822H56.0816V35.7422Z" fill="white"/>
<path d="M56.0816 39.1855H15.4238V39.8255H56.0816V39.1855Z" fill="white"/>
<path d="M29.8694 42.6348H15.4238V43.2748H29.8694V42.6348Z" fill="white"/>
<path d="M294.775 63.1328H241.87V92.7324H294.775V63.1328Z" fill="#DBDBDB"/>
<path d="M231.975 92.7342H241.872V82.4258L231.975 92.7342Z" fill="#DBDBDB"/>
<path d="M283.512 78.5859H248.116V79.2259H283.512V78.5859Z" fill="white"/>
<path d="M276.235 82.0352H248.116V82.6752H276.235V82.0352Z" fill="white"/>
<path d="M278.356 71.6973H248.116V72.3373H278.356V71.6973Z" fill="white"/>
<path d="M287.599 68.2559H248.116V68.8959H287.599V68.2559Z" fill="white"/>
<path d="M279.151 85.4746H248.116V86.1146H279.151V85.4746Z" fill="white"/>
<path d="M268.047 31.6699H170.9V35.9304H268.047V31.6699Z" fill="#EBEBEB"/>
<path d="M180.606 35.9355H176.346V50.0245H180.606V35.9355Z" fill="#EBEBEB"/>
<path d="M180.606 35.9355H176.346V40.2921H180.606V35.9355Z" fill="#DBDBDB"/>
<path d="M262.601 35.9355H258.341V50.0245H262.601V35.9355Z" fill="#EBEBEB"/>
<path d="M262.601 35.9355H258.341V40.2921H262.601V35.9355Z" fill="#DBDBDB"/>
<path d="M195.874 31.6689V4.51953H189.035V31.6689H195.874Z" fill="#C7C7C7"/>
<path d="M195.874 6.05151V3.06641L189.035 3.06641V6.05151H195.874Z" fill="#DBDBDB"/>
<path d="M195.869 10.9852V9.87891H189.03V10.9852H195.869Z" fill="#DBDBDB"/>
<path d="M196.724 28.114V25.1289H189.035V28.114H196.724Z" fill="#DBDBDB"/>
<path d="M200.651 31.6704V0L195.874 0V31.6704H200.651Z" fill="#DBDBDB"/>
<path d="M199.676 15.1593V2.97656H196.81V15.1593H199.676Z" fill="#EBEBEB"/>
<path d="M234.63 28.2846L212.107 6.01953L208.749 9.41684L231.272 31.6819L234.63 28.2846Z" fill="#C7C7C7"/>
<path d="M228.686 23.7346L220.022 15.1699L218.007 17.2083L226.671 25.773L228.686 23.7346Z" fill="#DBDBDB"/>
<path d="M208.76 31.6802V7.62109L200.646 7.62109V31.6802H208.76Z" fill="#A6A6A6"/>
<path d="M208.76 29.1247V26.8848H200.646V29.1247H208.76Z" fill="#C7C7C7"/>
<path d="M208.76 25.4154V24.5469H200.646V25.4154H208.76Z" fill="#C7C7C7"/>
<path d="M189.035 31.6803V9.07031H183.431V31.6803H189.035Z" fill="#A6A6A6"/>
<path d="M189.035 29.2793V27.1719H183.431V29.2793H189.035Z" fill="#C7C7C7"/>
<path d="M189.035 15.834V13.7266H183.431V15.834H189.035Z" fill="#C7C7C7"/>
<path d="M189.035 18.0976V17.2793H183.431V18.0976H189.035Z" fill="#C7C7C7"/>
<path d="M257.833 21.137L257.225 22.7507L256.851 23.7336L256.238 25.3518L253.852 31.674H240.947L238.551 25.3518L237.939 23.7336L237.569 22.7507L236.956 21.137L241.719 14.1931L239.251 9.61719H255.552L253.07 14.1931L257.833 21.137Z" fill="#DBDBDB"/>
<path d="M257.833 21.1387L257.225 22.7524H237.569L236.956 21.1387H257.833Z" fill="#A6A6A6"/>
<path d="M256.851 23.7344L256.239 25.3526H238.552L237.939 23.7344H256.851Z" fill="#A6A6A6"/>
<path d="M6.12988 154.886L42.6094 154.776L79.0843 154.735L152.039 154.662L224.993 154.735L261.468 154.776L297.948 154.886L261.468 155L224.993 155.042L152.039 155.115L79.0843 155.042L42.6094 155L6.12988 154.886Z" fill="#263238"/>
<path d="M148.081 154.877H204.153L192.976 89.8398H151.043L148.081 154.877Z" fill="#DBDBDB"/>
<path d="M148.081 154.877H153L155.756 89.8398H151.043L148.081 154.877Z" fill="#A6A6A6"/>
<path d="M196.801 102.591C203.146 116.762 218.478 140.282 225.34 134.453C235.603 125.74 242.551 106.467 245.294 98.673C246.835 94.3074 224.595 87.0023 223.233 90.9657C221.294 96.5976 218.255 108.369 216.495 110.037C215.58 110.911 208.293 100.684 202.78 95.8342C194.822 88.8446 194.776 98.065 196.801 102.591Z" fill="#AD6359"/>
<path d="M250.849 92.1142C248.87 96.5668 241.249 104.096 238.717 105.207C236.184 106.317 222.808 94.2354 223.087 91.392C223.366 88.5486 231.348 73.6551 235.768 71.3694C240.189 69.0837 252.902 87.4972 250.849 92.1142Z" fill="white"/>
<path d="M224.134 88.264C224.134 88.264 224.454 81.9281 222.854 76.5705C221.51 72.0677 219.01 65.5352 221.401 64.7215C226.319 63.0529 232.555 79.3499 232.555 79.3499C232.555 79.3499 234.155 86.984 229.433 89.0686C226.47 90.376 224.134 88.264 224.134 88.264Z" fill="white"/>
<path d="M229.68 76.2429C230 78.8075 232.839 76.9606 232.839 76.9606C232.839 76.9606 229.397 80.6177 230.75 83.1183C232.066 85.5365 235.412 83.1823 235.655 83.0177C235.472 83.2143 232.4 86.6428 234.023 89.029C235.71 91.5067 238.663 88.5719 238.855 88.3799C238.74 88.613 237.305 91.7719 238.951 93.3078C241.776 95.9364 245.671 87.9639 248.669 87.0725C248.669 87.0725 250.763 91.9776 250.85 92.101C250.85 92.101 254.713 84.5857 253.286 80.6086C253.087 80.0276 252.695 79.5321 252.175 79.2038C251.656 78.8755 251.04 78.7341 250.429 78.8029C250.429 78.8029 251.943 76.5172 250.727 74.5972C250.096 73.6144 247.984 73.7424 247.984 73.7424C247.984 73.7424 249.117 71.8636 247.929 70.227C246.983 68.915 244.994 69.2487 244.994 69.2487C244.994 69.2487 245.245 66.9356 243.847 65.9116C241.003 63.8454 228.99 70.7527 229.68 76.2429Z" fill="white"/>
<path d="M244.65 69.264C244.691 69.2411 244.65 69.1817 244.627 69.1954C240.12 70.5028 235.572 73.3096 232.673 77.0444C232.577 77.1679 232.733 77.3736 232.865 77.2593C236.609 73.9908 240.152 71.3988 244.65 69.264Z" fill="#263238"/>
<path d="M248.011 73.6867C248.061 73.6639 248.011 73.5816 247.97 73.5953C243.33 74.9667 238.297 78.2855 235.458 82.9712C235.362 83.1312 235.435 83.3734 235.563 83.1997C237.684 80.2375 243.952 75.593 248.011 73.6867Z" fill="#263238"/>
<path d="M238.768 88.7733C241.661 84.3848 245.67 81.3631 250.237 78.8535C250.292 78.8215 250.237 78.7438 250.187 78.7575C247.618 79.3746 244.875 81.2763 242.873 82.9403C240.978 84.4456 239.512 86.4224 238.621 88.6728C238.58 88.7733 238.708 88.8739 238.768 88.7733Z" fill="#263238"/>
<path d="M232.748 76.959C232.634 77.1053 232.977 77.1098 232.867 77.2607C232.41 77.8915 229.964 81.9372 231.084 83.2035C231.999 84.2137 233.96 83.7018 234.645 83.2035L236.36 81.9646L235.18 83.7429C234.649 84.522 234.248 85.3819 233.992 86.2892C233.85 86.7023 233.797 87.1409 233.837 87.5759C233.877 88.0109 234.01 88.4324 234.225 88.8125C234.427 89.1648 234.744 89.4367 235.123 89.5824C235.501 89.7282 235.919 89.7388 236.305 89.6125C237.165 89.3166 237.934 88.8051 238.54 88.1268L240.277 86.2983L239.235 88.584C238.944 89.2163 238.733 89.8829 238.609 90.5679C238.469 91.2119 238.522 91.8827 238.76 92.4971C238.878 92.7676 239.068 93.0001 239.31 93.1687C239.552 93.3374 239.836 93.4356 240.131 93.4525C240.799 93.3847 241.433 93.1278 241.96 92.7119C243.114 91.83 244.197 90.8594 245.201 89.8091C245.726 89.2971 246.252 88.7805 246.805 88.2868C247.325 87.767 247.948 87.362 248.634 87.0983C247.982 87.4286 247.401 87.8837 246.924 88.4377C246.417 88.9634 245.932 89.512 245.448 90.0651C244.495 91.207 243.439 92.2584 242.293 93.2056C241.679 93.7271 240.926 94.059 240.126 94.161C239.686 94.1653 239.253 94.0419 238.881 93.8059C238.509 93.5699 238.212 93.2312 238.028 92.8308C237.708 92.0766 237.621 91.2441 237.777 90.4399C237.9 89.6751 238.122 88.9296 238.44 88.2228L239.134 88.68C238.43 89.4929 237.526 90.1075 236.511 90.4628C235.942 90.6447 235.327 90.6221 234.773 90.3988C234.238 90.1642 233.786 89.774 233.475 89.2788C233.203 88.7964 233.036 88.2618 232.986 87.7102C232.935 87.1586 233.002 86.6026 233.183 86.0789C233.474 85.0853 233.93 84.1475 234.531 83.304L235.066 83.8252C234.152 84.4195 232.031 85.2332 230.435 83.848C228.671 81.7041 232.076 77.6538 232.748 76.959Z" fill="#263238"/>
<path d="M232.838 76.9615C232.344 77.1586 231.824 77.2804 231.293 77.3227C231.08 77.3446 230.866 77.3092 230.671 77.2199C230.476 77.1307 230.309 76.9909 230.187 76.8152C229.972 76.3923 229.884 75.9157 229.936 75.4438C229.963 74.9227 230.018 74.3787 230.1 73.8164C229.752 74.2758 229.506 74.8041 229.378 75.3661C229.29 75.6694 229.263 75.9871 229.298 76.3009C229.334 76.6147 229.431 76.9185 229.584 77.1946C229.784 77.4816 230.066 77.7015 230.393 77.8255C230.708 77.9284 231.045 77.941 231.366 77.8621C231.94 77.7245 232.455 77.4093 232.838 76.9615Z" fill="#263238"/>
<path d="M221.881 91.3926L245.03 107.516C245.03 107.516 231.202 136.165 222.658 136.087C214.114 136.009 201.772 114.551 197.516 105.276C193.26 96.0005 195.797 88.1423 204.409 96.5902C213.022 105.038 216.107 108.522 216.386 108.407C216.907 108.197 221.881 91.3926 221.881 91.3926Z" fill="#0A2B51"/>
<path d="M245.032 107.513C245.032 107.513 235.432 127.38 227.3 133.981C225.668 135.307 224.1 136.098 222.66 136.08C214.116 136.007 201.773 114.544 197.494 105.273C194.847 99.5316 194.825 94.3339 197.229 93.2139C198.715 92.5237 201.115 93.3739 204.392 96.6013C213.078 105.109 216.086 108.528 216.369 108.414C216.909 108.194 221.887 91.3945 221.887 91.3945L245.032 107.513Z" fill="#A1FFA1"/>
<path d="M230.703 130.601C230.42 130.931 230.132 131.251 229.844 131.561C227.239 133.202 224.316 134.272 221.268 134.702C220.427 134.795 219.581 134.828 218.736 134.803L218.21 134.473C219.219 134.534 220.231 134.508 221.236 134.396C222.439 134.264 223.622 133.991 224.761 133.582L225.625 133.299L226.461 132.947C226.74 132.828 227.028 132.727 227.298 132.59L228.107 132.179C229.007 131.712 229.875 131.185 230.703 130.601ZM213.14 105.363C210.499 106.564 208.089 108.222 206.023 110.259C204.682 111.58 203.443 112.999 202.315 114.506C202.37 114.606 202.43 114.711 202.494 114.812C203.635 113.28 204.892 111.839 206.256 110.501C207.988 108.8 209.961 107.363 212.112 106.236L212.921 105.825C213.069 105.749 213.222 105.682 213.378 105.624L213.14 105.363ZM233.135 106.821C230.94 105.747 228.643 104.894 226.278 104.275C226.032 104.216 225.785 104.156 225.533 104.106C225.373 104.069 225.209 104.033 225.049 104.005C223.05 103.587 220.999 103.482 218.969 103.694C218.672 103.736 218.379 103.781 218.082 103.836C218.05 103.941 218.013 104.051 217.981 104.152C218.32 104.092 218.662 104.042 219.005 104.001C220.89 103.802 222.794 103.88 224.656 104.234L225.154 104.325C225.506 104.398 225.858 104.476 226.21 104.563C228.554 105.167 230.833 106.003 233.012 107.059C236.276 108.66 239.442 110.454 242.493 112.43C242.539 112.353 242.58 112.275 242.616 112.202C239.566 110.221 236.4 108.425 233.135 106.821ZM235.535 100.906C231.829 101.059 228.218 102.123 225.021 104.005L224.628 104.234C223.821 104.718 223.041 105.246 222.292 105.816C218.374 108.796 215.248 112.627 212.272 116.481C210.781 118.414 209.319 120.362 207.773 122.245C207.664 122.382 207.549 122.515 207.435 122.652L207.609 122.903C207.741 122.748 207.874 122.592 208.002 122.446C209.556 120.558 211.024 118.611 212.519 116.682C215.495 112.842 218.617 109.038 222.493 106.099C223.333 105.458 224.213 104.87 225.126 104.339C225.25 104.261 225.378 104.188 225.506 104.12C226.57 103.522 227.68 103.008 228.825 102.584L229.679 102.273C229.963 102.172 230.26 102.104 230.553 102.017L231.426 101.774L232.34 101.596C233.52 101.33 234.728 101.204 235.938 101.221H235.993L235.535 100.906ZM207.124 99.3104C205.527 100.02 203.858 100.555 202.146 100.906L201.255 101.08C200.958 101.134 200.656 101.153 200.34 101.194L199.426 101.299L198.512 101.336C197.677 101.394 196.839 101.378 196.007 101.29L196.089 101.592C199.953 101.874 203.826 101.175 207.348 99.5619C207.298 99.475 207.211 99.3927 207.124 99.3104ZM200.532 93.6328C198.914 94.7325 197.235 95.7413 195.504 96.6545C195.504 96.7779 195.504 96.9013 195.504 97.0293C197.351 96.0634 199.137 94.9856 200.852 93.802C200.743 93.7425 200.638 93.6831 200.532 93.6328Z" fill="#0A2B51"/>
<path d="M239.56 110.201C238.947 109.693 238.33 109.2 237.708 108.706C236.447 107.709 235.185 106.717 233.923 105.73C231.409 103.769 228.84 101.876 226.253 100.016C224.785 98.9551 223.341 97.8397 221.827 96.8477C221.82 96.8423 221.812 96.8384 221.803 96.8361C221.795 96.8339 221.786 96.8334 221.777 96.8347C221.768 96.8359 221.759 96.839 221.751 96.8435C221.744 96.8481 221.737 96.8542 221.731 96.8614C221.726 96.8686 221.722 96.8768 221.72 96.8855C221.718 96.8943 221.717 96.9033 221.718 96.9123C221.72 96.9212 221.723 96.9297 221.727 96.9375C221.732 96.9452 221.738 96.952 221.745 96.9574C222.947 98.018 224.237 98.9871 225.485 99.9974C226.733 101.008 227.971 102.022 229.238 103.01C231.755 104.966 234.303 106.885 236.881 108.765C237.599 109.296 238.307 109.853 239.052 110.352C239.432 110.608 239.793 110.891 240.177 111.138C240.561 111.385 240.972 111.595 241.347 111.874C241.356 111.879 241.366 111.88 241.376 111.878C241.385 111.877 241.394 111.871 241.4 111.863C241.406 111.856 241.409 111.846 241.409 111.836C241.408 111.826 241.404 111.817 241.398 111.81C240.771 111.284 240.186 110.713 239.56 110.201Z" fill="#263238"/>
<path d="M216.565 107.894C215.682 110.282 214.955 112.726 214.389 115.209C214.088 116.434 213.85 117.672 213.617 118.907C213.37 120.133 213.205 121.375 213.123 122.623C213.123 122.669 213.192 122.669 213.201 122.623C213.585 121.43 213.868 120.187 214.142 118.966C214.417 117.746 214.728 116.516 215.002 115.309C215.555 112.85 216.204 110.413 216.684 107.94C216.687 107.932 216.689 107.924 216.688 107.916C216.688 107.907 216.686 107.899 216.683 107.891C216.68 107.884 216.675 107.877 216.669 107.871C216.663 107.865 216.655 107.861 216.648 107.858C216.64 107.855 216.631 107.853 216.623 107.854C216.615 107.854 216.607 107.856 216.599 107.859C216.591 107.862 216.584 107.867 216.579 107.873C216.573 107.879 216.568 107.887 216.565 107.894Z" fill="#263238"/>
<path opacity="0.1" d="M227.3 133.98C225.668 135.306 224.1 136.097 222.66 136.079C214.116 136.005 201.773 114.543 197.494 105.272C194.847 99.5305 194.825 94.3329 197.229 93.2129L227.3 133.98Z" fill="black"/>
<path d="M214.045 154.877H158.471C157.859 153.753 166.965 105.077 185.708 91.3671C189.867 88.3271 197.246 90.2837 199.294 93.2414C209.607 108.103 214.045 154.877 214.045 154.877Z" fill="#A1FFA1"/>
<path d="M211.157 133.268C209.769 132.777 208.41 132.21 207.084 131.572C205.223 130.68 203.427 129.693 201.639 128.651L201.379 128.495C199.55 127.412 197.722 126.264 195.93 125.108L195.674 124.943L194.458 124.157C190.343 121.519 186.293 118.804 181.9 116.692C179.729 115.606 177.423 114.813 175.043 114.333C173.849 114.12 172.633 114.053 171.422 114.132C171.121 114.132 170.824 114.196 170.508 114.237C170.302 114.278 170.097 114.306 169.886 114.347C169.918 114.274 169.946 114.205 169.982 114.132C170.147 114.1 170.316 114.073 170.481 114.036C170.782 113.999 171.089 113.954 171.395 113.931C172.617 113.849 173.845 113.915 175.052 114.127C177.457 114.603 179.788 115.398 181.982 116.491C186.398 118.603 190.476 121.318 194.581 123.947L195.788 124.719L196.048 124.884C197.877 126.059 199.705 127.224 201.603 128.326L201.863 128.482C203.6 129.492 205.369 130.452 207.189 131.316C208.46 131.924 209.761 132.465 211.088 132.939L211.157 133.268ZM206.211 110.059L206.023 110.237C202.499 113.67 199.865 117.858 197.383 122.045C196.859 122.938 196.332 123.829 195.802 124.719C195.76 124.797 195.719 124.87 195.674 124.943C195.002 126.077 194.325 127.206 193.621 128.317C193.004 129.295 192.359 130.26 191.674 131.192C191.61 131.279 191.55 131.366 191.486 131.448C190.792 132.386 190.044 133.282 189.246 134.132C188.414 135.014 187.495 135.811 186.503 136.509L186.133 136.769C186.01 136.856 185.873 136.925 185.745 137.003L184.963 137.46C184.424 137.732 183.868 137.968 183.299 138.168C180.993 138.934 178.579 139.325 176.149 139.325C173.728 139.315 171.315 139.041 168.954 138.507C166.668 138.022 164.451 137.373 162.216 136.724C162.216 136.797 162.179 136.87 162.156 136.939C164.387 137.592 166.627 138.251 168.904 138.74C171.293 139.285 173.735 139.567 176.186 139.581C178.643 139.582 181.084 139.19 183.418 138.42C184 138.219 184.568 137.98 185.118 137.702L185.918 137.245C186.053 137.173 186.185 137.093 186.311 137.007L186.691 136.742C187.698 136.037 188.631 135.231 189.475 134.338C190.326 133.427 191.123 132.466 191.861 131.462C191.93 131.375 191.989 131.293 192.048 131.206C192.698 130.319 193.31 129.41 193.877 128.486C194.586 127.375 195.248 126.246 195.934 125.117L196.067 124.893L197.653 122.214C200.14 118.031 202.773 113.881 206.261 110.489L206.32 110.434C206.279 110.301 206.243 110.178 206.211 110.059ZM208.848 120.916C208.496 121.373 208.14 121.803 207.779 122.242C206.265 124.144 204.573 125.899 202.727 127.48C202.361 127.768 201.996 128.056 201.616 128.326L201.379 128.495C200.849 128.869 200.295 129.205 199.719 129.501L199.321 129.716C199.189 129.789 199.043 129.839 198.905 129.903L198.073 130.26C197.506 130.465 196.926 130.631 196.336 130.758C194.919 131.062 193.475 131.215 192.026 131.215H191.674C190.814 131.215 189.955 131.147 189.1 131.055C186.687 130.752 184.316 130.183 182.028 129.359C179.742 128.568 177.489 127.595 175.249 126.616C173.019 125.608 170.729 124.739 168.392 124.015C167.701 123.819 167.02 123.645 166.289 123.517L166.22 123.714C166.933 123.846 167.642 124.015 168.332 124.216C170.656 124.943 172.932 125.813 175.148 126.822C177.388 127.787 179.628 128.765 181.937 129.565C184.244 130.395 186.635 130.972 189.068 131.284C189.872 131.375 190.677 131.435 191.482 131.448C191.6 131.448 191.715 131.448 191.834 131.448C193.369 131.473 194.902 131.329 196.405 131.019C197.006 130.886 197.598 130.716 198.179 130.511L199.029 130.146C199.171 130.082 199.312 130.031 199.449 129.958L199.856 129.739C200.481 129.421 201.08 129.055 201.648 128.646L201.886 128.477C202.233 128.226 202.576 127.96 202.915 127.691C204.78 126.102 206.488 124.339 208.016 122.425C208.321 122.05 208.626 121.67 208.93 121.286C208.903 121.167 208.876 121.039 208.848 120.916ZM203.107 100.688C202.787 100.765 202.467 100.839 202.147 100.903L201.255 101.076C200.958 101.131 200.656 101.149 200.341 101.191L199.427 101.296L198.512 101.332C197.305 101.41 196.093 101.346 194.901 101.14C193.031 100.817 191.219 100.218 189.525 99.362L189.068 99.138C188.748 98.9734 188.432 98.7997 188.122 98.6214C186.029 97.3928 184.065 95.9562 182.261 94.3335L182.06 94.5346C183.881 96.1746 185.861 97.6294 187.971 98.8774C188.19 99.0054 188.428 99.1288 188.638 99.2477L189.095 99.4763C190.903 100.425 192.846 101.089 194.855 101.447C197.641 101.838 200.476 101.682 203.203 100.989C203.184 100.889 203.143 100.788 203.107 100.688ZM199.852 94.082C197.424 95.7105 194.833 97.0817 192.122 98.1734C191.138 98.5566 190.132 98.8787 189.109 99.138L188.679 99.2477C187.491 99.524 186.284 99.7119 185.068 99.81L184.154 99.8694C183.852 99.8922 183.55 99.8694 183.239 99.8694H182.325L181.411 99.7962C180.309 99.7326 179.218 99.5502 178.156 99.2522C178.092 99.3391 178.028 99.426 177.969 99.5174C181.62 100.434 185.442 100.42 189.086 99.4763L189.543 99.362C190.455 99.1205 191.353 98.8274 192.231 98.4843C194.957 97.3852 197.561 96.0064 200.003 94.37L199.852 94.082ZM213.525 150.095C213.068 150.095 212.574 150.136 212.098 150.15H212.062L211.783 150.173C209.44 150.418 207.163 151.095 205.068 152.17C203.568 152.954 202.136 153.859 200.784 154.877H201.072C202.362 153.922 203.725 153.072 205.15 152.335C207.264 151.256 209.562 150.584 211.925 150.356H212.094H212.204C212.661 150.356 213.09 150.305 213.529 150.31C213.538 150.228 213.534 150.164 213.525 150.095ZM213.762 152.198C213.266 151.567 212.752 150.947 212.222 150.337C212.172 150.273 212.117 150.214 212.062 150.154L211.874 149.935C210.277 148.073 208.44 146.432 206.412 145.053C205.382 144.381 204.274 143.839 203.111 143.439C202.823 143.343 202.521 143.261 202.229 143.179C201.936 143.096 201.63 143.032 201.315 142.991C200.711 142.877 200.094 142.868 199.486 142.808C197.028 142.718 194.577 143.108 192.268 143.956C189.98 144.825 187.796 145.944 185.754 147.293C182.097 149.647 178.764 152.417 175.203 154.877H175.354C178.897 152.458 182.211 149.738 185.831 147.434C187.866 146.096 190.043 144.987 192.323 144.129C194.608 143.293 197.035 142.909 199.468 143C200.067 143.064 200.679 143.073 201.273 143.188C201.575 143.229 201.863 143.316 202.16 143.375C202.457 143.435 202.745 143.535 203.029 143.631C204.174 144.028 205.266 144.565 206.279 145.231C208.29 146.601 210.109 148.234 211.687 150.086C211.714 150.118 211.742 150.145 211.765 150.177L211.925 150.356C212.565 151.101 213.191 151.86 213.794 152.641C213.799 152.495 213.781 152.353 213.753 152.198H213.762Z" fill="#0A2B51"/>
<path d="M178.33 97.3326C167.016 110.42 151.766 133.538 157.997 138.649C168.241 147.051 198.161 151.906 205.027 152.719C207.989 153.076 213.923 133.712 211.944 131.206C209.964 128.701 178.33 126.932 178.116 124.989C177.992 123.888 182.797 114.306 185.887 102.553C189.439 89.0036 181.517 93.6436 178.33 97.3326Z" fill="white"/>
<path d="M206.759 129.611C206.759 129.611 215.838 129.542 221.776 129.776C225.09 129.904 230.75 130.635 233.14 131.846C236.715 133.652 250.512 143.503 248.198 146.9C246.1 149.972 235.321 140.006 235.321 140.006C235.321 140.006 247.088 149.103 243.883 152.349C240.679 155.595 229.995 142.713 229.995 142.713C229.995 142.713 241.881 152.312 238.045 155.147C235.147 157.272 224.816 146.155 224.816 146.155C224.816 146.155 234.969 154.488 232.084 156.806C228.884 159.366 218.713 149.702 218.713 149.702C210.393 154.356 204.542 153.167 200.428 151.828C199.463 151.485 206.759 129.611 206.759 129.611Z" fill="white"/>
<path d="M231.453 136.6C232.875 137.62 234.319 138.639 235.645 139.8C236.971 140.961 238.255 142.127 239.471 143.389C242.447 146.479 243.828 148.874 243.723 148.737C241.327 145.45 236.646 141.295 235.32 140.152C233.995 139.009 232.728 137.807 231.407 136.669C231.375 136.619 231.421 136.577 231.453 136.6Z" fill="#263238"/>
<path d="M227.248 141.315C229.004 142.686 230.8 143.993 232.496 145.452C234.192 146.91 236.487 149.013 238.073 150.576C238.192 150.695 238.073 150.924 237.945 150.809C236.3 149.31 233.854 147.262 232.19 145.781C230.526 144.3 228.922 142.759 227.212 141.347C227.184 141.342 227.221 141.292 227.248 141.315Z" fill="#263238"/>
<path d="M222.896 144.707C225.689 146.677 228.117 149.16 230.439 151.651C230.558 151.775 230.439 151.793 230.293 151.674C227.829 149.32 225.909 147.455 222.828 144.817C222.791 144.762 222.851 144.666 222.896 144.707Z" fill="#263238"/>
<path d="M205.484 129.323C209.625 129.296 221.79 129.264 225.922 129.584C229.579 129.862 232.592 130.649 235.659 132.678C242.242 137.03 246.484 142.141 247.545 143.65C248.185 144.564 249.113 146.04 248.267 147.064C247.23 148.308 243.412 147.092 239.385 143.448C239.239 143.316 239.33 143.234 239.481 143.357C245.136 147.928 247.385 147.407 247.975 146.626C248.359 146.118 247.975 145.254 247.646 144.568C247.095 143.598 246.422 142.702 245.643 141.903C243.046 139.125 240.172 136.617 237.067 134.42C233.741 131.937 229.778 130.449 225.639 130.128C221.406 129.78 209.694 129.89 205.465 129.483C205.379 129.456 205.392 129.328 205.484 129.323Z" fill="#263238"/>
<path d="M244.555 150.519C244.322 149.39 243.508 148.357 242.864 147.424C242.081 146.251 241.182 145.159 240.18 144.165C240.139 144.124 240.061 144.165 240.103 144.229C240.955 145.226 241.748 146.273 242.475 147.365C242.862 147.965 243.213 148.588 243.527 149.23C243.824 149.847 244.176 150.56 244.02 151.264C243.728 152.608 242.018 152.576 241.008 152.215C240.353 151.969 239.723 151.663 239.124 151.301C238.309 150.781 237.536 150.199 236.811 149.559C236.752 149.504 236.587 149.527 236.651 149.587C238.16 151.022 241.017 154.007 243.348 152.915C243.796 152.717 244.161 152.37 244.381 151.933C244.601 151.496 244.663 150.996 244.555 150.519Z" fill="#263238"/>
<path d="M206.896 128.438L196.02 153.124C196.02 153.124 158.014 144.543 155.811 137.33C153.607 130.116 165.516 110.816 176.263 98.7657C186.832 86.9259 188.395 94.9578 185.767 104.114C183.138 113.271 178.828 123.826 179.308 124.617C179.788 125.408 206.896 128.438 206.896 128.438Z" fill="#A1FFA1"/>
<path d="M181.754 116.381C181.726 116.449 181.703 116.522 181.676 116.591C179.565 115.553 177.327 114.794 175.02 114.333C173.826 114.12 172.61 114.052 171.4 114.132C171.098 114.132 170.801 114.196 170.485 114.237C170.17 114.278 169.891 114.328 169.599 114.41C169.004 114.538 168.442 114.767 167.861 114.945C165.621 115.798 163.566 117.073 161.809 118.703L162.097 118.205C163.773 116.724 165.703 115.558 167.793 114.762C168.378 114.58 168.949 114.347 169.553 114.219C169.85 114.136 170.156 114.1 170.467 114.036C170.778 113.972 171.075 113.953 171.381 113.931C172.604 113.848 173.832 113.914 175.038 114.127C177.365 114.583 179.623 115.341 181.754 116.381ZM201.868 128.481L201.607 128.326L200.565 127.709L199.934 127.635C200.391 127.923 200.89 128.216 201.37 128.495L201.63 128.65C203.002 129.45 204.373 130.218 205.781 130.936L205.891 130.685C204.537 129.985 203.198 129.249 201.868 128.481ZM194.448 126.968C194.174 127.425 193.895 127.882 193.612 128.317C192.995 129.295 192.35 130.259 191.665 131.192C191.601 131.279 191.541 131.366 191.477 131.448C190.783 132.385 190.035 133.281 189.237 134.131C188.405 135.014 187.486 135.81 186.494 136.508L186.124 136.769C186.001 136.856 185.863 136.924 185.735 137.002L184.954 137.459C184.415 137.731 183.859 137.968 183.29 138.168C180.984 138.934 178.57 139.324 176.14 139.324C173.722 139.314 171.312 139.04 168.954 138.506C166.572 137.999 164.236 137.308 161.891 136.627C159.811 136.024 157.718 135.416 155.578 135.018C155.578 135.091 155.578 135.165 155.578 135.233C157.695 135.631 159.766 136.243 161.836 136.842C164.177 137.528 166.522 138.214 168.913 138.739C171.302 139.284 173.744 139.566 176.195 139.58C178.652 139.582 181.094 139.19 183.427 138.419C184.009 138.219 184.578 137.979 185.127 137.702L185.927 137.244C186.063 137.172 186.194 137.093 186.321 137.007L186.7 136.742C187.707 136.037 188.64 135.231 189.484 134.337C190.335 133.426 191.132 132.466 191.87 131.462C191.939 131.375 191.998 131.293 192.058 131.206C192.707 130.319 193.319 129.409 193.886 128.486C194.197 128.001 194.499 127.507 194.8 127.018L194.448 126.968ZM202.183 127.882C201.996 128.029 201.804 128.175 201.607 128.312L201.37 128.481C200.84 128.855 200.286 129.191 199.71 129.487L199.312 129.702C199.18 129.775 199.034 129.825 198.896 129.889L198.064 130.246C197.497 130.451 196.917 130.617 196.327 130.744C194.91 131.047 193.466 131.201 192.017 131.201H191.665C190.805 131.201 189.946 131.133 189.091 131.041C186.678 130.737 184.307 130.169 182.019 129.345C179.733 128.554 177.48 127.581 175.24 126.602C173.01 125.594 170.72 124.725 168.383 124.001C166.037 123.329 163.537 122.964 161.109 123.439C160.337 123.594 159.59 123.854 158.888 124.212C158.842 124.303 158.796 124.399 158.755 124.49C159.506 124.09 160.312 123.8 161.146 123.631C163.532 123.174 166.001 123.53 168.323 124.202C170.647 124.928 172.923 125.799 175.139 126.808C177.379 127.773 179.619 128.751 181.928 129.551C184.238 130.386 186.632 130.967 189.068 131.283C189.873 131.375 190.677 131.434 191.482 131.448C191.601 131.448 191.715 131.448 191.834 131.448C193.369 131.473 194.902 131.329 196.405 131.018C197.006 130.885 197.598 130.716 198.179 130.511L199.029 130.145C199.171 130.081 199.312 130.031 199.45 129.958L199.856 129.738C200.481 129.42 201.08 129.055 201.648 128.646L201.886 128.477C202.124 128.303 202.343 128.12 202.599 127.937L202.183 127.882ZM182.279 94.3102C182.083 94.1365 181.891 93.9673 181.699 93.7891L181.452 93.949L182.092 94.5205C183.58 95.8532 185.17 97.0682 186.846 98.1547C186.846 98.0404 186.846 97.9261 186.846 97.8164C185.242 96.7681 183.718 95.6006 182.289 94.3239L182.279 94.3102ZM185.059 99.7958L184.145 99.8553C183.843 99.8781 183.541 99.8553 183.23 99.8553H182.316L181.402 99.7821C180.193 99.7098 178.996 99.4981 177.836 99.1513C177.329 99.0004 176.826 98.8267 176.332 98.6256L176.222 98.749L176.117 98.8678C176.65 99.0912 177.195 99.285 177.749 99.4484C180.645 100.221 183.668 100.39 186.631 99.9421C186.631 99.8278 186.663 99.7181 186.682 99.6038C186.174 99.7044 185.621 99.7684 185.068 99.8095L185.059 99.7958ZM199.486 142.794C197.027 142.709 194.576 143.103 192.268 143.955C189.981 144.825 187.796 145.944 185.754 147.292C184.611 148.033 183.495 148.81 182.394 149.61L182.572 149.66C183.642 148.888 184.725 148.143 185.836 147.434C187.871 146.095 190.048 144.987 192.327 144.129C194.613 143.292 197.04 142.909 199.472 143C199.788 143.032 200.103 143.05 200.419 143.078L200.506 142.886C200.181 142.858 199.834 142.84 199.495 142.808L199.486 142.794Z" fill="#0A2B51"/>
<path d="M191.66 149.04C192.031 148.336 192.387 147.632 192.744 146.923C193.46 145.488 194.173 144.049 194.883 142.608C196.291 139.746 197.626 136.848 198.911 133.922C199.647 132.267 200.447 130.631 201.109 128.944C201.117 128.927 201.118 128.908 201.112 128.89C201.105 128.872 201.092 128.858 201.075 128.85C201.058 128.842 201.039 128.842 201.021 128.848C201.004 128.854 200.989 128.868 200.981 128.885C200.191 130.279 199.505 131.737 198.773 133.168C198.042 134.599 197.297 136.016 196.593 137.46C195.191 140.322 193.832 143.207 192.515 146.114C192.145 146.928 191.743 147.732 191.409 148.564C191.235 148.989 191.034 149.401 190.865 149.831C190.696 150.26 190.568 150.699 190.408 151.124C190.406 151.129 190.405 151.134 190.404 151.139C190.404 151.144 190.405 151.149 190.407 151.153C190.408 151.158 190.411 151.162 190.414 151.166C190.418 151.17 190.422 151.172 190.426 151.175C190.431 151.177 190.436 151.178 190.44 151.178C190.445 151.178 190.45 151.178 190.455 151.176C190.46 151.174 190.464 151.172 190.468 151.168C190.471 151.165 190.474 151.161 190.476 151.156C190.847 150.448 191.281 149.762 191.66 149.04Z" fill="#263238"/>
<path d="M196.839 151.427L196.075 153.155L196.052 153.21H195.979C192.382 152.542 188.807 151.742 185.255 150.851C181.703 149.959 178.178 148.949 174.69 147.825C171.19 146.718 167.757 145.409 164.409 143.902C162.73 143.147 161.107 142.27 159.555 141.278C158.78 140.773 158.048 140.206 157.365 139.582C156.661 138.979 156.121 138.207 155.797 137.338C156.201 138.154 156.791 138.863 157.52 139.409C158.242 139.963 159.008 140.457 159.811 140.885C161.398 141.768 163.038 142.554 164.72 143.24C168.08 144.634 171.532 145.822 175.001 146.938C178.471 148.053 181.973 149.091 185.483 150.087C188.994 151.084 192.519 152.071 196.048 153.018L195.956 153.063L196.839 151.427Z" fill="#263238"/>
<path d="M206.462 129.395L206.842 128.412L206.883 128.481C203.07 128.23 199.262 127.923 195.454 127.526C191.646 127.128 187.861 126.694 184.076 126.127C183.13 125.98 182.184 125.825 181.237 125.642C180.78 125.546 180.291 125.455 179.802 125.318C179.679 125.281 179.56 125.245 179.427 125.194C179.351 125.169 179.278 125.137 179.208 125.098C179.154 125.07 179.104 125.036 179.057 124.998C179.008 124.956 178.966 124.907 178.933 124.851C178.915 124.816 178.898 124.779 178.883 124.742C178.88 124.723 178.88 124.705 178.883 124.687C178.865 124.513 178.874 124.337 178.911 124.166C178.933 124.042 178.956 123.91 178.988 123.795C179.473 121.898 180.085 120.106 180.707 118.31C181.951 114.694 183.304 111.124 184.73 107.576C183.628 111.233 182.499 114.89 181.375 118.547C180.835 120.376 180.241 122.205 179.825 124.033C179.797 124.147 179.784 124.253 179.761 124.362C179.738 124.472 179.761 124.6 179.738 124.554C179.733 124.53 179.724 124.507 179.711 124.486C179.711 124.44 179.628 124.394 179.647 124.403C179.624 124.403 179.665 124.413 179.647 124.403L179.761 124.449L180.063 124.545C180.52 124.664 180.977 124.751 181.434 124.842C182.348 125.011 183.304 125.158 184.241 125.299C186.124 125.583 188.011 125.849 189.9 126.099L195.573 126.863C199.354 127.366 203.134 127.905 206.915 128.458H206.983L206.956 128.518L206.462 129.395Z" fill="#263238"/>
<path d="M185.137 109.918C184.868 110.563 184.53 111.176 184.126 111.747C183.747 112.33 183.285 112.855 182.755 113.305C183.102 112.697 183.473 112.121 183.866 111.55C184.247 110.974 184.672 110.429 185.137 109.918Z" fill="#263238"/>
<path d="M196.213 101.475C192.986 102.389 187.171 97.6671 184.785 93.7311C184.62 93.4614 185.269 82.3438 185.169 80.1267C185.169 79.6696 199.221 82.8696 199.221 82.8696C199.221 82.8696 198.065 87.5781 198.266 91.4409C198.279 91.77 199.326 100.588 196.213 101.475Z" fill="white"/>
<path d="M184.953 87.0902C191.531 91.7347 197.94 89.9519 198.21 89.8696C198.318 87.5132 198.644 85.1718 199.184 82.8754C199.184 82.8754 185.104 79.6755 185.127 80.1326C185.209 81.1703 185.095 84.1691 184.953 87.0902Z" fill="#263238"/>
<path d="M199.152 73.7139C199.513 76.9962 202.141 79.4007 205.017 79.0807C207.892 78.7607 209.935 75.8488 209.588 72.5711C209.241 69.2934 206.603 66.8843 203.723 67.2043C200.843 67.5243 198.79 70.4363 199.152 73.7139Z" fill="#455A64"/>
<path d="M197.489 74.1049C197.891 77.762 200.812 80.4271 204.012 80.0751C207.212 79.7231 209.498 76.482 209.082 72.8295C208.666 69.177 205.763 66.5073 202.558 66.8593C199.354 67.2113 197.086 70.457 197.489 74.1049Z" fill="#C7C7C7"/>
<path d="M183.221 63.4226C181.685 68.3505 184.204 82.6223 187.692 85.8223C192.752 90.4622 201.081 90.9513 205.031 84.8623C208.862 78.9561 205.25 60.4192 201.346 57.5072C195.6 53.2101 185.488 56.1495 183.221 63.4226Z" fill="white"/>
<path d="M195.078 72.3836C195.078 72.3516 195.014 72.443 195.024 72.4842C195.234 73.435 195.321 74.5642 194.516 75.0487C194.489 75.0487 194.516 75.1127 194.516 75.099C195.563 74.747 195.435 73.2522 195.078 72.3836Z" fill="#263238"/>
<path d="M194.033 71.546C192.47 71.7243 192.94 74.842 194.39 74.6774C195.839 74.5128 195.345 71.3997 194.033 71.546Z" fill="#263238"/>
<path d="M200.629 71.631C200.629 71.5945 200.711 71.6676 200.716 71.7087C200.83 72.6779 201.127 73.7659 202.046 73.9579C202.073 73.9579 202.082 74.0127 202.046 74.0127C200.953 74.0219 200.583 72.5682 200.629 71.631Z" fill="#263238"/>
<path d="M201.338 70.4868C202.873 70.1348 203.463 73.2297 202.042 73.5588C200.62 73.8879 200.039 70.7931 201.338 70.4868Z" fill="#263238"/>
<path d="M192.589 70.3078C192.981 70.1269 193.363 69.9239 193.732 69.6998C194.164 69.542 194.531 69.2464 194.779 68.8587C194.832 68.7214 194.839 68.5703 194.797 68.4289C194.756 68.2875 194.669 68.1638 194.55 68.077C194.29 67.9405 193.998 67.8762 193.705 67.8907C193.411 67.9051 193.127 67.9979 192.881 68.1593C192.33 68.4077 191.892 68.8527 191.652 69.4073C191.604 69.5367 191.594 69.6773 191.625 69.8119C191.656 69.9465 191.725 70.0691 191.825 70.1648C191.925 70.2605 192.05 70.325 192.186 70.3504C192.321 70.3758 192.461 70.361 192.589 70.3078Z" fill="#263238"/>
<path d="M202.324 68.7434C201.892 68.7221 201.462 68.6778 201.035 68.6108C200.576 68.6281 200.124 68.4931 199.75 68.2268C199.647 68.1201 199.583 67.9822 199.567 67.8348C199.552 67.6875 199.585 67.5392 199.663 67.4131C199.855 67.1896 200.102 67.0208 200.38 66.9236C200.657 66.8265 200.956 66.8045 201.245 66.86C201.848 66.885 202.42 67.1345 202.849 67.5594C202.941 67.6611 203.002 67.7873 203.024 67.9228C203.045 68.0582 203.027 68.197 202.972 68.3224C202.916 68.4477 202.825 68.5542 202.71 68.629C202.595 68.7037 202.461 68.7435 202.324 68.7434Z" fill="#263238"/>
<path d="M195.61 81.4273C195.875 81.6193 196.154 81.8844 196.524 81.8844C196.882 81.8239 197.223 81.6884 197.525 81.4867C197.53 81.48 197.538 81.4758 197.547 81.475C197.555 81.4741 197.564 81.4767 197.571 81.4821C197.577 81.4876 197.582 81.4955 197.582 81.504C197.583 81.5126 197.581 81.5212 197.575 81.5278C197.467 81.7394 197.303 81.9172 197.1 82.0421C196.898 82.167 196.666 82.2342 196.428 82.2364C196.224 82.2157 196.03 82.1346 195.872 82.0036C195.714 81.8725 195.599 81.6973 195.541 81.5004C195.5 81.4547 195.568 81.3998 195.61 81.4273Z" fill="#263238"/>
<path d="M196.185 78.3894C196.488 78.7337 196.858 79.0117 197.274 79.2061C197.689 79.4004 198.14 79.5067 198.598 79.5185C199 79.5343 199.402 79.4928 199.792 79.3951C199.867 79.3813 199.94 79.3599 200.011 79.3311C200.081 79.3133 200.149 79.2919 200.217 79.2671C200.267 79.2502 200.31 79.2173 200.34 79.1736C200.369 79.1299 200.384 79.0776 200.381 79.0248C200.379 78.9918 200.371 78.9594 200.358 78.9288V78.8465C200.262 78.1014 200.02 76.9814 200.02 76.9814C200.313 77.0774 201.794 77.4888 201.712 77.1048C201.035 73.9048 200.281 70.3757 198.932 67.3541C198.923 67.3342 198.907 67.3182 198.887 67.3091C198.867 67.3 198.845 67.2983 198.824 67.3044C198.803 67.3105 198.784 67.3239 198.773 67.3423C198.761 67.3606 198.756 67.3826 198.758 67.4044C199.289 70.49 200.358 73.4614 200.944 76.5471C200.417 76.3925 199.87 76.314 199.321 76.314C199.22 76.3597 199.828 78.4671 199.842 78.8054C199.845 78.8174 199.845 78.8299 199.842 78.8419C198.617 79.1893 197.62 78.9562 196.281 78.3025C196.18 78.2568 196.116 78.3208 196.185 78.3894Z" fill="#263238"/>
<path d="M199.294 79.0836C198.969 79.6752 198.497 80.1728 197.923 80.5282C197.603 80.7106 197.234 80.7904 196.867 80.7567C196.067 80.6699 195.953 79.9659 195.989 79.3396C196.02 79.0066 196.089 78.6783 196.195 78.3613C197.125 78.9258 198.211 79.1788 199.294 79.0836Z" fill="#263238"/>
<path d="M197.918 80.5428C197.598 80.7252 197.229 80.805 196.862 80.7713C196.062 80.6845 195.948 79.9805 195.984 79.3542C196.839 79.2993 197.726 79.7382 197.918 80.5428Z" fill="#FF99BA"/>
<path opacity="0.2" d="M185.562 68.4908C185 69.9079 183.843 73.2359 183.185 73.469C182.559 68.8428 182.536 64.6463 183.683 62.068C184.158 61.0032 184.824 60.0347 185.649 59.2109C185.745 60.4498 186.161 67.0097 185.562 68.4908Z" fill="#263238"/>
<path d="M197.926 61.8789C197.535 62.5573 196.976 63.1238 196.303 63.5241C195.63 63.9243 194.865 64.1449 194.082 64.1646C193.285 64.1855 192.496 64.0024 191.789 63.6328C191.083 63.2632 190.483 62.7193 190.045 62.0526C190.043 62.0484 190.04 62.0448 190.036 62.0418C190.032 62.0388 190.028 62.0366 190.023 62.0354C190.018 62.0341 190.014 62.0338 190.009 62.0344C190.004 62.035 189.999 62.0365 189.995 62.0389C189.991 62.0413 189.987 62.0445 189.984 62.0484C189.981 62.0522 189.979 62.0566 189.978 62.0612C189.977 62.0659 189.976 62.0708 189.977 62.0756C189.977 62.0804 189.979 62.085 189.981 62.0892C190.379 62.8332 190.973 63.4544 191.698 63.8855C192.423 64.3165 193.252 64.5411 194.096 64.5349C194.922 64.4883 195.722 64.2251 196.414 63.7717C197.107 63.3184 197.668 62.6908 198.041 61.9521C198.05 61.9369 198.054 61.9185 198.05 61.901C198.046 61.8834 198.035 61.8681 198.02 61.8584C198.005 61.8487 197.987 61.8454 197.969 61.8492C197.951 61.8531 197.936 61.8638 197.926 61.8789Z" fill="#263238"/>
<path d="M207.463 54.525C206.804 53.3103 205.737 52.3678 204.45 51.8645C202.667 51.1605 200.88 51.6313 199.111 52.1388C199.101 52.1388 199.092 52.1426 199.085 52.1495C199.078 52.1563 199.074 52.1656 199.074 52.1753C199.074 52.185 199.078 52.1943 199.085 52.2012C199.092 52.2081 199.101 52.2119 199.111 52.2119C200.615 51.7868 202.169 51.4439 203.705 51.9102C204.976 52.2905 206.078 53.0978 206.823 54.1959C207.549 55.3329 207.843 56.6936 207.649 58.029C207.455 59.3645 206.787 60.5856 205.767 61.4689C205.165 61.9623 204.47 62.3275 203.722 62.5421C202.974 62.7568 202.191 62.8162 201.419 62.7169C201.36 62.7169 201.332 62.7992 201.396 62.8083C202.447 62.9865 203.526 62.8683 204.512 62.4671C205.499 62.0659 206.354 61.3975 206.982 60.5371C207.61 59.6767 207.985 58.6582 208.066 57.5962C208.147 56.5342 207.93 55.4706 207.44 54.525H207.463Z" fill="#263238"/>
<path d="M182.806 66.2705C182.806 66.2705 179.5 62.0237 181.1 58.9563C182.015 57.2146 185.951 56.7346 185.951 56.7346C185.951 56.7346 186.865 54.7186 189.978 53.4112C193.091 52.1038 197.292 52.8718 197.292 52.8718C197.292 52.8718 200.085 50.5495 203.285 51.7015C207.747 53.3106 208.314 59.578 204.584 62.2751C201.96 64.1722 197.626 62.3162 197.626 62.3162C197.26 62.4305 193.832 65.4111 190.339 62.4991C190.339 62.4991 188.351 65.0042 185.978 63.9071C185.754 64.5777 185.329 65.1636 184.762 65.586C184.195 66.0085 183.512 66.2473 182.806 66.2705Z" fill="#263238"/>
<path d="M186.197 75.0559C186.197 75.0559 182.911 70.4845 180.835 71.6685C178.76 72.8525 181.292 79.4947 183.743 80.3541C184.05 80.4895 184.382 80.5613 184.718 80.5652C185.054 80.5692 185.388 80.5052 185.699 80.3771C186.009 80.2491 186.291 80.0595 186.527 79.8199C186.763 79.5803 186.947 79.2955 187.07 78.9827L186.197 75.0559Z" fill="#AD6359"/>
<path d="M181.604 73.5645C181.563 73.5645 181.558 73.6147 181.604 73.6285C183.336 74.305 184.264 75.8867 184.923 77.5324C184.402 76.9016 183.702 76.5633 182.856 77.185C182.811 77.217 182.856 77.2856 182.902 77.2764C183.203 77.1804 183.527 77.1794 183.828 77.2734C184.13 77.3674 184.396 77.552 184.589 77.8021C184.914 78.2276 185.192 78.6875 185.416 79.1735C185.499 79.3244 185.773 79.2375 185.714 79.0638V79.0227C185.714 76.801 183.963 73.7519 181.604 73.5645Z" fill="#263238"/>
<path d="M183.458 71.8573C183.458 71.8573 181.68 64.7717 183.065 60.4289C184.606 55.6015 190.416 50.8747 197.282 52.8816C197.282 52.8816 189.662 53.8644 185.959 60.2323C184.258 63.158 185.89 71.6059 185.89 71.6059L183.458 71.8573Z" fill="#C7C7C7"/>
<path d="M190.837 74.2435C191.532 77.9006 189.507 81.3475 186.307 81.96C183.107 82.5726 179.944 80.1315 179.244 76.4744C178.545 72.8173 180.575 69.3705 183.775 68.7579C186.975 68.1453 190.138 70.5956 190.837 74.2435Z" fill="#C7C7C7"/>
<path d="M189.108 74.3617C189.734 77.6394 187.91 80.7616 185.035 81.2965C182.159 81.8313 179.316 79.6279 178.69 76.3548C178.063 73.0817 179.883 69.9549 182.758 69.4201C185.634 68.8852 188.477 71.0795 189.108 74.3617Z" fill="#455A64"/>
<path d="M7.72168 154.877H63.7941L52.6125 89.8398H10.6839L7.72168 154.877Z" fill="#DBDBDB"/>
<path d="M7.72168 154.877H12.6359L15.397 89.8398H10.6839L7.72168 154.877Z" fill="#A6A6A6"/>
<path d="M40.9553 61.4785C35.7485 66.6579 34.2536 75.1926 34.2536 75.1926C34.2536 75.1926 29.2617 83.7822 30.656 88.4496C31.0248 89.773 31.7091 90.9871 32.6502 91.988C33.5913 92.9888 34.7611 93.7464 36.0593 94.1958L35.5656 91.6176C35.5656 91.6176 37.2387 94.9318 42.8295 96.2666C48.4203 97.6015 55.8168 95.8826 59.6659 93.9352C61.9472 92.7932 63.8938 91.0796 65.3161 88.9616L63.8761 92.7101C63.8761 92.7101 69.3023 92.5181 72.5251 86.7445C75.7479 80.9708 66.4909 72.6738 65.7046 70.8864C64.9184 69.099 63.9218 56.0752 50.2214 58.3197C50.2397 58.2877 44.5575 57.9128 40.9553 61.4785Z" fill="#263238"/>
<path d="M34.0974 93.822C32.6711 92.7568 31.2631 91.5363 30.4769 90.0277C29.6195 88.4641 29.315 86.6569 29.6129 84.8987C29.9923 82.7913 31.1031 80.9307 32.182 79.1159C33.2608 77.301 34.5591 75.4588 35.6425 73.5525C35.7019 73.4474 35.5419 73.3605 35.4688 73.4428C34.2515 74.8724 33.116 76.3696 32.0677 77.9273C30.9952 79.3517 30.0931 80.8966 29.3797 82.5307C28.713 84.0353 28.4939 85.7002 28.7489 87.326C29.0185 88.6476 29.6053 89.8838 30.4586 90.9283C31.4688 92.1854 32.7442 92.99 34.0242 93.9362C34.0974 93.9957 34.1751 93.8814 34.0974 93.822Z" fill="#263238"/>
<path d="M73.7001 80.7699C72.0544 75.9745 67.7573 72.93 65.1196 68.7472C63.7025 66.4844 62.6008 63.9793 60.7539 62.0136C60.7036 61.9587 60.6122 62.0456 60.6579 62.1004C62.1756 63.8696 63.0533 65.9998 64.1505 68.0432C65.3194 70.0541 66.6853 71.9437 68.2281 73.6843C70.9435 76.9391 74.1938 80.7928 73.5721 85.3504C73.2841 87.4532 72.0406 89.7846 69.883 90.4383C69.8007 90.4658 69.851 90.6029 69.9332 90.5663C70.7842 90.2247 71.5566 89.7133 72.2035 89.0633C72.8503 88.4133 73.358 87.6384 73.6955 86.7858C74.4226 84.8467 74.4242 82.7101 73.7001 80.7699Z" fill="#263238"/>
<path d="M73.8965 82.0615C74.0449 80.2452 73.6265 78.4277 72.6988 76.8592C71.7525 75.3141 70.2668 74.1987 68.7811 73.2021C67.0668 72.0639 65.2611 70.9805 64.1731 69.1748C64.1274 69.0971 64.0177 69.1748 64.0589 69.2525C65.7868 72.233 69.0874 73.6227 71.2953 76.1324C73.8325 78.9986 73.837 83.1723 72.0908 86.45C70.981 88.448 69.4146 90.1553 67.5194 91.4328C67.4874 91.4328 67.5194 91.5013 67.556 91.4785C70.7879 89.3574 73.6359 86.0934 73.8965 82.0615Z" fill="#263238"/>
<path d="M53.1798 103.908C67.0539 111.523 83.6617 121.082 93.8376 118.833C98.3495 117.837 118.61 91.2769 119.469 88.2049C120.205 85.5673 101.86 74.948 99.8124 77.0279C96.3564 80.5159 87.0125 100.154 85.6411 100.484C84.2697 100.813 72.6219 98.4494 60.4986 96.2597C48.8325 94.166 43.548 98.6231 53.1798 103.908Z" fill="white"/>
<path d="M117.499 91.5143C119.08 89.5212 125.535 79.7476 126.719 76.6253C127.903 73.5031 130.673 64.2826 128.379 63.1215C126.084 61.9604 125.069 64.5889 125.069 64.5889C125.069 64.5889 125.622 60.5067 123.204 59.5604C120.786 58.6142 119.323 62.7604 119.323 62.7604C119.323 62.7604 119.583 58.5273 117.101 57.7319C114.619 56.9365 113.851 61.389 113.851 61.389C113.851 61.389 114.271 57.5307 111.958 57.7319C109.179 58.0016 109.215 65.2061 107.643 68.5523C107.286 69.3112 99.3184 83.4458 99.3184 83.4458L117.499 91.5143Z" fill="white"/>
<path d="M113.905 61.0292C113.905 66.3274 112.991 68.6497 110.248 73.0656C110.193 73.1479 110.307 73.2484 110.376 73.1662C113.484 69.0885 115.048 66.3457 114.179 61.0155C114.12 60.7549 113.905 60.7778 113.905 61.0292Z" fill="#263238"/>
<path d="M119.294 62.3433C118.837 67.8289 117.859 70.3706 115.294 75.2117C115.258 75.2803 115.372 75.3488 115.413 75.2803C118.325 70.7455 119.824 67.9661 119.568 62.4119C119.582 62.1604 119.317 62.0919 119.294 62.3433Z" fill="#263238"/>
<path d="M124.913 64.8326C124.076 70.1262 123.135 72.9422 120.044 77.3216C120.036 77.3315 120.03 77.3429 120.027 77.3551C120.023 77.3674 120.022 77.3802 120.023 77.393C120.024 77.4057 120.028 77.4181 120.034 77.4293C120.04 77.4406 120.048 77.4506 120.058 77.4587C120.068 77.4668 120.08 77.4729 120.092 77.4766C120.104 77.4803 120.117 77.4815 120.13 77.4802C120.142 77.479 120.155 77.4752 120.166 77.4692C120.177 77.4631 120.187 77.4549 120.195 77.445C123.784 73.285 124.986 69.7834 125.073 64.8737C125.068 64.5446 124.968 64.4989 124.913 64.8326Z" fill="#263238"/>
<path d="M95.3908 85.0466C95.3908 85.0466 95.0022 78.4227 95.4776 75.4741C95.9531 72.5256 101.754 62.1852 104.04 63.3097C107.016 64.768 104.84 71.3965 103.35 74.505C103.35 74.505 110.234 77.8604 109.704 82.9574C109.173 88.0545 95.3908 85.0466 95.3908 85.0466Z" fill="white"/>
<path d="M104.743 63.977C106.498 67.2638 104.286 71.218 103.06 74.3403C103.04 74.3854 103.032 74.4347 103.035 74.4839C103.038 74.5332 103.053 74.5809 103.079 74.6231C103.104 74.6653 103.14 74.7007 103.182 74.7263C103.224 74.7519 103.272 74.7668 103.321 74.77C106.114 76.37 109.588 79.4419 109.885 82.8247C109.885 82.8453 109.894 82.8651 109.908 82.8797C109.923 82.8943 109.943 82.9025 109.963 82.9025C109.984 82.9025 110.004 82.8943 110.018 82.8797C110.033 82.8651 110.041 82.8453 110.041 82.8247C110.215 79.1676 107.047 75.858 103.879 74.2991C105.177 71.0992 107.23 67.0535 104.793 63.9587C104.761 63.945 104.734 63.9587 104.743 63.977Z" fill="#263238"/>
<path d="M82.34 99.3987L65.6407 113.396C65.6407 113.396 55.4466 108.093 47.9175 102C40.3885 95.9061 48.7267 92.9439 61.6545 95.1153C74.5823 97.2867 82.34 99.3987 82.34 99.3987Z" fill="#0A2B51"/>
<path d="M62.5584 102.21C62.0853 101.564 61.5375 100.976 60.9264 100.459C61.6027 101.912 62.5796 103.205 63.7927 104.253C63.465 103.525 63.0506 102.839 62.5584 102.21ZM47.93 102.009L48.1312 102.164C48.2637 102.022 48.3963 101.871 48.5197 101.707C48.3095 101.803 48.1129 101.903 47.9209 102.027L47.93 102.009ZM75.884 102.1C75.094 101.984 74.2933 101.959 73.4977 102.027C74.2439 102.308 75.0201 102.503 75.8108 102.607C76.6004 102.727 77.4014 102.753 78.1971 102.685C77.4482 102.401 76.6689 102.205 75.8748 102.1H75.884ZM70.2932 96.6875C70.2829 96.9926 70.2936 97.2981 70.3252 97.6018C70.4367 97.3274 70.5313 97.0465 70.6086 96.7606L70.2932 96.6875Z" fill="white"/>
<path d="M61.9003 110.407C65.2968 107.143 68.9265 104.112 72.6065 101.159C73.6487 100.327 74.7093 99.5134 75.8064 98.7317C75.8384 98.7089 75.8796 98.7317 75.8476 98.7729C74.1196 100.368 72.323 101.891 70.5356 103.422C68.7482 104.953 66.938 106.485 65.1048 107.97C64.0671 108.812 63.034 109.653 61.9826 110.471C61.9186 110.503 61.8592 110.448 61.9003 110.407Z" fill="#263238"/>
<path d="M72.7352 107.448L65.6358 113.39C65.6358 113.39 55.4417 108.092 47.9126 101.998C45.2384 99.8362 44.5664 98.0717 45.3847 96.7871L72.7352 107.448Z" fill="#263238"/>
<path d="M69.2973 154.823H16.082C16.082 154.823 27.643 110.175 38.3446 97.6035C38.5823 97.3155 38.8292 97.0412 39.076 96.7852C39.1263 96.7258 39.172 96.6846 39.2223 96.6344C40.0507 95.7494 41.0153 95.0024 42.0794 94.4218C42.2668 94.3212 42.4543 94.2252 42.6508 94.143C46.7651 92.2458 51.1261 93.8184 54.2667 96.5064C55.2632 97.3566 66.5454 112.049 67.5236 117.631C68.3876 122.572 65.0505 127.88 65.0505 127.88L69.2973 154.823Z" fill="#0A2B51"/>
<path d="M57.0772 125.97C54.8114 126.191 52.5652 126.581 50.3573 127.136C49.2602 127.428 48.1905 127.767 47.1162 128.128C46.5814 128.311 46.0465 128.475 45.5071 128.635C44.9455 128.818 44.3637 128.932 43.7745 128.973C43.7636 128.973 43.7532 128.978 43.7454 128.986C43.7377 128.993 43.7334 129.004 43.7334 129.015C43.7334 129.026 43.7377 129.036 43.7454 129.044C43.7532 129.051 43.7636 129.056 43.7745 129.056C44.3326 129.079 44.8917 129.064 45.4477 129.01C45.9829 128.943 46.513 128.839 47.0339 128.699C48.1493 128.411 49.2465 128.077 50.3573 127.785C52.5973 127.191 54.8327 126.596 57.1092 126.162C57.1347 126.158 57.1574 126.144 57.1724 126.123C57.1874 126.102 57.1935 126.076 57.1892 126.05C57.185 126.025 57.1708 126.002 57.1498 125.987C57.1288 125.972 57.1027 125.966 57.0772 125.97Z" fill="#263238"/>
<path d="M62.7015 127.93C60.8314 127.75 58.9527 127.675 57.0742 127.706C56.1599 127.729 55.2045 127.802 54.2673 127.898C53.8102 127.948 53.3531 128.003 52.9325 128.062C52.5119 128.122 51.9634 128.259 51.4742 128.318C51.424 128.318 51.424 128.405 51.4742 128.401C51.9314 128.36 52.4114 128.401 52.8777 128.378L54.2811 128.328C55.1953 128.3 56.1507 128.277 57.0879 128.236C58.9621 128.158 60.8318 128.099 62.7061 128.081C62.8067 128.085 62.7975 127.939 62.7015 127.93Z" fill="#263238"/>
<path d="M33.2888 108.098C33.0374 107.778 32.7814 107.463 32.5025 107.184L32.3059 107.595C32.4888 107.879 32.6854 108.158 32.8865 108.427C33.3601 109.069 33.9079 109.652 34.5185 110.165C34.1848 109.433 33.7725 108.74 33.2888 108.098ZM39.4647 96.3864C39.3716 97.1004 39.3563 97.8223 39.419 98.5395C39.703 97.7899 39.8949 97.0086 39.9904 96.2127C39.9904 96.0938 40.0224 95.9704 40.0361 95.8516C39.8441 96.0207 39.6521 96.199 39.4647 96.3864ZM55.6154 111.262C55.3307 112.01 55.1343 112.79 55.0302 113.584C54.915 114.375 54.889 115.177 54.9525 115.975C55.2395 115.227 55.433 114.447 55.5285 113.652C55.654 112.862 55.6831 112.059 55.6154 111.262ZM45.4441 137.008C45.1623 137.753 44.969 138.53 44.8681 139.321C44.7521 140.112 44.7276 140.914 44.7949 141.712C45.3383 140.206 45.5594 138.604 45.4441 137.008ZM28.1551 117.57C27.876 118.322 27.6828 119.102 27.5791 119.897C27.4628 120.687 27.4383 121.488 27.506 122.283C27.7858 121.534 27.9775 120.755 28.0774 119.961C28.1972 119.17 28.2233 118.367 28.1551 117.57ZM42.4635 114.306C41.6736 114.19 40.8729 114.166 40.0773 114.233C40.8235 114.515 41.5996 114.709 42.3904 114.814C43.18 114.933 43.9809 114.959 44.7766 114.891C44.033 114.602 43.2583 114.399 42.4681 114.288L42.4635 114.306ZM61.6084 136.249C60.8169 136.133 60.0147 136.108 59.2176 136.176C60.7228 136.719 62.3254 136.94 63.9215 136.825C63.1768 136.542 62.4023 136.346 61.613 136.24L61.6084 136.249ZM25.8695 134.141C25.0931 134.029 24.3067 134.001 23.5243 134.059H23.4786H23.5198C24.2582 134.331 25.0249 134.52 25.8055 134.621C26.5954 134.737 27.3961 134.762 28.1917 134.694C27.4416 134.421 26.6623 134.235 25.8695 134.141ZM45.9469 153.017C45.1569 152.901 44.3562 152.876 43.5607 152.943C45.0672 153.488 46.6718 153.707 48.2692 153.588C47.5133 153.309 46.728 153.117 45.9286 153.017H45.9469ZM24.3518 150.703C23.5603 150.587 22.758 150.563 21.9609 150.63C22.7076 150.908 23.4837 151.1 24.2741 151.202C25.0649 151.325 25.868 151.349 26.6649 151.275C25.9123 150.995 25.13 150.804 24.3335 150.703H24.3518ZM46.468 102.942C45.8241 103.421 45.2367 103.971 44.7172 104.583C45.4466 104.251 46.1366 103.838 46.7743 103.353C47.417 102.876 48.0002 102.323 48.5114 101.707C47.787 102.042 47.1017 102.456 46.468 102.942ZM52.164 127.412C51.5215 127.885 50.9383 128.433 50.4269 129.044C51.1541 128.714 51.8399 128.3 52.4703 127.81C53.1138 127.339 53.6971 126.791 54.2074 126.178C53.4806 126.512 52.7949 126.93 52.164 127.421V127.412ZM32.1917 142.37C31.5456 142.841 30.9605 143.391 30.45 144.006C31.1744 143.671 31.8597 143.257 32.4934 142.772C33.136 142.295 33.7233 141.748 34.2442 141.14C33.5103 141.464 32.8206 141.881 32.1917 142.379V142.37ZM65.3615 120.852C64.8884 120.207 64.3406 119.619 63.7295 119.102C64.4057 120.555 65.3827 121.848 66.5958 122.896C66.2674 122.171 65.853 121.488 65.3615 120.862V120.852ZM58.5547 148.541C58.0778 147.898 57.5304 147.311 56.9228 146.79C57.2432 147.524 57.6565 148.214 58.1525 148.843C58.6247 149.487 59.1727 150.071 59.7844 150.585C59.4511 149.86 59.0387 149.175 58.5547 148.541ZM38.5139 126.763C38.0394 126.118 37.4918 125.531 36.8819 125.012C37.206 125.745 37.6207 126.435 38.1162 127.065C38.5871 127.71 39.1352 128.295 39.7481 128.807C39.4152 128.081 39.0012 127.395 38.5139 126.763Z" fill="white"/>
<path d="M37.2567 97.9518C27.0214 106.203 0.809198 138.902 6.71998 146.459C12.6308 154.015 51.9171 150.573 63.3227 146.998C66.7146 145.937 57.4622 124.411 53.7959 123.419C50.7423 122.591 33.8099 127.597 33.4808 126.619C33.1105 125.513 37.6636 119.391 43.4509 106.13C50.1251 90.8342 41.7778 94.3084 37.2567 97.9518Z" fill="white"/>
<path d="M72.2871 121.622C80.1087 122.536 81.9784 123.958 88.9863 121.215C93.5851 119.418 96.7074 121.58 93.3428 125.462C87.8572 131.811 77.5076 132.776 73.8277 132.063L72.2871 121.622Z" fill="white"/>
<path d="M50.3496 123.692C50.3496 123.692 60.0546 121.183 68.4842 121.32C74.3173 121.416 86.98 123.039 95.5742 138.175C97.613 141.763 97.9741 148.328 92.5113 143.66C88.6348 140.355 87.1766 137.087 84.5709 135.573C84.5709 135.573 84.036 143.971 80.3606 145.877C77.146 147.539 73.8173 148.971 70.3996 150.161C70.0376 149.585 69.7138 148.987 69.4305 148.369C69.4305 148.369 65.8283 149.822 60.2878 147.806L50.3496 123.692Z" fill="white"/>
<path d="M74.0382 122.305C76.3239 124.353 81.0415 128.769 83.6381 133.733C86.5455 139.246 90.6597 150.647 86.5683 152.755C83.5695 154.3 81.613 150.08 81.613 150.08C81.613 150.08 82.3215 155.155 79.3273 155.955C76.5845 156.686 75.2633 153.331 75.2633 153.331C75.2633 153.331 75.1628 156.48 72.3834 156.677C69.0371 156.905 69.796 150.277 66.2029 147.575C65.3937 146.967 74.0382 122.305 74.0382 122.305Z" fill="white"/>
<path d="M77.3203 135.856C79.1489 138.141 81.942 144.358 81.7043 149.995C81.7043 150.123 81.5991 150.187 81.5808 150.068C80.7233 145.187 79.2758 140.428 77.27 135.897C77.2646 135.89 77.262 135.882 77.2629 135.873C77.2637 135.864 77.2679 135.857 77.2746 135.851C77.2813 135.846 77.2898 135.843 77.2984 135.844C77.307 135.845 77.3149 135.849 77.3203 135.856Z" fill="#263238"/>
<path d="M71.84 138.928C73.2114 141.053 75.8125 147.613 75.3737 153.305C75.3737 153.433 75.2594 153.487 75.2457 153.369C74.6415 148.447 73.4806 143.61 71.7852 138.95C71.7851 138.944 71.7869 138.938 71.7904 138.932C71.7939 138.927 71.7989 138.923 71.8048 138.92C71.8107 138.918 71.8173 138.917 71.8235 138.919C71.8298 138.92 71.8355 138.923 71.84 138.928Z" fill="#263238"/>
<path d="M84.5837 135.536C86.8694 136.907 88.1448 138.521 89.8453 140.5C90.6765 141.492 91.5617 142.436 92.4967 143.33C93.3562 144.13 94.6224 145.332 95.9115 144.761C96.6293 144.441 96.8258 143.582 96.8853 142.868C96.9416 142.067 96.8246 141.262 96.5424 140.51C96.5424 140.473 96.5973 140.446 96.611 140.487C96.8915 141.151 97.0762 141.851 97.1595 142.567C97.2681 143.24 97.1709 143.929 96.8807 144.546C96.1675 145.808 94.5218 145.57 93.4887 144.907C92.8776 144.484 92.3095 144.002 91.7927 143.467C91.2853 142.969 90.8008 142.448 90.3299 141.918C89.3653 140.82 88.4648 139.673 87.5139 138.571C86.5821 137.521 85.5835 136.531 84.5243 135.609C84.4831 135.573 84.538 135.509 84.5837 135.536Z" fill="#263238"/>
<path d="M87.4914 145.532C87.2217 143.964 85.2835 137.226 84.5155 135.584C84.5106 135.576 84.5093 135.566 84.5119 135.556C84.5145 135.547 84.5207 135.539 84.5292 135.534C84.5377 135.529 84.5477 135.528 84.5572 135.531C84.5666 135.533 84.5746 135.539 84.5795 135.548C86.0286 137.866 87.8572 143.493 88.1771 145.225C88.4971 146.958 88.8034 149.102 88.36 150.807C87.6926 153.376 85.864 153.422 85.2012 153.385C84.4181 153.328 83.678 153.006 83.1029 152.471C82.4479 151.788 81.9379 150.979 81.6035 150.094C81.6035 150.053 81.6447 150.016 81.6675 150.057C82.2984 151.301 83.5189 152.686 84.9635 152.864C85.2833 152.914 85.6099 152.899 85.9239 152.82C86.238 152.742 86.5331 152.601 86.792 152.407C87.3346 151.888 87.6707 151.189 87.7383 150.441C87.9377 148.803 87.8542 147.142 87.4914 145.532Z" fill="#263238"/>
<path d="M75.3725 153.305C75.6513 153.703 76.1131 154.96 77.2239 155.49C77.6102 155.711 78.0442 155.834 78.4886 155.849C78.933 155.864 79.3743 155.771 79.7747 155.577C80.5383 155.103 81.0875 154.351 81.3061 153.479C81.4909 152.364 81.5902 151.236 81.6033 150.105C81.6033 150.051 81.6718 150.046 81.6764 150.105C81.8187 151.331 81.7756 152.572 81.5484 153.785C81.441 154.261 81.2397 154.71 80.9563 155.106C80.6729 155.503 80.3132 155.838 79.8981 156.094C79.4586 156.334 78.9612 156.448 78.461 156.423C77.9608 156.398 77.4773 156.235 77.0639 155.952C76.6479 155.664 75.4411 154.361 75.2354 153.337C75.2399 153.305 75.3588 153.287 75.3725 153.305Z" fill="#263238"/>
<path d="M66.5538 147.17C66.8844 147.536 67.1712 147.939 67.4087 148.372C67.6784 148.829 67.9344 149.263 68.1767 149.721C68.6582 150.644 69.0427 151.616 69.3241 152.619C69.6166 153.624 69.8452 154.722 70.5355 155.549C70.8586 155.958 71.3022 156.255 71.8036 156.398C72.3049 156.541 72.8385 156.522 73.3286 156.344C73.8475 156.138 74.2788 155.759 74.5492 155.27C74.8625 154.743 75.072 154.162 75.1663 153.556C75.1642 153.55 75.1636 153.544 75.1643 153.539C75.165 153.533 75.1672 153.527 75.1706 153.522C75.1739 153.517 75.1784 153.513 75.1836 153.511C75.1889 153.508 75.1947 153.507 75.2006 153.507C75.2065 153.507 75.2123 153.508 75.2175 153.511C75.2227 153.513 75.2272 153.517 75.2306 153.522C75.234 153.527 75.2361 153.533 75.2369 153.539C75.2376 153.544 75.2369 153.55 75.2349 153.556C75.1958 154.105 75.1008 154.649 74.9514 155.179C74.7786 155.655 74.4839 156.077 74.0966 156.404C73.6906 156.714 73.2071 156.906 72.699 156.959C72.1909 157.013 71.678 156.925 71.2166 156.706C70.1926 156.248 69.6166 155.215 69.2601 154.191C68.8624 153.053 68.5972 151.878 68.1447 150.754C67.9115 150.159 67.6875 149.565 67.4041 148.994C67.1207 148.422 66.7275 147.828 66.4898 147.215C66.4624 147.179 66.5173 147.129 66.5538 147.17Z" fill="#263238"/>
<path d="M62.9849 148.591C64.4301 148.799 65.8918 148.871 67.3505 148.805C67.3963 148.805 67.4237 148.938 67.378 148.947C66.6548 149.083 65.9191 149.139 65.1837 149.116C64.4381 149.085 63.7015 148.942 62.9986 148.691C62.9392 148.659 62.9392 148.581 62.9849 148.591Z" fill="#263238"/>
<path d="M18.0979 131.513C20.5416 130.333 23.067 129.331 25.6544 128.514C28.2148 127.714 30.8306 127.102 33.4806 126.685C34.9937 126.434 36.5114 126.256 38.0519 126.068C38.0977 126.068 38.1068 126.132 38.0519 126.137C35.3892 126.568 32.7533 127.151 30.1572 127.883C27.5728 128.587 25.0037 129.338 22.4499 130.137C21.0053 130.594 19.579 131.106 18.1482 131.604C18.0979 131.641 18.0522 131.545 18.0979 131.513Z" fill="#263238"/>
<path d="M15.8711 117.805L37.5348 120.159C37.5348 120.159 43.0616 110.102 45.937 100.836C48.8124 91.5699 40.6479 93.371 31.1075 102.354C21.567 111.336 15.8711 117.805 15.8711 117.805Z" fill="#0A2B51"/>
<path d="M15.8711 117.805L37.5348 120.159C37.5348 120.159 43.0616 110.102 45.937 100.836C48.8124 91.5699 40.6479 93.371 31.1075 102.354C21.567 111.336 15.8711 117.805 15.8711 117.805Z" fill="#0A2B51"/>
<path d="M39.5005 96.0848C39.5027 96.1076 39.5027 96.1306 39.5005 96.1534C39.3845 96.9449 39.3599 97.7471 39.4273 98.5442C39.7113 97.7946 39.9032 97.0133 39.9987 96.2174C39.9987 96.0803 40.0353 95.9477 40.049 95.8105L39.5005 96.0848ZM28.1543 117.57C27.9559 118.069 27.8029 118.585 27.6972 119.111L28.1543 119.157C28.2046 118.629 28.2046 118.098 28.1543 117.57ZM20.639 112.693L20.4287 112.912C20.6664 112.912 20.8858 112.912 21.1464 112.871C20.9727 112.802 20.8081 112.743 20.639 112.693ZM40.081 114.215C40.209 114.265 40.3416 114.315 40.4742 114.357C40.4978 114.297 40.5253 114.239 40.5565 114.183C40.401 114.187 40.241 114.197 40.081 114.215ZM33.288 108.098C32.811 107.456 32.2636 106.868 31.656 106.348C31.9774 107.082 32.3906 107.774 32.8857 108.405C33.3593 109.046 33.9071 109.629 34.5177 110.142C34.1825 109.418 33.7703 108.733 33.288 108.098Z" fill="white"/>
<path d="M36.6577 119.957C36.7766 119.957 37.572 119.957 37.572 119.957C37.668 119.679 39.5331 115.386 39.9903 114.472C40.932 112.593 41.9834 110.764 43.0074 108.931C43.0394 108.872 43.1308 108.931 43.0988 108.972C42.3765 110.572 41.6817 112.172 40.9457 113.782C41.1285 113.567 41.3114 113.352 41.4897 113.132C41.8508 112.675 42.18 112.218 42.5228 111.734C42.5548 111.692 42.6188 111.734 42.596 111.784C42.2688 112.445 41.8553 113.06 41.3663 113.612C41.1586 113.855 40.9341 114.083 40.6943 114.294C40.6348 114.426 40.5754 114.563 40.5114 114.691C40.0543 115.606 37.8006 120.213 37.7183 120.209L36.676 120.081C36.5983 120.099 36.5983 119.953 36.6577 119.957Z" fill="#263238"/>
<path d="M19.9534 114.125C24.6527 114.441 29.3384 115.085 33.9966 115.817C35.3193 116.027 36.6328 116.266 37.9371 116.534C37.9737 116.534 37.9737 116.598 37.9371 116.594C35.5966 116.388 33.2606 116.086 30.9246 115.798C28.5887 115.51 26.2344 115.199 23.8985 114.829C22.5819 114.628 21.2608 114.427 19.9488 114.203C19.8939 114.207 19.8939 114.121 19.9534 114.125Z" fill="#263238"/>
<path d="M44.8535 94.7582C44.9358 95.7091 48.474 102.319 52.7117 102.726C54.0831 102.854 55.1391 95.3525 55.1391 95.3525L55.3402 94.8176L58.1882 87.3114L49.914 80.1573L48.7118 79.1973C48.7118 79.1973 48.0672 81.3001 47.2946 83.9286C47.2581 84.0521 47.2169 84.1755 47.1803 84.3035C47.1438 84.4315 47.0889 84.5915 47.0478 84.7286C46.9289 85.1218 46.8055 85.5195 46.6958 85.9218C46.6089 86.228 46.5221 86.5252 46.4398 86.836C46.3575 87.1469 46.2752 87.476 46.1838 87.796C45.5824 90.0838 45.1379 92.4099 44.8535 94.7582Z" fill="white"/>
<path d="M47.2949 83.9286C47.7661 86.2185 48.7297 88.3785 50.119 90.2588C51.5083 92.1391 53.29 93.6947 55.3405 94.8176L58.1885 87.3114L49.9143 80.1573L48.712 79.1973C48.712 79.1973 48.0675 81.3001 47.2949 83.9286Z" fill="#263238"/>
<path d="M60.6946 75.7857C61.4214 78.9857 64.3014 81.0931 67.1265 80.4576C69.9516 79.8222 71.6476 76.6908 70.9207 73.4726C70.1939 70.2543 67.3139 68.1607 64.4888 68.8006C61.6637 69.4406 59.9677 72.5629 60.6946 75.7857Z" fill="#455A64"/>
<path d="M59.0815 76.3614C59.8952 79.9408 63.0951 82.2676 66.2402 81.5591C69.3853 80.8505 71.2687 77.3717 70.4596 73.7878C69.6505 70.2038 66.446 67.8815 63.3054 68.5901C60.1649 69.2987 58.2723 72.7729 59.0815 76.3614Z" fill="#C7C7C7"/>
<path d="M68.3241 71.7802C72.1641 85.3343 64.4796 89.1514 61.5539 89.9925C58.8979 90.7422 49.7644 92.9548 44.5439 79.8669C39.3233 66.7791 44.4113 60.7083 50.3906 58.6741C56.37 56.6398 64.4842 58.2215 68.3241 71.7802Z" fill="white"/>
<path d="M63.607 70.0744C63.285 70.1063 62.9615 70.1201 62.6379 70.1155C62.2977 70.1805 61.9456 70.1306 61.6368 69.9738C61.5488 69.9059 61.4859 69.8107 61.4578 69.7032C61.4297 69.5956 61.4379 69.4818 61.4813 69.3795C61.598 69.1912 61.763 69.0375 61.9591 68.9346C62.1553 68.8317 62.3755 68.7833 62.5968 68.7944C63.0471 68.7443 63.5 68.8633 63.8676 69.1281C63.9469 69.1945 64.0055 69.2823 64.0363 69.381C64.0672 69.4798 64.0689 69.5853 64.0415 69.685C64.014 69.7847 63.9585 69.8745 63.8814 69.9435C63.8044 70.0125 63.7092 70.058 63.607 70.0744Z" fill="#263238"/>
<path d="M54.6699 73.23C54.9805 73.1338 55.2857 73.0209 55.5842 72.8917C55.9226 72.817 56.2275 72.634 56.4527 72.3706C56.5061 72.2732 56.5261 72.161 56.5096 72.0512C56.4931 71.9414 56.441 71.84 56.3613 71.7626C56.18 71.635 55.968 71.558 55.747 71.5395C55.5261 71.521 55.3042 71.5617 55.1042 71.6575C54.6706 71.7879 54.3009 72.0746 54.0665 72.462C54.0184 72.5534 53.9977 72.6568 54.0071 72.7597C54.0164 72.8625 54.0554 72.9605 54.1192 73.0417C54.183 73.1229 54.269 73.1839 54.3667 73.2173C54.4644 73.2508 54.5697 73.2552 54.6699 73.23Z" fill="#263238"/>
<path d="M57.4125 75.6192C57.4125 75.5826 57.353 75.6832 57.3668 75.7198C57.6593 76.6341 57.8239 77.7312 57.0925 78.2752C57.0696 78.2752 57.0925 78.3346 57.1153 78.3255C58.0845 77.8912 57.8285 76.4283 57.4125 75.6192Z" fill="#263238"/>
<path d="M56.3056 74.8891C54.7879 75.1999 55.5193 78.2079 56.9273 77.9199C58.3353 77.6319 57.5764 74.6285 56.3056 74.8891Z" fill="#263238"/>
<path d="M55.7526 75.1906C55.5332 75.4284 55.3458 75.7895 55.0395 75.8992C54.7332 76.0089 54.3264 75.7758 54.0155 75.5289C53.9835 75.5061 53.9607 75.5289 53.9698 75.5792C54.1024 76.1552 54.4681 76.6946 55.1081 76.6306C55.7481 76.5666 55.9721 75.9632 55.9721 75.3461C55.9766 75.2318 55.8441 75.0992 55.7526 75.1906Z" fill="#263238"/>
<path d="M62.7549 73.968C62.7549 73.9314 62.8417 73.9954 62.8463 74.0319C63.0383 74.9737 63.4132 76.0205 64.332 76.1302C64.3594 76.1302 64.3686 76.1805 64.332 76.1851C63.2714 76.2811 62.7869 74.8868 62.7549 73.968Z" fill="#263238"/>
<path d="M63.3558 72.7996C64.8277 72.3425 65.6414 75.3139 64.27 75.7481C62.8986 76.1824 62.1261 73.1882 63.3558 72.7996Z" fill="#263238"/>
<path d="M64.041 72.824C64.3198 72.9154 64.6307 73.1394 64.9187 73.08C65.2067 73.0206 65.4033 72.6229 65.5267 72.2526C65.5267 72.216 65.5724 72.2526 65.5815 72.2526C65.7553 72.8194 65.7324 73.464 65.2113 73.7246C64.6901 73.9851 64.2376 73.5737 63.945 73.0434C63.8901 72.9703 63.9267 72.7737 64.041 72.824Z" fill="#263238"/>
<path d="M59.5235 83.1344C59.7886 83.3127 60.072 83.5916 60.4377 83.5321C60.7875 83.4563 61.1175 83.3084 61.4069 83.0979C61.4123 83.0912 61.4202 83.087 61.4288 83.0861C61.4374 83.0852 61.4459 83.0878 61.4526 83.0933C61.4592 83.0987 61.4635 83.1066 61.4643 83.1152C61.4652 83.1238 61.4626 83.1323 61.4572 83.139C61.3581 83.3503 61.204 83.5311 61.0109 83.6622C60.8178 83.7934 60.593 83.87 60.36 83.8841C60.156 83.8739 59.9598 83.8026 59.7968 83.6796C59.6337 83.5565 59.5114 83.3873 59.4458 83.1939C59.4138 83.1436 59.4823 83.1116 59.5235 83.1344Z" fill="#263238"/>
<path d="M62.5912 78.4879C62.5912 78.4879 63.1352 79.8273 63.3043 80.481C63.3043 80.545 61.0552 81.6421 59.6015 80.2981C59.5864 80.2878 59.5759 80.2719 59.5725 80.2539C59.5691 80.2359 59.5729 80.2173 59.5833 80.2021C59.5936 80.187 59.6095 80.1765 59.6275 80.1731C59.6455 80.1697 59.6641 80.1735 59.6793 80.1838C60.6596 80.5409 61.7292 80.5714 62.7284 80.2707C62.7284 80.0787 61.7135 78.0079 61.8141 77.985C62.3339 77.8995 62.8628 77.8842 63.3866 77.9393C62.3261 75.1188 60.8267 72.4902 59.8164 69.6605C59.8074 69.6396 59.8066 69.6161 59.8141 69.5946C59.8216 69.5731 59.8368 69.5551 59.8569 69.5443C59.8769 69.5334 59.9002 69.5304 59.9223 69.5358C59.9444 69.5413 59.9637 69.5548 59.9764 69.5737C61.7455 72.2205 63.0346 75.4433 64.2003 78.3279C64.3558 78.6799 62.8975 78.5336 62.5912 78.4879Z" fill="#263238"/>
<path d="M62.7231 80.5902C62.4802 81.1969 62.0869 81.7317 61.5802 82.1444C61.2958 82.3579 60.9528 82.4791 60.5974 82.4918C59.8157 82.4918 59.61 81.8473 59.5825 81.2393C59.5715 80.9174 59.5976 80.5952 59.6602 80.2793C60.6216 80.708 61.6952 80.8169 62.7231 80.5902Z" fill="#263238"/>
<path d="M61.5807 82.1436C61.2962 82.357 60.9533 82.4783 60.5979 82.491C59.8161 82.491 59.6104 81.8465 59.583 81.2385C60.383 81.0968 61.2973 81.4076 61.5807 82.1436Z" fill="#FF99BA"/>
<path d="M45.1961 79.4151C47.8201 79.5843 48.1218 73.5821 48.1218 73.5821C48.1218 73.5821 59.0931 71.0267 59.4862 61.9388C59.4862 61.9388 61.7399 67.5798 67.7147 69.829C67.7147 69.829 66.7227 59.9548 58.7594 58.5103C58.7594 58.5103 48.8029 55.5571 43.7973 63.621C38.7916 71.6849 43.4362 79.3008 45.1961 79.4151Z" fill="#263238"/>
<path d="M59.4879 61.2656C59.7046 62.6522 59.622 64.069 59.2456 65.421C58.8904 66.795 58.252 68.0796 57.3714 69.1924C57.1554 69.4722 56.9218 69.7378 56.6719 69.9878L56.3062 70.3764C56.1782 70.4952 56.0411 70.6049 55.9039 70.7192C55.6297 70.9386 55.3645 71.1764 55.0811 71.3821C54.7977 71.5878 54.4868 71.7569 54.1668 71.9398C54.016 72.0266 53.8697 72.1226 53.7097 72.2049L53.2525 72.4243L52.2971 72.8586C51.6389 73.0872 50.9714 73.2792 50.3086 73.462C50.9257 73.1466 51.5657 72.8952 52.1737 72.5798L53.0651 72.0769L53.5223 71.8255C53.664 71.7341 53.7965 71.6289 53.9337 71.5283C54.208 71.3272 54.4822 71.1306 54.7611 70.9386C55.04 70.7466 55.264 70.4815 55.5154 70.2758L55.8948 69.9421L56.2331 69.5672C56.4656 69.3273 56.6839 69.0739 56.8868 68.8084C57.7176 67.7485 58.3621 66.5551 58.7931 65.2793C59.0136 64.6387 59.1817 63.9814 59.2959 63.3136C59.4175 62.6376 59.4817 61.9525 59.4879 61.2656Z" fill="#263238"/>
<path d="M47.1534 79.2713C47.1534 79.2713 43.3043 75.5274 41.5534 76.9856C39.8026 78.4439 43.2723 84.2678 45.7362 84.6792C46.0485 84.7543 46.3727 84.7655 46.6893 84.712C47.006 84.6586 47.3085 84.5417 47.5789 84.3683C47.8492 84.1949 48.0816 83.9687 48.2622 83.7032C48.4429 83.4376 48.5679 83.1384 48.6299 82.8233L47.1534 79.2713Z" fill="#EB9481"/>
<path d="M42.5916 78.6297C42.5831 78.6297 42.5749 78.6331 42.5689 78.6391C42.5629 78.6451 42.5596 78.6533 42.5596 78.6617C42.5596 78.6702 42.5629 78.6784 42.5689 78.6844C42.5749 78.6904 42.5831 78.6937 42.5916 78.6937C44.3333 79.0366 45.467 80.3714 46.363 81.8068C45.7687 81.304 45.051 81.1028 44.3607 81.8068C44.3241 81.848 44.3607 81.9028 44.4201 81.8846C44.6871 81.7407 44.992 81.6828 45.2931 81.7188C45.5942 81.7548 45.8768 81.883 46.1024 82.0857C46.4777 82.4261 46.8149 82.8062 47.1081 83.2194C47.2087 83.352 47.4555 83.2194 47.3687 83.0685L47.3458 83.032C46.9892 81.0023 44.8361 78.4149 42.5916 78.6297Z" fill="#263238"/>
<path d="M44.5208 77.3666C44.5208 77.3666 42.0248 70.7152 42.8888 66.3724C43.8488 61.5359 49.8419 56.0183 56.6944 58.0845C56.6944 58.0845 48.5436 59.3051 45.6637 65.8559C44.338 68.873 46.8431 76.8591 46.8431 76.8591L44.5208 77.3666Z" fill="#C7C7C7"/>
<path d="M48.3701 86.8459C51.3953 85.9036 52.9767 82.3435 51.9023 78.8941C50.828 75.4447 47.5046 73.4123 44.4795 74.3545C41.4543 75.2967 39.8729 78.8568 40.9473 82.3062C42.0216 85.7556 45.345 87.7881 48.3701 86.8459Z" fill="#C7C7C7"/>
<path d="M50.252 79.1699C51.2166 82.2693 49.7949 85.4693 47.0521 86.315C44.3093 87.1607 41.347 85.3367 40.3779 82.2373C39.4088 79.1379 40.835 75.938 43.5778 75.0877C46.3207 74.2374 49.2875 76.0888 50.252 79.1699Z" fill="#455A64"/>
<path d="M55.3088 94.8644L52.7945 101.209L44.8861 93.2324L42.6689 95.8107C42.6689 95.8107 50.4403 108.51 50.4677 107.934L53.0551 102.448L56.8402 106.229L56.4973 96.7112L55.3088 94.8644Z" fill="#EBEBEB"/>
<path d="M56.9554 101.522C56.8412 99.9536 56.7772 98.3627 56.5943 96.7993C56.5943 96.7444 56.4983 96.7216 56.4846 96.7993C56.1783 98.317 56.6309 104.328 56.6309 105.768C56.4754 105.604 53.1246 102.44 53.0926 102.491C52.5304 103.359 50.6332 107.345 50.5052 107.707C49.2755 105.691 44.0733 97.741 42.6242 95.821C42.6156 95.8123 42.6042 95.8067 42.592 95.8051C42.5798 95.8036 42.5675 95.8062 42.5569 95.8125C42.5464 95.8188 42.5382 95.8285 42.5339 95.84C42.5295 95.8515 42.5291 95.8642 42.5328 95.8759C43.6162 98.0062 50.3361 108.497 50.4321 108.47C51.4318 106.59 52.335 104.66 53.1383 102.687C53.7052 103.378 57.088 106.948 57.0971 106.715C57.1396 104.982 57.0923 103.249 56.9554 101.522Z" fill="#263238"/>
<path d="M101.058 52.5895C100.784 55.2191 99.7842 57.7208 98.1708 59.8154C96.5573 61.9099 94.3936 63.5149 91.9211 64.4513C89.4485 65.3877 86.7644 65.6186 84.1683 65.1183C81.5721 64.618 79.1661 63.4061 77.2186 61.618L70.0781 62.6648L73.6529 56.4935C72.8438 54.4861 72.502 52.321 72.6534 50.162C72.8048 48.003 73.4453 45.9068 74.5266 44.0319C75.6079 42.1571 77.1015 40.5529 78.8944 39.3406C80.6874 38.1284 82.7326 37.3399 84.8753 37.0349C87.018 36.73 89.2019 36.9165 91.2619 37.5803C93.3219 38.2442 95.2038 39.368 96.7652 40.8666C98.3267 42.3653 99.5267 44.1996 100.274 46.2306C101.022 48.2616 101.298 50.4361 101.081 52.5895H101.058Z" fill="white"/>
<path d="M101.059 52.5926C100.783 55.2236 99.7863 57.7276 98.1792 59.829C97.3898 60.8787 96.4466 61.8034 95.3815 62.5718C94.3298 63.3689 93.171 64.0137 91.9393 64.4873C90.7066 64.9694 89.4126 65.2772 88.0947 65.4015C87.4367 65.4617 86.7752 65.4739 86.1153 65.4381C85.4526 65.4224 84.7922 65.3536 84.1405 65.2324C81.5074 64.7585 79.0585 63.5601 77.0686 61.7719L77.2377 61.8221L70.1064 62.9193L69.5898 62.997L69.8504 62.5399L73.4115 56.3548V56.6016C72.5742 54.556 72.2183 52.3452 72.3713 50.1401C72.5242 47.935 73.182 45.7946 74.2938 43.8841C75.4039 41.9808 76.9309 40.3538 78.76 39.1253C80.5877 37.915 82.6656 37.1341 84.838 36.8412C87.0104 36.5483 89.2209 36.7509 91.3038 37.4339C93.3614 38.1369 95.2357 39.2912 96.7895 40.8121C98.3455 42.3252 99.5381 44.1714 100.278 46.2119C101.017 48.2523 101.284 50.4339 101.059 52.5926ZM101.059 52.5926C101.287 50.4436 101.019 48.2709 100.275 46.242C99.5305 44.2131 98.3304 42.3821 96.767 40.8902C95.2035 39.3983 93.3184 38.2852 91.2568 37.6369C89.1953 36.9885 87.0125 36.8221 84.8765 37.1505C82.7603 37.4684 80.7448 38.2658 78.984 39.4819C77.2402 40.7051 75.7833 42.2931 74.7144 44.1355C73.6625 45.9847 73.0436 48.0482 72.9042 50.171C72.7649 52.2938 73.1087 54.4206 73.9098 56.3914L73.9601 56.5194L73.8915 56.6336L70.2984 62.7958L70.0424 62.4164L77.1875 61.4153H77.288L77.3566 61.4839C79.2712 63.271 81.6455 64.4898 84.2137 65.0038C84.8512 65.1318 85.4977 65.2097 86.1473 65.237C86.7972 65.2827 87.4495 65.2827 88.0993 65.237C89.4027 65.1353 90.6857 64.8538 91.9118 64.4004C93.1451 63.9562 94.3052 63.3306 95.3541 62.5444C96.4261 61.7811 97.373 60.8557 98.1609 59.8016C99.7728 57.7115 100.776 55.2167 101.059 52.5926Z" fill="#263238"/>
<path d="M93.0961 53.2685C94.0505 53.2685 94.8241 52.4948 94.8241 51.5405C94.8241 50.5861 94.0505 49.8125 93.0961 49.8125C92.1418 49.8125 91.3682 50.5861 91.3682 51.5405C91.3682 52.4948 92.1418 53.2685 93.0961 53.2685Z" fill="#263238"/>
<path d="M86.9018 53.2685C87.8561 53.2685 88.6298 52.4948 88.6298 51.5405C88.6298 50.5861 87.8561 49.8125 86.9018 49.8125C85.9475 49.8125 85.1738 50.5861 85.1738 51.5405C85.1738 52.4948 85.9475 53.2685 86.9018 53.2685Z" fill="#263238"/>
<path d="M80.7114 53.2685C81.6657 53.2685 82.4394 52.4948 82.4394 51.5405C82.4394 50.5861 81.6657 49.8125 80.7114 49.8125C79.757 49.8125 78.9834 50.5861 78.9834 51.5405C78.9834 52.4948 79.757 53.2685 80.7114 53.2685Z" fill="#263238"/>
<path d="M243.009 52.5914C242.735 55.2211 241.735 57.7227 240.122 59.8173C238.509 61.9118 236.345 63.5169 233.872 64.4532C231.4 65.3896 228.716 65.6206 226.119 65.1202C223.523 64.6199 221.117 63.4081 219.17 61.6199L212.029 62.6667L215.6 56.4954C214.787 54.487 214.442 52.32 214.592 50.1586C214.741 47.9972 215.381 45.8982 216.462 44.0207C217.543 42.1433 219.038 40.5366 220.832 39.3225C222.626 38.1084 224.674 37.3188 226.819 37.0135C228.963 36.7082 231.15 36.8953 233.212 37.5605C235.274 38.2257 237.157 39.3516 238.719 40.8528C240.281 42.3541 241.481 44.1913 242.227 46.2251C242.974 48.259 243.248 50.4361 243.028 52.5914H243.009Z" fill="white"/>
<path d="M243.009 52.5913C242.731 55.2218 241.734 57.7252 240.129 59.8277C239.728 60.3481 239.296 60.8442 238.835 61.3134C238.359 61.7692 237.855 62.1952 237.327 62.5889C236.276 63.3878 235.117 64.0328 233.885 64.5043C232.653 64.9867 231.361 65.2944 230.045 65.4185C229.385 65.4787 228.722 65.491 228.061 65.4551C227.398 65.4391 226.738 65.3703 226.086 65.2494C223.455 64.7663 221.011 63.5601 219.028 61.766L219.197 61.8163L212.065 62.9134L211.549 62.9911L211.809 62.534L215.361 56.3489V56.5958C214.524 54.5502 214.168 52.3398 214.32 50.1349C214.473 47.93 215.129 45.7894 216.239 43.8782C217.351 41.9747 218.879 40.3478 220.71 39.1195C222.537 37.9091 224.615 37.1283 226.788 36.8353C228.96 36.5424 231.171 36.745 233.254 37.428C235.311 38.1305 237.186 39.2848 238.739 40.8063C240.297 42.3192 241.49 44.1661 242.23 46.2076C242.97 48.2491 243.236 50.4318 243.009 52.5913ZM243.009 52.5913C243.237 50.4423 242.969 48.2696 242.224 46.2407C241.48 44.2118 240.28 42.3808 238.717 40.8889C237.153 39.397 235.268 38.284 233.207 37.6356C231.145 36.9872 228.962 36.8208 226.826 37.1492C224.71 37.4671 222.695 38.2645 220.934 39.4806C219.19 40.7038 217.733 42.2918 216.664 44.1342C215.605 45.9826 214.98 48.0475 214.836 50.173C214.701 52.2941 215.043 54.4184 215.837 56.3901L215.892 56.5181L215.823 56.6324L212.23 62.7946L211.974 62.4151L219.119 61.414H219.22L219.288 61.4826C221.196 63.2659 223.562 64.4845 226.122 65.0025C226.76 65.1305 227.406 65.2085 228.056 65.2357C228.706 65.2814 229.358 65.2814 230.008 65.2357C231.311 65.134 232.594 64.8525 233.821 64.3991C235.053 63.954 236.213 63.3286 237.263 62.5431C238.332 61.7782 239.277 60.8531 240.065 59.8003C241.695 57.7163 242.714 55.2205 243.009 52.5913Z" fill="#263238"/>
<path d="M235.023 53.2685C235.977 53.2685 236.751 52.4948 236.751 51.5405C236.751 50.5861 235.977 49.8125 235.023 49.8125C234.069 49.8125 233.295 50.5861 233.295 51.5405C233.295 52.4948 234.069 53.2685 235.023 53.2685Z" fill="#263238"/>
<path d="M228.833 53.2685C229.788 53.2685 230.561 52.4948 230.561 51.5405C230.561 50.5861 229.788 49.8125 228.833 49.8125C227.879 49.8125 227.105 50.5861 227.105 51.5405C227.105 52.4948 227.879 53.2685 228.833 53.2685Z" fill="#263238"/>
<path d="M224.372 51.5418C224.373 51.8837 224.272 52.2183 224.083 52.503C223.894 52.7878 223.624 53.01 223.308 53.1415C222.993 53.273 222.645 53.3078 222.31 53.2417C221.974 53.1755 221.666 53.0113 221.424 52.7698C221.182 52.5283 221.017 52.2205 220.95 51.8851C220.883 51.5498 220.916 51.2021 221.047 50.8861C221.178 50.5701 221.399 50.3 221.684 50.1099C221.968 49.9198 222.302 49.8184 222.644 49.8184C223.101 49.8184 223.54 49.9998 223.864 50.3229C224.188 50.6459 224.371 51.0843 224.372 51.5418Z" fill="#263238"/>
<path d="M77.4342 153.766H74.376V155.763H77.4342V153.766Z" fill="#455A64"/>
<path d="M81.402 153.633H78.3438V155.63H81.402V153.633Z" fill="#455A64"/>
<path d="M85.3707 153.5H82.3125V155.498H85.3707V153.5Z" fill="#455A64"/>
<path d="M89.3346 153.367H86.2764V155.365H89.3346V153.367Z" fill="#455A64"/>
<path d="M93.3004 153.234H90.2422V155.232H93.3004V153.234Z" fill="#455A64"/>
<path d="M97.2702 153.105H94.2119V155.103H97.2702V153.105Z" fill="#455A64"/>
<path d="M101.233 152.975H98.1748V154.972H101.233V152.975Z" fill="#455A64"/>
<path d="M105.201 152.842H102.143V154.839H105.201V152.842Z" fill="#455A64"/>
<path d="M109.166 152.709H106.107V154.707H109.166V152.709Z" fill="#455A64"/>
<path d="M109.914 156.909H73.626V154.477L109.914 153.467V156.909Z" fill="#37474F"/>
<path d="M145.333 147.329H85.4297L94.9564 102.73H154.86L145.333 147.329Z" fill="#455A64"/>
<path d="M147.549 147.329H87.6416L97.1683 102.73H157.076L147.549 147.329Z" fill="#37474F"/>
<path d="M127.537 122.445C127.353 123.461 126.827 124.382 126.045 125.056C125.264 125.73 124.275 126.115 123.244 126.148C122.779 126.163 122.316 126.071 121.891 125.881C121.466 125.692 121.09 125.408 120.79 125.051C120.491 124.695 120.276 124.275 120.161 123.824C120.047 123.373 120.037 122.901 120.131 122.445C120.313 121.43 120.838 120.507 121.618 119.832C122.399 119.157 123.388 118.771 124.419 118.738C124.885 118.723 125.349 118.813 125.775 119.003C126.201 119.193 126.578 119.477 126.878 119.834C127.179 120.191 127.394 120.612 127.508 121.064C127.622 121.516 127.632 121.989 127.537 122.445Z" fill="#263238"/>
<path d="M130.608 158.977H101.146V156.687L130.608 155.736V158.977Z" fill="#455A64"/>
<path d="M138.618 158.974H122.796L113.27 133.982H129.091L138.618 158.974Z" fill="#455A64"/>
<path d="M141.219 158.974H125.402L115.875 133.982H131.692L141.219 158.974Z" fill="#263238"/>
<path d="M72.4971 159.586H42.1341C39.5421 159.586 43.2907 152.203 52.7534 149.373C62.2161 146.543 75.4914 156.815 72.4971 159.586Z" fill="#37474F"/>
<path d="M60.6123 159.583C60.6327 158.742 60.7712 157.908 61.0237 157.106C61.2675 156.294 61.6098 155.516 62.0431 154.788C62.4775 154.056 63.0217 153.394 63.6568 152.827C64.2866 152.264 65.0109 151.817 65.7962 151.506C65.4717 151.771 65.1014 151.963 64.8042 152.251L64.3471 152.649L63.9174 153.106C63.3559 153.694 62.8635 154.344 62.45 155.044C62.0296 155.744 61.6687 156.478 61.3712 157.238C61.0662 158.002 60.8127 158.786 60.6123 159.583Z" fill="#263238"/>
<path d="M64.1865 152.557C65.9933 153.128 67.7027 153.972 69.2562 155.057C70.0423 155.6 70.7539 156.244 71.3727 156.973C72.0218 157.697 72.4167 158.614 72.4973 159.583C72.2456 158.689 71.7631 157.877 71.0984 157.229C70.4507 156.569 69.742 155.972 68.9819 155.446C68.2276 154.902 67.4368 154.413 66.6322 153.933C65.8276 153.453 65.0185 153 64.1865 152.557Z" fill="#263238"/>
<path d="M217.712 153.766H214.653V155.763H217.712V153.766Z" fill="#455A64"/>
<path d="M221.678 153.633H218.62V155.63H221.678V153.633Z" fill="#455A64"/>
<path d="M225.647 153.5H222.589V155.498H225.647V153.5Z" fill="#455A64"/>
<path d="M229.61 153.367H226.552V155.365H229.61V153.367Z" fill="#455A64"/>
<path d="M233.579 153.234H230.521V155.232H233.579V153.234Z" fill="#455A64"/>
<path d="M237.548 153.105H234.489V155.103H237.548V153.105Z" fill="#455A64"/>
<path d="M241.509 152.975H238.451V154.972H241.509V152.975Z" fill="#455A64"/>
<path d="M245.477 152.842H242.419V154.839H245.477V152.842Z" fill="#455A64"/>
<path d="M249.446 152.709H246.388V154.707H249.446V152.709Z" fill="#455A64"/>
<path d="M250.196 156.909H213.908V154.477L250.196 153.467V156.909Z" fill="#37474F"/>
<path d="M285.609 147.329H225.706L235.233 102.73H295.136L285.609 147.329Z" fill="#455A64"/>
<path d="M287.827 147.329H227.924L237.451 102.73H297.354L287.827 147.329Z" fill="#37474F"/>
<path d="M267.813 122.445C267.63 123.46 267.104 124.381 266.324 125.055C265.543 125.728 264.556 126.114 263.525 126.148C263.059 126.163 262.596 126.073 262.171 125.883C261.745 125.693 261.368 125.41 261.068 125.053C260.768 124.697 260.552 124.277 260.438 123.825C260.324 123.373 260.313 122.902 260.407 122.445C260.59 121.43 261.115 120.508 261.896 119.833C262.676 119.159 263.664 118.772 264.695 118.738C265.162 118.723 265.625 118.813 266.051 119.003C266.477 119.193 266.855 119.477 267.155 119.834C267.455 120.191 267.67 120.612 267.784 121.064C267.898 121.516 267.908 121.989 267.813 122.445Z" fill="#263238"/>
<path d="M270.885 158.977H241.423V156.687L270.885 155.736V158.977Z" fill="#455A64"/>
<path d="M278.893 158.974H263.072L253.545 133.982H269.366L278.893 158.974Z" fill="#455A64"/>
<path d="M281.501 158.974H265.679L256.152 133.982H271.974L281.501 158.974Z" fill="#263238"/>
<path d="M212.788 159.586H182.411C179.819 159.586 183.568 152.203 193.031 149.373C202.493 146.543 215.769 156.815 212.788 159.586Z" fill="#37474F"/>
<path d="M200.864 159.583C200.887 158.743 201.025 157.909 201.276 157.106C201.521 156.295 201.864 155.517 202.295 154.788C202.732 154.058 203.276 153.397 203.909 152.827C204.539 152.264 205.263 151.817 206.048 151.506C205.724 151.771 205.353 151.963 205.056 152.251L204.599 152.649L204.169 153.106C203.605 153.692 203.111 154.343 202.697 155.044C202.277 155.744 201.916 156.478 201.619 157.238C201.315 158.002 201.063 158.786 200.864 159.583Z" fill="#263238"/>
<path d="M204.464 152.557C206.271 153.128 207.98 153.972 209.534 155.057C210.32 155.602 211.033 156.245 211.655 156.973C212.302 157.692 212.699 158.601 212.788 159.565C212.535 158.67 212.051 157.858 211.385 157.21C210.737 156.551 210.029 155.954 209.268 155.427C208.519 154.883 207.723 154.394 206.919 153.914C206.114 153.434 205.3 153 204.464 152.557Z" fill="#263238"/>
</svg>
