<svg width="32" height="32" viewBox="0 0 32 32" fill="none" xmlns="http://www.w3.org/2000/svg">
<path fill-rule="evenodd" clip-rule="evenodd" d="M7.99967 7.41602C6.94113 7.41602 6.08301 8.27414 6.08301 9.33268V25.3327C6.08301 26.3912 6.94113 27.2493 7.99967 27.2493H23.9997C25.0582 27.2493 25.9163 26.3912 25.9163 25.3327V9.33268C25.9163 8.27414 25.0582 7.41602 23.9997 7.41602H7.99967ZM4.58301 9.33268C4.58301 7.44571 6.1127 5.91602 7.99967 5.91602H23.9997C25.8866 5.91602 27.4163 7.44571 27.4163 9.33268V25.3327C27.4163 27.2197 25.8866 28.7493 23.9997 28.7493H7.99967C6.1127 28.7493 4.58301 27.2197 4.58301 25.3327V9.33268Z" fill="#2C3E50"/>
<path fill-rule="evenodd" clip-rule="evenodd" d="M21.333 3.25C21.7472 3.25 22.083 3.58579 22.083 4V9.33333C22.083 9.74755 21.7472 10.0833 21.333 10.0833C20.9188 10.0833 20.583 9.74755 20.583 9.33333V4C20.583 3.58579 20.9188 3.25 21.333 3.25Z" fill="#2C3E50"/>
<path fill-rule="evenodd" clip-rule="evenodd" d="M10.667 3.25C11.0812 3.25 11.417 3.58579 11.417 4V9.33333C11.417 9.74755 11.0812 10.0833 10.667 10.0833C10.2528 10.0833 9.91699 9.74755 9.91699 9.33333V4C9.91699 3.58579 10.2528 3.25 10.667 3.25Z" fill="#2C3E50"/>
<path fill-rule="evenodd" clip-rule="evenodd" d="M4.58301 14.666C4.58301 14.2518 4.91879 13.916 5.33301 13.916H26.6663C27.0806 13.916 27.4163 14.2518 27.4163 14.666C27.4163 15.0802 27.0806 15.416 26.6663 15.416H5.33301C4.91879 15.416 4.58301 15.0802 4.58301 14.666Z" fill="#2C3E50"/>
<path fill-rule="evenodd" clip-rule="evenodd" d="M12.583 21.334C12.583 20.9198 12.9188 20.584 13.333 20.584H18.6663C19.0806 20.584 19.4163 20.9198 19.4163 21.334C19.4163 21.7482 19.0806 22.084 18.6663 22.084H13.333C12.9188 22.084 12.583 21.7482 12.583 21.334Z" fill="#2C3E50"/>
</svg>
