<svg width="32" height="33" viewBox="0 0 32 33" fill="none" xmlns="http://www.w3.org/2000/svg">
<path fill-rule="evenodd" clip-rule="evenodd" d="M3.25 28.1934C3.25 27.7791 3.58579 27.4434 4 27.4434H28C28.4142 27.4434 28.75 27.7791 28.75 28.1934C28.75 28.6076 28.4142 28.9434 28 28.9434H4C3.58579 28.9434 3.25 28.6076 3.25 28.1934Z" fill="#0A2B51"/>
<path fill-rule="evenodd" clip-rule="evenodd" d="M11.25 10.8594C11.25 10.4452 11.5858 10.1094 12 10.1094H13.3333C13.7475 10.1094 14.0833 10.4452 14.0833 10.8594C14.0833 11.2736 13.7475 11.6094 13.3333 11.6094H12C11.5858 11.6094 11.25 11.2736 11.25 10.8594Z" fill="#0A2B51"/>
<path fill-rule="evenodd" clip-rule="evenodd" d="M11.25 16.1934C11.25 15.7791 11.5858 15.4434 12 15.4434H13.3333C13.7475 15.4434 14.0833 15.7791 14.0833 16.1934C14.0833 16.6076 13.7475 16.9434 13.3333 16.9434H12C11.5858 16.9434 11.25 16.6076 11.25 16.1934Z" fill="#0A2B51"/>
<path fill-rule="evenodd" clip-rule="evenodd" d="M11.25 21.5273C11.25 21.1131 11.5858 20.7773 12 20.7773H13.3333C13.7475 20.7773 14.0833 21.1131 14.0833 21.5273C14.0833 21.9416 13.7475 22.2773 13.3333 22.2773H12C11.5858 22.2773 11.25 21.9416 11.25 21.5273Z" fill="#0A2B51"/>
<path fill-rule="evenodd" clip-rule="evenodd" d="M17.917 10.8594C17.917 10.4452 18.2528 10.1094 18.667 10.1094H20.0003C20.4145 10.1094 20.7503 10.4452 20.7503 10.8594C20.7503 11.2736 20.4145 11.6094 20.0003 11.6094H18.667C18.2528 11.6094 17.917 11.2736 17.917 10.8594Z" fill="#0A2B51"/>
<path fill-rule="evenodd" clip-rule="evenodd" d="M17.917 16.1934C17.917 15.7791 18.2528 15.4434 18.667 15.4434H20.0003C20.4145 15.4434 20.7503 15.7791 20.7503 16.1934C20.7503 16.6076 20.4145 16.9434 20.0003 16.9434H18.667C18.2528 16.9434 17.917 16.6076 17.917 16.1934Z" fill="#0A2B51"/>
<path fill-rule="evenodd" clip-rule="evenodd" d="M17.917 21.5273C17.917 21.1131 18.2528 20.7773 18.667 20.7773H20.0003C20.4145 20.7773 20.7503 21.1131 20.7503 21.5273C20.7503 21.9416 20.4145 22.2773 20.0003 22.2773H18.667C18.2528 22.2773 17.917 21.9416 17.917 21.5273Z" fill="#0A2B51"/>
<path fill-rule="evenodd" clip-rule="evenodd" d="M9.33366 4.94336C8.82533 4.94336 8.33782 5.14529 7.97837 5.50474C7.61893 5.86418 7.41699 6.35169 7.41699 6.86003V28.1934C7.41699 28.6076 7.08121 28.9434 6.66699 28.9434C6.25278 28.9434 5.91699 28.6076 5.91699 28.1934V6.86003C5.91699 5.95387 6.27696 5.08483 6.91771 4.44408C7.55846 3.80333 8.4275 3.44336 9.33366 3.44336H22.667C23.5731 3.44336 24.4422 3.80333 25.0829 4.44408C25.7237 5.08483 26.0837 5.95387 26.0837 6.86003V28.1934C26.0837 28.6076 25.7479 28.9434 25.3337 28.9434C24.9194 28.9434 24.5837 28.6076 24.5837 28.1934V6.86003C24.5837 6.35169 24.3817 5.86418 24.0223 5.50474C23.6628 5.14529 23.1753 4.94336 22.667 4.94336H9.33366Z" fill="#0A2B51"/>
</svg>
