<svg width="32" height="32" viewBox="0 0 32 32" fill="none" xmlns="http://www.w3.org/2000/svg">
<path fill-rule="evenodd" clip-rule="evenodd" d="M15.9997 14.084C14.9411 14.084 14.083 14.9421 14.083 16.0007C14.083 17.0592 14.9411 17.9173 15.9997 17.9173C17.0582 17.9173 17.9163 17.0592 17.9163 16.0007C17.9163 14.9421 17.0582 14.084 15.9997 14.084ZM12.583 16.0007C12.583 14.1137 14.1127 12.584 15.9997 12.584C17.8866 12.584 19.4163 14.1137 19.4163 16.0007C19.4163 17.8876 17.8866 19.4173 15.9997 19.4173C14.1127 19.4173 12.583 17.8876 12.583 16.0007Z" fill="#A1FFA1"/>
<path fill-rule="evenodd" clip-rule="evenodd" d="M3.53412 15.9993C6.96781 21.825 11.1296 24.5827 16.0003 24.5827C16.4145 24.5827 16.7503 24.9185 16.7503 25.3327C16.7503 25.7469 16.4145 26.0827 16.0003 26.0827C10.307 26.0827 5.65314 22.7364 2.01582 16.3715C1.88405 16.1409 1.88405 15.8578 2.01582 15.6272C5.65314 9.26225 10.307 5.91602 16.0003 5.91602C21.6937 5.91602 26.3475 9.26225 29.9848 15.6272C30.1165 15.8577 30.1166 16.1406 29.9851 16.3711C29.4121 17.375 28.8129 18.303 28.1909 19.1529C27.9463 19.4872 27.477 19.5599 27.1427 19.3153C26.8085 19.0706 26.7358 18.6014 26.9804 18.2671C27.4898 17.571 27.9862 16.815 28.4666 15.9995C25.0329 10.1738 20.8711 7.41602 16.0003 7.41602C11.1296 7.41602 6.96781 10.1737 3.53412 15.9993Z" fill="#A1FFA1"/>
<path fill-rule="evenodd" clip-rule="evenodd" d="M28.5303 22.1357C28.8232 22.4286 28.8232 22.9035 28.5303 23.1963L23.197 28.5297C22.9041 28.8226 22.4292 28.8226 22.1363 28.5297L19.4697 25.863C19.1768 25.5701 19.1768 25.0952 19.4697 24.8024C19.7626 24.5095 20.2374 24.5095 20.5303 24.8024L22.6667 26.9387L27.4697 22.1357C27.7626 21.8428 28.2374 21.8428 28.5303 22.1357Z" fill="#A1FFA1"/>
</svg>
