<svg width="32" height="32" viewBox="0 0 32 32" fill="none" xmlns="http://www.w3.org/2000/svg">
<path fill-rule="evenodd" clip-rule="evenodd" d="M5.91699 6.66602C5.91699 6.2518 6.25278 5.91602 6.66699 5.91602H15.911C16.3252 5.91602 16.661 6.2518 16.661 6.66602C16.661 7.08023 16.3252 7.41602 15.911 7.41602H7.41699V27.2493H23.2503V17.3327C23.2503 16.9185 23.5861 16.5827 24.0003 16.5827C24.4145 16.5827 24.7503 16.9185 24.7503 17.3327V27.9993C24.7503 28.4136 24.4145 28.7493 24.0003 28.7493H6.66699C6.25278 28.7493 5.91699 28.4136 5.91699 27.9993V6.66602Z" fill="#A1FFA1"/>
<path fill-rule="evenodd" clip-rule="evenodd" d="M11.25 22.666C11.25 22.2518 11.5858 21.916 12 21.916H18.6667C19.0809 21.916 19.4167 22.2518 19.4167 22.666C19.4167 23.0802 19.0809 23.416 18.6667 23.416H12C11.5858 23.416 11.25 23.0802 11.25 22.666Z" fill="#A1FFA1"/>
<path fill-rule="evenodd" clip-rule="evenodd" d="M11.25 12C11.25 11.5858 11.5858 11.25 12 11.25H18.6667C19.0809 11.25 19.4167 11.5858 19.4167 12V17.3333C19.4167 17.7475 19.0809 18.0833 18.6667 18.0833H12C11.5858 18.0833 11.25 17.7475 11.25 17.3333V12ZM12.75 12.75V16.5833H17.9167V12.75H12.75Z" fill="#A1FFA1"/>
<path fill-rule="evenodd" clip-rule="evenodd" d="M20 3.25C20.4142 3.25 20.75 3.58579 20.75 4V6.66667C20.75 7.08088 20.4142 7.41667 20 7.41667C19.5858 7.41667 19.25 7.08088 19.25 6.66667V4C19.25 3.58579 19.5858 3.25 20 3.25Z" fill="#A1FFA1"/>
<path fill-rule="evenodd" clip-rule="evenodd" d="M27.197 4.80365C27.4899 5.09655 27.4899 5.57142 27.197 5.86431L24.5303 8.53098C24.2374 8.82387 23.7626 8.82387 23.4697 8.53098C23.1768 8.23809 23.1768 7.76321 23.4697 7.47032L26.1363 4.80365C26.4292 4.51076 26.9041 4.51076 27.197 4.80365Z" fill="#A1FFA1"/>
<path fill-rule="evenodd" clip-rule="evenodd" d="M24.583 12C24.583 11.5858 24.9188 11.25 25.333 11.25H27.9997C28.4139 11.25 28.7497 11.5858 28.7497 12C28.7497 12.4142 28.4139 12.75 27.9997 12.75H25.333C24.9188 12.75 24.583 12.4142 24.583 12Z" fill="#A1FFA1"/>
</svg>
