<svg width="32" height="32" viewBox="0 0 32 32" fill="none" xmlns="http://www.w3.org/2000/svg">
<path fill-rule="evenodd" clip-rule="evenodd" d="M12.0003 4.75C9.46902 4.75 7.41699 6.80203 7.41699 9.33333C7.41699 11.8646 9.46902 13.9167 12.0003 13.9167C14.5316 13.9167 16.5837 11.8646 16.5837 9.33333C16.5837 6.80203 14.5316 4.75 12.0003 4.75ZM5.91699 9.33333C5.91699 5.9736 8.64059 3.25 12.0003 3.25C15.3601 3.25 18.0837 5.9736 18.0837 9.33333C18.0837 12.6931 15.3601 15.4167 12.0003 15.4167C8.64059 15.4167 5.91699 12.6931 5.91699 9.33333Z" fill="#0A2B51"/>
<path fill-rule="evenodd" clip-rule="evenodd" d="M9.33333 20.75C8.11776 20.75 6.95197 21.2329 6.09243 22.0924C5.23289 22.952 4.75 24.1178 4.75 25.3333V28C4.75 28.4142 4.41421 28.75 4 28.75C3.58579 28.75 3.25 28.4142 3.25 28V25.3333C3.25 23.7199 3.89092 22.1726 5.03177 21.0318C6.17261 19.8909 7.71993 19.25 9.33333 19.25H14.6667C16.2801 19.25 17.8274 19.8909 18.9682 21.0318C20.1091 22.1726 20.75 23.7199 20.75 25.3333V28C20.75 28.4142 20.4142 28.75 20 28.75C19.5858 28.75 19.25 28.4142 19.25 28V25.3333C19.25 24.1178 18.7671 22.952 17.9076 22.0924C17.048 21.2329 15.8822 20.75 14.6667 20.75H9.33333Z" fill="#0A2B51"/>
<path fill-rule="evenodd" clip-rule="evenodd" d="M20.6066 3.98798C20.7094 3.58671 21.1179 3.3447 21.5192 3.44745C22.8278 3.78249 23.9876 4.54351 24.8158 5.61054C25.6441 6.67757 26.0936 7.98992 26.0936 9.34068C26.0936 10.6914 25.6441 12.0038 24.8158 13.0708C23.9876 14.1378 22.8278 14.8989 21.5192 15.2339C21.1179 15.3366 20.7094 15.0946 20.6066 14.6934C20.5039 14.2921 20.7459 13.8835 21.1472 13.7808C22.1331 13.5284 23.0069 12.955 23.6309 12.151C24.2549 11.3471 24.5936 10.3584 24.5936 9.34068C24.5936 8.32298 24.2549 7.33423 23.6309 6.5303C23.0069 5.72637 22.1331 5.153 21.1472 4.90057C20.7459 4.79783 20.5039 4.38925 20.6066 3.98798Z" fill="#0A2B51"/>
<path fill-rule="evenodd" clip-rule="evenodd" d="M23.274 20.0119C23.3775 19.6109 23.7866 19.3697 24.1877 19.4732C25.4877 19.8089 26.6402 20.5652 27.4655 21.6243C28.2907 22.6834 28.7424 23.9858 28.7502 25.3284L28.7502 25.3327H28.7502V27.9994C28.7502 28.4136 28.4144 28.7494 28.0002 28.7494C27.586 28.7494 27.2502 28.4136 27.2502 27.9994V25.3349C27.2439 24.3241 26.9036 23.3437 26.2823 22.5463C25.6605 21.7483 24.7922 21.1785 23.8127 20.9256C23.4116 20.822 23.1704 20.413 23.274 20.0119Z" fill="#0A2B51"/>
</svg>
