<svg width="30" height="30" viewBox="0 0 30 30" fill="none" xmlns="http://www.w3.org/2000/svg">
<path fill-rule="evenodd" clip-rule="evenodd" d="M9.47184 4.66118L13.0301 8.21949C13.1708 8.36014 13.2498 8.55091 13.2498 8.74982V12.4998C13.2498 12.914 12.914 13.2498 12.4998 13.2498H8.74982C8.55091 13.2498 8.36014 13.1708 8.21949 13.0301L4.66118 9.47184C4.37664 10.4501 4.31591 11.485 4.48979 12.4985C4.72584 13.8743 5.38259 15.143 6.36961 16.13C7.35664 17.117 8.62539 17.7738 10.0011 18.0098C11.3769 18.2459 12.792 18.0496 14.0516 17.448C14.3384 17.3111 14.6804 17.3697 14.9051 17.5945L22.4051 25.0945C22.7618 25.4511 23.2455 25.6515 23.7498 25.6515C24.2542 25.6515 24.7379 25.4511 25.0945 25.0945C25.4511 24.7379 25.6515 24.2542 25.6515 23.7498C25.6515 23.2455 25.4511 22.7618 25.0945 22.4051L17.5945 14.9051C17.3697 14.6804 17.3111 14.3384 17.448 14.0516C18.0496 12.792 18.2459 11.3769 18.0098 10.0011C17.7738 8.62539 17.117 7.35664 16.13 6.36961C15.143 5.38259 13.8743 4.72584 12.4985 4.48979C11.485 4.31591 10.4501 4.37664 9.47184 4.66118ZM7.80159 3.69804C9.34109 2.96279 11.0707 2.7229 12.7521 3.0114C14.4336 3.29989 15.9843 4.10259 17.1907 5.30895C18.397 6.51532 19.1997 8.06601 19.4882 9.74749C19.7464 11.2522 19.5815 12.7954 19.0171 14.2064L26.1551 21.3445C26.7931 21.9824 27.1515 22.8476 27.1515 23.7498C27.1515 24.652 26.7931 25.5172 26.1551 26.1551C25.5172 26.7931 24.652 27.1515 23.7498 27.1515C22.8476 27.1515 21.9824 26.7931 21.3445 26.1551L14.2064 19.0171C12.7954 19.5815 11.2522 19.7464 9.74749 19.4882C8.06601 19.1997 6.51532 18.397 5.30895 17.1907C4.10259 15.9843 3.29989 14.4336 3.0114 12.7521C2.7229 11.0707 2.96279 9.34109 3.69804 7.80159C3.80297 7.58189 4.00802 7.42679 4.24799 7.38562C4.48796 7.34445 4.73298 7.42232 4.90515 7.59449L9.06048 11.7498H11.7498V9.06048L7.59449 4.90515C7.42232 4.73298 7.34445 4.48796 7.38562 4.24799C7.42679 4.00802 7.58189 3.80297 7.80159 3.69804Z" fill="#A1FFA1"/>
</svg>
