<svg width="408" height="408" viewBox="0 0 408 408" fill="none" xmlns="http://www.w3.org/2000/svg">
<g clip-path="url(#clip0_1013_503)">
<path d="M72.3464 330.912C145.444 372.985 263.951 372.985 337.049 330.912C410.146 288.839 410.138 220.614 337.049 178.532C263.96 136.451 145.444 136.459 72.3464 178.532C-0.750883 220.605 -0.750883 288.864 72.3464 330.912Z" fill="#F3F4F6"/>
<path d="M60.5961 285.38L174.02 350.864C175.159 351.438 176.417 351.737 177.692 351.737C178.968 351.737 180.225 351.438 181.364 350.864L353.459 251.516C355.49 250.341 355.49 248.44 353.459 247.265L240.035 181.781C238.896 181.207 237.638 180.908 236.363 180.908C235.087 180.908 233.83 181.207 232.691 181.781L60.5961 281.137C58.5643 282.337 58.5643 284.205 60.5961 285.38Z" fill="#E0E0E0"/>
<path d="M339.105 187.265C325.715 181.904 304.368 181.904 291.435 187.265C278.501 192.626 278.493 201.308 291.435 206.669C304.376 212.031 325.707 212.031 339.105 206.669C352.504 201.308 352.512 192.626 339.105 187.265Z" fill="#E0E0E0"/>
<path d="M62.5 248C81.5538 248 97 240.613 97 231.5C97 222.387 81.5538 215 62.5 215C43.4462 215 28 222.387 28 231.5C28 240.613 43.4462 248 62.5 248Z" fill="#E0E0E0"/>
<path d="M41.9233 201.848C41.412 195.483 36.5099 184.626 29.2318 176.886C21.9537 169.147 10.3348 165.428 3.16694 168.546C-3.51968 171.443 -2.04602 180.405 6.77592 185.708C15.5979 191.012 28.6804 197.508 33.2117 207.543L41.9233 219.573V201.848Z" fill="#0A2B51"/>
<path opacity="0.1" d="M41.9233 201.848C41.412 195.483 36.5099 184.626 29.2318 176.886C21.9537 169.147 10.3348 165.428 3.16694 168.546C-3.51968 171.443 -2.04602 180.405 6.77592 185.708C15.5979 191.012 28.6804 197.508 33.2117 207.543L41.9233 219.573V201.848Z" fill="black"/>
<path d="M42.8455 210.189H42.9858C43.0963 210.15 43.1874 210.07 43.2398 209.965C43.2922 209.861 43.3018 209.739 43.2665 209.628C36.1087 188.034 15.8082 173.538 7.38729 172.175C7.33 172.165 7.27129 172.166 7.21453 172.179C7.15777 172.191 7.10409 172.215 7.05657 172.249C7.00905 172.282 6.96864 172.325 6.93765 172.374C6.90666 172.423 6.88572 172.478 6.87602 172.536C6.85862 172.652 6.88772 172.771 6.95707 172.867C7.02642 172.963 7.1305 173.027 7.24694 173.047C15.4874 174.4 35.3769 188.636 42.4244 209.908C42.4573 209.993 42.5154 210.065 42.5907 210.115C42.666 210.165 42.7549 210.191 42.8455 210.189Z" fill="white"/>
<path d="M40.9716 228.133C39.6684 224.635 34.8163 219.111 27.3578 214.77C19.0972 210.008 9.00212 208.324 6.38561 204.304C3.23778 199.482 7.1074 194.369 15.2176 194.72C23.3277 195.071 38.3451 204.916 41.924 221.216L40.9716 228.133Z" fill="#0A2B51"/>
<path d="M41.3516 221.507C41.4181 221.504 41.4831 221.487 41.5421 221.456C41.5942 221.431 41.6406 221.395 41.6789 221.352C41.7172 221.308 41.7464 221.257 41.7651 221.202C41.7837 221.147 41.7913 221.089 41.7874 221.031C41.7836 220.974 41.7684 220.917 41.7426 220.865C34.7252 206.96 20.0186 200.464 12.4097 198.81C12.2941 198.786 12.1738 198.808 12.0745 198.872C11.9751 198.936 11.9047 199.036 11.8784 199.151C11.8546 199.265 11.8772 199.384 11.9411 199.482C12.0049 199.58 12.105 199.648 12.2192 199.672C19.6778 201.286 34.1136 207.692 40.9506 221.266C40.99 221.338 41.0479 221.399 41.1184 221.441C41.1889 221.483 41.2694 221.506 41.3516 221.507Z" fill="white"/>
<path d="M145.599 228.481V226.245L230.381 179.521C231.002 179.203 231.69 179.037 232.388 179.037C233.086 179.037 233.774 179.203 234.396 179.521L351.965 245.862V248.065C351.944 248.313 351.857 248.551 351.714 248.755C351.571 248.958 351.376 249.12 351.149 249.224L266.367 298.184L145.599 228.481Z" fill="#0A2B51"/>
<path opacity="0.1" d="M351.965 248.064V245.861L350.529 245.045L266.351 295.955V298.191L351.133 249.231C351.364 249.129 351.563 248.967 351.709 248.762C351.856 248.556 351.944 248.315 351.965 248.064Z" fill="black"/>
<path d="M145.599 226.237L230.381 177.277C231.002 176.959 231.69 176.793 232.388 176.793C233.086 176.793 233.774 176.959 234.396 177.277L351.133 244.67C352.243 245.307 352.243 246.351 351.133 246.988L266.35 295.948L145.599 226.237Z" fill="#0A2B51"/>
<path opacity="0.2" d="M266.35 298.191V295.955L145.599 226.236V228.472L266.35 298.191Z" fill="black"/>
<path d="M147.532 229.549L61.8525 274.674L60.0654 277.44V279.676C60.089 280.251 60.2644 280.81 60.574 281.296C60.8836 281.782 61.3162 282.177 61.828 282.442L174.779 347.657C175.684 348.139 176.694 348.391 177.72 348.391C178.746 348.391 179.757 348.139 180.662 347.657L264.457 299.284V297.024L147.532 229.549Z" fill="#0A2B51"/>
<path opacity="0.1" d="M147.532 229.549L61.8525 274.674L60.0654 277.44V279.676C60.089 280.251 60.2644 280.81 60.574 281.296C60.8836 281.782 61.3162 282.177 61.828 282.442L174.779 347.657C175.684 348.139 176.694 348.391 177.72 348.391C178.746 348.391 179.757 348.139 180.662 347.657L264.457 299.284V297.024L147.532 229.549Z" fill="black"/>
<path d="M177.724 346.155C176.697 346.168 175.683 345.918 174.779 345.429L61.8278 280.214C61.3015 279.967 60.8565 279.576 60.5447 279.085C60.233 278.595 60.0674 278.025 60.0674 277.444C60.0674 276.863 60.233 276.293 60.5447 275.803C60.8565 275.312 61.3015 274.921 61.8278 274.674L143.762 227.346L264.457 297.024L180.662 345.429C179.76 345.917 178.749 346.167 177.724 346.155Z" fill="#0A2B51"/>
<path d="M143.763 220.818L62.7584 267.583L61.9424 268.75V277.441C61.9634 277.689 62.05 277.927 62.1934 278.131C62.3368 278.334 62.5318 278.496 62.7584 278.599L175.709 343.822C176.333 344.136 177.022 344.299 177.721 344.299C178.419 344.299 179.108 344.136 179.732 343.822L260.736 297.025V288.359L143.763 220.818Z" fill="#EBEBEB"/>
<path d="M260.744 288.359L259.732 288.946L246.546 296.551L244.098 297.979L179.74 335.124C179.117 335.442 178.428 335.608 177.729 335.608C177.029 335.608 176.34 335.442 175.717 335.124L62.75 269.909C61.6484 269.264 61.6484 268.228 62.75 267.583L63.8271 266.963L143.795 220.818L259.773 287.779L260.018 287.926L260.744 288.359Z" fill="#F0F0F0"/>
<path d="M177.724 335.613V344.304C177.024 344.321 176.332 344.155 175.717 343.822L62.7496 278.599C62.523 278.496 62.328 278.334 62.1846 278.131C62.0412 277.927 61.9546 277.689 61.9336 277.441V268.742C61.9556 268.991 62.0426 269.23 62.1858 269.435C62.329 269.639 62.5234 269.803 62.7496 269.909L175.717 335.124C176.332 335.459 177.024 335.628 177.724 335.613Z" fill="#E0E0E0"/>
<path d="M260.744 287.234L246.162 295.647L243.877 296.969L179.74 333.999C179.117 334.317 178.428 334.482 177.728 334.482C177.029 334.482 176.34 334.317 175.717 333.999L74.5329 275.597C73.6271 275.1 72.7785 274.602 71.987 274.129C67.907 271.624 65.3937 269.38 63.827 266.997L63.6312 266.695C63.5098 266.512 63.4265 266.307 63.3864 266.091C63.3159 265.635 63.4231 265.169 63.6857 264.79C63.9483 264.41 64.3464 264.146 64.798 264.051C67.4478 263.277 70.0038 262.213 72.4195 260.877L72.5255 260.82L143.762 219.693L260.744 287.234Z" fill="#FAFAFA"/>
<path opacity="0.1" d="M245.616 286.18C244.58 286.784 244.58 287.755 245.616 288.359C246.196 288.659 246.84 288.816 247.493 288.816C248.146 288.816 248.79 288.659 249.37 288.359C250.414 287.755 250.414 286.784 249.37 286.18C248.79 285.879 248.146 285.723 247.493 285.723C246.84 285.723 246.196 285.879 245.616 286.18Z" fill="black"/>
<path d="M257.717 279.139C256.289 278.323 254.494 278.445 252.666 279.49C249.827 281.122 247.379 284.794 246.31 288.629C246.755 288.769 247.222 288.827 247.689 288.8C248.676 285.381 250.855 282.158 253.36 280.698C254.054 280.27 254.846 280.028 255.661 279.996C256.136 279.989 256.604 280.11 257.015 280.347C258.223 281.04 258.925 282.746 258.925 284.998C258.928 285.372 258.906 285.745 258.86 286.116L260.182 286.875C260.272 286.253 260.318 285.626 260.32 284.998C260.304 282.232 259.366 280.094 257.717 279.139Z" fill="#263238"/>
<path d="M260.05 287.6C260.05 287.706 260.01 287.812 259.985 287.926L259.74 287.779L260.05 287.6Z" fill="#263238"/>
<path opacity="0.1" d="M234.33 279.645C233.294 280.249 233.294 281.22 234.33 281.824C234.91 282.124 235.554 282.281 236.207 282.281C236.86 282.281 237.504 282.124 238.084 281.824C239.128 281.22 239.128 280.249 238.084 279.645C237.504 279.344 236.86 279.188 236.207 279.188C235.554 279.188 234.91 279.344 234.33 279.645Z" fill="black"/>
<path d="M246.432 272.603C244.996 271.787 243.209 271.901 241.373 272.953C238.541 274.585 236.093 278.257 235.024 282.093C235.47 282.233 235.937 282.291 236.403 282.264C237.391 278.845 239.561 275.622 242.075 274.161C242.768 273.731 243.561 273.487 244.376 273.451C244.851 273.448 245.319 273.572 245.73 273.81C246.938 274.504 247.64 276.201 247.64 278.461C247.638 278.835 247.617 279.208 247.575 279.579L248.888 280.338C248.983 279.717 249.029 279.09 249.027 278.461C248.994 275.695 248.064 273.557 246.432 272.603Z" fill="#263238"/>
<path opacity="0.1" d="M223.004 273.108C222.78 273.189 222.587 273.337 222.45 273.532C222.314 273.727 222.24 273.959 222.24 274.197C222.24 274.435 222.314 274.667 222.45 274.862C222.587 275.057 222.78 275.205 223.004 275.286C223.586 275.58 224.229 275.734 224.881 275.734C225.533 275.734 226.176 275.58 226.758 275.286C227.802 274.683 227.802 273.703 226.758 273.108C226.178 272.807 225.534 272.65 224.881 272.65C224.228 272.65 223.584 272.807 223.004 273.108Z" fill="black"/>
<path d="M235.073 266.065C233.645 265.249 231.85 265.364 230.022 266.416C227.19 268.048 224.734 271.72 223.665 275.556C224.113 275.695 224.583 275.753 225.052 275.727C226.031 272.308 228.21 269.085 230.715 267.624C231.411 267.193 232.207 266.948 233.025 266.914C233.5 266.911 233.968 267.035 234.379 267.273C235.587 267.967 236.28 269.664 236.28 271.924C236.283 272.298 236.261 272.671 236.215 273.042L237.537 273.801C237.627 273.18 237.674 272.552 237.676 271.924C237.676 269.158 236.729 267.02 235.073 266.065Z" fill="#263238"/>
<path opacity="0.1" d="M211.686 266.573C210.65 267.176 210.65 268.147 211.686 268.751C212.266 269.052 212.91 269.209 213.563 269.209C214.216 269.209 214.86 269.052 215.44 268.751C216.484 268.147 216.484 267.176 215.44 266.573C214.86 266.272 214.216 266.115 213.563 266.115C212.91 266.115 212.266 266.272 211.686 266.573Z" fill="black"/>
<path d="M223.755 259.53C222.327 258.714 220.532 258.829 218.704 259.881C215.865 261.513 213.417 265.185 212.348 269.02C212.796 269.161 213.266 269.219 213.735 269.192C214.714 265.773 216.893 262.549 219.398 261.089C220.092 260.661 220.884 260.419 221.699 260.387C222.176 260.381 222.647 260.502 223.062 260.738C224.269 261.432 224.963 263.137 224.963 265.389C224.966 265.763 224.944 266.136 224.898 266.507L226.22 267.266C226.31 266.644 226.356 266.017 226.358 265.389C226.358 262.623 225.412 260.485 223.755 259.53Z" fill="#263238"/>
<path opacity="0.1" d="M200.361 260.035C200.137 260.116 199.943 260.265 199.807 260.459C199.67 260.654 199.597 260.887 199.597 261.125C199.597 261.363 199.67 261.595 199.807 261.79C199.943 261.985 200.137 262.133 200.361 262.214C200.943 262.512 201.587 262.667 202.241 262.667C202.895 262.667 203.54 262.512 204.122 262.214C205.159 261.61 205.159 260.639 204.122 260.035C203.54 259.737 202.895 259.582 202.241 259.582C201.587 259.582 200.943 259.737 200.361 260.035Z" fill="black"/>
<path d="M212.437 252.96C211.001 252.144 209.214 252.258 207.378 253.311C204.546 254.943 202.098 258.615 201.029 262.45C201.475 262.59 201.942 262.648 202.408 262.621C203.396 259.202 205.566 255.979 208.08 254.519C208.773 254.09 209.566 253.848 210.381 253.817C210.855 253.811 211.323 253.932 211.735 254.168C212.943 254.861 213.645 256.567 213.645 258.819C213.643 259.192 213.621 259.566 213.579 259.937L214.893 260.696C214.987 260.075 215.034 259.447 215.032 258.819C215.032 256.085 214.085 253.947 212.437 252.96Z" fill="#263238"/>
<path opacity="0.1" d="M189.043 253.5C188.007 254.104 188.007 255.075 189.043 255.679C189.623 255.979 190.266 256.136 190.92 256.136C191.573 256.136 192.216 255.979 192.796 255.679C193.841 255.075 193.841 254.104 192.796 253.5C192.216 253.2 191.573 253.043 190.92 253.043C190.266 253.043 189.623 253.2 189.043 253.5Z" fill="black"/>
<path d="M201.111 246.433C199.683 245.617 197.847 245.731 196.06 246.784C193.22 248.416 190.772 252.088 189.703 255.923C190.151 256.063 190.621 256.121 191.09 256.094C192.07 252.675 194.248 249.452 196.753 247.991C197.447 247.563 198.24 247.322 199.054 247.289C199.532 247.284 200.002 247.405 200.417 247.64C201.625 248.334 202.318 250.039 202.318 252.292C202.321 252.665 202.299 253.039 202.253 253.409L203.575 254.168C203.665 253.547 203.712 252.92 203.714 252.292C203.714 249.55 202.767 247.412 201.111 246.433Z" fill="#263238"/>
<path opacity="0.1" d="M177.725 246.963C176.688 247.567 176.688 248.538 177.725 249.142C178.304 249.442 178.948 249.599 179.601 249.599C180.254 249.599 180.898 249.442 181.478 249.142C182.523 248.538 182.523 247.567 181.478 246.963C180.898 246.663 180.254 246.506 179.601 246.506C178.948 246.506 178.304 246.663 177.725 246.963Z" fill="black"/>
<path d="M189.793 239.905C188.357 239.089 186.529 239.204 184.734 240.256C181.903 241.888 179.455 245.56 178.386 249.395C178.831 249.535 179.299 249.594 179.765 249.567C180.752 246.148 182.931 242.925 185.436 241.464C186.13 241.036 186.922 240.794 187.737 240.762C188.212 240.755 188.68 240.876 189.092 241.113C190.299 241.807 191.001 243.512 191.001 245.764C191.004 246.138 190.982 246.511 190.936 246.882L192.25 247.641C192.347 247.02 192.396 246.393 192.396 245.764C192.396 243.014 191.442 240.876 189.793 239.905Z" fill="#263238"/>
<path opacity="0.1" d="M166.399 240.426C166.175 240.507 165.981 240.655 165.845 240.85C165.708 241.045 165.635 241.277 165.635 241.515C165.635 241.753 165.708 241.986 165.845 242.181C165.981 242.376 166.175 242.524 166.399 242.605C166.979 242.905 167.622 243.062 168.275 243.062C168.929 243.062 169.572 242.905 170.152 242.605C171.197 242.001 171.197 241.03 170.152 240.426C169.572 240.126 168.929 239.969 168.275 239.969C167.622 239.969 166.979 240.126 166.399 240.426Z" fill="black"/>
<path d="M178.467 233.376C177.039 232.56 175.203 232.674 173.416 233.727C170.585 235.359 168.129 239.031 167.06 242.866C167.508 243.006 167.978 243.064 168.447 243.037C169.434 239.618 171.605 236.395 174.11 234.935C174.806 234.505 175.602 234.264 176.419 234.233C176.894 234.227 177.362 234.348 177.774 234.584C178.981 235.277 179.675 236.983 179.675 239.235C179.678 239.609 179.656 239.982 179.61 240.353L180.932 241.112C181.022 240.49 181.068 239.863 181.07 239.235C181.07 236.477 180.124 234.339 178.467 233.376Z" fill="#263238"/>
<path opacity="0.1" d="M155.08 233.891C154.044 234.495 154.044 235.466 155.08 236.07C155.66 236.37 156.304 236.527 156.957 236.527C157.61 236.527 158.254 236.37 158.834 236.07C159.878 235.466 159.878 234.495 158.834 233.891C158.254 233.59 157.61 233.434 156.957 233.434C156.304 233.434 155.66 233.59 155.08 233.891Z" fill="black"/>
<path d="M167.149 226.849C165.721 226.033 163.885 226.147 162.098 227.2C159.266 228.832 156.81 232.504 155.741 236.339C156.19 236.479 156.659 236.537 157.128 236.51C158.108 233.091 160.286 229.868 162.791 228.407C163.487 227.976 164.283 227.731 165.101 227.697C165.576 227.694 166.044 227.818 166.455 228.056C167.663 228.75 168.357 230.447 168.357 232.708C168.359 233.081 168.337 233.455 168.291 233.825L169.613 234.584C169.703 233.963 169.75 233.336 169.752 232.708C169.727 229.941 168.805 227.803 167.149 226.849Z" fill="#263238"/>
<path opacity="0.1" d="M143.754 227.356C143.53 227.437 143.337 227.585 143.2 227.78C143.064 227.975 142.99 228.207 142.99 228.445C142.99 228.683 143.064 228.915 143.2 229.11C143.337 229.305 143.53 229.453 143.754 229.534C144.336 229.832 144.981 229.988 145.635 229.988C146.289 229.988 146.934 229.832 147.516 229.534C148.552 228.931 148.552 227.959 147.516 227.356C146.934 227.058 146.289 226.902 145.635 226.902C144.981 226.902 144.336 227.058 143.754 227.356Z" fill="black"/>
<path d="M155.856 220.321C154.42 219.505 152.633 219.62 150.797 220.672C147.965 222.304 145.509 225.976 144.448 229.811C144.894 229.951 145.361 230.01 145.827 229.983C146.815 226.564 148.985 223.341 151.498 221.88C152.192 221.451 152.985 221.209 153.8 221.178C154.274 221.172 154.742 221.293 155.154 221.529C156.362 222.223 157.064 223.928 157.064 226.18C157.062 226.554 157.04 226.927 156.998 227.298L158.312 228.057C158.406 227.436 158.453 226.808 158.451 226.18C158.426 223.406 157.488 221.268 155.856 220.321Z" fill="#263238"/>
<path fill-rule="evenodd" clip-rule="evenodd" d="M228.97 284.912C229.049 285.048 229.002 285.222 228.866 285.301L166.54 321.286C166.404 321.365 166.23 321.318 166.151 321.182C166.073 321.046 166.12 320.872 166.256 320.793L228.582 284.808C228.718 284.729 228.892 284.776 228.97 284.912Z" fill="#EBEBEB"/>
<path fill-rule="evenodd" clip-rule="evenodd" d="M221.423 280.554C221.502 280.691 221.455 280.865 221.319 280.943L159.001 316.929C158.865 317.007 158.691 316.961 158.612 316.825C158.534 316.689 158.58 316.515 158.717 316.436L221.034 280.45C221.171 280.372 221.345 280.418 221.423 280.554Z" fill="#EBEBEB"/>
<path fill-rule="evenodd" clip-rule="evenodd" d="M213.874 276.197C213.953 276.333 213.906 276.507 213.77 276.586L151.452 312.571C151.316 312.65 151.142 312.603 151.064 312.467C150.985 312.331 151.032 312.157 151.168 312.078L213.486 276.093C213.622 276.014 213.796 276.061 213.874 276.197Z" fill="#EBEBEB"/>
<path fill-rule="evenodd" clip-rule="evenodd" d="M206.327 271.84C206.405 271.976 206.359 272.15 206.222 272.228L143.905 308.214C143.768 308.293 143.594 308.246 143.516 308.11C143.437 307.974 143.484 307.8 143.62 307.721L205.938 271.735C206.074 271.657 206.248 271.703 206.327 271.84Z" fill="#EBEBEB"/>
<path fill-rule="evenodd" clip-rule="evenodd" d="M198.779 267.482C198.857 267.618 198.811 267.792 198.675 267.871L136.357 303.857C136.221 303.935 136.046 303.889 135.968 303.752C135.889 303.616 135.936 303.442 136.072 303.364L198.39 267.378C198.526 267.299 198.7 267.346 198.779 267.482Z" fill="#EBEBEB"/>
<path fill-rule="evenodd" clip-rule="evenodd" d="M191.231 263.125C191.31 263.261 191.263 263.435 191.127 263.514L128.809 299.499C128.673 299.578 128.499 299.531 128.42 299.395C128.341 299.259 128.388 299.085 128.524 299.006L190.842 263.021C190.978 262.942 191.152 262.989 191.231 263.125Z" fill="#EBEBEB"/>
<path fill-rule="evenodd" clip-rule="evenodd" d="M183.683 258.767C183.762 258.903 183.715 259.078 183.579 259.156L121.261 295.134C121.125 295.212 120.951 295.166 120.872 295.029C120.794 294.893 120.84 294.719 120.976 294.641L183.294 258.663C183.43 258.585 183.604 258.631 183.683 258.767Z" fill="#EBEBEB"/>
<path fill-rule="evenodd" clip-rule="evenodd" d="M176.135 254.41C176.214 254.546 176.167 254.72 176.031 254.799L113.713 290.776C113.577 290.855 113.403 290.808 113.324 290.672C113.246 290.536 113.292 290.362 113.428 290.283L175.746 254.306C175.883 254.227 176.057 254.274 176.135 254.41Z" fill="#EBEBEB"/>
<path fill-rule="evenodd" clip-rule="evenodd" d="M168.587 250.053C168.666 250.189 168.619 250.363 168.483 250.441L106.165 286.419C106.029 286.497 105.855 286.451 105.776 286.315C105.698 286.178 105.745 286.004 105.881 285.926L168.199 249.948C168.335 249.87 168.509 249.916 168.587 250.053Z" fill="#EBEBEB"/>
<path fill-rule="evenodd" clip-rule="evenodd" d="M161.039 245.695C161.117 245.831 161.07 246.005 160.934 246.084L98.6164 282.061C98.4803 282.14 98.3062 282.093 98.2276 281.957C98.149 281.821 98.1957 281.647 98.3318 281.568L160.65 245.591C160.786 245.512 160.96 245.559 161.039 245.695Z" fill="#EBEBEB"/>
<path fill-rule="evenodd" clip-rule="evenodd" d="M153.491 241.338C153.569 241.474 153.523 241.648 153.386 241.726L91.0686 277.704C90.9324 277.782 90.7584 277.736 90.6798 277.6C90.6012 277.464 90.6478 277.29 90.784 277.211L153.102 241.233C153.238 241.155 153.412 241.202 153.491 241.338Z" fill="#EBEBEB"/>
<path fill-rule="evenodd" clip-rule="evenodd" d="M145.943 236.98C146.021 237.116 145.975 237.29 145.839 237.369L83.5207 273.346C83.3846 273.425 83.2105 273.378 83.1319 273.242C83.0533 273.106 83.1 272.932 83.2361 272.853L145.554 236.876C145.69 236.797 145.864 236.844 145.943 236.98Z" fill="#EBEBEB"/>
<path fill-rule="evenodd" clip-rule="evenodd" d="M138.395 232.623C138.474 232.759 138.427 232.933 138.291 233.012L75.9729 268.989C75.8367 269.068 75.6627 269.021 75.5841 268.885C75.5055 268.749 75.5521 268.575 75.6883 268.496L138.006 232.519C138.142 232.44 138.316 232.487 138.395 232.623Z" fill="#EBEBEB"/>
<path fill-rule="evenodd" clip-rule="evenodd" d="M134.124 230.461C134.203 230.325 134.377 230.278 134.513 230.357L243.963 293.523C244.099 293.602 244.146 293.776 244.067 293.912C243.989 294.048 243.815 294.095 243.678 294.016L134.228 230.85C134.092 230.771 134.046 230.597 134.124 230.461Z" fill="#0A2B51"/>
<path fill-rule="evenodd" clip-rule="evenodd" d="M240.232 287.13C240.31 287.267 240.264 287.441 240.128 287.519L174.211 325.643C174.075 325.722 173.901 325.675 173.822 325.539C173.744 325.403 173.79 325.229 173.926 325.15L239.843 287.027C239.979 286.948 240.153 286.994 240.232 287.13Z" fill="#0A2B51"/>
<g opacity="0.25">
<path d="M207.011 279.301C206.44 278.428 205.379 278.077 204.465 277.669C204.098 277.506 203.649 277.277 203.233 277.049C202.662 276.127 201.903 274.601 202.906 274.429C203.51 274.315 204.677 274.952 205.354 275.148C205.722 275.254 205.64 274.715 205.354 274.617C204.245 274.185 202.09 272.806 201.666 274.691C201.57 275.283 201.662 275.891 201.927 276.429C201.412 276.208 200.855 276.105 200.295 276.127C199.773 276.176 199.324 276.192 199.145 276.804C199.039 277.139 199.185 277.285 199.21 277.538C199.23 277.671 199.291 277.795 199.385 277.892C199.478 277.988 199.6 278.053 199.732 278.077C199.675 278.077 199.504 278.077 199.145 278.077C198.329 278.077 196.207 277.522 195.709 278.501C195.505 278.901 195.979 279.464 195.905 279.619C195.832 279.774 194.347 280.207 194.077 280.37C193.955 280.443 194.036 280.868 193.971 280.909C193.216 280.954 192.458 280.954 191.703 280.909C190.454 281.006 187.362 280.541 187.77 282.467C187.81 282.671 187.982 282.647 188.023 282.981C188.03 283.14 188.06 283.296 188.112 283.446C188.071 283.446 187.982 283.446 187.819 283.707C187.655 283.969 187.28 283.813 187.125 284.001C186.537 284.744 187.443 285.005 186.701 285.47C185.664 286.123 183.502 284.801 182.441 285.527C181.503 286.18 182.727 288.049 181.062 288.081C180.695 288.081 180.907 288.628 181.184 288.652C182.743 288.791 182.572 288.497 182.874 287.224C183.355 285.16 186.439 286.588 188.178 286.106C188.219 286.088 188.256 286.061 188.286 286.027C188.316 285.992 188.337 285.951 188.349 285.908C188.361 285.864 188.363 285.818 188.354 285.773C188.346 285.728 188.327 285.686 188.3 285.649C187.843 284.915 188.373 284.515 189.059 284.197C189.1 284.179 189.137 284.151 189.167 284.117C189.196 284.083 189.218 284.043 189.231 283.999C189.243 283.955 189.246 283.91 189.239 283.865C189.232 283.82 189.215 283.778 189.189 283.74C189.002 283.405 188.373 282.377 188.749 281.888C189.352 281.758 189.967 281.687 190.585 281.676C191.926 281.582 193.272 281.557 194.616 281.602C194.661 281.601 194.706 281.589 194.745 281.567C194.785 281.546 194.819 281.515 194.845 281.477C194.87 281.44 194.886 281.397 194.892 281.352C194.898 281.307 194.892 281.261 194.877 281.219C194.681 280.786 196.427 280.509 196.811 280.403C196.846 280.39 196.879 280.37 196.907 280.345C196.934 280.319 196.957 280.289 196.973 280.255C196.989 280.221 196.998 280.184 196.999 280.146C197.001 280.108 196.995 280.071 196.982 280.035C196.166 277.963 199.218 278.73 200.491 278.926C200.544 278.94 200.599 278.94 200.652 278.924C200.704 278.909 200.751 278.879 200.788 278.838C200.824 278.798 200.849 278.748 200.858 278.694C200.868 278.64 200.862 278.585 200.842 278.534C200.646 277.84 199.104 277.139 200.932 276.902C201.418 276.891 201.899 277.006 202.327 277.237C203.115 278.563 204.209 279.682 205.518 280.501C206.717 281.129 207.941 280.705 207.011 279.301ZM206.448 279.676C206.831 280.182 205.632 279.766 205.485 279.676C204.8 279.265 204.237 278.68 203.853 277.979C204.22 278.183 204.555 278.363 204.799 278.477C205.451 278.713 206.023 279.129 206.448 279.676Z" fill="#455A64"/>
<path d="M175.839 292.431C175.619 291.526 175.586 290.538 176.426 290.432C176.826 290.383 176.541 289.837 176.239 289.82C175.113 289.82 174.762 290.767 174.909 291.942C174.459 291.734 173.989 291.576 173.505 291.469C172.771 291.33 172.297 291.314 172.061 292.056C171.914 292.505 172.273 292.791 172.24 293.199C172.199 293.786 172.795 293.541 171.906 293.778C171.56 293.774 171.216 293.736 170.878 293.664C169.98 293.664 169.907 293.664 169.36 294.137C168.813 294.61 170.176 294.831 168.544 294.569C168.132 294.428 167.697 294.367 167.263 294.39C166.667 294.529 166.349 294.7 166.447 295.361C166.496 295.663 167.14 296.055 167.132 296.242C167.132 297.678 165.574 296.463 164.994 296.242C164.956 296.225 164.914 296.217 164.872 296.22C164.83 296.222 164.789 296.235 164.753 296.257C164.717 296.278 164.687 296.308 164.665 296.344C164.643 296.38 164.63 296.421 164.627 296.463C164.627 297.172 165.1 297.425 164.064 297.483C163.942 297.483 163.248 297.099 163.003 297.091C162.342 297.091 161.738 297.956 160.873 297.907C160.637 297.907 160.555 298.103 160.629 298.29C160.865 298.935 161.216 299.327 159.911 299.922C159.911 299.922 158.376 299.735 158.409 299.735C158.034 299.735 158.279 300.339 158.564 300.363C159.16 300.404 161.175 301.252 161.771 300.453C162.203 299.857 161.339 299.172 161.559 298.821C161.412 299.066 162.709 298.47 162.848 298.421C163.17 298.279 163.511 298.185 163.86 298.143C164.039 298.143 164.186 298.437 164.382 298.429C164.578 298.421 164.896 298.552 165.125 298.429C165.353 298.307 165.41 298.005 165.5 297.948C165.729 297.793 165.206 297.613 165.655 297.458C165.982 297.344 166.267 297.678 166.569 297.768C167.059 297.923 167.793 298.282 168.201 297.768C168.748 297.091 167.752 296.618 167.842 296.136C168.054 295.116 169.474 295.891 170.176 295.434C170.224 295.4 170.259 295.352 170.277 295.296C170.295 295.24 170.293 295.18 170.274 295.124C169.858 293.713 172.42 294.814 173.219 294.667C173.366 294.667 173.521 294.545 173.497 294.374C173.472 294.202 173.179 293.5 173.179 293.492C173.383 292.676 174.55 292.733 175.08 292.88C175.602 294.594 176.965 296.324 178.45 295.867C178.505 295.849 178.553 295.814 178.587 295.767C178.621 295.72 178.639 295.664 178.638 295.606C178.548 294.398 177.226 293.231 175.839 292.431ZM176.377 293.843C176.328 293.753 176.255 293.607 176.182 293.435C176.597 293.703 176.952 294.053 177.226 294.463C177.512 295.32 176.516 294.08 176.377 293.843Z" fill="#455A64"/>
<path d="M198.492 301.627C197.912 300.754 196.86 300.403 195.946 299.995C195.57 299.824 195.13 299.596 194.714 299.367C194.134 298.445 193.375 296.919 194.387 296.756C194.991 296.642 196.158 297.27 196.835 297.466C197.202 297.58 197.113 297.042 196.835 296.944C195.725 296.503 193.571 295.132 193.147 297.017C193.048 297.609 193.137 298.216 193.4 298.755C192.885 298.533 192.328 298.43 191.768 298.453C191.237 298.502 190.797 298.518 190.609 299.13C190.511 299.465 190.658 299.612 190.674 299.865C190.695 299.999 190.757 300.123 190.852 300.22C190.948 300.317 191.071 300.381 191.205 300.403C191.14 300.403 190.976 300.403 190.609 300.354C189.793 300.354 187.68 299.808 187.182 300.787C186.97 301.187 187.443 301.75 187.378 301.897C187.312 302.044 185.811 302.484 185.542 302.647C185.428 302.729 185.542 303.153 185.436 303.186C184.68 303.24 183.922 303.24 183.167 303.186C181.919 303.292 178.834 302.827 179.234 304.745C179.283 304.957 179.446 304.924 179.487 305.267C179.496 305.426 179.529 305.583 179.585 305.732C179.536 305.732 179.446 305.732 179.283 305.993C179.12 306.254 178.753 306.091 178.598 306.287C178.002 307.029 178.908 307.291 178.173 307.747C177.129 308.4 174.966 307.087 173.914 307.813C172.861 308.539 174.191 310.326 172.535 310.359C172.168 310.359 172.38 310.914 172.657 310.938C174.208 311.069 174.044 310.775 174.338 309.51C174.828 307.437 177.912 308.865 179.642 308.384C179.846 308.335 179.862 308.082 179.773 307.935C179.316 307.201 179.846 306.793 180.532 306.474C180.573 306.457 180.61 306.431 180.64 306.397C180.67 306.364 180.691 306.324 180.703 306.28C180.715 306.237 180.717 306.191 180.708 306.147C180.7 306.103 180.681 306.062 180.654 306.026C180.474 305.691 179.838 304.655 180.213 304.173C180.82 304.043 181.437 303.972 182.057 303.961C183.399 303.863 184.744 303.839 186.088 303.888C186.134 303.887 186.178 303.875 186.218 303.853C186.258 303.831 186.292 303.8 186.317 303.763C186.343 303.726 186.359 303.683 186.365 303.638C186.37 303.593 186.365 303.547 186.35 303.504C186.154 303.072 187.892 302.794 188.284 302.688C188.319 302.676 188.351 302.656 188.379 302.63C188.406 302.605 188.429 302.574 188.444 302.54C188.459 302.505 188.467 302.468 188.468 302.431C188.468 302.393 188.461 302.356 188.447 302.321C187.631 300.257 190.683 301.015 191.956 301.219C192.008 301.233 192.064 301.232 192.116 301.216C192.168 301.2 192.215 301.171 192.252 301.131C192.289 301.091 192.314 301.041 192.325 300.988C192.336 300.935 192.332 300.879 192.315 300.828C192.111 300.126 190.576 299.432 192.396 299.196C192.884 299.193 193.366 299.308 193.8 299.53C194.589 300.854 195.679 301.972 196.982 302.794C198.19 303.455 199.422 303.039 198.492 301.627ZM197.929 302.003C198.304 302.517 197.113 302.101 196.958 302.003C196.274 301.586 195.712 300.998 195.326 300.297C195.701 300.501 196.036 300.689 196.28 300.795C196.928 301.042 197.498 301.459 197.929 302.003Z" fill="#455A64"/>
<path d="M217.643 285.797C217.415 284.891 217.39 283.904 218.223 283.798C218.631 283.749 218.345 283.202 218.043 283.186C216.917 283.186 216.558 284.132 216.705 285.315C216.26 285.101 215.792 284.939 215.31 284.834C214.575 284.695 214.102 284.679 213.857 285.421C213.718 285.87 214.077 286.156 214.045 286.564C214.004 287.151 214.591 286.907 213.71 287.143C213.365 287.14 213.02 287.101 212.682 287.029C211.784 287.029 211.703 287.029 211.164 287.502C210.626 287.975 211.98 288.196 210.348 287.935C209.939 287.794 209.507 287.733 209.075 287.755C208.48 287.894 208.161 288.065 208.259 288.726C208.308 289.028 208.945 289.42 208.945 289.607C208.945 291.044 207.386 289.828 206.799 289.607C206.76 289.592 206.719 289.586 206.677 289.589C206.636 289.593 206.596 289.605 206.561 289.627C206.525 289.648 206.495 289.677 206.473 289.712C206.45 289.747 206.436 289.787 206.431 289.828C206.431 290.538 206.905 290.791 205.877 290.848C205.754 290.848 205.061 290.464 204.816 290.456C204.155 290.456 203.543 291.321 202.678 291.272C202.441 291.272 202.368 291.468 202.433 291.656C202.678 292.3 203.029 292.692 201.723 293.288C201.723 293.288 200.189 293.1 200.222 293.1C199.846 293.1 200.083 293.704 200.377 293.728C200.972 293.769 202.98 294.618 203.575 293.818C204.016 293.222 203.151 292.537 203.371 292.186C203.225 292.431 204.514 291.835 204.661 291.786C204.98 291.645 205.318 291.552 205.664 291.509C205.844 291.509 205.999 291.802 206.187 291.794C206.374 291.786 206.709 291.917 206.937 291.794C207.166 291.672 207.223 291.37 207.313 291.313C207.541 291.158 207.019 290.978 207.468 290.823C207.794 290.709 208.072 291.044 208.382 291.133C208.871 291.288 209.606 291.647 210.014 291.133C210.552 290.456 209.557 289.983 209.655 289.501C209.859 288.481 211.287 289.257 211.988 288.8C212.034 288.764 212.067 288.715 212.083 288.659C212.099 288.603 212.097 288.544 212.078 288.49C211.67 287.078 214.224 288.179 215.032 288.033C215.179 288.033 215.326 287.91 215.31 287.739C215.293 287.567 214.991 286.866 214.991 286.858C215.195 286.042 216.354 286.099 216.893 286.246C217.415 287.959 218.769 289.689 220.255 289.232C220.311 289.217 220.361 289.183 220.395 289.135C220.429 289.088 220.446 289.03 220.442 288.971C220.32 287.763 219.031 286.596 217.643 285.797ZM218.182 287.208C218.107 287.077 218.042 286.941 217.986 286.8C218.401 287.068 218.757 287.418 219.031 287.829C219.316 288.685 218.321 287.445 218.182 287.233V287.208Z" fill="#455A64"/>
<path d="M160.98 253.85C160.401 252.977 159.348 252.634 158.434 252.218C158.059 252.047 157.618 251.818 157.202 251.59C156.623 250.668 155.864 249.142 156.875 248.979C157.471 248.864 158.646 249.501 159.323 249.688C159.683 249.803 159.601 249.264 159.323 249.166C158.214 248.726 156.059 247.355 155.635 249.24C155.532 249.831 155.621 250.44 155.888 250.978C155.374 250.756 154.816 250.652 154.256 250.676C153.726 250.725 153.285 250.741 153.097 251.353C152.999 251.688 153.097 251.835 153.163 252.088C153.183 252.222 153.245 252.346 153.341 252.443C153.436 252.539 153.559 252.604 153.693 252.626C153.495 252.615 153.296 252.615 153.097 252.626C152.281 252.626 150.168 252.071 149.662 253.05C149.458 253.45 149.931 254.013 149.866 254.16C149.801 254.307 148.299 254.748 148.03 254.919C147.908 254.993 148.03 255.417 147.924 255.449C147.169 255.504 146.411 255.504 145.655 255.449C144.407 255.556 141.323 255.09 141.722 257.016C141.771 257.22 141.935 257.188 141.975 257.53C141.984 257.689 142.017 257.846 142.073 257.995C142.024 257.995 141.935 257.995 141.771 258.256C141.608 258.518 141.241 258.354 141.086 258.55C140.49 259.293 141.396 259.554 140.662 260.011C139.617 260.664 137.455 259.35 136.394 260.076C135.333 260.802 136.679 262.589 135.023 262.622C134.656 262.622 134.868 263.177 135.145 263.201C136.696 263.332 136.524 263.038 136.826 261.773C137.316 259.709 140.4 261.129 142.13 260.656C142.173 260.639 142.212 260.612 142.242 260.578C142.273 260.544 142.295 260.502 142.307 260.458C142.319 260.414 142.32 260.367 142.311 260.322C142.301 260.277 142.281 260.235 142.253 260.199C141.804 259.464 142.334 259.056 143.02 258.738C143.061 258.721 143.098 258.694 143.128 258.661C143.158 258.627 143.179 258.587 143.191 258.544C143.203 258.5 143.205 258.455 143.196 258.411C143.188 258.367 143.169 258.325 143.142 258.289C142.963 257.955 142.326 256.918 142.702 256.437C143.308 256.307 143.926 256.236 144.546 256.225C145.887 256.127 147.233 256.102 148.577 256.151C148.622 256.151 148.667 256.139 148.706 256.117C148.746 256.096 148.78 256.064 148.805 256.027C148.83 255.989 148.845 255.945 148.85 255.9C148.854 255.855 148.847 255.81 148.83 255.768C148.642 255.335 150.38 255.058 150.772 254.952C150.842 254.924 150.898 254.87 150.929 254.802C150.959 254.733 150.962 254.655 150.935 254.584C150.119 252.512 153.171 253.271 154.444 253.475C154.497 253.488 154.552 253.487 154.604 253.471C154.656 253.456 154.703 253.426 154.74 253.386C154.777 253.346 154.802 253.296 154.813 253.243C154.824 253.19 154.821 253.135 154.803 253.083C154.599 252.381 153.057 251.688 154.884 251.451C155.372 251.448 155.854 251.563 156.288 251.786C157.077 253.109 158.168 254.227 159.47 255.05C160.678 255.678 161.91 255.262 160.98 253.85ZM160.417 254.225C160.792 254.74 159.601 254.323 159.446 254.225C158.763 253.809 158.2 253.221 157.814 252.52C158.189 252.724 158.524 252.912 158.769 253.026C159.418 253.267 159.988 253.682 160.417 254.225Z" fill="#455A64"/>
<path d="M129.809 266.98C129.58 266.082 129.556 265.095 130.388 264.989C130.788 264.932 130.502 264.385 130.209 264.377C129.074 264.377 128.723 265.324 128.87 266.499C128.425 266.288 127.957 266.129 127.475 266.025C126.741 265.887 126.267 265.862 126.022 266.613C125.876 267.053 126.235 267.347 126.21 267.747C126.21 268.343 126.757 268.098 125.867 268.326C125.522 268.325 125.178 268.29 124.839 268.22C124.567 268.156 124.283 268.166 124.016 268.249C123.748 268.332 123.509 268.486 123.322 268.694C122.767 269.159 124.138 269.387 122.506 269.126C122.097 268.982 121.665 268.921 121.233 268.947C120.629 269.085 120.319 269.257 120.417 269.918C120.417 270.211 121.102 270.611 121.094 270.799C121.094 272.235 119.543 271.019 118.956 270.799C118.917 270.785 118.875 270.78 118.834 270.785C118.793 270.789 118.753 270.803 118.718 270.825C118.682 270.847 118.652 270.877 118.63 270.912C118.608 270.947 118.594 270.986 118.589 271.027C118.589 271.737 119.062 271.982 118.034 272.047C117.903 272.047 117.218 271.656 116.973 271.656C116.304 271.656 115.7 272.521 114.835 272.472C114.598 272.472 114.517 272.659 114.59 272.855C114.827 273.5 115.178 273.892 113.88 274.487C113.88 274.487 112.346 274.291 112.379 274.291C112.004 274.291 112.24 274.903 112.534 274.92C113.122 274.969 115.137 275.817 115.733 275.009C116.173 274.422 115.308 273.736 115.521 273.377C115.382 273.63 116.671 273.027 116.81 272.978C117.133 272.839 117.473 272.746 117.822 272.7C118.001 272.7 118.156 272.994 118.344 272.994C118.532 272.994 118.866 273.116 119.095 272.994C119.323 272.872 119.372 272.578 119.462 272.512C119.698 272.366 119.168 272.178 119.617 272.031C120.066 271.884 120.229 272.243 120.539 272.341C121.02 272.496 121.763 272.855 122.171 272.341C122.71 271.664 121.714 271.191 121.804 270.709C122.016 269.689 123.477 270.464 124.138 270.007C124.185 269.973 124.221 269.925 124.239 269.869C124.256 269.813 124.255 269.753 124.235 269.697C123.827 268.286 126.382 269.387 127.189 269.24C127.328 269.24 127.483 269.118 127.467 268.947C127.45 268.775 127.14 268.073 127.149 268.057C127.344 267.241 128.511 267.306 129.05 267.453C129.564 269.167 130.927 270.897 132.412 270.432C132.467 270.417 132.516 270.384 132.55 270.338C132.584 270.292 132.601 270.236 132.599 270.179C132.518 268.955 131.188 267.78 129.809 266.98ZM130.339 268.392C130.269 268.262 130.207 268.129 130.151 267.992C130.567 268.256 130.92 268.607 131.188 269.02C131.482 269.877 130.486 268.636 130.339 268.392Z" fill="#455A64"/>
<path d="M152.452 276.184C151.881 275.311 150.82 274.96 149.906 274.552C149.539 274.381 149.09 274.152 148.674 273.924C148.103 273.002 147.336 271.476 148.348 271.313C148.952 271.198 150.119 271.827 150.796 272.023C151.163 272.129 151.081 271.598 150.796 271.492C149.686 271.06 147.532 269.681 147.107 271.574C147.009 272.166 147.1 272.775 147.369 273.312C146.855 273.087 146.297 272.984 145.737 273.01C145.214 273.059 144.766 273.067 144.586 273.679C144.48 274.022 144.586 274.169 144.651 274.422C144.672 274.554 144.734 274.677 144.827 274.773C144.921 274.87 145.042 274.935 145.174 274.96C144.979 274.929 144.783 274.913 144.586 274.911C143.77 274.911 141.648 274.365 141.151 275.336C140.947 275.744 141.412 276.298 141.347 276.454C141.281 276.609 139.78 277.041 139.519 277.204C139.396 277.278 139.478 277.702 139.413 277.743C138.657 277.793 137.899 277.793 137.144 277.743C135.896 277.849 132.803 277.384 133.211 279.301C133.211 279.513 133.423 279.481 133.456 279.815C133.469 279.977 133.502 280.135 133.554 280.289C133.505 280.289 133.423 280.289 133.26 280.542C133.097 280.795 132.721 280.648 132.566 280.844C131.979 281.586 132.885 281.839 132.142 282.304C131.106 282.957 128.943 281.635 127.883 282.37C126.822 283.104 128.168 284.883 126.503 284.915C126.136 284.915 126.348 285.462 126.626 285.487C128.184 285.625 128.013 285.332 128.307 284.067C128.796 281.994 131.881 283.422 133.619 282.941C133.661 282.924 133.698 282.897 133.727 282.863C133.757 282.83 133.779 282.79 133.79 282.746C133.802 282.703 133.804 282.658 133.796 282.613C133.787 282.569 133.768 282.528 133.741 282.492C133.284 281.758 133.815 281.349 134.5 281.031C134.541 281.014 134.578 280.987 134.608 280.954C134.638 280.92 134.659 280.881 134.672 280.838C134.684 280.795 134.687 280.75 134.68 280.706C134.673 280.661 134.656 280.619 134.631 280.582C134.443 280.24 133.815 279.212 134.19 278.73C134.794 278.601 135.409 278.527 136.026 278.51C137.368 278.415 138.713 278.393 140.057 278.445C140.103 278.443 140.147 278.432 140.187 278.41C140.227 278.388 140.261 278.357 140.286 278.32C140.312 278.282 140.328 278.239 140.334 278.194C140.339 278.149 140.334 278.104 140.318 278.061C140.123 277.629 141.869 277.351 142.252 277.245C142.288 277.232 142.32 277.213 142.348 277.187C142.376 277.162 142.398 277.131 142.414 277.097C142.43 277.063 142.439 277.026 142.441 276.988C142.442 276.951 142.437 276.913 142.424 276.878C141.608 274.813 144.651 275.572 145.932 275.776C145.985 275.788 146.039 275.785 146.09 275.769C146.141 275.752 146.187 275.723 146.222 275.683C146.258 275.643 146.282 275.594 146.293 275.542C146.304 275.49 146.3 275.435 146.283 275.385C146.087 274.683 144.545 273.981 146.373 273.753C146.858 273.751 147.337 273.865 147.768 274.087C148.56 275.411 149.653 276.53 150.959 277.351C152.159 278.012 153.407 277.596 152.452 276.184ZM151.889 276.56C152.273 277.066 151.073 276.658 150.926 276.56C150.239 276.148 149.675 275.559 149.294 274.854C149.662 275.058 149.996 275.238 150.241 275.352C150.892 275.594 151.463 276.012 151.889 276.56Z" fill="#455A64"/>
<path d="M171.612 260.345C171.384 259.448 171.351 258.46 172.192 258.354C172.592 258.297 172.306 257.75 172.004 257.742C170.878 257.742 170.527 258.689 170.674 259.864C170.224 259.656 169.754 259.498 169.27 259.391C168.544 259.252 168.063 259.227 167.826 259.978C167.679 260.419 168.038 260.712 168.014 261.112C167.973 261.708 168.56 261.463 167.671 261.692C167.325 261.695 166.981 261.659 166.643 261.586C166.371 261.521 166.086 261.531 165.819 261.614C165.552 261.697 165.312 261.851 165.125 262.059C164.57 262.524 165.941 262.752 164.309 262.491C163.898 262.347 163.463 262.286 163.028 262.312C162.432 262.451 162.114 262.622 162.212 263.283C162.253 263.577 162.897 263.976 162.889 264.164C162.889 265.6 161.339 264.384 160.751 264.164C160.712 264.15 160.67 264.146 160.629 264.15C160.588 264.155 160.548 264.168 160.513 264.19C160.478 264.212 160.448 264.242 160.426 264.277C160.403 264.312 160.389 264.351 160.384 264.393C160.384 265.103 160.857 265.347 159.821 265.413C159.699 265.413 159.005 265.021 158.76 265.021C158.099 265.021 157.496 265.886 156.631 265.837C156.394 265.837 156.312 266.025 156.386 266.22C156.622 266.865 156.973 267.257 155.668 267.852C155.668 267.852 154.134 267.657 154.166 267.657C153.799 267.657 154.036 268.269 154.321 268.285C154.917 268.334 156.932 269.183 157.528 268.383C157.969 267.787 157.104 267.102 157.316 266.751C157.177 267.004 158.467 266.4 158.605 266.351C158.927 266.212 159.268 266.121 159.617 266.082C159.797 266.082 159.944 266.367 160.139 266.367C160.335 266.367 160.653 266.49 160.882 266.367C161.11 266.245 161.168 265.951 161.257 265.886C161.486 265.739 160.964 265.551 161.412 265.404C161.739 265.29 162.024 265.617 162.326 265.715C162.816 265.87 163.55 266.229 163.958 265.715C164.505 265.037 163.509 264.564 163.599 264.083C163.811 263.063 165.231 263.838 165.933 263.381C165.981 263.347 166.016 263.298 166.034 263.242C166.052 263.186 166.051 263.126 166.031 263.071C165.615 261.659 168.177 262.761 168.985 262.614C169.124 262.614 169.279 262.491 169.254 262.32C169.23 262.149 168.936 261.447 168.936 261.431C169.14 260.615 170.307 260.68 170.837 260.827C171.359 262.54 172.722 264.27 174.207 263.805C174.262 263.789 174.31 263.756 174.343 263.71C174.377 263.664 174.395 263.609 174.395 263.552C174.313 262.32 172.991 261.12 171.612 260.345ZM172.143 261.757C172.069 261.628 172.004 261.494 171.947 261.357C172.364 261.622 172.72 261.972 172.991 262.385C173.277 263.242 172.281 262.002 172.175 261.757H172.143Z" fill="#455A64"/>
<path d="M157.186 291.549C156.615 290.676 155.554 290.325 154.64 289.917C154.265 289.746 153.824 289.517 153.408 289.289C152.837 288.367 152.07 286.841 153.082 286.677C153.685 286.563 154.852 287.192 155.53 287.387C155.897 287.493 155.815 286.963 155.53 286.865C154.42 286.424 152.266 285.045 151.841 286.939C151.743 287.53 151.831 288.138 152.094 288.677C151.581 288.45 151.022 288.347 150.462 288.375C149.94 288.424 149.491 288.432 149.312 289.052C149.206 289.387 149.352 289.533 149.377 289.786C149.398 289.919 149.459 290.042 149.553 290.138C149.646 290.235 149.767 290.3 149.899 290.325C149.704 290.299 149.508 290.282 149.312 290.276C148.496 290.276 146.374 289.729 145.876 290.709C145.672 291.108 146.137 291.671 146.072 291.818C146.007 291.965 144.505 292.406 144.244 292.569C144.122 292.642 144.203 293.067 144.138 293.108C143.383 293.162 142.625 293.162 141.87 293.108C140.621 293.214 137.529 292.748 137.937 294.666C137.977 294.878 138.149 294.846 138.181 295.188C138.195 295.347 138.228 295.503 138.279 295.653C138.23 295.653 138.149 295.653 137.986 295.915C137.822 296.176 137.447 296.013 137.292 296.208C136.704 296.951 137.61 297.212 136.868 297.669C135.831 298.322 133.669 297 132.608 297.734C131.67 298.379 132.894 300.248 131.229 300.28C130.862 300.28 131.074 300.827 131.351 300.851C132.91 300.99 132.739 300.696 133.032 299.432C133.522 297.359 136.606 298.787 138.345 298.305C138.54 298.257 138.557 298.004 138.467 297.857C138.01 297.122 138.54 296.714 139.226 296.396C139.267 296.379 139.304 296.352 139.333 296.319C139.363 296.285 139.385 296.246 139.397 296.203C139.41 296.16 139.413 296.114 139.406 296.07C139.399 296.026 139.382 295.984 139.356 295.947C139.169 295.613 138.54 294.576 138.916 294.095C139.52 293.966 140.134 293.892 140.752 293.875C142.093 293.779 143.439 293.758 144.783 293.809C144.828 293.808 144.873 293.796 144.912 293.775C144.952 293.753 144.986 293.722 145.012 293.685C145.037 293.647 145.053 293.604 145.059 293.559C145.065 293.514 145.059 293.468 145.044 293.426C144.848 292.993 146.594 292.716 146.978 292.61C147.014 292.598 147.047 292.579 147.076 292.554C147.104 292.529 147.127 292.498 147.143 292.463C147.159 292.429 147.168 292.392 147.169 292.354C147.17 292.316 147.163 292.278 147.149 292.243C146.333 290.178 149.377 290.937 150.658 291.141C150.71 291.152 150.765 291.15 150.816 291.133C150.866 291.117 150.912 291.087 150.948 291.048C150.983 291.008 151.008 290.959 151.019 290.907C151.029 290.854 151.026 290.8 151.009 290.749C150.813 290.048 149.271 289.346 151.099 289.117C151.584 289.115 152.062 289.23 152.494 289.452C153.286 290.776 154.379 291.894 155.685 292.716C156.892 293.377 158.116 292.944 157.186 291.549ZM156.623 291.924C157.006 292.438 155.807 292.022 155.66 291.924C154.973 291.513 154.409 290.924 154.028 290.219C154.395 290.423 154.73 290.611 154.975 290.717C155.626 290.958 156.196 291.376 156.623 291.924Z" fill="#455A64"/>
<path d="M172.363 277.123C172.135 276.217 172.11 275.23 172.943 275.124C173.342 275.075 173.057 274.528 172.755 274.512C171.629 274.512 171.278 275.458 171.425 276.633C170.975 276.426 170.505 276.267 170.021 276.16C169.295 276.021 168.822 276.005 168.577 276.748C168.43 277.196 168.789 277.482 168.765 277.89C168.765 278.477 169.311 278.233 168.422 278.469C168.076 278.465 167.732 278.427 167.394 278.355C167.122 278.292 166.837 278.303 166.571 278.386C166.304 278.469 166.064 278.622 165.876 278.828C165.321 279.302 166.692 279.522 165.06 279.261C164.648 279.12 164.213 279.059 163.779 279.081C163.183 279.22 162.865 279.391 162.963 280.052C163.004 280.354 163.648 280.746 163.64 280.934C163.64 282.37 162.09 281.154 161.502 280.934C161.464 280.918 161.422 280.912 161.381 280.915C161.34 280.919 161.3 280.932 161.264 280.953C161.229 280.974 161.198 281.003 161.176 281.038C161.154 281.073 161.14 281.113 161.135 281.154C161.135 281.864 161.608 282.117 160.572 282.174C160.45 282.174 159.756 281.79 159.519 281.782C158.85 281.782 158.246 282.647 157.381 282.598C157.145 282.598 157.063 282.794 157.137 282.982C157.373 283.626 157.724 284.018 156.419 284.614C156.419 284.614 154.884 284.426 154.925 284.426C154.55 284.426 154.787 285.03 155.072 285.054C155.668 285.095 157.683 285.944 158.279 285.144C158.72 284.549 157.855 283.863 158.067 283.512C157.928 283.757 159.217 283.161 159.356 283.112C159.678 282.97 160.019 282.877 160.368 282.835C160.548 282.835 160.694 283.129 160.89 283.121C161.086 283.112 161.412 283.243 161.641 283.121C161.869 282.998 161.918 282.696 162.008 282.639C162.237 282.484 161.714 282.305 162.163 282.149C162.49 282.035 162.775 282.37 163.077 282.46C163.567 282.615 164.301 282.974 164.709 282.46C165.248 281.782 164.252 281.309 164.342 280.828C164.554 279.808 165.974 280.583 166.676 280.126C166.724 280.092 166.759 280.043 166.777 279.987C166.794 279.931 166.793 279.871 166.774 279.816C166.357 278.404 168.92 279.506 169.728 279.359C169.866 279.359 170.021 279.236 169.997 279.065C169.972 278.894 169.679 278.192 169.679 278.184C169.883 277.368 171.049 277.425 171.588 277.572C172.102 279.285 173.465 281.015 174.95 280.558C175.005 280.541 175.053 280.506 175.087 280.459C175.121 280.412 175.139 280.355 175.138 280.297C175.064 279.073 173.742 277.923 172.363 277.123ZM172.894 278.535C172.845 278.445 172.771 278.298 172.698 278.127C173.115 278.392 173.471 278.742 173.742 279.155C174.028 280.012 173.032 278.771 172.894 278.535Z" fill="#455A64"/>
<path d="M189.736 265.429C189.76 265.316 189.76 265.199 189.736 265.086C189.491 264.205 188.479 264.866 188.308 265.404C188.137 265.943 188.52 266.139 188.487 266.539C188.487 267.126 189.042 266.89 188.153 267.118C187.808 267.113 187.464 267.078 187.125 267.012C186.227 266.971 186.145 267.012 185.607 267.485C185.068 267.959 186.423 268.171 184.791 267.91C184.379 267.772 183.944 267.714 183.51 267.738C182.914 267.869 182.596 268.04 182.694 268.709C182.743 269.003 183.387 269.403 183.379 269.591C183.379 271.019 181.821 269.811 181.241 269.591C181.202 269.575 181.159 269.569 181.117 269.573C181.075 269.577 181.034 269.59 180.997 269.613C180.961 269.635 180.93 269.665 180.908 269.7C180.885 269.736 180.871 269.777 180.866 269.819C180.866 270.521 181.339 270.774 180.311 270.839C180.189 270.839 179.495 270.447 179.25 270.447C178.589 270.447 177.985 271.304 177.12 271.263C176.884 271.263 176.802 271.451 176.868 271.647C177.112 272.292 177.463 272.683 176.158 273.238C176.158 273.238 174.624 273.05 174.656 273.05C174.281 273.05 174.526 273.662 174.811 273.679C175.407 273.728 177.422 274.576 178.018 273.768C178.451 273.181 177.586 272.496 177.806 272.136C177.659 272.389 178.956 271.786 179.095 271.737C179.416 271.599 179.753 271.506 180.099 271.459C180.287 271.459 180.433 271.753 180.621 271.753C180.809 271.753 181.143 271.875 181.372 271.753C181.6 271.631 181.657 271.337 181.747 271.272C181.976 271.125 181.453 270.937 181.902 270.782C182.351 270.627 182.514 271.002 182.816 271.1C183.306 271.255 184.04 271.614 184.448 271.1C184.995 270.423 183.991 269.95 184.089 269.468C184.301 268.448 185.721 269.223 186.423 268.766C186.469 268.731 186.503 268.682 186.519 268.626C186.536 268.57 186.533 268.511 186.513 268.456C186.105 267.045 188.667 268.146 189.467 267.999C189.613 267.999 189.768 267.877 189.744 267.706C189.575 267.114 189.536 266.494 189.63 265.886C189.676 265.736 189.711 265.584 189.736 265.429Z" fill="#455A64"/>
</g>
<path d="M82.1017 55.607C86.7734 61.1908 94.4925 68.7296 98.8734 74.2233C101.19 77.0989 102.444 80.6858 102.422 84.3785C102.422 87.1153 101.64 89.391 98.9637 88.2281C97.0289 87.386 95.7958 86.3835 92.9487 83.6066C90.4124 81.1004 78.1419 69.5717 78.1419 69.5717C78.1419 69.5717 75.8362 55.4466 72.0467 54.2937C68.2573 53.1408 65.0293 47.0958 65.0293 47.0958C71.2448 46.5244 76.177 48.5294 82.1017 55.607Z" fill="#EBEBEB"/>
<path d="M124.808 201.549L146.732 233.629C146.872 233.832 147.072 233.986 147.303 234.07C147.535 234.154 147.787 234.164 148.025 234.097C148.262 234.031 148.473 233.892 148.627 233.7C148.782 233.509 148.873 233.273 148.887 233.027L150.983 194L124.808 201.549Z" fill="#A1FFA1"/>
<path d="M148.888 233.036C148.874 233.282 148.783 233.518 148.628 233.71C148.473 233.902 148.263 234.04 148.025 234.107C147.788 234.173 147.536 234.163 147.304 234.079C147.072 233.995 146.873 233.841 146.733 233.638L142.452 227.372C143.626 227.638 144.85 227.576 145.99 227.192C147.131 226.808 148.144 226.118 148.918 225.197L149.349 224.686L148.888 233.036Z" fill="#263238"/>
<path d="M106.973 36.0801L107.975 39.5487L109.158 43.7191L150.982 194.003C148.932 197.876 145.489 200.828 141.348 202.263C135.173 204.679 128.075 204.399 124.787 201.541L83.1835 52.3706L80.958 44.3506C82.7324 49.4734 108.637 41.2128 106.973 36.0801Z" fill="#0A2B51"/>
<path d="M110.692 49.2617L112.837 57.001C113.539 59.2265 109.148 62.0134 103.815 64.0184C96.6773 66.7352 87.7752 68.1387 86.8429 65.2013L85.2188 59.5573L84.6875 57.5523C85.6098 60.4997 94.5119 59.0962 101.65 56.3794C106.802 54.3744 111.053 51.778 110.742 49.6026C110.771 49.4868 110.753 49.3642 110.692 49.2617Z" fill="#EBEBEB"/>
<path d="M111.214 51.1963C112.838 56.3591 86.8232 64.5595 85.149 59.3967L82.9736 51.6574C84.6077 56.8102 110.612 48.6499 109.038 43.457L111.214 51.1963Z" fill="#0A2B51"/>
<path d="M106.973 36.0801L109.118 43.7191C110.752 48.7315 85.7198 56.9419 83.2236 52.3706C83.168 52.2844 83.1273 52.1895 83.1033 52.0899L80.998 44.3807C82.7324 49.4734 108.637 41.2128 106.973 36.0801Z" fill="#EBEBEB"/>
<path opacity="0.1" d="M83.2236 52.3676L80.998 44.3477C81.78 46.6434 87.5042 46.2223 93.3889 44.5883L136.496 203.574L146.782 233.648L124.857 201.569L83.2236 52.3676Z" fill="black"/>
<path d="M97.8511 3.63742L106.934 36.0781C107.645 38.2735 103.325 41.0906 98.0014 43.0955C90.8637 45.8323 81.9616 47.306 80.9591 44.3888L72.2474 13.141C69.6109 6.03338 82.5029 -0.953998 91.1043 -0.422677C94.3223 -0.242228 96.9087 0.980816 97.8511 3.63742Z" fill="#A1FFA1"/>
<path d="M59.8356 41.9626C54.9727 41.9626 50.309 40.0309 46.8704 36.5923C43.4318 33.1537 41.5 28.49 41.5 23.6271V22.6246C41.5 18.5035 43.1371 14.5512 46.0512 11.6371C48.9652 8.72303 52.9175 7.08594 57.0386 7.08594H62.6325C66.7536 7.08594 70.706 8.72303 73.62 11.6371C76.5341 14.5512 78.1712 18.5035 78.1712 22.6246V23.6271C78.1712 28.49 76.2394 33.1537 72.8008 36.5923C69.3622 40.0309 64.6985 41.9626 59.8356 41.9626Z" fill="#263238"/>
<path d="M34.0518 43.8272C36.2612 43.8272 38.3801 42.9495 39.9425 41.3872C41.5048 39.8249 42.3825 37.7059 42.3825 35.4965V18.9453C40.1748 18.9453 38.0573 19.8216 36.4953 21.3818C34.9333 22.9419 34.0544 25.0583 34.0518 27.266V43.8272Z" fill="#263238"/>
<path d="M78.7026 223.344C80.8453 225.588 83.1949 227.625 85.72 229.429C86.1293 229.678 86.473 230.022 86.7225 230.431C87.0533 231.113 87.5646 232.817 84.4368 233.91C82.8552 234.457 81.1741 234.657 79.5082 234.496C77.8423 234.335 76.2306 233.817 74.7828 232.978C72.2165 231.374 72.0962 228.025 69.6701 226.121C67.8757 224.707 65.6602 224.346 64.1865 222.492C63.184 221.208 63.4346 219.484 63.9659 217.379C64.5374 215.063 64.808 213.319 65.5699 213.499L65.4396 214.562C66.4421 216.086 71.3443 216.567 73.5498 215.484C75.1329 218.19 76.8527 220.813 78.7026 223.344Z" fill="#263238"/>
<path d="M80.8788 225.5C80.1269 224.818 79.4051 224.116 78.7034 223.344C77.2493 221.441 75.9103 219.452 74.6934 217.389C73.7521 216.113 73.158 214.614 72.9691 213.039C72.919 211.034 73.1095 207.354 73.1095 207.354L65.7712 206.863L65.4103 214.552C65.2198 216.297 66.6634 217.851 69.2198 220.046C71.7761 222.242 75.0142 227.374 77.3199 228.667C79.6257 229.961 81.3299 229.911 82.2722 229.249C83.2146 228.587 83.365 228.046 80.8788 225.5Z" fill="#EBEBEB"/>
<path d="M54.2915 230.672C56.4319 232.919 58.7817 234.956 61.3089 236.757C61.7161 237.009 62.0592 237.352 62.3114 237.759C62.6422 238.441 63.1535 240.145 60.0257 241.238C58.444 241.785 56.763 241.985 55.0971 241.824C53.4311 241.663 51.8194 241.146 50.3717 240.306C47.7953 238.702 47.685 235.353 45.259 233.449C43.4645 232.035 41.249 231.674 39.7754 229.82C38.7729 228.536 39.0235 226.812 39.5548 224.707C40.1262 222.391 40.3869 220.647 41.1588 220.827L41.0285 221.89C42.031 223.414 46.9332 223.895 49.1386 222.812C50.7181 225.52 52.4381 228.144 54.2915 230.672Z" fill="#263238"/>
<path d="M56.4563 232.827C55.7145 232.145 54.9827 231.443 54.2909 230.671C52.8346 228.77 51.4955 226.781 50.281 224.716C49.3724 223.397 48.7853 221.883 48.5667 220.295C48.4264 218.501 48.5667 214.762 48.5667 214.762H41.2285L41.048 221.859C40.8575 223.604 42.3011 225.158 44.8575 227.353C47.4138 229.548 50.6419 234.681 52.9576 235.974C55.2734 237.268 56.9175 237.218 57.8999 236.556C58.8824 235.894 58.9525 235.373 56.4563 232.827Z" fill="#EBEBEB"/>
<path d="M41.0696 95.9878C34.6837 109.942 41.9518 162.864 41.9518 162.864C41.7613 165.13 39.7663 168.648 39.5257 175.566C39.225 184.448 40.8089 217.239 40.8089 217.239C42.0911 217.923 43.5163 218.294 44.9689 218.324C46.4216 218.354 47.8608 218.04 49.1697 217.41C49.1697 217.41 56.7385 172.889 58.1922 161.18C59.4753 150.964 61.9515 126.935 61.9515 126.935L67.0442 161.13C67.0442 161.13 64.4277 166.834 64.2973 171.987C64.1069 178.904 65.1294 211.014 65.1294 211.014C65.1294 211.014 68.2271 212.096 73.6305 211.304C73.6305 211.304 81.3297 167.856 82.0515 159.566C82.4825 154.614 78.7834 93.8926 78.7834 93.8926L41.0696 95.9878Z" fill="#37474F"/>
<path d="M61.9707 126.935L64.0459 115.527C64.0459 115.527 72.7876 113.692 76.7976 109.963C76.7976 109.963 72.6172 115.166 66.4218 116.86L64.086 126.885L66.3917 156.709L61.9707 126.935Z" fill="#263238"/>
<path d="M53.5504 47.4478C47.9364 48.2197 44.9289 49.4527 43.1244 54.7259C41.9415 58.1744 42.2623 63.247 43.4553 66.6956L48.3474 81.0112C45.3902 85.7276 42.9501 90.749 41.0693 95.9884C55.405 104.008 74.4924 99.7278 78.8032 93.8932C78.9836 92.6602 77.8007 86.6753 78.1716 80.3295C78.5425 73.5527 79.6252 65.7833 78.5626 61.603C76.5576 53.8336 71.1642 48.761 65.059 47.127L53.5504 47.4478Z" fill="#F5F5F5"/>
<path d="M72.1453 14.4961C74.0801 15.6389 76.476 20.511 76.2354 30.7164C76.0349 39.378 73.2279 41.5133 71.8245 42.1248C70.421 42.7363 67.6942 42.3654 65.0576 41.9343V47.1272C65.0576 47.1272 68.7067 51.3678 68.4761 53.7437C68.2456 56.1196 63.203 56.691 59.7945 54.3652C57.5819 52.7836 55.6818 50.8053 54.1906 48.5307V35.9394C54.1906 35.9394 52.4062 38.3253 49.4889 36.3805C46.5717 34.4357 46.4814 29.6538 48.1556 27.9295C49.8298 26.2052 53.5089 26.7566 54.1706 29.1325C54.1706 29.1325 58.381 29.2929 63.985 26.2052C66.171 25.0339 68.0496 23.3628 69.4676 21.3281C70.8856 19.2933 71.8031 16.9525 72.1453 14.4961Z" fill="#EBEBEB"/>
<path d="M66.5728 28.5382C66.5851 28.6818 66.5689 28.8264 66.5252 28.9638C66.4814 29.1011 66.4109 29.2284 66.3177 29.3383C66.2245 29.4483 66.1105 29.5387 65.9822 29.6044C65.854 29.6701 65.714 29.7098 65.5703 29.7212C65.3447 29.747 65.1165 29.7044 64.9153 29.599C64.7142 29.4935 64.5494 29.33 64.4424 29.1297C64.3353 28.9294 64.2909 28.7016 64.315 28.4758C64.339 28.25 64.4304 28.0366 64.5772 27.8633C64.724 27.6901 64.9195 27.5649 65.1384 27.5042C65.3572 27.4434 65.5892 27.4498 65.8043 27.5226C66.0195 27.5954 66.2078 27.7311 66.3448 27.9122C66.4818 28.0933 66.5612 28.3114 66.5728 28.5382Z" fill="#263238"/>
<path d="M66.8634 35.877L69.3997 36.689C69.3537 36.8579 69.2742 37.0157 69.1659 37.1532C69.0576 37.2907 68.9226 37.4049 68.7692 37.4892C68.6158 37.5734 68.4469 37.6258 68.2728 37.6433C68.0986 37.6609 67.9228 37.6431 67.7556 37.5912C67.4141 37.4763 67.1304 37.2335 66.964 36.9139C66.7977 36.5943 66.7616 36.2226 66.8634 35.877Z" fill="#263238"/>
<path d="M75.5043 25.2004L73.2988 23.6766C73.3903 23.5281 73.5111 23.3998 73.6539 23.2995C73.7966 23.1992 73.9584 23.1291 74.1291 23.0935C74.2999 23.0578 74.4761 23.0574 74.6471 23.0921C74.818 23.1269 74.9801 23.1962 75.1234 23.2957C75.4182 23.5044 75.622 23.818 75.6928 24.1722C75.7637 24.5264 75.6962 24.8944 75.5043 25.2004Z" fill="#263238"/>
<path d="M74.994 27.7589C74.9957 27.9732 74.9344 28.1834 74.8176 28.3631C74.7008 28.5429 74.5337 28.6843 74.3371 28.7698C74.1406 28.8553 73.9232 28.8811 73.7121 28.844C73.501 28.8069 73.3054 28.7085 73.1498 28.561C72.9942 28.4136 72.8854 28.2237 72.8369 28.0149C72.7884 27.806 72.8024 27.5876 72.8772 27.3867C72.952 27.1858 73.0841 27.0113 73.2573 26.885C73.4305 26.7586 73.637 26.686 73.8511 26.6762C73.9973 26.6722 74.1428 26.697 74.2793 26.7493C74.4159 26.8015 74.5408 26.8802 74.6469 26.9807C74.7531 27.0813 74.8383 27.2018 74.8979 27.3353C74.9574 27.4688 74.9901 27.6127 74.994 27.7589Z" fill="#263238"/>
<path d="M69.8613 27.1348L70.0318 33.681L73.4803 32.6184L69.8613 27.1348Z" fill="#EBEBEB"/>
<path d="M65.0596 41.9349C62.2727 41.564 56.5485 39.93 55.6562 37.6543C56.0148 38.7985 56.7144 39.8058 57.6612 40.5415C59.3755 42.0151 65.0596 43.6592 65.0596 43.6592V41.9349Z" fill="#EBEBEB"/>
<path d="M109.109 89.6336C107.405 90.2752 105.7 90.3153 103.375 91.418C101.844 92.2924 100.124 92.781 98.3621 92.8416C96.0864 92.9519 89.7005 90.2351 84.0966 87.6186C78.0294 84.6733 72.5099 80.7133 67.776 75.9095C63.0177 70.2673 58.7925 64.1964 55.1546 57.7744C53.1497 54.3559 51.1447 49.3835 47.9467 48.752C42.433 49.3334 40.1874 58.9373 43.7663 64.872C47.3452 70.8068 53.6609 78.6062 60.4478 85.1625C63.736 88.3504 69.761 91.799 78.3824 95.4982C84.0216 97.9528 89.8437 99.9639 95.7957 101.513C97.53 101.964 98.743 102.606 101.991 103.719C103.304 104.254 104.689 104.592 106.101 104.721C107.856 104.789 109.612 104.604 111.314 104.17C113.474 103.626 115.448 102.511 117.028 100.942C117.887 100.074 118.529 99.0161 118.903 97.854C119.285 96.6841 119.243 95.4169 118.783 94.2752C118.695 94.0427 118.55 93.836 118.362 93.6737C117.965 93.4624 117.503 93.4088 117.069 93.5233C114.575 94.0552 112.055 94.46 109.52 94.7363C107.415 94.8165 105.931 94.5859 106.192 94.2551C106.452 93.9243 107.695 93.9644 109.279 93.0621C110.863 92.1599 111.785 90.4557 111.234 89.6336C110.683 88.8116 110.813 88.992 109.109 89.6336Z" fill="#EBEBEB"/>
<path d="M113.75 66.4734C113.75 66.4734 111.465 64.6589 107.134 65.3707C105.039 65.7216 105.841 73.6513 112.587 75.8668C116.978 77.3104 117.871 76.5686 119.284 80.1775C119.284 80.1775 121.941 79.6262 121.289 75.5861C120.587 71.4311 118.736 67.5555 115.946 64.3983C114.011 62.1126 113.881 60.1878 112.938 60.8394C111.996 61.4911 112.517 63.466 112.517 63.466L113.75 66.4734Z" fill="#263238"/>
<path d="M338.64 136.051C325.527 131.22 304.613 131.22 291.932 136.051C279.252 140.881 279.252 148.707 291.932 153.538C304.613 158.368 325.527 158.368 338.64 153.538C351.753 148.707 351.737 140.881 338.64 136.051Z" fill="#263238"/>
<path d="M349.501 114.811L281.365 114.892L286.531 195.162H286.596C286.914 198.091 289.648 200.972 294.854 203.208C305.951 207.965 324.23 207.965 335.727 203.208C341.113 200.972 343.936 198.091 344.271 195.162H344.352L349.501 114.811Z" fill="#FAFAFA"/>
<path d="M281.365 114.891L282.418 131.211C284.207 132.428 286.122 133.448 288.13 134.255C302.867 140.358 327.159 140.358 342.402 134.255C343.063 133.994 343.61 133.708 344.205 133.439C345.685 132.737 347.114 131.933 348.481 131.032L349.526 114.834L281.365 114.891Z" fill="#F0F0F0"/>
<path d="M353.81 117.184V104.944H345.87C344.735 104.34 343.569 103.795 342.377 103.312C327.143 97.2085 302.842 97.2085 288.105 103.312C286.968 103.799 285.857 104.344 284.776 104.944H277.057V117.184C277.057 121.183 280.745 125.189 288.105 128.233C302.842 134.336 327.143 134.336 342.377 128.233C349.999 125.181 353.81 121.183 353.81 117.184Z" fill="#0A2B51"/>
<path d="M342.377 93.8392C327.143 87.7437 302.842 87.7437 288.105 93.8392C273.368 99.9347 273.377 109.841 288.105 115.936C302.834 122.032 327.143 122.04 342.377 115.936C357.612 109.833 357.62 99.9674 342.377 93.8392Z" fill="#0A2B51"/>
<g opacity="0.3">
<path d="M342.377 93.8392C327.143 87.7437 302.842 87.7437 288.105 93.8392C273.368 99.9347 273.377 109.841 288.105 115.936C302.834 122.032 327.143 122.04 342.377 115.936C357.612 109.833 357.62 99.9674 342.377 93.8392Z" fill="white"/>
</g>
<path d="M344.026 101.46L340.958 90.2402H289.909L286.832 101.46C285.69 104.651 288.366 107.988 294.886 110.436C305.959 114.606 324.262 114.606 335.686 110.436C342.435 107.996 345.209 104.651 344.026 101.46Z" fill="#0A2B51"/>
<path d="M333.45 84.5285C323.258 80.8238 307.012 80.8238 297.155 84.5285C287.297 88.2331 287.305 94.247 297.155 97.9517C307.004 101.656 323.267 101.656 333.45 97.9517C343.634 94.247 343.642 88.2413 333.45 84.5285Z" fill="#0A2B51"/>
<g opacity="0.3">
<path d="M333.45 84.5285C323.258 80.8238 307.012 80.8238 297.155 84.5285C287.297 88.2331 287.305 94.247 297.155 97.9517C307.004 101.656 323.267 101.656 333.45 97.9517C343.634 94.247 343.642 88.2413 333.45 84.5285Z" fill="white"/>
</g>
<path d="M337.563 91.2528C337.563 91.3915 337.277 91.8729 336.437 92.5257C335.151 93.4237 333.744 94.1352 332.259 94.6392C327.755 96.2712 321.529 97.2177 315.18 97.2177C308.832 97.2177 302.736 96.2875 298.395 94.6555C296.945 94.1623 295.582 93.4436 294.356 92.5257C293.54 91.8566 293.295 91.3588 293.295 91.2364C293.295 90.9916 294.176 89.4168 298.395 87.8337C302.614 86.2507 308.832 85.2715 315.18 85.2715C321.529 85.2715 327.755 86.2099 332.259 87.85C336.486 89.3841 337.547 90.9345 337.563 91.2528Z" fill="#0A2B51"/>
<g opacity="0.1">
<path d="M336.437 92.526C335.151 93.424 333.744 94.1355 332.259 94.6394C327.754 96.2714 321.528 97.218 315.18 97.218C308.831 97.218 302.736 96.2877 298.395 94.6557C296.945 94.1626 295.582 93.4438 294.355 92.526C295.579 91.6017 296.942 90.8799 298.395 90.3881C302.711 88.7561 308.831 87.834 315.18 87.834C321.528 87.834 327.754 88.7642 332.259 90.4044C333.749 90.9 335.157 91.615 336.437 92.526Z" fill="black"/>
</g>
<path d="M326.221 92.7542C327.706 91.9382 329.485 91.571 330.252 91.9871C331.019 92.4033 330.399 93.4315 328.914 94.2883C327.429 95.1451 325.65 95.4796 324.883 95.0553C324.116 94.631 324.769 93.5947 326.221 92.7542Z" fill="#263238"/>
<path d="M284.319 173.881C284.319 176.868 287.305 179.846 293.295 182.123C305.241 186.676 324.939 186.676 337.294 182.123C343.463 179.854 346.555 176.876 346.563 173.897L348.432 144.799C348.432 147.965 345.168 151.123 338.64 153.538C325.527 158.369 304.613 158.369 291.932 153.538C285.592 151.09 282.418 147.965 282.426 144.799L284.319 173.881Z" fill="#455A64"/>
<path d="M311.304 175.603C310.195 174.11 309.583 172.282 308.685 170.707C307.028 167.637 304.328 165.261 301.072 164.008C300.857 163.92 300.617 163.914 300.399 163.993C300.18 164.071 299.998 164.228 299.889 164.432C298.257 167.802 299.252 172.519 302.671 175.946C306.09 179.373 310.733 180.385 314.095 178.802C314.291 178.712 314.34 178.337 314.185 178.247C313.05 177.577 312.069 176.676 311.304 175.603Z" fill="#263238"/>
<path d="M302.899 163.036C304.658 163.734 306.282 164.733 307.697 165.989C309.166 167.322 310.347 168.941 311.165 170.747C312.447 173.456 313.662 175.137 315.539 176.532C315.639 176.605 315.752 176.658 315.872 176.687C315.992 176.717 316.116 176.722 316.238 176.703C316.361 176.684 316.478 176.641 316.583 176.577C316.689 176.513 316.78 176.428 316.853 176.328C319.089 172.95 318.199 167.76 314.511 164.088C311.01 160.596 306.155 159.592 302.777 161.395C302.631 161.484 302.513 161.61 302.435 161.762C302.357 161.913 302.322 162.083 302.335 162.253C302.347 162.423 302.407 162.586 302.506 162.724C302.606 162.862 302.742 162.97 302.899 163.036Z" fill="#263238"/>
</g>
<defs>
<clipPath id="clip0_1013_503">
<rect width="408" height="408" fill="white"/>
</clipPath>
</defs>
</svg>
