<svg width="408" height="408" viewBox="0 0 408 408" fill="none" xmlns="http://www.w3.org/2000/svg">
<path d="M204 392.055C306.995 392.055 390.489 343.849 390.489 284.384C390.489 224.919 306.995 176.713 204 176.713C101.006 176.713 17.5117 224.919 17.5117 284.384C17.5117 343.849 101.006 392.055 204 392.055Z" fill="#F3F4F6"/>
<path d="M253.694 358.044C286.656 358.044 313.376 342.616 313.376 323.585C313.376 304.553 286.656 289.125 253.694 289.125C220.732 289.125 194.012 304.553 194.012 323.585C194.012 342.616 220.732 358.044 253.694 358.044Z" fill="#EEEEEE"/>
<path d="M155.954 358.044C188.915 358.044 215.636 342.616 215.636 323.585C215.636 304.553 188.915 289.125 155.954 289.125C122.992 289.125 96.2715 304.553 96.2715 323.585C96.2715 342.616 122.992 358.044 155.954 358.044Z" fill="#EEEEEE"/>
<path d="M124.598 74.359C124.463 74.2811 124.309 74.2408 124.153 74.2422H116.031L112.675 76.1833V87.8004L116.031 85.8666L118.95 82.5172V90.7265L122.307 88.7855L131.1 79.2992C131.187 79.2007 131.25 79.0842 131.286 78.9582C131.322 78.8322 131.329 78.6997 131.308 78.5704C131.286 78.4412 131.236 78.3184 131.161 78.2109C131.086 78.1035 130.988 78.0141 130.874 77.9492L124.598 74.359Z" fill="#0A2B51"/>
<path opacity="0.7" d="M124.598 74.359C124.463 74.2811 124.309 74.2408 124.153 74.2422H116.031L112.675 76.1833V87.8004L116.031 85.8666L118.95 82.5172V90.7265L122.307 88.7855L131.1 79.2992C131.187 79.2007 131.25 79.0842 131.286 78.9582C131.322 78.8322 131.329 78.6997 131.308 78.5704C131.286 78.4412 131.236 78.3184 131.161 78.2109C131.086 78.1035 130.988 78.0141 130.874 77.9492L124.598 74.359Z" fill="white"/>
<path d="M118.929 90.7286L122.285 88.7875L131.078 79.3012C131.189 79.1735 131.26 79.0168 131.284 78.8499C131.308 78.6829 131.283 78.5126 131.213 78.3591C131.144 78.2055 131.031 78.0752 130.89 77.9836C130.748 77.8919 130.583 77.8427 130.414 77.8418H122.285L118.929 79.7755V90.7286Z" fill="#0A2B51"/>
<path d="M122.315 72.8935C122.254 71.7749 121.93 70.6865 121.37 69.7165C120.809 68.7465 120.028 67.9224 119.089 67.3112C118.091 66.8036 116.987 66.5391 115.867 66.5391C114.748 66.5391 113.644 66.8036 112.646 67.3112L71.9495 90.6621C71.0125 91.2746 70.2329 92.0992 69.6738 93.069C69.1148 94.0388 68.7919 95.1266 68.7314 96.2444V116.946C68.7919 118.064 69.1148 119.152 69.6738 120.122C70.2329 121.092 71.0125 121.916 71.9495 122.529C72.949 123.036 74.054 123.3 75.1748 123.3C76.2956 123.3 77.4006 123.036 78.4002 122.529L119.388 98.9444C122.307 97.2952 122.307 95.6388 122.307 93.581L122.315 72.8935Z" fill="#0A2B51"/>
<path d="M68.7314 116.96C68.7919 118.078 69.1148 119.166 69.6738 120.136C70.2329 121.106 71.0125 121.93 71.9495 122.543C72.8576 123.001 73.8525 123.262 74.8687 123.309C75.8849 123.355 76.8994 123.186 77.8456 122.813C76.3278 123.389 75.1748 122.521 75.1748 120.682V99.9799C75.2177 98.8665 75.5415 97.7821 76.1162 96.8275L69.6728 93.1133C69.0931 94.0736 68.769 95.1664 68.7314 96.2875V116.96Z" fill="#0A2B51"/>
<path opacity="0.2" d="M68.7314 116.96C68.7919 118.078 69.1148 119.166 69.6738 120.136C70.2329 121.106 71.0125 121.93 71.9495 122.543C72.8576 123.001 73.8525 123.262 74.8687 123.309C75.8849 123.355 76.8994 123.186 77.8456 122.813C76.3278 123.389 75.1748 122.521 75.1748 120.682V99.9799C75.2177 98.8665 75.5415 97.7821 76.1162 96.8275L69.6728 93.1133C69.0931 94.0736 68.769 95.1664 68.7314 96.2875V116.96Z" fill="black"/>
<path d="M122.205 72.0188C121.833 70.6469 120.585 70.2091 119.096 71.0701L78.3925 94.4211C77.4382 95.0112 76.6557 95.8416 76.1231 96.8291L69.6797 93.1149C70.2203 92.1308 71.0041 91.3017 71.9564 90.7068L112.638 67.3559C113.639 66.8522 114.743 66.5898 115.863 66.5898C116.984 66.5898 118.088 66.8522 119.089 67.3559C119.898 67.8802 120.592 68.5641 121.128 69.3659C121.663 70.1677 122.03 71.0704 122.205 72.0188Z" fill="#0A2B51"/>
<path opacity="0.7" d="M122.205 72.0188C121.833 70.6469 120.585 70.2091 119.096 71.0701L78.3925 94.4211C77.4382 95.0112 76.6557 95.8416 76.1231 96.8291L69.6797 93.1149C70.2203 92.1308 71.0041 91.3017 71.9564 90.7068L112.638 67.3559C113.639 66.8522 114.743 66.5898 115.863 66.5898C116.984 66.5898 118.088 66.8522 119.089 67.3559C119.898 67.8802 120.592 68.5641 121.128 69.3659C121.663 70.1677 122.03 71.0704 122.205 72.0188Z" fill="white"/>
<path d="M81.8082 100.586C82.0916 100.409 82.4155 100.306 82.7495 100.287C82.8873 100.288 83.0235 100.317 83.1492 100.374C83.2749 100.43 83.3873 100.513 83.4792 100.615C83.7024 100.903 83.8571 101.237 83.9316 101.593C84.0469 102.125 84.1007 102.669 84.0922 103.213C84.0943 103.825 84.0406 104.436 83.9316 105.038C83.8323 105.539 83.6807 106.028 83.4792 106.497C83.291 106.913 83.0454 107.302 82.7495 107.65C82.4889 107.988 82.1701 108.277 81.8082 108.504L80.7574 109.109V112.539C80.7575 112.661 80.7353 112.782 80.6917 112.897C80.6661 112.986 80.6124 113.066 80.5385 113.123L79.4658 113.743C79.4383 113.757 79.4067 113.76 79.3771 113.752C79.3474 113.744 79.3218 113.725 79.3052 113.699C79.259 113.612 79.2388 113.513 79.2469 113.415V102.52C79.2443 102.401 79.2641 102.282 79.3052 102.17C79.3235 102.08 79.3695 101.998 79.4366 101.936L81.8082 100.586ZM80.7574 106.424L81.7644 105.84C82.016 105.69 82.2148 105.466 82.3336 105.198C82.4887 104.862 82.566 104.495 82.5598 104.125C82.5598 103.651 82.4868 103.396 82.3336 103.235C82.251 103.175 82.1513 103.142 82.049 103.142C81.9466 103.142 81.8469 103.175 81.7644 103.235L80.7574 103.819V106.424Z" fill="#A1FFA1"/>
<path d="M87.3976 97.194C87.6824 97.0071 88.0212 96.9198 88.3608 96.9459C88.6359 96.9894 88.8908 97.1168 89.0906 97.3108C89.3368 97.526 89.5293 97.7959 89.6524 98.0989C89.7729 98.4235 89.8347 98.767 89.8349 99.1132C89.8363 99.2128 89.819 99.3119 89.7838 99.4051C89.7638 99.4761 89.7232 99.5396 89.667 99.5875L88.5944 100.2C88.5684 100.22 88.5389 100.233 88.5076 100.241C88.4762 100.248 88.4437 100.25 88.4119 100.244C88.3531 100.217 88.3027 100.174 88.266 100.12L88.193 100.003C88.1519 99.9413 88.1 99.8869 88.0398 99.8429C87.9686 99.7952 87.8847 99.7697 87.799 99.7699C87.6694 99.7709 87.5428 99.8088 87.4341 99.8794C87.3293 99.9452 87.2293 100.018 87.1349 100.098C87.041 100.18 86.9577 100.273 86.8868 100.376C86.8092 100.488 86.7478 100.611 86.7044 100.74C86.6566 100.892 86.632 101.049 86.6314 101.207C86.6248 101.336 86.6525 101.465 86.7117 101.58C86.7415 101.624 86.7803 101.661 86.8257 101.688C86.871 101.716 86.9217 101.734 86.9744 101.74C87.1364 101.765 87.3013 101.765 87.4633 101.74C87.6603 101.74 87.9157 101.675 88.193 101.623C88.4527 101.568 88.7214 101.568 88.9811 101.623C89.2062 101.686 89.4039 101.822 89.543 102.01C89.7093 102.257 89.8235 102.535 89.8787 102.827C89.9539 103.256 89.9857 103.691 89.9735 104.126C89.9742 104.679 89.9105 105.23 89.7838 105.768C89.6655 106.273 89.4891 106.763 89.2584 107.228C89.045 107.66 88.7751 108.063 88.4557 108.424C88.1718 108.757 87.8368 109.043 87.4633 109.271C87.1638 109.471 86.8087 109.57 86.449 109.555C86.1539 109.535 85.8739 109.417 85.6536 109.22C85.4197 108.991 85.2423 108.712 85.1355 108.402C85.0069 108.032 84.9403 107.642 84.9385 107.25C84.9396 107.149 84.9594 107.05 84.9969 106.958C85.0165 106.888 85.0573 106.827 85.1136 106.783L86.1863 106.162C86.2122 106.143 86.2417 106.129 86.2731 106.122C86.3044 106.114 86.3369 106.113 86.3687 106.118C86.4212 106.136 86.4653 106.173 86.4928 106.221C86.5334 106.27 86.5677 106.324 86.5949 106.381C86.6426 106.46 86.7016 106.531 86.7701 106.593C86.8491 106.657 86.9459 106.695 87.0474 106.702C87.1951 106.71 87.3413 106.669 87.4633 106.586C87.7439 106.43 87.9917 106.222 88.193 105.973C88.3902 105.727 88.4937 105.419 88.4849 105.104C88.4956 104.977 88.4592 104.849 88.3827 104.747C88.2913 104.673 88.179 104.629 88.0617 104.623C87.88 104.6 87.6961 104.6 87.5144 104.623L86.7336 104.776C86.4989 104.831 86.2526 104.81 86.0308 104.715C85.8089 104.621 85.6231 104.458 85.5004 104.25C85.1938 103.6 85.0605 102.881 85.1136 102.163C85.1151 101.673 85.1689 101.183 85.2741 100.704C85.3716 100.202 85.5259 99.7121 85.7339 99.2445C85.9248 98.807 86.17 98.3951 86.4636 98.0186C86.7224 97.6895 87.0389 97.4101 87.3976 97.194Z" fill="#A1FFA1"/>
<path d="M93.3017 93.7702C93.5865 93.5832 93.9252 93.496 94.2649 93.5221C94.5409 93.5627 94.7966 93.6906 94.9946 93.887C95.2213 94.1057 95.3916 94.3761 95.4908 94.6751C95.6138 94.9992 95.678 95.3427 95.6805 95.6894C95.682 95.789 95.6646 95.888 95.6295 95.9813C95.61 96.0524 95.5661 96.1144 95.5054 96.1564L94.4327 96.7767C94.4068 96.7958 94.3773 96.8095 94.346 96.817C94.3146 96.8246 94.2821 96.8257 94.2503 96.8204C94.1928 96.7908 94.1429 96.7483 94.1044 96.6964L94.0314 96.5723C93.9898 96.5126 93.9379 96.4607 93.8781 96.4191C93.8041 96.3707 93.7184 96.343 93.63 96.3388C93.5031 96.3477 93.3802 96.3878 93.2725 96.4556C93.1665 96.5195 93.0663 96.5928 92.9733 96.6745C92.7697 96.843 92.6179 97.0656 92.5355 97.3166C92.4901 97.4656 92.468 97.6207 92.4698 97.7764C92.4618 97.9078 92.4896 98.0389 92.5501 98.1558C92.5811 98.1986 92.6203 98.2347 92.6654 98.2623C92.7105 98.2898 92.7606 98.3082 92.8128 98.3164C92.9723 98.3417 93.1348 98.3417 93.2944 98.3164L94.0241 98.1996C94.2809 98.1398 94.5481 98.1398 94.8049 98.1996C95.0317 98.2587 95.2306 98.3956 95.3668 98.5864C95.5378 98.8306 95.6524 99.1097 95.7024 99.4036C95.786 99.8339 95.8251 100.272 95.8192 100.71C95.8224 101.784 95.5724 102.844 95.0895 103.804C94.8744 104.236 94.6046 104.638 94.2868 105.001C93.9974 105.33 93.6574 105.61 93.2798 105.832C92.9777 106.032 92.6202 106.132 92.2582 106.117C91.9636 106.098 91.6849 105.977 91.4701 105.774C91.2331 105.548 91.0552 105.268 90.952 104.957C90.8232 104.588 90.7566 104.201 90.755 103.811C90.7536 103.711 90.7709 103.612 90.806 103.519C90.8236 103.449 90.8649 103.387 90.9228 103.344L92.0028 102.724C92.0272 102.705 92.0554 102.691 92.0856 102.683C92.1158 102.676 92.1473 102.674 92.1779 102.68C92.2296 102.699 92.275 102.732 92.3093 102.775C92.3093 102.775 92.3676 102.862 92.4114 102.943C92.4573 103.021 92.5166 103.09 92.5865 103.147C92.6649 103.213 92.7617 103.254 92.8638 103.264C93.0111 103.268 93.1561 103.227 93.2798 103.147C93.5576 102.988 93.8047 102.78 94.0095 102.534C94.2034 102.287 94.3065 101.98 94.3014 101.666C94.3137 101.537 94.2744 101.408 94.1919 101.308C94.105 101.231 93.994 101.188 93.8781 101.184C93.6949 101.173 93.511 101.186 93.3309 101.221L92.5501 101.337C92.3154 101.39 92.0699 101.368 91.8486 101.274C91.6272 101.18 91.4412 101.018 91.3168 100.812C91.0074 100.162 90.8717 99.443 90.9228 98.725C90.9274 98.2344 90.9812 97.7455 91.0833 97.2656C91.1893 96.7763 91.3458 96.2995 91.5504 95.8426C91.7394 95.404 91.9847 94.9919 92.2801 94.6167C92.5614 94.2699 92.9086 93.9822 93.3017 93.7702Z" fill="#A1FFA1"/>
<path d="M99.2629 90.3407C99.5474 90.1598 99.8826 90.0753 100.219 90.0999C100.494 90.1394 100.749 90.2645 100.949 90.4574C101.174 90.6782 101.347 90.9478 101.452 91.2455C101.57 91.5735 101.634 91.9185 101.642 92.2671C101.641 92.3672 101.621 92.4662 101.583 92.559C101.568 92.6302 101.527 92.6928 101.467 92.7341L100.394 93.3544C100.369 93.3745 100.339 93.3883 100.307 93.3946C100.275 93.401 100.243 93.3997 100.212 93.3909C100.151 93.369 100.1 93.328 100.066 93.2741L100.015 93.1793C99.9799 93.1165 99.9297 93.0637 99.8686 93.026C99.796 92.9747 99.7094 92.9467 99.6205 92.9458C99.4932 92.9528 99.3699 92.993 99.2629 93.0625C99.1543 93.1225 99.0538 93.196 98.9638 93.2814C98.7602 93.4499 98.6084 93.6725 98.5259 93.9236C98.4806 94.0725 98.4584 94.2276 98.4603 94.3833C98.45 94.514 98.4752 94.6451 98.5332 94.7627C98.5634 94.8057 98.6025 94.8416 98.6478 94.868C98.6932 94.8945 98.7437 94.9108 98.7959 94.916C98.9575 94.9456 99.1232 94.9456 99.2848 94.916L100.015 94.7992C100.274 94.7434 100.543 94.7434 100.803 94.7992C101.028 94.866 101.225 95.0043 101.365 95.1933C101.537 95.4368 101.652 95.7162 101.7 96.0106C101.781 96.4411 101.818 96.8788 101.81 97.3168C101.808 98.3906 101.559 99.4495 101.08 100.411C100.865 100.842 100.595 101.245 100.277 101.607C99.9852 101.937 99.6428 102.217 99.2629 102.439C98.9635 102.639 98.6083 102.739 98.2486 102.724C97.9538 102.706 97.6747 102.585 97.4605 102.381C97.2226 102.156 97.0445 101.875 96.9424 101.564C96.8068 101.197 96.74 100.809 96.7454 100.418C96.744 100.318 96.7613 100.219 96.7965 100.126C96.8141 100.056 96.8553 99.9942 96.9133 99.951L97.9859 99.3308C98.0662 99.287 98.1246 99.2651 98.1684 99.2797C98.2204 99.3016 98.2657 99.3369 98.2997 99.3819L98.3946 99.5424C98.4402 99.6226 98.4995 99.6942 98.5697 99.754C98.6508 99.8205 98.7499 99.8611 98.8543 99.8708C98.9991 99.8733 99.1413 99.8326 99.2629 99.754C99.5417 99.5962 99.7891 99.3884 99.9927 99.141C100.185 98.8929 100.285 98.5862 100.277 98.2727C100.292 98.1447 100.255 98.0162 100.175 97.9151C100.088 97.8344 99.9729 97.79 99.854 97.7911C99.6726 97.7645 99.4882 97.7645 99.3067 97.7911L98.5259 97.9005C98.292 97.9554 98.0467 97.9348 97.8252 97.8417C97.6037 97.7487 97.4173 97.5879 97.2927 97.3824C96.9898 96.7305 96.8568 96.0126 96.906 95.2954C96.907 94.8046 96.9609 94.3153 97.0665 93.836C97.1691 93.335 97.3232 92.846 97.5262 92.3766C97.7171 91.9412 97.9623 91.5318 98.2559 91.158C98.5363 90.8237 98.8781 90.5463 99.2629 90.3407Z" fill="#A1FFA1"/>
<path d="M107.217 85.9199C107.275 85.9199 107.326 85.9199 107.37 85.9637C107.419 86.0502 107.442 86.1491 107.436 86.2483V88.0288C107.436 88.151 107.414 88.2722 107.37 88.3864C107.344 88.4762 107.291 88.5554 107.217 88.6126L105.757 89.4444V98.0697C105.757 98.1919 105.735 98.3131 105.692 98.4273C105.666 98.5171 105.612 98.5963 105.538 98.6535L104.466 99.2737C104.452 99.2812 104.437 99.2859 104.421 99.2874C104.405 99.2889 104.39 99.2872 104.375 99.2824C104.36 99.2776 104.346 99.2699 104.334 99.2596C104.322 99.2493 104.312 99.2368 104.305 99.2227C104.255 99.1393 104.232 99.0424 104.24 98.9454V90.3201L102.78 91.152C102.722 91.152 102.671 91.152 102.62 91.1082C102.577 91.0197 102.557 90.9219 102.561 90.8236V89.0431C102.562 88.9216 102.582 88.801 102.62 88.6855C102.65 88.5962 102.706 88.5177 102.78 88.4593L107.217 85.9199Z" fill="#A1FFA1"/>
<path d="M109.443 95.9528C109.443 96.075 109.42 96.1962 109.377 96.3104C109.352 96.3985 109.298 96.4755 109.224 96.5293L108.151 97.1495C108.138 97.1584 108.123 97.1644 108.107 97.167C108.092 97.1696 108.076 97.1688 108.061 97.1646C108.045 97.1605 108.031 97.1531 108.019 97.1429C108.007 97.1327 107.997 97.1201 107.99 97.1058C107.931 97.0252 107.898 96.9284 107.896 96.8285V94.6393C107.895 94.5171 107.918 94.3959 107.961 94.2818C107.986 94.1897 108.043 94.1095 108.122 94.0555L109.194 93.4353C109.253 93.3964 109.304 93.411 109.348 93.4791C109.397 93.5655 109.42 93.6644 109.413 93.7637L109.443 95.9528Z" fill="#A1FFA1"/>
<path d="M112.201 94.3557C112.202 94.4779 112.18 94.5992 112.136 94.7132C112.11 94.8031 112.056 94.8823 111.983 94.9394L110.91 95.5597C110.851 95.5597 110.8 95.5597 110.749 95.5159C110.7 95.4295 110.677 95.3306 110.684 95.2313V93.0422C110.683 92.92 110.706 92.7988 110.749 92.6846C110.78 92.5972 110.836 92.5209 110.91 92.4657L111.983 91.8454C112.041 91.8065 112.092 91.8211 112.136 91.8892C112.184 91.9734 112.207 92.0697 112.201 92.1665V94.3557Z" fill="#A1FFA1"/>
<path d="M114.959 92.7638C114.959 92.886 114.937 93.0072 114.894 93.1213C114.868 93.2112 114.814 93.2904 114.74 93.3475L113.668 93.9678C113.654 93.9752 113.64 93.9797 113.625 93.9812C113.609 93.9826 113.594 93.9808 113.58 93.976C113.565 93.9712 113.552 93.9635 113.541 93.9533C113.53 93.943 113.521 93.9306 113.514 93.9167C113.464 93.8334 113.441 93.7364 113.449 93.6394V91.4503C113.449 91.3281 113.471 91.2069 113.514 91.0927C113.54 91.0029 113.594 90.9236 113.668 90.8665L114.74 90.2463C114.754 90.2389 114.768 90.2343 114.783 90.2329C114.798 90.2315 114.814 90.2332 114.828 90.238C114.843 90.2428 114.856 90.2506 114.867 90.2608C114.878 90.271 114.887 90.2835 114.894 90.2973C114.944 90.3807 114.967 90.4776 114.959 90.5746V92.7638Z" fill="#A1FFA1"/>
<path d="M117.761 87.5318C117.761 87.654 117.739 87.7752 117.695 87.8894C117.67 87.9792 117.616 88.0584 117.542 88.1156L116.513 88.7066C116.5 88.7155 116.485 88.7215 116.47 88.7241C116.454 88.7267 116.438 88.7259 116.423 88.7217C116.408 88.7176 116.394 88.7101 116.381 88.7C116.369 88.6898 116.36 88.6772 116.353 88.6628C116.305 88.5787 116.282 88.4824 116.287 88.3856V81.1322C116.288 81.01 116.31 80.889 116.353 80.7746C116.378 80.6843 116.435 80.6064 116.513 80.5557L117.542 79.9573C117.601 79.9233 117.652 79.9379 117.695 80.0011C117.745 80.0876 117.767 80.1865 117.761 80.2857V87.5318ZM117.761 91.1439C117.762 91.2661 117.74 91.3875 117.695 91.5014C117.67 91.5913 117.616 91.6705 117.542 91.7277L116.513 92.326C116.5 92.3338 116.485 92.3389 116.47 92.3409C116.454 92.3429 116.439 92.3418 116.424 92.3378C116.409 92.3337 116.395 92.3267 116.383 92.3171C116.371 92.3076 116.36 92.2957 116.353 92.2822C116.304 92.1958 116.281 92.0969 116.287 91.9977V90.2974C116.287 90.1752 116.309 90.054 116.353 89.9399C116.38 89.8488 116.436 89.7693 116.513 89.7136L117.542 89.1226C117.601 89.0885 117.652 89.1031 117.695 89.1664C117.745 89.2528 117.767 89.3517 117.761 89.4509V91.1439Z" fill="#A1FFA1"/>
<path d="M263.158 110.315C268.266 109.585 271.499 111.672 273.863 116.152C276.227 120.633 273.863 142.678 273.717 151.252C273.841 156.36 275.76 169.042 277.366 175.858C277.898 178.171 278.548 179.258 280.182 181.294C282.371 183.994 283.262 186.971 284.75 190.35C286.239 193.728 287.202 194.32 285.728 194.998C285.123 195.275 283.539 194.765 282.503 193.699C281.043 192.189 279.934 190.094 279.766 190.54C279.993 192.27 280.362 193.978 280.868 195.648C281.459 197.56 282.539 199.522 282.963 200.639C283.977 203.259 279.934 205.645 275.709 204.382C271.484 203.12 268.667 198.793 267.843 189.788C267.018 180.783 268.025 180.411 267.347 174.581C266.668 168.75 263.465 153.623 262.786 148.464C262.107 143.305 263.158 110.315 263.158 110.315Z" fill="#F0F0F0"/>
<path d="M224.082 302.863C223.435 305.608 222.931 308.385 222.572 311.182C222.163 314.334 221.915 316.67 220.996 322.048C220.156 326.959 219.536 330.702 222.995 334.394C226.045 337.642 231.423 338.889 233.211 335.197C235.232 330.979 234.97 324.135 234.671 319.873C234.371 315.611 234.459 314.364 234.422 310.97C234.422 307.979 234.247 306.753 234.079 304.177C230.81 304.002 227.359 303.119 224.082 302.863Z" fill="#37474F"/>
<path d="M260.334 318.744L261.458 318.576C261.531 315.044 261.326 311.819 262.187 310.148L260.582 305.82L260.334 318.744Z" fill="#263238"/>
<path d="M257.568 302.66C257.816 305.083 259.196 307.564 259.291 312.336C259.401 314.367 259.359 316.404 259.166 318.429L260.334 318.743L260.597 305.82L257.568 302.66Z" fill="#263238"/>
<path d="M284.196 321.991C284.196 321.991 284.145 323.399 283.54 323.859C282.934 324.318 281.65 325.719 275.432 325.355C269.215 324.99 267.041 323.45 264.917 321.516C262.794 319.583 262.239 314.489 261.918 312.096C261.305 307.44 259.371 305.003 257.54 302.66C257.238 301.894 257.174 301.055 257.357 300.252C257.357 300.252 262.465 299.968 264.713 305.652C266.96 311.337 268.682 317.948 273.703 319.517C277.146 320.56 280.65 321.386 284.196 321.991Z" fill="#263238"/>
<path d="M224.082 302.865C224.126 298.851 224.082 293.524 223.718 286.453C223.294 278.229 223.236 271.815 223.265 263.102C223.265 256.491 223.637 250.661 225.98 238.015C223.499 212.613 222.594 186.365 225.593 176.718C228.169 168.436 230.796 165.671 233.109 161.621C234.32 159.526 236.517 156.41 236.517 153.594C242.368 155.886 248.586 157.097 254.869 157.169C266.639 157.279 270.755 154.075 270.755 154.075C270.755 154.075 276.067 215.612 274.958 235.701C274.302 247.589 273.346 265.182 272.995 273.822C272.725 280.491 271.952 289.146 272.025 292.846C272.083 295.983 272.754 298.596 273.9 302.222C274.939 305.479 276.227 308.65 277.753 311.709C278.132 312.522 278.624 313.279 279.212 313.956C280.029 314.872 280.909 315.728 281.847 316.518C283.744 318.159 284.693 318.962 284.532 320.487C284.372 322.012 283.241 322.611 281.956 322.997C278.906 323.91 275.447 323.537 272.39 322.997C269.332 322.457 265.917 321.013 264.618 318.101C264.273 317.237 264.028 316.336 263.888 315.416C263.327 312.417 262.816 309.352 261.553 306.55C261.098 305.352 260.528 304.201 259.853 303.113C259.043 301.952 258.073 300.697 257.919 299.245C257.795 298.034 258.729 296.326 259.941 294.502V294.466C260.991 292.882 260.67 291.78 260.335 286.789C259.539 275.982 257.336 268.21 255.489 255.083C254.57 248.566 254.76 243.342 255.869 236.11C254.614 227.507 252.439 218.487 251.162 212.555C249.09 224.96 247.762 229.513 246.631 238.912C245.069 251.938 237.743 279.207 236.575 286.212C235.408 293.218 234.678 297.932 234.138 303.631C233.664 308.571 233.299 318.51 232.678 323.041C231.686 330.273 224.228 328.062 223.024 321.677C222.214 317.408 224.017 308.447 224.082 302.865Z" fill="#F0F0F0"/>
<path d="M257.926 296.713C258.809 295.151 259.619 294.713 260.473 293.363C261.45 294.237 262.147 295.379 262.48 296.647C262.859 297.888 263.859 303.988 265.355 308.841C266.486 312.489 268.376 314.408 270.973 315.408C272.602 316.022 274.357 316.22 276.081 315.984C279.314 315.539 278.555 313.219 278.555 313.219C279.285 314.24 282.386 316.758 284.211 318.604C285.239 319.655 284.758 321.246 283.97 322.253C283.072 323.026 280.971 324.581 273.25 323.464C266.405 322.464 264.8 319.305 264.151 317.874C263.654 316.787 263.231 314.452 262.728 311.446C262.347 309.047 261.533 306.738 260.327 304.63C260.174 304.367 260.02 304.119 259.882 303.9C259.422 303.222 258.875 302.441 258.254 301.711C257.78 301.135 257.401 300.857 257.262 300.31C257.045 299.07 257.281 297.794 257.926 296.713Z" fill="#37474F"/>
<path d="M272.47 140.881C272.287 144.296 270.755 154.067 270.755 154.067C256.825 163.502 236.517 153.586 236.517 153.586L232.715 130.461C232.715 130.461 241.056 121.916 234.225 111.196L245.288 110.467L257.109 110.408L263.159 110.299C267.413 113.422 274.761 121.412 276.126 124.893C277.49 128.374 278.651 133.591 272.47 140.881Z" fill="#0A2B51"/>
<path d="M272.469 140.881C272.286 144.296 270.754 154.067 270.754 154.067C256.824 163.502 236.516 153.586 236.516 153.586L232.714 130.461C232.714 130.461 241.055 121.916 234.224 111.196L245.287 110.467L257.108 110.408L263.158 110.299C267.412 113.422 274.76 121.412 276.125 124.893C277.489 128.374 278.65 133.591 272.469 140.881Z" fill="#A1FFA1"/>
<path opacity="0.1" d="M258.795 140.314C257.591 141.883 251.994 143.81 247.389 141.774C245.662 141.068 244.155 139.91 243.028 138.422C241.901 136.934 241.194 135.171 240.983 133.316C240.983 133.316 239.669 140.417 246.769 143.306C253.869 146.196 258.43 141.883 258.795 140.314Z" fill="#263238"/>
<path d="M237.939 100.478C237.939 100.478 258.78 108.608 258.78 104.974C262.691 97.7347 270.623 95.3705 270.623 82.7318C270.623 69.5093 259.641 63.0294 248.651 63.0294C245.215 63.0172 241.834 63.8919 238.835 65.5691C235.836 67.2464 233.32 69.6692 231.532 72.6033C225.256 74.216 226.862 82.9069 233.137 84.4685L237.939 100.478Z" fill="#263238"/>
<path d="M265.472 63.627L264.443 69.1436C264.805 69.2304 265.181 69.2434 265.549 69.1818C265.916 69.1202 266.267 68.9852 266.581 68.785C266.895 68.5848 267.165 68.3234 267.376 68.0164C267.587 67.7094 267.733 67.3632 267.807 66.9982C267.94 66.2422 267.769 65.4644 267.332 64.8334C266.895 64.2024 266.227 63.769 265.472 63.627Z" fill="#263238"/>
<path d="M270.579 68.2246L264.895 68.8376C264.921 69.209 265.022 69.5713 265.192 69.9026C265.362 70.2339 265.597 70.5273 265.883 70.7653C266.17 71.0033 266.501 71.1808 266.858 71.2872C267.215 71.3935 267.589 71.4266 267.959 71.3843C268.719 71.2978 269.417 70.9205 269.905 70.3316C270.393 69.7426 270.635 68.9876 270.579 68.2246Z" fill="#263238"/>
<path d="M258.78 111.198V95.1442C258.78 95.1442 260.852 97.1947 263.888 94.9763C266.602 92.9842 267.741 88.7081 265.836 86.5043C264.486 84.95 260.312 84.089 258.678 87.4457C258.678 87.4457 253.84 87.2122 247.52 82.7317C241.201 78.2512 239.705 74.2889 235.845 73.8438C234.028 75.2302 232.262 79.3166 232.452 90.1018C232.59 98.0776 236.158 101.887 237.983 103.237C239.442 104.353 241.376 104.514 244.587 103.966V111.526C244.587 111.526 251.059 122.1 258.721 121.626C270.236 120.91 258.78 111.198 258.78 111.198Z" fill="#F0F0F0"/>
<path d="M258.678 86.679V91.1011C258.268 91.105 257.861 91.028 257.48 90.8746C257.1 90.7212 256.753 90.4944 256.461 90.207C256.168 89.9197 255.935 89.5776 255.774 89.2001C255.614 88.8227 255.529 88.4173 255.525 88.0071V83.7383L258.678 86.679Z" fill="#263238"/>
<path d="M232.854 94.1731V92.4509C234.78 92.0788 236.174 93.509 236.67 96.0995C236.991 97.7487 237.239 100.259 236.67 102.047C234.665 99.845 233.34 97.1107 232.854 94.1731Z" fill="#F0F0F0"/>
<path d="M246.871 87.3429C246.858 87.5358 246.883 87.7294 246.946 87.9123C247.009 88.0952 247.107 88.2639 247.235 88.4085C247.363 88.5531 247.519 88.6707 247.693 88.7546C247.868 88.8386 248.057 88.887 248.25 88.8972C248.444 88.907 248.638 88.878 248.821 88.8118C249.003 88.7455 249.171 88.6435 249.314 88.5117C249.456 88.3798 249.571 88.2208 249.652 88.0439C249.732 87.867 249.777 87.6758 249.782 87.4816C249.791 87.2899 249.763 87.0983 249.698 86.9178C249.633 86.7372 249.533 86.5713 249.404 86.4293C249.275 86.2873 249.119 86.1722 248.945 86.0904C248.772 86.0087 248.584 85.9619 248.392 85.9528C248.2 85.9437 248.009 85.9724 247.828 86.0374C247.648 86.1023 247.482 86.2022 247.34 86.3313C247.198 86.4603 247.083 86.6161 247.001 86.7897C246.919 86.9633 246.872 87.1513 246.863 87.3429H246.871Z" fill="#263238"/>
<path d="M244.58 96.8288C244.568 97.0211 244.594 97.2139 244.657 97.396C244.72 97.578 244.819 97.7458 244.947 97.8896C245.075 98.0335 245.231 98.1505 245.404 98.2339C245.578 98.3174 245.766 98.3656 245.959 98.3758C246.153 98.3856 246.347 98.3566 246.53 98.2904C246.712 98.2241 246.88 98.1221 247.023 97.9903C247.165 97.8584 247.28 97.6994 247.361 97.5225C247.441 97.3456 247.486 97.1544 247.491 96.9602C247.5 96.7685 247.471 96.577 247.405 96.3967C247.34 96.2163 247.24 96.0506 247.11 95.909C246.981 95.7674 246.825 95.6526 246.651 95.5713C246.477 95.49 246.289 95.4437 246.097 95.4351C245.906 95.4264 245.714 95.4557 245.534 95.521C245.354 95.5864 245.188 95.6867 245.046 95.8161C244.905 95.9455 244.79 96.1016 244.709 96.2753C244.627 96.4491 244.581 96.6372 244.572 96.8288H244.58Z" fill="#263238"/>
<path d="M234.189 83.2191L237.188 81.1467C237.058 80.9468 236.889 80.7751 236.691 80.6418C236.493 80.5085 236.27 80.4163 236.036 80.3707C235.802 80.3251 235.561 80.327 235.328 80.3764C235.094 80.4257 234.873 80.5214 234.678 80.6578C234.28 80.9379 234.006 81.3616 233.915 81.8396C233.824 82.3175 233.922 82.8121 234.189 83.2191Z" fill="#263238"/>
<path d="M235.736 86.4093C235.723 86.6022 235.749 86.7958 235.811 86.9787C235.874 87.1616 235.972 87.3303 236.1 87.4749C236.229 87.6195 236.384 87.7372 236.559 87.8211C236.733 87.905 236.922 87.9534 237.115 87.9636C237.309 87.9734 237.503 87.9444 237.686 87.8782C237.869 87.8119 238.036 87.7099 238.179 87.5781C238.322 87.4462 238.437 87.2872 238.517 87.1103C238.597 86.9334 238.642 86.7422 238.647 86.548C238.656 86.3563 238.628 86.1648 238.563 85.9842C238.498 85.8037 238.398 85.6377 238.269 85.4957C238.14 85.3537 237.984 85.2386 237.811 85.1568C237.637 85.0751 237.449 85.0283 237.257 85.0192C237.066 85.0101 236.874 85.0389 236.694 85.1038C236.513 85.1687 236.347 85.2686 236.205 85.3977C236.063 85.5267 235.948 85.6825 235.866 85.8561C235.784 86.0297 235.738 86.2177 235.729 86.4093H235.736Z" fill="#263238"/>
<path d="M243.222 85.6719L243.01 93.5017L238.814 92.2247L243.222 85.6719Z" fill="#E0E0E0"/>
<path d="M244.572 103.973C247.965 103.543 254.942 101.572 256.029 98.8652C255.589 100.24 254.735 101.445 253.584 102.317C251.497 104.068 244.572 106.038 244.572 106.038V103.973Z" fill="#E0E0E0"/>
<path d="M253.789 63.5324C246.784 61.9344 243.989 63.963 236.903 63.2114C233.984 62.8976 231.343 62.7662 229.394 63.7441C227.205 64.8605 225.884 67.3051 226.184 70.4575C226.687 75.7698 232.423 77.1344 232.423 77.1344C232.423 77.1344 237.283 66.1886 243.748 66.2762C250.213 66.3637 253.789 63.5324 253.789 63.5324Z" fill="#263238"/>
<path d="M237.692 110.97C233.729 110.824 231.752 111.102 228.745 112.517C225.739 113.933 193.931 129.359 193.931 129.359C193.931 129.359 189.435 138.342 192.909 139.685C196.382 141.027 206.511 138.875 212.188 136.81C218.383 134.555 232.452 128.899 232.452 128.899L232.715 130.461C232.715 130.461 237.903 128.564 238.421 121.318C238.881 114.809 237.692 110.97 237.692 110.97Z" fill="#F0F0F0"/>
<path d="M218.689 117.357L203.183 136.33C206.551 134.572 209.529 132.152 211.939 129.215C215.471 124.661 221.192 116.189 221.192 116.189L218.689 117.357Z" fill="#F0F0F0"/>
<path d="M212.399 109.715C213.034 108.986 213.859 107.979 214.545 107.037C215.77 105.323 218.551 98.2808 219.937 97.2811C221.324 96.2814 223.075 93.5085 223.848 93.4282C224.622 93.3479 225.016 95.2598 224.082 96.6171C223.148 97.9744 221.893 100.426 222.688 99.8278C223.484 99.2295 226.986 95.9311 230.058 93.4866C233.51 90.7283 234.962 94.0047 235.378 95.9895C235.794 97.9744 236.451 100.952 234.583 103.228C232.985 105.138 231.227 106.908 229.329 108.519C227.766 109.774 226.115 110.915 224.388 111.934C222.513 113.131 220.484 115.174 216.413 120.019C212.341 124.864 209.845 130.724 204.511 135.248C199.666 139.335 194.295 141.086 191.558 138.992C188.822 136.897 190.989 129.739 193.091 126.55C195.192 123.361 207.547 114.444 212.399 109.715Z" fill="#F0F0F0"/>
<path d="M230.365 88.1896C230.458 88.189 230.547 88.1524 230.613 88.0874C230.647 88.0535 230.675 88.0131 230.693 87.9687C230.712 87.9242 230.721 87.8765 230.721 87.8284C230.721 87.7802 230.712 87.7325 230.693 87.688C230.675 87.6436 230.647 87.6032 230.613 87.5693L227.067 83.8696C227.033 83.8354 226.993 83.8083 226.948 83.7898C226.904 83.7713 226.856 83.7617 226.808 83.7617C226.76 83.7617 226.712 83.7713 226.667 83.7898C226.623 83.8083 226.583 83.8354 226.549 83.8696C226.515 83.9029 226.488 83.9427 226.469 83.9865C226.451 84.0304 226.441 84.0775 226.441 84.125C226.441 84.1726 226.451 84.2197 226.469 84.2636C226.488 84.3074 226.515 84.3472 226.549 84.3804L230.102 88.0728C230.136 88.1087 230.177 88.1375 230.222 88.1576C230.267 88.1776 230.316 88.1885 230.365 88.1896Z" fill="#E0E0E0"/>
<path d="M229.518 89.8824C229.587 89.8844 229.655 89.866 229.713 89.8297C229.772 89.7934 229.818 89.7406 229.847 89.6781C229.868 89.635 229.88 89.5881 229.883 89.5402C229.886 89.4923 229.88 89.4442 229.864 89.3988C229.849 89.3534 229.824 89.3115 229.792 89.2755C229.761 89.2395 229.722 89.2102 229.679 89.1892L225.052 87C225.009 86.9794 224.962 86.9676 224.913 86.9653C224.865 86.9629 224.817 86.9701 224.772 86.9864C224.726 87.0026 224.685 87.0277 224.649 87.0601C224.613 87.0925 224.584 87.1316 224.564 87.1752C224.543 87.2188 224.531 87.266 224.529 87.3142C224.526 87.3623 224.534 87.4105 224.55 87.4559C224.566 87.5013 224.591 87.5431 224.624 87.5788C224.656 87.6145 224.695 87.6435 224.739 87.6641L229.365 89.8532C229.413 89.8739 229.466 89.8839 229.518 89.8824Z" fill="#E0E0E0"/>
<path d="M224.272 92.1234H224.323L229.431 91.452C229.527 91.4393 229.613 91.3891 229.672 91.3125C229.731 91.2359 229.757 91.1392 229.745 91.0434C229.732 90.9476 229.682 90.8609 229.605 90.802C229.529 90.7432 229.432 90.7172 229.336 90.7296L224.228 91.4009C224.132 91.4137 224.045 91.4638 223.987 91.5404C223.928 91.617 223.902 91.7138 223.914 91.8096C223.925 91.8966 223.967 91.9767 224.033 92.0346C224.099 92.0924 224.184 92.124 224.272 92.1234Z" fill="#E0E0E0"/>
<path d="M272.812 278.024C272.892 276.565 272.965 275.157 273.024 273.814C273.374 265.174 274.33 247.544 274.987 235.694C276.096 215.605 270.783 154.068 270.783 154.068C270.783 154.068 266.668 157.271 254.898 157.162C248.614 157.089 242.396 155.878 236.545 153.586C236.545 156.403 234.356 159.519 233.137 161.613C230.824 165.663 228.197 168.428 225.621 176.711C222.622 186.365 223.527 212.613 226.008 238.007C223.666 250.653 223.191 256.979 223.162 263.547C223.162 272.26 223.25 276.682 223.673 284.942C227.854 288.065 236.603 286.168 236.603 286.168C237.771 279.163 245.097 251.871 246.659 238.868C247.79 229.469 249.118 224.93 251.191 212.511L255.897 236.066C254.803 243.312 254.598 248.537 255.518 255.038C256.86 264.59 258.393 271.304 259.429 278.389C261.268 280.411 269.995 280.921 272.812 278.024Z" fill="#0A2B51"/>
<path opacity="0.6" d="M272.812 278.024C272.892 276.565 272.965 275.157 273.024 273.814C273.374 265.174 274.33 247.544 274.987 235.694C276.096 215.605 270.783 154.068 270.783 154.068C270.783 154.068 266.668 157.271 254.898 157.162C248.614 157.089 242.396 155.878 236.545 153.586C236.545 156.403 234.356 159.519 233.137 161.613C230.824 165.663 228.197 168.428 225.621 176.711C222.622 186.365 223.527 212.613 226.008 238.007C223.666 250.653 223.191 256.979 223.162 263.547C223.162 272.26 223.25 276.682 223.673 284.942C227.854 288.065 236.603 286.168 236.603 286.168C237.771 279.163 245.097 251.871 246.659 238.868C247.79 229.469 249.118 224.93 251.191 212.511L255.897 236.066C254.803 243.312 254.598 248.537 255.518 255.038C256.86 264.59 258.393 271.304 259.429 278.389C261.268 280.411 269.995 280.921 272.812 278.024Z" fill="#263238"/>
<path d="M271.047 152.157L271.171 159.002C271.171 159.002 266.661 162.453 258.379 163.008C250.096 163.562 238.487 160.301 235.269 157.9C236.216 155.831 236.519 153.525 236.137 151.281C242.463 154.556 249.531 156.135 256.649 155.864C268.237 155.28 271.047 152.157 271.047 152.157Z" fill="#37474F"/>
<path opacity="0.6" d="M251.161 212.54L256.028 183.994C256.028 183.994 263.581 182.067 267.594 175.857C266.967 177.828 265.522 183.366 258.838 186.219L253.416 212.942L255.496 233.41L251.161 212.54Z" fill="#263238"/>
<path d="M197.038 133.62C198.381 130.789 199.709 127.95 201.022 125.105C201.825 123.368 202.62 121.624 203.394 119.88C204.124 118.304 204.525 116.961 204.014 115.217C203.616 114.081 203.116 112.985 202.518 111.94C201.108 109.17 200.068 106.226 199.424 103.184C199.368 103.023 199.344 102.852 199.354 102.682C199.364 102.511 199.408 102.345 199.483 102.191C199.611 102.045 199.779 101.938 199.967 101.883C200.154 101.829 200.354 101.83 200.541 101.885C201.562 102.097 202.256 103.023 202.803 103.914C203.153 104.49 204.394 106.767 205.226 106.022C205.78 105.534 205.51 104.184 205.51 103.541C205.523 102.023 205.381 100.507 205.087 99.0172C203.737 92.3986 204.875 90.6984 207.276 90.4284C209.385 90.1949 217.448 89.8957 218.769 102.235C219.302 107.205 216.916 116.961 215.66 121.514C213.836 128.082 208.422 140.801 208.422 140.801L197.038 133.62Z" fill="#F0F0F0"/>
<path d="M172.681 111.868C177.395 111.408 180.926 111.868 184.101 115.312C187.487 118.961 196.083 134.015 196.083 134.015L202.511 121.85C204.374 123.467 206.592 124.622 208.984 125.222C212.633 125.951 214.639 124.879 214.639 124.879C214.639 124.879 210.261 141.896 207.123 151.842C204.978 158.643 202.161 164.028 199.687 164.794C197.214 165.56 193.784 165.94 185.699 155.198C177.614 144.457 174.447 140.035 174.447 140.035L172.681 111.868Z" fill="#37474F"/>
<path d="M196.082 134.045C194.623 138.876 190.741 146.604 191.397 151.909C190.679 149.502 190.483 146.969 190.821 144.48C191.317 139.905 194.469 131.229 194.469 131.229L196.082 134.045Z" fill="#263238"/>
<path d="M131.51 320.34L141.624 320.347L144.528 298.383L131.765 297.887L131.51 320.34Z" fill="#F0F0F0"/>
<path d="M170.134 309.373C171.856 312.358 177.38 312.117 181.985 311.059L182.517 289.467L168.988 288.941L170.134 309.373Z" fill="#F0F0F0"/>
<path d="M137.239 181.6C136.874 190.933 135.05 245.384 135.05 245.384C134.721 248.063 131.949 252.74 131.401 262.409C130.562 276.441 131.401 307.235 131.401 307.235C131.401 307.235 137.195 310.264 143.434 307.965C143.434 307.965 151.797 263.773 154.095 249.953C156.095 237.883 161.714 206.33 161.714 206.33L166.698 247.8C165.777 252.703 165.391 257.692 165.545 262.679C165.756 269.122 169.427 300.434 169.427 300.434C173.618 301.807 178.12 301.917 182.372 300.748C182.372 300.748 185.386 252.149 185.729 246.26C186.123 239.539 185.853 180.25 185.853 180.25L137.239 181.6Z" fill="#0A2B51"/>
<path opacity="0.4" d="M137.239 181.6C136.874 190.933 135.05 245.384 135.05 245.384C134.721 248.063 131.949 252.74 131.401 262.409C130.562 276.441 131.401 307.235 131.401 307.235C131.401 307.235 137.195 310.264 143.434 307.965C143.434 307.965 151.797 263.773 154.095 249.953C156.095 237.883 161.714 206.33 161.714 206.33L166.698 247.8C165.777 252.703 165.391 257.692 165.545 262.679C165.756 269.122 169.427 300.434 169.427 300.434C173.618 301.807 178.12 301.917 182.372 300.748C182.372 300.748 185.386 252.149 185.729 246.26C186.123 239.539 185.853 180.25 185.853 180.25L137.239 181.6Z" fill="#263238"/>
<path opacity="0.2" d="M161.713 206.285C161.713 206.285 170.55 203.774 176.57 198.396C176.57 198.396 173.746 203.213 165.756 207.489L166.208 243.683L161.713 206.285Z" fill="black"/>
<path d="M153.182 338.655C153.511 338.984 153.321 341.166 152.927 341.735C152.533 342.304 150.118 344.23 145.936 344.362C141.937 344.493 138.406 343.814 136.122 342.238C133.838 340.662 132.772 338.976 132.641 336.7C132.51 334.423 132.852 332.241 131.838 330.453C130.904 328.804 129.379 326.921 129.065 326.031C128.387 324.097 129.219 321.412 129.219 321.412L153.182 338.655Z" fill="#263238"/>
<path d="M143.054 318.414C143.048 319.274 143.171 320.13 143.419 320.953C143.957 322.74 144.709 324.455 145.659 326.061C146.129 326.897 146.653 327.702 147.228 328.469C148.381 329.929 149.833 331.184 151.052 332.614C152.271 334.045 153.292 335.745 153.321 337.598C153.365 340.729 149.936 341.655 147.309 342.02C144.466 342.415 141.57 342.166 138.837 341.291C137.401 340.856 136.12 340.016 135.15 338.872C134.179 337.727 133.559 336.328 133.364 334.84C133.254 333.964 133.364 333.081 133.276 332.206C133.014 330.2 132.262 328.291 131.087 326.645C130.4 325.693 129.815 324.67 129.343 323.595C128.613 321.625 129.343 319.479 129.934 317.568C130.452 315.926 131.029 314.058 131.605 314.24C131.605 315.116 131.605 315.196 132.167 315.802C132.897 316.575 132.897 317.684 133.714 318.37C133.476 317.642 133.312 316.891 133.225 316.13C133.183 315.823 133.255 315.511 133.429 315.254C133.715 315.018 134.053 314.853 134.414 314.773C135.661 314.402 136.942 314.158 138.238 314.043C139.472 313.88 140.725 313.921 141.945 314.167C142.305 314.247 142.627 314.448 142.857 314.736C143.062 315.061 143.164 315.44 143.149 315.823C143.149 316.29 143.062 317.582 143.054 318.414Z" fill="#A1FFA1"/>
<path d="M146.06 326.689C144.929 325.769 142.317 325.653 140.886 325.755C139.432 325.821 138.018 326.255 136.778 327.017C136.595 327.138 136.376 327.191 136.158 327.166C135.94 327.14 135.738 327.039 135.589 326.879C135.501 326.786 135.435 326.676 135.394 326.555C135.354 326.435 135.34 326.307 135.354 326.181C135.368 326.054 135.409 325.932 135.475 325.824C135.54 325.715 135.629 325.622 135.735 325.55C137.103 324.62 138.707 324.096 140.361 324.04C143.878 323.93 144.885 324.573 144.885 324.573C144.885 324.573 146.439 325.696 146.06 326.689Z" fill="#0A2B51"/>
<path d="M148.607 330.022C147.147 329.103 144.309 329.11 142.871 329.212C141.443 329.297 140.063 329.76 138.872 330.555C138.689 330.675 138.469 330.727 138.251 330.7C138.033 330.673 137.832 330.57 137.683 330.409C137.595 330.318 137.529 330.209 137.487 330.089C137.446 329.969 137.432 329.842 137.445 329.716C137.458 329.591 137.499 329.469 137.564 329.361C137.629 329.252 137.717 329.159 137.822 329.088C139.214 328.101 140.854 327.522 142.557 327.417C146.075 327.308 146.936 328.059 146.936 328.059C147.346 328.237 147.71 328.506 148 328.846C148.289 329.187 148.497 329.589 148.607 330.022Z" fill="#0A2B51"/>
<path d="M139.092 320.655C141.529 320.502 142.544 320.815 143.471 321.202C144.069 321.574 144.441 322.567 144.032 322.793C142.811 322.25 141.476 322.015 140.143 322.107C138.825 322.185 137.529 322.486 136.312 322.997C136.006 323.121 135.641 323.296 135.327 323.45C135.226 323.502 135.115 323.534 135.002 323.542C134.888 323.55 134.774 323.535 134.667 323.497C134.56 323.46 134.461 323.4 134.378 323.323C134.294 323.246 134.227 323.152 134.181 323.048C134.108 322.87 134.103 322.67 134.166 322.488C134.229 322.305 134.356 322.151 134.524 322.056C135.932 321.273 137.488 320.796 139.092 320.655Z" fill="#0A2B51"/>
<path d="M205.073 322.836C205.431 323.739 205.431 324.744 205.073 325.646C204.715 326.485 200.541 329.105 194.74 328.995C190.435 328.885 186.238 327.625 182.583 325.347C180.306 323.989 177.993 323.822 175.125 323.8C172.258 323.778 168.419 322.515 167.733 321.209C167.047 319.903 167.653 317.561 167.653 317.561L205.073 322.836Z" fill="#263238"/>
<path d="M180.869 305.885L181.321 305.768C181.557 305.695 181.805 305.67 182.051 305.695C182.333 305.767 182.587 305.922 182.781 306.14C183.377 306.839 183.907 307.591 184.364 308.388C185.67 310.314 188.297 311.832 191.15 313.189C193.084 314.116 194.974 314.816 196.988 315.605C199.002 316.393 201.688 316.823 203.293 317.794C205.643 319.217 206.117 323.048 203.599 324.682C201.41 326.098 195.631 327.798 189.392 326.346C185.991 325.558 182.095 322.15 177.68 322.012C174.87 321.931 169.536 321.391 167.632 319.355C166.902 318.443 167.668 315.408 168.281 312.788C168.938 309.935 168.639 305.666 169.908 305.71L169.989 307.169C170.113 307.6 171.12 308.016 171.448 308.344L172.586 309.541C173.049 310.098 173.617 310.559 174.257 310.898C175.389 311.401 176.702 311.102 177.906 310.788C177.957 310.788 177.3 308.599 177.235 308.388C177.161 308.221 177.135 308.036 177.162 307.855C177.231 307.683 177.35 307.535 177.505 307.432C178.508 306.69 179.653 306.164 180.869 305.885Z" fill="#A1FFA1"/>
<path d="M188.501 311.795C188.282 311.419 187.972 311.104 187.6 310.878C187.227 310.652 186.805 310.524 186.37 310.504C185.085 310.328 182.882 311.379 181.539 312.598C181.411 312.711 181.313 312.854 181.253 313.014C181.194 313.174 181.174 313.346 181.196 313.515C181.219 313.685 181.282 313.846 181.381 313.985C181.481 314.124 181.612 314.236 181.765 314.313C181.959 314.408 182.177 314.441 182.39 314.407C182.603 314.373 182.8 314.274 182.955 314.123C184.432 312.658 186.42 311.823 188.501 311.795Z" fill="#0A2B51"/>
<path d="M192.544 313.816C192.248 313.437 191.866 313.135 191.429 312.936C190.992 312.737 190.514 312.645 190.034 312.67C190.034 312.67 186.714 312.925 184.743 314.939C184.621 315.05 184.528 315.189 184.471 315.344C184.415 315.499 184.396 315.665 184.418 315.828C184.439 315.992 184.5 316.148 184.595 316.283C184.69 316.418 184.816 316.527 184.962 316.603C185.149 316.695 185.36 316.726 185.566 316.692C185.771 316.658 185.961 316.56 186.108 316.413C186.918 315.526 187.917 314.832 189.031 314.383C190.145 313.933 191.345 313.739 192.544 313.816Z" fill="#0A2B51"/>
<path d="M197.009 315.605C196.675 315.258 196.27 314.986 195.822 314.81C195.373 314.634 194.892 314.556 194.411 314.583C192.525 314.788 190.752 315.585 189.347 316.86C189.227 316.972 189.135 317.112 189.08 317.267C189.025 317.422 189.008 317.588 189.03 317.75C189.052 317.913 189.113 318.069 189.207 318.203C189.302 318.338 189.427 318.448 189.573 318.524C189.759 318.615 189.969 318.646 190.173 318.611C190.377 318.577 190.565 318.48 190.711 318.334C191.477 317.421 192.445 316.7 193.538 316.226C194.631 315.752 195.819 315.54 197.009 315.605Z" fill="#0A2B51"/>
<path d="M158.247 111.869C154.511 112.125 150.103 112.161 146.535 112.468C141.931 112.869 138.151 117.444 136.713 124.712C135.13 132.739 139.245 156.09 139.245 156.09L136.392 183.279C142.879 188.519 171.309 192.371 186.013 182.725C186.013 182.725 187.728 136.3 186.932 129.134C185.838 119.261 183.714 113.08 172.688 111.876L158.247 111.869Z" fill="#455A64"/>
<path d="M125.453 162.838C127.078 165.625 128.72 168.403 130.379 171.171C131.59 173.193 132.801 175.207 134.027 177.206C134.487 177.936 134.947 178.665 135.436 179.395C135.691 179.752 135.996 180.072 136.34 180.344C136.939 180.76 138.187 180.497 138.909 180.526C142.47 180.643 146.021 180.901 149.563 181.3C149.858 181.291 150.152 181.348 150.423 181.465C150.694 181.582 150.936 181.757 151.132 181.978C151.278 182.283 151.309 182.63 151.218 182.955C151.126 183.28 150.919 183.561 150.636 183.744C150.053 184.091 149.394 184.287 148.716 184.313L145.637 184.678C145.2 184.694 144.776 184.83 144.411 185.072C143.295 185.977 145.425 187.064 146.068 187.51C147.35 188.401 148.719 189.161 150.154 189.779C156.561 192.479 157.349 194.435 156.167 196.653C155.138 198.587 150.709 205.614 139.456 199.572C134.918 197.135 128.014 189.436 124.862 185.707C120.331 180.344 112.676 168.355 112.676 168.355L125.453 162.838Z" fill="#F0F0F0"/>
<path d="M146.571 112.467C133.218 112.657 133.991 115.138 124.731 128.652C117.244 139.598 108.889 150.864 106.488 157.687C105.846 159.512 116.332 175.573 122.323 182.374C127.511 182.133 131.364 177.207 132.627 174.828C131.05 171.829 125.505 160.271 125.505 160.271L139.625 141.152C139.625 141.152 145.2 136.511 146.696 129.922C148.432 122.084 147.732 114.284 146.571 112.467Z" fill="#37474F"/>
<path d="M150.177 89.6035C150.177 89.6035 153.059 99.2869 154.095 101.279C154.363 101.887 154.78 102.416 155.309 102.819C155.837 103.221 156.459 103.482 157.116 103.578L157.313 96.6234L150.177 89.6035Z" fill="#263238"/>
<path d="M155.54 74.266C154.412 73.8872 153.191 73.8906 152.066 74.2758C150.941 74.661 149.974 75.4065 149.315 76.3968C147.856 78.4181 147.345 83.0956 152.03 94.5959L156.197 90.4073L155.54 74.266Z" fill="#263238"/>
<path d="M156.992 90.4574C156.702 89.4256 156.137 88.4921 155.357 87.7574C154.386 86.7212 150.526 85.5683 148.79 88.8666C147.053 92.1649 150.001 96.4775 152.285 97.8056C155.204 99.5058 156.933 97.1853 156.933 97.1853L156.86 112.772C158.225 115.91 164.384 118.734 168.039 118.267C170.958 117.902 173.651 115.603 171.046 112.254L171.257 107.817C171.257 107.817 175.154 108.605 177.095 108.408C180.306 108.073 182.437 105.657 183.582 102.25C185.407 96.784 186.224 92.3327 185.443 81.3578C184.553 69.3321 170.652 68.5148 162.91 72.8712C155.167 77.2276 156.992 90.4574 156.992 90.4574Z" fill="#F0F0F0"/>
<path d="M190.048 69.0333C190.209 67.6176 190.209 66.0196 188.72 64.582C187.231 63.1445 184.612 63.4437 182.153 64.188C179.883 64.8666 177.22 66.3771 170.703 66.1436C167.325 66.005 162.903 65.3044 159.488 66.8733C155.606 68.6684 154.131 70.8649 153.854 73.5356C153.767 74.3894 154.584 75.0972 154.752 75.9364C155.026 76.6492 155.17 77.4056 155.175 78.1693C154.993 79.4974 154.701 80.8182 154.526 82.1463C154.338 83.4324 154.231 84.7289 154.204 86.0284C154.204 86.6486 154.642 87.0865 155.16 87.5462C155.9 88.2024 156.469 89.0289 156.817 89.9543C157.094 90.5161 157.364 91.9172 157.911 92.3039C159.59 93.4788 159.772 89.6697 159.86 88.94C159.958 87.2577 159.946 85.5709 159.823 83.8903C160.67 83.8777 161.505 83.6882 162.274 83.3338C163.043 82.9794 163.729 82.468 164.289 81.8325C164.874 81.124 165.259 80.2727 165.406 79.3661C165.5 78.8682 165.547 78.3623 165.544 77.8556C166.916 79.4901 169.507 79.8623 171.141 79.9134C173.25 79.979 175.308 79.0523 176.081 77.7972C176.708 78.7468 177.541 79.5425 178.519 80.125C180.212 80.9406 182.113 81.223 183.97 80.935C184.845 80.8016 185.675 80.4612 186.393 79.9421C187.11 79.423 187.692 78.7402 188.093 77.9504C188.514 77.0931 188.695 76.1375 188.617 75.1853C188.539 74.2331 188.204 73.32 187.647 72.5432C188.1 72.193 189.851 70.697 190.048 69.0333Z" fill="#263238"/>
<path d="M153.986 75.0022L149.315 72.1854C149.485 71.8699 149.716 71.592 149.996 71.3685C150.276 71.1449 150.598 70.9805 150.943 70.885C151.288 70.7895 151.649 70.765 152.004 70.8129C152.359 70.8608 152.7 70.9802 153.008 71.1638C153.633 71.5551 154.084 72.1722 154.266 72.8871C154.448 73.6019 154.348 74.3594 153.986 75.0022Z" fill="#263238"/>
<path d="M171.229 107.818C171.229 107.818 164.173 106.03 161.743 104.585C160.319 103.749 159.18 102.503 158.474 101.01C158.775 102.483 159.371 103.88 160.225 105.118C161.932 107.541 171.127 109.715 171.127 109.715L171.229 107.818Z" fill="#E0E0E0"/>
<path d="M170.835 89.9401C170.807 90.2388 170.693 90.5228 170.506 90.7571C170.318 90.9913 170.066 91.1654 169.781 91.2579C169.496 91.3503 169.189 91.3569 168.9 91.2769C168.611 91.197 168.352 91.0339 168.155 90.808C167.957 90.5821 167.831 90.3033 167.79 90.006C167.75 89.7088 167.798 89.4063 167.928 89.136C168.058 88.8656 168.264 88.6394 168.521 88.4853C168.779 88.3312 169.076 88.256 169.375 88.269C169.582 88.281 169.783 88.334 169.969 88.4249C170.154 88.5158 170.32 88.6427 170.456 88.7983C170.592 88.9539 170.695 89.135 170.76 89.331C170.825 89.5271 170.851 89.7341 170.835 89.9401Z" fill="#263238"/>
<path d="M169.565 84.6859L166.318 86.2766C166.113 85.8319 166.089 85.3254 166.249 84.8631C166.41 84.4007 166.743 84.0183 167.179 83.7956C167.393 83.6925 167.626 83.6338 167.864 83.6229C168.101 83.6121 168.338 83.6494 168.561 83.7325C168.784 83.8156 168.988 83.9429 169.16 84.1068C169.333 84.2706 169.47 84.4676 169.565 84.6859Z" fill="#263238"/>
<path d="M170.565 98.5488L175.104 100.512C174.989 100.818 174.813 101.098 174.588 101.335C174.362 101.571 174.09 101.76 173.789 101.889C173.489 102.018 173.165 102.084 172.838 102.085C172.511 102.085 172.187 102.019 171.886 101.891C171.275 101.614 170.795 101.111 170.549 100.487C170.302 99.8635 170.308 99.1684 170.565 98.5488Z" fill="#263238"/>
<path d="M183.692 86.0426L180.919 83.6929C181.063 83.5031 181.244 83.3447 181.451 83.2278C181.658 83.1109 181.888 83.0379 182.124 83.0132C182.361 82.9886 182.6 83.0129 182.827 83.0846C183.054 83.1564 183.264 83.274 183.444 83.4302C183.811 83.7518 184.041 84.2014 184.087 84.6871C184.133 85.1728 183.992 85.6577 183.692 86.0426Z" fill="#263238"/>
<path d="M182.861 89.626C182.856 89.8243 182.812 90.0198 182.731 90.2009C182.65 90.3821 182.534 90.5453 182.389 90.6812C182.244 90.817 182.074 90.9227 181.888 90.9921C181.702 91.0615 181.504 91.0932 181.306 91.0854C180.908 91.0536 180.538 90.8669 180.276 90.5653C180.014 90.2638 179.881 89.8715 179.905 89.4727C179.915 89.2811 179.963 89.0933 180.046 88.92C180.128 88.7468 180.244 88.5916 180.387 88.4632C180.529 88.3348 180.696 88.2357 180.877 88.1717C181.058 88.1076 181.25 88.0798 181.441 88.0899C181.633 88.1 181.821 88.1477 181.994 88.2303C182.167 88.313 182.322 88.4289 182.451 88.5715C182.579 88.7142 182.678 88.8807 182.742 89.0616C182.806 89.2425 182.834 89.4343 182.824 89.626H182.861Z" fill="#263238"/>
<path d="M175.549 87.873L175.593 97.1988L180.533 95.7905L175.549 87.873Z" fill="#E0E0E0"/>
<path d="M188.508 97.1133C188.416 97.1128 188.327 97.0761 188.26 97.0112C188.226 96.9772 188.199 96.9369 188.18 96.8924C188.162 96.848 188.152 96.8003 188.152 96.7521C188.152 96.7039 188.162 96.6563 188.18 96.6118C188.199 96.5673 188.226 96.527 188.26 96.4931L191.814 92.7788C191.847 92.7438 191.887 92.7157 191.931 92.696C191.975 92.6764 192.022 92.6656 192.07 92.6642C192.118 92.6629 192.166 92.671 192.211 92.6881C192.256 92.7053 192.297 92.7312 192.332 92.7642C192.367 92.7973 192.395 92.8369 192.415 92.8808C192.435 92.9248 192.445 92.9721 192.447 93.0202C192.448 93.0684 192.44 93.1163 192.423 93.1612C192.406 93.2062 192.38 93.2473 192.347 93.2823L188.778 96.9966C188.745 97.0353 188.704 97.0659 188.657 97.0861C188.61 97.1063 188.559 97.1156 188.508 97.1133Z" fill="#E0E0E0"/>
<path d="M189.355 98.8135C189.286 98.8122 189.218 98.7917 189.16 98.7543C189.102 98.7169 189.056 98.6642 189.026 98.6019C189.005 98.5584 188.993 98.5111 188.991 98.4629C188.988 98.4146 188.995 98.3663 189.012 98.3209C189.028 98.2754 189.053 98.2336 189.086 98.1979C189.118 98.1622 189.158 98.1334 189.201 98.113L193.842 95.9239C193.885 95.9028 193.932 95.8904 193.98 95.8874C194.028 95.8844 194.076 95.8909 194.122 95.9065C194.167 95.9221 194.209 95.9465 194.245 95.9783C194.281 96.01 194.31 96.0486 194.331 96.0917C194.352 96.1348 194.365 96.1817 194.368 96.2296C194.371 96.2775 194.364 96.3255 194.349 96.3709C194.333 96.4163 194.309 96.4582 194.277 96.4942C194.245 96.5302 194.207 96.5595 194.163 96.5806L189.515 98.7698C189.465 98.7956 189.411 98.8105 189.355 98.8135Z" fill="#E0E0E0"/>
<path d="M194.623 101.062H194.579L189.471 100.383C189.375 100.37 189.289 100.32 189.23 100.243C189.171 100.167 189.145 100.07 189.157 99.9742C189.172 99.8793 189.222 99.7937 189.299 99.7352C189.375 99.6767 189.471 99.6499 189.566 99.6604L194.674 100.339C194.77 100.352 194.857 100.402 194.915 100.479C194.974 100.555 195 100.652 194.988 100.748C194.974 100.835 194.93 100.914 194.863 100.972C194.796 101.029 194.711 101.061 194.623 101.062Z" fill="#E0E0E0"/>
</svg>
