<svg width="480" height="480" viewBox="0 0 480 480" fill="none" xmlns="http://www.w3.org/2000/svg">
<path d="M480 367.105H0V367.345H480V367.105Z" fill="#EBEBEB"/>
<path d="M372.912 374.314H341.117V374.554H372.912V374.314Z" fill="#EBEBEB"/>
<path d="M289.92 382.436H247.651V382.676H289.92V382.436Z" fill="#EBEBEB"/>
<path d="M416.871 383.223H373.882V383.463H416.871V383.223Z" fill="#EBEBEB"/>
<path d="M93.0044 374.074H51.542V374.314H93.0044V374.074Z" fill="#EBEBEB"/>
<path d="M107.635 374.074H101.559V374.314H107.635V374.074Z" fill="#EBEBEB"/>
<path d="M217.324 378.125H127.392V378.365H217.324V378.125Z" fill="#EBEBEB"/>
<path d="M227.52 324.289H42.1536C40.7015 324.286 39.3097 323.708 38.2838 322.68C37.2578 321.652 36.6816 320.259 36.6816 318.807V58.2344C36.6943 56.7906 37.2761 55.41 38.3006 54.3927C39.3252 53.3753 40.7098 52.8033 42.1536 52.8008H227.52C228.974 52.8008 230.368 53.3783 231.396 54.4063C232.424 55.4343 233.002 56.8286 233.002 58.2824V318.807C233.002 320.261 232.424 321.655 231.396 322.683C230.368 323.711 228.974 324.289 227.52 324.289ZM42.1536 52.9928C40.7651 52.9953 39.4344 53.5487 38.4535 54.5314C37.4726 55.5141 36.9216 56.8459 36.9216 58.2344V318.807C36.9216 320.196 37.4726 321.527 38.4535 322.51C39.4344 323.493 40.7651 324.046 42.1536 324.049H227.52C228.909 324.046 230.241 323.493 231.224 322.511C232.206 321.528 232.759 320.197 232.762 318.807V58.2344C232.759 56.845 232.206 55.5133 231.224 54.5308C230.241 53.5484 228.909 52.9953 227.52 52.9928H42.1536Z" fill="#EBEBEB"/>
<path d="M435.178 324.289H249.802C248.349 324.286 246.956 323.708 245.929 322.68C244.901 321.653 244.323 320.26 244.32 318.807V58.2344C244.335 56.7897 244.919 55.4092 245.945 54.3921C246.972 53.375 248.357 52.8032 249.802 52.8008H435.178C436.62 52.8058 438.002 53.3789 439.025 54.396C440.047 55.4131 440.628 56.7922 440.64 58.2344V318.807C440.64 320.258 440.065 321.649 439.042 322.676C438.018 323.704 436.628 324.284 435.178 324.289ZM249.802 52.9928C248.413 52.9953 247.081 53.5484 246.098 54.5308C245.116 55.5133 244.563 56.845 244.56 58.2344V318.807C244.563 320.197 245.116 321.528 246.098 322.511C247.081 323.493 248.413 324.046 249.802 324.049H435.178C436.567 324.046 437.899 323.493 438.881 322.511C439.864 321.528 440.417 320.197 440.42 318.807V58.2344C440.417 56.845 439.864 55.5133 438.881 54.5308C437.899 53.5484 436.567 52.9953 435.178 52.9928H249.802Z" fill="#EBEBEB"/>
<path d="M328.051 240.941H417.772V75.9846H328.051V240.941Z" fill="#E6E6E6"/>
<path d="M317.818 240.941H415.325V75.9846H317.818V240.941Z" fill="#F0F0F0"/>
<path d="M407.165 232.762V84.1445H325.997V232.762H407.165Z" fill="white"/>
<path d="M122.198 82.6562H51.542V164.775H122.198V82.6562Z" fill="#E0E0E0"/>
<path d="M126.422 82.6562H53.9326V164.775H126.422V82.6562Z" fill="#F5F5F5"/>
<path d="M120.346 158.305V89.127H60.0001L60.0001 158.305H120.346Z" fill="white"/>
<path d="M221.308 130.59H150.652V212.708H221.308V130.59Z" fill="#E0E0E0"/>
<path d="M225.533 130.59H153.043V212.708H225.533V130.59Z" fill="#F5F5F5"/>
<path d="M219.456 206.248V137.07H159.11V206.248H219.456Z" fill="white"/>
<path d="M180.912 281.098C180.432 281.098 179.952 281.098 179.453 281.146C176.39 281.365 173.414 282.259 170.736 283.762C168.059 285.266 165.747 287.343 163.965 289.844C162.184 292.346 160.978 295.21 160.432 298.232C159.887 301.253 160.016 304.359 160.81 307.325C163.085 316.179 164.182 325.294 164.074 334.435V361.066C164.074 361.525 164.165 361.981 164.341 362.405C164.517 362.83 164.775 363.215 165.101 363.54C165.426 363.865 165.813 364.122 166.238 364.297C166.663 364.472 167.118 364.561 167.578 364.56H252.058V281.098H180.912Z" fill="#F0F0F0"/>
<path d="M272.9 301.921C272.779 296.602 270.626 291.532 266.883 287.751C263.141 283.97 258.092 281.766 252.775 281.591C247.458 281.417 242.275 283.285 238.293 286.813C234.31 290.34 231.829 295.258 231.36 300.558C231.216 302.839 231.443 305.128 232.032 307.336C234.303 316.19 235.4 325.305 235.296 334.446V361.076C235.296 362.003 235.665 362.892 236.32 363.547C236.975 364.203 237.864 364.571 238.791 364.571H265.479C266.406 364.571 267.294 364.203 267.95 363.547C268.605 362.892 268.973 362.003 268.973 361.076V332.891C268.895 324.313 269.98 315.765 272.199 307.48C272.682 305.667 272.917 303.797 272.9 301.921Z" fill="#F5F5F5"/>
<path d="M223.401 313.893H147.542V364.571H223.401V313.893Z" fill="#F0F0F0"/>
<path d="M157.152 242.113H87.1297C78.4225 242.113 72.5089 249.169 73.9201 257.867L84.8449 325.345H186.384L175.459 257.867C174.048 249.169 165.85 242.113 157.152 242.113Z" fill="#EBEBEB"/>
<path d="M177.744 242.113H106.205C97.9205 242.113 92.2949 248.833 93.6389 257.108L104.688 325.345H206.218L195.168 257.108C193.824 248.833 186.029 242.113 177.744 242.113Z" fill="#F5F5F5"/>
<path d="M152.506 309.266H222.432C223.644 309.266 224.806 309.747 225.663 310.604C226.52 311.461 227.002 312.623 227.002 313.835V325.355C227.002 326.567 226.52 327.729 225.663 328.586C224.806 329.443 223.644 329.925 222.432 329.925H152.506C152.144 329.925 151.798 329.781 151.542 329.526C151.286 329.27 151.143 328.923 151.143 328.562V310.629C151.143 310.267 151.286 309.921 151.542 309.665C151.798 309.409 152.144 309.266 152.506 309.266Z" fill="#EBEBEB"/>
<path d="M77.3661 281.098C76.8861 281.098 76.4061 281.098 75.9069 281.146C70.8982 281.524 66.1936 283.695 62.655 287.26C59.1164 290.825 56.9809 295.545 56.6397 300.557C56.4956 302.838 56.7225 305.127 57.3117 307.334C59.5866 316.189 60.6841 325.304 60.5757 334.445V361.075C60.5757 362.002 60.9439 362.891 61.5992 363.546C62.2545 364.202 63.1433 364.57 64.0701 364.57H148.55V281.098H77.3661Z" fill="#F0F0F0"/>
<path d="M169.353 301.921C169.35 298.959 168.714 296.032 167.489 293.335C166.264 290.638 164.478 288.234 162.249 286.284C160.021 284.333 157.401 282.88 154.566 282.022C151.731 281.165 148.746 280.922 145.81 281.311C142.874 281.699 140.054 282.71 137.54 284.275C135.026 285.841 132.874 287.925 131.23 290.388C129.586 292.852 128.486 295.638 128.004 298.56C127.523 301.483 127.671 304.474 128.438 307.335C130.708 316.19 131.806 325.305 131.702 334.445V361.076C131.702 362.002 132.07 362.891 132.725 363.547C133.381 364.202 134.27 364.57 135.196 364.57H161.884C162.811 364.57 163.7 364.202 164.355 363.547C165.011 362.891 165.379 362.002 165.379 361.076V332.89C165.302 324.314 166.384 315.766 168.595 307.479C169.102 305.67 169.357 303.799 169.353 301.921Z" fill="#F5F5F5"/>
<path d="M250.56 367.105H78.8547C78.1825 367.105 77.5379 366.838 77.0626 366.362C76.5873 365.887 76.3203 365.242 76.3203 364.57H253.133C253.133 364.906 253.066 365.239 252.937 365.549C252.807 365.859 252.617 366.14 252.377 366.376C252.138 366.612 251.854 366.798 251.542 366.923C251.23 367.048 250.896 367.11 250.56 367.105Z" fill="#E0E0E0"/>
<path d="M435.591 328.043H394.272V331.432H435.591V328.043Z" fill="#E6E6E6"/>
<path d="M316.34 367.105H323.972V289.086H316.34V367.105Z" fill="#E6E6E6"/>
<path d="M289.92 331.441H394.272V328.053H289.92V331.441Z" fill="#F5F5F5"/>
<path d="M435.591 346.6H394.272V349.988H435.591V346.6Z" fill="#E6E6E6"/>
<path d="M289.92 349.988H394.272V346.599H289.92V349.988Z" fill="#F5F5F5"/>
<path d="M435.591 290.938H394.272V294.326H435.591V290.938Z" fill="#E6E6E6"/>
<path d="M289.92 294.336H394.272V290.947H289.92V294.336Z" fill="#F5F5F5"/>
<path d="M435.591 309.496H394.272V312.885H435.591V309.496Z" fill="#E6E6E6"/>
<path d="M289.92 312.885H394.272V309.496H289.92V312.885Z" fill="#F5F5F5"/>
<path d="M420.691 367.105H428.323V289.086H420.691V367.105Z" fill="#E6E6E6"/>
<path d="M386.64 367.105H394.272V289.086H386.64V367.105Z" fill="#F5F5F5"/>
<path d="M289.92 367.105H297.552V289.086H289.92V367.105Z" fill="#F5F5F5"/>
<path d="M364.973 288.174H369.053V242.679H364.973V288.174Z" fill="#E6E6E6"/>
<path d="M365.5 288.135H366.652V242.64H365.5V288.135Z" fill="#F0F0F0"/>
<path d="M351.898 290.938H382.08C382.08 289.919 381.676 288.943 380.956 288.222C380.235 287.502 379.259 287.098 378.24 287.098H355.709C354.691 287.098 353.714 287.502 352.994 288.222C352.274 288.943 351.869 289.919 351.869 290.938H351.898Z" fill="#F0F0F0"/>
<path d="M360.201 289.814H361.728C361.956 289.814 362.141 289.63 362.141 289.402V286.224C362.141 285.996 361.956 285.811 361.728 285.811H360.201C359.973 285.811 359.789 285.996 359.789 286.224V289.402C359.789 289.63 359.973 289.814 360.201 289.814Z" fill="#F0F0F0"/>
<path d="M348.739 253.441H385.286L381.792 224.295C381.597 222.649 380.806 221.131 379.567 220.029C378.329 218.927 376.73 218.317 375.072 218.314H358.973C357.316 218.321 355.719 218.933 354.482 220.034C353.244 221.135 352.452 222.651 352.253 224.295L348.739 253.441Z" fill="#F5F5F5"/>
<path d="M240 410.457C342.799 410.457 426.134 405.592 426.134 399.59C426.134 393.588 342.799 388.723 240 388.723C137.2 388.723 53.8652 393.588 53.8652 399.59C53.8652 405.592 137.2 410.457 240 410.457Z" fill="#F3F4F6"/>
<path d="M283.882 155.876L283.546 157.009L283.238 157.969C283.027 158.612 282.797 159.208 282.566 159.822C282.106 161.022 281.606 162.193 281.059 163.355C279.994 165.665 278.792 167.909 277.459 170.075C276.797 171.16 276.096 172.206 275.386 173.252C274.675 174.299 273.917 175.307 273.12 176.296C271.558 178.295 269.881 180.202 268.099 182.008L267.725 182.392C267.208 182.921 266.596 183.348 265.92 183.649C263.92 184.524 261.746 184.928 259.565 184.83C257.666 184.727 255.8 184.289 254.054 183.534C252.591 182.916 251.209 182.123 249.936 181.172C248.794 180.338 247.713 179.424 246.701 178.436C244.862 176.596 243.203 174.583 241.747 172.427C241.037 171.39 240.384 170.324 239.76 169.249C239.136 168.174 238.598 167.099 238.013 165.86C237.631 165.054 237.542 164.139 237.761 163.273C237.981 162.408 238.495 161.646 239.216 161.119C239.936 160.591 240.818 160.332 241.709 160.384C242.6 160.437 243.446 160.798 244.099 161.406L244.349 161.636L246.691 163.787C247.488 164.516 248.304 165.217 249.12 165.889C250.665 167.2 252.301 168.4 254.016 169.48C255.357 170.374 256.846 171.024 258.413 171.4C258.811 171.512 259.233 171.512 259.632 171.4C259.764 171.341 259.872 171.239 259.939 171.112L257.731 172.782C258.95 171.131 260.131 169.46 261.216 167.732C262.301 166.004 263.338 164.219 264.307 162.424C265.277 160.628 266.17 158.776 266.995 156.923C267.418 155.963 267.792 155.06 268.176 154.139L269.136 151.624L269.405 150.932C270.171 149.162 271.576 147.744 273.339 146.962C275.103 146.18 277.097 146.09 278.924 146.711C280.75 147.332 282.277 148.617 283.199 150.312C284.121 152.006 284.372 153.986 283.901 155.857L283.882 155.876Z" fill="#263238"/>
<path d="M240.73 165.907L234.24 163.651L232.877 154.762C232.877 154.762 243.754 157.642 243.706 162.883L240.73 165.907Z" fill="white"/>
<path d="M278.957 119.597C274.724 118.109 268.877 113.04 271.172 106.484C272.919 101.511 279.389 101.069 281.933 102.557C284.477 104.045 284.583 100.992 287.837 99.8212C291.092 98.65 293.386 101.597 295.037 103.143C296.689 104.688 298.618 103.517 301.066 103.623C303.514 103.728 305.261 106.935 303.898 109.277C301.498 113.386 305.463 115.997 302.458 119.204C298.033 123.86 301.498 128.429 295.258 133.066C291.466 135.908 280.695 130.695 278.957 119.597Z" fill="#263238"/>
<path d="M278.88 123.937C278.723 124.031 278.545 124.087 278.362 124.1C278.044 124.127 277.728 124.027 277.484 123.822C277.239 123.617 277.086 123.323 277.056 123.006C276.845 121.1 277.094 119.172 277.782 117.383C278.47 115.594 279.578 113.996 281.012 112.724C281.136 112.625 281.278 112.552 281.431 112.509C281.584 112.466 281.743 112.454 281.901 112.474C282.058 112.494 282.21 112.545 282.348 112.624C282.485 112.703 282.605 112.809 282.701 112.935C282.8 113.059 282.873 113.2 282.917 113.352C282.961 113.504 282.974 113.663 282.956 113.82C282.938 113.977 282.89 114.129 282.813 114.267C282.736 114.405 282.633 114.527 282.509 114.625C281.388 115.645 280.526 116.919 279.997 118.341C279.467 119.762 279.285 121.289 279.466 122.794C279.485 123.021 279.441 123.248 279.337 123.45C279.234 123.652 279.075 123.821 278.88 123.937Z" fill="#263238"/>
<path d="M271.978 146.276C271.978 146.276 263.463 168.068 271.546 208.676H310.148C310.417 202.753 306.692 173.847 312.404 145.93C308.136 145.11 303.82 144.564 299.482 144.298C294.018 143.981 288.54 143.981 283.076 144.298C279.331 144.666 275.62 145.327 271.978 146.276Z" fill="white"/>
<path d="M297.86 125.76C296.823 131.04 295.796 140.717 299.482 144.24C299.482 144.24 293.3 149.251 286.801 154.32C285.364 153.102 284.267 151.535 283.614 149.769C282.962 148.003 282.776 146.098 283.076 144.24C288.961 142.838 288.836 138.48 287.789 134.361L297.86 125.76Z" fill="white"/>
<path opacity="0.2" d="M293.76 129.303L287.799 134.391C288.053 135.334 288.224 136.298 288.308 137.271C290.228 139.095 293.645 134.477 293.885 132.125C294.012 131.184 293.97 130.229 293.76 129.303Z" fill="black"/>
<path d="M297.792 116.88C298.061 124.042 298.579 128.218 295.354 132.24C290.486 138.269 281.385 135.879 278.985 128.938C276.825 122.698 276.749 112.042 283.44 108.528C284.908 107.746 286.551 107.352 288.214 107.383C289.878 107.414 291.505 107.869 292.943 108.706C294.381 109.542 295.581 110.732 296.429 112.163C297.278 113.594 297.747 115.218 297.792 116.88Z" fill="white"/>
<path d="M297.6 123.505C295.632 127.345 293.367 115.201 293.943 113.175C286.983 115.095 276.307 114.461 277.133 109.604C278.093 104.122 284.467 103.911 291.533 104.583C303.197 105.706 299.731 119.338 297.6 123.505Z" fill="#263238"/>
<path d="M294.154 124.185C293.973 124.196 293.792 124.163 293.626 124.089C293.48 124.026 293.349 123.934 293.238 123.819C293.128 123.705 293.042 123.57 292.984 123.422C292.926 123.274 292.897 123.116 292.901 122.957C292.904 122.798 292.938 122.641 293.002 122.496C293.728 120.722 294.869 119.149 296.329 117.908C297.789 116.667 299.525 115.794 301.392 115.363C301.704 115.307 302.025 115.376 302.286 115.556C302.547 115.736 302.726 116.011 302.784 116.323C302.835 116.634 302.764 116.953 302.585 117.212C302.406 117.472 302.133 117.652 301.824 117.715C300.347 118.08 298.978 118.793 297.832 119.795C296.687 120.797 295.798 122.059 295.239 123.475C295.147 123.686 294.995 123.866 294.803 123.992C294.61 124.118 294.384 124.185 294.154 124.185Z" fill="#263238"/>
<path d="M301.364 121.92C300.985 123.645 299.988 125.172 298.56 126.212C296.688 127.517 295.21 125.914 295.258 123.658C295.306 121.632 296.343 118.522 298.436 118.119C300.528 117.716 301.834 119.799 301.364 121.92Z" fill="white"/>
<path d="M267.629 390.116C266.736 390.337 265.843 390.424 265.459 390.116C265.361 390.026 265.293 389.907 265.266 389.776C265.238 389.645 265.252 389.509 265.305 389.387C265.338 389.277 265.393 389.174 265.468 389.087C265.542 388.999 265.634 388.928 265.737 388.878C266.822 388.273 269.577 389.06 269.702 389.099C269.738 389.108 269.769 389.128 269.792 389.157C269.814 389.185 269.826 389.221 269.826 389.257C269.826 389.294 269.814 389.329 269.792 389.358C269.769 389.387 269.738 389.407 269.702 389.416C269.033 389.708 268.339 389.943 267.629 390.116ZM266.208 389.032C266.101 389.057 265.998 389.095 265.901 389.147C265.837 389.177 265.781 389.22 265.735 389.273C265.689 389.326 265.654 389.387 265.632 389.454C265.555 389.694 265.632 389.78 265.68 389.828C266.112 390.203 267.878 389.78 269.136 389.272C268.184 389.004 267.19 388.923 266.208 389.032Z" fill="#263238"/>
<path d="M269.693 389.396H269.626C268.666 389.233 266.669 388.129 266.611 387.304C266.611 387.112 266.679 386.843 267.12 386.689C267.435 386.581 267.78 386.602 268.08 386.747C269.136 387.256 269.76 389.099 269.789 389.176C269.805 389.202 269.814 389.231 269.814 389.262C269.814 389.293 269.805 389.322 269.789 389.348C269.762 389.374 269.729 389.39 269.693 389.396ZM267.331 386.977H267.235C266.938 387.073 266.947 387.198 266.957 387.236C266.957 387.736 268.397 388.638 269.376 388.945C269.114 388.173 268.617 387.502 267.955 387.025C267.759 386.94 267.539 386.923 267.331 386.977Z" fill="#263238"/>
<path d="M280.186 391.681L272.957 392.747L273.187 376.177L280.416 375.121L280.186 391.681Z" fill="#CE7A63"/>
<path d="M271.873 388.465H281.348C281.487 388.461 281.623 388.509 281.73 388.6C281.836 388.69 281.905 388.816 281.924 388.955L282.884 395.339C282.903 395.499 282.888 395.661 282.84 395.815C282.791 395.969 282.711 396.111 282.604 396.231C282.497 396.352 282.366 396.448 282.219 396.515C282.072 396.581 281.912 396.615 281.751 396.615C278.919 396.567 274.849 396.404 271.287 396.404C267.13 396.404 263.396 396.625 258.519 396.625C255.572 396.625 255.025 393.831 256.244 393.38C261.697 391.335 264.615 390.99 270.135 389.022C270.68 388.741 271.267 388.553 271.873 388.465Z" fill="#263238"/>
<path opacity="0.2" d="M273.187 376.187L273.062 384.721L280.301 383.656L280.426 375.121L273.187 376.187Z" fill="black"/>
<path d="M276.48 388.972C276.432 385.91 277.392 380.985 269.76 384C265.21 385.785 271.383 391.036 271.383 391.036L276.48 388.972Z" fill="#263238"/>
<path d="M271.546 208.648C271.546 208.648 267.706 266.795 268.791 287.473C269.847 307.067 270.442 362.651 270.576 377.233C270.582 377.677 270.681 378.114 270.869 378.516C271.056 378.918 271.326 379.276 271.662 379.565C271.998 379.855 272.392 380.07 272.817 380.196C273.242 380.322 273.689 380.356 274.128 380.296L279.236 379.605C279.917 379.512 280.55 379.197 281.035 378.71C281.521 378.223 281.833 377.589 281.924 376.907C285.226 351.169 289.152 311.464 290.007 290.209C290.967 265.95 296.938 208.609 296.938 208.609L271.546 208.648Z" fill="#0A2B51"/>
<path opacity="0.2" d="M271.546 208.648C271.546 208.648 267.706 266.795 268.791 287.473C269.847 307.067 270.442 362.651 270.576 377.233C270.582 377.677 270.681 378.114 270.869 378.516C271.056 378.918 271.326 379.276 271.662 379.565C271.998 379.855 272.392 380.07 272.817 380.196C273.242 380.322 273.689 380.356 274.128 380.296L279.236 379.605C279.917 379.512 280.55 379.197 281.035 378.71C281.521 378.223 281.833 377.589 281.924 376.907C285.226 351.169 289.152 311.464 290.007 290.209C290.967 265.95 296.938 208.609 296.938 208.609L271.546 208.648Z" fill="#263238"/>
<path d="M319.738 389.166C318.903 389.54 318.039 389.79 317.598 389.531C317.485 389.461 317.397 389.358 317.347 389.235C317.297 389.113 317.287 388.978 317.319 388.849C317.33 388.733 317.365 388.621 317.423 388.52C317.481 388.418 317.56 388.331 317.655 388.264C318.615 387.476 321.495 387.764 321.591 387.774C321.626 387.777 321.66 387.79 321.688 387.812C321.715 387.835 321.735 387.865 321.745 387.899C321.752 387.932 321.749 387.967 321.737 388C321.726 388.032 321.705 388.06 321.678 388.081C321.065 388.5 320.416 388.863 319.738 389.166ZM318.145 388.35C318.046 388.398 317.953 388.455 317.866 388.523C317.807 388.563 317.758 388.616 317.721 388.677C317.685 388.738 317.662 388.807 317.655 388.878C317.655 389.118 317.713 389.204 317.77 389.233C318.26 389.531 319.921 388.792 321.073 388.081C320.089 387.981 319.094 388.073 318.145 388.35Z" fill="#263238"/>
<path d="M321.6 388.1C320.64 388.1 318.471 387.38 318.269 386.574C318.221 386.391 318.269 386.113 318.663 385.882C318.806 385.799 318.966 385.745 319.131 385.725C319.296 385.706 319.463 385.72 319.623 385.767C320.756 386.084 321.706 387.774 321.744 387.85C321.759 387.877 321.766 387.907 321.766 387.937C321.766 387.967 321.759 387.997 321.744 388.023C321.727 388.045 321.705 388.063 321.68 388.076C321.655 388.089 321.628 388.097 321.6 388.1ZM318.845 386.18H318.759C318.49 386.334 318.519 386.449 318.528 386.487C318.653 386.967 320.199 387.61 321.216 387.745C320.823 387.027 320.216 386.449 319.479 386.094C319.281 386.041 319.071 386.058 318.884 386.142L318.845 386.18Z" fill="#263238"/>
<path d="M332.794 388.522L325.978 390.836L321.456 374.814L328.262 372.5L332.794 388.522Z" fill="#CE7A63"/>
<path opacity="0.2" d="M289.46 229.441C287.473 237.4 288.001 270.472 290.055 289.115C290.545 278.2 291.927 261.371 293.329 245.915L289.46 229.441Z" fill="black"/>
<path d="M323.357 386.947L332.688 385.267C332.827 385.24 332.972 385.262 333.097 385.331C333.222 385.399 333.318 385.509 333.37 385.642L335.818 391.69C335.877 391.837 335.903 391.995 335.893 392.153C335.884 392.312 335.838 392.466 335.761 392.604C335.683 392.742 335.576 392.861 335.446 392.952C335.316 393.043 335.168 393.104 335.011 393.13C332.218 393.591 328.166 394.147 324.662 394.781C320.573 395.52 320.544 395.741 315.744 396.624C312.864 397.152 311.626 394.531 312.71 393.869C317.587 390.912 316.79 390.711 321.744 387.811C322.227 387.431 322.773 387.139 323.357 386.947Z" fill="#263238"/>
<path opacity="0.2" d="M321.456 374.823L323.789 383.079L330.605 380.766L328.272 372.51L321.456 374.823Z" fill="black"/>
<path d="M285.245 208.648C285.245 208.648 290.218 266.805 294.048 287.473C297.735 307.365 314.41 364.024 319.325 376.897C319.611 377.649 320.176 378.261 320.902 378.606C321.628 378.952 322.459 379.003 323.223 378.75L328.148 377.147C328.871 376.911 329.484 376.419 329.871 375.763C330.258 375.107 330.393 374.333 330.25 373.585C325.354 348.309 317.559 311.368 315.62 290.209C313.402 265.95 310.148 208.609 310.148 208.609L285.245 208.648Z" fill="#0A2B51"/>
<path opacity="0.2" d="M285.245 208.648C285.245 208.648 290.218 266.805 294.048 287.473C297.735 307.365 314.41 364.024 319.325 376.897C319.611 377.649 320.176 378.261 320.902 378.606C321.628 378.952 322.459 379.003 323.223 378.75L328.148 377.147C328.871 376.911 329.484 376.419 329.871 375.763C330.258 375.107 330.393 374.333 330.25 373.585C325.354 348.309 317.559 311.368 315.62 290.209C313.402 265.95 310.148 208.609 310.148 208.609L285.245 208.648Z" fill="#263238"/>
<path d="M287.203 119.933C287.261 120.519 287.001 121.018 286.617 121.057C286.233 121.095 285.888 120.653 285.83 120.097C285.773 119.54 286.032 119.021 286.416 118.983C286.8 118.945 287.145 119.357 287.203 119.933Z" fill="#263238"/>
<path d="M280.656 120.585C280.714 121.161 280.455 121.661 280.071 121.699C279.687 121.737 279.341 121.296 279.283 120.739C279.226 120.182 279.485 119.654 279.869 119.616C280.253 119.577 280.599 120 280.656 120.585Z" fill="#263238"/>
<path d="M282.769 120.662C282.252 122.503 281.483 124.264 280.484 125.894C280.909 126.137 281.382 126.285 281.869 126.326C282.357 126.368 282.847 126.302 283.307 126.134L282.769 120.662Z" fill="#263238"/>
<path d="M285.12 127.575C285.076 127.578 285.032 127.563 284.998 127.534C284.964 127.506 284.943 127.465 284.938 127.421C284.935 127.398 284.937 127.375 284.943 127.353C284.95 127.331 284.96 127.311 284.974 127.293C284.989 127.275 285.006 127.26 285.026 127.249C285.047 127.238 285.069 127.232 285.091 127.229C285.813 127.176 286.512 126.952 287.131 126.577C287.75 126.201 288.272 125.685 288.653 125.069C288.673 125.029 288.709 124.998 288.752 124.983C288.795 124.969 288.843 124.972 288.883 124.992C288.922 125.015 288.951 125.05 288.966 125.093C288.98 125.135 288.978 125.182 288.96 125.223C288.555 125.893 287.995 126.457 287.327 126.866C286.658 127.276 285.902 127.519 285.12 127.575Z" fill="#263238"/>
<path d="M288.96 117.629C288.907 117.633 288.854 117.626 288.805 117.608C288.755 117.59 288.71 117.561 288.672 117.523C288.394 117.192 288.04 116.932 287.641 116.766C287.242 116.599 286.809 116.529 286.378 116.563C286.289 116.578 286.198 116.556 286.124 116.504C286.051 116.452 286.001 116.374 285.984 116.285C285.976 116.241 285.977 116.195 285.986 116.152C285.996 116.108 286.014 116.066 286.04 116.029C286.066 115.993 286.099 115.962 286.137 115.938C286.176 115.914 286.218 115.898 286.263 115.891C286.797 115.835 287.338 115.908 287.839 116.103C288.34 116.299 288.787 116.611 289.143 117.015C289.176 117.046 289.203 117.084 289.221 117.126C289.239 117.168 289.248 117.214 289.248 117.259C289.248 117.305 289.239 117.351 289.221 117.393C289.203 117.435 289.176 117.473 289.143 117.504C289.095 117.563 289.032 117.606 288.96 117.629Z" fill="#263238"/>
<path d="M277.489 118.551C277.438 118.561 277.386 118.561 277.335 118.551C277.253 118.513 277.189 118.445 277.157 118.361C277.124 118.276 277.126 118.183 277.162 118.1C277.37 117.6 277.695 117.157 278.109 116.808C278.523 116.459 279.015 116.214 279.543 116.093C279.59 116.077 279.641 116.071 279.691 116.076C279.741 116.081 279.789 116.097 279.832 116.122C279.875 116.148 279.913 116.182 279.941 116.224C279.97 116.265 279.989 116.312 279.997 116.361C280.006 116.411 280.003 116.462 279.99 116.51C279.977 116.559 279.954 116.604 279.921 116.642C279.889 116.68 279.849 116.711 279.803 116.733C279.758 116.754 279.708 116.765 279.658 116.765C279.241 116.867 278.854 117.066 278.528 117.347C278.203 117.627 277.949 117.981 277.786 118.378C277.757 118.431 277.714 118.475 277.661 118.506C277.609 118.536 277.549 118.552 277.489 118.551Z" fill="#263238"/>
<path d="M300.48 143.041C304.244 143.041 313.316 143.243 314.199 146.603C315.082 149.963 314.113 155.406 312.913 158.603C314.679 163.479 314.113 170.679 312.433 172.926C314.276 178.359 313.076 182.363 311.953 184.283C312.836 186.443 313.633 192.606 312.279 195.639C313.393 199.959 314.669 207.159 312.673 208.609C309.956 210.529 302.727 211.489 297.62 210.279C292.512 209.07 294.519 198.759 294.913 196.359C292.676 193.403 295.076 184.523 295.076 184.523C293.952 182.046 295.633 172.763 295.633 172.763C294.279 170.526 296.036 158.363 296.036 158.363C294.576 155.924 293.943 143.041 300.48 143.041Z" fill="#263238"/>
<path d="M272.841 145.277C275.798 143.972 285.705 141.601 283.785 144.212C281.001 148.004 282.71 151.997 281.059 156.692C282.518 161.175 282.019 168.5 280.665 171.092C281.867 174.852 281.745 178.911 280.32 182.593C281.04 184.513 281.702 190.532 280.579 193.873C281.539 197.943 282.269 206.151 280.579 208.004C279.363 209.344 277.751 210.26 275.978 210.621C274.205 210.982 272.363 210.768 270.72 210.01C268.368 209.05 267.321 201.197 268.483 198.49C266.198 193.508 268.061 186.125 268.061 186.125C265.853 182.285 267.561 174.231 267.561 174.231C265.373 167.089 268.061 159.188 268.061 159.188C266.88 157.047 268.128 147.361 272.841 145.277Z" fill="#263238"/>
<path d="M279.36 146.161C278.967 145.869 278.647 145.49 278.426 145.054C278.204 144.617 278.087 144.135 278.084 143.646C278.076 143.317 278.133 142.991 278.253 142.685C278.372 142.379 278.55 142.1 278.778 141.864C279.005 141.627 279.277 141.438 279.579 141.307C279.88 141.176 280.203 141.107 280.532 141.102C281.656 141.195 282.748 141.522 283.738 142.062C285.245 142.801 285.802 143.482 285.869 144.596C285.936 145.71 283.191 149.626 281.684 148.695C280.176 147.764 280.205 147.121 279.36 146.161Z" fill="#263238"/>
<path opacity="0.2" d="M308.486 159.889C309.235 156.654 311.136 156.942 313.027 158.267L312.893 158.641C314.659 163.518 314.093 170.718 312.413 172.964C312.518 173.271 312.614 173.579 312.701 173.924C310.349 171.62 307.085 165.995 308.486 159.889Z" fill="black"/>
<path d="M308.813 167.789L302.429 170.707L301.805 191.328L284.458 202.503L303.879 209.472L309.149 229.411L315.543 226.503L319.114 193.978L308.813 167.789Z" fill="#0A2B51"/>
<path opacity="0.3" d="M308.813 167.789L302.429 170.707L301.805 191.328L284.458 202.503L303.879 209.472L309.149 229.411L315.543 226.503L319.114 193.978L308.813 167.789Z" fill="black"/>
<path d="M348.769 211.334L342.375 214.253L321.773 213.101L330.394 207.283L348.769 211.334Z" fill="#0A2B51"/>
<path opacity="0.3" d="M348.769 211.334L342.375 214.253L321.773 213.101L330.394 207.283L348.769 211.334Z" fill="black"/>
<path d="M308.813 167.789L324.807 180.826L344.612 175.047L337.152 194.285L348.768 211.335L328.167 210.183L315.543 226.503L310.263 206.554L290.852 199.584L308.189 188.41L308.813 167.789Z" fill="#A1FFA1"/>
<path d="M318.864 208.782L318.72 215.301L326.4 214.869C326.4 214.869 327.437 210.789 323.021 207.947L318.864 208.782Z" fill="white"/>
<path d="M321.187 221.827L326.505 218.765L326.409 214.867L318.72 215.299L321.187 221.827Z" fill="white"/>
<path d="M314.458 146.41C315.082 146.986 315.552 147.427 316.071 147.936C316.589 148.445 317.031 148.896 317.568 149.434C318.528 150.442 319.488 151.479 320.448 152.525C322.326 154.673 324.091 156.916 325.738 159.245C327.478 161.679 329.022 164.247 330.355 166.925C331.961 170.026 332.989 173.393 333.389 176.861C333.448 177.374 333.477 177.89 333.475 178.407V179.213V179.77L333.312 181.949C333.139 183.379 332.967 184.829 332.727 186.183C332.282 188.921 331.699 191.635 330.979 194.314C329.599 199.581 327.768 204.72 325.507 209.674C325.139 210.508 324.485 211.184 323.663 211.58C322.841 211.976 321.905 212.067 321.023 211.836C320.141 211.605 319.369 211.067 318.847 210.319C318.325 209.571 318.086 208.662 318.173 207.754V207.6C318.586 202.531 319.133 197.367 319.411 192.355C319.603 189.84 319.68 187.354 319.738 184.925C319.738 183.706 319.738 182.515 319.738 181.325L319.661 179.597V179.175V178.992C319.641 178.856 319.612 178.721 319.575 178.589C319.076 176.9 318.353 175.286 317.424 173.789C316.255 171.875 314.972 170.031 313.584 168.269C312.135 166.426 310.579 164.592 308.967 162.787C308.16 161.885 307.325 161.002 306.499 160.109L305.251 158.794L304.071 157.575L303.879 157.373C302.51 155.933 301.752 154.018 301.766 152.031C301.779 150.043 302.562 148.139 303.951 146.717C305.339 145.295 307.224 144.467 309.21 144.406C311.197 144.345 313.129 145.056 314.602 146.391L314.458 146.41Z" fill="#263238"/>
<path d="M303.361 145.315C304.321 145.181 304.57 142.934 303.802 141.475C303.178 140.275 300.922 140.438 298.906 140.957C297.284 141.318 295.731 141.941 294.308 142.8C292.273 143.923 293.012 145.277 293.482 146.342C293.953 147.408 294.845 149.856 296.765 148.56C298.685 147.264 302.017 145.517 303.361 145.315Z" fill="#263238"/>
<path d="M327.571 386.525C327.427 383.462 328.234 378.518 320.698 381.725C316.195 383.645 322.521 388.713 322.521 388.713L327.571 386.525Z" fill="#263238"/>
<path d="M233.184 147.84H243.495C243.781 147.851 244.058 147.948 244.288 148.12C244.517 148.291 244.69 148.529 244.781 148.8L250.176 168C250.211 168.112 250.219 168.231 250.199 168.346C250.18 168.462 250.133 168.571 250.062 168.665C249.992 168.759 249.9 168.834 249.795 168.886C249.69 168.937 249.573 168.963 249.456 168.96H239.136C238.852 168.946 238.579 168.846 238.351 168.675C238.124 168.504 237.953 168.269 237.859 168L232.464 148.8C232.427 148.688 232.417 148.569 232.436 148.453C232.455 148.336 232.502 148.226 232.573 148.132C232.643 148.037 232.736 147.961 232.843 147.911C232.949 147.86 233.066 147.836 233.184 147.84Z" fill="#A1FFA1"/>
<path d="M238.8 160.78L236.64 153.264L232.877 154.761L234.24 163.651L238.8 160.78Z" fill="white"/>
<path opacity="0.3" d="M244.321 148.531C244.422 148.537 244.519 148.575 244.598 148.638C244.677 148.702 244.734 148.789 244.762 148.886L250.167 168C250.184 168.04 250.19 168.083 250.185 168.125C250.18 168.168 250.164 168.208 250.139 168.243C250.114 168.278 250.081 168.305 250.042 168.323C250.003 168.341 249.96 168.349 249.917 168.346C249.817 168.342 249.72 168.306 249.641 168.244C249.562 168.182 249.504 168.097 249.476 168L244.09 148.858C244.08 148.821 244.078 148.782 244.085 148.745C244.092 148.707 244.106 148.671 244.128 148.64C244.151 148.609 244.179 148.583 244.212 148.564C244.246 148.545 244.282 148.534 244.321 148.531Z" fill="black"/>
<path d="M117.667 73.248H110.399V74.208H117.667V73.248Z" fill="#0A2B51"/>
<path d="M83.5196 84.1344H82.5596C82.5621 81.2563 83.7032 78.496 85.7339 76.4563C87.7646 74.4166 90.5198 73.2633 93.398 73.248H106.454V74.208H93.398C90.7744 74.2233 88.2634 75.2755 86.4127 77.1351C84.5621 78.9948 83.5221 81.5109 83.5196 84.1344Z" fill="#0A2B51"/>
<path d="M206.745 76.6074H93.3977C89.2462 76.6074 85.8809 79.9728 85.8809 84.1242V102.787C85.8809 106.938 89.2462 110.303 93.3977 110.303H206.745C210.896 110.303 214.262 106.938 214.262 102.787V84.1242C214.262 79.9728 210.896 76.6074 206.745 76.6074Z" fill="#0A2B51"/>
<path d="M134.736 88.377L136.387 91.7178L140.083 92.2554L137.405 94.857L138.038 98.5434L134.736 96.8058L131.433 98.5434L132.067 94.857L129.389 92.2554L133.085 91.7178L134.736 88.377Z" fill="white"/>
<path d="M149.731 88.377L151.382 91.7178L155.078 92.2554L152.4 94.857L153.033 98.5434L149.731 96.8058L146.429 98.5434L147.062 94.857L144.384 92.2554L148.08 91.7178L149.731 88.377Z" fill="white"/>
<path d="M164.726 88.377L166.377 91.7178L170.073 92.2554L167.405 94.857L168.029 98.5434L164.726 96.8058L161.424 98.5434L162.057 94.857L159.379 92.2554L163.075 91.7178L164.726 88.377Z" fill="white"/>
<path d="M179.721 88.377L181.372 91.7178L185.068 92.2554L182.4 94.857L183.024 98.5434L179.721 96.8058L176.419 98.5434L177.052 94.857L174.374 92.2554L178.07 91.7178L179.721 88.377Z" fill="white"/>
<path opacity="0.3" d="M194.716 90.5467L195.503 92.1499C195.574 92.2891 195.677 92.409 195.804 92.4993C195.931 92.5897 196.078 92.6477 196.233 92.6683L197.999 92.9275L196.723 94.1755C196.611 94.2834 196.528 94.4166 196.48 94.5637C196.431 94.7108 196.419 94.8675 196.444 95.0203L196.742 96.7867L195.167 95.9995C195.026 95.9319 194.872 95.8959 194.716 95.8939C194.563 95.8933 194.411 95.9295 194.275 95.9995L192.691 96.8347L192.959 95.0395C192.985 94.8867 192.972 94.73 192.924 94.5829C192.875 94.4358 192.792 94.3026 192.681 94.1947L191.404 92.9467L193.171 92.6875C193.33 92.6689 193.481 92.6108 193.612 92.5186C193.743 92.4264 193.848 92.303 193.919 92.1595L194.707 90.5563M194.707 88.3867L193.055 91.7275L189.359 92.2651L192.038 94.8763L191.404 98.5531L194.707 96.8155L198.009 98.5531L197.375 94.8763L200.054 92.2651L196.358 91.7275L194.707 88.3867Z" fill="white"/>
<path opacity="0.2" d="M109.295 104.985C115.663 104.985 120.825 99.823 120.825 93.4554C120.825 87.0878 115.663 81.9258 109.295 81.9258C102.928 81.9258 97.7656 87.0878 97.7656 93.4554C97.7656 99.823 102.928 104.985 109.295 104.985Z" fill="white"/>
<path d="M118.819 93.4553C118.822 95.5737 118.117 97.6323 116.817 99.3049C115.517 100.977 113.696 102.168 111.642 102.689C109.588 103.209 107.42 103.029 105.48 102.177C103.541 101.325 101.941 99.8505 100.934 97.9865C100.174 96.5977 99.7772 95.0387 99.7823 93.4553C99.8608 90.9831 100.898 88.6385 102.675 86.9176C104.451 85.1967 106.827 84.2344 109.301 84.2344C111.774 84.2344 114.15 85.1967 115.927 86.9176C117.703 88.6385 118.741 90.9831 118.819 93.4553Z" fill="white"/>
<path d="M117.666 97.9865C116.853 99.4967 115.645 100.758 114.172 101.638C112.699 102.517 111.016 102.982 109.3 102.982C107.584 102.982 105.901 102.517 104.428 101.638C102.955 100.758 101.747 99.4967 100.934 97.9865C103.411 96.3334 106.322 95.4512 109.3 95.4512C112.278 95.4512 115.189 96.3334 117.666 97.9865Z" fill="#263238"/>
<path d="M113.539 90.2393C113.539 91.0785 113.29 91.8989 112.824 92.5967C112.358 93.2945 111.695 93.8383 110.92 94.1595C110.144 94.4807 109.291 94.5647 108.468 94.401C107.645 94.2372 106.889 93.8331 106.296 93.2397C105.702 92.6463 105.298 91.8902 105.134 91.0671C104.971 90.244 105.055 89.3908 105.376 88.6155C105.697 87.8401 106.241 87.1775 106.939 86.7112C107.636 86.245 108.457 85.9961 109.296 85.9961C110.421 85.9961 111.501 86.4431 112.296 87.2389C113.092 88.0347 113.539 89.1139 113.539 90.2393Z" fill="#FFC3BD"/>
<path d="M198.93 193.709H179.721V194.669H198.93V193.709Z" fill="#0A2B51"/>
<path d="M206.745 157.613H93.3977C89.2462 157.613 85.8809 160.979 85.8809 165.13V183.792C85.8809 187.944 89.2462 191.309 93.3977 191.309H206.745C210.896 191.309 214.262 187.944 214.262 183.792V165.13C214.262 160.979 210.896 157.613 206.745 157.613Z" fill="#0A2B51"/>
<path d="M134.736 169.373L136.387 172.723L140.083 173.251L137.405 175.863L138.038 179.539L134.736 177.802L131.433 179.539L132.067 175.863L129.389 173.251L133.085 172.723L134.736 169.373Z" fill="#A1FFA1"/>
<path d="M149.731 169.373L151.382 172.723L155.078 173.251L152.4 175.863L153.033 179.539L149.731 177.802L146.429 179.539L147.062 175.863L144.384 173.251L148.08 172.723L149.731 169.373Z" fill="#A1FFA1"/>
<path d="M164.726 169.373L166.377 172.723L170.073 173.251L167.405 175.863L168.029 179.539L164.726 177.802L161.424 179.539L162.057 175.863L159.379 173.251L163.075 172.723L164.726 169.373Z" fill="#A1FFA1"/>
<path d="M179.721 169.373L181.372 172.723L185.068 173.251L182.4 175.863L183.024 179.539L179.721 177.802L176.419 179.539L177.052 175.863L174.374 173.251L178.07 172.723L179.721 169.373Z" fill="#A1FFA1"/>
<path d="M194.716 169.373L196.368 172.723L200.064 173.251L197.395 175.863L198.019 179.539L194.716 177.802L191.414 179.539L192.048 175.863L189.369 173.251L193.065 172.723L194.716 169.373Z" fill="#A1FFA1"/>
<path opacity="0.2" d="M117.455 182.612C121.958 178.109 121.958 170.809 117.455 166.306C112.952 161.804 105.652 161.804 101.15 166.306C96.6471 170.809 96.6471 178.109 101.15 182.612C105.652 187.114 112.952 187.114 117.455 182.612Z" fill="white"/>
<path d="M118.819 174.451C118.824 176.571 118.121 178.631 116.821 180.305C115.522 181.979 113.701 183.172 111.647 183.693C109.593 184.215 107.423 184.035 105.483 183.184C103.542 182.332 101.941 180.857 100.934 178.992C100.174 177.6 99.7773 176.038 99.7823 174.451C99.8608 171.979 100.898 169.635 102.675 167.914C104.451 166.193 106.827 165.23 109.301 165.23C111.774 165.23 114.15 166.193 115.927 167.914C117.703 169.635 118.741 171.979 118.819 174.451Z" fill="white"/>
<path opacity="0.5" d="M117.666 178.992C116.85 180.5 115.642 181.759 114.169 182.636C112.697 183.514 111.014 183.977 109.3 183.977C107.586 183.977 105.903 183.514 104.431 182.636C102.958 181.759 101.75 180.5 100.934 178.992C103.411 177.339 106.322 176.457 109.3 176.457C112.278 176.457 115.189 177.339 117.666 178.992Z" fill="#0A2B51"/>
<path d="M113.539 171.196C113.541 172.036 113.294 172.857 112.829 173.557C112.364 174.256 111.702 174.801 110.926 175.124C110.151 175.446 109.298 175.532 108.474 175.369C107.65 175.206 106.893 174.803 106.299 174.21C105.705 173.617 105.299 172.861 105.135 172.037C104.97 171.214 105.054 170.36 105.375 169.585C105.696 168.809 106.24 168.145 106.938 167.679C107.636 167.212 108.456 166.963 109.296 166.963C110.42 166.963 111.497 167.409 112.293 168.202C113.088 168.996 113.537 170.073 113.539 171.196Z" fill="#FFB573"/>
<path d="M206.745 117.111H93.3977C89.2462 117.111 85.8809 120.477 85.8809 124.628V143.291C85.8809 147.442 89.2462 150.807 93.3977 150.807H206.745C210.896 150.807 214.262 147.442 214.262 143.291V124.628C214.262 120.477 210.896 117.111 206.745 117.111Z" fill="#0A2B51"/>
<path d="M210.777 136.838L202.713 150.806H222.873L210.777 136.838Z" fill="#0A2B51"/>
<path d="M134.736 128.871L136.387 132.221L140.083 132.759L137.405 135.361L138.038 139.037L134.736 137.3L131.433 139.037L132.067 135.361L129.389 132.759L133.085 132.221L134.736 128.871Z" fill="white"/>
<path d="M149.731 128.871L151.382 132.221L155.078 132.759L152.4 135.361L153.033 139.037L149.731 137.3L146.429 139.037L147.062 135.361L144.384 132.759L148.08 132.221L149.731 128.871Z" fill="white"/>
<path opacity="0.3" d="M164.726 131.041L165.513 132.644C165.582 132.785 165.685 132.907 165.812 132.999C165.939 133.091 166.087 133.15 166.243 133.172L168 133.441L166.723 134.689C166.612 134.797 166.528 134.93 166.48 135.077C166.431 135.224 166.419 135.381 166.444 135.534L166.742 137.3L165.168 136.465C165.029 136.39 164.874 136.35 164.716 136.35C164.562 136.349 164.409 136.389 164.275 136.465L162.691 137.3L162.988 135.534C163.014 135.381 163.001 135.224 162.953 135.077C162.904 134.93 162.821 134.797 162.71 134.689L161.433 133.441L163.2 133.182C163.355 133.16 163.503 133.101 163.63 133.009C163.757 132.916 163.86 132.795 163.929 132.654L164.716 131.05M164.716 128.881L163.065 132.231L159.369 132.769L162.048 135.37L161.414 139.047L164.716 137.31L168.019 139.047L167.385 135.37L170.064 132.769L166.368 132.231L164.716 128.881Z" fill="white"/>
<path opacity="0.3" d="M179.721 131.041L180.508 132.644C180.578 132.785 180.68 132.907 180.807 132.999C180.935 133.091 181.082 133.15 181.238 133.172L183.004 133.431L181.728 134.679C181.617 134.787 181.533 134.92 181.485 135.067C181.436 135.214 181.424 135.371 181.449 135.524L181.747 137.29L180.172 136.455C180.034 136.38 179.879 136.341 179.721 136.34C179.567 136.339 179.414 136.379 179.28 136.455L177.696 137.29L177.993 135.524C178.018 135.371 178.006 135.214 177.958 135.067C177.909 134.92 177.826 134.787 177.715 134.679L176.438 133.431L178.204 133.172C178.36 133.15 178.508 133.091 178.635 132.999C178.762 132.907 178.865 132.785 178.934 132.644L179.721 131.041ZM179.721 128.871L178.07 132.221L174.374 132.759L177.052 135.361L176.419 139.037L179.721 137.3L183.024 139.037L182.4 135.361L185.078 132.759L181.382 132.221L179.731 128.871H179.721Z" fill="white"/>
<path opacity="0.3" d="M194.716 131.041L195.504 132.644C195.573 132.785 195.675 132.907 195.803 132.999C195.93 133.091 196.078 133.15 196.233 133.172L198 133.431L196.723 134.679C196.612 134.787 196.528 134.92 196.48 135.067C196.431 135.214 196.419 135.371 196.444 135.524L196.742 137.29L195.168 136.455C195.029 136.38 194.874 136.341 194.716 136.34C194.562 136.339 194.409 136.379 194.275 136.455L192.691 137.29L192.988 135.524C193.014 135.371 193.001 135.214 192.953 135.067C192.904 134.92 192.821 134.787 192.71 134.679L191.433 133.431L193.2 133.172C193.355 133.15 193.503 133.091 193.63 132.999C193.757 132.907 193.86 132.785 193.929 132.644L194.716 131.041ZM194.716 128.871L193.065 132.221L189.369 132.759L192.048 135.361L191.414 139.037L194.716 137.3L198.019 139.037L197.385 135.361L200.064 132.759L196.368 132.221L194.716 128.871Z" fill="white"/>
<path opacity="0.2" d="M109.295 145.489C115.663 145.489 120.825 140.327 120.825 133.959C120.825 127.592 115.663 122.43 109.295 122.43C102.928 122.43 97.7656 127.592 97.7656 133.959C97.7656 140.327 102.928 145.489 109.295 145.489Z" fill="white"/>
<path d="M118.819 133.958C118.821 136.077 118.117 138.135 116.817 139.808C115.517 141.481 113.695 142.671 111.642 143.192C109.588 143.712 107.42 143.532 105.48 142.68C103.541 141.828 101.941 140.354 100.934 138.49C100.173 137.101 99.7771 135.542 99.7821 133.958C99.7416 132.683 99.9579 131.412 100.418 130.222C100.878 129.032 101.573 127.946 102.461 127.03C103.348 126.113 104.411 125.385 105.586 124.887C106.761 124.389 108.024 124.133 109.301 124.133C110.577 124.133 111.84 124.389 113.015 124.887C114.19 125.385 115.253 126.113 116.141 127.03C117.028 127.946 117.723 129.032 118.183 130.222C118.643 131.412 118.859 132.683 118.819 133.958Z" fill="white"/>
<path d="M117.666 138.49C116.85 139.998 115.642 141.257 114.169 142.134C112.697 143.012 111.014 143.475 109.3 143.475C107.586 143.475 105.903 143.012 104.431 142.134C102.958 141.257 101.75 139.998 100.934 138.49C103.411 136.837 106.322 135.955 109.3 135.955C112.278 135.955 115.189 136.837 117.666 138.49Z" fill="#0A2B51"/>
<path d="M113.539 130.704C113.539 131.543 113.29 132.364 112.824 133.062C112.358 133.759 111.695 134.303 110.92 134.624C110.144 134.946 109.291 135.03 108.468 134.866C107.645 134.702 106.889 134.298 106.296 133.705C105.702 133.111 105.298 132.355 105.134 131.532C104.971 130.709 105.055 129.856 105.376 129.08C105.697 128.305 106.241 127.642 106.939 127.176C107.636 126.71 108.457 126.461 109.296 126.461C109.854 126.46 110.406 126.569 110.921 126.781C111.437 126.994 111.905 127.307 112.299 127.701C112.693 128.095 113.006 128.563 113.219 129.079C113.432 129.594 113.54 130.147 113.539 130.704Z" fill="#B55B52"/>
</svg>
