<svg width="480" height="480" viewBox="0 0 480 480" fill="none" xmlns="http://www.w3.org/2000/svg">
<path d="M480 367.105H0V367.345H480V367.105Z" fill="#E6E6E6"/>
<path d="M407.146 380.574H396.96V380.814H407.146V380.574Z" fill="#E6E6E6"/>
<path d="M389.913 380.689H348.489V380.929H389.913V380.689Z" fill="#E6E6E6"/>
<path d="M297.283 378.404H227.376V378.644H297.283V378.404Z" fill="#E6E6E6"/>
<path d="M187.161 382.57H164.976V382.81H187.161V382.57Z" fill="#E6E6E6"/>
<path d="M113.232 378.52H82.6846V378.76H113.232V378.52Z" fill="#E6E6E6"/>
<path d="M147.11 378.52H118.56V378.76H147.11V378.52Z" fill="#E6E6E6"/>
<path d="M91.8339 374.324H62.6787V374.564H91.8339V374.324Z" fill="#E6E6E6"/>
<path d="M227.52 324.289H42.1536C40.7015 324.286 39.3097 323.708 38.2838 322.68C37.2578 321.652 36.6816 320.259 36.6816 318.807V58.2344C36.6943 56.7906 37.2761 55.41 38.3006 54.3927C39.3252 53.3753 40.7098 52.8033 42.1536 52.8008H227.52C228.974 52.8008 230.368 53.3783 231.396 54.4063C232.424 55.4343 233.002 56.8286 233.002 58.2824V318.807C233.002 320.261 232.424 321.655 231.396 322.683C230.368 323.711 228.974 324.289 227.52 324.289ZM42.1536 52.9928C40.7651 52.9953 39.4344 53.5487 38.4535 54.5314C37.4726 55.5141 36.9216 56.8459 36.9216 58.2344V318.807C36.9216 320.196 37.4726 321.527 38.4535 322.51C39.4344 323.493 40.7651 324.046 42.1536 324.049H227.52C228.909 324.046 230.241 323.493 231.224 322.511C232.206 321.528 232.759 320.197 232.762 318.807V58.2344C232.759 56.845 232.206 55.5133 231.224 54.5308C230.241 53.5484 228.909 52.9953 227.52 52.9928H42.1536Z" fill="#E6E6E6"/>
<path d="M435.178 324.289H249.802C248.349 324.286 246.956 323.708 245.929 322.68C244.901 321.653 244.323 320.26 244.32 318.807V58.2344C244.335 56.7897 244.919 55.4092 245.945 54.3921C246.972 53.375 248.357 52.8032 249.802 52.8008H435.178C436.62 52.8058 438.002 53.3789 439.025 54.396C440.047 55.4131 440.628 56.7922 440.64 58.2344V318.807C440.64 320.258 440.065 321.649 439.042 322.676C438.018 323.704 436.628 324.284 435.178 324.289ZM249.802 52.9928C248.413 52.9953 247.081 53.5484 246.098 54.5308C245.116 55.5133 244.563 56.845 244.56 58.2344V318.807C244.563 320.197 245.116 321.528 246.098 322.511C247.081 323.493 248.413 324.046 249.802 324.049H435.178C436.567 324.046 437.899 323.493 438.881 322.511C439.864 321.528 440.417 320.197 440.42 318.807V58.2344C440.417 56.845 439.864 55.5133 438.881 54.5308C437.899 53.5484 436.567 52.9953 435.178 52.9928H249.802Z" fill="#E6E6E6"/>
<path d="M201.447 73.4121H51.9268V203.521H201.447V73.4121Z" fill="#E6E6E6"/>
<path d="M207.571 73.4121H54.7871V203.521H207.571V73.4121Z" fill="#F0F0F0"/>
<path d="M201.447 203.521H51.9268V208.744H201.447V203.521Z" fill="#E6E6E6"/>
<path d="M217.766 203.521H64.9824V208.744H217.766V203.521Z" fill="#F0F0F0"/>
<path d="M199.008 194.957V81.9746L63.3598 81.9746V194.957H199.008Z" fill="#FAFAFA"/>
<path d="M85.3252 194.957L111.495 81.9746H147.408L121.239 194.957H85.3252Z" fill="white"/>
<path d="M68.2941 176.075C68.1311 176.075 67.9749 176.011 67.8596 175.895C67.7444 175.78 67.6797 175.624 67.6797 175.461V87.5441C67.6797 87.3811 67.7444 87.2249 67.8596 87.1096C67.9749 86.9944 68.1311 86.9297 68.2941 86.9297C68.457 86.9297 68.6133 86.9944 68.7285 87.1096C68.8438 87.2249 68.9085 87.3811 68.9085 87.5441V175.461C68.9085 175.624 68.8438 175.78 68.7285 175.895C68.6133 176.011 68.457 176.075 68.2941 176.075Z" fill="#E6E6E6"/>
<path d="M128.602 194.957L154.771 81.9746H167.194L141.024 194.957H128.602Z" fill="white"/>
<path d="M198.998 194.947V81.9648H197.913V194.947H198.998Z" fill="#E6E6E6"/>
<path d="M209.597 82.9063H60.0772L59.29 80.3047H208.81L209.597 82.9063Z" fill="#E0E0E0"/>
<path d="M209.597 87.1973H60.0772L59.29 84.5957H208.81L209.597 87.1973Z" fill="#E0E0E0"/>
<path d="M209.597 91.4883H60.0772L59.29 88.8867H208.81L209.597 91.4883Z" fill="#E0E0E0"/>
<path d="M209.597 95.7793H60.0772L59.29 93.1777H208.81L209.597 95.7793Z" fill="#E0E0E0"/>
<path d="M209.597 100.07H60.0772L59.29 97.4688H208.81L209.597 100.07Z" fill="#E0E0E0"/>
<path d="M209.597 104.363H60.0772L59.29 101.762H208.81L209.597 104.363Z" fill="#E0E0E0"/>
<path d="M387.063 81.8789H324.192V193.959H387.063V81.8789Z" fill="#E6E6E6"/>
<path d="M359.606 87.8029C358.659 87.7934 357.736 87.5039 356.953 86.9707C356.17 86.4376 355.562 85.6846 355.206 84.8068C354.85 83.9289 354.762 82.9653 354.953 82.0374C355.143 81.1095 355.604 80.2587 356.277 79.5922C356.95 78.9257 357.806 78.4733 358.736 78.2919C359.665 78.1106 360.628 78.2084 361.502 78.573C362.377 78.9377 363.123 79.5529 363.649 80.3412C364.174 81.1295 364.454 82.0556 364.455 83.0029C364.442 84.2803 363.926 85.5011 363.018 86.4C362.11 87.2988 360.884 87.8029 359.606 87.8029ZM359.606 79.0669C358.849 79.0764 358.111 79.3096 357.486 79.7372C356.861 80.1649 356.377 80.7679 356.093 81.4703C355.81 82.1728 355.741 82.9433 355.894 83.685C356.048 84.4267 356.417 85.1064 356.956 85.6387C357.495 86.1709 358.179 86.5319 358.923 86.6762C359.666 86.8206 360.436 86.7418 361.135 86.4498C361.834 86.1578 362.431 85.6656 362.851 85.0352C363.27 84.4048 363.494 83.6643 363.495 82.9069C363.495 82.3985 363.394 81.8953 363.198 81.4262C363.002 80.9572 362.715 80.5317 362.353 80.1745C361.991 79.8173 361.562 79.5354 361.091 79.3453C360.619 79.1552 360.115 79.0605 359.606 79.0669Z" fill="#E0E0E0"/>
<path d="M393.859 81.8789H328.925V193.959H393.859V81.8789Z" fill="#F0F0F0"/>
<path d="M388.426 188.516V87.3125H334.368V188.516H388.426Z" fill="#FAFAFA"/>
<path d="M388.426 188.516V87.3125H387.754V188.516H388.426Z" fill="#E0E0E0"/>
<path d="M340.569 233.818C340.569 233.818 341.241 245.118 366.921 245.118C392.601 245.118 393.264 233.818 393.264 233.818H340.569Z" fill="#E6E6E6"/>
<path d="M288.633 253.988H262.406V362.007H288.633V253.988Z" fill="#E6E6E6"/>
<path d="M404.477 362.008H267.446V367.105H404.477V362.008Z" fill="#E6E6E6"/>
<path d="M288.633 362.008H409.507V253.989H288.633V362.008Z" fill="#F5F5F5"/>
<path d="M298.944 321.188H399.197V294.807H298.944V321.188Z" fill="#E6E6E6"/>
<path d="M298.944 352.389H399.197V326.008H298.944V352.389Z" fill="#E6E6E6"/>
<path d="M364.061 297.697H334.08C333.602 297.697 333.142 297.507 332.804 297.169C332.466 296.83 332.275 296.371 332.275 295.893C332.275 295.413 332.465 294.953 332.803 294.613C333.142 294.273 333.601 294.081 334.08 294.078H364.061C364.541 294.081 365 294.273 365.338 294.613C365.676 294.953 365.866 295.413 365.866 295.893C365.866 296.371 365.676 296.83 365.337 297.169C364.999 297.507 364.54 297.697 364.061 297.697Z" fill="#F5F5F5"/>
<path d="M298.944 289.988H399.197V263.608H298.944V289.988Z" fill="#E6E6E6"/>
<path d="M364.061 266.506H334.08C333.601 266.503 333.142 266.311 332.803 265.971C332.465 265.631 332.275 265.171 332.275 264.692C332.275 264.213 332.466 263.754 332.804 263.415C333.142 263.077 333.602 262.887 334.08 262.887H364.061C364.54 262.887 364.999 263.077 365.337 263.415C365.676 263.754 365.866 264.213 365.866 264.692C365.866 265.171 365.676 265.631 365.338 265.971C365 266.311 364.541 266.503 364.061 266.506Z" fill="#F5F5F5"/>
<path d="M364.061 328.897H334.08C333.601 328.894 333.142 328.702 332.803 328.362C332.465 328.022 332.275 327.562 332.275 327.082C332.275 326.603 332.466 326.144 332.804 325.806C333.142 325.468 333.602 325.277 334.08 325.277H364.061C364.54 325.277 364.999 325.468 365.337 325.806C365.676 326.144 365.866 326.603 365.866 327.082C365.866 327.562 365.676 328.022 365.338 328.362C365 328.702 364.541 328.894 364.061 328.897Z" fill="#F5F5F5"/>
<path d="M413.002 245.117H288.634V253.988H413.002V245.117Z" fill="#EBEBEB"/>
<path d="M258.739 253.998H288.634V245.128H258.739V253.998Z" fill="#E0E0E0"/>
<path d="M272.505 245.117H298.569V213.879H272.505V245.117Z" fill="#E6E6E6"/>
<path d="M344.822 213.889H298.569V245.127H344.822V213.889Z" fill="#FAFAFA"/>
<path d="M332.362 230.401C332.362 232.638 327.562 234.443 321.696 234.443C315.83 234.443 311.04 232.609 311.04 230.401C311.04 228.193 315.84 226.359 321.715 226.359C327.59 226.359 332.362 228.145 332.362 230.401Z" fill="white"/>
<g style="mix-blend-mode:multiply" opacity="0.7">
<path d="M272.505 220.023H345.091V217.883H272.505V220.023Z" fill="#E0E0E0"/>
</g>
<path d="M271.056 218.795H298.56V212.593H271.056V218.795Z" fill="#E6E6E6"/>
<path d="M346.253 212.584H298.569V218.786H346.253V212.584Z" fill="#FAFAFA"/>
<path d="M166.886 229.498H67.5264L73.728 367.104H173.088L166.886 229.498Z" fill="#E6E6E6"/>
<path d="M168.327 229.498H68.9668L75.1684 367.104H174.528L168.327 229.498Z" fill="#FAFAFA"/>
<path d="M90.8735 367.105H116.938V335.867H90.8735V367.105Z" fill="#E0E0E0"/>
<path d="M241.718 335.867H116.947V367.106H241.718V335.867Z" fill="#F0F0F0"/>
<g style="mix-blend-mode:multiply" opacity="0.7">
<path d="M90.8737 342.01H241.987V339.869H90.8737V342.01Z" fill="#E0E0E0"/>
</g>
<path d="M89.4433 340.771H116.947V334.57H89.4433V340.771Z" fill="#E0E0E0"/>
<path d="M243.158 334.57H116.947V340.772H243.158V334.57Z" fill="#F0F0F0"/>
<path d="M112.484 334.57H146.4V278.132H112.484V334.57Z" fill="#E6E6E6"/>
<path d="M231.139 278.133H146.391V334.571H231.139V278.133Z" fill="#EBEBEB"/>
<g style="mix-blend-mode:multiply" opacity="0.7">
<path d="M112.473 286.119H231.494V283.335H112.473V286.119Z" fill="#E0E0E0"/>
</g>
<path d="M110.612 284.506H146.4V271.68H110.612V284.506Z" fill="#E6E6E6"/>
<path d="M233.011 271.682H146.391V284.507H233.011V271.682Z" fill="#EBEBEB"/>
<path d="M74.6978 367.105C87.9367 367.105 98.669 356.372 98.669 343.133C98.669 329.894 87.9367 319.162 74.6978 319.162C61.4588 319.162 50.7266 329.894 50.7266 343.133C50.7266 356.372 61.4588 367.105 74.6978 367.105Z" fill="#F0F0F0"/>
<g style="mix-blend-mode:multiply" opacity="0.7">
<path d="M62.9571 328.839C64.3779 327.36 64.9539 325.594 64.2243 324.903C63.4947 324.211 61.7571 324.835 60.3363 326.314C58.9155 327.792 58.3395 329.559 59.0595 330.259C59.7795 330.96 61.5267 330.327 62.9571 328.839Z" fill="#E0E0E0"/>
</g>
<g style="mix-blend-mode:multiply" opacity="0.7">
<path d="M72.9599 324.346C74.9759 323.962 76.4639 322.848 76.2719 321.86C76.0799 320.871 74.2943 320.381 72.2687 320.775C70.2431 321.168 68.7743 322.272 68.9567 323.261C69.1391 324.25 70.8959 324.74 72.9599 324.346Z" fill="#E0E0E0"/>
</g>
<g style="mix-blend-mode:multiply" opacity="0.7">
<path d="M70.8674 332.717C72.7874 332.036 74.045 330.519 73.6226 329.329C73.2002 328.138 71.2898 327.725 69.3506 328.369C67.4114 329.012 66.1826 330.567 66.5954 331.757C67.0082 332.948 68.9282 333.399 70.8674 332.717Z" fill="#E0E0E0"/>
</g>
<path d="M240 410.457C342.799 410.457 426.134 405.592 426.134 399.59C426.134 393.588 342.799 388.723 240 388.723C137.2 388.723 53.8652 393.588 53.8652 399.59C53.8652 405.592 137.2 410.457 240 410.457Z" fill="#F3F4F6"/>
<path d="M294.95 106.982H184.474C176.722 106.982 170.438 113.266 170.438 121.018V385.546C170.438 393.297 176.722 399.581 184.474 399.581H294.95C302.702 399.581 308.986 393.297 308.986 385.546V121.018C308.986 113.266 302.702 106.982 294.95 106.982Z" fill="#0A2B51"/>
<path opacity="0.7" d="M294.95 106.982H184.474C176.722 106.982 170.438 113.266 170.438 121.018V385.546C170.438 393.297 176.722 399.581 184.474 399.581H294.95C302.702 399.581 308.986 393.297 308.986 385.546V121.018C308.986 113.266 302.702 106.982 294.95 106.982Z" fill="white"/>
<path d="M298.656 106.482H188.179C180.427 106.482 174.144 112.766 174.144 120.518V385.046C174.144 392.797 180.427 399.081 188.179 399.081H298.656C306.407 399.081 312.691 392.797 312.691 385.046V120.518C312.691 112.766 306.407 106.482 298.656 106.482Z" fill="#0A2B51"/>
<path opacity="0.2" d="M298.656 106.482H188.179C180.427 106.482 174.144 112.766 174.144 120.518V385.046C174.144 392.797 180.427 399.081 188.179 399.081H298.656C306.407 399.081 312.691 392.797 312.691 385.046V120.518C312.691 112.766 306.407 106.482 298.656 106.482Z" fill="black"/>
<path d="M248.822 386.187C248.824 387.424 248.459 388.634 247.773 389.663C247.087 390.692 246.111 391.495 244.969 391.969C243.827 392.443 242.569 392.568 241.356 392.327C240.143 392.086 239.028 391.491 238.154 390.616C237.279 389.741 236.684 388.627 236.443 387.414C236.202 386.201 236.327 384.943 236.801 383.801C237.275 382.658 238.078 381.682 239.107 380.997C240.136 380.311 241.346 379.945 242.582 379.947C244.237 379.947 245.825 380.605 246.995 381.775C248.165 382.945 248.822 384.532 248.822 386.187Z" fill="#0A2B51"/>
<path opacity="0.4" d="M248.822 386.187C248.824 387.424 248.459 388.634 247.773 389.663C247.087 390.692 246.111 391.495 244.969 391.969C243.827 392.443 242.569 392.568 241.356 392.327C240.143 392.086 239.028 391.491 238.154 390.616C237.279 389.741 236.684 388.627 236.443 387.414C236.202 386.201 236.327 384.943 236.801 383.801C237.275 382.658 238.078 381.682 239.107 380.997C240.136 380.311 241.346 379.945 242.582 379.947C244.237 379.947 245.825 380.605 246.995 381.775C248.165 382.945 248.822 384.532 248.822 386.187Z" fill="black"/>
<path d="M311.578 377.039H173.722V125.596H312.538L311.578 377.039Z" fill="#0A2B51"/>
<path opacity="0.8" d="M312.797 376.904L173.645 377.068V125.615L312.672 125.471L312.797 376.904Z" fill="white"/>
<path opacity="0.33" d="M163.229 129.811H162.269V142.502H163.229V129.811Z" fill="#0A2B51"/>
<path opacity="0.33" d="M163.229 146.025H162.269V150H163.229V146.025Z" fill="#0A2B51"/>
<path d="M282.72 136.002H187.094C181.824 136.002 177.552 140.274 177.552 145.544V202.626C177.552 207.896 181.824 212.168 187.094 212.168H282.72C287.99 212.168 292.262 207.896 292.262 202.626V145.544C292.262 140.274 287.99 136.002 282.72 136.002Z" fill="white"/>
<path opacity="0.27" d="M200.023 165.318C206.495 162.612 209.548 155.172 206.842 148.701C204.136 142.229 196.696 139.176 190.225 141.882C183.753 144.588 180.7 152.028 183.406 158.499C186.112 164.971 193.552 168.023 200.023 165.318Z" fill="#0A2B51"/>
<path d="M205.613 153.599C205.621 155.343 205.185 157.061 204.346 158.591C203.128 160.838 201.131 162.562 198.731 163.44C196.331 164.318 193.693 164.289 191.313 163.358C188.932 162.428 186.974 160.66 185.806 158.387C184.638 156.114 184.34 153.492 184.969 151.015C185.598 148.538 187.11 146.376 189.22 144.936C191.331 143.495 193.896 142.875 196.432 143.192C198.967 143.51 201.3 144.743 202.991 146.659C204.681 148.575 205.614 151.043 205.613 153.599Z" fill="white"/>
<path opacity="0.27" d="M204.345 158.581C203.445 160.24 202.114 161.626 200.492 162.592C198.87 163.558 197.017 164.068 195.129 164.068C193.241 164.068 191.388 163.558 189.766 162.592C188.144 161.626 186.813 160.24 185.913 158.581C188.642 156.759 191.849 155.787 195.129 155.787C198.41 155.787 201.617 156.759 204.345 158.581Z" fill="#0A2B51"/>
<path opacity="0.27" d="M195.129 154.665C197.706 154.665 199.795 152.576 199.795 150C199.795 147.423 197.706 145.334 195.129 145.334C192.553 145.334 190.464 147.423 190.464 150C190.464 152.576 192.553 154.665 195.129 154.665Z" fill="#0A2B51"/>
<path d="M285.225 219.205H184.589C180.702 219.205 177.552 222.356 177.552 226.242V238.827C177.552 242.714 180.702 245.864 184.589 245.864H285.225C289.112 245.864 292.262 242.714 292.262 238.827V226.242C292.262 222.356 289.112 219.205 285.225 219.205Z" fill="white"/>
<path opacity="0.6" d="M311.76 248.447L325.325 285.829C325.674 286.807 325.623 287.884 325.183 288.824C324.742 289.765 323.948 290.493 322.973 290.85L251.808 316.665C250.831 317.015 249.756 316.965 248.816 316.526C247.875 316.088 247.146 315.296 246.787 314.322L233.222 276.93C232.87 275.954 232.92 274.878 233.361 273.938C233.802 272.998 234.598 272.272 235.574 271.919L306.739 246.095C307.717 245.745 308.793 245.796 309.734 246.237C310.674 246.677 311.403 247.472 311.76 248.447Z" fill="#0A2B51"/>
<path d="M309.609 246.182L289.267 279.657C287.383 282.761 284.495 285.128 281.082 286.366C277.669 287.604 273.935 287.638 270.499 286.463L233.424 273.81C233.87 272.92 234.639 272.234 235.574 271.89L306.739 246.066C307.676 245.742 308.701 245.783 309.609 246.182Z" fill="#0A2B51"/>
<path opacity="0.5" d="M309.609 246.182L289.267 279.657C287.383 282.761 284.495 285.128 281.082 286.366C277.669 287.604 273.935 287.638 270.499 286.463L233.424 273.81C233.87 272.92 234.639 272.234 235.574 271.89L306.739 246.066C307.676 245.742 308.701 245.783 309.609 246.182Z" fill="white"/>
<path opacity="0.6" d="M289.44 312.7L288.787 346.377C288.767 347.255 288.4 348.09 287.768 348.7C287.135 349.309 286.286 349.644 285.408 349.631L221.289 348.383C220.854 348.374 220.425 348.28 220.027 348.106C219.629 347.931 219.268 347.68 218.967 347.366C218.666 347.052 218.429 346.682 218.271 346.277C218.113 345.871 218.036 345.439 218.045 345.004L218.688 311.327C218.699 310.872 218.803 310.423 218.993 310.009C219.183 309.595 219.454 309.224 219.792 308.918C220.417 308.359 221.229 308.057 222.067 308.073L286.185 309.311C287.066 309.331 287.902 309.699 288.512 310.334C289.122 310.969 289.455 311.82 289.44 312.7Z" fill="#0A2B51"/>
<path d="M288.432 310.252L262.166 330.527C259.73 332.406 256.727 333.397 253.651 333.338C250.576 333.278 247.613 332.172 245.251 330.201L219.84 308.918C220.465 308.359 221.277 308.057 222.115 308.073L286.233 309.311C287.058 309.341 287.841 309.676 288.432 310.252Z" fill="#0A2B51"/>
<path opacity="0.5" d="M288.432 310.252L262.166 330.527C259.73 332.406 256.727 333.397 253.651 333.338C250.576 333.278 247.613 332.172 245.251 330.201L219.84 308.918C220.465 308.359 221.277 308.057 222.115 308.073L286.233 309.311C287.058 309.341 287.841 309.676 288.432 310.252Z" fill="white"/>
<path d="M224.765 114.402C224.767 113.965 224.898 113.539 225.141 113.177C225.385 112.816 225.731 112.534 226.134 112.368C226.538 112.203 226.982 112.16 227.409 112.247C227.837 112.333 228.229 112.544 228.537 112.853C228.845 113.162 229.054 113.556 229.139 113.984C229.223 114.412 229.179 114.855 229.012 115.258C228.844 115.661 228.561 116.005 228.198 116.248C227.835 116.49 227.409 116.619 226.973 116.619C226.682 116.619 226.394 116.562 226.125 116.45C225.857 116.339 225.613 116.175 225.408 115.969C225.203 115.763 225.04 115.518 224.93 115.249C224.82 114.98 224.763 114.692 224.765 114.402Z" fill="#0A2B51"/>
<path d="M234.604 112.195H252.95C253.535 112.198 254.095 112.431 254.509 112.845C254.922 113.258 255.156 113.818 255.158 114.403C255.158 114.99 254.926 115.552 254.512 115.968C254.098 116.384 253.537 116.618 252.95 116.621H234.604C234.018 116.618 233.456 116.384 233.043 115.968C232.629 115.552 232.396 114.99 232.396 114.403C232.399 113.818 232.632 113.258 233.046 112.845C233.46 112.431 234.02 112.198 234.604 112.195Z" fill="#0A2B51"/>
<path opacity="0.4" d="M224.765 114.402C224.767 113.965 224.898 113.539 225.141 113.177C225.385 112.816 225.731 112.534 226.134 112.368C226.538 112.203 226.982 112.16 227.409 112.247C227.837 112.333 228.229 112.544 228.537 112.853C228.845 113.162 229.054 113.556 229.139 113.984C229.223 114.412 229.179 114.855 229.012 115.258C228.844 115.661 228.561 116.005 228.198 116.248C227.835 116.49 227.409 116.619 226.973 116.619C226.682 116.619 226.394 116.562 226.125 116.45C225.857 116.339 225.613 116.175 225.408 115.969C225.203 115.763 225.04 115.518 224.93 115.249C224.82 114.98 224.763 114.692 224.765 114.402Z" fill="black"/>
<path opacity="0.4" d="M234.604 112.195H252.95C253.535 112.198 254.095 112.431 254.509 112.845C254.922 113.258 255.156 113.818 255.158 114.403C255.158 114.99 254.926 115.552 254.512 115.968C254.098 116.384 253.537 116.618 252.95 116.621H234.604C234.018 116.618 233.456 116.384 233.043 115.968C232.629 115.552 232.396 114.99 232.396 114.403C232.399 113.818 232.632 113.258 233.046 112.845C233.46 112.431 234.02 112.198 234.604 112.195Z" fill="black"/>
<path d="M312.883 156.682H303.734C301.608 156.682 299.885 158.405 299.885 160.531V188.4C299.885 190.526 301.608 192.25 303.734 192.25H312.883C315.009 192.25 316.733 190.526 316.733 188.4V160.531C316.733 158.405 315.009 156.682 312.883 156.682Z" fill="#0A2B51"/>
<path opacity="0.8" d="M312.883 156.682H303.734C301.608 156.682 299.885 158.405 299.885 160.531V188.4C299.885 190.526 301.608 192.25 303.734 192.25H312.883C315.009 192.25 316.733 190.526 316.733 188.4V160.531C316.733 158.405 315.009 156.682 312.883 156.682Z" fill="white"/>
<path d="M313.843 202.512H302.774C301.178 202.512 299.885 203.805 299.885 205.401V219.686C299.885 221.282 301.178 222.576 302.774 222.576H313.843C315.439 222.576 316.733 221.282 316.733 219.686V205.401C316.733 203.805 315.439 202.512 313.843 202.512Z" fill="#0A2B51"/>
<path opacity="0.8" d="M313.843 202.512H302.774C301.178 202.512 299.885 203.805 299.885 205.401V219.686C299.885 221.282 301.178 222.576 302.774 222.576H313.843C315.439 222.576 316.733 221.282 316.733 219.686V205.401C316.733 203.805 315.439 202.512 313.843 202.512Z" fill="white"/>
<mask id="mask0_1013_335" style="mask-type:luminance" maskUnits="userSpaceOnUse" x="170" y="124" width="139" height="253">
<path d="M308.688 124.617H170.141V376.07H308.688V124.617Z" fill="white"/>
</mask>
<g mask="url(#mask0_1013_335)">
<path d="M191.021 370.013L198.077 370.695L205.421 353.904L198.365 353.213L191.021 370.013Z" fill="#E4897B"/>
<path d="M205.421 353.904L201.639 362.563H194.275L198.355 353.213L205.421 353.904Z" fill="#CE6F64"/>
<path d="M270.364 198.162L270.595 198.681L270.892 199.285C271.084 199.689 271.305 200.101 271.526 200.514C271.977 201.33 272.486 202.156 272.966 202.943C273.977 204.555 275.09 206.1 276.297 207.57C277.526 209.026 278.837 210.411 280.224 211.717C280.944 212.351 281.644 213.004 282.393 213.637L283.516 214.521L283.776 214.732C283.654 214.694 283.528 214.668 283.401 214.655C283.123 214.626 282.842 214.669 282.585 214.78C282.429 214.825 282.289 214.915 282.182 215.039C282.115 215.135 282.288 214.981 282.432 214.732C282.812 214.032 283.111 213.291 283.324 212.524C283.852 210.659 284.265 208.765 284.563 206.85C284.889 204.873 285.158 202.847 285.369 200.821C285.58 198.796 285.801 196.732 285.993 194.716L289.699 194.658C289.929 196.799 290.025 198.882 290.112 201.013C290.198 203.145 290.16 205.257 290.112 207.417C290.027 209.637 289.773 211.849 289.353 214.031C289.11 215.288 288.72 216.513 288.192 217.679C287.809 218.504 287.282 219.255 286.636 219.897C286.136 220.367 285.549 220.736 284.908 220.981C284.161 221.261 283.359 221.36 282.566 221.269C281.923 221.185 281.3 220.99 280.723 220.693C280.492 220.577 280.268 220.449 280.051 220.309L279.686 220.069L278.284 219.109C277.324 218.476 276.48 217.775 275.606 217.074C273.879 215.632 272.259 214.066 270.758 212.389C269.269 210.698 267.899 208.905 266.659 207.023C266.044 206.063 265.478 205.103 264.931 204.143C264.662 203.634 264.403 203.135 264.153 202.607L263.788 201.791C263.664 201.503 263.568 201.273 263.414 200.879L270.364 198.162Z" fill="#F0F0F0"/>
<path d="M273.609 203.125L267.158 212.024L269.827 214.645L276.691 206.389L273.609 203.125Z" fill="#F5F5F5"/>
<path d="M263.491 191.384C270.758 193.304 275.77 203.499 275.77 203.499L267.379 215.259C267.379 215.259 257.28 202.559 257.539 198.546C257.789 194.341 259.113 190.203 263.491 191.384Z" fill="#0A2B51"/>
<path opacity="0.7" d="M263.491 191.384C270.758 193.304 275.77 203.499 275.77 203.499L267.379 215.259C267.379 215.259 257.28 202.559 257.539 198.546C257.789 194.341 259.113 190.203 263.491 191.384Z" fill="#102C4C"/>
<path d="M269.76 195.139C269.76 195.139 272.15 197.961 244.483 231.446L218.88 216.451C225.408 206.284 229.181 199.862 236.717 175.555C240.742 176.909 244.662 178.555 248.448 180.479C252.465 182.503 256.351 184.776 260.083 187.286C264.806 190.665 269.76 195.139 269.76 195.139Z" fill="#0A2B51"/>
<path opacity="0.7" d="M269.76 195.139C269.76 195.139 272.15 197.961 244.483 231.446L218.88 216.451C225.408 206.284 229.181 199.862 236.717 175.555C240.742 176.909 244.662 178.555 248.448 180.479C252.465 182.503 256.351 184.776 260.083 187.286C264.806 190.665 269.76 195.139 269.76 195.139Z" fill="#102C4C"/>
<path d="M266.438 192.249C264.633 190.751 262.319 188.899 260.083 187.286C256.37 184.744 252.482 182.47 248.447 180.479C246.182 179.299 243.859 178.262 241.881 177.475C241.564 178.003 241.823 179.615 242.793 181.977C246.479 186.729 255.043 193.727 262.185 195.119C265.507 194.639 266.543 193.583 266.438 192.249Z" fill="#F5F5F5"/>
<path d="M242.793 181.977C244.944 186.77 247.809 191.211 251.289 195.148C254.912 195.509 258.562 195.509 262.185 195.148C255.043 193.727 246.479 186.729 242.793 181.977Z" fill="#F5F5F5"/>
<path d="M244.512 231.445C244.512 231.445 244.925 297.225 233.261 316.213C221.126 335.961 205.306 360.047 205.306 360.047L191.606 359.384C191.606 359.384 207.581 323.749 213.61 307.209C221.914 284.409 225.754 220.463 225.754 220.463L244.512 231.445Z" fill="#0A2B51"/>
<path d="M244.512 231.445C244.512 231.445 244.925 297.225 233.261 316.213C221.126 335.961 205.306 360.047 205.306 360.047L191.606 359.384C191.606 359.384 207.581 323.749 213.61 307.209C221.914 284.409 225.754 220.463 225.754 220.463L244.512 231.445Z" fill="#A1FFA1"/>
<path opacity="0.2" d="M229.939 233.279C227.721 235.161 225.813 237.38 224.285 239.855C223.853 244.751 223.325 250.252 222.72 256.012C226.896 250.338 230.198 240.383 229.939 233.279Z" fill="black"/>
<path d="M237.744 227.52C237.744 227.52 208.762 268.665 190.704 290.88C176.112 308.784 133.872 321.6 133.872 321.6L128.717 312.96C128.717 312.96 162.317 294.201 172.339 282.086C204.422 243.302 204.019 223.19 218.918 216.557L237.744 227.52Z" fill="#0A2B51"/>
<path d="M237.744 227.52C237.744 227.52 208.762 268.665 190.704 290.88C176.112 308.784 133.872 321.6 133.872 321.6L128.717 312.96C128.717 312.96 162.317 294.201 172.339 282.086C204.422 243.302 204.019 223.19 218.918 216.557L237.744 227.52Z" fill="#A1FFA1"/>
<path d="M286.08 195.617L284.16 187.938L291.485 190.069C291.485 190.069 291.283 195.233 288.749 196.913L286.08 195.617Z" fill="#F0F0F0"/>
<path d="M286.492 181.775L291.638 184.377L291.513 190.108L284.188 187.977L286.492 181.775Z" fill="#F0F0F0"/>
<path d="M194.477 184.597L187.757 180.469L194.477 176.879C194.477 176.879 197.923 180.719 197.29 183.695L194.477 184.597Z" fill="#F0F0F0"/>
<path d="M185.098 174.412L190.598 172.684L194.515 176.879L187.766 180.469L185.098 174.412Z" fill="#F0F0F0"/>
<path d="M199.018 368.514H190.378C190.222 368.515 190.071 368.567 189.947 368.662C189.824 368.758 189.736 368.891 189.696 369.042L187.776 375.906C187.729 376.067 187.721 376.237 187.752 376.403C187.784 376.568 187.854 376.723 187.957 376.856C188.06 376.989 188.193 377.096 188.345 377.168C188.497 377.239 188.664 377.274 188.832 377.269C191.866 377.221 193.344 377.048 197.155 377.048C199.498 377.048 205.565 377.288 208.8 377.288C212.035 377.288 212.64 374.082 211.325 373.794C205.44 372.498 202.061 370.702 200.246 368.994C199.913 368.684 199.473 368.512 199.018 368.514Z" fill="#263238"/>
<path d="M219.389 214.723L216.893 216.345C216.701 216.47 216.806 216.777 217.104 216.95L243.984 232.665C244.214 232.8 244.473 232.8 244.569 232.665L246.144 230.505C246.249 230.352 246.144 230.102 245.875 229.958L219.955 214.781C219.876 214.719 219.78 214.681 219.68 214.671C219.58 214.661 219.479 214.679 219.389 214.723Z" fill="#263238"/>
<path d="M234.614 186.565C232.799 188.015 231.071 189.186 229.238 190.405C227.404 191.624 225.542 192.671 223.622 193.707C219.769 195.816 215.713 197.53 211.516 198.824C210.998 199.007 210.441 199.131 209.913 199.275C209.385 199.419 208.876 199.563 208.243 199.698C206.866 200.007 205.448 200.078 204.047 199.909C202.563 199.732 201.134 199.234 199.862 198.45C198.679 197.702 197.641 196.746 196.799 195.627C195.378 193.647 194.361 191.406 193.804 189.032C193.52 187.938 193.315 186.825 193.19 185.701C193.037 184.581 192.964 183.452 192.969 182.322L196.655 182.005C197.1 183.879 197.701 185.713 198.451 187.487C199.103 189.112 200.05 190.602 201.244 191.883C201.672 192.366 202.195 192.757 202.779 193.031C203.363 193.305 203.998 193.457 204.643 193.477C205.32 193.472 205.993 193.365 206.639 193.16C207.475 192.891 208.454 192.584 209.347 192.258C213.042 190.869 216.615 189.176 220.031 187.199C221.779 186.239 223.449 185.135 225.139 184.069C226.828 183.003 228.489 181.803 229.939 180.709L234.614 186.565Z" fill="#F0F0F0"/>
<path d="M222.739 184.051L226.061 194.093L229.181 192.221L226.262 182.266L222.739 184.051Z" fill="#F5F5F5"/>
<path d="M202.857 369.944C202.058 369.929 201.264 369.829 200.486 369.647C200.451 369.638 200.419 369.618 200.395 369.591C200.371 369.563 200.356 369.529 200.352 369.493C200.351 369.458 200.361 369.422 200.38 369.392C200.398 369.361 200.425 369.337 200.457 369.32C201.033 369.042 203.99 367.708 204.777 368.236C204.853 368.289 204.912 368.362 204.949 368.446C204.987 368.531 205 368.624 204.988 368.716C204.984 368.877 204.943 369.036 204.868 369.179C204.793 369.322 204.687 369.446 204.556 369.541C204.045 369.848 203.452 369.989 202.857 369.944ZM201.091 369.416C202.051 369.589 203.664 369.781 204.345 369.263C204.437 369.198 204.513 369.112 204.565 369.011C204.616 368.911 204.643 368.8 204.643 368.687C204.648 368.657 204.646 368.626 204.636 368.598C204.626 368.569 204.608 368.543 204.585 368.524C204.153 368.236 202.377 368.85 201.091 369.416Z" fill="#0A2B51"/>
<path d="M200.524 369.647C200.49 369.66 200.453 369.66 200.419 369.647C200.392 369.628 200.372 369.601 200.361 369.57C200.351 369.539 200.351 369.505 200.361 369.474C200.361 369.34 201.11 366.2 202.838 366.421C203.289 366.469 203.404 366.7 203.433 366.872C203.548 367.698 201.571 369.272 200.553 369.676L200.524 369.647ZM202.684 366.719C201.647 366.719 201.023 368.399 200.764 369.157C201.724 368.61 203.126 367.362 203.059 366.882C203.059 366.805 202.953 366.748 202.771 366.728L202.684 366.719Z" fill="#0A2B51"/>
<path d="M221.174 219.667L220.483 219.264C220.349 219.178 220.281 219.043 220.339 218.966L222.413 216.173C222.47 216.096 222.633 216.096 222.768 216.173L223.469 216.586C223.603 216.662 223.67 216.797 223.613 216.874L221.539 219.667C221.481 219.744 221.318 219.744 221.174 219.667Z" fill="#0A2B51"/>
<path d="M241.862 231.773L241.171 231.36C241.036 231.283 240.969 231.149 241.027 231.072L243.1 228.278C243.158 228.202 243.321 228.202 243.455 228.278L244.156 228.682C244.291 228.768 244.358 228.902 244.291 228.979L242.227 231.773C242.169 231.85 242.006 231.85 241.862 231.773Z" fill="#0A2B51"/>
<path d="M231.523 225.714L230.822 225.31C230.687 225.234 230.62 225.099 230.687 225.013L232.751 222.229C232.819 222.142 232.972 222.142 233.116 222.229L233.807 222.632C233.951 222.709 234.009 222.843 233.951 222.93L231.878 225.714C231.82 225.8 231.657 225.8 231.523 225.714Z" fill="#0A2B51"/>
<path opacity="0.4" d="M221.174 219.667L220.483 219.264C220.349 219.178 220.281 219.043 220.339 218.966L222.413 216.173C222.47 216.096 222.633 216.096 222.768 216.173L223.469 216.586C223.603 216.662 223.67 216.797 223.613 216.874L221.539 219.667C221.481 219.744 221.318 219.744 221.174 219.667Z" fill="black"/>
<path opacity="0.4" d="M241.862 231.773L241.171 231.36C241.036 231.283 240.969 231.149 241.027 231.072L243.1 228.278C243.158 228.202 243.321 228.202 243.455 228.278L244.156 228.682C244.291 228.768 244.358 228.902 244.291 228.979L242.227 231.773C242.169 231.85 242.006 231.85 241.862 231.773Z" fill="black"/>
<path opacity="0.4" d="M231.523 225.714L230.822 225.31C230.687 225.234 230.62 225.099 230.687 225.013L232.751 222.229C232.819 222.142 232.972 222.142 233.116 222.229L233.807 222.632C233.951 222.709 234.009 222.843 233.951 222.93L231.878 225.714C231.82 225.8 231.657 225.8 231.523 225.714Z" fill="black"/>
<path d="M250.733 182.399C250.733 176.639 248.813 153.974 258.259 152.054C261.245 148.905 276.038 148.578 278.304 156.585C281.299 167.097 276.864 192.748 276.864 192.748L250.733 182.399Z" fill="#263238"/>
<path d="M278.832 192.806C278.801 192.803 278.77 192.793 278.742 192.777C278.714 192.762 278.69 192.741 278.67 192.716C278.651 192.691 278.636 192.662 278.628 192.632C278.619 192.601 278.617 192.569 278.621 192.538C278.621 192.278 281.741 166.618 278.295 156.461C277.335 153.677 274.666 151.728 270.711 150.96C265.565 149.952 259.997 151.21 258.451 152.995C258.407 153.039 258.346 153.064 258.283 153.064C258.221 153.064 258.16 153.039 258.115 152.995C258.071 152.949 258.046 152.887 258.046 152.822C258.046 152.758 258.071 152.696 258.115 152.65C259.92 150.557 265.978 149.51 270.835 150.461C274.963 151.258 277.786 153.341 278.784 156.278C282.259 166.56 279.159 192.307 279.13 192.566C279.129 192.603 279.12 192.639 279.104 192.671C279.088 192.704 279.065 192.733 279.037 192.756C279.009 192.779 278.976 192.795 278.94 192.804C278.905 192.812 278.868 192.813 278.832 192.806Z" fill="#263238"/>
<path d="M257.279 168.066C255.83 172.233 252.547 179.519 248.467 180.479C248.467 180.479 247.267 184.876 254.227 188.946C261.907 193.42 260.102 187.286 260.102 187.286C256.511 183.849 258.422 180.815 260.851 178.338L257.279 168.066Z" fill="#F0F0F0"/>
<path d="M258.719 172.252L260.831 178.329C260.26 178.903 259.737 179.522 259.267 180.182C257.807 179.02 256.243 176.188 257.049 174.422C257.471 173.604 258.037 172.869 258.719 172.252Z" fill="#E6E6E6"/>
<path d="M257.337 159.762C255.35 166.741 254.361 169.65 256.579 174.363C259.91 181.467 268.905 182.379 272.899 176.139C276.528 170.523 279.158 160.059 273.436 155.019C272.182 153.903 270.664 153.125 269.025 152.758C267.386 152.392 265.681 152.448 264.071 152.922C262.46 153.397 260.997 154.274 259.818 155.47C258.64 156.667 257.787 158.144 257.337 159.762Z" fill="#F0F0F0"/>
<path d="M255.292 164.16C260.256 166.013 271.92 159.859 275.097 156.087C275.52 150.269 261.878 152.563 261.878 152.563C261.878 152.563 254.601 150.327 255.292 164.16Z" fill="#263238"/>
<path d="M254.111 165.551C253.788 166.915 254.019 168.351 254.754 169.544C255.714 171.119 257.481 170.504 258.249 168.949C258.94 167.528 259.257 164.984 257.769 163.957C257.438 163.739 257.058 163.607 256.663 163.573C256.268 163.539 255.871 163.604 255.508 163.763C255.145 163.921 254.827 164.167 254.583 164.48C254.339 164.792 254.177 165.16 254.111 165.551Z" fill="#E6E6E6"/>
<path d="M267.023 165.322C266.822 165.879 266.956 166.435 267.321 166.56C267.686 166.685 268.137 166.339 268.339 165.782C268.54 165.226 268.396 164.678 268.031 164.544C267.667 164.41 267.215 164.765 267.023 165.322Z" fill="#263238"/>
<path d="M273.302 167.537C273.11 168.094 273.245 168.641 273.609 168.776C273.974 168.91 274.425 168.555 274.617 167.998C274.809 167.441 274.675 166.885 274.32 166.76C273.965 166.635 273.504 166.981 273.302 167.537Z" fill="#263238"/>
<path d="M274.146 166.732L275.615 166.819C275.615 166.819 274.559 167.625 274.146 166.732Z" fill="#263238"/>
<path d="M271.305 167.902C271.356 169.343 271.602 170.77 272.035 172.146C271.68 172.25 271.307 172.274 270.942 172.218C270.577 172.161 270.229 172.025 269.923 171.819L271.305 167.902Z" fill="#E6E6E6"/>
<path d="M267.255 173.336H267.197C266.443 173.091 265.759 172.67 265.202 172.107C264.644 171.545 264.229 170.857 263.991 170.101C263.982 170.055 263.991 170.008 264.016 169.969C264.041 169.929 264.08 169.901 264.125 169.89C264.147 169.884 264.17 169.883 264.193 169.887C264.215 169.891 264.237 169.9 264.256 169.912C264.275 169.925 264.291 169.941 264.303 169.961C264.315 169.98 264.323 170.002 264.327 170.024C264.559 170.719 264.95 171.35 265.468 171.868C265.986 172.386 266.617 172.777 267.312 173.01C267.351 173.023 267.383 173.05 267.404 173.085C267.425 173.12 267.433 173.162 267.426 173.202C267.419 173.242 267.398 173.279 267.366 173.305C267.335 173.332 267.296 173.346 267.255 173.346V173.336Z" fill="#263238"/>
<path d="M266.745 163.122C266.667 163.123 266.591 163.098 266.529 163.051C266.468 163.003 266.424 162.936 266.405 162.861C266.386 162.785 266.393 162.705 266.425 162.634C266.457 162.563 266.513 162.505 266.582 162.47C267.059 162.2 267.594 162.048 268.141 162.026C268.689 162.004 269.234 162.114 269.731 162.345C269.776 162.363 269.816 162.391 269.85 162.426C269.883 162.461 269.909 162.502 269.925 162.548C269.942 162.594 269.948 162.642 269.945 162.691C269.941 162.739 269.927 162.786 269.904 162.829C269.881 162.871 269.849 162.909 269.811 162.938C269.772 162.968 269.728 162.989 269.681 163.001C269.634 163.012 269.585 163.013 269.537 163.004C269.49 162.996 269.444 162.977 269.404 162.95C269.007 162.774 268.574 162.694 268.14 162.717C267.706 162.741 267.284 162.866 266.908 163.084C266.858 163.11 266.802 163.124 266.745 163.122Z" fill="#263238"/>
<path d="M277.286 165.667C277.21 165.667 277.137 165.641 277.078 165.594C277.019 165.547 276.977 165.482 276.96 165.408C276.863 164.985 276.669 164.592 276.392 164.258C276.115 163.925 275.764 163.661 275.366 163.488C275.279 163.457 275.208 163.394 275.166 163.312C275.125 163.229 275.118 163.134 275.145 163.046C275.159 163.003 275.182 162.962 275.212 162.928C275.242 162.893 275.279 162.865 275.32 162.845C275.362 162.826 275.407 162.814 275.453 162.813C275.498 162.811 275.544 162.819 275.587 162.835C276.095 163.044 276.545 163.372 276.899 163.791C277.253 164.211 277.501 164.709 277.622 165.245C277.634 165.289 277.636 165.335 277.63 165.38C277.624 165.425 277.608 165.469 277.585 165.508C277.562 165.547 277.531 165.582 277.495 165.609C277.458 165.636 277.417 165.656 277.372 165.667H277.286Z" fill="#263238"/>
<path d="M267.84 164.523L269.309 164.61C269.309 164.61 268.281 165.407 267.84 164.523Z" fill="#263238"/>
<path d="M236.736 175.555C233.712 174.835 224.409 181.92 224.409 181.92L228.355 194.506C228.355 194.506 238.08 189.12 238.982 185.155C239.875 181.046 240.182 176.381 236.736 175.555Z" fill="#0A2B51"/>
<path opacity="0.7" d="M236.736 175.555C233.712 174.835 224.409 181.92 224.409 181.92L228.355 194.506C228.355 194.506 238.08 189.12 238.982 185.155C239.875 181.046 240.182 176.381 236.736 175.555Z" fill="#102C4C"/>
</g>
<path d="M347.52 95.4629H276.288C273.232 95.4629 270.302 96.6766 268.142 98.837C265.981 100.997 264.768 103.928 264.768 106.983V129.063C264.768 132.118 265.981 135.048 268.142 137.209C270.302 139.369 273.232 140.583 276.288 140.583H282.24V151.911L293.568 140.583H347.52C350.575 140.583 353.505 139.369 355.665 137.209C357.826 135.048 359.04 132.118 359.04 129.063V106.983C359.04 103.928 357.826 100.997 355.665 98.837C353.505 96.6766 350.575 95.4629 347.52 95.4629Z" fill="#0A2B51"/>
<path d="M347.52 95.4629H276.288C273.232 95.4629 270.302 96.6766 268.142 98.837C265.981 100.997 264.768 103.928 264.768 106.983V129.063C264.768 132.118 265.981 135.048 268.142 137.209C270.302 139.369 273.232 140.583 276.288 140.583H282.24V151.911L293.568 140.583H347.52C350.575 140.583 353.505 139.369 355.665 137.209C357.826 135.048 359.04 132.118 359.04 129.063V106.983C359.04 103.928 357.826 100.997 355.665 98.837C353.505 96.6766 350.575 95.4629 347.52 95.4629Z" fill="#A1FFA1"/>
<g opacity="0.54">
<path d="M345.849 104.641H277.939C276.481 104.641 275.299 105.823 275.299 107.281C275.299 108.739 276.481 109.921 277.939 109.921H345.849C347.307 109.921 348.489 108.739 348.489 107.281C348.489 105.823 347.307 104.641 345.849 104.641Z" fill="#102C4C"/>
</g>
<g opacity="0.54">
<path d="M345.84 120.413H302.314C301.612 120.41 300.939 120.13 300.443 119.634C299.947 119.137 299.667 118.465 299.664 117.763C299.667 117.062 299.947 116.391 300.444 115.896C300.94 115.401 301.613 115.123 302.314 115.123H345.84C346.54 115.123 347.212 115.401 347.707 115.896C348.202 116.391 348.48 117.063 348.48 117.763C348.48 118.464 348.202 119.137 347.707 119.633C347.213 120.13 346.541 120.41 345.84 120.413Z" fill="#102C4C"/>
</g>
<g opacity="0.54">
<path d="M289.392 120.413H277.939C277.238 120.41 276.566 120.13 276.072 119.633C275.577 119.137 275.299 118.464 275.299 117.763C275.299 117.063 275.577 116.391 276.072 115.896C276.567 115.401 277.239 115.123 277.939 115.123H289.392C290.092 115.123 290.763 115.401 291.258 115.896C291.753 116.391 292.032 117.063 292.032 117.763C292.032 118.464 291.754 119.137 291.259 119.633C290.764 120.13 290.093 120.41 289.392 120.413Z" fill="#102C4C"/>
</g>
<g opacity="0.54">
<path d="M328.886 130.897H277.939C277.239 130.897 276.567 130.619 276.072 130.124C275.577 129.629 275.299 128.957 275.299 128.257C275.299 127.556 275.577 126.883 276.072 126.387C276.566 125.89 277.238 125.61 277.939 125.607H328.886C329.587 125.61 330.259 125.89 330.753 126.387C331.248 126.883 331.526 127.556 331.526 128.257C331.526 128.957 331.248 129.629 330.753 130.124C330.258 130.619 329.586 130.897 328.886 130.897Z" fill="#102C4C"/>
</g>
</svg>
