<svg width="28" height="28" viewBox="0 0 28 28" fill="none" xmlns="http://www.w3.org/2000/svg">
<path fill-rule="evenodd" clip-rule="evenodd" d="M5.83366 5.41602C5.60354 5.41602 5.41699 5.60256 5.41699 5.83268V22.166C5.41699 22.3961 5.60354 22.5827 5.83366 22.5827H22.167C22.3971 22.5827 22.5837 22.3961 22.5837 22.166V5.83268C22.5837 5.60256 22.3971 5.41602 22.167 5.41602H5.83366ZM3.91699 5.83268C3.91699 4.77414 4.77511 3.91602 5.83366 3.91602H22.167C23.2255 3.91602 24.0837 4.77414 24.0837 5.83268V22.166C24.0837 23.2246 23.2255 24.0827 22.167 24.0827H5.83366C4.77511 24.0827 3.91699 23.2246 3.91699 22.166V5.83268Z" fill="#A1FFA1"/>
<path fill-rule="evenodd" clip-rule="evenodd" d="M3.91699 9.33398C3.91699 8.91977 4.25278 8.58398 4.66699 8.58398H23.3337C23.7479 8.58398 24.0837 8.91977 24.0837 9.33398C24.0837 9.7482 23.7479 10.084 23.3337 10.084H4.66699C4.25278 10.084 3.91699 9.7482 3.91699 9.33398Z" fill="#A1FFA1"/>
<path fill-rule="evenodd" clip-rule="evenodd" d="M9.33301 3.91602C9.74722 3.91602 10.083 4.2518 10.083 4.66602V9.33268C10.083 9.7469 9.74722 10.0827 9.33301 10.0827C8.91879 10.0827 8.58301 9.7469 8.58301 9.33268V4.66602C8.58301 4.2518 8.91879 3.91602 9.33301 3.91602Z" fill="#A1FFA1"/>
</svg>
