<svg width="34" height="34" viewBox="0 0 34 34" fill="none" xmlns="http://www.w3.org/2000/svg">
<path d="M4.25 17H5.66667M17 4.25V5.66667M28.3333 17H29.75M7.93333 7.93333L8.925 8.925M26.0667 7.93333L25.075 8.925" stroke="#0A2B51" stroke-width="1.8" stroke-linecap="round" stroke-linejoin="round"/>
<path d="M12.7513 22.6663C11.562 21.7743 10.6834 20.5307 10.2402 19.1117C9.79689 17.6926 9.81134 16.1701 10.2815 14.7597C10.7516 13.3493 11.6536 12.1226 12.8596 11.2534C14.0657 10.3841 15.5146 9.91632 17.0013 9.91632C18.488 9.91632 19.937 10.3841 21.143 11.2534C22.349 12.1226 23.251 13.3493 23.7211 14.7597C24.1913 16.1701 24.2057 17.6926 23.7624 19.1117C23.3192 20.5307 22.4406 21.7743 21.2513 22.6663C20.6982 23.2138 20.2817 23.8839 20.0356 24.6222C19.7895 25.3605 19.7207 26.1464 19.8346 26.9163C19.8346 27.6678 19.5361 28.3884 19.0048 28.9198C18.4734 29.4511 17.7527 29.7497 17.0013 29.7497C16.2499 29.7497 15.5292 29.4511 14.9978 28.9198C14.4665 28.3884 14.168 27.6678 14.168 26.9163C14.2819 26.1464 14.2131 25.3605 13.967 24.6222C13.7209 23.8839 13.3044 23.2138 12.7513 22.6663Z" stroke="#0A2B51" stroke-width="1.8" stroke-linecap="round" stroke-linejoin="round"/>
<path d="M13.7422 24.0837H20.2589" stroke="#0A2B51" stroke-width="1.8" stroke-linecap="round" stroke-linejoin="round"/>
</svg>
