<svg width="120" height="120" viewBox="0 0 120 120" fill="none" xmlns="http://www.w3.org/2000/svg">
<g clip-path="url(#clip0_442_20)">
<path d="M60 105C84.8528 105 105 84.8528 105 60C105 35.1472 84.8528 15 60 15C35.1472 15 15 35.1472 15 60C15 84.8528 35.1472 105 60 105Z" stroke="#0A2B51" stroke-width="3" stroke-linecap="round" stroke-linejoin="round"/>
<path d="M74 44.9998C73.0942 43.4286 71.7783 42.1333 70.1929 41.2526C68.6076 40.3718 66.8125 39.9388 65 39.9998H55C52.3478 39.9998 49.8043 41.0534 47.9289 42.9287C46.0536 44.8041 45 47.3476 45 49.9998C45 52.652 46.0536 55.1955 47.9289 57.0709C49.8043 58.9462 52.3478 59.9998 55 59.9998H65C67.6522 59.9998 70.1957 61.0534 72.0711 62.9287C73.9464 64.8041 75 67.3476 75 69.9998C75 72.652 73.9464 75.1955 72.0711 77.0709C70.1957 78.9462 67.6522 79.9998 65 79.9998H55C53.1875 80.0608 51.3924 79.6278 49.8071 78.747C48.2217 77.8663 46.9058 76.571 46 74.9998" stroke="#0A2B51" stroke-width="3" stroke-linecap="round" stroke-linejoin="round"/>
<path d="M60 30V40M60 80V90" stroke="#0A2B51" stroke-width="3" stroke-linecap="round" stroke-linejoin="round"/>
</g>
<defs>
<clipPath id="clip0_442_20">
<rect width="120" height="120" fill="white"/>
</clipPath>
</defs>
</svg>
