<svg width="535" height="442" viewBox="0 0 535 442" fill="none" xmlns="http://www.w3.org/2000/svg">
<path d="M508.018 259.501C513.904 220.837 509.694 181.027 499.426 143.509C490.204 109.843 478.576 75.2742 451.512 51.6318C418.719 22.9918 377.778 19.2543 336.221 24.1088C253.982 33.6889 230.497 -1.53833 169.651 0.595353C108.805 2.72903 55.4348 28.3475 38.351 80.6585C21.2672 132.969 47.9597 187.414 35.1433 218.36C22.3269 249.305 -13.96 280.279 7.39116 325.115C28.7423 369.951 75.7119 405.178 184.673 413.713C293.634 422.248 388.561 426.529 450.481 369.951C483.961 339.292 501.746 300.657 508.018 259.501Z" fill="#0A2B51"/>
<path d="M508.018 259.501C513.904 220.837 509.694 181.027 499.426 143.509C490.204 109.843 478.576 75.2742 451.512 51.6318C418.719 22.9918 377.778 19.2543 336.221 24.1088C253.982 33.6889 230.497 -1.53833 169.651 0.595353C108.805 2.72903 55.4348 28.3475 38.351 80.6585C21.2672 132.969 47.9597 187.414 35.1433 218.36C22.3269 249.305 -13.96 280.279 7.39116 325.115C28.7423 369.951 75.7119 405.178 184.673 413.713C293.634 422.248 388.561 426.529 450.481 369.951C483.961 339.292 501.746 300.657 508.018 259.501Z" fill="#F3F4F6"/>
<path d="M132.291 55.5697C131.876 55.5699 131.476 55.4088 131.177 55.1203C130.878 54.8318 130.702 54.4385 130.688 54.0231V34.7484C130.688 34.323 130.856 33.9151 131.157 33.6143C131.458 33.3135 131.866 33.1445 132.291 33.1445C132.717 33.1445 133.125 33.3135 133.425 33.6143C133.726 33.9151 133.895 34.323 133.895 34.7484V54.0231C133.88 54.4385 133.705 54.8318 133.406 55.1203C133.106 55.4088 132.707 55.5699 132.291 55.5697Z" fill="#0A2B51"/>
<path d="M141.902 45.9622H122.685C122.463 45.9833 122.238 45.9577 122.026 45.8871C121.814 45.8164 121.62 45.7023 121.454 45.552C121.289 45.4016 121.157 45.2185 121.067 45.0142C120.976 44.8099 120.93 44.5889 120.93 44.3656C120.93 44.1422 120.976 43.9213 121.067 43.717C121.157 43.5127 121.289 43.3295 121.454 43.1792C121.62 43.0288 121.814 42.9147 122.026 42.8441C122.238 42.7734 122.463 42.7478 122.685 42.7689H141.902C142.125 42.7478 142.349 42.7734 142.561 42.8441C142.773 42.9147 142.968 43.0288 143.133 43.1792C143.298 43.3295 143.43 43.5127 143.521 43.717C143.611 43.9213 143.658 44.1422 143.658 44.3656C143.658 44.5889 143.611 44.8099 143.521 45.0142C143.43 45.2185 143.298 45.4016 143.133 45.552C142.968 45.7023 142.773 45.8164 142.561 45.8871C142.349 45.9577 142.125 45.9833 141.902 45.9622Z" fill="#0A2B51"/>
<path d="M476.03 285.091C475.604 285.091 475.196 284.922 474.896 284.622C474.595 284.321 474.426 283.913 474.426 283.488V268.537C474.426 268.112 474.595 267.704 474.896 267.403C475.196 267.103 475.604 266.934 476.03 266.934C476.455 266.934 476.863 267.103 477.164 267.403C477.464 267.704 477.633 268.112 477.633 268.537V283.488C477.633 283.913 477.464 284.321 477.164 284.622C476.863 284.922 476.455 285.091 476.03 285.091Z" fill="#0A2B51"/>
<path d="M483.503 277.616H468.553C468.128 277.616 467.72 277.447 467.419 277.146C467.118 276.845 466.949 276.437 466.949 276.012C466.949 275.587 467.118 275.179 467.419 274.878C467.72 274.577 468.128 274.408 468.553 274.408H483.503C483.929 274.408 484.336 274.577 484.637 274.878C484.938 275.179 485.107 275.587 485.107 276.012C485.107 276.437 484.938 276.845 484.637 277.146C484.336 277.447 483.929 277.616 483.503 277.616Z" fill="#0A2B51"/>
<path d="M35.7484 301.102C35.323 301.102 34.9151 300.933 34.6143 300.632C34.3135 300.331 34.1445 299.923 34.1445 299.498V289.889C34.1445 289.464 34.3135 289.056 34.6143 288.755C34.9151 288.454 35.323 288.285 35.7484 288.285C36.1737 288.285 36.5817 288.454 36.8825 288.755C37.1832 289.056 37.3522 289.464 37.3522 289.889V299.498C37.3522 299.923 37.1832 300.331 36.8825 300.632C36.5817 300.933 36.1737 301.102 35.7484 301.102Z" fill="#0A2B51"/>
<path d="M40.4889 296.29H30.8802C30.6578 296.311 30.4335 296.286 30.2216 296.215C30.0097 296.145 29.8148 296.03 29.6496 295.88C29.4844 295.73 29.3523 295.547 29.262 295.342C29.1717 295.138 29.125 294.917 29.125 294.694C29.125 294.47 29.1717 294.249 29.262 294.045C29.3523 293.841 29.4844 293.658 29.6496 293.507C29.8148 293.357 30.0097 293.243 30.2216 293.172C30.4335 293.102 30.6578 293.076 30.8802 293.097H40.4889C40.7113 293.076 40.9357 293.102 41.1476 293.172C41.3595 293.243 41.5543 293.357 41.7196 293.507C41.8848 293.658 42.0168 293.841 42.1072 294.045C42.1975 294.249 42.2442 294.47 42.2442 294.694C42.2442 294.917 42.1975 295.138 42.1072 295.342C42.0168 295.547 41.8848 295.73 41.7196 295.88C41.5543 296.03 41.3595 296.145 41.1476 296.215C40.9357 296.286 40.7113 296.311 40.4889 296.29Z" fill="#0A2B51"/>
<path d="M74.1123 72.124C73.6894 72.1202 73.2851 71.9496 72.9875 71.6492C72.6898 71.3489 72.5228 70.9431 72.5228 70.5202V60.9115C72.5017 60.6891 72.5273 60.4647 72.598 60.2528C72.6686 60.0409 72.7827 59.8461 72.9331 59.6808C73.0834 59.5156 73.2666 59.3836 73.4709 59.2933C73.6752 59.2029 73.8961 59.1562 74.1195 59.1562C74.3428 59.1562 74.5638 59.2029 74.7681 59.2933C74.9724 59.3836 75.1555 59.5156 75.3059 59.6808C75.4562 59.8461 75.5703 60.0409 75.641 60.2528C75.7116 60.4647 75.7372 60.6891 75.7162 60.9115V70.5202C75.7162 70.9456 75.5472 71.3535 75.2464 71.6543C74.9456 71.9551 74.5377 72.124 74.1123 72.124Z" fill="#0A2B51"/>
<path d="M78.9235 67.3132H69.3148C68.8894 67.3132 68.4815 67.1442 68.1807 66.8434C67.8799 66.5426 67.7109 66.1347 67.7109 65.7093C67.7109 65.284 67.8799 64.876 68.1807 64.5752C68.4815 64.2745 68.8894 64.1055 69.3148 64.1055H78.9235C79.3489 64.1055 79.7568 64.2745 80.0576 64.5752C80.3584 64.876 80.5273 65.284 80.5273 65.7093C80.5273 66.1347 80.3584 66.5426 80.0576 66.8434C79.7568 67.1442 79.3489 67.3132 78.9235 67.3132Z" fill="#0A2B51"/>
<path d="M320.172 335.255C319.749 335.251 319.344 335.08 319.047 334.78C318.749 334.48 318.582 334.074 318.582 333.651V324.042C318.62 323.645 318.804 323.276 319.099 323.007C319.395 322.739 319.78 322.59 320.179 322.59C320.578 322.59 320.963 322.739 321.258 323.007C321.553 323.276 321.738 323.645 321.775 324.042V333.651C321.775 334.076 321.606 334.484 321.306 334.785C321.005 335.086 320.597 335.255 320.172 335.255Z" fill="#0A2B51"/>
<path d="M325.009 330.399H315.401C314.975 330.399 314.567 330.23 314.267 329.929C313.966 329.629 313.797 329.221 313.797 328.795C313.797 328.37 313.966 327.962 314.267 327.661C314.567 327.36 314.975 327.191 315.401 327.191H325.009C325.435 327.191 325.843 327.36 326.144 327.661C326.444 327.962 326.613 328.37 326.613 328.795C326.613 329.221 326.444 329.629 326.144 329.929C325.843 330.23 325.435 330.399 325.009 330.399Z" fill="#0A2B51"/>
<path d="M466.422 124.965C465.261 124.965 464.126 124.621 463.16 123.976C462.195 123.33 461.442 122.413 460.998 121.341C460.553 120.268 460.437 119.087 460.664 117.948C460.89 116.81 461.449 115.763 462.27 114.942C463.092 114.121 464.138 113.562 465.277 113.335C466.415 113.109 467.596 113.225 468.669 113.67C469.742 114.114 470.659 114.866 471.304 115.832C471.949 116.797 472.293 117.933 472.293 119.094C472.289 120.65 471.67 122.141 470.569 123.241C469.469 124.342 467.978 124.961 466.422 124.965ZM466.422 116.373C465.892 116.373 465.375 116.53 464.934 116.824C464.494 117.119 464.151 117.537 463.948 118.026C463.745 118.515 463.692 119.054 463.796 119.573C463.899 120.093 464.154 120.57 464.528 120.944C464.903 121.319 465.38 121.574 465.9 121.677C466.419 121.781 466.957 121.728 467.447 121.525C467.936 121.322 468.354 120.979 468.649 120.539C468.943 120.098 469.1 119.581 469.1 119.051C469.089 118.348 468.801 117.678 468.3 117.185C467.799 116.692 467.125 116.416 466.422 116.416V116.373Z" fill="#0A2B51"/>
<path d="M341.52 50.2285C339.937 50.2285 338.39 49.759 337.073 48.8794C335.757 47.9999 334.731 46.7497 334.125 45.287C333.519 43.8243 333.361 42.2148 333.669 40.662C333.978 39.1092 334.741 37.6828 335.86 36.5633C336.98 35.4438 338.406 34.6814 339.959 34.3726C341.512 34.0637 343.121 34.2222 344.584 34.8281C346.047 35.434 347.297 36.46 348.176 37.7764C349.056 39.0928 349.525 40.6404 349.525 42.2236C349.525 44.3467 348.682 46.3827 347.181 47.8839C345.68 49.3851 343.644 50.2285 341.52 50.2285ZM341.52 37.4264C340.568 37.4264 339.637 37.709 338.846 38.2383C338.054 38.7677 337.438 39.52 337.074 40.4C336.71 41.28 336.616 42.2482 336.803 43.1819C336.989 44.1156 337.449 44.9729 338.123 45.6453C338.798 46.3176 339.656 46.7747 340.591 46.9588C341.525 47.1428 342.493 47.0455 343.372 46.6791C344.251 46.3127 345.001 45.6938 345.528 44.9007C346.055 44.1075 346.335 43.1759 346.332 42.2236C346.332 41.5925 346.207 40.9675 345.965 40.3845C345.723 39.8016 345.369 39.2721 344.922 38.8264C344.475 38.3808 343.944 38.0277 343.361 37.7875C342.777 37.5472 342.152 37.4246 341.52 37.4264Z" fill="#0A2B51"/>
<path d="M202.747 312.844C201.164 312.844 199.616 312.374 198.3 311.495C196.983 310.615 195.957 309.365 195.352 307.902C194.746 306.44 194.587 304.83 194.896 303.277C195.205 301.724 195.967 300.298 197.087 299.179C198.206 298.059 199.633 297.297 201.185 296.988C202.738 296.679 204.348 296.837 205.81 297.443C207.273 298.049 208.523 299.075 209.403 300.392C210.282 301.708 210.752 303.256 210.752 304.839C210.748 306.961 209.904 308.995 208.403 310.495C206.903 311.995 204.869 312.84 202.747 312.844ZM202.747 300.027C201.795 300.027 200.865 300.31 200.074 300.838C199.283 301.367 198.666 302.118 198.302 302.998C197.938 303.877 197.842 304.844 198.028 305.778C198.214 306.711 198.672 307.568 199.345 308.241C200.018 308.914 200.875 309.372 201.808 309.558C202.742 309.744 203.709 309.648 204.588 309.284C205.468 308.92 206.219 308.303 206.748 307.512C207.276 306.721 207.559 305.79 207.559 304.839C207.559 304.207 207.434 303.581 207.192 302.998C206.951 302.414 206.596 301.883 206.149 301.437C205.703 300.99 205.172 300.635 204.588 300.394C204.005 300.152 203.379 300.027 202.747 300.027Z" fill="#0A2B51"/>
<g opacity="0.5">
<path d="M132.295 55.5697C131.88 55.5699 131.48 55.4088 131.181 55.1203C130.882 54.8318 130.706 54.4385 130.691 54.0231V34.7484C130.691 34.323 130.86 33.9151 131.161 33.6143C131.462 33.3135 131.87 33.1445 132.295 33.1445C132.721 33.1445 133.129 33.3135 133.429 33.6143C133.73 33.9151 133.899 34.323 133.899 34.7484V54.0231C133.884 54.4385 133.709 54.8318 133.41 55.1203C133.11 55.4088 132.711 55.5699 132.295 55.5697Z" fill="white"/>
<path d="M141.902 45.9603H122.685C122.463 45.9814 122.238 45.9558 122.026 45.8851C121.814 45.8145 121.62 45.7003 121.454 45.55C121.289 45.3997 121.157 45.2165 121.067 45.0122C120.976 44.8079 120.93 44.587 120.93 44.3636C120.93 44.1402 120.976 43.9193 121.067 43.715C121.157 43.5107 121.289 43.3275 121.454 43.1772C121.62 43.0269 121.814 42.9128 122.026 42.8421C122.238 42.7715 122.463 42.7458 122.685 42.7669H141.902C142.125 42.7458 142.349 42.7715 142.561 42.8421C142.773 42.9128 142.968 43.0269 143.133 43.1772C143.298 43.3275 143.43 43.5107 143.521 43.715C143.611 43.9193 143.658 44.1402 143.658 44.3636C143.658 44.587 143.611 44.8079 143.521 45.0122C143.43 45.2165 143.298 45.3997 143.133 45.55C142.968 45.7003 142.773 45.8145 142.561 45.8851C142.349 45.9558 142.125 45.9814 141.902 45.9603Z" fill="white"/>
<path d="M476.034 285.091C475.608 285.091 475.2 284.922 474.899 284.622C474.599 284.321 474.43 283.913 474.43 283.488V268.537C474.43 268.112 474.599 267.704 474.899 267.403C475.2 267.103 475.608 266.934 476.034 266.934C476.459 266.934 476.867 267.103 477.168 267.403C477.468 267.704 477.637 268.112 477.637 268.537V283.488C477.637 283.913 477.468 284.321 477.168 284.622C476.867 284.922 476.459 285.091 476.034 285.091Z" fill="white"/>
<path d="M483.507 277.616H468.557C468.132 277.616 467.724 277.447 467.423 277.146C467.122 276.845 466.953 276.437 466.953 276.012C466.953 275.587 467.122 275.179 467.423 274.878C467.724 274.577 468.132 274.408 468.557 274.408H483.507C483.932 274.408 484.34 274.577 484.641 274.878C484.942 275.179 485.111 275.587 485.111 276.012C485.111 276.437 484.942 276.845 484.641 277.146C484.34 277.447 483.932 277.616 483.507 277.616Z" fill="white"/>
<path d="M35.7484 301.1C35.323 301.1 34.9151 300.931 34.6143 300.63C34.3135 300.329 34.1445 299.921 34.1445 299.496V289.887C34.1445 289.462 34.3135 289.054 34.6143 288.753C34.9151 288.452 35.323 288.283 35.7484 288.283C36.1737 288.283 36.5817 288.452 36.8825 288.753C37.1832 289.054 37.3522 289.462 37.3522 289.887V299.496C37.3522 299.921 37.1832 300.329 36.8825 300.63C36.5817 300.931 36.1737 301.1 35.7484 301.1Z" fill="white"/>
<path d="M40.4889 296.288H30.8802C30.6578 296.309 30.4335 296.284 30.2216 296.213C30.0097 296.143 29.8148 296.028 29.6496 295.878C29.4844 295.728 29.3523 295.545 29.262 295.34C29.1717 295.136 29.125 294.915 29.125 294.692C29.125 294.468 29.1717 294.247 29.262 294.043C29.3523 293.839 29.4844 293.656 29.6496 293.505C29.8148 293.355 30.0097 293.241 30.2216 293.17C30.4335 293.1 30.6578 293.074 30.8802 293.095H40.4889C40.7113 293.074 40.9357 293.1 41.1476 293.17C41.3595 293.241 41.5543 293.355 41.7196 293.505C41.8848 293.656 42.0168 293.839 42.1072 294.043C42.1975 294.247 42.2442 294.468 42.2442 294.692C42.2442 294.915 42.1975 295.136 42.1072 295.34C42.0168 295.545 41.8848 295.728 41.7196 295.878C41.5543 296.028 41.3595 296.143 41.1476 296.213C40.9357 296.284 40.7113 296.309 40.4889 296.288Z" fill="white"/>
<path d="M74.1123 72.124C73.6894 72.1202 73.2851 71.9496 72.9875 71.6492C72.6898 71.3489 72.5228 70.9431 72.5228 70.5202V60.9115C72.5017 60.6891 72.5273 60.4647 72.598 60.2528C72.6686 60.0409 72.7827 59.8461 72.9331 59.6808C73.0834 59.5156 73.2666 59.3836 73.4709 59.2933C73.6752 59.2029 73.8961 59.1562 74.1195 59.1562C74.3428 59.1562 74.5638 59.2029 74.7681 59.2933C74.9724 59.3836 75.1555 59.5156 75.3059 59.6808C75.4562 59.8461 75.5703 60.0409 75.641 60.2528C75.7116 60.4647 75.7372 60.6891 75.7162 60.9115V70.5202C75.7162 70.9456 75.5472 71.3535 75.2464 71.6543C74.9456 71.9551 74.5377 72.124 74.1123 72.124Z" fill="white"/>
<path d="M78.9235 67.3112H69.3148C68.8894 67.3112 68.4815 67.1422 68.1807 66.8415C67.8799 66.5407 67.7109 66.1327 67.7109 65.7074C67.7109 65.282 67.8799 64.8741 68.1807 64.5733C68.4815 64.2725 68.8894 64.1035 69.3148 64.1035H78.9235C79.3489 64.1035 79.7568 64.2725 80.0576 64.5733C80.3584 64.8741 80.5273 65.282 80.5273 65.7074C80.5273 66.1327 80.3584 66.5407 80.0576 66.8415C79.7568 67.1422 79.3489 67.3112 78.9235 67.3112Z" fill="white"/>
<path d="M320.172 335.253C319.749 335.249 319.344 335.078 319.047 334.778C318.749 334.478 318.582 334.072 318.582 333.649V324.04C318.62 323.643 318.804 323.274 319.099 323.005C319.395 322.737 319.78 322.588 320.179 322.588C320.578 322.588 320.963 322.737 321.258 323.005C321.553 323.274 321.738 323.643 321.775 324.04V333.649C321.775 334.074 321.606 334.482 321.306 334.783C321.005 335.084 320.597 335.253 320.172 335.253Z" fill="white"/>
<path d="M325.013 330.399H315.405C314.979 330.399 314.571 330.23 314.271 329.929C313.97 329.629 313.801 329.221 313.801 328.795C313.801 328.37 313.97 327.962 314.271 327.661C314.571 327.36 314.979 327.191 315.405 327.191H325.013C325.439 327.191 325.847 327.36 326.147 327.661C326.448 327.962 326.617 328.37 326.617 328.795C326.617 329.221 326.448 329.629 326.147 329.929C325.847 330.23 325.439 330.399 325.013 330.399Z" fill="white"/>
<path d="M466.422 124.965C465.261 124.965 464.126 124.621 463.16 123.976C462.195 123.33 461.442 122.413 460.998 121.341C460.553 120.268 460.437 119.087 460.664 117.948C460.89 116.81 461.449 115.763 462.27 114.942C463.092 114.121 464.138 113.562 465.277 113.335C466.415 113.109 467.596 113.225 468.669 113.67C469.742 114.114 470.659 114.866 471.304 115.832C471.949 116.797 472.293 117.933 472.293 119.094C472.289 120.65 471.67 122.141 470.569 123.241C469.469 124.342 467.978 124.961 466.422 124.965ZM466.422 116.373C465.892 116.373 465.375 116.53 464.934 116.824C464.494 117.119 464.151 117.537 463.948 118.026C463.745 118.515 463.692 119.054 463.796 119.573C463.899 120.093 464.154 120.57 464.528 120.944C464.903 121.319 465.38 121.574 465.9 121.677C466.419 121.781 466.957 121.728 467.447 121.525C467.936 121.322 468.354 120.979 468.649 120.539C468.943 120.098 469.1 119.581 469.1 119.051C469.089 118.348 468.801 117.678 468.3 117.185C467.799 116.692 467.125 116.416 466.422 116.416V116.373Z" fill="white"/>
<path d="M341.524 50.2285C339.941 50.2285 338.394 49.759 337.077 48.8794C335.761 47.9999 334.735 46.7497 334.129 45.287C333.523 43.8243 333.364 42.2148 333.673 40.662C333.982 39.1092 334.745 37.6828 335.864 36.5633C336.984 35.4438 338.41 34.6814 339.963 34.3726C341.516 34.0637 343.125 34.2222 344.588 34.8281C346.05 35.434 347.301 36.46 348.18 37.7764C349.06 39.0928 349.529 40.6404 349.529 42.2236C349.529 44.3467 348.686 46.3827 347.185 47.8839C345.683 49.3851 343.647 50.2285 341.524 50.2285ZM341.524 37.4264C340.572 37.4264 339.641 37.709 338.85 38.2383C338.058 38.7677 337.442 39.52 337.078 40.4C336.714 41.28 336.62 42.2482 336.806 43.1819C336.993 44.1156 337.453 44.9729 338.127 45.6453C338.802 46.3176 339.66 46.7747 340.595 46.9588C341.529 47.1428 342.497 47.0455 343.376 46.6791C344.255 46.3127 345.005 45.6938 345.532 44.9007C346.059 44.1075 346.339 43.1759 346.336 42.2236C346.336 41.5925 346.211 40.9675 345.969 40.3845C345.727 39.8016 345.373 39.2721 344.926 38.8264C344.479 38.3808 343.948 38.0277 343.365 37.7875C342.781 37.5472 342.156 37.4246 341.524 37.4264Z" fill="white"/>
<path d="M202.747 312.842C201.164 312.842 199.616 312.372 198.3 311.493C196.983 310.613 195.957 309.363 195.352 307.9C194.746 306.438 194.587 304.828 194.896 303.275C195.205 301.722 195.967 300.296 197.087 299.177C198.206 298.057 199.633 297.295 201.185 296.986C202.738 296.677 204.348 296.835 205.81 297.441C207.273 298.047 208.523 299.073 209.403 300.39C210.282 301.706 210.752 303.254 210.752 304.837C210.748 306.959 209.904 308.993 208.403 310.493C206.903 311.993 204.869 312.838 202.747 312.842ZM202.747 300.025C201.795 300.025 200.865 300.308 200.074 300.836C199.283 301.365 198.666 302.116 198.302 302.996C197.938 303.875 197.842 304.842 198.028 305.776C198.214 306.709 198.672 307.566 199.345 308.239C200.018 308.912 200.875 309.37 201.808 309.556C202.742 309.742 203.709 309.646 204.588 309.282C205.468 308.918 206.219 308.301 206.748 307.51C207.276 306.719 207.559 305.789 207.559 304.837C207.559 304.205 207.434 303.579 207.192 302.996C206.951 302.412 206.596 301.881 206.149 301.435C205.703 300.988 205.172 300.633 204.588 300.392C204.005 300.15 203.379 300.025 202.747 300.025Z" fill="white"/>
</g>
<path d="M209.391 30.4673L207.143 23.5508L204.894 30.4673H197.605L203.491 34.749L201.243 41.6799L207.143 37.3982L213.028 41.6799L210.78 34.749L216.68 30.4673H209.391Z" fill="#0A2B51"/>
<path d="M233.706 30.4673L231.443 23.5508L229.195 30.4673H221.906L227.806 34.749L225.558 41.6799L231.443 37.3982L237.343 41.6799L235.095 34.749L240.981 30.4673H233.706Z" fill="#0A2B51"/>
<path d="M258.008 30.4673L255.76 23.5508L253.512 30.4673H246.223L252.108 34.749L249.86 41.6799L255.76 37.3982L261.645 41.6799L259.397 34.749L265.297 30.4673H258.008Z" fill="#0A2B51"/>
<path d="M282.324 30.4673L280.076 23.5508L277.814 30.4673H270.539L276.425 34.749L274.176 41.6799L280.076 37.3982L285.962 41.6799L283.713 34.749L289.599 30.4673H282.324Z" fill="#0A2B51"/>
<path d="M313.914 30.4673H306.625L304.377 23.5508L302.129 30.4673H294.84L300.74 34.749L298.491 41.6799L304.377 37.3982L310.277 41.6799L308.014 34.749L313.914 30.4673Z" fill="#0A2B51"/>
<g opacity="0.5">
<path d="M209.391 30.4673L207.143 23.5508L204.894 30.4673H197.605L203.491 34.749L201.243 41.6799L207.143 37.3982L213.028 41.6799L210.78 34.749L216.68 30.4673H209.391Z" fill="white"/>
<path d="M233.706 30.4673L231.443 23.5508L229.195 30.4673H221.906L227.806 34.749L225.558 41.6799L231.443 37.3982L237.343 41.6799L235.095 34.749L240.981 30.4673H233.706Z" fill="white"/>
<path d="M258.008 30.4673L255.76 23.5508L253.512 30.4673H246.223L252.108 34.749L249.86 41.6799L255.76 37.3982L261.645 41.6799L259.397 34.749L265.297 30.4673H258.008Z" fill="white"/>
<path d="M282.324 30.4673L280.076 23.5508L277.814 30.4673H270.539L276.425 34.749L274.176 41.6799L280.076 37.3982L285.962 41.6799L283.713 34.749L289.599 30.4673H282.324Z" fill="white"/>
<path d="M313.914 30.4673H306.625L304.377 23.5508L302.129 30.4673H294.84L300.74 34.749L298.491 41.6799L304.377 37.3982L310.277 41.6799L308.014 34.749L313.914 30.4673Z" fill="white"/>
</g>
<path d="M522.627 318.071C516.512 313.875 507.361 313.173 507.361 313.173C516.162 312.036 525.103 312.753 533.61 315.279C533.61 315.279 525.018 308.978 518.961 308.978C512.903 308.978 503.094 308.276 503.094 308.276C506.76 304.08 520.178 299.183 520.178 299.183C515.491 299.16 510.806 299.394 506.144 299.885C501.848 300.586 500.66 305.484 500.66 305.484C500.66 305.484 499.428 302.62 490.278 300.586C481.127 298.553 478.693 305.484 478.693 305.484H487.285C490.335 305.484 494.602 309.679 494.602 309.679C494.602 309.679 484.85 309.679 481.184 311.784C478.034 313.589 474.024 321.078 472.922 323.14C475.43 310.24 478.993 297.567 483.576 285.249L483.819 285.063C486.847 282.98 489.719 280.678 492.411 278.175L502.722 295.359L501.863 280.739C501.863 280.739 510.454 283.331 513.046 285.908C515.638 288.486 523.371 297.078 523.371 297.078C523.371 297.078 519.934 284.19 515.624 279.894C511.862 276.435 507.835 273.275 503.581 270.443C503.581 270.443 513.046 270.443 516.469 272.161C519.891 273.879 530.23 280.753 530.23 280.753C530.23 280.753 523.357 268.724 518.187 266.132C513.018 263.54 499.271 263.555 499.271 263.555C499.271 263.555 505.299 258.399 509.595 258.399H521.638C521.638 258.399 518.187 249.807 505.299 252.385C492.411 254.963 490.679 258.399 490.679 258.399C490.679 258.399 488.946 252.385 482.931 251.512C476.917 250.638 463.156 250.652 463.156 250.652C463.156 250.652 482.072 256.681 487.227 261.836C487.227 261.836 473.466 262.695 464.874 262.695C456.282 262.695 444.239 270.443 444.239 270.443C444.239 270.443 462.296 265.273 481.213 267.865C481.213 267.865 468.325 268.724 459.733 273.879C451.141 279.035 442.549 291.063 442.549 291.063C447.664 286.23 453.86 282.69 460.621 280.739C470.931 278.161 485.552 274.724 485.552 274.724C485.552 274.724 470.931 286.767 469.213 292.782C467.298 298.379 465.001 303.838 462.339 309.121C462.339 309.121 474.669 293.369 481.6 286.925C473.314 309.619 468.622 333.467 467.695 357.608C465.146 347.169 457.671 325.575 438.253 314.763C441.933 315.765 447.246 317.226 451.528 318.458C458.86 320.563 464.344 326.849 464.344 326.849C464.344 326.849 458.244 317.054 452.143 312.858C446.043 308.663 436.893 307.961 436.893 307.961C445.688 306.816 454.626 307.534 463.127 310.066C463.127 310.066 454.535 303.765 448.478 303.765C442.42 303.765 432.611 303.064 432.611 303.064C436.277 298.868 449.709 293.97 449.709 293.97C445.017 293.948 440.328 294.177 435.661 294.658C431.365 295.359 430.177 300.257 430.177 300.257C430.177 300.257 428.959 297.464 419.809 295.359C410.658 293.254 408.21 300.257 408.21 300.257H416.802C419.866 300.257 424.134 304.467 424.134 304.467C424.134 304.467 414.367 304.467 410.701 306.558C407.035 308.648 402.109 318.458 402.109 318.458C402.109 318.458 409.427 312.858 411.876 311.455C414.324 310.052 421.026 310.023 421.026 310.023C417.961 312.352 415.088 314.924 412.434 317.713C409.384 321.207 406.95 331.718 406.95 331.718C406.95 331.718 412.434 324.715 414.267 322.61C416.1 320.505 422.2 318.415 422.2 318.415L421.585 330.315L428.916 316.31C430.807 318.326 432.846 320.198 435.017 321.909C439.313 325.417 450.268 341.513 450.268 341.513C448.366 337.184 446.735 332.741 445.384 328.209C444.382 324.171 437.179 316.753 434.673 314.362C459.547 326.033 466.177 355.417 467.323 362.205H457.012L459.289 382.253H477.447L479.709 362.205H469.041C470.535 352.718 473.543 343.532 477.948 334.997C477.647 336.157 477.461 336.916 477.461 336.916C477.461 336.916 482.96 329.914 484.793 327.823C486.626 325.732 492.726 323.613 492.726 323.613L492.111 335.513L499.428 321.522C501.323 323.534 503.362 325.405 505.528 327.121C509.824 330.615 520.794 346.711 520.794 346.711C518.891 342.387 517.26 337.949 515.91 333.422C514.693 328.51 504.311 318.715 504.311 318.715C504.311 318.715 514.693 321.579 522.011 323.613C529.328 325.646 534.827 332.019 534.827 332.019C534.827 332.019 528.77 322.281 522.627 318.071ZM468.998 355.804C469.453 344.96 470.722 334.166 472.793 323.513C473.939 322.639 480.139 317.942 482.344 316.682C484.793 315.25 491.495 315.25 491.495 315.25C488.431 317.58 485.558 320.152 482.903 322.94C481.365 325.085 480.194 327.471 479.437 329.999C474.506 337.935 470.988 346.666 469.041 355.804H468.998Z" fill="#0A2B51"/>
<path opacity="0.4" d="M522.627 318.071C516.512 313.875 507.361 313.173 507.361 313.173C516.162 312.036 525.103 312.753 533.61 315.279C533.61 315.279 525.018 308.978 518.961 308.978C512.903 308.978 503.094 308.276 503.094 308.276C506.76 304.08 520.178 299.183 520.178 299.183C515.491 299.16 510.806 299.394 506.144 299.885C501.848 300.586 500.66 305.484 500.66 305.484C500.66 305.484 499.428 302.62 490.278 300.586C481.127 298.553 478.693 305.484 478.693 305.484H487.285C490.335 305.484 494.602 309.679 494.602 309.679C494.602 309.679 484.85 309.679 481.184 311.784C478.034 313.589 474.024 321.078 472.922 323.14C475.43 310.24 478.993 297.567 483.576 285.249L483.819 285.063C486.847 282.98 489.719 280.678 492.411 278.175L502.722 295.359L501.863 280.739C501.863 280.739 510.454 283.331 513.046 285.908C515.638 288.486 523.371 297.078 523.371 297.078C523.371 297.078 519.934 284.19 515.624 279.894C511.862 276.435 507.835 273.275 503.581 270.443C503.581 270.443 513.046 270.443 516.469 272.161C519.891 273.879 530.23 280.753 530.23 280.753C530.23 280.753 523.357 268.724 518.187 266.132C513.018 263.54 499.271 263.555 499.271 263.555C499.271 263.555 505.299 258.399 509.595 258.399H521.638C521.638 258.399 518.187 249.807 505.299 252.385C492.411 254.963 490.679 258.399 490.679 258.399C490.679 258.399 488.946 252.385 482.931 251.512C476.917 250.638 463.156 250.652 463.156 250.652C463.156 250.652 482.072 256.681 487.227 261.836C487.227 261.836 473.466 262.695 464.874 262.695C456.282 262.695 444.239 270.443 444.239 270.443C444.239 270.443 462.296 265.273 481.213 267.865C481.213 267.865 468.325 268.724 459.733 273.879C451.141 279.035 442.549 291.063 442.549 291.063C447.664 286.23 453.86 282.69 460.621 280.739C470.931 278.161 485.552 274.724 485.552 274.724C485.552 274.724 470.931 286.767 469.213 292.782C467.298 298.379 465.001 303.838 462.339 309.121C462.339 309.121 474.669 293.369 481.6 286.925C473.314 309.619 468.622 333.467 467.695 357.608C465.146 347.169 457.671 325.575 438.253 314.763C441.933 315.765 447.246 317.226 451.528 318.458C458.86 320.563 464.344 326.849 464.344 326.849C464.344 326.849 458.244 317.054 452.143 312.858C446.043 308.663 436.893 307.961 436.893 307.961C445.688 306.816 454.626 307.534 463.127 310.066C463.127 310.066 454.535 303.765 448.478 303.765C442.42 303.765 432.611 303.064 432.611 303.064C436.277 298.868 449.709 293.97 449.709 293.97C445.017 293.948 440.328 294.177 435.661 294.658C431.365 295.359 430.177 300.257 430.177 300.257C430.177 300.257 428.959 297.464 419.809 295.359C410.658 293.254 408.21 300.257 408.21 300.257H416.802C419.866 300.257 424.134 304.467 424.134 304.467C424.134 304.467 414.367 304.467 410.701 306.558C407.035 308.648 402.109 318.458 402.109 318.458C402.109 318.458 409.427 312.858 411.876 311.455C414.324 310.052 421.026 310.023 421.026 310.023C417.961 312.352 415.088 314.924 412.434 317.713C409.384 321.207 406.95 331.718 406.95 331.718C406.95 331.718 412.434 324.715 414.267 322.61C416.1 320.505 422.2 318.415 422.2 318.415L421.585 330.315L428.916 316.31C430.807 318.326 432.846 320.198 435.017 321.909C439.313 325.417 450.268 341.513 450.268 341.513C448.366 337.184 446.735 332.741 445.384 328.209C444.382 324.171 437.179 316.753 434.673 314.362C459.547 326.033 466.177 355.417 467.323 362.205H457.012L459.289 382.253H477.447L479.709 362.205H469.041C470.535 352.718 473.543 343.532 477.948 334.997C477.647 336.157 477.461 336.916 477.461 336.916C477.461 336.916 482.96 329.914 484.793 327.823C486.626 325.732 492.726 323.613 492.726 323.613L492.111 335.513L499.428 321.522C501.323 323.534 503.362 325.405 505.528 327.121C509.824 330.615 520.794 346.711 520.794 346.711C518.891 342.387 517.26 337.949 515.91 333.422C514.693 328.51 504.311 318.715 504.311 318.715C504.311 318.715 514.693 321.579 522.011 323.613C529.328 325.646 534.827 332.019 534.827 332.019C534.827 332.019 528.77 322.281 522.627 318.071ZM468.998 355.804C469.453 344.96 470.722 334.166 472.793 323.513C473.939 322.639 480.139 317.942 482.344 316.682C484.793 315.25 491.495 315.25 491.495 315.25C488.431 317.58 485.558 320.152 482.903 322.94C481.365 325.085 480.194 327.471 479.437 329.999C474.506 337.935 470.988 346.666 469.041 355.804H468.998Z" fill="white"/>
<path d="M123.959 318.071C117.844 313.875 108.693 313.173 108.693 313.173C117.494 312.036 126.435 312.753 134.942 315.279C134.942 315.279 126.35 308.978 120.293 308.978C114.235 308.978 104.426 308.276 104.426 308.276C108.092 304.08 121.51 299.183 121.51 299.183C116.823 299.16 112.138 299.394 107.476 299.885C103.18 300.586 101.992 305.484 101.992 305.484C101.992 305.484 100.76 302.62 91.6096 300.586C82.4591 298.553 80.0104 305.484 80.0104 305.484H88.6024C91.6526 305.484 95.92 309.679 95.92 309.679C95.92 309.679 86.168 309.679 82.5021 311.784C79.3517 313.589 75.3421 321.078 74.2395 323.14C76.7409 310.238 80.3044 297.565 84.8935 285.249L85.137 285.063C88.1614 282.975 91.0327 280.673 93.729 278.175L104.039 295.359L103.18 280.739C103.18 280.739 111.772 283.331 114.364 285.908C116.956 288.486 124.689 297.078 124.689 297.078C124.689 297.078 121.238 284.19 116.942 279.894C113.179 276.435 109.153 273.275 104.899 270.443C104.899 270.443 114.364 270.443 117.787 272.161C121.209 273.879 131.548 280.753 131.548 280.753C131.548 280.753 124.675 268.724 119.505 266.132C114.335 263.54 100.588 263.555 100.588 263.555C100.588 263.555 106.603 258.399 110.913 258.399H122.956C122.956 258.399 119.505 249.807 106.603 252.385C93.7003 254.963 91.9963 258.399 91.9963 258.399C91.9963 258.399 90.2635 252.385 84.2492 251.512C78.2347 250.638 64.4732 250.652 64.4732 250.652C64.4732 250.652 83.3899 256.681 88.5451 261.836C88.5451 261.836 74.7836 262.695 66.1916 262.695C57.5996 262.695 45.5422 270.443 45.5422 270.443C45.5422 270.443 63.614 265.273 82.5307 267.865C82.5307 267.865 69.6427 268.724 61.0507 273.879C52.4587 279.035 43.8667 291.063 43.8667 291.063C48.9814 286.23 55.1777 282.69 61.9386 280.739C72.249 278.161 86.8697 274.724 86.8697 274.724C86.8697 274.724 72.249 286.767 70.5306 292.782C68.6153 298.379 66.3187 303.838 63.657 309.121C63.657 309.121 75.9865 293.369 82.9174 286.925C74.6216 309.617 69.9205 333.466 68.984 357.608C66.4351 347.169 58.96 325.575 39.5421 314.763C43.2224 315.765 48.5351 317.226 52.8167 318.458C60.1486 320.563 65.7047 326.849 65.7047 326.849C65.7047 326.849 59.6044 317.054 53.5041 312.858C47.4038 308.663 38.2533 307.961 38.2533 307.961C47.0201 306.849 55.9225 307.586 64.3873 310.123C64.3873 310.123 55.7953 303.823 49.7379 303.823C43.6806 303.823 33.9 303.192 33.9 303.192C37.5659 298.997 50.9838 294.099 50.9838 294.099C46.297 294.077 41.6123 294.306 36.9502 294.787C32.6828 295.417 31.4513 300.328 31.4513 300.328C31.4513 300.328 30.2341 297.536 21.0693 295.431C11.9045 293.326 9.49875 300.328 9.49875 300.328H18.0907C21.1409 300.328 25.4226 304.539 25.4226 304.539C25.4226 304.539 15.6564 304.539 11.9904 306.629C8.32452 308.72 3.39844 318.529 3.39844 318.529C3.39844 318.529 10.716 312.93 13.1647 311.527C15.6134 310.123 22.3152 310.095 22.3152 310.095C19.2501 312.424 16.3769 314.996 13.7232 317.785C10.673 321.279 8.23859 331.789 8.23859 331.789C8.23859 331.789 13.7232 324.787 15.5561 322.682C17.3891 320.577 23.4894 318.486 23.4894 318.486L22.8593 330.4L30.1912 316.395C32.0769 318.417 34.1164 320.289 36.2915 321.995C40.5875 325.503 51.5423 341.599 51.5423 341.599C49.641 337.27 48.0101 332.827 46.6592 328.295C45.6568 324.257 38.4538 316.839 35.9335 314.448C60.8216 326.119 67.4375 355.503 68.5974 362.291H58.287L60.5639 382.339H78.7216L80.9842 362.291H70.3158C71.8102 352.804 74.8175 343.618 79.2228 335.083C78.9221 336.243 78.7359 337.002 78.7359 337.002C78.7359 337.002 84.2348 329.999 86.0678 327.909C87.9007 325.818 94.0011 323.699 94.0011 323.699L93.3853 335.599L100.703 321.608C102.598 323.619 104.637 325.491 106.803 327.207C111.099 330.701 122.068 346.797 122.068 346.797C120.166 342.473 118.535 338.035 117.185 333.508C115.968 328.596 105.586 318.801 105.586 318.801C105.586 318.801 115.968 321.665 123.285 323.699C130.603 325.732 136.173 332.105 136.173 332.105C136.173 332.105 130.059 322.281 123.959 318.071ZM70.3301 355.804C70.7853 344.96 72.0538 334.166 74.1249 323.513C75.2705 322.639 81.4711 317.942 83.6763 316.682C86.1251 315.25 92.8268 315.25 92.8268 315.25C89.7628 317.58 86.8897 320.152 84.2348 322.94C82.6969 325.085 81.5258 327.471 80.7694 329.999C75.8229 337.932 72.2907 346.663 70.3301 355.804Z" fill="#0A2B51"/>
<path opacity="0.4" d="M123.959 318.071C117.844 313.875 108.693 313.173 108.693 313.173C117.494 312.036 126.435 312.753 134.942 315.279C134.942 315.279 126.35 308.978 120.293 308.978C114.235 308.978 104.426 308.276 104.426 308.276C108.092 304.08 121.51 299.183 121.51 299.183C116.823 299.16 112.138 299.394 107.476 299.885C103.18 300.586 101.992 305.484 101.992 305.484C101.992 305.484 100.76 302.62 91.6096 300.586C82.4591 298.553 80.0104 305.484 80.0104 305.484H88.6024C91.6526 305.484 95.92 309.679 95.92 309.679C95.92 309.679 86.168 309.679 82.5021 311.784C79.3517 313.589 75.3421 321.078 74.2395 323.14C76.7409 310.238 80.3044 297.565 84.8935 285.249L85.137 285.063C88.1614 282.975 91.0327 280.673 93.729 278.175L104.039 295.359L103.18 280.739C103.18 280.739 111.772 283.331 114.364 285.908C116.956 288.486 124.689 297.078 124.689 297.078C124.689 297.078 121.238 284.19 116.942 279.894C113.179 276.435 109.153 273.275 104.899 270.443C104.899 270.443 114.364 270.443 117.787 272.161C121.209 273.879 131.548 280.753 131.548 280.753C131.548 280.753 124.675 268.724 119.505 266.132C114.335 263.54 100.588 263.555 100.588 263.555C100.588 263.555 106.603 258.399 110.913 258.399H122.956C122.956 258.399 119.505 249.807 106.603 252.385C93.7003 254.963 91.9963 258.399 91.9963 258.399C91.9963 258.399 90.2635 252.385 84.2492 251.512C78.2347 250.638 64.4732 250.652 64.4732 250.652C64.4732 250.652 83.3899 256.681 88.5451 261.836C88.5451 261.836 74.7836 262.695 66.1916 262.695C57.5996 262.695 45.5422 270.443 45.5422 270.443C45.5422 270.443 63.614 265.273 82.5307 267.865C82.5307 267.865 69.6427 268.724 61.0507 273.879C52.4587 279.035 43.8667 291.063 43.8667 291.063C48.9814 286.23 55.1777 282.69 61.9386 280.739C72.249 278.161 86.8697 274.724 86.8697 274.724C86.8697 274.724 72.249 286.767 70.5306 292.782C68.6153 298.379 66.3187 303.838 63.657 309.121C63.657 309.121 75.9865 293.369 82.9174 286.925C74.6216 309.617 69.9205 333.466 68.984 357.608C66.4351 347.169 58.96 325.575 39.5421 314.763C43.2224 315.765 48.5351 317.226 52.8167 318.458C60.1486 320.563 65.7047 326.849 65.7047 326.849C65.7047 326.849 59.6044 317.054 53.5041 312.858C47.4038 308.663 38.2533 307.961 38.2533 307.961C47.0201 306.849 55.9225 307.586 64.3873 310.123C64.3873 310.123 55.7953 303.823 49.7379 303.823C43.6806 303.823 33.9 303.192 33.9 303.192C37.5659 298.997 50.9838 294.099 50.9838 294.099C46.297 294.077 41.6123 294.306 36.9502 294.787C32.6828 295.417 31.4513 300.328 31.4513 300.328C31.4513 300.328 30.2341 297.536 21.0693 295.431C11.9045 293.326 9.49875 300.328 9.49875 300.328H18.0907C21.1409 300.328 25.4226 304.539 25.4226 304.539C25.4226 304.539 15.6564 304.539 11.9904 306.629C8.32452 308.72 3.39844 318.529 3.39844 318.529C3.39844 318.529 10.716 312.93 13.1647 311.527C15.6134 310.123 22.3152 310.095 22.3152 310.095C19.2501 312.424 16.3769 314.996 13.7232 317.785C10.673 321.279 8.23859 331.789 8.23859 331.789C8.23859 331.789 13.7232 324.787 15.5561 322.682C17.3891 320.577 23.4894 318.486 23.4894 318.486L22.8593 330.4L30.1912 316.395C32.0769 318.417 34.1164 320.289 36.2915 321.995C40.5875 325.503 51.5423 341.599 51.5423 341.599C49.641 337.27 48.0101 332.827 46.6592 328.295C45.6568 324.257 38.4538 316.839 35.9335 314.448C60.8216 326.119 67.4375 355.503 68.5974 362.291H58.287L60.5639 382.339H78.7216L80.9842 362.291H70.3158C71.8102 352.804 74.8175 343.618 79.2228 335.083C78.9221 336.243 78.7359 337.002 78.7359 337.002C78.7359 337.002 84.2348 329.999 86.0678 327.909C87.9007 325.818 94.0011 323.699 94.0011 323.699L93.3853 335.599L100.703 321.608C102.598 323.619 104.637 325.491 106.803 327.207C111.099 330.701 122.068 346.797 122.068 346.797C120.166 342.473 118.535 338.035 117.185 333.508C115.968 328.596 105.586 318.801 105.586 318.801C105.586 318.801 115.968 321.665 123.285 323.699C130.603 325.732 136.173 332.105 136.173 332.105C136.173 332.105 130.059 322.281 123.959 318.071ZM70.3301 355.804C70.7853 344.96 72.0538 334.166 74.1249 323.513C75.2705 322.639 81.4711 317.942 83.6763 316.682C86.1251 315.25 92.8268 315.25 92.8268 315.25C89.7628 317.58 86.8897 320.152 84.2348 322.94C82.6969 325.085 81.5258 327.471 80.7694 329.999C75.8229 337.932 72.2907 346.663 70.3301 355.804Z" fill="white"/>
<path d="M94.9279 422.262C117.333 422.262 135.496 415.094 135.496 406.252C135.496 397.41 117.333 390.242 94.9279 390.242C72.5225 390.242 54.3594 397.41 54.3594 406.252C54.3594 415.094 72.5225 422.262 94.9279 422.262Z" fill="#0A2B51"/>
<path d="M94.9279 422.262C117.333 422.262 135.496 415.094 135.496 406.252C135.496 397.41 117.333 390.242 94.9279 390.242C72.5225 390.242 54.3594 397.41 54.3594 406.252C54.3594 415.094 72.5225 422.262 94.9279 422.262Z" fill="#F3F4F6"/>
<path d="M65.9031 147.389C64.0079 148.548 62.4172 150.144 61.2634 152.043C59.7168 154.907 50.6809 180.926 47.8455 186.855C45.0102 192.783 43.7214 194.845 47.33 196.879C50.9387 198.912 55.5927 195.848 58.6858 190.177C61.7789 184.506 67.4496 168.768 68.4807 165.16C69.5117 161.551 73.1203 147.904 65.9031 147.389Z" fill="#0A2B51" stroke="#0A2B51" stroke-linecap="round" stroke-linejoin="round"/>
<path d="M121.735 381.449L123.869 396.729L122.437 397.43L118.184 389.268L121.735 381.449Z" fill="#0A2B51" stroke="#0A2B51" stroke-linecap="round" stroke-linejoin="round"/>
<path d="M77.6875 289.115C77.6875 289.115 82.3129 311.125 86.9239 325.33C91.5349 339.536 106.456 372.586 107.53 378.314C108.604 384.042 107.172 384.042 107.172 388.611C107.172 393.179 100.786 398.205 100.428 400.682C100.07 403.16 105.039 403.546 109.664 402.114C114.289 400.682 117.468 396.787 117.468 393.522C117.468 390.257 121.764 384.644 121.764 381.451C121.764 378.257 116.437 377.899 116.036 371.856C115.636 365.813 113.545 344.161 109.993 331.374C106.442 318.586 102.833 311.841 100.055 308.29C97.2773 304.738 93.6686 296.562 94.3273 293.726C94.9861 290.891 77.6875 289.115 77.6875 289.115Z" fill="white" stroke="#0A2B51" stroke-linecap="round" stroke-linejoin="round"/>
<path d="M117.468 393.522C117.468 390.328 121.764 384.643 121.764 381.45C121.764 380.104 120.819 379.259 119.688 378.285C118.112 382.51 114.905 389.827 110.036 393.88C107.014 396.414 105.024 396.371 103.764 395.641C102.188 397.66 100.628 399.436 100.456 400.624C100.098 403.116 105.067 403.488 109.692 402.056C114.318 400.624 117.468 396.729 117.468 393.522Z" fill="#0A2B51" stroke="#0A2B51" stroke-linecap="round" stroke-linejoin="round"/>
<path d="M85.8671 294.084C85.8671 294.084 84.4351 305.798 84.4351 313.258C84.4351 320.719 80.1391 369.908 78.7071 379.317C77.3753 388.453 74.7977 392.462 73.38 397.431C71.9623 402.4 70.516 407.742 68.053 409.159C65.5899 410.577 68.053 412.023 72.349 411.637C76.645 411.25 80.941 409.159 81.2274 405.25C81.5138 401.341 84.9649 397.904 87.2704 396.372C91.5664 393.508 86.2107 385.002 92.2395 366.529C94.903 358.424 101.476 347.712 102.894 335.283C104.311 322.853 101.834 311.483 101.834 308.647C101.834 305.812 104.326 295.144 104.326 295.144L85.8671 294.084Z" fill="white" stroke="#0A2B51" stroke-linecap="round" stroke-linejoin="round"/>
<path d="M88.3712 396.973C92.9822 395.212 89.6313 391.245 89.2447 386.949C85.5358 390.544 80.5811 399.837 77.6884 402.701C76.8684 403.496 75.8404 404.043 74.723 404.278C73.6057 404.514 72.4444 404.429 71.3733 404.033C70.4855 406.41 69.4544 408.329 68.1084 409.102C65.6167 410.534 68.1084 411.966 72.4044 411.58C76.7004 411.193 80.9964 409.102 81.2828 405.193C81.5692 401.284 85.7792 397.961 88.3712 396.973Z" fill="#0A2B51" stroke="#0A2B51" stroke-linecap="round" stroke-linejoin="round"/>
<path d="M89.0577 393.522L90.1604 409.159H87.2964L84.8047 398.505C84.8047 398.505 87.2964 393.178 89.0577 393.522Z" fill="#0A2B51" stroke="#0A2B51" stroke-linecap="round" stroke-linejoin="round"/>
<path d="M82.6582 144.812L71.8322 148.936C71.8322 148.936 65.9038 163.127 63.8417 173.438C61.7796 183.748 64.615 194.331 66.7057 200.775C68.7964 207.219 71.3454 244.365 72.4337 258.541C73.522 272.718 75.4409 293.167 75.4409 293.167C75.4409 293.167 80.0806 296.79 89.3742 298.594C98.6679 300.399 111.814 297.563 111.814 297.563C111.814 297.563 119.547 275.124 121.093 261.964C122.64 248.804 109.737 227.41 105.613 218.13C101.489 208.851 99.8851 193.887 100.716 189.49C101.546 185.094 111.284 151.843 107.876 150.282C104.468 148.721 92.4674 144.239 82.6582 144.812Z" fill="#0A2B51" stroke="#0A2B51" stroke-linecap="round" stroke-linejoin="round"/>
<path d="M82.6588 135.791C82.6588 135.791 81.6277 142.951 80.8544 146.101C80.0812 149.252 74.1527 160.035 76.4725 164.717C78.7924 169.4 86.4965 169.357 89.8904 161.367C91.9767 155.851 92.9501 149.976 92.7544 144.082L94.0432 136.349C94.0432 136.349 85.7662 139.142 82.6588 135.791Z" fill="white" stroke="#0A2B51" stroke-linecap="round" stroke-linejoin="round"/>
<path d="M114.135 124.449C113.525 123.417 112.588 122.619 111.471 122.182C110.355 121.746 109.125 121.697 107.977 122.043C112.645 118.191 115.595 111.947 111.027 103.04C105.299 91.9423 91.9529 94.5342 91.9529 94.5342C89.4388 94.4203 86.9401 94.9819 84.7165 96.1604C82.4929 97.339 80.6255 99.0915 79.3083 101.236C74.6687 108.711 77.2463 119.021 81.1127 121.871C84.6927 124.477 95.9195 127.298 102.707 125.093C98.7406 129.203 96.1773 135.117 99.8432 140.272C100.567 141.41 101.548 142.362 102.707 143.051C103.866 143.739 105.172 144.145 106.517 144.236C107.862 144.327 109.21 144.099 110.452 143.572C111.693 143.045 112.793 142.234 113.662 141.203C118.259 135.79 116.97 129.346 114.135 124.449Z" fill="#0A2B51" stroke="#0A2B51" stroke-linecap="round" stroke-linejoin="round"/>
<path d="M82.0265 122.443C82.0265 122.443 78.9191 117.317 78.1315 120.854C77.3439 124.391 78.8331 127.054 79.8642 127.713C80.4662 128.101 81.1917 128.249 81.8976 128.128" fill="white"/>
<path d="M82.0265 122.443C82.0265 122.443 78.9191 117.317 78.1315 120.854C77.3439 124.391 78.8331 127.054 79.8642 127.713C80.4662 128.101 81.1917 128.249 81.8976 128.128" stroke="#0A2B51" stroke-linecap="round" stroke-linejoin="round"/>
<path d="M81.8682 113.321C81.8682 113.321 77.2142 132.41 83.6725 139.097C90.1308 145.785 97.3338 134.973 103.262 126.725L105.067 121.312C103.606 118.625 101.97 116.037 100.169 113.565C98.309 111.141 96.8312 108.446 95.7872 105.574C95.7872 105.574 89.0855 114.166 81.8682 113.321Z" fill="white" stroke="#0A2B51" stroke-linecap="round" stroke-linejoin="round"/>
<path d="M101.701 126.84C101.701 126.84 107.071 124.162 105.84 127.57C104.608 130.978 101.945 132.453 100.727 132.453C100.007 132.455 99.3097 132.196 98.7656 131.723" fill="white"/>
<path d="M101.701 126.84C101.701 126.84 107.071 124.162 105.84 127.57C104.608 130.978 101.945 132.453 100.727 132.453C100.007 132.455 99.3097 132.196 98.7656 131.723" stroke="#0A2B51" stroke-linecap="round" stroke-linejoin="round"/>
<path d="M92.6797 120.253C93.6778 119.461 94.9034 119.01 96.1767 118.966C97.4499 118.923 98.7036 119.288 99.7538 120.009" stroke="#0A2B51" stroke-width="0.5" stroke-miterlimit="10"/>
<path d="M89.0171 117.574C89.0171 117.574 86.3392 114.71 83.418 115.87" stroke="#0A2B51" stroke-width="0.5" stroke-miterlimit="10"/>
<path d="M88.043 129.762L89.7471 130.506" stroke="#0A2B51" stroke-width="0.5" stroke-miterlimit="10"/>
<path d="M85.3633 132.453C86.3032 133.028 87.3482 133.41 88.4373 133.578C89.5264 133.745 90.6379 133.693 91.707 133.427" stroke="#0A2B51" stroke-width="0.5" stroke-miterlimit="10"/>
<path d="M89.1865 123.088C88.9337 123.917 88.436 124.65 87.7588 125.191C87.0816 125.732 86.2565 126.056 85.392 126.12C84.5276 126.183 83.6641 125.984 82.915 125.547C82.166 125.111 81.5665 124.458 81.1952 123.675C80.824 122.892 80.6983 122.014 80.8349 121.158C80.9714 120.302 81.3637 119.508 81.9602 118.879C82.5566 118.25 83.3294 117.816 84.177 117.634C85.0246 117.453 85.9073 117.532 86.7091 117.861C87.7299 118.227 88.5639 118.983 89.0283 119.962C89.4927 120.942 89.5496 122.066 89.1865 123.088Z" stroke="#0A2B51" stroke-width="0.5" stroke-miterlimit="10"/>
<path d="M99.181 125.781C98.9271 126.61 98.4281 127.343 97.7498 127.883C97.0715 128.423 96.2456 128.746 95.3806 128.808C94.5157 128.87 93.6522 128.668 92.9037 128.23C92.1553 127.792 91.5569 127.138 91.1872 126.354C90.8176 125.569 90.694 124.691 90.8327 123.835C90.9714 122.979 91.3659 122.185 91.9643 121.558C92.5628 120.93 93.3371 120.498 94.1856 120.319C95.034 120.14 95.9169 120.222 96.718 120.554C97.7361 120.923 98.5668 121.679 99.0283 122.659C99.4899 123.638 99.5448 124.761 99.181 125.781Z" stroke="#0A2B51" stroke-width="0.5" stroke-miterlimit="10"/>
<path d="M89.2578 121.957L91.2912 122.544" stroke="#0A2B51" stroke-width="0.5" stroke-miterlimit="10"/>
<path d="M99.2695 124.893L103.408 125.379" stroke="#0A2B51" stroke-width="0.5" stroke-miterlimit="10"/>
<path d="M80.8521 146.1C76.762 154.487 73.6393 163.312 71.5441 172.405C68.9665 185.293 69.2243 209.294 69.7398 218.573C70.2553 227.852 69.7398 254.373 69.7398 254.373L57.8828 249.218C57.8828 249.218 58.3983 232.449 60.4604 221.623C62.151 211.573 62.8417 201.38 62.5225 191.193C62.2647 185.265 59.6585 176.744 61.2337 168.754C62.8089 160.763 65.1001 148.119 65.8734 147.274C66.6467 146.429 80.8521 146.1 80.8521 146.1Z" fill="#0A2B51" stroke="#0A2B51" stroke-linecap="round" stroke-linejoin="round"/>
<path d="M92.7245 145.586C92.7245 145.586 88.0848 163.901 85.2495 180.67C82.4141 197.439 89.3736 253.702 89.3736 253.702C94.3903 253.42 99.3839 252.817 104.324 251.898C115.679 250.093 121.092 246.742 121.092 246.742C121.092 246.742 114.391 229.716 109.994 220.966C105.598 212.217 102.262 205.214 102.262 205.214C101.418 198.51 101.855 191.707 103.55 185.166C106.414 174.584 114.133 152.932 111.025 150.34C107.918 147.748 92.7245 145.586 92.7245 145.586Z" fill="#0A2B51" stroke="#0A2B51" stroke-linecap="round" stroke-linejoin="round"/>
<path d="M103.549 158.746C103.549 158.746 100.685 171.634 99.6831 177.562C98.6807 183.491 96.59 192.269 96.59 192.269C96.59 192.269 78.5324 193.042 74.1505 192.784C69.7686 192.526 65.1289 192.526 65.1289 192.526L66.6755 200.775C66.6755 200.775 81.11 205.93 90.146 207.477C99.1819 209.023 104.065 211.357 105.612 208.522C107.158 205.687 112.328 176.531 114.204 165.447C116.079 154.364 117.297 151.786 109.55 149.695" stroke="#0A2B51" stroke-linecap="round" stroke-linejoin="round"/>
<path d="M85.7653 185.567C85.7653 185.567 95.5602 184.278 96.3334 184.021C97.1067 183.763 107.159 188.145 107.159 188.145C107.159 188.145 106.644 189.434 105.871 189.691C105.097 189.949 98.9111 186.827 98.9111 186.827L97.88 187.085L105.613 192.24C105.613 192.24 106.644 193.529 105.613 194.045C104.582 194.56 96.3334 189.147 96.3334 189.147L103.493 196.107C103.072 196.396 102.573 196.55 102.061 196.55C101.55 196.55 101.051 196.396 100.629 196.107C99.3406 195.076 96.5053 192.24 96.5053 192.24C96.5053 192.24 99.5984 195.849 98.0518 196.107C96.5053 196.365 93.6699 191.983 93.6699 191.983L89.0303 191.209L84.1328 190.694L85.7653 185.567Z" fill="white" stroke="#0A2B51" stroke-linecap="round" stroke-linejoin="round"/>
<path d="M70.8145 185.768C70.8145 185.768 64.3132 178.321 63.9123 177.62C63.5113 176.918 53.0577 173.553 53.0577 173.553C52.825 174.206 52.825 174.919 53.0577 175.572C53.473 176.274 60.2177 178.049 60.2177 178.049L60.8191 178.923L51.5971 177.677C51.5971 177.677 49.9789 177.963 50.4085 179.023C50.8381 180.083 60.6187 181.486 60.6187 181.486L50.5947 181.944C50.7222 182.434 50.9937 182.875 51.374 183.209C51.7543 183.544 52.226 183.756 52.7283 183.82C54.3751 183.892 58.3704 183.648 58.3704 183.648C58.3704 183.648 53.6591 184.307 54.6615 185.524C55.6639 186.741 60.676 185.324 60.676 185.324L64.6712 187.815L68.6808 190.679L70.8145 185.768Z" fill="white" stroke="#0A2B51" stroke-linecap="round" stroke-linejoin="round"/>
<path d="M52.4866 184.535C52.4866 184.535 77.7614 185.308 81.1266 185.308C82.6824 185.263 84.2393 185.349 85.7806 185.566L83.9763 198.196C77.635 198.841 71.2604 199.1 64.8877 198.97C51.2121 198.97 45.0259 199.743 45.5414 194.588C46.0569 189.433 52.4866 184.535 52.4866 184.535Z" fill="#0A2B51" stroke="#0A2B51" stroke-linecap="round" stroke-linejoin="round"/>
<path d="M167.518 432.932C189.923 432.932 208.086 425.764 208.086 416.922C208.086 408.08 189.923 400.912 167.518 400.912C145.112 400.912 126.949 408.08 126.949 416.922C126.949 425.764 145.112 432.932 167.518 432.932Z" fill="#0A2B51"/>
<path d="M167.518 432.932C189.923 432.932 208.086 425.764 208.086 416.922C208.086 408.08 189.923 400.912 167.518 400.912C145.112 400.912 126.949 408.08 126.949 416.922C126.949 425.764 145.112 432.932 167.518 432.932Z" fill="#F3F4F6"/>
<path d="M158.111 89.8236C158.111 89.8236 149.691 90.3535 144.278 100.564C138.865 110.774 141.414 129.204 143.362 134.932C145.309 140.66 154.202 167.796 159.314 186.77C164.427 205.744 173.634 222.642 190.117 222.04C206.599 221.439 228.781 213.778 221.621 185.997C214.461 158.216 198.909 146.789 195.845 139.7C192.78 132.612 192.121 125.28 190.761 109.857C189.401 94.4347 178.847 85.9142 168.279 82.8354C157.711 79.7566 158.111 89.8236 158.111 89.8236Z" fill="#0A2B51" stroke="#0A2B51" stroke-linecap="round" stroke-linejoin="round"/>
<path d="M189.129 134.373C191.821 136.865 192.881 136.936 192.881 136.936" stroke="white" stroke-width="0.5" stroke-linecap="round" stroke-linejoin="round"/>
<path d="M165.312 91.7559C165.312 91.7559 165.542 102.825 177.284 119.766C180.228 124.13 183.467 128.288 186.979 132.21" stroke="white" stroke-width="0.5" stroke-linecap="round" stroke-linejoin="round"/>
<path d="M168.02 99.2031C168.02 99.2031 178.645 124.048 190.846 131.051" stroke="white" stroke-width="0.5" stroke-linecap="round" stroke-linejoin="round"/>
<path d="M199.652 162.225C199.652 162.225 217.037 182.273 217.266 196.593C217.495 210.913 208.459 216.927 207.557 216.927" stroke="white" stroke-width="0.5" stroke-linecap="round" stroke-linejoin="round"/>
<path d="M208.391 165.203C213.216 174.54 218.558 187.399 217.269 196.564" stroke="white" stroke-width="0.5" stroke-linecap="round" stroke-linejoin="round"/>
<path d="M201.457 153.189C201.457 153.189 203.175 155.796 205.495 159.863" stroke="white" stroke-width="0.5" stroke-linecap="round" stroke-linejoin="round"/>
<path d="M149.277 111.861C149.277 111.861 142.647 125.365 143.363 134.874" stroke="white" stroke-width="0.5" stroke-linecap="round" stroke-linejoin="round"/>
<path d="M146.11 119.768C146.11 119.768 145.895 128.116 148.373 132.656" stroke="white" stroke-width="0.5" stroke-linecap="round" stroke-linejoin="round"/>
<path d="M205.954 247.586C205.954 247.586 202.746 254.746 202.746 256.794C202.746 258.842 203.147 267.605 204.35 266.002C205.553 264.398 204.35 258.398 205.954 257.997C207.558 257.596 208.818 258.799 207.157 263.596C205.496 268.393 204.293 273.205 207.558 270.756C210.823 268.307 210.751 265.142 211.954 257.939C212.685 253.684 212.549 249.324 211.553 245.123L205.954 247.586Z" fill="white" stroke="#0A2B51" stroke-linecap="round" stroke-linejoin="round"/>
<path d="M195.546 141.906L201.947 200.747L213.56 245.583L203.536 249.994C203.536 249.994 190.333 213.163 187.125 206.361C183.918 199.559 182.715 193.945 182.715 191.138C182.715 188.332 195.546 141.906 195.546 141.906Z" fill="#A1FFA1" stroke="#0A2B51" stroke-linecap="round" stroke-linejoin="round"/>
<path d="M137.504 306.056C137.504 306.056 139.093 314.061 139.494 318.056C139.895 322.051 138.692 336.472 140.697 350.09C142.702 363.708 153.17 403.718 153.17 403.718C153.17 403.718 142.759 412.912 142.759 417.322C142.759 421.733 145.967 420.931 151.165 417.723C156.363 414.516 161.576 407.313 161.977 402.515C162.378 397.718 157.967 369.68 159.571 357.279C161.175 344.877 158.769 323.254 158.769 314.447V305.641L137.504 306.056Z" fill="white" stroke="#0A2B51" stroke-linecap="round" stroke-linejoin="round"/>
<path d="M149.104 412.911C147.672 412.223 148.488 409.474 149.376 407.312C146.398 410.376 142.703 414.701 142.703 417.336C142.703 421.732 145.911 420.944 151.109 417.737C155.396 414.872 158.794 410.864 160.918 406.166C156.436 411.049 150.937 413.827 149.104 412.911Z" fill="#0A2B51" stroke="#0A2B51" stroke-linecap="round" stroke-linejoin="round"/>
<path d="M157.107 308.834C157.107 308.834 156.706 323.254 158.31 329.254C159.914 335.254 169.923 366.085 171.527 375.293C173.235 384.949 174.302 394.708 174.721 404.506C174.721 410.921 180.735 425.327 184.745 426.129C188.754 426.931 191.16 426.931 189.957 420.53C188.754 414.129 181.15 404.105 181.15 404.105C181.15 404.105 185.131 363.336 183.527 350.448C181.924 337.56 177.513 324.844 177.513 323.655C177.513 322.466 179.518 307.631 179.518 307.631L157.107 308.834Z" fill="white" stroke="#0A2B51" stroke-linecap="round" stroke-linejoin="round"/>
<path d="M186.982 413.169C186.495 415.188 185.55 416.921 183.932 416.921C179.937 416.921 175.927 410.119 175.927 410.119L175.727 410.463C177.602 417.265 181.727 425.527 184.734 426.129C188.743 426.931 191.149 426.931 189.946 420.53C189.322 417.945 188.323 415.465 186.982 413.169Z" fill="#0A2B51" stroke="#0A2B51" stroke-linecap="round" stroke-linejoin="round"/>
<path d="M155.117 134.702C155.117 134.702 126.691 140.702 126.29 142.305C125.89 143.909 135.498 193.943 135.498 195.948C135.498 197.953 124.286 223.972 123.484 239.982C122.682 255.992 128.696 309.234 128.696 309.234C128.696 309.234 140.696 314.446 152.31 314.446C163.923 314.446 183.528 311.582 183.528 311.582C183.528 311.582 193.136 280.751 193.938 254.732C194.74 228.712 183.127 196.292 183.127 196.292C183.127 196.292 195.542 143.852 195.542 141.876C195.542 139.9 169.122 133.098 155.117 134.702Z" fill="#0A2B51" stroke="#0A2B51" stroke-linecap="round" stroke-linejoin="round"/>
<path d="M183.129 196.349C183.129 196.349 195.544 143.909 195.544 141.933C195.544 139.957 169.124 133.127 155.119 134.773C155.119 134.773 126.694 140.773 126.293 142.377C125.892 143.981 135.501 194.015 135.501 196.02C135.501 197.452 129.773 211.07 126.25 224.574C131.497 227.345 137.009 229.58 142.704 231.247C155.119 234.856 159.888 229.643 159.888 229.643C159.888 229.643 158.685 232.507 165.888 233.252C172.274 233.954 183.072 233.71 191.549 228.641C189.53 217.687 186.716 206.894 183.129 196.349Z" fill="#A1FFA1" stroke="#0A2B51" stroke-linecap="round" stroke-linejoin="round"/>
<path d="M160.573 217.156C160 221.08 159.57 223.686 159.57 223.686" stroke="#0A2B51" stroke-linecap="round" stroke-linejoin="round"/>
<path d="M162.78 164.287C163.773 173.8 164.031 183.375 163.553 192.927C163.166 197.739 162.479 203.452 161.777 208.679" stroke="#0A2B51" stroke-linecap="round" stroke-linejoin="round"/>
<path d="M158.483 131.61C158.483 131.61 150.764 134.187 147.328 137.195C143.891 140.202 138.32 145.343 138.32 145.343L152.483 146.202L162.779 164.288L170.068 146.703H178.66C181.054 146.729 183.409 147.318 185.533 148.421C185.533 148.421 175.667 135.118 170.082 132.541C166.414 130.999 162.349 130.673 158.483 131.61Z" fill="white" stroke="#0A2B51" stroke-linecap="round" stroke-linejoin="round"/>
<path d="M153.773 126.468C153.773 126.468 155.062 144.483 158.485 149.208C161.907 153.934 166.633 141.49 166.633 135.905C166.633 130.32 167.062 122.602 167.062 122.602L153.773 126.468Z" fill="white" stroke="#0A2B51" stroke-linecap="round" stroke-linejoin="round"/>
<path d="M126.293 142.307C126.293 142.307 109.109 199.587 109.109 203.553C109.109 207.52 113.907 211.959 118.718 209.152C123.53 206.346 133.124 179.539 133.124 179.539L126.293 142.307Z" fill="#A1FFA1" stroke="#0A2B51" stroke-linecap="round" stroke-linejoin="round"/>
<path d="M103.867 178.737L123.085 215.969L149.505 218.762L133.896 173.539L103.867 178.737Z" fill="white" stroke="#0A2B51" stroke-linecap="round" stroke-linejoin="round"/>
<path d="M127.094 202.35L134.254 189.147L142.66 186.283L143.862 187.887L139.051 190.751C139.051 190.751 145.065 191.138 146.669 191.138C148.273 191.138 147.858 193.543 147.858 193.543L147.07 195.147C147.07 195.147 147.858 200.345 147.858 201.949C147.858 203.553 130.244 208.751 130.244 208.751L127.094 202.35Z" fill="white" stroke="#0A2B51" stroke-linecap="round" stroke-linejoin="round"/>
<path d="M127.81 198.398L133.237 213.062C133.237 213.062 123.041 217.831 115.709 217.831C108.377 217.831 104.568 208.279 107.432 203.511C110.296 198.742 127.81 198.398 127.81 198.398Z" fill="#A1FFA1" stroke="#0A2B51" stroke-linecap="round" stroke-linejoin="round"/>
<path d="M161.017 94.2637L147.656 110.388C147.656 110.388 147.198 122.717 153.298 132.197C161.676 145.257 172.587 119.309 172.587 119.309L161.017 94.2637Z" fill="white" stroke="#0A2B51" stroke-linecap="round" stroke-linejoin="round"/>
<path d="M155.576 114.312C155.719 115.472 155.361 116.474 154.789 116.546C154.216 116.617 153.629 115.729 153.486 114.584C153.342 113.438 153.686 112.421 154.273 112.35C154.86 112.278 155.433 113.166 155.576 114.312Z" fill="#0A2B51"/>
<path d="M163.195 114.926C163.195 116.086 162.708 117.031 162.121 117.031C161.534 117.031 161.09 116.072 161.09 114.912C161.09 113.752 161.577 112.807 162.15 112.807C162.722 112.807 163.195 113.766 163.195 114.926Z" fill="#0A2B51"/>
<path d="M155.105 125.137C157.235 125.814 159.53 125.753 161.621 124.965" stroke="#0A2B51" stroke-width="0.5" stroke-linecap="round" stroke-linejoin="round"/>
<path d="M159.785 109.872C160.55 109.279 161.501 108.979 162.468 109.026C163.434 109.074 164.352 109.465 165.055 110.13" stroke="#0A2B51" stroke-width="0.5" stroke-linecap="round" stroke-linejoin="round"/>
<path d="M155.835 110.458C155.588 110.107 155.264 109.815 154.889 109.606C154.513 109.396 154.096 109.274 153.667 109.247C153.237 109.221 152.808 109.292 152.41 109.455C152.012 109.617 151.655 109.867 151.367 110.186" stroke="#0A2B51" stroke-width="0.5" stroke-linecap="round" stroke-linejoin="round"/>
<path d="M157.153 113.107C157.479 114.334 157.388 115.633 156.896 116.802C156.108 119.193 155.048 120.511 155.836 121.098C156.578 121.453 157.391 121.635 158.213 121.628" stroke="#0A2B51" stroke-width="0.5" stroke-linecap="round" stroke-linejoin="round"/>
<path d="M414.106 420.115C444.76 420.115 469.61 412.947 469.61 404.105C469.61 395.264 444.76 388.096 414.106 388.096C383.452 388.096 358.602 395.264 358.602 404.105C358.602 412.947 383.452 420.115 414.106 420.115Z" fill="#0A2B51"/>
<path d="M414.106 420.115C444.76 420.115 469.61 412.947 469.61 404.105C469.61 395.264 444.76 388.096 414.106 388.096C383.452 388.096 358.602 395.264 358.602 404.105C358.602 412.947 383.452 420.115 414.106 420.115Z" fill="#F3F4F6"/>
<path d="M407.46 116.56C407.46 116.56 404.71 113.023 403.393 114.541C402.076 116.059 406.257 125.453 408.047 124.651C409.837 123.849 407.46 116.56 407.46 116.56Z" fill="white" stroke="#0A2B51" stroke-linecap="round" stroke-linejoin="round"/>
<path d="M429.442 117.033C429.442 117.033 432.048 113.596 433.423 115.171C434.797 116.746 431.06 125.983 429.198 125.109C427.337 124.236 429.442 117.033 429.442 117.033Z" fill="white" stroke="#0A2B51" stroke-linecap="round" stroke-linejoin="round"/>
<path d="M410.67 139.53C410.67 139.53 405.988 141.563 405.458 145.143C404.928 148.723 406.89 225.335 406.89 225.335L439.01 227.068L437.578 144.155C433.731 141.437 429.329 139.608 424.69 138.799C420.013 138.149 415.255 138.397 410.67 139.53Z" fill="white" stroke="#0A2B51" stroke-linecap="round" stroke-linejoin="round"/>
<path d="M394.443 222.312L443.632 224.074C443.632 224.074 448.086 260.576 450.205 284.447C452.324 308.318 455.504 330.386 455.174 346.982C454.845 363.579 455.246 388.424 455.332 389.298C455.418 390.172 460.544 393.794 463.795 396.587C467.045 399.379 473.919 402.029 471.642 403.618C469.365 405.208 466.415 405.637 461.217 404.706C456.019 403.776 449.99 400.224 448.415 399.408L446.826 398.592L446.74 400.969L440.811 398.592C440.811 398.592 439.809 397.46 439.007 391.861C438.205 386.262 436.959 368.878 436.315 361.503C435.67 354.128 428.84 301.173 426.291 288.872C423.742 276.571 418.486 255.191 418.486 255.191C418.486 255.191 398.438 324.557 395.947 333.264C393.455 341.97 382.858 388.954 382.686 390.444C382.514 391.933 379.822 395.327 379.894 396.172C379.966 397.016 377.23 400.153 375.068 402.916C372.906 405.68 363.813 408.2 361.407 408.315C359.001 408.43 357.97 403.446 362.753 399.723C365.982 397.102 369.048 394.285 371.932 391.288C371.932 391.288 374.195 355.947 374.094 344.706C373.994 333.464 380.639 296.433 381.87 293.411C383.102 290.39 389.947 248.905 389.947 248.905L394.443 222.312Z" fill="#0A2B51" stroke="#0A2B51" stroke-linecap="round" stroke-linejoin="round"/>
<path d="M410.369 148.263C410.369 148.263 415.582 180.082 416.183 183.448C416.785 186.813 408.708 253.372 408.708 253.372C404.553 253.976 400.313 253.523 396.379 252.055C389.219 249.606 382.746 246.928 382.746 246.928L396.407 204.77L384.064 148.321C387.305 146.48 390.757 145.037 394.345 144.025C399.638 142.494 405.037 141.359 410.498 140.631L410.369 148.263Z" fill="#0A2B51" stroke="#0A2B51" stroke-linecap="round" stroke-linejoin="round"/>
<path d="M415.582 154.608L419.09 159.62L414.465 219.95L421.725 228.227L425.276 220.222L421.84 160.508L425.448 153.992L420.322 146.316L415.582 154.608Z" fill="#0A2B51" stroke="#0A2B51" stroke-linecap="round" stroke-linejoin="round"/>
<path d="M429.085 139.715C429.085 139.715 425.634 165.276 425.72 167.281C425.806 169.286 424.933 186.112 425.004 187.687C425.076 189.262 432.164 253.33 432.164 253.33C436.67 254.164 441.283 254.232 445.811 253.53C453.716 252.385 462.136 247.215 462.136 247.215L446.241 205.114L452.327 146.016C452.327 146.016 433.682 140.603 429.085 139.715Z" fill="#0A2B51" stroke="#0A2B51" stroke-linecap="round" stroke-linejoin="round"/>
<path d="M420.035 151.156L413.476 157.457C413.476 157.457 409.18 142.893 409.18 140.645C409.104 139.359 409.377 138.076 409.969 136.932C410.562 135.787 411.452 134.824 412.546 134.144C414.994 132.797 424.804 133.9 427.138 135.017C429.472 136.134 431.276 141.504 431.276 141.504L426.035 158.559L420.035 151.156Z" fill="white" stroke="#0A2B51" stroke-linecap="round" stroke-linejoin="round"/>
<path d="M411.828 129.219C411.828 129.219 412.616 137.281 414.606 141.319C416.597 145.357 419.375 151.615 420.033 151.157C420.692 150.699 426.019 142.193 426.162 140.388C426.306 138.584 426.692 131.424 426.692 131.424L411.828 129.219Z" fill="white" stroke="#0A2B51" stroke-linecap="round" stroke-linejoin="round"/>
<path d="M412.257 102.355C412.257 102.355 407.804 105.004 407.174 107.496C406.544 109.987 406.973 122.775 409.651 128.331C412.329 133.887 417.312 138.455 419.761 138.484C422.21 138.513 427.866 134.689 428.654 129.047C429.537 123.965 429.954 118.812 429.899 113.653C429.613 109.873 432.692 111.562 428.009 106.608C423.327 101.653 414.992 99.9346 412.257 102.355Z" fill="white" stroke="#0A2B51" stroke-linecap="round" stroke-linejoin="round"/>
<path d="M415.665 119.983C415.665 120.871 415.293 121.601 414.849 121.601C414.405 121.601 414.047 120.871 414.047 119.983C414.047 119.095 414.405 118.379 414.849 118.379C415.293 118.379 415.665 119.095 415.665 119.983Z" fill="#0A2B51"/>
<path d="M423.299 119.983C423.299 120.871 422.941 121.601 422.497 121.601C422.053 121.601 421.695 120.871 421.695 119.983C421.695 119.095 422.053 118.379 422.497 118.379C422.941 118.379 423.299 119.095 423.299 119.983Z" fill="#0A2B51"/>
<path d="M412.043 117.375C412.232 117.086 412.478 116.839 412.767 116.65C413.056 116.461 413.382 116.334 413.722 116.278C414.063 116.221 414.412 116.236 414.746 116.321C415.081 116.407 415.394 116.561 415.666 116.774" stroke="#0A2B51" stroke-width="0.5" stroke-linecap="round" stroke-linejoin="round"/>
<path d="M420.691 117.033C420.691 117.033 422.295 114.412 425.116 117.434" stroke="#0A2B51" stroke-width="0.5" stroke-linecap="round" stroke-linejoin="round"/>
<path d="M420.091 119.781L420.492 126.827L417.27 126.426" stroke="#0A2B51" stroke-width="0.5" stroke-linecap="round" stroke-linejoin="round"/>
<path d="M416.27 129.047C418.598 129.88 421.155 129.804 423.43 128.832" stroke="#0A2B51" stroke-width="0.5" stroke-linecap="round" stroke-linejoin="round"/>
<path d="M409.081 102.111C409.081 102.111 404.699 100.55 403.969 104.975C403.239 109.4 407.005 117.519 407.005 117.519C407.005 117.519 407.606 115.5 408.637 113.037C409.668 110.574 411.888 109.214 411.043 105.634C410.198 102.054 409.081 102.111 409.081 102.111Z" fill="#0A2B51" stroke="#0A2B51" stroke-linecap="round" stroke-linejoin="round"/>
<path d="M409.867 104.788C409.867 104.788 412.072 108.383 418.244 109.256C424.416 110.13 427.566 109.256 428.268 110.359C428.97 111.462 429.041 117.748 429.041 117.748C429.041 117.748 431.103 118.421 431.232 115.958C431.465 114.007 432.348 112.191 433.738 110.803C434.397 110.13 437.719 108.096 434.068 102.497C430.416 96.8982 425.805 95.1225 417.843 95.1368C409.881 95.1511 405.084 99.2037 409.867 104.788Z" fill="#0A2B51" stroke="#0A2B51" stroke-linecap="round" stroke-linejoin="round"/>
<path d="M452.282 146.016C452.282 146.016 463.738 185.553 464.468 189.692C465.198 193.83 460.544 196.207 455.675 194.446C450.807 192.684 447.613 167.238 447.613 167.238L452.282 146.016Z" fill="#0A2B51" stroke="#0A2B51" stroke-linecap="round" stroke-linejoin="round"/>
<path d="M459.613 181.128C459.613 181.128 441.183 177.906 436.386 177.92C431.589 177.934 408.562 180.039 408.562 180.039L407.703 188.03C407.703 188.03 442.844 195.949 449.775 196.822C456.706 197.696 463.594 197.381 464.31 192.942C465.026 188.502 463.422 186.44 463.422 186.44" fill="#0A2B51"/>
<path d="M459.613 181.128C459.613 181.128 441.183 177.906 436.386 177.92C431.589 177.934 408.562 180.039 408.562 180.039L407.703 188.03C407.703 188.03 442.844 195.949 449.775 196.822C456.706 197.696 463.594 197.381 464.31 192.942C465.026 188.502 463.422 186.44 463.422 186.44" stroke="#0A2B51" stroke-linecap="round" stroke-linejoin="round"/>
<path d="M384.062 148.32C384.062 148.32 384.535 171.232 385.065 183.59C385.595 195.949 389.046 200.488 395.347 200.474C401.647 200.459 396.535 164.96 396.535 164.96" fill="#0A2B51"/>
<path d="M384.062 148.32C384.062 148.32 384.535 171.232 385.065 183.59C385.595 195.949 389.046 200.488 395.347 200.474C401.647 200.459 396.535 164.96 396.535 164.96" stroke="#0A2B51" stroke-linecap="round" stroke-linejoin="round"/>
<path d="M408.565 180.04C408.565 180.04 403.969 177.691 401.277 177.691C398.584 177.691 390.694 182.746 390.723 183.634C390.751 184.522 395.019 185.696 400.389 185.066C403.274 184.695 406.195 184.695 409.081 185.066L408.565 180.04Z" fill="white" stroke="#0A2B51" stroke-linecap="round" stroke-linejoin="round"/>
<path d="M439.566 174.068C441.819 173.551 444.116 173.249 446.426 173.166C449.419 173.166 452.97 179.066 452.97 179.066L441.313 179.982L439.566 174.068Z" fill="white" stroke="#0A2B51" stroke-linecap="round" stroke-linejoin="round"/>
<path d="M391.722 185.997L437.059 172.88C437.059 172.88 437.919 171.992 439.508 174.054C440.575 175.849 441.175 177.882 441.255 179.968C441.255 179.968 414.491 192.441 406.243 196.006C397.994 199.572 395.245 205.2 390.82 199.887C386.395 194.574 389.202 190.121 389.202 190.121" fill="#0A2B51"/>
<path d="M391.722 185.997L437.059 172.88C437.059 172.88 437.919 171.992 439.508 174.054C440.575 175.849 441.175 177.882 441.255 179.968C441.255 179.968 414.491 192.441 406.243 196.006C397.994 199.572 395.245 205.2 390.82 199.887C386.395 194.574 389.202 190.121 389.202 190.121" stroke="#0A2B51" stroke-linecap="round" stroke-linejoin="round"/>
<path d="M356.471 434.006C378.876 434.006 397.039 426.838 397.039 417.996C397.039 409.154 378.876 401.986 356.471 401.986C334.065 401.986 315.902 409.154 315.902 417.996C315.902 426.838 334.065 434.006 356.471 434.006Z" fill="#0A2B51"/>
<path d="M356.471 434.006C378.876 434.006 397.039 426.838 397.039 417.996C397.039 409.154 378.876 401.986 356.471 401.986C334.065 401.986 315.902 409.154 315.902 417.996C315.902 426.838 334.065 434.006 356.471 434.006Z" fill="#F3F4F6"/>
<path d="M372.337 107.982C375.476 104.661 377.507 100.448 378.151 95.9242C378.795 89.0219 370.834 85.3703 365.449 85.5851C362.088 85.7854 358.863 86.9818 356.184 89.0219C356.184 89.0219 343.626 88.3919 334.217 95.5519C324.809 102.712 326.026 123.991 326.671 131.953C326.992 138.06 326.849 144.183 326.241 150.269C332.893 152.932 339.832 154.811 346.919 155.868C357.903 157.371 372.767 154.794 374.27 154.436C375.774 154.078 369.974 152.703 369.101 144.311C368.227 135.92 370.39 126.211 371.263 121.686C372.137 117.161 370.619 108.34 370.619 108.34L372.337 107.982Z" fill="#0A2B51" stroke="#0A2B51" stroke-linecap="round" stroke-linejoin="round"/>
<path d="M371.193 89.0371C371.193 89.0371 369.002 96.5981 367.785 99.5337" stroke="white" stroke-width="0.5" stroke-linecap="round" stroke-linejoin="round"/>
<path d="M362.243 92.2148C362.243 92.2148 364.191 98.5443 357.36 109.528C350.53 120.511 336.639 132.211 336.152 140.258" stroke="white" stroke-width="0.5" stroke-linecap="round" stroke-linejoin="round"/>
<path d="M339.246 121.957C339.246 121.957 330.654 136.349 334.377 145.127" stroke="white" stroke-width="0.5" stroke-linecap="round" stroke-linejoin="round"/>
<path d="M360.496 146.746C360.496 146.746 372.124 152.775 373.842 153.419C375.561 154.064 377.079 155.582 378.367 159.448C379.656 163.314 386.773 191.324 387.418 194.346C388.062 197.367 382.033 200.375 378.153 200.589C374.272 200.804 369.317 197.367 369.317 194.775C369.317 192.183 360.496 146.746 360.496 146.746Z" fill="#A1FFA1" stroke="#0A2B51" stroke-linecap="round" stroke-linejoin="round"/>
<path d="M365.234 192.412C367.604 189.287 370.193 186.334 372.982 183.576C375.559 181.428 380.943 179.696 384.18 181.428C387.416 183.161 386.772 186.154 385.469 186.598C384.165 187.042 380.943 187.027 378.795 188.316C376.647 189.605 373.196 191.982 370.834 192.612C368.975 192.953 367.064 192.885 365.234 192.412Z" fill="white" stroke="#0A2B51" stroke-linecap="round" stroke-linejoin="round"/>
<path d="M330.236 404.334L330.035 415.933H331.396L333.128 408L330.236 404.334Z" fill="#0A2B51" stroke="#0A2B51" stroke-linecap="round" stroke-linejoin="round"/>
<path d="M374.615 305.899C374.615 305.899 372.481 334.725 366.882 353.412C361.283 372.1 350.071 401.17 349.798 405.709C349.798 405.709 356.744 412.382 359.135 413.714C361.527 415.046 363.431 414.788 361.813 416.12C360.195 417.451 355.67 418.253 352.204 416.922C348.739 415.59 346.061 411.58 344.199 410.521C342.338 409.461 339.903 408.115 339.66 405.709C339.416 403.303 343.125 399.838 343.125 399.838C343.125 399.838 351.932 380.091 350.872 367.546C349.813 355.002 352.462 340.868 355.168 335.784C356.89 332.446 358.327 328.968 359.464 325.388L351.932 307.488C351.932 307.488 367.14 302.963 374.615 305.899Z" fill="white" stroke="#0A2B51" stroke-linecap="round" stroke-linejoin="round"/>
<path d="M359.135 413.714C358.75 413.486 358.377 413.237 358.018 412.969C356.586 413.628 353.064 414.974 350.329 412.654C347.264 410.048 343.985 405.365 340.863 402.473C340.108 403.385 339.684 404.525 339.66 405.709C339.918 408.115 342.324 409.447 344.2 410.521C346.075 411.595 348.725 415.59 352.204 416.922C355.684 418.253 360.209 417.451 361.813 416.12C363.417 414.788 361.541 415.06 359.135 413.714Z" fill="#0A2B51" stroke="#0A2B51" stroke-linecap="round" stroke-linejoin="round"/>
<path d="M370.836 303.191C370.836 303.191 376.048 318.8 376.048 322.81C376.048 326.819 350.831 383.655 348.425 389.254C346.019 394.853 342.411 405.264 342.411 405.264C343.183 408.341 345.032 411.038 347.623 412.868C352.019 416.076 353.623 418.882 351.618 419.684C349.613 420.486 340.42 421.288 338.014 418.08C335.608 414.873 333.217 408.056 330.854 406.066C328.491 404.076 330.854 399.665 332.458 398.462C334.06 396.994 335.531 395.389 336.854 393.665C336.854 393.665 342.854 380.848 342.854 369.636C342.854 358.423 344.859 347.626 350.874 338.418C354.178 333.567 356.867 328.324 358.879 322.81L352.463 309.592C352.463 309.592 362.874 302.432 370.836 303.191Z" fill="white" stroke="#0A2B51" stroke-linecap="round" stroke-linejoin="round"/>
<path d="M347.921 413.112C345.587 414.243 343.94 415.088 338.856 409.317C336.16 406.276 333.636 403.087 331.295 399.766C330.007 401.599 328.99 404.563 330.851 406.109C333.257 408.114 335.649 414.916 338.011 418.124C340.374 421.332 349.625 420.53 351.615 419.728C353.606 418.926 352.117 416.234 347.921 413.112Z" fill="#0A2B51" stroke="#0A2B51" stroke-linecap="round" stroke-linejoin="round"/>
<path d="M349.354 144.24C349.354 144.24 322.862 148.321 321.989 149.839C321.115 151.357 330.18 201.091 331.039 204.971C331.898 208.852 325.87 218.976 322.447 238.566C319.025 258.156 323.12 262.91 328.934 276.886C334.748 290.863 351.016 311.784 351.016 311.784L376.434 307.259C376.434 307.259 382.247 261.822 379.441 239.855C377.834 226.824 374.049 214.155 368.243 202.379L368.887 190.737C368.887 190.737 376.047 186.327 376.319 180.713C376.591 175.1 372.553 167.038 368.887 159.72C365.221 152.403 355.082 144.24 349.354 144.24Z" fill="#A1FFA1" stroke="#0A2B51" stroke-linecap="round" stroke-linejoin="round"/>
<path d="M351.23 140.932C351.23 140.932 345.631 141.576 344.771 142.65C343.912 143.724 341.32 158.56 341.32 158.56C341.32 158.56 351.445 155.552 352.519 155.552C353.593 155.552 362.428 165.891 362.428 165.891V156.841L370.175 162.655C368.676 158.338 366.802 154.159 364.576 150.168C361.139 144.24 355.97 141.146 351.23 140.932Z" fill="white" stroke="#0A2B51" stroke-linecap="round" stroke-linejoin="round"/>
<path d="M351.658 128.016C351.658 128.016 349.939 144.598 351.013 146.531C352.087 148.465 359.405 159.677 359.405 159.677C359.405 159.677 358.546 151.085 358.546 145.672C358.846 141.004 359.643 136.381 360.923 131.882L351.658 128.016Z" fill="white" stroke="#0A2B51" stroke-linecap="round" stroke-linejoin="round"/>
<path d="M366.738 100.65C366.738 100.65 362.642 110.775 358.547 114.441C356.262 116.532 353.733 118.34 351.015 119.825C351.015 119.825 350.585 126.985 351.659 128.016C352.733 129.047 361.568 138.126 364.547 136.837C367.525 135.548 372.094 127.142 372.523 120.469C372.588 115.377 371.937 110.301 370.59 105.39L366.738 100.65Z" fill="white" stroke="#0A2B51" stroke-linecap="round" stroke-linejoin="round"/>
<path d="M369.73 113.18C369.17 113.423 368.703 113.84 368.396 114.368C368.09 114.896 367.96 115.508 368.026 116.115C368.026 118.55 370.217 120.497 370.217 121.714C370.217 122.932 367.539 123.676 367.539 123.676" stroke="#0A2B51" stroke-width="0.5" stroke-linecap="round" stroke-linejoin="round"/>
<path d="M365.838 114.398C365.838 114.398 364.606 111.534 360.711 112.45" stroke="#0A2B51" stroke-width="0.5" stroke-linecap="round" stroke-linejoin="round"/>
<path d="M366.809 127.571C365.956 127.762 365.071 127.751 364.223 127.54C363.376 127.329 362.589 126.922 361.926 126.354" stroke="#0A2B51" stroke-width="0.5" stroke-linecap="round" stroke-linejoin="round"/>
<path d="M363.389 116.229C363.389 117.246 363.117 118.062 362.788 118.062C362.458 118.062 362.172 117.246 362.172 116.229C362.172 115.213 362.444 114.396 362.788 114.396C363.131 114.396 363.389 115.227 363.389 116.229Z" fill="#0A2B51"/>
<path d="M369.733 117.032C369.733 118.035 369.461 118.865 369.117 118.865C368.773 118.865 368.516 118.035 368.516 117.032C368.516 116.03 368.788 115.199 369.117 115.199C369.446 115.199 369.733 116.073 369.733 117.032Z" fill="#0A2B51"/>
<path d="M326.885 149.337C324.359 149.252 321.865 149.926 319.725 151.27C316.703 153.418 317.362 161.824 318.866 170.875C320.369 179.925 328.56 205.114 330.494 209.424C331.417 211.478 332.893 213.235 334.756 214.499C336.62 215.763 338.798 216.485 341.048 216.584C345.143 216.584 372.065 202.149 372.065 202.149L369.688 195.476C369.688 195.476 346.704 201.233 345.057 201.519C343.41 201.806 335.792 163.185 335.792 163.185" fill="#A1FFA1"/>
<path d="M326.885 149.337C324.359 149.252 321.865 149.926 319.725 151.27C316.703 153.418 317.362 161.824 318.866 170.875C320.369 179.925 328.56 205.114 330.494 209.424C331.417 211.478 332.893 213.235 334.756 214.499C336.62 215.763 338.798 216.485 341.048 216.584C345.143 216.584 372.065 202.149 372.065 202.149L369.688 195.476C369.688 195.476 346.704 201.233 345.057 201.519C343.41 201.806 335.792 163.185 335.792 163.185" stroke="#0A2B51" stroke-linecap="round" stroke-linejoin="round"/>
<path d="M351.445 196.938C351.445 196.938 342.609 196.709 341.32 196.709C340.032 196.709 334.003 203.611 332.485 205.301C330.967 206.991 332.7 207.449 333.358 207.678C334.017 207.907 338.084 206.16 338.084 206.16C338.084 206.16 334.432 213.32 335.292 214.566C336.151 215.812 338.299 216.714 339.172 215.855C340.343 214.869 341.749 214.203 343.253 213.922C344.072 213.959 344.888 213.802 345.635 213.463C346.382 213.125 347.038 212.614 347.549 211.974C349.282 210.041 352.075 202.294 352.075 202.294L356.371 200.991V197.797L351.445 196.938Z" fill="white" stroke="#0A2B51" stroke-linecap="round" stroke-linejoin="round"/>
<path d="M350.586 196.708L352.949 211.142C352.949 211.142 382.462 202.965 386.114 201.233C389.765 199.5 387.632 190.249 384.825 187.886C382.018 185.524 350.586 196.708 350.586 196.708Z" fill="#A1FFA1" stroke="#0A2B51" stroke-linecap="round" stroke-linejoin="round"/>
<path d="M351.014 311.784L376.432 307.259C376.432 307.259 382.246 261.821 379.439 239.855C378.856 235.348 378.019 230.878 376.933 226.465C370.649 229.013 364.024 230.62 357.272 231.234C340.589 233.081 329.434 228.284 325.18 225.979C324.178 229.659 323.204 233.826 322.316 238.551C318.88 258.156 322.99 262.895 328.803 276.872C334.617 290.848 351.014 311.784 351.014 311.784Z" fill="#0A2B51" stroke="#0A2B51" stroke-linecap="round" stroke-linejoin="round"/>
<path d="M355.469 258.586C359.78 265.936 362.993 273.877 365.006 282.157" stroke="white" stroke-width="0.75" stroke-linecap="round" stroke-linejoin="round"/>
<path d="M347.664 247.717C349.462 249.71 351.109 251.836 352.59 254.075" stroke="white" stroke-width="0.75" stroke-linecap="round" stroke-linejoin="round"/>
<path d="M265.994 441.465C302.106 441.465 331.38 434.297 331.38 425.455C331.38 416.613 302.106 409.445 265.994 409.445C229.883 409.445 200.609 416.613 200.609 425.455C200.609 434.297 229.883 441.465 265.994 441.465Z" fill="#0A2B51"/>
<path d="M265.994 441.465C302.106 441.465 331.38 434.297 331.38 425.455C331.38 416.613 302.106 409.445 265.994 409.445C229.883 409.445 200.609 416.613 200.609 425.455C200.609 434.297 229.883 441.465 265.994 441.465Z" fill="#F3F4F6"/>
<path d="M261.039 98.1999C261.039 98.1999 258.633 93.8037 256.872 95.3359C255.11 96.8682 257.974 108.081 260.165 107.422C262.356 106.763 261.039 98.1999 261.039 98.1999Z" fill="white" stroke="#0A2B51" stroke-linecap="round" stroke-linejoin="round"/>
<path d="M216.477 250.394C229.914 256.044 244.1 259.715 258.592 261.291C281.862 263.64 308.969 246.857 308.969 246.857C308.969 246.857 281.862 205.028 281.575 204.14C281.289 203.252 248.883 202.078 248.883 202.078L216.477 250.394Z" fill="#0A2B51" stroke="#0A2B51" stroke-linecap="round" stroke-linejoin="round"/>
<path d="M236.224 215.566C236.224 215.566 225.412 261.605 225.412 278.016C225.412 294.427 225.412 307.63 224.61 320.847C223.809 334.064 219.412 359.669 221.016 372.886C222.62 386.103 224.61 412.123 224.61 412.123C224.61 412.123 210.605 423.321 210.605 427.331C210.605 431.34 219.011 430.195 226.214 425.727C233.417 421.259 235.422 418.123 235.422 418.123L237.026 419.727L239.432 417.321L240.234 408.514L248.238 336.456L259.451 264.856L279.055 350.919L296.239 410.576L300.249 412.18L301.051 415.774L305.046 418.18L309.055 418.581L313.051 422.175C313.051 422.175 325.867 426.185 328.273 425.383C330.679 424.581 330.664 421.388 324.263 416.576C317.862 411.765 307.079 408.972 307.079 408.972C307.079 408.972 305.876 368.533 303.084 344.919C300.292 321.305 296.669 301.286 296.669 284.474C296.669 267.663 291.084 218.702 291.084 218.702L236.224 215.566Z" fill="#0A2B51" stroke="#0A2B51" stroke-linecap="round" stroke-linejoin="round"/>
<path d="M263.862 125.495L233.977 136.951L236.368 219.148C236.368 219.148 246.521 224.217 264.392 223.959C282.264 223.701 294.464 222.957 294.464 222.957L301.553 133.213L272.726 126.54C272.726 126.54 267.328 124.693 263.862 125.495Z" fill="white" stroke="#0A2B51" stroke-linecap="round" stroke-linejoin="round"/>
<path d="M264.133 139.899L267.326 148.176L258.262 212.487L263.059 223.17L271.064 210.898L270.004 148.706L273.742 140.429L269.46 131.895L264.133 139.899Z" fill="#0A2B51" stroke="#0A2B51" stroke-linecap="round" stroke-linejoin="round"/>
<path d="M263.903 121.728L259.062 127.456L259.95 145.27L270.06 137.136L278.194 149.007C278.194 149.007 281.488 133.399 280.17 128.558C278.853 123.718 274.242 120.64 271.822 121.083C269.402 121.527 263.903 121.728 263.903 121.728Z" fill="white" stroke="#0A2B51" stroke-linecap="round" stroke-linejoin="round"/>
<path d="M262.586 113.379C262.586 113.379 262.586 113.723 262.672 114.31C262.944 117.245 263.789 126.267 264.347 129.203C265.006 132.725 269.617 136.678 271.378 136.019C273.14 135.36 277.321 130.076 277.751 128.329C278.18 126.582 279.956 118.434 279.956 118.434C279.956 118.434 274.228 121.069 271.822 121.069C269.417 121.069 262.586 113.379 262.586 113.379Z" fill="white" stroke="#0A2B51" stroke-linecap="round" stroke-linejoin="round"/>
<path d="M285.6 101.895C285.6 101.895 289.18 98.3718 290.411 100.348C291.643 102.324 285.714 112.248 283.796 110.988C281.877 109.728 285.6 101.895 285.6 101.895Z" fill="white" stroke="#0A2B51" stroke-linecap="round" stroke-linejoin="round"/>
<path d="M269.16 82.8201C269.16 82.8201 263.676 85.1686 262.487 87.918C261.299 90.6675 259.351 105.102 261.313 111.832C263.275 118.563 267.986 124.377 270.721 124.72C273.456 125.064 280.531 121.584 282.492 115.312C284.454 109.04 286.402 102.424 286.788 98.1282C287.175 93.8322 290.311 96.1664 286.001 89.8942C281.691 83.6221 272.64 80.4717 269.16 82.8201Z" fill="white" stroke="#0A2B51" stroke-linecap="round" stroke-linejoin="round"/>
<path d="M270.879 101.278C270.879 102.352 270.492 103.226 269.962 103.24C269.432 103.255 268.96 102.395 268.931 101.321C268.902 100.247 269.318 99.3739 269.862 99.3596C270.406 99.3452 270.85 100.161 270.879 101.278Z" fill="#0A2B51"/>
<path d="M278.511 101.751C278.511 102.825 278.125 103.713 277.595 103.727C277.065 103.742 276.593 102.882 276.564 101.808C276.535 100.734 276.951 99.8465 277.48 99.8322C278.01 99.8179 278.483 100.677 278.511 101.751Z" fill="#0A2B51"/>
<path d="M266.953 96.3806C267.457 95.637 268.208 95.0955 269.073 94.8518C269.937 94.6081 270.86 94.6779 271.679 95.0488" stroke="#0A2B51" stroke-width="0.5" stroke-linecap="round" stroke-linejoin="round"/>
<path d="M275.891 95.8085C275.891 95.8085 278.382 94.6057 281.16 97.842" stroke="#0A2B51" stroke-width="0.5" stroke-linecap="round" stroke-linejoin="round"/>
<path d="M269.344 111.848C271.213 112.736 273.325 112.973 275.344 112.521" stroke="#0A2B51" stroke-width="0.5" stroke-linecap="round" stroke-linejoin="round"/>
<path d="M275.016 98.5156C275.016 98.5156 276.348 107.809 275.346 108.311C274.343 108.812 272.195 107.637 272.195 107.637" stroke="#0A2B51" stroke-width="0.5" stroke-linecap="round" stroke-linejoin="round"/>
<path d="M263.245 78.367C263.245 78.367 255.77 79.8992 255.985 83.8515C256.2 87.8039 258.849 94.8493 258.849 94.8493C258.849 94.8493 261.484 96.3815 261.04 98.1429C260.596 99.9042 260.825 103.642 262.372 102.324C263.918 101.007 263.03 96.1667 263.689 95.508C264.444 95.0353 265.077 94.3905 265.535 93.6263C265.993 92.8622 266.263 92.0005 266.324 91.1118C266.324 88.4769 264.777 86.0568 265.221 85.3838C265.665 84.7107 273.355 85.5986 277.093 87.3599C280.83 89.1213 285.885 91.971 284.568 94.835C284.151 95.5156 283.969 96.3139 284.049 97.1078C284.129 97.9018 284.467 98.6476 285.012 99.2312C285.012 99.2312 283.465 103.413 284.568 104.515C285.67 105.618 286.988 100.778 286.988 100.778C287.727 100.628 288.401 100.251 288.915 99.6986C289.428 99.1464 289.756 98.4471 289.852 97.699C290.822 94.1922 291.119 90.5332 290.725 86.916C290.067 83.4076 282.806 77.4648 274.902 77.25C266.997 77.0352 263.245 78.367 263.245 78.367Z" fill="#0A2B51" stroke="#0A2B51" stroke-linecap="round" stroke-linejoin="round"/>
<path d="M264.119 82.1615C264.119 82.1615 273.141 90.0662 280.831 93.145C288.521 96.2238 298.416 90.5101 298.86 86.1139C299.304 81.7176 291.829 75.3452 289.852 75.1161C287.876 74.887 290.941 72.2521 283.695 70.0611C276.449 67.8702 260.382 69.1876 259.508 73.5839C258.635 77.9801 264.119 82.1615 264.119 82.1615Z" fill="#0A2B51" stroke="#0A2B51" stroke-linecap="round" stroke-linejoin="round"/>
<path d="M260.123 126.827C260.123 126.827 259.063 177.534 252.963 194.875C246.862 212.217 239.087 229.573 232.413 235.716C225.74 241.859 213.998 261.334 213.998 261.334C213.998 261.334 209.988 253.587 209.988 251.196C209.988 248.804 228.604 231.706 230.28 230.102C231.955 228.499 232.685 220.236 232.685 207.964C232.685 195.691 229.75 138.039 229.75 136.965C229.75 135.891 255.053 125.495 260.123 126.827Z" fill="#A1FFA1" stroke="#0A2B51" stroke-linecap="round" stroke-linejoin="round"/>
<path d="M229.709 136.965L229.121 137.853C225.472 144.606 222.235 151.573 219.427 158.717C214.472 170.774 201.412 190.751 204.219 194.746C207.026 198.741 214.243 201.147 218.625 196.35C223.007 191.553 233.833 171.132 233.833 171.132C233.833 171.132 232.372 141.232 229.709 136.965Z" fill="#A1FFA1" stroke="#0A2B51" stroke-linecap="round" stroke-linejoin="round"/>
<path d="M279.613 127.355C279.613 127.355 280.143 162.325 281.203 186.34C282.263 210.354 285.499 219.433 288.148 223.972C290.797 228.512 310.301 258.67 310.301 258.67C310.301 258.67 314.84 249.319 314.296 245.581C313.752 241.844 299.618 218.101 299.618 216.77C299.618 215.438 305.762 136.706 304.688 134.573C303.614 132.439 279.613 127.355 279.613 127.355Z" fill="#A1FFA1" stroke="#0A2B51" stroke-linecap="round" stroke-linejoin="round"/>
<path d="M254.523 130.033L246.776 149.251L252.919 155.38L246.246 162.855L249.984 191.409" stroke="#0A2B51" stroke-linecap="round" stroke-linejoin="round"/>
<path d="M283.334 130.291L290.552 147.375L282.547 152.172L290.552 164.731L282.805 185.008" stroke="#0A2B51" stroke-linecap="round" stroke-linejoin="round"/>
<path d="M236.237 231.977L237.583 235.471L228.075 242.802L225.082 236.015L236.237 231.977Z" fill="white" stroke="#0A2B51" stroke-linecap="round" stroke-linejoin="round"/>
<path d="M217.421 189.146L236.223 231.977L222.219 242.788C222.219 242.788 201.855 199.943 201.855 196.348C201.855 192.754 206.266 185.537 208.257 184.334" fill="#A1FFA1"/>
<path d="M217.421 189.146L236.223 231.977L222.219 242.788C222.219 242.788 201.855 199.943 201.855 196.348C201.855 192.754 206.266 185.537 208.257 184.334" stroke="#0A2B51" stroke-linecap="round" stroke-linejoin="round"/>
<path d="M237.583 235.471L240.848 237.103L231.869 249.332L228.074 242.803L237.583 235.471Z" fill="white" stroke="#0A2B51" stroke-linecap="round" stroke-linejoin="round"/>
<path d="M287.405 232.594L285.715 235.945L294.45 244.193L298.102 237.735L287.405 232.594Z" fill="white" stroke="#0A2B51" stroke-linecap="round" stroke-linejoin="round"/>
<path d="M304.687 134.572C304.687 134.572 308.811 138.969 309.355 143.035C309.899 147.102 324.305 194.96 324.85 197.136C325.394 199.313 319.952 202.864 314.511 203.666C309.069 204.468 302.281 183.275 302.281 183.275L304.687 134.572Z" fill="#A1FFA1" stroke="#0A2B51" stroke-linecap="round" stroke-linejoin="round"/>
<path d="M310.4 191.852L287.402 232.593L300.29 244.75C300.29 244.75 324.878 204.167 325.236 200.587C325.594 197.007 321.942 189.389 320.066 188" fill="#A1FFA1"/>
<path d="M310.4 191.852L287.402 232.593L300.29 244.75C300.29 244.75 324.878 204.167 325.236 200.587C325.594 197.007 321.942 189.389 320.066 188" stroke="#0A2B51" stroke-linecap="round" stroke-linejoin="round"/>
<path d="M285.713 235.943L282.305 237.232L290.009 250.306L294.448 244.192L285.713 235.943Z" fill="white" stroke="#0A2B51" stroke-linecap="round" stroke-linejoin="round"/>
</svg>
