<svg width="120" height="120" viewBox="0 0 120 120" fill="none" xmlns="http://www.w3.org/2000/svg">
<g clip-path="url(#clip0_442_35)">
<path d="M60 60V60.05" stroke="#0A2B51" stroke-width="3" stroke-linecap="round" stroke-linejoin="round"/>
<path d="M95.355 24.6446C91.6043 20.8938 84.2823 21.0217 74.9997 24.9999C65.7171 28.9782 55.2344 36.481 45.8576 45.8578C36.4807 55.2346 28.9779 65.7173 24.9997 74.9999C21.0214 84.2825 20.8936 91.6045 24.6443 95.3553C28.3951 99.106 35.7171 98.9782 44.9997 94.9999C54.2823 91.0217 64.765 83.5189 74.1418 74.1421C78.7848 69.4991 83.0164 64.5359 86.5952 59.5356C90.174 54.5354 93.0299 49.5962 94.9997 44.9999C96.9695 40.4037 98.0148 36.2404 98.0757 32.7478C98.1367 29.2552 97.2122 26.5017 95.355 24.6446Z" stroke="#0A2B51" stroke-width="3" stroke-linecap="round" stroke-linejoin="round"/>
<path d="M24.6451 24.6445C20.8943 28.3952 21.0222 35.7172 25.0004 44.9998C28.9787 54.2824 36.4814 64.7651 45.8583 74.142C55.2351 83.5188 65.7178 91.0216 75.0004 94.9998C84.283 98.9781 91.605 99.1059 95.3557 95.3552C99.1065 91.6044 98.9787 84.2824 95.0004 74.9998C91.0222 65.7172 83.5194 55.2345 74.1425 45.8577C69.4996 41.2148 64.5363 36.9831 59.5361 33.4043C54.5359 29.8255 49.5967 26.9697 45.0004 24.9998C40.4041 23.03 36.2409 21.9848 32.7483 21.9238C29.2557 21.8628 26.5022 22.7873 24.6451 24.6445Z" stroke="#0A2B51" stroke-width="3" stroke-linecap="round" stroke-linejoin="round"/>
</g>
<defs>
<clipPath id="clip0_442_35">
<rect width="120" height="120" fill="white"/>
</clipPath>
</defs>
</svg>
