<svg width="296" height="303" viewBox="0 0 296 303" fill="none" xmlns="http://www.w3.org/2000/svg">
<path opacity="0.7" d="M17.1919 94.6214C17.1919 94.6214 -1.76649 143.581 24.8759 192.881C51.5183 242.181 106.394 268.225 150.316 290.495C194.237 312.765 239.844 301.919 261.516 265.444C283.188 228.969 253.465 202.932 253.424 150.919C253.383 98.9054 261.21 85.1354 233.024 41.1938C204.838 -2.74782 135.743 -12.4786 83.4919 20.1138C31.2407 52.7062 17.1919 94.6214 17.1919 94.6214Z" fill="white"/>
<path d="M12.6554 106.433C38.373 80.7221 60.1534 102.292 69.3334 67.7681C90.0598 -10.2211 176.025 -9.4799 187.327 46.0149C207.693 145.975 296.399 82.4969 295.739 154.087C295.059 230.526 238.823 290.087 137.979 296.01C47.6278 301.348 -29.9602 149.035 12.6554 106.433Z" fill="#0A2B51"/>
<path d="M12.6554 106.433C38.373 80.7221 60.1534 102.292 69.3334 67.7681C90.0598 -10.2211 176.025 -9.4799 187.327 46.0149C207.693 145.975 296.399 82.4969 295.739 154.087C295.059 230.526 238.823 290.087 137.979 296.01C47.6278 301.348 -29.9602 149.035 12.6554 106.433Z" fill="#F3F4F6"/>
<path d="M76.467 62.6C76.3038 61.24 76.9226 60.3628 78.2486 60.2064C79.5746 60.05 80.377 60.7368 80.5402 62.124L81.0638 66.5508C81.2202 67.9108 80.6014 68.788 79.2754 68.9444C77.9494 69.1008 77.147 68.414 76.9838 67.0268L76.467 62.6ZM78.337 66.9656C78.4118 67.564 78.6906 67.7816 79.1326 67.734C79.5746 67.6864 79.8126 67.4008 79.7242 66.8024L79.187 62.1852C79.1122 61.5868 78.813 61.3692 78.3914 61.4236C77.9698 61.478 77.7114 61.75 77.7998 62.3484L78.337 66.9656ZM83.573 59.6828L84.8242 59.5332L81.091 73.6228L79.8398 73.7724L83.573 59.6828ZM83.7158 66.748C83.5526 65.388 84.1782 64.504 85.5042 64.3544C86.8302 64.2048 87.6326 64.8848 87.7958 66.2652L88.3126 70.692C88.4758 72.052 87.857 72.9292 86.5242 73.0856C85.1914 73.242 84.3958 72.5552 84.2326 71.168L83.7158 66.748ZM85.5926 71.1068C85.6606 71.7052 85.9394 71.9296 86.3814 71.8752C86.8234 71.8208 87.0614 71.542 86.9798 70.9436L86.4358 66.3264C86.3678 65.7348 86.0686 65.5172 85.647 65.5648C85.2254 65.6124 84.967 65.898 85.0554 66.4896L85.5926 71.1068Z" fill="#263238"/>
<path d="M91.4658 76.1456L75.717 77.9884C75.3591 78.0306 74.999 77.9289 74.7159 77.7058C74.4329 77.4827 74.25 77.1563 74.2074 76.7984L72.317 60.56C72.2836 60.2579 72.3182 59.9521 72.4182 59.665C72.5182 59.3779 72.6811 59.1168 72.895 58.9008L79.4638 52.434C79.7802 52.1203 80.1926 51.9217 80.6351 51.8699C81.0776 51.8182 81.5248 51.9162 81.905 52.1484L89.7862 56.9084C90.0458 57.0661 90.2659 57.281 90.4298 57.5367C90.5936 57.7925 90.6968 58.0823 90.7314 58.384L92.6354 74.6224C92.6817 74.9794 92.5847 75.3402 92.3654 75.6257C92.1462 75.9113 91.8227 76.0982 91.4658 76.1456Z" stroke="#263238" stroke-linecap="round" stroke-linejoin="round"/>
<path d="M81.9447 54.2364C81.9691 54.4358 81.9337 54.6381 81.8429 54.8174C81.7521 54.9967 81.61 55.1449 81.4347 55.2433C81.2594 55.3416 81.0589 55.3856 80.8585 55.3696C80.6582 55.3537 80.4671 55.2785 80.3096 55.1536C80.1521 55.0288 80.0353 54.8599 79.974 54.6685C79.9127 54.4771 79.9098 54.2718 79.9655 54.0787C80.0212 53.8856 80.1331 53.7134 80.287 53.5841C80.4408 53.4547 80.6297 53.3741 80.8295 53.3524C81.0946 53.3217 81.361 53.3977 81.5701 53.5634C81.7792 53.7292 81.914 53.9713 81.9447 54.2364Z" stroke="#263238" stroke-linecap="round" stroke-linejoin="round"/>
<path d="M80.9453 42.8804C80.9453 42.8804 84.0189 54.7124 80.9453 54.3724" stroke="#263238" stroke-linecap="round" stroke-linejoin="round"/>
<path d="M80.1641 51.9923C80.7625 48.7011 83.7749 43.1523 83.7749 43.1523" stroke="#263238" stroke-linecap="round" stroke-linejoin="round"/>
<path d="M80.9461 54.3516C80.7663 54.3401 80.5945 54.2731 80.4545 54.1598C80.3144 54.0465 80.2129 53.8926 80.1641 53.7192" stroke="#263238" stroke-linecap="round" stroke-linejoin="round"/>
<path d="M94.6641 47.2524C97.4205 49.4801 99.5331 52.4025 100.784 55.7184" stroke="#263238" stroke-linecap="round" stroke-linejoin="round"/>
<path d="M62.832 57.7518C63.6222 54.7119 65.1191 51.9016 67.2009 49.5497C69.2827 47.1979 71.8906 45.371 74.8121 44.2177C77.7336 43.0645 80.8862 42.6176 84.0131 42.9133C87.1401 43.2091 90.153 44.2392 92.8064 45.9198" stroke="#263238" stroke-linecap="round" stroke-linejoin="round"/>
<path d="M69.0402 77.7981C65.4445 74.6765 63.0914 70.366 62.4102 65.6533" stroke="#263238" stroke-linecap="round" stroke-linejoin="round"/>
<path d="M81.3563 82.6945C77.7186 82.549 74.1905 81.4083 71.1562 79.3965" stroke="#263238" stroke-linecap="round" stroke-linejoin="round"/>
<path d="M101.864 59.8804C102.631 65.113 101.288 70.4359 98.1302 74.6784C94.9728 78.9209 90.2597 81.7358 85.0273 82.504" stroke="#263238" stroke-linecap="round" stroke-linejoin="round"/>
<path d="M31.6629 126.231L56.6996 131.085L53.7835 146.125C53.7266 146.419 53.5555 146.678 53.3079 146.845C53.0602 147.012 52.7562 147.074 52.4628 147.017L29.632 142.591C29.3386 142.534 29.0798 142.363 28.9126 142.115C28.7453 141.867 28.6833 141.564 28.7402 141.27L31.6562 126.229L31.6629 126.231Z" stroke="#263238" stroke-width="0.998248" stroke-linecap="round" stroke-linejoin="round"/>
<path d="M57.5703 131.429L31.2158 126.349L31.988 122.343C32.0447 122.049 32.2158 121.789 32.4637 121.621C32.7117 121.454 33.0161 121.391 33.3101 121.448L57.4745 126.106C57.759 126.168 58.0086 126.337 58.1711 126.579C58.3336 126.82 58.3964 127.116 58.3464 127.402L57.5742 131.409L57.5703 131.429Z" stroke="#263238" stroke-linecap="round" stroke-linejoin="round"/>
<path d="M47.2067 124.104L43.6211 123.413L39.5129 144.726L43.0985 145.418L47.2067 124.104Z" stroke="#263238" stroke-linecap="round" stroke-linejoin="round"/>
<path d="M45.4141 123.759C45.4141 123.759 51.6361 119.216 54.5125 120.59C57.3889 121.963 55.9677 125.792 54.5125 125.513" stroke="#263238" stroke-linecap="round" stroke-linejoin="round"/>
<path d="M47.875 124.228C47.875 124.228 52.9342 121.712 53.6686 122.868C54.403 124.024 52.2202 125.092 50.5406 124.765" stroke="#263238" stroke-linecap="round" stroke-linejoin="round"/>
<path d="M45.582 123.446C45.582 123.446 48.2068 118.686 47.8668 117.149H49.6144C49.6144 117.149 50.1856 118.958 48.1456 122.052" stroke="#263238" stroke-linecap="round" stroke-linejoin="round"/>
<path d="M45.4131 123.759C45.4131 123.759 41.3331 117.231 38.1439 117.442C34.9547 117.652 34.8663 121.726 36.3147 122.004" stroke="#263238" stroke-linecap="round" stroke-linejoin="round"/>
<path d="M42.9502 123.283C42.9502 123.283 39.1898 119.06 38.0814 119.849C36.973 120.638 38.605 122.447 40.2846 122.766" stroke="#263238" stroke-linecap="round" stroke-linejoin="round"/>
<path d="M45.3719 123.405C45.3719 123.405 44.6919 117.999 45.5963 116.714L43.9643 116.034C43.9643 116.034 42.7675 117.503 43.5155 121.134" stroke="#263238" stroke-linecap="round" stroke-linejoin="round"/>
<path d="M63.9297 116.116C66.733 119.658 68.5426 123.883 69.1725 128.356" stroke="#263238" stroke-linecap="round" stroke-linejoin="round"/>
<path d="M21.3203 120.196C23.1631 116.633 25.8213 113.556 29.0784 111.216C32.3356 108.875 36.0996 107.337 40.0638 106.726C44.028 106.116 48.0804 106.45 51.8908 107.703C55.7012 108.955 59.1619 111.09 61.9911 113.933" stroke="#263238" stroke-linecap="round" stroke-linejoin="round"/>
<path d="M23.3598 146.92C19.7668 142.014 18.0536 135.982 18.5318 129.92" stroke="#263238" stroke-linecap="round" stroke-linejoin="round"/>
<path d="M37.3488 156.487C32.8486 155.285 28.7665 152.867 25.5508 149.497" stroke="#263238" stroke-linecap="round" stroke-linejoin="round"/>
<path d="M69.333 133.864C68.8103 140.597 65.6347 146.847 60.5045 151.239C55.3743 155.631 48.7097 157.805 41.9766 157.283" stroke="#263238" stroke-linecap="round" stroke-linejoin="round"/>
<path d="M170.053 66.0614L167.918 64.9734C168.235 64.0357 168.342 63.0397 168.231 62.0562C168.911 62.3826 169.632 62.7362 170.271 63.0286C170.237 63.9058 170.182 64.9394 170.053 66.0614Z" stroke="#263238" stroke-linecap="round" stroke-linejoin="round"/>
<path d="M173.159 64.4296C173.836 64.7746 174.56 65.0175 175.308 65.1504C176.091 69.3315 175.477 73.6541 173.56 77.4516C173.009 78.526 167.223 75.5612 167.767 74.4868C169.006 71.8305 169.779 68.9804 170.051 66.0616C170.181 64.9396 170.255 63.906 170.289 63.0288C171.5 63.6 172.56 64.1236 173.159 64.4296Z" stroke="#263238" stroke-linecap="round" stroke-linejoin="round"/>
<path d="M180.063 50.9452C181.678 51.7711 182.943 53.1488 183.628 54.8281C184.313 56.5073 184.373 58.3766 183.796 60.0963C183.22 61.8159 182.046 63.2717 180.488 64.1992C178.929 65.1266 177.089 65.4642 175.303 65.1504C174.555 65.0175 173.831 64.7746 173.154 64.4296C172.556 64.1236 171.495 63.6 170.285 63.0288C169.605 62.7092 168.925 62.3828 168.245 62.0564C166.572 61.288 164.954 60.5808 164.117 60.3088L171.434 46.0288C172.957 47.144 178.35 50.068 180.063 50.9452Z" stroke="#263238" stroke-linecap="round" stroke-linejoin="round"/>
<path d="M164.327 39.2696C166.376 41.827 168.762 44.096 171.419 46.0152L164.102 60.2952C160.989 59.2754 157.752 58.6784 154.48 58.5204L151.645 58.3708L162.525 37.0664L164.327 39.2696Z" stroke="#263238" stroke-linecap="round" stroke-linejoin="round"/>
<path d="M148.347 58.9625L161.104 34.0405C161.202 33.8523 161.371 33.7105 161.573 33.6456C161.776 33.5807 161.995 33.598 162.185 33.6937L163.123 34.1765C163.313 34.2739 163.456 34.4421 163.522 34.6445C163.588 34.8468 163.572 35.0672 163.477 35.2577L162.545 37.0733L151.665 58.3777L150.741 60.1933C150.692 60.2871 150.626 60.3705 150.546 60.4387C150.465 60.5069 150.372 60.5586 150.272 60.5908C150.171 60.623 150.066 60.6351 149.961 60.6264C149.855 60.6177 149.753 60.5884 149.659 60.5401L148.714 60.0573C148.616 60.0117 148.528 59.9467 148.456 59.8662C148.384 59.7856 148.33 59.6912 148.295 59.5888C148.261 59.4864 148.248 59.378 148.257 59.2703C148.266 59.1626 148.296 59.0579 148.347 58.9625Z" stroke="#263238" stroke-linecap="round" stroke-linejoin="round"/>
<path d="M148.729 43.4242L143.812 40.9082" stroke="#263238" stroke-linecap="round" stroke-linejoin="round"/>
<path d="M154.488 35.5363L151.387 30.1099" stroke="#263238" stroke-linecap="round" stroke-linejoin="round"/>
<path d="M145.701 52.7061L139.492 53.3657" stroke="#263238" stroke-linecap="round" stroke-linejoin="round"/>
<path d="M186.802 29.2327C182.51 25.257 177.232 22.5029 171.516 21.2563" stroke="#263238" stroke-linecap="round" stroke-linejoin="round"/>
<path d="M177.281 83.6802C182.05 81.6618 186.275 78.5462 189.612 74.5867C192.95 70.6273 195.306 65.936 196.488 60.8944C197.67 55.8528 197.645 50.6033 196.416 45.573C195.186 40.5427 192.787 35.8737 189.412 31.9458" stroke="#263238" stroke-linecap="round" stroke-linejoin="round"/>
<path d="M143.07 78.3691C149.026 83.4885 156.623 86.2975 164.477 86.2843" stroke="#263238" stroke-linecap="round" stroke-linejoin="round"/>
<path d="M132.156 59.4316C133.255 65.3495 135.963 70.8501 139.983 75.33" stroke="#263238" stroke-linecap="round" stroke-linejoin="round"/>
<path d="M164.477 20.4946C155.751 20.4946 147.383 23.9607 141.214 30.1303C135.044 36.3 131.578 44.6678 131.578 53.393" stroke="#263238" stroke-linecap="round" stroke-linejoin="round"/>
<path d="M106.218 106.358C103.458 103.889 100.595 104.998 99.1329 105.834C98.8405 104.161 97.7729 101.278 94.1281 100.789C90.1433 100.258 86.8793 104.141 87.9469 109.554C88.7221 113.45 91.2109 117.034 92.5437 118.7C92.7001 118.904 92.8497 119.081 92.9721 119.223H93.6521C95.8009 119.135 100.126 118.707 103.58 116.762C108.36 114.042 109.21 109.037 106.218 106.358Z" stroke="#263238" stroke-linecap="round" stroke-linejoin="round"/>
<path d="M90.7125 121.76C90.7125 121.76 90.5289 122.093 90.2773 122.678" stroke="#263238" stroke-linecap="round" stroke-linejoin="round"/>
<path d="M89.586 124.575C88.498 128.132 87.75 134.224 93.5436 137.917C107.864 147.049 112.686 125.507 101.704 127.445C94.1624 128.805 102.139 148.736 113.944 144.717" stroke="#263238" stroke-linecap="round" stroke-linejoin="round" stroke-dasharray="2.98 2.98"/>
<path d="M114.93 144.342C115.229 144.206 115.535 144.057 115.841 143.894" stroke="#263238" stroke-linecap="round" stroke-linejoin="round"/>
<path d="M97.2664 275.957C97.2664 275.957 89.1812 281.458 85.924 281.091C85.5662 281.072 85.2266 280.928 84.9652 280.683C82.8436 278.493 81.1368 274.644 81.1368 274.644C81.1368 274.644 82.15 273.243 85.2712 276.963L87.25 275.148L83.17 271.027C83.17 271.027 85.4752 269.198 89.392 271.53C89.256 271.244 86.7332 265.75 88.6372 258.27L79.1172 249.083L87.5628 241.726L88.2428 241.154C88.2428 241.154 88.7732 241.678 89.6028 242.514C90.4324 243.351 91.5816 244.357 92.826 245.452C95.8044 248.07 99.4084 250.892 100.986 250.892C103.828 250.797 97.2664 275.957 97.2664 275.957Z" fill="white"/>
<mask id="mask0_871_4" style="mask-type:luminance" maskUnits="userSpaceOnUse" x="79" y="241" width="23" height="41">
<path d="M97.2664 275.957C97.2664 275.957 89.1812 281.458 85.924 281.091C85.5662 281.072 85.2266 280.928 84.9652 280.683C82.8436 278.493 81.1368 274.644 81.1368 274.644C81.1368 274.644 82.15 273.243 85.2712 276.963L87.25 275.148L83.17 271.027C83.17 271.027 85.4752 269.198 89.392 271.53C89.256 271.244 86.7332 265.75 88.6372 258.27L79.1172 249.083L87.5628 241.726L88.2428 241.154C88.2428 241.154 88.7732 241.678 89.6028 242.514C90.4324 243.351 91.5816 244.357 92.826 245.452C95.8044 248.07 99.4084 250.892 100.986 250.892C103.828 250.797 97.2664 275.957 97.2664 275.957Z" fill="white"/>
</mask>
<g mask="url(#mask0_871_4)">
<path opacity="0.4" d="M91.0172 272.353C91.0172 272.353 86.4068 277.113 85.924 281.091C85.5662 281.072 85.2266 280.928 84.9652 280.683C82.8436 278.493 81.1368 274.644 81.1368 274.644C81.1368 274.644 82.15 273.244 85.2712 276.963L87.25 275.148L83.17 271.027C83.17 271.027 85.4752 269.198 89.392 271.53C89.256 271.244 86.7332 265.75 88.6372 258.27L79.1172 249.083L87.5628 241.726L89.6028 242.494C90.4392 243.283 91.5816 244.337 92.826 245.432C91.0376 248.05 87.2092 253.469 87.2092 253.469L90.5208 257.957C90.5208 257.957 88.4808 269.272 91.0172 272.353Z" fill="#0A2B51"/>
</g>
<path d="M97.2664 275.957C97.2664 275.957 89.1812 281.458 85.924 281.091C85.5662 281.072 85.2266 280.928 84.9652 280.683C82.8436 278.493 81.1368 274.644 81.1368 274.644C81.1368 274.644 82.15 273.243 85.2712 276.963L87.25 275.148L83.17 271.027C83.17 271.027 85.4752 269.198 89.392 271.53C89.256 271.244 86.7332 265.75 88.6372 258.27L79.1172 249.083L87.5628 241.726L88.2428 241.154C88.2428 241.154 88.7732 241.678 89.6028 242.514C90.4324 243.351 91.5816 244.357 92.826 245.452C95.8044 248.07 99.4084 250.892 100.986 250.892C103.828 250.797 97.2664 275.957 97.2664 275.957Z" stroke="#263238" stroke-linecap="round" stroke-linejoin="round"/>
<path d="M87.2773 275.148C87.7255 273.808 88.4507 272.578 89.4057 271.537" stroke="#263238" stroke-linecap="round" stroke-linejoin="round"/>
<path d="M238.095 211.914C236.819 213.775 235.277 215.438 233.518 216.851C218.653 229.159 184.381 235.211 184.381 235.211C184.381 235.211 183.232 236.932 181.464 239.38C178.295 243.779 173.107 250.538 168.877 253.925C167.089 255.36 165.477 256.189 164.247 255.965L170.679 279.717L173.556 290.026C173.556 290.026 144.003 302.946 93.4586 288.176C93.4586 288.176 92.8806 281.58 93.309 280.173C93.309 280.105 93.3498 280.037 93.377 279.962C93.8916 279.025 94.5632 278.183 95.3626 277.473C95.3626 277.473 95.077 273.23 94.9342 268.912C94.7711 266.159 94.8051 263.398 95.0362 260.65C95.3966 258.474 96.9878 253.211 97.7902 250.627L98.2594 249.124L95.7434 225.569L95.0226 218.769L94.9818 218.415C94.9818 218.368 94.9818 218.313 94.9818 218.245L94.5874 214.607L81.5858 218.578C81.5858 218.578 82.2658 220.102 83.2042 222.237C84.911 226.147 87.4202 232.097 87.9642 234.477C88.0051 234.671 88.0596 234.862 88.1274 235.048C89.331 238.482 93.9142 241.603 93.9142 241.603L81.5994 255.992L77.9614 253.449C77.4957 253.793 77.0047 254.103 76.4926 254.374C74.099 255.672 69.0806 257.583 63.5726 254.666C61.1858 253.324 59.1131 251.488 57.4934 249.28C47.8374 236.741 43.635 226.48 45.0018 214.464C46.3686 202.449 100.442 165.368 111.173 165.756L127.132 169.278C127.479 168.993 128.411 168.258 129.131 168.292C132.035 168.442 132.11 171.815 132.11 171.815L167.878 177.622C167.878 177.622 171.584 175.766 172.23 175.793C172.697 175.824 173.149 175.972 173.544 176.223C173.94 176.473 174.266 176.819 174.494 177.228C174.494 177.228 183.756 171.679 186.734 172.971C196.54 177.2 245.337 200.912 238.095 211.914Z" fill="#A1FFA1"/>
<path opacity="0.2" d="M113.831 270.68C109.767 275.148 104.309 278.108 98.3477 279.078C96.4641 279.377 94.8117 279.677 93.3633 279.976C93.8779 279.039 94.5495 278.197 95.3489 277.487C95.3489 277.487 95.0633 273.244 94.9205 268.926C99.1161 271.693 106.433 274.889 113.831 270.68Z" fill="black"/>
<path opacity="0.2" d="M97.7773 250.661L98.2465 249.158L95.7305 225.603C99.4909 230.995 112.9 249.362 122.142 251.347C131.804 253.415 105.971 257.08 97.7773 250.661Z" fill="black"/>
<path opacity="0.2" d="M170.667 279.751C160.569 278.602 146.296 276.059 144.868 270.775C142.644 262.52 153.463 257.57 168.879 253.959C167.09 255.394 165.479 256.223 164.248 255.999L170.667 279.751Z" fill="black"/>
<path opacity="0.2" d="M233.511 216.858C218.646 229.166 184.374 235.218 184.374 235.218C184.374 235.218 183.225 236.939 181.457 239.387C176.415 227.348 175.645 213.946 179.274 201.409C179.274 201.409 181.913 215.689 192.874 219.089C192.874 219.089 184.483 212.839 187.434 197.798C187.434 197.798 190.297 215.478 208.922 220.387C217.959 222.815 226.806 220.177 233.511 216.858Z" fill="black"/>
<path opacity="0.2" d="M94.9681 218.463L94.5601 214.655L81.5585 218.626C81.5585 218.626 82.2385 220.15 83.1769 222.285C78.2061 221.775 68.7745 226.365 67.1289 221.36C65.1433 215.294 77.3289 217.382 77.3289 217.382L88.8481 210.684C86.6721 201.368 92.2141 194.364 92.2141 194.364L93.2681 200.865C93.7713 188.509 98.6061 181.75 98.6061 181.75C94.6077 191.522 94.7165 215.6 94.9681 218.463Z" fill="black"/>
<path opacity="0.2" d="M93.908 241.624L81.5932 256.013L77.9552 253.47C77.4895 253.814 76.9985 254.123 76.4864 254.394C74.0928 255.693 69.0744 257.604 63.5664 254.687C67.558 249.165 75.8064 241.039 85.6052 237.904C83.1998 241.484 81.0327 245.219 79.118 249.083L81.6476 251.572C81.6476 251.572 87.958 244.378 93.908 241.624Z" fill="black"/>
<path opacity="0.2" d="M123.809 178.248C123.809 179.52 123.006 193.888 133.478 197.716C143.95 201.545 153.239 195.071 153.239 195.071C153.239 195.071 137.184 210.562 127.399 202.279C117.614 193.997 123.809 178.248 123.809 178.248Z" fill="black"/>
<path d="M93.4392 288.204C93.4392 288.204 92.8748 281.608 93.2964 280.207C93.65 279.024 95.3364 277.487 95.3364 277.487C95.3364 277.487 94.4456 264.119 95.0168 260.671C95.5064 257.713 98.24 249.111 98.24 249.111L94.5544 214.608L81.5528 218.586C81.5528 218.586 87.088 230.826 87.9448 234.457C88.8016 238.088 93.9016 241.577 93.9016 241.577L81.5868 255.959L77.9488 253.422C77.9488 253.422 67.2048 261.827 57.5012 249.261C47.7976 236.694 43.6292 226.46 44.9892 214.411C46.3492 202.361 100.443 165.321 111.174 165.702L127.133 169.231C127.473 168.946 128.412 168.211 129.126 168.245C132.029 168.395 132.104 171.768 132.104 171.768L167.872 177.575C167.872 177.575 171.585 175.719 172.231 175.746C172.697 175.778 173.147 175.927 173.541 176.177C173.936 176.428 174.261 176.773 174.488 177.181C174.488 177.181 183.75 171.639 186.728 172.924C196.52 177.153 245.31 200.865 238.075 211.867C227.8 227.507 184.355 235.198 184.355 235.198C184.355 235.198 169.905 256.958 164.214 255.952L173.523 290.013" stroke="#263238" stroke-linecap="round" stroke-linejoin="round"/>
<path d="M200.296 214.302C216.711 225.141 229.944 223.142 240.3 209.188C240.3 209.188 248.923 198.07 248.311 186.068C247.699 174.066 244.836 134.966 207.47 144.962C201.316 146.608 186.961 165.831 185.757 171.115C185.2 173.529 179.44 185.816 173.844 198.539" fill="#A1FFA1"/>
<path d="M200.296 214.302C216.711 225.141 229.944 223.142 240.3 209.188C240.3 209.188 248.923 198.07 248.311 186.068C247.699 174.066 244.836 134.966 207.47 144.962C201.316 146.608 186.961 165.831 185.757 171.115C185.2 173.529 179.44 185.816 173.844 198.539" stroke="#263238" stroke-linecap="round" stroke-linejoin="round"/>
<path d="M155.882 99.4293C155.882 99.4293 166.341 97.8449 173.603 104.346C182.79 112.567 193.106 134.735 178.418 171.469C178.418 171.469 156.719 157.066 119.686 166.709C119.686 166.709 122.875 158.093 117.279 130.968C114.749 118.694 121.114 90.4193 155.882 99.4293Z" fill="#263238"/>
<path d="M140.031 191.609C155.508 194.119 171.95 176.983 171.95 176.983C171.95 176.983 163.539 175.949 162.784 171.998C160.37 159.534 170.08 144.118 170.08 144.118C170.08 144.118 132.504 145.159 139.072 153.638C140.295 155.19 141.295 156.904 142.044 158.731C144.322 164.328 142.724 168.551 141.534 169.611C141.448 169.682 141.354 169.743 141.255 169.795C138.984 170.829 129.648 169.285 129.648 169.285C129.648 169.285 125.908 189.318 140.031 191.609Z" fill="white" stroke="#263238" stroke-linecap="round" stroke-linejoin="round"/>
<path d="M166.629 181.729C166.629 181.729 159.489 184.586 149.038 183.736L144.332 186.041" stroke="#263238" stroke-linecap="round" stroke-linejoin="round"/>
<path d="M139.637 185.68L139.297 182.593C139.297 182.593 131.586 180.179 129.199 175.596" stroke="#263238" stroke-linecap="round" stroke-linejoin="round"/>
<path d="M141.535 169.632C153.041 172.638 158.447 157.882 158.447 157.882C158.447 157.882 149.24 155.162 142.045 158.779C144.323 164.376 142.746 168.598 141.535 169.632Z" fill="#263238"/>
<path d="M170.748 136.374C173.543 120.659 170.435 101.803 146.513 103.367C129.424 104.482 129.567 123.216 130.696 128.812C132.6 138.217 129.873 141.916 132.804 149.817C134.912 155.495 139.801 161.847 145.561 164.227C149.103 165.689 163.445 155.625 164.505 151.021" fill="white"/>
<path d="M170.748 136.374C173.543 120.659 170.435 101.803 146.513 103.367C129.424 104.482 129.567 123.216 130.696 128.812C132.6 138.217 129.873 141.916 132.804 149.817C134.912 155.495 139.801 161.847 145.561 164.227C149.103 165.689 163.445 155.625 164.505 151.021" stroke="#263238" stroke-linecap="round" stroke-linejoin="round"/>
<path d="M140.691 131.742C140.549 133.51 140.338 137.862 136.611 141.099C134.191 143.187 139.739 145.322 139.739 145.322" stroke="#263238" stroke-linecap="round" stroke-linejoin="round"/>
<path d="M136.723 125.507C136.723 125.507 131.446 122.936 127.883 127.18" stroke="#263238" stroke-linecap="round" stroke-linejoin="round"/>
<path d="M145.574 125.16C149.284 124.084 153.243 124.242 156.855 125.609" stroke="#263238" stroke-linecap="round" stroke-linejoin="round"/>
<path d="M151.057 132.593C151.221 134.109 152.241 135.245 153.335 135.123C154.43 135 155.185 133.681 155.022 132.165C154.859 130.648 153.839 129.519 152.744 129.635C151.649 129.751 150.894 131.077 151.057 132.593Z" fill="#263238"/>
<path d="M140 150.32C144.195 149.741 148.218 148.271 151.798 146.009C151.798 146.009 152.294 152.605 146.773 153.972C142.536 155.026 140.898 150.191 140.898 150.191" stroke="#263238" stroke-linecap="round" stroke-linejoin="round"/>
<path d="M155.518 109.35C155.518 109.35 154.008 127.975 170.444 134.741L178.148 116.837L166.493 103.917L148.942 98.8438C122.714 100.483 111.426 116.775 125.985 160.193C125.985 160.214 121.912 108.507 155.518 109.35Z" fill="#263238"/>
<path d="M166.839 135.531C166.608 133.436 171.905 128.105 173.694 131.525C176.747 137.36 174.523 142.405 171.368 144.445C169.954 145.336 168.159 147.009 166.901 145.431" fill="white"/>
<path d="M166.839 135.531C166.608 133.436 171.905 128.105 173.694 131.525C176.747 137.36 174.523 142.405 171.368 144.445C169.954 145.336 168.159 147.009 166.901 145.431" stroke="#263238" stroke-linecap="round" stroke-linejoin="round"/>
<path d="M135.047 133.321C135.217 134.837 136.237 135.973 137.332 135.85C138.427 135.728 139.182 134.409 139.018 132.892C138.855 131.376 137.828 130.24 136.734 130.363C135.639 130.485 134.877 131.77 135.047 133.321Z" fill="#263238"/>
<g opacity="0.2">
<path d="M123.658 130.232C123.461 131.49 123.325 132.769 123.25 134.04" stroke="white" stroke-linecap="round" stroke-linejoin="round"/>
<path d="M152.794 105.963C139.507 105.617 127.158 114.083 124.234 127.377" stroke="white" stroke-linecap="round" stroke-linejoin="round"/>
<path d="M150.421 102.169C150.421 102.169 131.259 97.6607 124.078 110.37" stroke="white" stroke-linecap="round" stroke-linejoin="round"/>
<path d="M165.969 124.31C167.124 125.954 168.515 127.421 170.096 128.662" stroke="white" stroke-linecap="round" stroke-linejoin="round"/>
<path d="M158.363 104.651C159.342 110.738 161.401 116.601 164.442 121.964" stroke="white" stroke-linecap="round" stroke-linejoin="round"/>
<path d="M177.616 162.288C177.276 163.811 176.875 165.321 176.426 166.817" stroke="white" stroke-linecap="round" stroke-linejoin="round"/>
<path d="M176.508 136.965C179.615 143.867 179.405 152.455 178.126 159.718" stroke="white" stroke-linecap="round" stroke-linejoin="round"/>
<path d="M174.23 148.96C174.382 151.574 173.979 154.191 173.047 156.638C172.115 159.085 170.676 161.307 168.824 163.158" stroke="white" stroke-linecap="round" stroke-linejoin="round"/>
<path d="M165.395 106.875C168.652 111.281 171.073 116.007 174.847 120.033C178.825 124.269 182.803 129.125 183.551 135.095" stroke="white" stroke-linecap="round" stroke-linejoin="round"/>
<path d="M160.801 102.292C161.734 102.904 162.592 103.623 163.358 104.434" stroke="white" stroke-linecap="round" stroke-linejoin="round"/>
</g>
<path d="M226.346 204.55C225.966 204.632 225.585 204.7 225.19 204.754C214.909 206.223 203.376 197.696 199.486 187.462C196.413 179.377 199.099 170.203 200.568 166.28C201.03 165.049 201.363 164.335 201.363 164.335C207.565 155.495 243.618 172.801 244.04 182.348C244.462 191.895 236.88 202.238 226.346 204.55Z" fill="#263238" stroke="#263238" stroke-linecap="round" stroke-linejoin="round"/>
<path d="M237.628 183.64C237.628 183.64 235.588 198.818 225.19 204.754C214.909 206.223 203.376 197.696 199.486 187.462C196.413 179.376 199.099 170.203 200.568 166.28C212.719 159.337 237.628 183.64 237.628 183.64Z" fill="white"/>
<mask id="mask1_871_4" style="mask-type:luminance" maskUnits="userSpaceOnUse" x="198" y="165" width="40" height="40">
<path d="M237.628 183.64C237.628 183.64 235.588 198.818 225.19 204.754C214.909 206.223 203.376 197.696 199.486 187.462C196.413 179.376 199.099 170.203 200.568 166.28C212.719 159.337 237.628 183.64 237.628 183.64Z" fill="white"/>
</mask>
<g mask="url(#mask1_871_4)">
<path opacity="0.4" d="M237.628 183.64C237.628 183.64 235.588 198.818 225.19 204.754C214.909 206.223 203.376 197.696 199.486 187.462C196.413 179.376 199.099 170.203 200.568 166.28C212.719 159.337 237.628 183.64 237.628 183.64Z" fill="#0A2B51"/>
</g>
<path d="M237.628 183.64C237.628 183.64 235.588 198.818 225.19 204.754C214.909 206.223 203.376 197.696 199.486 187.462C196.413 179.376 199.099 170.203 200.568 166.28C212.719 159.337 237.628 183.64 237.628 183.64Z" stroke="#263238" stroke-linecap="round" stroke-linejoin="round"/>
<path d="M195.105 191.631C195.105 191.631 206.815 208.44 220.49 209.841C234.165 211.242 242.93 199.723 243.467 191.039" stroke="#263238" stroke-linecap="round" stroke-linejoin="round"/>
<path d="M188.523 115.776C189.55 112.899 196.935 113.865 199.281 122.841C201.627 131.817 210.841 153.638 210.841 153.638C210.841 153.638 247.561 99.6394 254.116 97.5586C260.671 95.4778 258.094 104.835 249.302 117.816C249.302 117.816 257.537 116.367 259.699 117.816C261.861 119.264 260.807 128.016 261.957 131.049C263.888 136.169 259.597 137.25 259.597 137.25C261.702 137.297 263.726 138.068 265.329 139.433C267.689 141.643 266.506 150.775 267.179 153.359C267.852 155.943 263.351 158.119 263.351 158.119C263.351 158.119 274.169 164.015 271.728 165.497C267.607 167.986 265.261 165.436 265.261 165.436C265.261 165.436 248.635 186.312 236.096 190.963C223.557 195.615 199.152 177.132 196.527 167.068C193.902 157.004 197.037 157.623 195.045 140.875C193.052 124.126 188.523 115.776 188.523 115.776Z" fill="white" stroke="#263238" stroke-linecap="round" stroke-linejoin="round"/>
<path d="M242.058 82.5977L193.707 95.2012C191.992 95.6483 190.964 97.4013 191.411 99.1166L214.266 186.797C214.714 188.512 216.467 189.54 218.182 189.093L266.533 176.489C268.248 176.042 269.276 174.289 268.829 172.574L245.974 84.894C245.526 83.1787 243.773 82.1506 242.058 82.5977Z" fill="white" stroke="#263238" stroke-linecap="round" stroke-linejoin="round"/>
<path d="M214.357 92.677C214.383 92.7765 214.389 92.8802 214.375 92.9821C214.361 93.084 214.327 93.1821 214.274 93.2708C214.222 93.3596 214.153 93.4372 214.071 93.4992C213.989 93.5612 213.896 93.6065 213.796 93.6324C213.697 93.6583 213.593 93.6643 213.491 93.6501C213.389 93.6359 213.291 93.6018 213.202 93.5497C213.113 93.4976 213.036 93.4286 212.974 93.3465C212.912 93.2644 212.867 93.1709 212.841 93.0714C212.813 92.9718 212.806 92.8677 212.819 92.7652C212.832 92.6627 212.866 92.5639 212.918 92.4745C212.97 92.3852 213.039 92.3072 213.121 92.245C213.204 92.1828 213.298 92.1378 213.398 92.1126C213.6 92.0608 213.814 92.0912 213.994 92.1969C214.174 92.3027 214.304 92.4753 214.357 92.677Z" fill="#0A2B51" stroke="#263238" stroke-linecap="round" stroke-linejoin="round"/>
<path d="M224.319 90.0787C224.335 90.1412 224.339 90.2064 224.33 90.2704C224.321 90.3344 224.299 90.3959 224.267 90.4516C224.234 90.5072 224.19 90.5558 224.138 90.5945C224.087 90.6332 224.028 90.6613 223.965 90.6771C223.871 90.7008 223.773 90.6963 223.682 90.664C223.591 90.6318 223.511 90.5732 223.453 90.4958C223.395 90.4184 223.361 90.3256 223.356 90.2291C223.351 90.1326 223.374 90.0366 223.424 89.9534C223.473 89.8702 223.545 89.8034 223.633 89.7614C223.72 89.7195 223.817 89.7042 223.913 89.7176C224.009 89.731 224.098 89.7725 224.171 89.8367C224.243 89.901 224.294 89.9852 224.319 90.0787Z" fill="#0A2B51" stroke="#263238" stroke-linecap="round" stroke-linejoin="round"/>
<path d="M221.939 91.3054L216.102 92.8099C215.985 92.8399 215.915 92.9588 215.945 93.0753L215.976 93.1941C216.006 93.3106 216.125 93.3808 216.241 93.3507L222.079 91.8462C222.195 91.8162 222.265 91.6973 222.235 91.5808L222.205 91.462C222.175 91.3455 222.056 91.2753 221.939 91.3054Z" fill="#0A2B51" stroke="#263238" stroke-width="1.0017" stroke-linecap="round" stroke-linejoin="round"/>
<path d="M244.523 85.8021L267.188 172.76C267.314 173.248 267.242 173.766 266.987 174.201C266.732 174.636 266.315 174.951 265.828 175.079L218.099 187.517C217.611 187.643 217.093 187.571 216.658 187.316C216.224 187.061 215.908 186.644 215.78 186.157L193.115 99.1981C192.989 98.7103 193.061 98.1923 193.316 97.7577C193.571 97.3231 193.988 97.0072 194.475 96.8793L204.274 94.3225C204.589 94.24 204.921 94.2557 205.226 94.3676C205.531 94.4794 205.794 94.682 205.981 94.9481L206.695 95.9613C206.882 96.2274 207.145 96.43 207.45 96.5418C207.755 96.6537 208.087 96.6694 208.402 96.5869L229.91 90.9837C230.221 90.9024 230.501 90.7291 230.712 90.4865C230.923 90.2438 231.056 89.9431 231.093 89.6237L231.223 88.3929C231.258 88.0728 231.391 87.7712 231.602 87.5282C231.813 87.2853 232.094 87.1125 232.406 87.0329L242.205 84.4761C242.688 84.3486 243.202 84.4162 243.636 84.6643C244.069 84.9123 244.388 85.321 244.523 85.8021Z" fill="#0A2B51" stroke="#263238" stroke-linecap="round" stroke-linejoin="round"/>
<path d="M246.186 134.599C250.621 124.385 245.936 112.51 235.722 108.075C225.508 103.64 213.633 108.325 209.198 118.539C204.763 128.753 209.448 140.628 219.662 145.063C229.876 149.498 241.751 144.813 246.186 134.599Z" fill="white" stroke="#263238" stroke-linecap="round" stroke-linejoin="round"/>
<path d="M219.363 138.148C219.535 138.553 219.851 138.88 220.251 139.066C220.65 139.252 221.104 139.283 221.525 139.154L228.155 137.243C228.17 137.386 228.197 137.527 228.237 137.665C228.337 138.011 228.505 138.335 228.73 138.616C228.956 138.898 229.234 139.133 229.55 139.307C229.867 139.48 230.214 139.59 230.572 139.63C230.931 139.67 231.294 139.639 231.64 139.538C231.987 139.438 232.31 139.27 232.592 139.045C232.873 138.819 233.108 138.541 233.282 138.225C233.456 137.909 233.566 137.561 233.605 137.203C233.645 136.844 233.614 136.481 233.514 136.135C233.472 135.998 233.419 135.863 233.357 135.734L239.98 133.823C240.413 133.707 240.786 133.433 241.027 133.056C241.267 132.678 241.357 132.224 241.279 131.783C241.237 131.543 241.145 131.315 241.009 131.113C240.873 130.912 240.696 130.741 240.489 130.613C240.282 130.484 240.051 130.401 239.81 130.368C239.568 130.336 239.323 130.354 239.09 130.423L238.532 130.083C237.323 129.36 236.434 128.206 236.043 126.853L234.785 122.494C234.267 120.699 233.117 119.152 231.547 118.14C229.977 117.127 228.093 116.717 226.244 116.986C226.562 116.651 226.76 116.221 226.809 115.762C226.858 115.304 226.754 114.841 226.514 114.447C226.274 114.053 225.911 113.749 225.481 113.582C225.05 113.415 224.577 113.394 224.134 113.523C223.691 113.651 223.302 113.922 223.029 114.293C222.755 114.665 222.611 115.116 222.619 115.577C222.627 116.038 222.786 116.484 223.073 116.846C223.359 117.207 223.757 117.465 224.204 117.578C222.48 118.331 221.089 119.687 220.293 121.392C219.497 123.097 219.35 125.034 219.88 126.839L221.151 131.246C221.377 132.016 221.434 132.825 221.316 133.619C221.199 134.413 220.91 135.171 220.471 135.843C220.241 135.912 220.028 136.029 219.845 136.185C219.662 136.342 219.514 136.534 219.41 136.751C219.305 136.968 219.247 137.204 219.239 137.445C219.231 137.685 219.273 137.924 219.363 138.148ZM225.898 115.259C225.965 115.492 225.961 115.739 225.888 115.969C225.815 116.2 225.674 116.404 225.485 116.555C225.296 116.706 225.066 116.797 224.825 116.818C224.584 116.838 224.342 116.787 224.13 116.67C223.918 116.553 223.746 116.376 223.635 116.161C223.523 115.946 223.478 115.703 223.505 115.463C223.532 115.222 223.629 114.995 223.785 114.81C223.941 114.625 224.149 114.49 224.381 114.423C224.536 114.377 224.698 114.362 224.858 114.38C225.018 114.397 225.173 114.446 225.314 114.524C225.455 114.602 225.579 114.707 225.679 114.833C225.78 114.959 225.854 115.104 225.898 115.259Z" fill="#A1FFA1" stroke="#263238" stroke-linecap="round" stroke-linejoin="round"/>
<path d="M232.151 135.843L229.227 136.693" stroke="#263238" stroke-linecap="round" stroke-linejoin="round"/>
<path d="M236.477 131.165L223.074 135.041" stroke="#263238" stroke-linecap="round" stroke-linejoin="round"/>
<path d="M250.479 158.249L223.279 165.335C222.502 165.54 221.691 165.59 220.894 165.481C220.097 165.373 219.329 165.108 218.634 164.703C217.94 164.297 217.332 163.759 216.845 163.118C216.359 162.478 216.003 161.748 215.799 160.969C215.594 160.191 215.545 159.38 215.654 158.583C215.763 157.785 216.028 157.017 216.434 156.323C216.84 155.628 217.379 155.02 218.021 154.534C218.662 154.048 219.393 153.693 220.172 153.489L247.372 146.404C248.938 146 250.6 146.232 251.995 147.05C253.391 147.869 254.405 149.206 254.818 150.769C255.233 152.337 255.009 154.004 254.196 155.407C253.382 156.809 252.046 157.832 250.479 158.249Z" fill="#263238"/>
<path d="M220.28 156.841C220.374 156.682 220.501 156.544 220.652 156.437C220.803 156.33 220.976 156.257 221.157 156.222C221.333 156.163 221.52 156.143 221.704 156.163C221.888 156.183 222.066 156.242 222.225 156.338C222.538 156.571 222.752 156.913 222.823 157.297L222.871 157.474L222.035 157.691L221.973 157.46C221.948 157.308 221.871 157.169 221.756 157.066C221.702 157.031 221.641 157.01 221.577 157.003C221.513 156.996 221.449 157.003 221.389 157.025C221.326 157.035 221.267 157.061 221.216 157.099C221.165 157.136 221.124 157.186 221.096 157.242C221.045 157.388 221.045 157.546 221.096 157.691C221.15 157.914 221.274 158.114 221.45 158.262C221.674 158.439 221.915 158.592 222.171 158.718C222.391 158.829 222.605 158.954 222.81 159.092C222.989 159.216 223.147 159.368 223.279 159.541C223.43 159.744 223.541 159.975 223.605 160.221C223.728 160.594 223.704 161 223.537 161.356C223.326 161.662 223.012 161.881 222.653 161.975C222.294 162.069 221.912 162.03 221.579 161.866C221.257 161.639 221.038 161.295 220.967 160.908L220.879 160.561L221.715 160.343L221.817 160.744C221.912 161.112 222.109 161.254 222.415 161.173C222.721 161.091 222.83 160.874 222.735 160.493C222.679 160.27 222.556 160.071 222.381 159.922C222.159 159.745 221.917 159.594 221.661 159.473C221.441 159.357 221.228 159.23 221.021 159.092C220.843 158.968 220.684 158.816 220.552 158.643C220.4 158.44 220.289 158.209 220.226 157.963C220.106 157.595 220.126 157.196 220.28 156.841Z" fill="white"/>
<path d="M224.958 159.936C225.053 160.296 225.257 160.439 225.563 160.364C225.869 160.289 225.971 160.058 225.876 159.684L224.747 155.346L225.584 155.128L226.699 159.405C226.822 159.779 226.797 160.185 226.631 160.541C226.537 160.702 226.409 160.842 226.257 160.949C226.104 161.057 225.93 161.131 225.747 161.166C225.57 161.223 225.383 161.242 225.198 161.223C225.014 161.204 224.835 161.148 224.672 161.058C224.356 160.822 224.138 160.478 224.061 160.092L222.945 155.815L223.829 155.584L224.958 159.936Z" fill="white"/>
<path d="M228.598 154.693C228.748 154.796 228.877 154.929 228.975 155.083C229.073 155.238 229.139 155.41 229.169 155.59L229.217 155.788C229.291 156.032 229.308 156.29 229.264 156.542C229.221 156.75 229.108 156.937 228.945 157.073C229.427 157.127 229.754 157.474 229.917 158.1L230.033 158.562C230.094 158.738 230.118 158.925 230.104 159.111C230.09 159.297 230.038 159.478 229.951 159.643C229.849 159.8 229.715 159.935 229.558 160.038C229.401 160.141 229.225 160.21 229.04 160.242L227.68 160.609L226.211 154.985L227.571 154.632C227.909 154.523 228.275 154.545 228.598 154.693ZM227.666 157.039L228.013 156.95C228.086 156.938 228.156 156.91 228.218 156.869C228.28 156.828 228.333 156.775 228.373 156.712C228.436 156.553 228.436 156.376 228.373 156.216L228.292 155.903C228.265 155.746 228.186 155.602 228.067 155.495C228.013 155.458 227.951 155.434 227.886 155.426C227.821 155.417 227.755 155.425 227.693 155.448L227.265 155.556L227.666 157.039ZM228.346 159.575L228.849 159.439C228.914 159.429 228.975 159.405 229.029 159.369C229.083 159.332 229.129 159.284 229.162 159.228C229.216 159.079 229.216 158.915 229.162 158.766L229.033 158.276C229.001 158.085 228.905 157.91 228.761 157.78C228.689 157.74 228.609 157.715 228.527 157.708C228.445 157.701 228.363 157.712 228.285 157.739L227.891 157.848L228.346 159.575Z" fill="white"/>
<path d="M229.737 154.4C229.829 154.239 229.956 154.1 230.107 153.993C230.259 153.886 230.432 153.814 230.615 153.782C230.79 153.721 230.976 153.7 231.16 153.719C231.345 153.737 231.523 153.796 231.682 153.89C231.998 154.125 232.214 154.47 232.287 154.856L232.335 155.033L231.499 155.25L231.437 155.012C231.413 154.86 231.333 154.722 231.213 154.625C231.161 154.589 231.101 154.567 231.038 154.559C230.976 154.55 230.912 154.557 230.853 154.577C230.789 154.588 230.729 154.613 230.677 154.651C230.626 154.689 230.583 154.738 230.553 154.795C230.503 154.94 230.503 155.098 230.553 155.244C230.605 155.466 230.727 155.666 230.9 155.815C231.127 155.99 231.371 156.142 231.628 156.27C231.886 156.406 232.097 156.536 232.267 156.644C232.443 156.772 232.601 156.923 232.736 157.093C232.887 157.296 232.996 157.527 233.056 157.773C233.184 158.145 233.162 158.553 232.995 158.909C232.9 159.07 232.772 159.209 232.62 159.316C232.467 159.424 232.294 159.499 232.111 159.534C231.933 159.591 231.745 159.611 231.559 159.593C231.373 159.574 231.192 159.517 231.029 159.426C230.713 159.191 230.497 158.846 230.424 158.46L230.329 158.12L231.165 157.896L231.274 158.304C231.369 158.664 231.567 158.807 231.873 158.725C232.179 158.644 232.281 158.426 232.185 158.045C232.132 157.825 232.01 157.628 231.839 157.481C231.614 157.302 231.37 157.149 231.111 157.025C230.894 156.909 230.683 156.782 230.479 156.644C230.297 156.524 230.138 156.372 230.009 156.196C229.851 155.996 229.74 155.764 229.683 155.516C229.563 155.15 229.583 154.753 229.737 154.4Z" fill="white"/>
<path d="M236.128 156.957C236.251 157.33 236.227 157.737 236.06 158.093C235.965 158.253 235.837 158.39 235.685 158.497C235.533 158.604 235.359 158.677 235.176 158.711C235 158.771 234.813 158.793 234.627 158.774C234.442 158.755 234.263 158.697 234.102 158.603C233.78 158.376 233.561 158.031 233.49 157.644L232.728 154.72C232.604 154.347 232.625 153.941 232.79 153.584C232.884 153.423 233.012 153.284 233.165 153.177C233.317 153.069 233.49 152.994 233.674 152.959C233.852 152.902 234.04 152.882 234.226 152.9C234.412 152.919 234.592 152.976 234.755 153.067C235.071 153.302 235.287 153.647 235.36 154.033L235.503 154.577L234.666 154.795L234.51 154.189C234.415 153.822 234.218 153.679 233.912 153.761C233.606 153.843 233.504 154.06 233.599 154.441L234.388 157.474C234.483 157.841 234.68 157.984 234.986 157.902C235.292 157.821 235.401 157.603 235.306 157.222L235.095 156.42L235.931 156.202L236.128 156.957Z" fill="white"/>
<path d="M238.733 157.44C238.68 157.301 238.637 157.157 238.604 157.012L238.373 156.128C238.339 155.931 238.241 155.752 238.094 155.618C238.021 155.574 237.94 155.546 237.855 155.537C237.771 155.527 237.685 155.536 237.604 155.563L237.305 155.645L237.897 157.937L237.013 158.168L235.551 152.544L236.911 152.191C237.08 152.114 237.265 152.079 237.451 152.088C237.636 152.098 237.817 152.151 237.978 152.244C238.139 152.337 238.275 152.467 238.376 152.623C238.476 152.78 238.538 152.958 238.556 153.143L238.672 153.591C238.76 153.809 238.78 154.048 238.73 154.277C238.681 154.506 238.563 154.715 238.393 154.877C238.613 154.904 238.813 155.016 238.951 155.189C239.114 155.408 239.23 155.658 239.291 155.924L239.515 156.794C239.556 156.951 239.597 157.08 239.631 157.175C239.669 157.273 239.722 157.364 239.787 157.447L238.89 157.685C238.827 157.611 238.774 157.529 238.733 157.44ZM237.094 154.843L237.434 154.754C237.509 154.74 237.58 154.711 237.643 154.669C237.706 154.627 237.76 154.573 237.802 154.509C237.862 154.352 237.862 154.177 237.802 154.02L237.652 153.462C237.629 153.305 237.552 153.161 237.434 153.054C237.379 153.017 237.316 152.993 237.25 152.985C237.184 152.976 237.116 152.984 237.054 153.007L236.632 153.115L237.094 154.843Z" fill="white"/>
<path d="M239.665 151.47L241.127 157.093L240.243 157.325L238.781 151.681L239.665 151.47Z" fill="white"/>
<path d="M242.719 151C242.867 151.104 242.994 151.236 243.091 151.389C243.188 151.542 243.253 151.713 243.283 151.891L243.337 152.095C243.409 152.338 243.425 152.593 243.385 152.843C243.339 153.05 243.226 153.236 243.065 153.373C243.548 153.435 243.868 153.775 244.038 154.407L244.153 154.869C244.214 155.045 244.238 155.23 244.223 155.415C244.209 155.6 244.158 155.78 244.072 155.944C243.97 156.102 243.837 156.238 243.68 156.342C243.523 156.446 243.346 156.517 243.161 156.549L241.801 156.909L240.277 151.299L241.637 150.953C241.99 150.825 242.379 150.842 242.719 151ZM241.787 153.346L242.134 153.258C242.28 153.228 242.409 153.143 242.494 153.02C242.557 152.86 242.557 152.683 242.494 152.523L242.413 152.211C242.384 152.052 242.305 151.907 242.188 151.796C242.132 151.76 242.069 151.737 242.003 151.729C241.937 151.72 241.87 151.727 241.807 151.748L241.386 151.864L241.787 153.346ZM242.467 155.876L242.97 155.747C243.035 155.735 243.096 155.709 243.15 155.672C243.204 155.634 243.249 155.586 243.283 155.529C243.339 155.382 243.339 155.22 243.283 155.073L243.161 154.584C243.129 154.39 243.033 154.213 242.889 154.081C242.816 154.042 242.736 154.019 242.654 154.013C242.572 154.007 242.49 154.019 242.413 154.047L242.018 154.149L242.467 155.876Z" fill="white"/>
<path d="M246.284 152.272L246.494 153.081L245.277 153.394L245.706 155.04L247.236 154.645L247.446 155.448L245.032 156.073L243.57 150.45L245.978 149.824L246.188 150.627L244.665 151.028L245.073 152.592L246.284 152.272Z" fill="white"/>
<path d="M247.92 149.314C248.098 149.256 248.286 149.235 248.472 149.252C248.658 149.27 248.838 149.325 249.002 149.416C249.316 149.642 249.53 149.98 249.6 150.361L250.341 153.21C250.469 153.578 250.448 153.981 250.28 154.332C250.183 154.491 250.054 154.627 249.9 154.731C249.747 154.836 249.572 154.906 249.389 154.937L247.988 155.304L246.52 149.681L247.92 149.314ZM248.662 154.271L249.158 154.142C249.221 154.129 249.282 154.103 249.334 154.066C249.387 154.028 249.431 153.98 249.464 153.924C249.515 153.779 249.515 153.621 249.464 153.475L248.702 150.551C248.672 150.4 248.59 150.263 248.471 150.164C248.417 150.133 248.357 150.113 248.295 150.106C248.233 150.099 248.17 150.105 248.111 150.123L247.608 150.252L248.662 154.271Z" fill="white"/>
<path d="M184.376 235.245C184.376 235.245 176.121 216.035 180.296 192.738" stroke="#263238" stroke-linecap="round" stroke-linejoin="round"/>
<path d="M164.232 255.999C164.232 255.999 147.545 261.099 145.872 264.941C144.199 268.783 153.352 265.546 153.352 265.546" stroke="#263238" stroke-linecap="round" stroke-linejoin="round"/>
<path d="M174.493 177.228C174.493 177.228 159.125 192.46 148.844 196.519" stroke="#263238" stroke-linecap="round" stroke-linejoin="round"/>
<path d="M124.142 173.134C124.142 173.134 121.34 193.697 131.792 197.58" stroke="#263238" stroke-linecap="round" stroke-linejoin="round"/>
<path d="M94.5626 214.655C94.5626 214.655 94.481 187.7 99.8326 179.363" stroke="#263238" stroke-linecap="round" stroke-linejoin="round"/>
<path d="M92.5634 187.189C92.5634 187.189 91.0606 203.931 94.4402 209.391" stroke="#263238" stroke-linecap="round" stroke-linejoin="round"/>
<path d="M81.5596 218.633C81.5596 218.633 69.8704 214.607 67.4496 219.598C65.0288 224.589 74.4196 220.163 74.4196 220.163" stroke="#263238" stroke-linecap="round" stroke-linejoin="round"/>
<path d="M88.5895 236.109C88.5895 236.109 77.1111 242.576 76.5195 246.275" stroke="#263238" stroke-linecap="round" stroke-linejoin="round"/>
<path d="M107.34 218.225C107.34 218.225 129.311 251.429 141.435 248.383" stroke="#263238" stroke-linecap="round" stroke-linejoin="round"/>
<path d="M122.345 264.798C122.345 264.798 105.121 277.425 102.625 276.358" stroke="#263238" stroke-linecap="round" stroke-linejoin="round"/>
<path opacity="0.2" d="M243 210.915C244.163 209.963 244.931 209.331 245.183 209.134C244.924 209.358 244.176 210.011 243 210.915Z" fill="black"/>
</svg>
