<svg width="347" height="342" viewBox="0 0 347 342" fill="none" xmlns="http://www.w3.org/2000/svg">
<path d="M303.947 232.25C303.947 232.25 351.942 176.616 339.613 105.468C327.285 34.3205 263.696 -2.92994 221.042 1.28526C178.389 5.50046 135.92 47.3093 94.243 52.4749C52.5661 57.6405 -10.2571 94.4157 2.44135 164.384C15.1398 234.353 53.7278 241.2 116.19 243.769C178.653 246.339 267.04 278.38 303.947 232.25Z" fill="#F3F4F6"/>
<path opacity="0.7" d="M303.947 232.25C303.947 232.25 351.942 176.616 339.613 105.468C327.285 34.3205 263.696 -2.92994 221.042 1.28526C178.389 5.50046 135.92 47.3093 94.243 52.4749C52.5661 57.6405 -10.2571 94.4157 2.44135 164.384C15.1398 234.353 53.7278 241.2 116.19 243.769C178.653 246.339 267.04 278.38 303.947 232.25Z" fill="#F3F4F6"/>
<path d="M9.19922 169.92H342.719" stroke="#263238" stroke-linecap="round" stroke-linejoin="round"/>
<path d="M50.7188 201.08C66.3684 201.08 79.0548 196.372 79.0548 190.564C79.0548 184.756 66.3684 180.048 50.7188 180.048C35.0693 180.048 22.3828 184.756 22.3828 190.564C22.3828 196.372 35.0693 201.08 50.7188 201.08Z" fill="#263238"/>
<path d="M34.1758 157.433L38.127 189.5C38.127 194.639 47.719 198.81 59.555 198.81C71.391 198.81 80.983 194.639 80.983 189.5L84.9342 157.433H34.1758Z" fill="white"/>
<mask id="mask0_871_5" style="mask-type:luminance" maskUnits="userSpaceOnUse" x="34" y="157" width="51" height="42">
<path d="M34.1758 157.433L38.127 189.5C38.127 194.639 47.719 198.81 59.555 198.81C71.391 198.81 80.983 194.639 80.983 189.5L84.9342 157.433H34.1758Z" fill="white"/>
</mask>
<g mask="url(#mask0_871_5)">
<path d="M55.8414 157.433H34.1758L38.127 189.5C38.127 194.639 47.719 198.81 59.555 198.81C60.3235 198.81 61.0803 198.793 61.8254 198.757C55.0758 186.789 54.9614 169.225 55.8414 157.433Z" fill="#0A2B51"/>
<path opacity="0.4" d="M55.8414 157.433H34.1758L38.127 189.5C38.127 194.639 47.719 198.81 59.555 198.81C60.3235 198.81 61.0803 198.793 61.8254 198.757C55.0758 186.789 54.9614 169.225 55.8414 157.433Z" fill="white"/>
</g>
<path d="M34.1758 157.433L38.127 189.5C38.127 194.639 47.719 198.81 59.555 198.81C71.391 198.81 80.983 194.639 80.983 189.5L84.9342 157.433H34.1758Z" stroke="#263238" stroke-linecap="round" stroke-linejoin="round"/>
<path d="M59.555 168.458C73.5715 168.458 84.9342 163.521 84.9342 157.432C84.9342 151.342 73.5715 146.405 59.555 146.405C45.5384 146.405 34.1758 151.342 34.1758 157.432C34.1758 163.521 45.5384 168.458 59.555 168.458Z" fill="white" stroke="#263238" stroke-linecap="round" stroke-linejoin="round"/>
<path d="M59.5526 166.734C72.0771 166.734 82.2302 162.439 82.2302 157.142C82.2302 151.844 72.0771 147.55 59.5526 147.55C47.0281 147.55 36.875 151.844 36.875 157.142C36.875 162.439 47.0281 166.734 59.5526 166.734Z" fill="#263238" stroke="#263238" stroke-linecap="round" stroke-linejoin="round"/>
<path d="M61.279 158.136C61.279 158.136 59.255 139.463 46.6446 125.33C34.0342 111.197 37.123 112.931 37.123 112.931" stroke="#263238" stroke-linecap="round" stroke-linejoin="round"/>
<path d="M84.002 102.617C84.002 102.617 68.866 117.762 66.3404 134.922C63.8148 152.082 65.4604 154.854 65.4604 154.854" stroke="#263238" stroke-linecap="round" stroke-linejoin="round"/>
<path d="M63.7588 157.107C63.7588 157.107 60.802 146.547 57.7748 125.33C54.7476 104.113 56.2612 93.0342 56.2612 93.0342" stroke="#263238" stroke-linecap="round" stroke-linejoin="round"/>
<path d="M38.4333 118.704C38.4333 118.704 34.2005 123.297 27.6885 114.304C21.1765 105.31 23.3413 94.8203 23.3413 94.8203C23.3413 94.8203 26.6589 99.8803 31.6837 102.01C36.7085 104.14 44.0477 116.24 38.4333 118.704Z" fill="#A1FFA1"/>
<path d="M56.2284 98.0761C56.2284 98.0761 50.174 99.5897 49.6724 88.4929C49.1708 77.3961 56.7124 69.8193 56.7124 69.8193C56.7124 69.8193 56.7124 75.8737 59.7396 80.3793C62.7668 84.8849 62.2916 99.0881 56.2284 98.0761Z" fill="#A1FFA1"/>
<path d="M81.2118 108.222C81.2118 108.222 75.3158 106.172 80.9742 96.6152C86.6326 87.0584 97.1134 84.8584 97.1134 84.8584C97.1134 84.8584 93.7958 89.9272 93.8398 95.4184C93.8838 100.91 85.7614 112.385 81.2118 108.222Z" fill="#A1FFA1"/>
<path d="M63.2942 155.611C63.2942 155.611 67.3334 137.439 75.9134 128.867C81.0031 123.771 87.8865 120.871 95.0886 120.789C95.0886 120.789 84.995 124.828 81.9678 132.898C78.9406 140.967 73.8718 158.638 73.8718 158.638H48.6686C48.6686 158.638 45.6326 152.082 37.0526 144.505C28.4726 136.928 14.3398 131.895 14.3398 131.895C14.3398 131.895 29.9862 126.342 41.0918 130.883C52.1974 135.423 60.267 154.643 60.267 154.643L63.2942 155.611Z" fill="#A1FFA1"/>
<path d="M67.1855 155.566C67.1855 155.566 57.171 148.693 46.2415 149.837C35.3119 150.981 34.4055 159.861 33.9215 162.439C33.6534 163.953 33.5034 165.486 33.4727 167.024C33.4727 167.024 47.5527 162.729 56.2295 161.295C64.9063 159.861 68.5494 163.873 67.1855 155.566Z" fill="#A1FFA1"/>
<path d="M63.4526 155.566C63.4526 155.566 69.7534 148.693 76.6526 149.837C83.5518 150.981 84.0974 159.861 84.379 162.439C84.5528 163.961 84.6497 165.492 84.6694 167.024C84.6694 167.024 75.7902 162.729 70.3518 161.295C64.9134 159.861 62.5902 163.873 63.4526 155.566Z" fill="#A1FFA1"/>
<path d="M101.261 45.0654H291.746C293.645 45.0654 295.467 45.8201 296.811 47.1635C298.154 48.5068 298.909 50.3288 298.909 52.2286V185.39H94.0977V52.2198C94.1 50.3216 94.8557 48.5018 96.1988 47.1604C97.5419 45.8189 99.3626 45.0654 101.261 45.0654Z" fill="#263238" stroke="#263238" stroke-linecap="round" stroke-linejoin="round"/>
<path d="M329.619 247.422H63.375L94.0958 185.391H298.898L329.619 247.422Z" fill="white" stroke="#263238" stroke-linecap="round" stroke-linejoin="round"/>
<path d="M286.499 56.1709H106.504V174.276H286.499V56.1709Z" fill="white" stroke="#263238" stroke-linecap="round" stroke-linejoin="round"/>
<path d="M156.511 139.728C166.446 129.792 166.446 113.684 156.511 103.749C146.576 93.8137 130.468 93.8137 120.532 103.749C110.597 113.684 110.597 129.792 120.532 139.728C130.468 149.663 146.576 149.663 156.511 139.728Z" fill="#263238"/>
<path d="M215.308 139.726C225.243 129.79 225.243 113.682 215.308 103.747C205.373 93.8117 189.264 93.8117 179.329 103.747C169.394 113.682 169.394 129.79 179.329 139.726C189.264 149.661 205.373 149.661 215.308 139.726Z" fill="#263238"/>
<path d="M261.889 146.503C275.573 143.314 284.08 129.635 280.891 115.952C277.701 102.268 264.023 93.7604 250.339 96.9498C236.655 100.139 228.148 113.818 231.337 127.501C234.527 141.185 248.205 149.693 261.889 146.503Z" fill="#263238"/>
<path d="M121.043 115.254C121.043 115.254 132.254 84.6299 138.845 84.6299C145.437 84.6299 157.044 114.893 157.044 114.893L155.081 115.069C155.081 115.069 143.685 88.5459 140.306 86.9091C136.927 85.2723 130.688 94.9171 123.032 115.219L121.043 115.254Z" fill="white" stroke="#263238" stroke-linecap="round" stroke-linejoin="round"/>
<path d="M122.176 113.468H155.871C156.879 113.468 157.846 113.868 158.559 114.581C159.272 115.294 159.672 116.261 159.672 117.269V135.345C159.672 136.152 159.352 136.927 158.781 137.498C158.21 138.069 157.435 138.389 156.628 138.389H121.428C120.62 138.389 119.846 138.069 119.275 137.498C118.704 136.927 118.383 136.152 118.383 135.345V117.278C118.382 116.779 118.479 116.284 118.669 115.823C118.859 115.361 119.138 114.941 119.49 114.587C119.842 114.234 120.261 113.953 120.721 113.761C121.182 113.568 121.676 113.469 122.176 113.468Z" fill="white" stroke="#263238" stroke-linecap="round" stroke-linejoin="round"/>
<path d="M118.727 126.826H156.109" stroke="#263238" stroke-linecap="round" stroke-linejoin="round"/>
<path d="M157.719 114.356C157.719 114.356 156.839 115.43 156.839 118.457C156.839 121.484 155.774 137.509 155.959 138.213C156.144 138.917 157.209 138.398 157.209 138.398" fill="white"/>
<path d="M157.719 114.356C157.719 114.356 156.839 115.43 156.839 118.457C156.839 121.484 155.774 137.509 155.959 138.213C156.144 138.917 157.209 138.398 157.209 138.398" stroke="#263238" stroke-linecap="round" stroke-linejoin="round"/>
<path d="M138.843 123.263H135.992V129.669H138.843V123.263Z" fill="white" stroke="#263238" stroke-linecap="round" stroke-linejoin="round"/>
<path d="M175.055 106.859C175.055 106.859 186.943 105.82 200.9 105.82C214.857 105.82 221.413 106.7 221.58 107.58C221.747 108.46 219.688 119.645 219.688 120.675C219.688 121.704 219.688 136.189 219.345 137.052C219.002 137.914 217.444 138.6 216.758 138.768C216.071 138.935 179.877 139.287 178.847 139.287C178.328 139.245 177.844 139.008 177.492 138.625C177.14 138.242 176.945 137.739 176.947 137.219C176.947 136.189 177.466 124.811 176.603 120.675C175.741 116.539 175.055 106.859 175.055 106.859Z" fill="white" stroke="#263238" stroke-linecap="round" stroke-linejoin="round"/>
<path d="M187.843 112.544C187.843 112.544 187.667 98.9304 189.049 94.2752C189.641 92.305 190.847 90.5749 192.489 89.3359C194.131 88.0969 196.126 87.4135 198.183 87.3848C200.854 87.5646 203.401 88.5775 205.466 90.2808C207.531 91.9841 209.009 94.2922 209.694 96.88C211.454 103.594 210.037 112.042 209.87 112.905C209.702 113.767 207.802 116.178 207.45 111.523C207.098 106.868 207.802 96.0176 206.42 92.9112C205.63 91.2808 204.323 89.9575 202.703 89.1473C201.083 88.3372 199.24 88.0856 197.462 88.432C193.836 89.312 191.944 90.8432 191.258 95.3224C190.571 99.8016 191.944 110.15 191.082 112.386C190.219 114.621 188.151 115.642 187.843 112.544Z" fill="white" stroke="#263238" stroke-linecap="round" stroke-linejoin="round"/>
<path d="M178.329 107.026C178.329 107.026 177.449 116.161 177.449 119.61C177.449 123.06 177.273 125.295 177.273 125.295" fill="white"/>
<path d="M178.329 107.026C178.329 107.026 177.449 116.161 177.449 119.61C177.449 123.06 177.273 125.295 177.273 125.295" stroke="#263238" stroke-linecap="round" stroke-linejoin="round"/>
<path d="M218.641 107.202C218.641 107.202 218.993 116.337 218.993 121.678" stroke="#263238" stroke-linecap="round" stroke-linejoin="round"/>
<path d="M263.08 105.451C262.867 105.454 262.66 105.378 262.498 105.239C262.336 105.099 262.23 104.906 262.2 104.695C260.502 94.0731 258.372 82.3602 257.281 78.5586C255.671 82.149 252.133 93.5802 249.203 103.973C249.139 104.206 248.984 104.405 248.774 104.524C248.564 104.644 248.314 104.675 248.081 104.611C247.847 104.547 247.649 104.393 247.529 104.182C247.41 103.972 247.379 103.722 247.443 103.489C247.443 103.419 249.326 96.7923 251.368 90.1835C255.618 76.4027 256.419 76.1035 257.052 75.9011C257.211 75.847 257.379 75.8315 257.545 75.856C257.71 75.8805 257.867 75.9442 258.003 76.0419C258.469 76.3851 259.112 76.8515 261.646 90.8611C262.869 97.6195 263.943 104.343 263.952 104.413C263.973 104.53 263.97 104.65 263.944 104.766C263.917 104.882 263.868 104.992 263.798 105.088C263.728 105.184 263.639 105.265 263.537 105.326C263.435 105.387 263.322 105.427 263.204 105.443C263.163 105.45 263.122 105.453 263.08 105.451Z" fill="white" stroke="#263238" stroke-linecap="round" stroke-linejoin="round"/>
<path d="M234.527 102.494C234.527 102.494 252.048 101.421 258.085 101.658C264.122 101.896 274.849 102.538 274.805 103.234C274.761 103.929 274.55 126.114 273.925 130.514C273.3 134.914 270.159 140.44 267.431 141.452C264.703 142.464 255.533 142.094 250.834 141.901C246.135 141.707 241.902 141.091 239.79 138.09C237.678 135.09 236.164 122.488 236.164 122.488L234.527 102.494Z" fill="white" stroke="#263238" stroke-linecap="round" stroke-linejoin="round"/>
<path d="M248.449 107.316C248.457 106.971 248.364 106.631 248.18 106.339C247.996 106.047 247.73 105.815 247.416 105.672C247.101 105.53 246.752 105.483 246.411 105.538C246.07 105.593 245.752 105.746 245.498 105.98C245.244 106.214 245.064 106.517 244.981 106.853C244.898 107.188 244.916 107.54 245.031 107.865C245.147 108.191 245.356 108.475 245.632 108.682C245.908 108.89 246.239 109.012 246.584 109.032C246.82 109.047 247.056 109.013 247.279 108.934C247.502 108.855 247.707 108.731 247.881 108.571C248.055 108.411 248.195 108.217 248.293 108.002C248.391 107.786 248.444 107.553 248.449 107.316Z" fill="white" stroke="#263238" stroke-linecap="round" stroke-linejoin="round"/>
<path d="M265.177 108.437C265.339 107.464 264.681 106.544 263.708 106.382C262.734 106.22 261.814 106.878 261.652 107.851C261.491 108.824 262.148 109.744 263.122 109.906C264.095 110.068 265.015 109.41 265.177 108.437Z" fill="white" stroke="#263238" stroke-linecap="round" stroke-linejoin="round"/>
<path d="M237.59 131.974C237.59 131.974 250.174 130.909 273.203 132.071L237.59 131.974Z" fill="white"/>
<path d="M237.59 131.974C237.59 131.974 250.174 130.909 273.203 132.071" stroke="#263238" stroke-linecap="round" stroke-linejoin="round"/>
<path d="M283.102 59.6562H109.293V73.789H283.102V59.6562Z" fill="#A1FFA1"/>
<path d="M193.59 67.708H210.82" stroke="white" stroke-width="2" stroke-miterlimit="10"/>
<path d="M230.75 67.708H247.98" stroke="white" stroke-width="2" stroke-miterlimit="10"/>
<path d="M277.653 63.3339C277.621 63.2874 277.577 63.2494 277.526 63.2234C277.476 63.1973 277.42 63.1839 277.363 63.1843H267.92L267.56 62.0931C267.534 62.0205 267.486 61.9577 267.423 61.9135C267.36 61.8693 267.285 61.846 267.208 61.8467H264.814C264.718 61.8467 264.627 61.8847 264.559 61.9524C264.491 62.02 264.453 62.1118 264.453 62.2075C264.452 62.2556 264.461 62.3035 264.478 62.3483C264.496 62.3931 264.522 62.4339 264.556 62.4683C264.589 62.5028 264.63 62.5301 264.674 62.5488C264.718 62.5675 264.766 62.5771 264.814 62.5771H266.944L269.249 69.5027C269.275 69.5753 269.323 69.6381 269.386 69.6823C269.449 69.7265 269.524 69.7498 269.601 69.7491H269.733C269.605 69.952 269.535 70.1865 269.531 70.4267C269.516 70.6014 269.538 70.7772 269.595 70.943C269.652 71.1089 269.742 71.2611 269.861 71.3901C269.98 71.5192 270.124 71.6221 270.284 71.6926C270.445 71.763 270.618 71.7994 270.794 71.7994C270.969 71.7994 271.142 71.763 271.303 71.6926C271.463 71.6221 271.608 71.5192 271.726 71.3901C271.845 71.2611 271.936 71.1089 271.992 70.943C272.049 70.7772 272.071 70.6014 272.056 70.4267C272.057 70.1858 271.987 69.9501 271.854 69.7491H273.614C273.488 69.9527 273.421 70.1873 273.42 70.4267C273.406 70.6014 273.428 70.7772 273.484 70.943C273.541 71.1089 273.632 71.2611 273.751 71.3901C273.869 71.5192 274.013 71.6221 274.174 71.6926C274.335 71.763 274.508 71.7994 274.683 71.7994C274.859 71.7994 275.032 71.763 275.192 71.6926C275.353 71.6221 275.497 71.5192 275.616 71.3901C275.735 71.2611 275.825 71.1089 275.882 70.943C275.939 70.7772 275.961 70.6014 275.946 70.4267C275.942 70.1865 275.872 69.952 275.744 69.7491H276.025C276.123 69.7491 276.217 69.7102 276.287 69.6408C276.356 69.5715 276.395 69.4775 276.395 69.3795C276.395 69.3314 276.385 69.2837 276.367 69.2394C276.348 69.195 276.321 69.1548 276.286 69.1212C276.252 69.0876 276.211 69.0612 276.166 69.0436C276.121 69.026 276.073 69.0175 276.025 69.0187H269.865L269.46 67.8043H276.324C276.404 67.8053 276.482 67.7799 276.545 67.7322C276.609 67.6844 276.655 67.617 276.676 67.5403L277.724 63.6507C277.737 63.596 277.737 63.5391 277.725 63.4842C277.713 63.4293 277.688 63.3779 277.653 63.3339ZM270.789 70.9635C270.683 70.9652 270.578 70.9352 270.489 70.8773C270.399 70.8194 270.329 70.7362 270.287 70.6383C270.245 70.5404 270.233 70.4322 270.253 70.3275C270.273 70.2228 270.323 70.1263 270.398 70.0503C270.472 69.9744 270.568 69.9224 270.672 69.9009C270.777 69.8795 270.885 69.8896 270.984 69.93C271.082 69.9703 271.167 70.0391 271.226 70.1276C271.286 70.216 271.317 70.3202 271.317 70.4267C271.317 70.5676 271.262 70.7028 271.163 70.8032C271.064 70.9036 270.93 70.9612 270.789 70.9635ZM274.67 70.9635C274.564 70.9652 274.459 70.9352 274.369 70.8773C274.28 70.8194 274.21 70.7362 274.168 70.6383C274.126 70.5404 274.114 70.4322 274.134 70.3275C274.153 70.2228 274.204 70.1263 274.279 70.0503C274.353 69.9744 274.449 69.9224 274.553 69.9009C274.658 69.8795 274.766 69.8896 274.865 69.93C274.963 69.9703 275.048 70.0391 275.107 70.1276C275.166 70.216 275.198 70.3202 275.198 70.4267C275.199 70.4968 275.186 70.5664 275.16 70.6315C275.134 70.6965 275.096 70.7558 275.047 70.8057C274.997 70.8557 274.939 70.8954 274.874 70.9225C274.81 70.9496 274.74 70.9635 274.67 70.9635ZM275.647 67.0739H274.292V63.9235H275.647V67.0739ZM272.197 63.9235H273.561V67.0739H272.197V63.9235ZM271.467 67.0739H270.103V63.9235H271.44L271.467 67.0739ZM268.158 63.9235H269.372V67.0739H269.205L268.158 63.9235ZM276.386 65.7803V63.9235H276.879L276.386 65.7803Z" fill="white"/>
<path d="M280.497 63.105C280.505 62.5723 280.355 62.0491 280.066 61.602C279.776 61.1549 279.36 60.804 278.871 60.5941C278.381 60.3842 277.84 60.3247 277.316 60.4233C276.793 60.5218 276.311 60.7739 275.931 61.1475C275.551 61.521 275.291 61.9991 275.184 62.5209C275.077 63.0428 275.127 63.5847 275.329 64.0777C275.531 64.5707 275.875 64.9925 276.317 65.2894C276.759 65.5863 277.28 65.7449 277.813 65.745C278.516 65.7428 279.191 65.4653 279.693 64.9719C280.194 64.4785 280.483 63.8084 280.497 63.105Z" fill="white"/>
<path d="M276.721 64.7602C276.656 64.7106 276.612 64.6383 276.598 64.5578C276.579 64.4704 276.582 64.3797 276.607 64.2938C276.631 64.2079 276.677 64.1293 276.739 64.065L277.971 62.8593C278.042 62.8066 278.1 62.7392 278.143 62.6618C278.185 62.5843 278.211 62.4987 278.217 62.4106C278.218 62.3558 278.205 62.3016 278.181 62.2527C278.156 62.2037 278.121 62.1612 278.076 62.1289C277.98 62.0567 277.862 62.0194 277.742 62.0234H277.601H277.443L277.32 62.0761L277.188 62.1553L277.073 62.217C277.025 62.2344 276.972 62.2344 276.924 62.217C276.864 62.203 276.811 62.1688 276.774 62.1202C276.736 62.0694 276.706 62.0129 276.686 61.9529C276.664 61.8934 276.664 61.8277 276.686 61.7682C276.712 61.6999 276.762 61.6436 276.827 61.6097C277.154 61.4081 277.534 61.3071 277.918 61.3193C278.218 61.3129 278.508 61.4233 278.728 61.6274C278.826 61.7161 278.904 61.8248 278.957 61.9462C279.011 62.0676 279.037 62.1989 279.036 62.3314C279.035 62.5221 278.986 62.7097 278.895 62.877C278.784 63.0778 278.635 63.2544 278.455 63.3961L277.513 64.1442H278.745C278.779 64.1433 278.813 64.1519 278.842 64.169C278.872 64.186 278.896 64.211 278.912 64.241C278.952 64.3074 278.974 64.3834 278.974 64.461C278.972 64.5439 278.951 64.6253 278.912 64.6985C278.895 64.7273 278.87 64.7513 278.841 64.7682C278.812 64.7851 278.779 64.7944 278.745 64.7953H276.985C276.941 64.809 276.895 64.8129 276.849 64.8068C276.804 64.8008 276.76 64.7848 276.721 64.7602Z" fill="#263238"/>
<path d="M179.396 70.9637H115.772C115.215 70.9637 114.664 70.8539 114.15 70.6406C113.636 70.4273 113.169 70.1148 112.776 69.7208C112.383 69.3268 112.071 68.8591 111.859 68.3446C111.647 67.83 111.538 67.2787 111.539 66.7221C111.539 65.5994 111.985 64.5228 112.779 63.729C113.573 62.9352 114.649 62.4893 115.772 62.4893H179.396C180.518 62.4893 181.595 62.9352 182.389 63.729C183.183 64.5228 183.629 65.5994 183.629 66.7221C183.63 67.2787 183.521 67.83 183.309 68.3446C183.097 68.8591 182.785 69.3268 182.392 69.7208C181.999 70.1148 181.532 70.4273 181.018 70.6406C180.504 70.8539 179.952 70.9637 179.396 70.9637Z" fill="white"/>
<path d="M125.461 155.101H151.509" stroke="#263238" stroke-width="2" stroke-linecap="round" stroke-linejoin="round"/>
<path d="M125.461 160.037H151.509" stroke="#263238" stroke-width="2" stroke-linecap="round" stroke-linejoin="round"/>
<path d="M184.285 155.101H210.342" stroke="#263238" stroke-width="2" stroke-linecap="round" stroke-linejoin="round"/>
<path d="M184.285 160.037H210.342" stroke="#263238" stroke-width="2" stroke-linecap="round" stroke-linejoin="round"/>
<path d="M243.125 155.101H269.173" stroke="#263238" stroke-width="2" stroke-linecap="round" stroke-linejoin="round"/>
<path d="M243.125 160.037H269.173" stroke="#263238" stroke-width="2" stroke-linecap="round" stroke-linejoin="round"/>
<path d="M187.958 205.032L188.31 197.473H177.495L176.773 205.032H187.958Z" fill="#263238" stroke="white" stroke-linecap="round" stroke-linejoin="round"/>
<path d="M210.326 205.032L209.957 197.473H199.133L199.142 205.032H210.326Z" fill="#263238" stroke="white" stroke-linecap="round" stroke-linejoin="round"/>
<path d="M268.574 213.111H280.137L277.427 205.032H266.242L268.574 213.111Z" fill="#263238" stroke="white" stroke-linecap="round" stroke-linejoin="round"/>
<path d="M176.774 205.032L177.495 197.473H166.671L165.598 205.032H176.774Z" fill="#263238" stroke="white" stroke-linecap="round" stroke-linejoin="round"/>
<path d="M154.411 205.032L155.846 197.473H145.031L143.227 205.032H154.411Z" fill="#263238" stroke="white" stroke-linecap="round" stroke-linejoin="round"/>
<path d="M255.055 205.032L253.242 197.473H242.418L243.87 205.032H255.055Z" fill="#263238" stroke="white" stroke-linecap="round" stroke-linejoin="round"/>
<path d="M266.24 205.032L264.057 197.473H253.242L255.055 205.032H266.24Z" fill="#263238" stroke="white" stroke-linecap="round" stroke-linejoin="round"/>
<path d="M143.228 205.032L145.032 197.473H134.208L132.043 205.032H143.228Z" fill="#263238" stroke="white" stroke-linecap="round" stroke-linejoin="round"/>
<path d="M221.511 205.032L220.781 197.473H209.957L210.327 205.032H221.511Z" fill="#263238" stroke="white" stroke-linecap="round" stroke-linejoin="round"/>
<path d="M277.426 205.032L274.883 197.473H264.059L266.241 205.032H277.426Z" fill="#263238" stroke="white" stroke-linecap="round" stroke-linejoin="round"/>
<path d="M243.874 205.032L242.422 197.473H231.598L232.689 205.032H243.874Z" fill="#263238" stroke="white" stroke-linecap="round" stroke-linejoin="round"/>
<path d="M232.688 205.032L231.596 197.473H220.781L221.512 205.032H232.688Z" fill="#263238" stroke="white" stroke-linecap="round" stroke-linejoin="round"/>
<path d="M199.142 205.032L199.133 197.473H188.309L187.957 205.032H199.142Z" fill="#263238" stroke="white" stroke-linecap="round" stroke-linejoin="round"/>
<path d="M120.856 205.032H109.671L106.582 213.111H118.154L120.856 205.032Z" fill="#263238" stroke="white" stroke-linecap="round" stroke-linejoin="round"/>
<path d="M123.382 197.473H112.567L109.672 205.032H120.857L123.382 197.473Z" fill="#263238" stroke="white" stroke-linecap="round" stroke-linejoin="round"/>
<path d="M132.04 205.032L134.205 197.473H123.381L120.855 205.032H132.04Z" fill="#263238" stroke="white" stroke-linecap="round" stroke-linejoin="round"/>
<path d="M103.274 221.77L99.7188 231.08H112.153L115.26 221.77H103.274Z" fill="#263238" stroke="white" stroke-linecap="round" stroke-linejoin="round"/>
<path d="M118.154 213.11H106.582L103.273 221.77H115.259L118.154 213.11Z" fill="#263238" stroke="white" stroke-linecap="round" stroke-linejoin="round"/>
<path d="M115.259 221.77L112.152 231.08H124.587L127.244 221.77H115.259Z" fill="#263238" stroke="white" stroke-linecap="round" stroke-linejoin="round"/>
<path d="M165.595 205.032L166.669 197.473H155.845L154.41 205.032H165.595Z" fill="#263238" stroke="white" stroke-linecap="round" stroke-linejoin="round"/>
<path d="M164.434 213.111L165.596 205.032H154.411L152.871 213.111H164.434Z" fill="#263238" stroke="white" stroke-linecap="round" stroke-linejoin="round"/>
<path d="M152.873 213.111L154.413 205.032H143.228L141.301 213.111H152.873Z" fill="#263238" stroke="white" stroke-linecap="round" stroke-linejoin="round"/>
<path d="M176.006 213.111L176.771 205.032H165.595L164.434 213.111H176.006Z" fill="#263238" stroke="white" stroke-linecap="round" stroke-linejoin="round"/>
<path d="M132.043 205.032H120.858L118.156 213.111H129.728L132.043 205.032Z" fill="#263238" stroke="white" stroke-linecap="round" stroke-linejoin="round"/>
<path d="M271.065 221.77H283.05L280.137 213.11H268.574L271.065 221.77Z" fill="#263238" stroke="white" stroke-linecap="round" stroke-linejoin="round"/>
<path d="M141.299 213.111L143.226 205.032H132.041L129.727 213.111H141.299Z" fill="#263238" stroke="white" stroke-linecap="round" stroke-linejoin="round"/>
<path d="M118.157 213.11L115.262 221.77H127.247L129.729 213.11H118.157Z" fill="#263238" stroke="white" stroke-linecap="round" stroke-linejoin="round"/>
<path d="M245.43 213.111L243.872 205.032H232.688L233.858 213.111H245.43Z" fill="#263238" stroke="white" stroke-linecap="round" stroke-linejoin="round"/>
<path d="M233.858 213.111L232.688 205.032H221.512L222.286 213.111H233.858Z" fill="#263238" stroke="white" stroke-linecap="round" stroke-linejoin="round"/>
<path d="M268.571 213.111L266.239 205.032H255.055L256.999 213.111H268.571Z" fill="#263238" stroke="white" stroke-linecap="round" stroke-linejoin="round"/>
<path d="M199.15 213.111L199.141 205.032H187.957L187.578 213.111H199.15Z" fill="#263238" stroke="white" stroke-linecap="round" stroke-linejoin="round"/>
<path d="M222.287 213.111L221.513 205.032H210.328L210.724 213.111H222.287Z" fill="#263238" stroke="white" stroke-linecap="round" stroke-linejoin="round"/>
<path d="M210.721 213.111L210.325 205.032H199.141L199.149 213.111H210.721Z" fill="#263238" stroke="white" stroke-linecap="round" stroke-linejoin="round"/>
<path d="M187.58 213.111L187.958 205.032H176.773L176.008 213.111H187.58Z" fill="#263238" stroke="white" stroke-linecap="round" stroke-linejoin="round"/>
<path d="M222.285 213.11L223.13 221.77H235.107L233.857 213.11H222.285Z" fill="#263238" stroke="white" stroke-linecap="round" stroke-linejoin="round"/>
<path d="M233.855 213.11L235.105 221.77H247.091L245.427 213.11H233.855Z" fill="#263238" stroke="white" stroke-linecap="round" stroke-linejoin="round"/>
<path d="M129.728 213.11L127.246 221.77H139.232L141.3 213.11H129.728Z" fill="#263238" stroke="white" stroke-linecap="round" stroke-linejoin="round"/>
<path d="M245.43 213.11L247.093 221.77H259.078L257.002 213.11H245.43Z" fill="#263238" stroke="white" stroke-linecap="round" stroke-linejoin="round"/>
<path d="M199.148 213.11L199.157 221.77H211.143L210.72 213.11H199.148Z" fill="#263238" stroke="white" stroke-linecap="round" stroke-linejoin="round"/>
<path d="M257 213.11L259.077 221.77H271.062L268.572 213.11H257Z" fill="#263238" stroke="white" stroke-linecap="round" stroke-linejoin="round"/>
<path d="M210.723 213.11L211.145 221.77H223.131L222.286 213.11H210.723Z" fill="#263238" stroke="white" stroke-linecap="round" stroke-linejoin="round"/>
<path d="M152.869 213.11L151.215 221.77H163.2L164.432 213.11H152.869Z" fill="#263238" stroke="white" stroke-linecap="round" stroke-linejoin="round"/>
<path d="M141.298 213.11L139.23 221.77H151.216L152.87 213.11H141.298Z" fill="#263238" stroke="white" stroke-linecap="round" stroke-linejoin="round"/>
<path d="M187.577 213.11L187.172 221.77H199.157L199.149 213.11H187.577Z" fill="#263238" stroke="white" stroke-linecap="round" stroke-linejoin="round"/>
<path d="M176.006 213.11L175.188 221.77H187.173L187.578 213.11H176.006Z" fill="#263238" stroke="white" stroke-linecap="round" stroke-linejoin="round"/>
<path d="M164.435 213.11L163.203 221.77H175.189L176.007 213.11H164.435Z" fill="#263238" stroke="white" stroke-linecap="round" stroke-linejoin="round"/>
<path d="M257.001 213.111L255.056 205.032H243.871L245.429 213.111H257.001Z" fill="#263238" stroke="white" stroke-linecap="round" stroke-linejoin="round"/>
<path d="M123.382 197.473L125.969 189.729H115.514L112.566 197.473H123.382Z" fill="#263238" stroke="white" stroke-linecap="round" stroke-linejoin="round"/>
<path d="M112.565 197.473H102.568L99.3477 205.032H109.67L112.565 197.473Z" fill="#263238" stroke="white" stroke-linecap="round" stroke-linejoin="round"/>
<path d="M115.515 189.729H105.87L102.57 197.473H112.567L115.515 189.729Z" fill="#263238" stroke="white" stroke-linecap="round" stroke-linejoin="round"/>
<path d="M109.673 205.032H99.351L95.9102 213.111H106.585L109.673 205.032Z" fill="#263238" stroke="white" stroke-linecap="round" stroke-linejoin="round"/>
<path d="M106.581 213.11H95.9069L92.2109 221.77H103.273L106.581 213.11Z" fill="#263238" stroke="white" stroke-linecap="round" stroke-linejoin="round"/>
<path d="M103.273 221.77H92.211L88.2422 231.08H99.7174L103.273 221.77Z" fill="#263238" stroke="white" stroke-linecap="round" stroke-linejoin="round"/>
<path d="M288.602 205.032L291.708 213.111H301.942L298.502 205.032H288.602Z" fill="#263238" stroke="white" stroke-linecap="round" stroke-linejoin="round"/>
<path d="M295.033 221.77H305.637L301.941 213.11H291.707L295.033 221.77Z" fill="#263238" stroke="white" stroke-linecap="round" stroke-linejoin="round"/>
<path d="M298.608 231.08H309.608L305.639 221.77H295.035L298.608 231.08Z" fill="#263238" stroke="white" stroke-linecap="round" stroke-linejoin="round"/>
<path d="M209.958 197.473L209.579 189.729H199.125L199.134 197.473H209.958Z" fill="#263238" stroke="white" stroke-linecap="round" stroke-linejoin="round"/>
<path d="M288.602 205.032H298.502L295.281 197.473H285.707L288.602 205.032Z" fill="#263238" stroke="white" stroke-linecap="round" stroke-linejoin="round"/>
<path d="M283.05 221.77H295.035L291.709 213.11H280.137L283.05 221.77Z" fill="#263238" stroke="white" stroke-linecap="round" stroke-linejoin="round"/>
<path d="M134.207 197.473L136.424 189.729H125.97L123.383 197.473H134.207Z" fill="#263238" stroke="white" stroke-linecap="round" stroke-linejoin="round"/>
<path d="M274.883 197.473L277.426 205.032H288.602L285.707 197.473H274.883Z" fill="#263238" stroke="white" stroke-linecap="round" stroke-linejoin="round"/>
<path d="M295.283 197.473L291.983 189.729H282.734L285.709 197.473H295.283Z" fill="#263238" stroke="white" stroke-linecap="round" stroke-linejoin="round"/>
<path d="M285.705 197.473L282.731 189.729H272.285L274.881 197.473H285.705Z" fill="#263238" stroke="white" stroke-linecap="round" stroke-linejoin="round"/>
<path d="M247.094 221.77L248.889 231.08H261.315L259.079 221.77H247.094Z" fill="#263238" stroke="white" stroke-linecap="round" stroke-linejoin="round"/>
<path d="M286.175 231.08H298.609L295.036 221.77H283.051L286.175 231.08Z" fill="#263238" stroke="white" stroke-linecap="round" stroke-linejoin="round"/>
<path d="M274.882 197.473L272.286 189.729H261.832L264.058 197.473H274.882Z" fill="#263238" stroke="white" stroke-linecap="round" stroke-linejoin="round"/>
<path d="M271.062 221.77L273.746 231.08H286.172L283.048 221.77H271.062Z" fill="#263238" stroke="white" stroke-linecap="round" stroke-linejoin="round"/>
<path d="M259.078 221.77L261.313 231.08H273.748L271.064 221.77H259.078Z" fill="#263238" stroke="white" stroke-linecap="round" stroke-linejoin="round"/>
<path d="M280.136 213.111H291.708L288.602 205.032H277.426L280.136 213.111Z" fill="#263238" stroke="white" stroke-linecap="round" stroke-linejoin="round"/>
<path d="M177.492 197.473L178.222 189.729H167.768L166.668 197.473H177.492Z" fill="#263238" stroke="white" stroke-linecap="round" stroke-linejoin="round"/>
<path d="M264.06 197.473L261.833 189.729H251.379L253.245 197.473H264.06Z" fill="#263238" stroke="white" stroke-linecap="round" stroke-linejoin="round"/>
<path d="M166.668 197.473L167.768 189.729H157.322L155.844 197.473H166.668Z" fill="#263238" stroke="white" stroke-linecap="round" stroke-linejoin="round"/>
<path d="M199.133 197.473L199.124 189.729H188.678L188.309 197.473H199.133Z" fill="#263238" stroke="white" stroke-linecap="round" stroke-linejoin="round"/>
<path d="M155.846 197.473L157.325 189.729H146.87L145.031 197.473H155.846Z" fill="#263238" stroke="white" stroke-linecap="round" stroke-linejoin="round"/>
<path d="M145.031 197.473L146.87 189.729H136.425L134.207 197.473H145.031Z" fill="#263238" stroke="white" stroke-linecap="round" stroke-linejoin="round"/>
<path d="M188.307 197.473L188.677 189.729H178.223L177.492 197.473H188.307Z" fill="#263238" stroke="white" stroke-linecap="round" stroke-linejoin="round"/>
<path d="M253.245 197.473L251.379 189.729H240.934L242.421 197.473H253.245Z" fill="#263238" stroke="white" stroke-linecap="round" stroke-linejoin="round"/>
<path d="M242.418 197.473L240.931 189.729H230.477L231.594 197.473H242.418Z" fill="#263238" stroke="white" stroke-linecap="round" stroke-linejoin="round"/>
<path d="M220.781 197.473L220.024 189.729H209.578L209.957 197.473H220.781Z" fill="#263238" stroke="white" stroke-linecap="round" stroke-linejoin="round"/>
<path d="M247.091 221.77H235.105H223.128H211.143H199.157H187.172H175.186H163.2H151.215H139.229H127.244L124.586 231.08H137.012H149.446H161.872H174.306H186.732H199.166H211.592H224.026H236.452H248.886L247.091 221.77Z" fill="#263238" stroke="white" stroke-linecap="round" stroke-linejoin="round"/>
<path d="M231.595 197.473L230.478 189.729H220.023L220.78 197.473H231.595Z" fill="#263238" stroke="white" stroke-linecap="round" stroke-linejoin="round"/>
<path d="M329.742 247.422H63.375V251.206H329.742V247.422Z" fill="#263238" stroke="#263238" stroke-linecap="round" stroke-linejoin="round"/>
<path d="M240.401 314.108L143.927 314.874C141.867 314.874 140.407 313.659 140.662 312.137L146.822 275.969C147.015 274.825 148.582 273.901 150.342 273.892L233 273.514C234.76 273.514 236.318 274.394 236.52 275.546L243.56 311.354C243.833 312.85 242.399 314.099 240.401 314.108Z" fill="#A1FFA1" stroke="#263238" stroke-linecap="round" stroke-linejoin="round"/>
<path d="M194.66 280.008H224.923" stroke="#263238" stroke-linecap="round" stroke-linejoin="round"/>
<path d="M179.047 282.569H224.921" stroke="#263238" stroke-linecap="round" stroke-linejoin="round"/>
<path d="M177.799 304.675C159.442 310.518 147.685 311.556 140.839 311.213L140.619 312.515C140.399 313.827 141.657 314.891 143.426 314.874L240.93 314.108C242.69 314.108 243.878 313.026 243.623 311.723L239.408 290.163C213.94 289.512 206.584 295.523 177.799 304.675Z" fill="#263238" stroke="#263238" stroke-linecap="round" stroke-linejoin="round"/>
<path d="M162.03 289.222L154.418 289.266C153.705 289.266 153.186 288.879 153.256 288.386L153.908 283.546C153.978 283.088 154.585 282.71 155.272 282.71L162.699 282.666C163.385 282.666 163.904 283.036 163.86 283.493L163.394 288.324C163.35 288.817 162.734 289.213 162.03 289.222Z" fill="white" stroke="#263238" stroke-linecap="round" stroke-linejoin="round"/>
<path d="M159.434 286.961H157.55C157.207 286.961 156.952 286.776 156.978 286.547L157.128 285.35C157.128 285.121 157.454 284.937 157.788 284.937H159.68C160.023 284.937 160.278 285.121 160.252 285.341L160.12 286.538C160.076 286.749 159.777 286.961 159.434 286.961Z" fill="white" stroke="#263238" stroke-linecap="round" stroke-linejoin="round"/>
<path d="M153.926 283.44H156.847C157.411 283.44 157.833 283.74 157.789 284.127L157.692 284.936" stroke="#263238" stroke-linecap="round" stroke-linejoin="round"/>
<path d="M163.875 283.44H160.998C160.426 283.44 159.933 283.748 159.889 284.127L159.801 284.945" stroke="#263238" stroke-linecap="round" stroke-linejoin="round"/>
<path d="M153.23 288.579H156.205C156.786 288.579 157.296 288.253 157.34 287.857L157.437 287.03" stroke="#263238" stroke-linecap="round" stroke-linejoin="round"/>
<path d="M163.375 288.518H160.445C159.864 288.518 159.424 288.21 159.468 287.814L159.565 286.978" stroke="#263238" stroke-linecap="round" stroke-linejoin="round"/>
<path d="M153.582 286.115L157.032 286.098" stroke="#263238" stroke-linecap="round" stroke-linejoin="round"/>
<path d="M160.066 286.08L163.507 286.062" stroke="#263238" stroke-linecap="round" stroke-linejoin="round"/>
<path d="M152.438 299.421C152.288 299.37 152.147 299.293 152.025 299.192C151.926 299.091 151.848 298.971 151.796 298.84C151.745 298.702 151.715 298.556 151.708 298.409C151.691 298.251 151.691 298.092 151.708 297.934C151.71 297.712 151.759 297.493 151.851 297.291C151.943 297.089 152.076 296.909 152.242 296.761C152.407 296.614 152.602 296.503 152.813 296.435C153.024 296.367 153.247 296.344 153.468 296.367C154.471 296.367 154.911 296.878 154.779 297.916C154.761 298.077 154.729 298.236 154.682 298.391C154.635 298.541 154.567 298.683 154.48 298.814C154.393 298.952 154.283 299.074 154.154 299.174C154.013 299.28 153.856 299.36 153.688 299.412C153.481 299.47 153.268 299.499 153.054 299.5C152.846 299.505 152.638 299.479 152.438 299.421ZM153.397 299.113C153.483 299.083 153.566 299.045 153.644 298.998C153.709 298.95 153.768 298.894 153.82 298.831C153.876 298.767 153.923 298.696 153.961 298.62C153.998 298.547 154.028 298.47 154.049 298.391C154.049 298.303 154.093 298.224 154.11 298.154C154.116 298.075 154.116 297.995 154.11 297.916C154.11 297.828 154.11 297.749 154.11 297.678V297.441C154.116 297.362 154.116 297.282 154.11 297.203C154.092 297.136 154.065 297.071 154.031 297.01C153.994 296.946 153.946 296.89 153.89 296.842C153.825 296.8 153.754 296.767 153.679 296.746C153.583 296.727 153.485 296.727 153.389 296.746C153.286 296.732 153.183 296.732 153.081 296.746C152.997 296.77 152.917 296.806 152.843 296.851C152.776 296.897 152.717 296.954 152.667 297.018C152.611 297.074 152.567 297.14 152.535 297.212C152.496 297.288 152.464 297.368 152.438 297.45C152.412 297.527 152.391 297.607 152.377 297.687C152.372 297.769 152.372 297.852 152.377 297.934V298.162V298.4C152.371 298.479 152.371 298.558 152.377 298.638C152.395 298.708 152.422 298.776 152.456 298.84C152.488 298.904 152.533 298.961 152.588 299.007C152.653 299.053 152.724 299.088 152.799 299.113C152.898 299.131 152.999 299.131 153.098 299.113C153.197 299.126 153.298 299.126 153.397 299.113Z" fill="white"/>
<path d="M156.671 299.385C156.516 299.344 156.374 299.265 156.257 299.157C156.151 299.06 156.069 298.939 156.02 298.805C155.965 298.67 155.932 298.527 155.923 298.382C155.906 298.224 155.906 298.065 155.923 297.907C155.922 297.69 155.967 297.475 156.053 297.275C156.14 297.076 156.268 296.897 156.427 296.75C156.587 296.603 156.776 296.49 156.981 296.42C157.187 296.349 157.405 296.322 157.621 296.341C158.633 296.341 159.073 296.842 158.959 297.889C158.944 298.05 158.915 298.209 158.871 298.365C158.822 298.513 158.754 298.655 158.668 298.787C158.583 298.921 158.479 299.042 158.36 299.148C158.22 299.252 158.062 299.329 157.894 299.377C157.689 299.441 157.475 299.474 157.26 299.473C157.06 299.478 156.861 299.448 156.671 299.385ZM157.621 299.077C157.708 299.055 157.791 299.019 157.868 298.972C157.934 298.922 157.994 298.862 158.044 298.796C158.096 298.734 158.14 298.666 158.176 298.593C158.212 298.52 158.241 298.443 158.264 298.365C158.264 298.277 158.308 298.197 158.325 298.127V297.889C158.325 297.801 158.325 297.722 158.325 297.652C158.33 297.57 158.33 297.487 158.325 297.405C158.33 297.329 158.33 297.253 158.325 297.177C158.307 297.107 158.277 297.042 158.237 296.983C158.203 296.918 158.155 296.861 158.096 296.816C158.031 296.773 157.96 296.741 157.885 296.719C157.789 296.701 157.691 296.701 157.595 296.719C157.493 296.705 157.389 296.705 157.287 296.719C157.205 296.742 157.128 296.777 157.058 296.825C156.987 296.868 156.924 296.925 156.873 296.992C156.823 297.052 156.779 297.117 156.741 297.185C156.741 297.256 156.68 297.335 156.653 297.423C156.627 297.511 156.653 297.59 156.592 297.661C156.53 297.731 156.592 297.819 156.592 297.907C156.588 297.983 156.588 298.06 156.592 298.136V298.4C156.586 298.479 156.586 298.558 156.592 298.637C156.611 298.709 156.641 298.777 156.68 298.84C156.714 298.903 156.758 298.959 156.812 299.007C156.879 299.054 156.953 299.09 157.032 299.113C157.131 299.127 157.232 299.127 157.331 299.113C157.429 299.118 157.527 299.106 157.621 299.077Z" fill="white"/>
<path d="M160.895 299.359C160.741 299.315 160.6 299.237 160.481 299.13C160.374 299.034 160.293 298.913 160.244 298.778C160.182 298.645 160.146 298.502 160.138 298.356C160.121 298.198 160.121 298.038 160.138 297.881C160.132 297.664 160.172 297.449 160.256 297.249C160.339 297.049 160.464 296.869 160.622 296.721C160.78 296.573 160.967 296.461 161.172 296.39C161.377 296.32 161.594 296.294 161.81 296.314C162.813 296.314 163.271 296.816 163.174 297.863C163.159 298.024 163.13 298.183 163.086 298.338C163.039 298.485 162.977 298.627 162.901 298.761C162.817 298.896 162.71 299.015 162.584 299.113C162.448 299.219 162.293 299.3 162.127 299.35C161.925 299.416 161.714 299.448 161.502 299.447C161.296 299.451 161.091 299.422 160.895 299.359ZM161.845 299.051C161.93 299.03 162.01 298.994 162.083 298.945C162.153 298.896 162.215 298.837 162.268 298.769C162.317 298.707 162.358 298.639 162.391 298.567C162.425 298.493 162.455 298.416 162.479 298.338C162.479 298.25 162.496 298.171 162.532 298.101V297.863C162.532 297.775 162.532 297.696 162.532 297.625C162.536 297.543 162.536 297.461 162.532 297.379C162.526 297.301 162.511 297.224 162.488 297.15C162.469 297.081 162.44 297.016 162.4 296.957C162.368 296.89 162.319 296.832 162.259 296.789C162.195 296.745 162.123 296.712 162.048 296.693C161.951 296.663 161.85 296.648 161.748 296.649C161.647 296.653 161.547 296.668 161.449 296.693C161.368 296.715 161.29 296.751 161.22 296.798C161.154 296.841 161.094 296.895 161.044 296.957C160.994 297.02 160.95 297.088 160.912 297.159C160.878 297.233 160.848 297.31 160.824 297.388C160.799 297.468 160.782 297.551 160.772 297.634C160.766 297.716 160.766 297.799 160.772 297.881C160.772 297.96 160.772 298.039 160.772 298.109C160.767 298.189 160.767 298.268 160.772 298.347C160.766 298.426 160.766 298.505 160.772 298.585C160.795 298.654 160.824 298.722 160.86 298.787C160.897 298.848 160.945 298.901 161 298.945C161.067 298.996 161.141 299.034 161.22 299.06C161.32 299.074 161.42 299.074 161.52 299.06C161.628 299.074 161.738 299.071 161.845 299.051Z" fill="white"/>
<path d="M165.117 299.333C164.963 299.289 164.822 299.211 164.703 299.104C164.597 299.006 164.513 298.886 164.457 298.752C164.399 298.617 164.36 298.475 164.343 298.33C164.334 298.171 164.334 298.013 164.343 297.854C164.334 297.639 164.372 297.424 164.453 297.224C164.535 297.024 164.658 296.844 164.814 296.696C164.971 296.547 165.158 296.434 165.362 296.364C165.565 296.294 165.782 296.268 165.997 296.288C167 296.288 167.467 296.79 167.379 297.837C167.372 297.995 167.345 298.152 167.299 298.303C167.261 298.454 167.202 298.6 167.123 298.734C167.042 298.869 166.938 298.988 166.815 299.086C166.678 299.191 166.523 299.272 166.358 299.324C166.155 299.385 165.945 299.418 165.733 299.421C165.524 299.426 165.316 299.396 165.117 299.333ZM166.067 299.025C166.153 299.001 166.233 298.962 166.305 298.91C166.372 298.864 166.431 298.808 166.481 298.743C166.525 298.673 166.569 298.611 166.604 298.541L166.683 298.312C166.683 298.224 166.701 298.145 166.736 298.074V297.837C166.736 297.749 166.736 297.67 166.736 297.59C166.74 297.511 166.74 297.432 166.736 297.353C166.724 297.275 166.706 297.199 166.683 297.124C166.667 297.054 166.637 296.988 166.595 296.93C166.561 296.865 166.513 296.808 166.455 296.763C166.389 296.715 166.314 296.682 166.235 296.666C166.138 296.652 166.04 296.652 165.944 296.666C165.842 296.652 165.738 296.652 165.636 296.666C165.555 296.689 165.477 296.725 165.407 296.772C165.343 296.817 165.283 296.871 165.231 296.93C165.187 297.001 165.143 297.062 165.108 297.133L165.029 297.362C165.004 297.442 164.986 297.524 164.976 297.608C164.976 297.678 164.976 297.758 164.976 297.846C164.976 297.934 164.976 298.013 164.976 298.083C164.972 298.162 164.972 298.242 164.976 298.321C164.984 298.398 164.999 298.475 165.02 298.55C165.04 298.621 165.07 298.689 165.108 298.752C165.146 298.817 165.197 298.874 165.258 298.919C165.32 298.968 165.392 299.004 165.469 299.025C165.565 299.058 165.667 299.073 165.768 299.069C165.869 299.067 165.97 299.053 166.067 299.025Z" fill="white"/>
<path d="M174.112 299.28C173.956 299.236 173.811 299.158 173.69 299.051C173.581 298.953 173.494 298.833 173.435 298.699C173.368 298.566 173.324 298.423 173.303 298.276C173.285 298.119 173.285 297.959 173.303 297.801C173.285 297.589 173.314 297.375 173.388 297.175C173.462 296.975 173.579 296.794 173.731 296.644C173.883 296.495 174.066 296.381 174.268 296.31C174.469 296.239 174.683 296.213 174.895 296.235C175.899 296.235 176.374 296.745 176.33 297.784C176.323 297.944 176.303 298.103 176.268 298.259C176.232 298.407 176.175 298.549 176.101 298.681C176.026 298.815 175.928 298.934 175.811 299.033C175.675 299.137 175.523 299.217 175.362 299.271C175.16 299.336 174.949 299.369 174.737 299.368C174.525 299.374 174.314 299.344 174.112 299.28ZM175.045 298.972C175.129 298.948 175.209 298.913 175.283 298.866C175.345 298.814 175.401 298.755 175.45 298.69C175.497 298.628 175.535 298.56 175.564 298.488C175.597 298.414 175.624 298.337 175.643 298.259C175.643 298.171 175.643 298.092 175.643 298.021C175.648 297.942 175.648 297.863 175.643 297.784C175.647 297.705 175.647 297.625 175.643 297.546C175.648 297.467 175.648 297.388 175.643 297.308C175.643 297.22 175.643 297.141 175.591 297.08C175.564 297.01 175.531 296.942 175.494 296.877C175.45 296.816 175.397 296.763 175.335 296.719C175.269 296.67 175.195 296.634 175.115 296.613C175.019 296.599 174.921 296.599 174.825 296.613C174.724 296.613 174.623 296.628 174.526 296.657C174.446 296.681 174.369 296.713 174.297 296.754C174.233 296.801 174.176 296.857 174.13 296.921C174.08 296.982 174.041 297.05 174.015 297.124C173.981 297.197 173.954 297.274 173.936 297.352C173.936 297.44 173.936 297.52 173.892 297.59C173.887 297.672 173.887 297.754 173.892 297.836C173.888 297.913 173.888 297.989 173.892 298.065C173.888 298.144 173.888 298.224 173.892 298.303C173.899 298.384 173.917 298.464 173.945 298.54C173.968 298.612 174.001 298.68 174.042 298.743C174.082 298.807 174.133 298.863 174.191 298.91C174.257 298.959 174.332 298.995 174.411 299.016C174.511 299.03 174.611 299.03 174.711 299.016C174.824 299.016 174.937 298.998 175.045 298.963V298.972Z" fill="white"/>
<path d="M178.328 299.28C178.17 299.235 178.023 299.157 177.897 299.051C177.788 298.953 177.701 298.833 177.642 298.699C177.572 298.568 177.527 298.425 177.51 298.277C177.491 298.119 177.491 297.96 177.51 297.802C177.483 297.591 177.504 297.377 177.57 297.175C177.636 296.974 177.747 296.789 177.894 296.636C178.04 296.482 178.22 296.363 178.418 296.288C178.617 296.213 178.83 296.183 179.041 296.2C180.044 296.2 180.528 296.711 180.493 297.749C180.496 298.055 180.423 298.357 180.282 298.629C180.207 298.763 180.109 298.882 179.992 298.981C179.861 299.086 179.711 299.167 179.552 299.219C179.349 299.28 179.139 299.312 178.927 299.315C178.727 299.335 178.525 299.324 178.328 299.28ZM179.261 298.972C179.345 298.95 179.422 298.911 179.49 298.858C179.556 298.813 179.613 298.757 179.657 298.691C179.704 298.628 179.743 298.56 179.772 298.488C179.8 298.414 179.824 298.337 179.842 298.259C179.842 298.171 179.842 298.092 179.842 298.022C179.842 297.951 179.842 297.872 179.842 297.784V297.52C179.846 297.441 179.846 297.362 179.842 297.283C179.832 297.205 179.814 297.128 179.789 297.054C179.763 296.982 179.727 296.914 179.684 296.851C179.643 296.79 179.593 296.737 179.534 296.693C179.467 296.646 179.393 296.61 179.314 296.587C179.215 296.573 179.114 296.573 179.015 296.587C178.916 296.573 178.815 296.573 178.716 296.587C178.638 296.614 178.565 296.649 178.496 296.693C178.429 296.737 178.373 296.794 178.328 296.86C178.281 296.919 178.242 296.984 178.214 297.054C178.184 297.131 178.161 297.21 178.144 297.291C178.144 297.379 178.144 297.459 178.1 297.529C178.056 297.599 178.1 297.687 178.1 297.775V298.004C178.091 298.083 178.091 298.163 178.1 298.242C178.107 298.323 178.125 298.403 178.152 298.479C178.174 298.549 178.207 298.614 178.249 298.673C178.29 298.736 178.34 298.793 178.399 298.84C178.466 298.887 178.54 298.923 178.619 298.946C178.715 298.979 178.816 298.994 178.918 298.99C179.035 298.991 179.15 298.973 179.261 298.937V298.972Z" fill="white"/>
<path d="M182.558 299.219C182.4 299.172 182.254 299.094 182.126 298.99C182.012 298.895 181.922 298.774 181.862 298.638C181.796 298.505 181.749 298.362 181.722 298.216C181.707 298.058 181.707 297.899 181.722 297.74C181.697 297.53 181.719 297.317 181.788 297.117C181.857 296.917 181.97 296.735 182.119 296.584C182.267 296.434 182.448 296.318 182.648 296.248C182.847 296.177 183.06 296.151 183.27 296.174C184.274 296.174 184.766 296.685 184.749 297.723C184.748 297.882 184.733 298.041 184.705 298.198C184.676 298.347 184.622 298.489 184.546 298.62C184.478 298.756 184.382 298.876 184.265 298.972C184.136 299.081 183.986 299.162 183.825 299.21C183.626 299.273 183.418 299.303 183.209 299.298C182.989 299.305 182.769 299.278 182.558 299.219ZM183.438 298.911C183.52 298.885 183.597 298.847 183.666 298.797C183.731 298.75 183.787 298.694 183.834 298.629C183.876 298.566 183.911 298.498 183.939 298.427C183.968 298.352 183.991 298.276 184.01 298.198C184.01 298.11 184.01 298.031 184.01 297.96C184.01 297.89 184.01 297.811 184.01 297.723C184.014 297.644 184.014 297.564 184.01 297.485C184.018 297.403 184.018 297.321 184.01 297.239C183.997 297.162 183.98 297.085 183.957 297.01C183.929 296.942 183.893 296.877 183.851 296.817C183.808 296.755 183.754 296.702 183.693 296.658C183.626 296.611 183.552 296.575 183.473 296.552C183.374 296.538 183.273 296.538 183.174 296.552C183.074 296.539 182.974 296.539 182.874 296.552C182.796 296.575 182.721 296.611 182.654 296.658C182.59 296.705 182.534 296.761 182.487 296.825C182.445 296.886 182.41 296.951 182.382 297.019C182.352 297.096 182.328 297.176 182.311 297.257C182.311 297.336 182.311 297.424 182.311 297.494C182.307 297.576 182.307 297.658 182.311 297.74C182.302 297.817 182.302 297.893 182.311 297.969C182.304 298.048 182.304 298.128 182.311 298.207C182.318 298.285 182.335 298.362 182.364 298.436C182.39 298.507 182.426 298.575 182.47 298.638C182.511 298.707 182.566 298.767 182.631 298.814C182.696 298.86 182.77 298.894 182.848 298.911C182.945 298.94 183.046 298.955 183.147 298.955C183.246 298.954 183.343 298.939 183.438 298.911Z" fill="white"/>
<path d="M186.75 299.192C186.593 299.143 186.447 299.066 186.319 298.963C186.205 298.866 186.112 298.746 186.046 298.611C185.98 298.478 185.932 298.336 185.905 298.189C185.877 298.032 185.862 297.873 185.861 297.714C185.832 297.505 185.85 297.292 185.916 297.092C185.981 296.891 186.092 296.709 186.239 296.557C186.385 296.406 186.565 296.291 186.764 296.22C186.962 296.148 187.174 296.124 187.384 296.147C188.387 296.147 188.888 296.658 188.888 297.696C188.893 297.853 188.878 298.009 188.844 298.163C188.819 298.312 188.772 298.458 188.704 298.594C188.633 298.728 188.537 298.847 188.422 298.946C188.296 299.053 188.149 299.134 187.991 299.183C187.791 299.241 187.583 299.271 187.375 299.271C187.164 299.274 186.954 299.248 186.75 299.192ZM187.674 298.884C187.754 298.855 187.831 298.817 187.903 298.77C187.966 298.725 188.02 298.668 188.061 298.603C188.103 298.539 188.139 298.471 188.167 298.4C188.198 298.324 188.218 298.244 188.228 298.163C188.228 298.083 188.228 298.004 188.228 297.934C188.228 297.863 188.228 297.784 188.228 297.696C188.228 297.608 188.228 297.529 188.228 297.459C188.228 297.388 188.228 297.3 188.228 297.212C188.213 297.135 188.193 297.058 188.167 296.983C188.139 296.915 188.103 296.85 188.061 296.79C188.018 296.729 187.964 296.675 187.903 296.631C187.836 296.584 187.762 296.548 187.683 296.526C187.584 296.512 187.483 296.512 187.384 296.526C187.284 296.511 187.184 296.511 187.084 296.526C187.006 296.548 186.931 296.584 186.864 296.631C186.801 296.676 186.747 296.733 186.706 296.799C186.658 296.857 186.62 296.922 186.592 296.992C186.592 297.063 186.548 297.142 186.53 297.23C186.526 297.309 186.526 297.388 186.53 297.467C186.53 297.538 186.53 297.626 186.53 297.705C186.53 297.784 186.53 297.872 186.53 297.943C186.53 298.013 186.53 298.092 186.53 298.18C186.544 298.258 186.565 298.334 186.592 298.409C186.618 298.481 186.653 298.549 186.697 298.611C186.738 298.677 186.792 298.734 186.856 298.779C186.925 298.827 187.002 298.863 187.084 298.884C187.181 298.914 187.282 298.928 187.384 298.928C187.482 298.927 187.58 298.912 187.674 298.884Z" fill="white"/>
<path d="M195.758 299.13C195.594 299.087 195.441 299.009 195.309 298.901C195.195 298.802 195.099 298.683 195.028 298.549C194.957 298.416 194.904 298.274 194.869 298.127C194.832 297.971 194.815 297.812 194.817 297.652C194.817 296.613 195.283 296.094 196.286 296.094C196.495 296.069 196.707 296.091 196.905 296.159C197.104 296.228 197.285 296.34 197.434 296.488C197.583 296.637 197.697 296.817 197.766 297.015C197.836 297.214 197.859 297.425 197.835 297.634C197.853 297.792 197.853 297.951 197.835 298.109C197.815 298.257 197.771 298.399 197.703 298.532C197.644 298.668 197.553 298.789 197.439 298.884C197.316 298.991 197.172 299.072 197.017 299.121C196.613 299.233 196.188 299.233 195.785 299.121L195.758 299.13ZM196.638 298.822C196.792 298.773 196.926 298.674 197.017 298.541C197.057 298.477 197.09 298.409 197.113 298.338C197.141 298.265 197.159 298.188 197.166 298.109C197.166 298.021 197.166 297.942 197.166 297.872V297.643C197.166 297.555 197.166 297.467 197.166 297.397C197.166 297.326 197.166 297.247 197.166 297.159C197.166 297.071 197.122 297.001 197.096 296.93L196.981 296.728C196.932 296.668 196.876 296.615 196.814 296.569C196.747 296.522 196.673 296.486 196.594 296.464C196.495 296.455 196.394 296.455 196.295 296.464C196.194 296.463 196.093 296.478 195.996 296.508C195.917 296.53 195.843 296.566 195.776 296.613C195.719 296.66 195.669 296.713 195.626 296.772C195.584 296.835 195.549 296.903 195.521 296.974C195.521 297.036 195.521 297.115 195.468 297.203C195.46 297.282 195.46 297.362 195.468 297.441V297.687C195.463 297.763 195.463 297.84 195.468 297.916C195.459 297.995 195.459 298.074 195.468 298.153C195.482 298.234 195.503 298.313 195.529 298.391C195.564 298.457 195.602 298.522 195.644 298.585C195.688 298.651 195.745 298.707 195.811 298.752C195.88 298.801 195.958 298.836 196.04 298.857C196.139 298.876 196.24 298.876 196.339 298.857C196.44 298.86 196.541 298.848 196.638 298.822Z" fill="white"/>
<path d="M199.915 299.104C199.752 299.057 199.6 298.979 199.466 298.875C199.349 298.779 199.253 298.659 199.185 298.523C199.11 298.391 199.054 298.249 199.017 298.101C198.982 297.945 198.961 297.786 198.956 297.626C198.912 296.587 199.396 296.068 200.399 296.068C200.609 296.044 200.821 296.066 201.021 296.134C201.221 296.203 201.403 296.315 201.554 296.462C201.705 296.61 201.821 296.789 201.894 296.988C201.967 297.186 201.994 297.398 201.974 297.608C201.988 297.766 201.988 297.925 201.974 298.083C201.954 298.229 201.912 298.372 201.851 298.506C201.786 298.639 201.696 298.758 201.587 298.858C201.464 298.965 201.32 299.046 201.165 299.095C200.966 299.159 200.757 299.189 200.549 299.183C200.335 299.188 200.121 299.161 199.915 299.104ZM200.795 298.796C200.874 298.771 200.949 298.732 201.015 298.682C201.074 298.635 201.124 298.578 201.165 298.515C201.204 298.451 201.236 298.383 201.261 298.312C201.288 298.238 201.306 298.162 201.314 298.083C201.314 297.995 201.314 297.916 201.314 297.846V297.608C201.314 297.52 201.314 297.441 201.314 297.371C201.308 297.29 201.293 297.21 201.27 297.133C201.241 296.978 201.178 296.83 201.085 296.702C201.039 296.64 200.982 296.587 200.918 296.543C200.848 296.496 200.771 296.46 200.689 296.438C200.59 296.428 200.49 296.428 200.39 296.438C200.294 296.424 200.196 296.424 200.1 296.438C200.021 296.46 199.947 296.496 199.88 296.543C199.824 296.59 199.773 296.643 199.73 296.702C199.687 296.764 199.655 296.832 199.633 296.904C199.605 296.977 199.587 297.055 199.581 297.133C199.581 297.221 199.581 297.3 199.581 297.371C199.572 297.452 199.572 297.535 199.581 297.617C199.576 297.693 199.576 297.77 199.581 297.846C199.581 297.916 199.581 297.995 199.581 298.083C199.596 298.162 199.62 298.239 199.651 298.312C199.684 298.384 199.725 298.452 199.774 298.515C199.815 298.58 199.869 298.637 199.933 298.682C200.003 298.729 200.08 298.765 200.161 298.787C200.262 298.816 200.365 298.831 200.469 298.831C200.588 298.839 200.707 298.827 200.821 298.796H200.795Z" fill="white"/>
<path d="M204.111 299.078C203.948 299.03 203.796 298.953 203.662 298.849C203.545 298.75 203.446 298.631 203.371 298.497C203.295 298.364 203.236 298.222 203.195 298.074C203.157 297.919 203.134 297.759 203.125 297.599C203.072 296.561 203.547 296.042 204.542 296.042C204.753 296.016 204.967 296.038 205.169 296.105C205.371 296.173 205.555 296.284 205.708 296.432C205.861 296.579 205.98 296.759 206.055 296.958C206.13 297.156 206.161 297.37 206.143 297.582C206.157 297.737 206.157 297.893 206.143 298.048C206.127 298.197 206.089 298.342 206.029 298.479C205.964 298.61 205.878 298.729 205.774 298.831C205.651 298.938 205.507 299.019 205.351 299.069C205.154 299.128 204.95 299.157 204.744 299.157C204.53 299.161 204.317 299.134 204.111 299.078ZM204.991 298.77C205.068 298.74 205.142 298.702 205.211 298.655C205.271 298.61 205.322 298.553 205.36 298.488C205.4 298.424 205.432 298.356 205.457 298.286C205.462 298.209 205.462 298.133 205.457 298.057C205.457 297.969 205.457 297.89 205.457 297.819C205.461 297.74 205.461 297.661 205.457 297.582V297.344C205.447 297.264 205.432 297.185 205.413 297.106C205.399 297.026 205.372 296.949 205.334 296.878C205.302 296.807 205.264 296.739 205.219 296.675C205.17 296.616 205.114 296.563 205.052 296.517C204.981 296.471 204.904 296.435 204.823 296.411C204.724 296.402 204.624 296.402 204.524 296.411C204.423 296.411 204.322 296.426 204.225 296.455C204.149 296.478 204.078 296.513 204.014 296.561C203.955 296.605 203.905 296.658 203.864 296.719C203.823 296.782 203.791 296.85 203.767 296.922C203.761 296.998 203.761 297.074 203.767 297.15C203.759 297.229 203.759 297.309 203.767 297.388V297.634V297.863C203.775 297.944 203.79 298.023 203.811 298.101C203.827 298.179 203.851 298.256 203.882 298.33C203.914 298.402 203.956 298.47 204.005 298.532C204.049 298.598 204.106 298.655 204.172 298.699C204.242 298.746 204.32 298.782 204.401 298.805C204.498 298.834 204.599 298.848 204.7 298.849C204.806 298.839 204.91 298.812 205.008 298.77H204.991Z" fill="white"/>
<path d="M208.309 299.043C208.147 298.998 207.994 298.924 207.86 298.823C207.74 298.725 207.638 298.605 207.561 298.471C207.481 298.339 207.419 298.197 207.376 298.049C207.338 297.893 207.315 297.734 207.306 297.573C207.226 296.535 207.693 296.016 208.696 296.016C208.907 295.992 209.122 296.015 209.323 296.083C209.525 296.151 209.709 296.262 209.864 296.409C210.018 296.556 210.138 296.734 210.216 296.933C210.294 297.131 210.328 297.343 210.315 297.556C210.333 297.711 210.333 297.867 210.315 298.022C210.299 298.171 210.26 298.316 210.201 298.453C210.142 298.586 210.059 298.705 209.954 298.805C209.836 298.912 209.694 298.991 209.541 299.034C209.345 299.1 209.14 299.133 208.934 299.131C208.722 299.136 208.511 299.106 208.309 299.043ZM209.189 298.744C209.266 298.715 209.34 298.676 209.409 298.629C209.468 298.582 209.518 298.526 209.558 298.462C209.593 298.397 209.623 298.33 209.646 298.26C209.652 298.181 209.652 298.101 209.646 298.022C209.651 297.946 209.651 297.87 209.646 297.793C209.65 297.714 209.65 297.635 209.646 297.556V297.318C209.637 297.237 209.619 297.158 209.594 297.081C209.579 297.001 209.553 296.923 209.514 296.852C209.483 296.779 209.441 296.711 209.391 296.649C209.344 296.588 209.288 296.534 209.224 296.491C209.154 296.444 209.077 296.408 208.995 296.385C208.896 296.371 208.795 296.371 208.696 296.385C208.595 296.385 208.494 296.4 208.397 296.429C208.321 296.454 208.25 296.489 208.186 296.535C208.074 296.631 207.992 296.756 207.948 296.896C207.927 296.971 207.912 297.047 207.904 297.125C207.904 297.213 207.904 297.292 207.904 297.362C207.904 297.433 207.904 297.521 207.904 297.609C207.899 297.685 207.899 297.761 207.904 297.837C207.904 297.908 207.904 297.987 207.957 298.075C207.972 298.154 207.999 298.231 208.036 298.304C208.068 298.376 208.109 298.445 208.159 298.506C208.203 298.572 208.26 298.629 208.326 298.673C208.396 298.721 208.474 298.756 208.555 298.779C208.657 298.797 208.761 298.797 208.863 298.779C208.976 298.786 209.089 298.774 209.197 298.744H209.189Z" fill="white"/>
<path d="M217.239 298.99C217.072 298.94 216.914 298.863 216.773 298.761C216.653 298.66 216.549 298.542 216.465 298.409C216.379 298.279 216.314 298.136 216.271 297.986C216.226 297.831 216.197 297.672 216.183 297.511C216.078 296.482 216.518 295.962 217.521 295.954C217.735 295.933 217.95 295.957 218.154 296.025C218.357 296.093 218.544 296.203 218.702 296.349C218.86 296.494 218.985 296.672 219.07 296.869C219.155 297.066 219.196 297.279 219.193 297.494C219.21 297.652 219.21 297.811 219.193 297.969C219.182 298.114 219.149 298.256 219.096 298.391C219.046 298.524 218.968 298.644 218.867 298.743C218.747 298.85 218.607 298.931 218.454 298.981C218.257 299.041 218.052 299.071 217.846 299.069C217.641 299.071 217.437 299.044 217.239 298.99ZM218.119 298.682C218.195 298.654 218.266 298.616 218.33 298.567C218.389 298.522 218.437 298.465 218.471 298.4C218.505 298.336 218.532 298.268 218.55 298.198C218.571 298.123 218.586 298.046 218.594 297.969V297.731C218.599 297.655 218.599 297.579 218.594 297.502C218.594 297.414 218.594 297.335 218.594 297.256C218.594 297.177 218.594 297.106 218.533 297.018C218.51 296.94 218.481 296.863 218.445 296.79C218.41 296.721 218.369 296.656 218.322 296.596C218.272 296.534 218.212 296.481 218.146 296.438C218.072 296.392 217.992 296.357 217.908 296.332C217.809 296.318 217.708 296.318 217.609 296.332C217.513 296.318 217.415 296.318 217.318 296.332C217.242 296.353 217.17 296.389 217.107 296.438C217.052 296.485 217.004 296.542 216.966 296.605C216.928 296.665 216.899 296.73 216.878 296.798C216.873 296.875 216.873 296.951 216.878 297.027C216.874 297.106 216.874 297.186 216.878 297.265C216.878 297.344 216.878 297.423 216.878 297.511V297.74C216.895 297.82 216.915 297.9 216.94 297.978C216.958 298.057 216.985 298.133 217.019 298.206C217.055 298.279 217.099 298.347 217.151 298.409C217.199 298.475 217.258 298.532 217.327 298.576C217.4 298.625 217.48 298.661 217.565 298.682C217.662 298.711 217.763 298.725 217.864 298.726C217.951 298.722 218.036 298.707 218.119 298.682Z" fill="white"/>
<path d="M221.422 298.963C221.259 298.91 221.105 298.833 220.964 298.734C220.839 298.637 220.732 298.517 220.648 298.382C220.562 298.251 220.494 298.109 220.445 297.96C220.397 297.805 220.364 297.646 220.348 297.485C220.225 296.455 220.665 295.936 221.66 295.927C221.874 295.906 222.091 295.931 222.296 295.998C222.501 296.066 222.69 296.176 222.85 296.321C223.009 296.466 223.137 296.643 223.225 296.841C223.312 297.038 223.358 297.251 223.358 297.467C223.371 297.625 223.371 297.784 223.358 297.942C223.35 298.087 223.32 298.229 223.27 298.365C223.218 298.496 223.14 298.616 223.041 298.717C222.926 298.824 222.787 298.902 222.636 298.946C222.441 299.013 222.236 299.046 222.029 299.042C221.824 299.043 221.62 299.017 221.422 298.963ZM222.302 298.655C222.378 298.628 222.449 298.59 222.513 298.541C222.569 298.493 222.616 298.437 222.654 298.374C222.725 298.241 222.762 298.093 222.76 297.942C222.768 297.863 222.768 297.784 222.76 297.705C222.764 297.629 222.764 297.552 222.76 297.476C222.75 297.393 222.735 297.311 222.716 297.23C222.705 297.148 222.685 297.068 222.654 296.992C222.631 296.913 222.602 296.837 222.566 296.763C222.53 296.693 222.486 296.628 222.434 296.57C222.384 296.505 222.325 296.449 222.258 296.402C222.182 296.363 222.102 296.331 222.02 296.306C221.921 296.292 221.82 296.292 221.721 296.306C221.625 296.292 221.527 296.292 221.431 296.306C221.355 296.33 221.284 296.366 221.22 296.411C221.166 296.456 221.122 296.509 221.088 296.57C221.047 296.632 221.018 296.7 221 296.772C220.994 296.848 220.994 296.925 221 297.001C220.995 297.08 220.995 297.159 221 297.238V297.485C220.995 297.561 220.995 297.637 221 297.714C221.013 297.794 221.033 297.874 221.061 297.951C221.082 298.03 221.112 298.107 221.149 298.18C221.185 298.253 221.229 298.32 221.281 298.382C221.328 298.449 221.388 298.506 221.457 298.55C221.53 298.598 221.61 298.634 221.695 298.655C221.794 298.669 221.895 298.669 221.994 298.655C222.096 298.666 222.2 298.666 222.302 298.655Z" fill="white"/>
<path d="M225.608 298.928C225.44 298.882 225.281 298.804 225.142 298.699C225.013 298.617 224.898 298.516 224.799 298.4C224.714 298.268 224.646 298.126 224.596 297.977C224.549 297.822 224.514 297.663 224.491 297.502C224.35 296.472 224.781 295.953 225.776 295.944C225.994 295.92 226.216 295.941 226.426 296.007C226.636 296.073 226.83 296.182 226.995 296.326C227.161 296.471 227.294 296.649 227.387 296.849C227.48 297.048 227.531 297.264 227.536 297.484C227.544 297.64 227.544 297.795 227.536 297.951C227.529 298.098 227.499 298.244 227.448 298.382C227.399 298.513 227.324 298.633 227.228 298.734C227.114 298.843 226.975 298.922 226.823 298.963C226.63 299.029 226.428 299.062 226.224 299.06C226.013 299.049 225.805 299.004 225.608 298.928ZM226.488 298.62C226.564 298.595 226.635 298.56 226.7 298.514C226.753 298.466 226.798 298.41 226.832 298.347C226.903 298.214 226.939 298.066 226.937 297.916V297.678V297.449C226.937 297.361 226.937 297.273 226.893 297.203C226.875 297.122 226.852 297.043 226.823 296.965C226.8 296.887 226.771 296.81 226.735 296.736C226.696 296.666 226.649 296.601 226.594 296.543C226.544 296.478 226.485 296.422 226.418 296.376C226.342 296.337 226.262 296.304 226.18 296.279C226.081 296.265 225.981 296.265 225.881 296.279C225.785 296.264 225.687 296.264 225.591 296.279C225.515 296.301 225.443 296.337 225.38 296.384C225.326 296.429 225.282 296.482 225.248 296.543C225.214 296.607 225.187 296.675 225.168 296.745C225.159 296.821 225.159 296.898 225.168 296.974C225.16 297.053 225.16 297.133 225.168 297.212C225.16 297.294 225.16 297.376 225.168 297.458C225.168 297.537 225.168 297.616 225.168 297.687C225.168 297.757 225.168 297.836 225.23 297.924C225.254 298.004 225.286 298.081 225.327 298.153C225.363 298.226 225.407 298.294 225.459 298.356C225.509 298.422 225.572 298.479 225.644 298.523C225.716 298.572 225.797 298.607 225.881 298.628C225.98 298.647 226.082 298.647 226.18 298.628C226.28 298.645 226.381 298.642 226.48 298.62H226.488Z" fill="white"/>
<path d="M229.791 298.901C229.622 298.856 229.464 298.778 229.324 298.673C229.194 298.581 229.084 298.464 228.999 298.329C228.908 298.198 228.834 298.056 228.779 297.907C228.732 297.751 228.697 297.592 228.673 297.432C228.515 296.402 228.937 295.883 229.931 295.874C230.15 295.852 230.37 295.876 230.579 295.942C230.788 296.009 230.98 296.118 231.145 296.262C231.31 296.407 231.444 296.584 231.538 296.782C231.632 296.98 231.684 297.195 231.691 297.414C231.704 297.569 231.704 297.725 231.691 297.881C231.692 298.028 231.665 298.174 231.612 298.312C231.568 298.445 231.493 298.566 231.392 298.664C231.281 298.771 231.145 298.85 230.996 298.893C230.598 299.016 230.171 299.016 229.773 298.893L229.791 298.901ZM230.671 298.593C230.747 298.573 230.819 298.537 230.882 298.488C230.935 298.44 230.98 298.384 231.014 298.321C231.048 298.257 231.071 298.189 231.084 298.118C231.094 298.039 231.094 297.959 231.084 297.881C231.089 297.804 231.089 297.728 231.084 297.652C231.092 297.573 231.092 297.493 231.084 297.414C231.084 297.326 231.084 297.247 231.04 297.177C230.996 297.106 230.996 297.027 230.97 296.939C230.945 296.86 230.912 296.783 230.873 296.71C230.834 296.64 230.787 296.575 230.732 296.517C230.682 296.45 230.619 296.393 230.547 296.349C230.473 296.307 230.393 296.275 230.31 296.253C230.211 296.239 230.11 296.239 230.011 296.253C229.914 296.239 229.817 296.239 229.72 296.253C229.647 296.275 229.578 296.311 229.518 296.358C229.465 296.403 229.42 296.456 229.386 296.517C229.352 296.581 229.325 296.649 229.307 296.719C229.307 296.789 229.307 296.86 229.307 296.948C229.302 297.027 229.302 297.106 229.307 297.185V297.432C229.307 297.511 229.307 297.59 229.307 297.661C229.307 297.731 229.351 297.81 229.377 297.898C229.402 297.977 229.435 298.054 229.474 298.127C229.512 298.198 229.556 298.266 229.606 298.329C229.661 298.392 229.723 298.448 229.791 298.497C229.865 298.542 229.945 298.578 230.028 298.602C230.13 298.616 230.234 298.616 230.336 298.602C230.441 298.623 230.549 298.62 230.653 298.593H230.671Z" fill="white"/>
<path d="M226.772 306.575C227.054 308.625 225.012 310.324 222.188 310.341C219.363 310.359 216.908 308.696 216.705 306.654C216.503 304.613 218.562 303.002 221.308 302.985C224.053 302.967 226.491 304.56 226.772 306.575Z" fill="white" stroke="#263238" stroke-linecap="round" stroke-linejoin="round"/>
<path d="M233.601 306.531C233.936 308.573 231.929 310.271 229.113 310.289C226.297 310.306 223.833 308.652 223.543 306.601C223.253 304.551 225.303 302.958 228.049 302.941C230.794 302.923 233.276 304.56 233.601 306.531Z" fill="white" stroke="#263238" stroke-linecap="round" stroke-linejoin="round"/>
<path d="M86.896 340.701C86.896 340.701 106.573 299.447 109.6 291.501C112.627 283.554 155.017 263.49 157.287 259.68C159.558 255.869 162.567 244.165 164.864 239.246C167.161 234.327 165.242 232.426 166.756 228.264C168.27 224.101 170.918 219.182 167.134 219.182C163.35 219.182 158.431 223.345 156.53 230.156C154.63 236.967 147.07 242.652 147.07 242.652L147.449 238.111C147.827 233.561 152.368 219.561 154.26 216.533C156.152 213.506 167.513 201.397 169.026 201.019C170.54 200.641 173.946 204.046 177.351 204.046C180.757 204.046 181.514 201.406 179.622 199.884C177.73 198.361 176.216 193.442 171.702 190.415C167.187 187.388 162.242 190.415 162.242 190.415C160.979 188.314 159.589 186.292 158.079 184.361C156.178 182.09 152.394 178.306 147.475 177.171C146.035 176.842 144.538 176.841 143.097 177.169C141.656 177.496 140.307 178.144 139.15 179.063C137.408 178.701 135.644 178.448 133.87 178.306C130.086 177.928 127.438 180.198 123.654 186.226C119.87 192.254 113.806 204.02 113.806 204.02C113.806 204.02 115.32 193.037 115.32 188.497C115.32 183.956 115.698 179.037 113.806 177.145C111.914 175.253 110.022 177.523 109.266 184.334C108.509 191.145 99.8056 214.993 98.7056 221.426C97.6056 227.859 85.4616 263.437 79.02 272.528C72.5784 281.618 37.7656 321.35 37.7656 321.35M141.394 206.721C141.394 206.721 146.674 191.577 148.206 191.577C149.737 191.577 155.395 195.739 155.395 195.739L141.394 206.721Z" fill="white"/>
<path d="M86.896 340.701C86.896 340.701 106.573 299.447 109.6 291.501C112.627 283.554 155.017 263.49 157.287 259.68C159.558 255.869 162.567 244.165 164.864 239.246C167.161 234.327 165.242 232.426 166.756 228.264C168.27 224.101 170.918 219.182 167.134 219.182C163.35 219.182 158.431 223.345 156.53 230.156C154.63 236.967 147.07 242.652 147.07 242.652L147.449 238.111C147.827 233.561 152.368 219.561 154.26 216.533C156.152 213.506 167.513 201.397 169.026 201.019C170.54 200.641 173.946 204.046 177.351 204.046C180.757 204.046 181.514 201.406 179.622 199.884C177.73 198.361 176.216 193.442 171.702 190.415C167.187 187.388 162.242 190.415 162.242 190.415C160.979 188.314 159.589 186.292 158.079 184.361C156.178 182.09 152.394 178.306 147.475 177.171C146.035 176.842 144.538 176.841 143.097 177.169C141.656 177.496 140.307 178.144 139.15 179.063C137.408 178.701 135.644 178.448 133.87 178.306C130.086 177.928 127.438 180.198 123.654 186.226C119.87 192.254 113.806 204.02 113.806 204.02C113.806 204.02 115.32 193.037 115.32 188.497C115.32 183.956 115.698 179.037 113.806 177.145C111.914 175.253 110.022 177.523 109.266 184.334C108.509 191.145 99.8056 214.993 98.7056 221.426C97.6056 227.859 85.4616 263.437 79.02 272.528C72.5784 281.618 37.7656 321.35 37.7656 321.35M141.394 206.721C141.394 206.721 146.674 191.577 148.206 191.577C149.737 191.577 155.395 195.739 155.395 195.739L141.394 206.721Z" stroke="#263238" stroke-linecap="round" stroke-linejoin="round"/>
<path d="M95.5809 237.873C95.5809 237.873 102.031 217.695 103.105 212.503C103.87 208.842 106.581 213.11 106.581 213.11C106.581 213.11 111.861 209.335 111.861 212.503C111.921 214.516 112.614 216.458 113.841 218.055C113.841 218.055 112.653 212.502 118.241 210.918C123.829 209.334 126.161 211.711 124.982 218.055C123.802 224.4 125.774 222.015 126.962 220.431C128.15 218.847 126.566 214.878 133.702 212.106C140.839 209.334 144.808 212.107 143.611 218.055C142.414 224.004 140.443 229.152 140.443 237.873C140.443 246.594 142.027 254.523 143.611 254.523C145.195 254.523 153.925 245.406 155.509 251.354C157.093 257.303 153.925 257.303 145.6 264.431C137.275 271.559 115.469 277.517 111.905 284.671C108.341 291.826 105.956 296.164 103.58 296.56C101.204 296.956 97.2352 282.691 85.7337 284.24C74.2321 285.789 62.3433 297.326 65.1241 292.565C67.9049 287.804 78.2008 280.245 84.1496 266.798C90.0984 253.352 95.5809 237.873 95.5809 237.873Z" fill="#0A2B51"/>
<path opacity="0.4" d="M95.5809 237.873C95.5809 237.873 102.031 217.695 103.105 212.503C103.87 208.842 106.581 213.11 106.581 213.11C106.581 213.11 111.861 209.335 111.861 212.503C111.921 214.516 112.614 216.458 113.841 218.055C113.841 218.055 112.653 212.502 118.241 210.918C123.829 209.334 126.161 211.711 124.982 218.055C123.802 224.4 125.774 222.015 126.962 220.431C128.15 218.847 126.566 214.878 133.702 212.106C140.839 209.334 144.808 212.107 143.611 218.055C142.414 224.004 140.443 229.152 140.443 237.873C140.443 246.594 142.027 254.523 143.611 254.523C145.195 254.523 153.925 245.406 155.509 251.354C157.093 257.303 153.925 257.303 145.6 264.431C137.275 271.559 115.469 277.517 111.905 284.671C108.341 291.826 105.956 296.164 103.58 296.56C101.204 296.956 97.2352 282.691 85.7337 284.24C74.2321 285.789 62.3433 297.326 65.1241 292.565C67.9049 287.804 78.2008 280.245 84.1496 266.798C90.0984 253.352 95.5809 237.873 95.5809 237.873Z" fill="white"/>
<path d="M139.123 179.09C139.123 179.09 128.563 197.262 126.257 201.046C123.951 204.83 122.095 208.235 119.437 209.749C116.779 211.263 114.896 214.668 115.653 215.803" fill="white"/>
<path d="M139.123 179.09C139.123 179.09 128.563 197.262 126.257 201.046C123.951 204.83 122.095 208.235 119.437 209.749C116.779 211.263 114.896 214.668 115.653 215.803" stroke="#263238" stroke-linecap="round" stroke-linejoin="round"/>
<path d="M113.761 204.072C112.591 206.215 111.054 208.136 109.22 209.748C106.193 212.388 102.787 214.667 102.031 217.668C101.512 219.587 100.615 221.382 99.3906 222.948" fill="white"/>
<path d="M113.761 204.072C112.591 206.215 111.054 208.136 109.22 209.748C106.193 212.388 102.787 214.667 102.031 217.668C101.512 219.587 100.615 221.382 99.3906 222.948" stroke="#263238" stroke-linecap="round" stroke-linejoin="round"/>
<path d="M141.393 206.722C141.393 206.722 133.825 211.641 131.933 213.154C130.041 214.668 129.293 218.074 129.293 218.074" fill="white"/>
<path d="M141.393 206.722C141.393 206.722 133.825 211.641 131.933 213.154C130.041 214.668 129.293 218.074 129.293 218.074" stroke="#263238" stroke-linecap="round" stroke-linejoin="round"/>
<path d="M162.215 190.441L155.395 195.739" stroke="#263238" stroke-linecap="round" stroke-linejoin="round"/>
<path d="M346.294 316.977C346.294 316.977 311.851 283.299 309.202 276.497C306.553 269.695 307.31 268.172 305.039 263.297C302.769 258.422 295.958 250 295.579 243.937C295.201 237.874 292.174 223.495 292.174 218.575C292.174 213.656 291.039 206.467 289.534 205.331C288.029 204.196 279.687 202.295 279.687 202.295C279.687 202.295 275.146 187.916 271.767 187.159C268.387 186.403 261.515 190.16 261.515 190.16C261.515 190.16 260.001 187.52 258.109 183.349C256.217 179.178 252.829 179.187 248.649 180.709C244.469 182.231 236.153 185.628 236.153 185.628C236.153 185.628 226.693 178.439 223.666 182.988C220.639 187.538 216.855 195.854 216.098 198.881C215.341 201.908 220.577 201.803 221.712 201.046C222.847 200.289 227.107 197.156 227.107 197.156C227.107 197.156 235.396 203.422 236.91 206.836C238.423 210.251 241.451 226.135 241.829 229.162C242.207 232.189 240.694 241.649 240.694 241.649C240.694 241.649 233.504 228.783 230.134 224.999C226.763 221.215 221.809 218.945 218.025 218.945C214.241 218.945 211.592 223.107 214.619 224.999C217.647 226.891 221.052 229.162 221.809 231.811C222.566 234.459 230.134 248.091 230.891 253.01C231.647 257.929 236.945 267.767 241.864 270.795C246.783 273.822 264.955 277.606 268.361 281.02C271.767 284.435 295.993 332.491 295.993 332.491M242.964 192.8H249.027L255.46 205.296L242.964 192.8Z" fill="white"/>
<path d="M346.294 316.977C346.294 316.977 311.851 283.299 309.202 276.497C306.553 269.695 307.31 268.172 305.039 263.297C302.769 258.422 295.958 250 295.579 243.937C295.201 237.874 292.174 223.495 292.174 218.575C292.174 213.656 291.039 206.467 289.534 205.331C288.029 204.196 279.687 202.295 279.687 202.295C279.687 202.295 275.146 187.916 271.767 187.159C268.387 186.403 261.515 190.16 261.515 190.16C261.515 190.16 260.001 187.52 258.109 183.349C256.217 179.178 252.829 179.187 248.649 180.709C244.469 182.231 236.153 185.628 236.153 185.628C236.153 185.628 226.693 178.439 223.666 182.988C220.639 187.538 216.855 195.854 216.098 198.881C215.341 201.908 220.577 201.803 221.712 201.046C222.847 200.289 227.107 197.156 227.107 197.156C227.107 197.156 235.396 203.422 236.91 206.836C238.423 210.251 241.451 226.135 241.829 229.162C242.207 232.189 240.694 241.649 240.694 241.649C240.694 241.649 233.504 228.783 230.134 224.999C226.763 221.215 221.809 218.945 218.025 218.945C214.241 218.945 211.592 223.107 214.619 224.999C217.647 226.891 221.052 229.162 221.809 231.811C222.566 234.459 230.134 248.091 230.891 253.01C231.647 257.929 236.945 267.767 241.864 270.795C246.783 273.822 264.955 277.606 268.361 281.02C271.767 284.435 295.993 332.491 295.993 332.491M242.964 192.8H249.027L255.46 205.296L242.964 192.8Z" stroke="#263238" stroke-linecap="round" stroke-linejoin="round"/>
<path d="M291.02 223.996C291.02 223.996 286.62 211.676 281.508 214.087C276.395 216.498 275.559 217.66 275.559 217.66C275.559 217.66 272.778 213.26 268.026 214.879C263.274 216.498 261.681 213.295 261.681 213.295C261.681 213.295 255.336 209.335 251.376 212.503C247.416 215.671 250.584 224.392 252.168 231.528C253.752 238.665 250.188 252.543 249.396 253.731C248.604 254.919 237.895 250.167 236.707 254.523C235.519 258.879 240.271 268.4 249.792 271.568C259.314 274.736 266.442 276.329 270.032 279.893C273.623 283.457 282.722 309.232 290.651 311.212C298.58 313.192 307.3 301.7 315.625 302.492C323.95 303.284 334.651 309.232 330.295 304.076C325.939 298.919 307.696 280.316 306.535 273.557C305.373 266.799 300.982 262.056 299.002 258.888C297.022 255.72 293.44 236.685 292.208 231.52C291.563 229.057 291.165 226.537 291.02 223.996Z" fill="#0A2B51"/>
<path opacity="0.4" d="M291.02 223.996C291.02 223.996 286.62 211.676 281.508 214.087C276.395 216.498 275.559 217.66 275.559 217.66C275.559 217.66 272.778 213.26 268.026 214.879C263.274 216.498 261.681 213.295 261.681 213.295C261.681 213.295 255.336 209.335 251.376 212.503C247.416 215.671 250.584 224.392 252.168 231.528C253.752 238.665 250.188 252.543 249.396 253.731C248.604 254.919 237.895 250.167 236.707 254.523C235.519 258.879 240.271 268.4 249.792 271.568C259.314 274.736 266.442 276.329 270.032 279.893C273.623 283.457 282.722 309.232 290.651 311.212C298.58 313.192 307.3 301.7 315.625 302.492C323.95 303.284 334.651 309.232 330.295 304.076C325.939 298.919 307.696 280.316 306.535 273.557C305.373 266.799 300.982 262.056 299.002 258.888C297.022 255.72 293.44 236.685 292.208 231.52C291.563 229.057 291.165 226.537 291.02 223.996Z" fill="white"/>
<path d="M261.516 190.16L266.796 199.999C266.796 199.999 268.952 205.164 271.134 207.338C273.316 209.511 275.217 211.148 276.036 213.876C276.854 216.604 277.118 217.959 277.118 217.959" fill="white"/>
<path d="M261.516 190.16L266.796 199.999C266.796 199.999 268.952 205.164 271.134 207.338C273.316 209.511 275.217 211.148 276.036 213.876C276.854 216.604 277.118 217.959 277.118 217.959" stroke="#263238" stroke-linecap="round" stroke-linejoin="round"/>
<path d="M279.676 202.295L284.982 213.277" stroke="#263238" stroke-linecap="round" stroke-linejoin="round"/>
<path d="M236.152 185.646L242.964 192.835" stroke="#263238" stroke-linecap="round" stroke-linejoin="round"/>
<path d="M286.402 215.803C286.518 218.089 286.792 220.365 287.221 222.614L286.402 215.803Z" fill="white"/>
<path d="M286.402 215.803C286.518 218.089 286.792 220.365 287.221 222.614" stroke="#263238" stroke-linecap="round" stroke-linejoin="round"/>
<path d="M259.172 209.52C259.172 209.52 262.437 211.966 262.982 215.231L259.172 209.52Z" fill="white"/>
<path d="M259.172 209.52C259.172 209.52 262.437 211.966 262.982 215.231" stroke="#263238" stroke-linecap="round" stroke-linejoin="round"/>
<path d="M227.105 197.2C227.105 197.2 224.113 196.003 224.113 193.609L227.105 197.2Z" fill="white"/>
<path d="M227.105 197.2C227.105 197.2 224.113 196.003 224.113 193.609" stroke="#263238" stroke-linecap="round" stroke-linejoin="round"/>
<path d="M249.028 192.8C249.028 192.8 246.863 191.136 246.863 189.042L249.028 192.8Z" fill="white"/>
<path d="M249.028 192.8C249.028 192.8 246.863 191.136 246.863 189.042" stroke="#263238" stroke-linecap="round" stroke-linejoin="round"/>
</svg>
