<svg width="477" height="438" viewBox="0 0 477 438" fill="none" xmlns="http://www.w3.org/2000/svg">
<path d="M358.833 94.3456C322.881 31.2156 266.321 -4.00876 198.162 1.25564C130.003 6.52004 126.846 57.4199 126.846 114.494C126.846 170.904 46.2967 144.593 20.6167 212.634C0.607675 265.653 52.6525 362.52 76.6205 402.73H416.624C429.817 357.159 453.785 267.472 456.385 209.424C461.061 105.056 387.52 144.743 358.833 94.3456Z" fill="#0A2B51"/>
<path d="M358.833 94.3456C322.881 31.2156 266.321 -4.00876 198.162 1.25564C130.003 6.52004 126.846 57.4199 126.846 114.494C126.846 170.904 46.2967 144.593 20.6167 212.634C0.607675 265.653 52.6525 362.52 76.6205 402.73H416.624C429.817 357.159 453.785 267.472 456.385 209.424C461.061 105.056 387.52 144.743 358.833 94.3456Z" fill="#EBEBEB"/>
<path d="M330.712 329.714C330.712 329.714 352.647 263.748 325.105 324.674C325.105 324.674 315.389 271.645 317.925 329.51C317.925 329.51 289.527 285.105 313.474 339.14C313.474 339.14 276.623 299.839 314.672 351.049C314.672 351.049 388.995 347.315 331.247 344.779C331.247 344.779 398.475 316.296 334.393 336.776C334.393 336.797 391.691 280.055 330.712 329.714Z" fill="#A1FFA1"/>
<path d="M326.033 331.18C326.033 331.18 311.256 352.013 305.906 373.605" stroke="#263238" stroke-width="0.75" stroke-linecap="round" stroke-linejoin="round"/>
<path d="M285.577 331.832C285.577 331.832 233.853 291.086 279.275 335.203C279.275 335.203 228.921 326.824 281.276 343.153C281.276 343.153 232.591 354.184 288.445 350.215C288.445 350.215 241.59 370.416 299.444 352.975C299.444 352.975 319.999 285.565 299.177 336.198C299.177 336.198 295.411 267.151 293.067 330.848C293.067 330.826 260.882 261.554 285.577 331.832Z" fill="#0A2B51"/>
<path d="M285.577 331.832C285.577 331.832 233.853 291.086 279.275 335.203C279.275 335.203 228.921 326.824 281.276 343.153C281.276 343.153 232.591 354.184 288.445 350.215C288.445 350.215 241.59 370.416 299.444 352.975C299.444 352.975 319.999 285.565 299.177 336.198C299.177 336.198 295.411 267.151 293.067 330.848C293.067 330.826 260.882 261.554 285.577 331.832Z" fill="#A1FFA1"/>
<path d="M309.93 375.585C300.632 344.555 284.25 336.979 284.25 336.979" stroke="#263238" stroke-width="0.75" stroke-linecap="round" stroke-linejoin="round"/>
<path d="M306.508 335.438C306.508 335.438 313.142 341.665 314.907 350.129C321.271 347.953 328 347.048 334.713 347.465" stroke="#263238" stroke-width="0.5" stroke-linecap="round" stroke-linejoin="round"/>
<path d="M313.516 328.729C313.516 328.729 318.074 334.261 314.907 350.129L332.348 337.899" stroke="#263238" stroke-width="0.5" stroke-linecap="round" stroke-linejoin="round"/>
<path d="M301.381 336.219C299.487 340.937 298.563 345.988 298.663 351.071C298.663 351.071 291.173 351.905 286.102 354.281" stroke="#263238" stroke-width="0.5" stroke-linecap="round" stroke-linejoin="round"/>
<path d="M293.302 334.25C294.089 340.127 295.9 345.82 298.652 351.071C298.652 351.071 293.88 346.791 281.254 346.085" stroke="#263238" stroke-width="0.5" stroke-linecap="round" stroke-linejoin="round"/>
<path d="M292.254 371.24H323.113L318.373 400.13H316.875V401.286C316.876 401.483 316.838 401.679 316.764 401.862C316.689 402.045 316.579 402.212 316.44 402.352C316.3 402.492 316.135 402.604 315.952 402.679C315.77 402.755 315.574 402.795 315.377 402.795H313.943C313.745 402.795 313.55 402.755 313.367 402.679C313.185 402.604 313.019 402.492 312.88 402.352C312.741 402.212 312.63 402.045 312.556 401.862C312.481 401.679 312.443 401.483 312.445 401.286V400.13H302.922V401.286C302.922 401.484 302.883 401.68 302.807 401.863C302.731 402.046 302.62 402.213 302.48 402.353C302.34 402.493 302.174 402.604 301.99 402.68C301.807 402.756 301.611 402.795 301.413 402.795H299.979C299.581 402.792 299.2 402.631 298.919 402.349C298.639 402.066 298.481 401.684 298.481 401.286V400.13H296.983L292.254 371.24Z" fill="#263238" stroke="#263238" stroke-width="0.75" stroke-linecap="round" stroke-linejoin="round"/>
<path d="M428.328 402.73H67.2032C45.4073 406.069 27.9235 410.392 33.4126 415.314C46.2526 426.838 138.722 413.377 136.004 426.72C133.286 440.063 202.633 436.756 240.361 436.756C278.089 436.756 319.274 433.215 306.016 422.975C292.759 412.735 380.767 420.214 418.591 420.214C446.197 420.214 465.115 412.51 428.328 402.73Z" fill="#EBEBEB"/>
<path d="M0.5 402.73H476.5" stroke="#263238" stroke-width="0.75" stroke-linecap="round" stroke-linejoin="round"/>
<path d="M342.931 26.4111H159.448C154.566 26.4111 150.609 30.3681 150.609 35.2493V276.588C150.609 281.469 154.566 285.426 159.448 285.426H342.931C347.812 285.426 351.769 281.469 351.769 276.588V35.2493C351.769 30.3681 347.812 26.4111 342.931 26.4111Z" fill="#263238" stroke="#263238" stroke-linecap="round" stroke-linejoin="round"/>
<path d="M339.72 22.6128H156.237C151.355 22.6128 147.398 26.5698 147.398 31.451V272.789C147.398 277.671 151.355 281.628 156.237 281.628H339.72C344.601 281.628 348.558 277.671 348.558 272.789V31.451C348.558 26.5698 344.601 22.6128 339.72 22.6128Z" fill="#0A2B51"/>
<mask id="mask0_871_2" style="mask-type:luminance" maskUnits="userSpaceOnUse" x="147" y="22" width="202" height="260">
<path d="M339.72 22.6128H156.237C151.355 22.6128 147.398 26.5698 147.398 31.451V272.789C147.398 277.671 151.355 281.628 156.237 281.628H339.72C344.601 281.628 348.558 277.671 348.558 272.789V31.451C348.558 26.5698 344.601 22.6128 339.72 22.6128Z" fill="white"/>
</mask>
<g mask="url(#mask0_871_2)">
<path opacity="0.8" d="M339.72 22.6128H156.237C151.355 22.6128 147.398 26.5698 147.398 31.451V272.789C147.398 277.671 151.355 281.628 156.237 281.628H339.72C344.601 281.628 348.558 277.671 348.558 272.789V31.451C348.558 26.5698 344.601 22.6128 339.72 22.6128Z" fill="white"/>
</g>
<path d="M339.72 22.6128H156.237C151.355 22.6128 147.398 26.5698 147.398 31.451V272.789C147.398 277.671 151.355 281.628 156.237 281.628H339.72C344.601 281.628 348.558 277.671 348.558 272.789V31.451C348.558 26.5698 344.601 22.6128 339.72 22.6128Z" stroke="#263238" stroke-linecap="round" stroke-linejoin="round"/>
<path d="M339.997 59.624H155.957V131.4H339.997V59.624Z" fill="white" stroke="#263238" stroke-linecap="round" stroke-linejoin="round"/>
<path d="M339.997 131.4L155.957 59.624" stroke="#263238" stroke-width="0.75" stroke-linecap="round" stroke-linejoin="round"/>
<path d="M155.957 131.4L339.997 59.624" stroke="#263238" stroke-width="0.75" stroke-linecap="round" stroke-linejoin="round"/>
<path d="M247.977 145.941H155.957V217.717H247.977V145.941Z" fill="#0A2B51"/>
<mask id="mask1_871_2" style="mask-type:luminance" maskUnits="userSpaceOnUse" x="155" y="145" width="93" height="73">
<path d="M247.977 145.941H155.957V217.717H247.977V145.941Z" fill="white"/>
</mask>
<g mask="url(#mask1_871_2)">
<path opacity="0.5" d="M247.977 145.941H155.957V217.717H247.977V145.941Z" fill="white"/>
</g>
<path d="M247.977 145.941H155.957V217.717H247.977V145.941Z" stroke="#263238" stroke-linecap="round" stroke-linejoin="round"/>
<path d="M287.836 34.9927H208.121C207.234 34.9927 206.516 35.7113 206.516 36.5977C206.516 37.4841 207.234 38.2027 208.121 38.2027H287.836C288.722 38.2027 289.441 37.4841 289.441 36.5977C289.441 35.7113 288.722 34.9927 287.836 34.9927Z" fill="#263238" stroke="#263238" stroke-width="0.75" stroke-linecap="round" stroke-linejoin="round"/>
<path d="M338.394 149.151H258.679C258.254 149.151 257.845 148.982 257.544 148.681C257.243 148.38 257.074 147.972 257.074 147.546C257.074 147.12 257.243 146.712 257.544 146.411C257.845 146.11 258.254 145.941 258.679 145.941H338.394C338.82 145.941 339.228 146.11 339.529 146.411C339.83 146.712 339.999 147.12 339.999 147.546C339.999 147.972 339.83 148.38 339.529 148.681C339.228 148.982 338.82 149.151 338.394 149.151Z" fill="#263238" stroke="#263238" stroke-width="0.75" stroke-linecap="round" stroke-linejoin="round"/>
<path d="M321.274 166.892H258.679C258.254 166.892 257.845 166.723 257.544 166.422C257.243 166.121 257.074 165.712 257.074 165.287C257.074 164.861 257.243 164.453 257.544 164.152C257.845 163.851 258.254 163.682 258.679 163.682H321.274C321.7 163.682 322.108 163.851 322.409 164.152C322.71 164.453 322.879 164.861 322.879 165.287C322.879 165.712 322.71 166.121 322.409 166.422C322.108 166.723 321.7 166.892 321.274 166.892Z" fill="#263238" stroke="#263238" stroke-width="0.75" stroke-linecap="round" stroke-linejoin="round"/>
<path d="M312.982 176.233H258.679C257.793 176.233 257.074 176.951 257.074 177.838C257.074 178.724 257.793 179.443 258.679 179.443H312.982C313.868 179.443 314.587 178.724 314.587 177.838C314.587 176.951 313.868 176.233 312.982 176.233Z" fill="#263238" stroke="#263238" stroke-width="0.75" stroke-linecap="round" stroke-linejoin="round"/>
<path d="M328.764 191.983H258.679C258.254 191.983 257.845 191.814 257.544 191.513C257.243 191.212 257.074 190.804 257.074 190.378C257.074 189.952 257.243 189.544 257.544 189.243C257.845 188.942 258.254 188.773 258.679 188.773H328.764C329.19 188.773 329.598 188.942 329.899 189.243C330.2 189.544 330.369 189.952 330.369 190.378C330.369 190.804 330.2 191.212 329.899 191.513C329.598 191.814 329.19 191.983 328.764 191.983Z" fill="#263238" stroke="#263238" stroke-width="0.75" stroke-linecap="round" stroke-linejoin="round"/>
<path d="M322.077 204.523H258.679C258.254 204.523 257.845 204.354 257.544 204.053C257.243 203.752 257.074 203.344 257.074 202.918C257.074 202.493 257.243 202.085 257.544 201.784C257.845 201.483 258.254 201.313 258.679 201.313H322.077C322.502 201.313 322.911 201.483 323.212 201.784C323.513 202.085 323.682 202.493 323.682 202.918C323.682 203.344 323.513 203.752 323.212 204.053C322.911 204.354 322.502 204.523 322.077 204.523Z" fill="#263238" stroke="#263238" stroke-width="0.75" stroke-linecap="round" stroke-linejoin="round"/>
<path d="M312.982 217.075H258.679C258.254 217.075 257.845 216.906 257.544 216.605C257.243 216.304 257.074 215.895 257.074 215.47C257.074 215.044 257.243 214.636 257.544 214.335C257.845 214.034 258.254 213.865 258.679 213.865H312.982C313.407 213.865 313.816 214.034 314.117 214.335C314.418 214.636 314.587 215.044 314.587 215.47C314.587 215.895 314.418 216.304 314.117 216.605C313.816 216.906 313.407 217.075 312.982 217.075Z" fill="#263238" stroke="#263238" stroke-width="0.75" stroke-linecap="round" stroke-linejoin="round"/>
<path d="M299.872 49.0738H196.082C195.656 49.0738 195.248 48.9047 194.947 48.6037C194.646 48.3027 194.477 47.8944 194.477 47.4688C194.477 47.0431 194.646 46.6349 194.947 46.3339C195.248 46.0329 195.656 45.8638 196.082 45.8638H299.872C300.297 45.8638 300.705 46.0329 301.006 46.3339C301.307 46.6349 301.477 47.0431 301.477 47.4688C301.477 47.8944 301.307 48.3027 301.006 48.6037C300.705 48.9047 300.297 49.0738 299.872 49.0738Z" fill="#263238" stroke="#263238" stroke-width="0.75" stroke-linecap="round" stroke-linejoin="round"/>
<path d="M247.979 270.564C257.434 270.564 265.099 262.899 265.099 253.444C265.099 243.989 257.434 236.324 247.979 236.324C238.524 236.324 230.859 243.989 230.859 253.444C230.859 262.899 238.524 270.564 247.979 270.564Z" fill="#0A2B51" stroke="#263238" stroke-width="0.75" stroke-linecap="round" stroke-linejoin="round"/>
<path d="M196.62 270.564C206.075 270.564 213.74 262.899 213.74 253.444C213.74 243.989 206.075 236.324 196.62 236.324C187.165 236.324 179.5 243.989 179.5 253.444C179.5 262.899 187.165 270.564 196.62 270.564Z" fill="#0A2B51" stroke="#263238" stroke-linecap="round" stroke-linejoin="round"/>
<path d="M299.339 270.564C308.794 270.564 316.459 262.899 316.459 253.444C316.459 243.989 308.794 236.324 299.339 236.324C289.884 236.324 282.219 243.989 282.219 253.444C282.219 262.899 289.884 270.564 299.339 270.564Z" fill="#0A2B51" stroke="#263238" stroke-linecap="round" stroke-linejoin="round"/>
<path d="M293.047 176.874H264.328V137.338H285.247L293.047 145.127V176.874Z" fill="white" stroke="#263238" stroke-linecap="round" stroke-linejoin="round"/>
<path d="M285.246 137.338V138.408V146.208H293.046V145.127L285.246 137.338Z" fill="#263238" stroke="#263238" stroke-width="0.75" stroke-linecap="round" stroke-linejoin="round"/>
<path d="M285.246 145.138H293.046L285.246 137.338V145.138Z" fill="white" stroke="#263238" stroke-linecap="round" stroke-linejoin="round"/>
<path d="M277.534 147.3H282.178L285.73 169.106H282.295L281.675 164.773V164.837H277.78L277.159 169.117H273.949L277.534 147.3ZM281.3 161.852L279.781 151.077H279.717L278.219 161.852H281.3Z" fill="#0A2B51" stroke="#0A2B51" stroke-width="0.5" stroke-linecap="round" stroke-linejoin="round"/>
<path d="M275.393 146.229H280.037L283.589 168.036H280.155L279.534 163.703V163.767H275.639L275.019 168.047H271.809L275.393 146.229ZM279.159 160.781L277.64 150.007H277.576L276.078 160.781H279.159Z" fill="white" stroke="#263238" stroke-width="0.75" stroke-linecap="round" stroke-linejoin="round"/>
<path d="M378.594 247.998L397.854 320.758C397.854 320.758 398.121 328.783 401.866 334.935L407.12 396.225C407.12 396.225 411.132 402.377 425.577 396.225C425.577 396.225 426.209 352.355 420.859 325.038L416.311 273.057C417.336 264.891 417.065 256.614 415.509 248.533L378.594 247.998Z" fill="#263238"/>
<mask id="mask2_871_2" style="mask-type:luminance" maskUnits="userSpaceOnUse" x="378" y="247" width="48" height="152">
<path d="M378.594 247.998L397.854 320.758C397.854 320.758 398.121 328.783 401.866 334.935L407.12 396.225C407.12 396.225 411.132 402.377 425.577 396.225C425.577 396.225 426.209 352.355 420.859 325.038L416.311 273.057C417.336 264.891 417.065 256.614 415.509 248.533L378.594 247.998Z" fill="white"/>
</mask>
<g mask="url(#mask2_871_2)">
<path opacity="0.5" d="M410.15 255.006C407.528 255.926 404.65 256.482 402.093 257.146C401.935 257.192 401.774 257.227 401.611 257.253C399.407 262.603 397.203 267.953 394.731 273.239C391.821 279.445 388.097 287.256 387.969 294.639C388.949 294.753 389.866 295.184 390.58 295.865C391.294 296.547 391.767 297.442 391.928 298.416C392.195 300.145 392.552 301.86 392.998 303.552C393.64 305.531 394.421 307.382 394.913 309.437C395.041 309.972 395.17 310.507 395.288 311.031C395.009 299.432 394.303 288.144 402.082 277.989C407.742 270.671 409.593 261.501 410.15 255.006Z" fill="black"/>
</g>
<path d="M378.594 247.998L397.854 320.758C397.854 320.758 398.121 328.783 401.866 334.935L407.12 396.225C407.12 396.225 411.132 402.377 425.577 396.225C425.577 396.225 426.209 352.355 420.859 325.038L416.311 273.057C417.336 264.891 417.065 256.614 415.509 248.533L378.594 247.998Z" stroke="#263238" stroke-width="0.75" stroke-linecap="round" stroke-linejoin="round"/>
<path d="M408.231 396.192C408.231 396.192 398.954 400.472 395.627 400.472C393.348 400.472 389.089 398.172 387.067 403.511C387.067 403.511 384.649 408.23 399.308 409.931C408.627 410.852 418.01 410.92 427.342 410.135C427.627 410.112 427.904 410.031 428.155 409.894C428.407 409.757 428.626 409.569 428.8 409.342C428.974 409.115 429.098 408.854 429.163 408.575C429.229 408.297 429.236 408.008 429.182 407.727L429 406.775C429 406.775 428.636 399.755 424.271 396.235L408.231 396.192Z" fill="#0A2B51" stroke="#263238" stroke-linecap="round" stroke-linejoin="round"/>
<path d="M396.643 407.224C387.109 405.362 387.356 402.741 387.356 402.741C387.238 402.976 387.131 403.212 387.024 403.479C387.024 403.479 384.606 408.198 399.265 409.899C408.584 410.819 417.967 410.887 427.299 410.102C427.584 410.08 427.861 409.998 428.112 409.862C428.364 409.725 428.583 409.537 428.757 409.31C428.931 409.083 429.055 408.822 429.12 408.543C429.186 408.265 429.193 407.976 429.139 407.695L429.064 407.342L420.365 408.123C420.365 408.123 406.166 409.075 396.643 407.224Z" fill="white" stroke="#263238" stroke-width="0.75" stroke-linecap="round" stroke-linejoin="round"/>
<path d="M408.027 322.78C409.359 324.208 411.011 325.301 412.846 325.969C414.682 326.637 416.65 326.86 418.588 326.621" stroke="#7F7F7F" stroke-width="0.75" stroke-linecap="round" stroke-linejoin="round"/>
<path d="M360.147 245.023C360.147 245.023 355.332 257.595 364.159 311.363C364.159 311.363 362.554 316.445 365.764 326.61L370.044 361.118V395.358C370.044 395.358 372.987 402.58 390.374 395.358C390.374 395.358 390.909 334.635 389.037 321.795L393.135 282.612C393.335 280.788 393.915 279.027 394.836 277.44C395.757 275.854 397 274.477 398.485 273.399C402.305 270.585 407.205 264.69 408.008 252.738L360.147 245.023Z" fill="#263238" stroke="#263238" stroke-width="0.75" stroke-linecap="round" stroke-linejoin="round"/>
<path d="M371.242 394.694C371.242 394.694 361.002 399.402 357.332 399.37C354.817 399.37 350.109 396.834 347.841 402.719C347.841 402.719 345.166 407.93 361.344 409.803C371.634 410.818 381.995 410.897 392.299 410.038C392.614 410.012 392.919 409.921 393.195 409.769C393.471 409.617 393.712 409.408 393.902 409.157C394.092 408.905 394.227 408.616 394.297 408.309C394.368 408.002 394.372 407.683 394.311 407.374L394.118 406.304C394.118 406.304 393.712 398.546 388.897 394.673L371.242 394.694Z" fill="#0A2B51" stroke="#263238" stroke-linecap="round" stroke-linejoin="round"/>
<path d="M358.445 406.86C347.927 404.817 348.205 401.928 348.205 401.928C348.067 402.191 347.945 402.463 347.841 402.741C347.841 402.741 345.166 407.952 361.344 409.824C371.634 410.84 381.995 410.919 392.299 410.06C392.614 410.034 392.919 409.942 393.195 409.79C393.471 409.639 393.712 409.43 393.902 409.178C394.092 408.927 394.227 408.638 394.297 408.331C394.368 408.023 394.372 407.705 394.311 407.395L394.236 407.01L384.606 407.866C384.606 407.866 368.973 408.915 358.445 406.86Z" fill="white" stroke="#263238" stroke-width="0.75" stroke-linecap="round" stroke-linejoin="round"/>
<path d="M373.523 319.12C373.523 319.12 377.718 324.149 386.096 323.464" stroke="#7F7F7F" stroke-width="0.75" stroke-linecap="round" stroke-linejoin="round"/>
<path d="M381.238 109.668C381.238 109.668 372.581 113.552 371.918 109.668C374.015 108.856 375.837 107.464 377.172 105.655C379.312 102.713 390.012 103.515 390.012 103.515C390.012 103.515 408.876 101.75 406.468 111.401C406.468 111.401 413.958 118.474 407.538 128.778C401.118 139.082 397.416 142.528 397.416 142.528L390.996 141.458L382.072 114.312L381.238 109.668Z" fill="#263238" stroke="#263238" stroke-width="0.75" stroke-linecap="round" stroke-linejoin="round"/>
<path d="M382.554 149.579V145.523C382.554 145.523 375.609 146.593 374.657 144.806C373.705 143.02 375.256 135.594 375.256 135.594C375.256 135.594 371.918 135.712 371.918 134.16C371.918 132.609 375.856 126.039 375.856 126.039C375.856 126.039 375.385 120.774 375.856 119.105C376.326 117.436 381.206 107.988 381.206 107.988C381.206 107.988 388.375 111.925 388.139 114.076C387.904 116.227 385.871 118.26 387.54 120.057C389.209 121.855 391.488 126.691 390.75 128.992L391.82 129.741C391.82 129.741 392.419 125.461 394.816 124.723C397.213 123.984 399.096 128.778 397.437 132.127C395.779 135.476 393.853 134.877 393.853 134.877C393.853 134.877 394.816 140.623 397.32 142.527L398.079 148.509L382.554 149.579Z" fill="white"/>
<mask id="mask3_871_2" style="mask-type:luminance" maskUnits="userSpaceOnUse" x="371" y="107" width="28" height="43">
<path d="M382.554 149.579V145.523C382.554 145.523 375.609 146.593 374.657 144.806C373.705 143.02 375.256 135.594 375.256 135.594C375.256 135.594 371.918 135.712 371.918 134.16C371.918 132.609 375.856 126.039 375.856 126.039C375.856 126.039 375.385 120.774 375.856 119.105C376.326 117.436 381.206 107.988 381.206 107.988C381.206 107.988 388.375 111.925 388.139 114.076C387.904 116.227 385.871 118.26 387.54 120.057C389.209 121.855 391.488 126.691 390.75 128.992L391.82 129.741C391.82 129.741 392.419 125.461 394.816 124.723C397.213 123.984 399.096 128.778 397.437 132.127C395.779 135.476 393.853 134.877 393.853 134.877C393.853 134.877 394.816 140.623 397.32 142.527L398.079 148.509L382.554 149.579Z" fill="white"/>
</mask>
<g mask="url(#mask3_871_2)">
<path d="M374.658 144.807C374.658 144.807 378.2 145.695 385.957 142.527C393.715 139.36 393.907 134.877 393.907 134.877L394.25 135.487C394.25 135.487 393.586 142.527 382.555 145.523C373.652 147.931 373.652 146.187 373.652 146.187L374.658 144.807Z" fill="#263238" stroke="#263238" stroke-width="0.5" stroke-linecap="round" stroke-linejoin="round"/>
</g>
<path d="M382.554 149.579V145.523C382.554 145.523 375.609 146.593 374.657 144.806C373.705 143.02 375.256 135.594 375.256 135.594C375.256 135.594 371.918 135.712 371.918 134.16C371.918 132.609 375.856 126.039 375.856 126.039C375.856 126.039 375.385 120.774 375.856 119.105C376.326 117.436 381.206 107.988 381.206 107.988C381.206 107.988 388.375 111.925 388.139 114.076C387.904 116.227 385.871 118.26 387.54 120.057C389.209 121.855 391.488 126.691 390.75 128.992L391.82 129.741C391.82 129.741 392.419 125.461 394.816 124.723C397.213 123.984 399.096 128.778 397.437 132.127C395.779 135.476 393.853 134.877 393.853 134.877C393.853 134.877 394.816 140.623 397.32 142.527L398.079 148.509L382.554 149.579Z" stroke="#263238" stroke-linecap="round" stroke-linejoin="round"/>
<path d="M382.198 135.594C382.198 135.594 380.989 139.456 377.137 137.381" stroke="#263238" stroke-width="0.75" stroke-linecap="round" stroke-linejoin="round"/>
<path d="M377.953 120.657C378.665 120.568 379.386 120.734 379.987 121.126C380.588 121.518 381.031 122.109 381.238 122.797" stroke="#263238" stroke-width="0.75" stroke-linecap="round" stroke-linejoin="round"/>
<path d="M377.172 124.723C377.172 125.515 377.525 126.157 377.953 126.157C378.381 126.157 378.723 125.515 378.723 124.723C378.723 123.931 378.381 123.289 377.953 123.289C377.525 123.289 377.172 123.931 377.172 124.723Z" fill="#2E353A"/>
<path d="M422.333 172.905C422.333 172.905 442.535 214.496 438.255 220.937C433.975 227.379 415.517 248.5 415.517 248.5L408.027 239.94L423.007 214.517L415.25 198.745C415.25 198.745 411.772 186.376 422.333 172.905Z" fill="#0A2B51"/>
<mask id="mask4_871_2" style="mask-type:luminance" maskUnits="userSpaceOnUse" x="408" y="172" width="31" height="77">
<path d="M422.333 172.905C422.333 172.905 442.535 214.496 438.255 220.937C433.975 227.379 415.517 248.5 415.517 248.5L408.027 239.94L423.007 214.517L415.25 198.745C415.25 198.745 411.772 186.376 422.333 172.905Z" fill="white"/>
</mask>
<g mask="url(#mask4_871_2)">
<path opacity="0.2" d="M423.244 201.153C424.4 194.733 423.501 182.963 423.244 180.352C422.117 188.285 420.527 196.145 418.483 203.892C418.394 204.26 418.268 204.619 418.108 204.962C420.034 207.979 422.314 210.836 421.982 214.656C421.65 218.476 417.927 223.452 415.754 226.662C415.507 227.027 415.22 227.364 414.898 227.667C415.07 227.984 415.21 228.318 415.316 228.663C416.215 231.712 416.075 234.847 416.097 237.982C418.708 222.082 428.209 217.117 429.033 213.522C430.028 209.156 421.939 208.375 423.244 201.153Z" fill="black"/>
</g>
<path d="M422.333 172.905C422.333 172.905 442.535 214.496 438.255 220.937C433.975 227.379 415.517 248.5 415.517 248.5L408.027 239.94L423.007 214.517L415.25 198.745C415.25 198.745 411.772 186.376 422.333 172.905Z" stroke="#263238" stroke-linecap="round" stroke-linejoin="round"/>
<path d="M425.609 213.929C427.879 213.307 430.274 213.307 432.543 213.929" stroke="#263238" stroke-width="0.75" stroke-linecap="round" stroke-linejoin="round"/>
<path d="M377.801 155.678L382.616 147.803C382.616 147.803 395.991 142.335 402.678 147.803L406.423 158.353L377.801 155.678Z" fill="#0A2B51" stroke="#263238" stroke-linecap="round" stroke-linejoin="round"/>
<path d="M358.543 247.527L362.534 214.71L360.918 165.49C360.835 163.335 361.478 161.215 362.743 159.469C364.007 157.723 365.822 156.452 367.895 155.86C381.484 151.922 410.577 147.086 422.336 172.916C423.328 175.072 423.645 177.478 423.246 179.817L415.253 225.774L417.393 250.844C417.393 250.844 391.349 269.997 358.543 247.527Z" fill="#0A2B51"/>
<mask id="mask5_871_2" style="mask-type:luminance" maskUnits="userSpaceOnUse" x="358" y="152" width="66" height="107">
<path d="M358.543 247.527L362.534 214.71L360.918 165.49C360.835 163.335 361.478 161.215 362.743 159.469C364.007 157.723 365.822 156.452 367.895 155.86C381.484 151.922 410.577 147.086 422.336 172.916C423.328 175.072 423.645 177.478 423.246 179.817L415.253 225.774L417.393 250.844C417.393 250.844 391.349 269.997 358.543 247.527Z" fill="white"/>
</mask>
<g mask="url(#mask5_871_2)">
<path opacity="0.2" d="M392.108 245.023C391.444 235.393 408.832 231.648 408.029 227.678C407.227 223.708 394.922 225.763 394.922 221.847C394.922 217.931 362.362 209.477 369.809 191.255C371.895 186.445 373.019 181.272 373.115 176.029C369.62 180.523 365.677 184.65 361.345 188.345C361.617 189.128 361.708 189.962 361.613 190.785C361.613 190.902 361.709 191.02 361.741 191.138C362.374 193.874 362.432 196.713 361.912 199.473C361.955 200.028 361.923 200.586 361.816 201.131C362.227 204.281 362.384 207.458 362.287 210.633C362.287 210.89 362.351 211.147 362.405 211.403C362.55 212.217 362.521 213.052 362.319 213.854C362.732 214.927 362.762 216.11 362.405 217.203C362.212 217.813 362.009 218.423 361.805 219.033C361.88 219.33 361.923 219.635 361.934 219.942C362.126 224.789 361.089 229.572 360.265 234.291C359.494 238.688 359.344 243.193 358.531 247.58C359.094 247.844 359.605 248.207 360.04 248.65C362.843 251.475 367.947 253.315 371.628 254.728C375.921 256.32 380.362 257.481 384.885 258.195C394.088 259.813 403.568 258.227 411.742 253.701C408.436 253.797 392.707 253.658 392.108 245.023Z" fill="black"/>
</g>
<path d="M358.543 247.527L362.534 214.71L360.918 165.49C360.835 163.335 361.478 161.215 362.743 159.469C364.007 157.723 365.822 156.452 367.895 155.86C381.484 151.922 410.577 147.086 422.336 172.916C423.328 175.072 423.645 177.478 423.246 179.817L415.253 225.774L417.393 250.844C417.393 250.844 391.349 269.997 358.543 247.527Z" stroke="#263238" stroke-linecap="round" stroke-linejoin="round"/>
<path d="M412.309 226.833C412.309 226.833 372.184 235.393 370.044 226.833C367.904 218.273 381.279 223.623 392.107 222.285" stroke="#263238" stroke-width="0.75" stroke-linecap="round" stroke-linejoin="round"/>
<path d="M312.971 176.19L300.131 171.535C300.131 171.535 296.761 162.74 294.342 160.921C291.924 159.102 288.992 155.571 288.201 156.919C287.634 157.871 289.11 160.407 291.165 162.173C293.39 164.088 292.427 166.517 291.967 167.523C291.507 168.528 287.933 170.176 285.044 171.193C282.155 172.209 275.414 169.695 273.691 171.439C271.969 173.183 276.399 173.771 276.399 173.771C276.399 173.771 273.103 174.007 272.803 175.911C272.632 177.056 275.917 176.339 277.554 176.168C279.191 175.997 282.551 175.783 282.551 175.783C282.551 175.783 276.859 177.763 277.276 179.346C277.693 180.93 281.674 178.522 284.98 177.955C284.98 177.955 280.539 180.159 281.128 181.636C281.716 183.113 283.846 180.983 287.655 179.496L295.637 177.666L308.616 184.75L312.971 176.19Z" fill="white" stroke="#263238" stroke-linecap="round" stroke-linejoin="round"/>
<path d="M277.617 173.75C279.427 174.162 281.284 174.328 283.138 174.242" stroke="#263238" stroke-width="0.75" stroke-linecap="round" stroke-linejoin="round"/>
<path d="M366.522 156.93C366.102 156.765 365.641 156.729 365.201 156.829C364.76 156.928 364.359 157.157 364.05 157.486L341.099 181.925L303.467 171.535L299.305 182.021C299.305 182.021 327.852 197.996 342.362 197.119C353.372 196.445 366.832 184.6 372.685 178.929C373.653 177.983 374.375 176.815 374.789 175.527C375.203 174.238 375.296 172.868 375.061 171.535" fill="#0A2B51"/>
<path d="M366.522 156.93C366.102 156.765 365.641 156.729 365.201 156.829C364.76 156.928 364.359 157.157 364.05 157.486L341.099 181.925L303.467 171.535L299.305 182.021C299.305 182.021 327.852 197.996 342.362 197.119C353.372 196.445 366.832 184.6 372.685 178.929C373.653 177.983 374.375 176.815 374.789 175.527C375.203 174.238 375.296 172.868 375.061 171.535" stroke="#263238" stroke-linecap="round" stroke-linejoin="round"/>
<path d="M307.267 180.908C307.304 181.157 307.267 181.41 307.16 181.637C307.053 181.864 306.881 182.055 306.666 182.185C306.451 182.314 306.203 182.378 305.952 182.367C305.702 182.356 305.46 182.271 305.257 182.123C305.054 181.975 304.9 181.771 304.813 181.535C304.726 181.3 304.711 181.044 304.769 180.8C304.827 180.556 304.956 180.334 305.14 180.163C305.324 179.992 305.554 179.879 305.801 179.838C305.968 179.809 306.139 179.814 306.304 179.853C306.469 179.891 306.624 179.963 306.761 180.063C306.898 180.162 307.013 180.289 307.1 180.434C307.187 180.579 307.244 180.741 307.267 180.908Z" fill="white" stroke="#263238" stroke-width="0.75" stroke-linecap="round" stroke-linejoin="round"/>
<path d="M340.727 189.169C341.946 186.012 340.277 183.412 341.989 183.113C343.701 182.813 343.83 188.227 346.665 188.152" stroke="#263238" stroke-width="0.75" stroke-linecap="round" stroke-linejoin="round"/>
<path d="M208.537 403.64L181.531 400.601V339.504L195.387 331.179V328.13H158.247V331.158L172.157 339.461V400.601L145.151 403.64C143.938 403.777 142.818 404.355 142.005 405.265C141.192 406.175 140.742 407.352 140.742 408.572V411.076H213.021V408.572C213.019 407.341 212.558 406.154 211.73 405.242C210.901 404.33 209.763 403.759 208.537 403.64Z" fill="white" stroke="#263238" stroke-width="0.75" stroke-linecap="round" stroke-linejoin="round"/>
<path d="M150.18 292.328H142.797V325.861H150.18V292.328Z" fill="white" stroke="#263238" stroke-width="0.75" stroke-linecap="round" stroke-linejoin="round"/>
<path d="M216.061 318.917H137.598C135.039 318.917 132.965 320.991 132.965 323.55V328.172C132.965 330.731 135.039 332.806 137.598 332.806H216.061C218.62 332.806 220.694 330.731 220.694 328.172V323.55C220.694 320.991 218.62 318.917 216.061 318.917Z" fill="#263238" stroke="#263238" stroke-linecap="round" stroke-linejoin="round"/>
<path d="M161.961 258.055H131.027C126.111 258.055 122.125 262.041 122.125 266.958V286.485C122.125 291.402 126.111 295.387 131.027 295.387H161.961C166.878 295.387 170.863 291.402 170.863 286.485V266.958C170.863 262.041 166.878 258.055 161.961 258.055Z" fill="#263238"/>
<mask id="mask6_871_2" style="mask-type:luminance" maskUnits="userSpaceOnUse" x="122" y="258" width="49" height="38">
<path d="M161.961 258.055H131.027C126.111 258.055 122.125 262.041 122.125 266.958V286.485C122.125 291.402 126.111 295.387 131.027 295.387H161.961C166.878 295.387 170.863 291.402 170.863 286.485V266.958C170.863 262.041 166.878 258.055 161.961 258.055Z" fill="white"/>
</mask>
<g mask="url(#mask6_871_2)">
<path opacity="0.5" d="M170.094 258.055H139.16C134.244 258.055 130.258 262.041 130.258 266.958V286.485C130.258 291.402 134.244 295.387 139.16 295.387H170.094C175.011 295.387 178.996 291.402 178.996 286.485V266.958C178.996 262.041 175.011 258.055 170.094 258.055Z" fill="black"/>
</g>
<path d="M161.961 258.055H131.027C126.111 258.055 122.125 262.041 122.125 266.958V286.485C122.125 291.402 126.111 295.387 131.027 295.387H161.961C166.878 295.387 170.863 291.402 170.863 286.485V266.958C170.863 262.041 166.878 258.055 161.961 258.055Z" stroke="#263238" stroke-linecap="round" stroke-linejoin="round"/>
<path d="M205.102 316.82C207.41 314.975 209.972 313.472 212.709 312.358" stroke="#263238" stroke-width="0.75" stroke-linecap="round" stroke-linejoin="round"/>
<path d="M209.692 309.822C209.692 309.822 201.934 316.178 203.507 317.13" stroke="#263238" stroke-width="0.75" stroke-linecap="round" stroke-linejoin="round"/>
<path d="M234.216 369.239L236.624 386.199C236.624 386.199 232.119 389.879 231.895 399.895L239.834 402.719L241.974 399.895L249.057 407.278C249.057 407.278 261.608 412.927 263.32 409.15C265.032 405.373 258.11 402.58 252.257 394.277C250.737 392.137 245.655 386.017 245.655 386.017L246.158 368.319L234.216 369.239Z" fill="#263238" stroke="#263238" stroke-width="0.75" stroke-linecap="round" stroke-linejoin="round"/>
<path d="M173.613 297.26C173.613 297.26 240.049 292.809 243.077 302.193C246.105 311.577 247.528 341.612 247.678 353.553C247.828 365.494 246.886 380.57 246.886 380.57C242.896 381.78 238.636 381.78 234.646 380.57C234.646 380.57 231.724 363.247 229.617 354.826C227.509 346.405 225.272 335.17 226.546 317.376C226.546 317.376 162.881 327.006 162.528 315.835C162.174 304.664 173.613 297.26 173.613 297.26Z" fill="white"/>
<mask id="mask7_871_2" style="mask-type:luminance" maskUnits="userSpaceOnUse" x="162" y="296" width="86" height="86">
<path d="M173.613 297.26C173.613 297.26 240.049 292.809 243.077 302.193C246.105 311.577 247.528 341.612 247.678 353.553C247.828 365.494 246.886 380.57 246.886 380.57C242.896 381.78 238.636 381.78 234.646 380.57C234.646 380.57 231.724 363.247 229.617 354.826C227.509 346.405 225.272 335.17 226.546 317.376C226.546 317.376 162.881 327.006 162.528 315.835C162.174 304.664 173.613 297.26 173.613 297.26Z" fill="white"/>
</mask>
<g mask="url(#mask7_871_2)">
<path opacity="0.5" d="M173.613 297.26C173.613 297.26 240.049 292.809 243.077 302.193C246.105 311.577 247.528 341.612 247.678 353.553C247.828 365.494 246.886 380.57 246.886 380.57C242.896 381.78 238.636 381.78 234.646 380.57C234.646 380.57 231.724 363.247 229.617 354.826C227.509 346.405 225.272 335.17 226.546 317.376C226.546 317.376 162.881 327.006 162.528 315.835C162.174 304.664 173.613 297.26 173.613 297.26Z" fill="#F5F5F5"/>
<path opacity="0.2" d="M220.414 300.406L221.57 300.919L222.03 301.101L222.308 301.23C222.802 301.438 223.272 301.7 223.71 302.011C228.471 304.333 230.718 308.57 229.06 313.973C229.051 314.275 229.023 314.575 228.974 314.872C228.233 318.672 227.158 322.399 225.764 326.011C226.191 326.748 226.368 327.604 226.267 328.45C226.096 329.809 225.957 331.158 225.85 332.516C226.347 333.687 226.502 334.974 226.299 336.229C226.178 337.044 226.121 337.867 226.128 338.69C226.524 341.665 226.909 344.64 227.465 347.582L228.107 350.043C228.107 349.465 228.107 348.845 228.043 348.149C226.802 323.742 230.568 333.661 232.227 316.82C233.543 304.151 224.822 301.123 220.414 300.406Z" fill="black"/>
</g>
<path d="M173.613 297.26C173.613 297.26 240.049 292.809 243.077 302.193C246.105 311.577 247.528 341.612 247.678 353.553C247.828 365.494 246.886 380.57 246.886 380.57C242.896 381.78 238.636 381.78 234.646 380.57C234.646 380.57 231.724 363.247 229.617 354.826C227.509 346.405 225.272 335.17 226.546 317.376C226.546 317.376 162.881 327.006 162.528 315.835C162.174 304.664 173.613 297.26 173.613 297.26Z" stroke="#263238" stroke-linecap="round" stroke-linejoin="round"/>
<path d="M233.682 311.331C233.682 311.331 232.997 314.412 228.695 317.397" stroke="#263238" stroke-width="0.75" stroke-linecap="round" stroke-linejoin="round"/>
<path d="M248.429 376.75L247.968 381.245C247.968 381.245 240.371 385.321 233.684 381.555L232.293 377.136C232.293 377.136 236.819 380.239 248.429 376.75Z" fill="#0A2B51"/>
<mask id="mask8_871_2" style="mask-type:luminance" maskUnits="userSpaceOnUse" x="232" y="376" width="17" height="8">
<path d="M248.429 376.75L247.968 381.245C247.968 381.245 240.371 385.321 233.684 381.555L232.293 377.136C232.293 377.136 236.819 380.239 248.429 376.75Z" fill="white"/>
</mask>
<g mask="url(#mask8_871_2)">
<path opacity="0.3" d="M248.429 376.75L247.968 381.245C247.968 381.245 240.371 385.321 233.684 381.555L232.293 377.136C232.293 377.136 236.819 380.239 248.429 376.75Z" fill="#0A2B51" stroke="#263238" stroke-width="0.75" stroke-miterlimit="10"/>
</g>
<path d="M248.429 376.75L247.968 381.245C247.968 381.245 240.371 385.321 233.684 381.555L232.293 377.136C232.293 377.136 236.819 380.239 248.429 376.75Z" stroke="#263238" stroke-width="0.75" stroke-linecap="round" stroke-linejoin="round"/>
<path d="M245.238 387.536C248.275 390.574 250.96 393.944 253.242 397.583" stroke="#7F7F7F" stroke-linecap="round" stroke-linejoin="round"/>
<path d="M185.93 357.394L178.515 372.834C178.515 372.834 172.726 373.391 166.98 381.597L172.02 388.349L175.369 387.194L177.167 397.273C177.167 397.273 184.464 408.936 187.985 406.742C191.505 404.549 187.31 398.386 187.054 388.231C186.979 385.589 186.144 377.692 186.144 377.692L196.395 363.258L185.93 357.394Z" fill="#263238" stroke="#263238" stroke-width="0.75" stroke-linecap="round" stroke-linejoin="round"/>
<path d="M150.759 299.764C150.759 299.764 141.332 318.596 153.38 320.265C165.429 321.934 202.258 319.794 202.258 319.794C197.644 327.196 193.553 334.912 190.017 342.885C185.245 354.163 180.484 365.772 180.484 365.772C180.484 365.772 182.549 371.336 190.97 372.449C190.97 372.449 197.807 361.749 212.744 345.11C227.681 328.472 231.822 311.726 228.644 306.002C225.466 300.277 208.935 297.185 182.228 295.955L150.759 299.764Z" fill="white"/>
<mask id="mask9_871_2" style="mask-type:luminance" maskUnits="userSpaceOnUse" x="147" y="295" width="83" height="78">
<path d="M150.759 299.764C150.759 299.764 141.332 318.596 153.38 320.265C165.429 321.934 202.258 319.794 202.258 319.794C197.644 327.196 193.553 334.912 190.017 342.885C185.245 354.163 180.484 365.772 180.484 365.772C180.484 365.772 182.549 371.336 190.97 372.449C190.97 372.449 197.807 361.749 212.744 345.11C227.681 328.472 231.822 311.726 228.644 306.002C225.466 300.277 208.935 297.185 182.228 295.955L150.759 299.764Z" fill="white"/>
</mask>
<g mask="url(#mask9_871_2)">
<path opacity="0.5" d="M150.759 299.764C150.759 299.764 141.332 318.596 153.38 320.265C165.429 321.934 202.258 319.794 202.258 319.794C197.644 327.196 193.553 334.912 190.017 342.885C185.245 354.163 180.484 365.772 180.484 365.772C180.484 365.772 182.549 371.336 190.97 372.449C190.97 372.449 197.807 361.749 212.744 345.11C227.681 328.472 231.822 311.726 228.644 306.002C225.466 300.277 208.935 297.185 182.228 295.955L150.759 299.764Z" fill="#F5F5F5"/>
</g>
<path d="M150.759 299.764C150.759 299.764 141.332 318.596 153.38 320.265C165.429 321.934 202.258 319.794 202.258 319.794C197.644 327.196 193.553 334.912 190.017 342.885C185.245 354.163 180.484 365.772 180.484 365.772C180.484 365.772 182.549 371.336 190.97 372.449C190.97 372.449 197.807 361.749 212.744 345.11C227.681 328.472 231.822 311.726 228.644 306.002C225.466 300.277 208.935 297.185 182.228 295.955L150.759 299.764Z" stroke="#263238" stroke-linecap="round" stroke-linejoin="round"/>
<path d="M193.793 370.855L190.936 374.354C190.936 374.354 182.376 373.562 178.855 366.725L180.129 362.273C180.129 362.273 182.194 367.356 193.793 370.855Z" fill="#0A2B51"/>
<mask id="mask10_871_2" style="mask-type:luminance" maskUnits="userSpaceOnUse" x="178" y="362" width="16" height="13">
<path d="M193.793 370.855L190.936 374.354C190.936 374.354 182.376 373.562 178.855 366.725L180.129 362.273C180.129 362.273 182.194 367.356 193.793 370.855Z" fill="white"/>
</mask>
<g mask="url(#mask10_871_2)">
<path opacity="0.3" d="M193.793 370.855L190.936 374.354C190.936 374.354 182.376 373.562 178.855 366.725L180.129 362.273C180.129 362.273 182.194 367.356 193.793 370.855Z" fill="#0A2B51" stroke="#263238" stroke-width="0.75" stroke-miterlimit="10"/>
</g>
<path d="M193.793 370.855L190.936 374.354C190.936 374.354 182.376 373.562 178.855 366.725L180.129 362.273C180.129 362.273 182.194 367.356 193.793 370.855Z" stroke="#263238" stroke-width="0.75" stroke-linecap="round" stroke-linejoin="round"/>
<path d="M184.676 379.147C185.104 381.48 185.906 386.231 186.324 391.356" stroke="#7F7F7F" stroke-linecap="round" stroke-linejoin="round"/>
<path d="M181.242 187.125C181.242 187.125 189.427 183.059 180.803 177.634C172.179 172.209 157.103 187.125 157.103 187.125L155.637 194.091C155.637 194.091 156.268 199.644 158.269 202.865C159.874 205.465 162.731 205.476 164.079 208.054C166.144 211.97 165.459 214.752 167.589 213.04C172.853 208.76 174.554 191.844 174.554 191.844L181.242 187.125Z" fill="#263238" stroke="#263238" stroke-linecap="round" stroke-linejoin="round"/>
<path d="M178.087 220.541L179.51 212.195L168.746 202.918L165.707 216.893L178.087 220.541Z" fill="white"/>
<mask id="mask11_871_2" style="mask-type:luminance" maskUnits="userSpaceOnUse" x="165" y="202" width="15" height="19">
<path d="M178.087 220.541L179.51 212.195L168.746 202.918L165.707 216.893L178.087 220.541Z" fill="white"/>
</mask>
<g mask="url(#mask11_871_2)">
<path d="M167.695 203.892C167.695 203.892 168.573 208.707 171.194 211.735C173.816 214.763 180.653 218.359 180.653 218.359L181.242 212.623L170.542 204.47L168.744 202.94L167.695 203.892Z" fill="#263238" stroke="#263238" stroke-width="0.5" stroke-linecap="round" stroke-linejoin="round"/>
</g>
<path d="M178.087 220.541L179.51 212.195L168.746 202.918L165.707 216.893L178.087 220.541Z" stroke="#263238" stroke-linecap="round" stroke-linejoin="round"/>
<path d="M181.51 184.183C181.51 184.183 186.399 192.743 186.292 195.214C186.292 195.214 192.712 212.067 186.292 214.838C181.306 216.978 175.047 212.805 172.596 210.901C171.925 210.371 171.362 209.717 170.938 208.975L168.851 205.304C168.851 205.304 166.283 206.043 163.94 202.704C161.597 199.366 164.004 196.199 166.583 198.168C166.583 198.168 168.53 194.134 167.921 191.908C167.311 189.682 170.232 189.65 170.36 187.286C170.392 187.286 177.337 187.04 181.51 184.183Z" fill="white"/>
<path d="M181.51 184.183C181.51 184.183 186.399 192.743 186.292 195.214C186.292 195.214 192.712 212.067 186.292 214.838C181.306 216.978 175.047 212.805 172.596 210.901C171.925 210.371 171.362 209.717 170.938 208.975L168.851 205.304C168.851 205.304 166.283 206.043 163.94 202.704C161.597 199.366 164.004 196.199 166.583 198.168C166.583 198.168 168.53 194.134 167.921 191.908C167.311 189.682 170.232 189.65 170.36 187.286C170.392 187.286 177.337 187.04 181.51 184.183Z" stroke="#263238" stroke-linecap="round" stroke-linejoin="round"/>
<path d="M180.609 207.284C180.609 207.284 182.193 209.424 185.414 206.567" stroke="#263238" stroke-width="0.75" stroke-linecap="round" stroke-linejoin="round"/>
<path d="M183.274 197.301C183.862 199.612 183.177 201.774 181.744 202.137C180.31 202.501 178.673 200.939 178.084 198.638C177.496 196.338 178.437 195.428 179.871 195.075C181.305 194.722 182.685 195 183.274 197.301Z" stroke="#263238" stroke-width="0.75" stroke-linecap="round" stroke-linejoin="round"/>
<path d="M189.822 195.45C190.411 197.761 189.94 199.869 188.752 200.168C187.565 200.468 186.152 198.842 185.542 196.541C184.932 194.241 185.703 193.395 186.869 193.096C188.035 192.796 189.277 193.096 189.822 195.45Z" fill="white" stroke="#263238" stroke-width="0.75" stroke-linecap="round" stroke-linejoin="round"/>
<path d="M177.328 195.011C177.515 194.626 177.776 194.282 178.098 194C178.419 193.718 178.794 193.502 179.199 193.367C179.605 193.231 180.034 193.178 180.46 193.21C180.887 193.243 181.302 193.36 181.683 193.556" stroke="#263238" stroke-width="0.75" stroke-linecap="round" stroke-linejoin="round"/>
<path d="M184.41 192.625C184.486 192.271 184.65 191.942 184.888 191.668C185.126 191.395 185.429 191.187 185.769 191.062" stroke="#263238" stroke-width="0.75" stroke-linecap="round" stroke-linejoin="round"/>
<path d="M178.088 198.638L175.359 199.74L166.617 198.167" stroke="#263238" stroke-width="0.75" stroke-linecap="round" stroke-linejoin="round"/>
<path d="M185.499 196.103L183.316 196.991" stroke="#263238" stroke-width="0.75" stroke-linecap="round" stroke-linejoin="round"/>
<path d="M182.065 197.857C182.14 198.585 181.851 199.216 181.391 199.27C180.931 199.323 180.503 198.767 180.417 198.039C180.331 197.311 180.631 196.68 181.08 196.627C181.53 196.573 181.979 197.119 182.065 197.857Z" fill="#263238"/>
<path d="M187.406 195.92C187.491 196.637 187.299 197.237 186.967 197.279C186.635 197.322 186.314 196.766 186.239 196.06C186.165 195.353 186.346 194.743 186.667 194.711C186.988 194.679 187.32 195.214 187.406 195.92Z" fill="#263238"/>
<path d="M184.934 196.349L189.428 200.297C189.534 200.392 189.618 200.51 189.671 200.642C189.724 200.774 189.746 200.917 189.735 201.059C189.723 201.201 189.679 201.339 189.605 201.461C189.531 201.583 189.43 201.686 189.31 201.763L186.999 203.207" fill="white"/>
<path d="M184.934 196.349L189.428 200.297C189.534 200.392 189.618 200.51 189.671 200.642C189.724 200.774 189.746 200.917 189.735 201.059C189.723 201.201 189.679 201.339 189.605 201.461C189.531 201.583 189.43 201.686 189.31 201.763L186.999 203.207" stroke="#263238" stroke-width="0.75" stroke-linecap="round" stroke-linejoin="round"/>
<path d="M159.48 187.414C159.48 187.414 158.689 173.183 147.646 178.854C136.604 184.525 147.154 201.217 143.848 204.898C140.541 208.579 146.865 206.931 147.646 204.267C148.427 201.602 147.785 208.707 149.315 208.964C150.845 209.221 151.092 202.865 152.525 202.865C153.959 202.865 152.151 206.824 153.296 207.263C154.441 207.701 157.105 199.494 157.865 194.958C158.266 192.416 158.806 189.897 159.48 187.414Z" fill="#263238" stroke="#263238" stroke-linecap="round" stroke-linejoin="round"/>
<path d="M159.481 185.477C159.481 185.477 155.618 189.757 157.127 200.457C157.18 200.436 149.69 189.597 159.481 185.477Z" fill="#0A2B51" stroke="#263238" stroke-linecap="round" stroke-linejoin="round"/>
<path d="M168.629 187.125C168.629 187.125 172.909 188.313 173.497 191.844C174.086 195.375 176.076 183.733 168.629 187.125Z" fill="#263238" stroke="#263238" stroke-width="0.75" stroke-linecap="round" stroke-linejoin="round"/>
<path d="M182.859 186.366C182.859 186.366 187.514 184.964 188.905 188.013C188.873 188.013 188.209 180.662 182.859 186.366Z" fill="#263238" stroke="#263238" stroke-width="0.75" stroke-linecap="round" stroke-linejoin="round"/>
<path d="M219.603 183.305C220.545 183.048 221.518 184.268 221.518 184.268C222.524 182.556 224.129 185.402 224.129 185.402C225.477 183.754 226.162 187.36 226.162 187.36C226.162 187.36 227.585 187.029 227.414 188.837C227.189 191.212 224.429 196.648 224.429 196.648L222.631 205.85L215.901 205.058L218.041 196.231L216.029 192.357C215.29 190.801 214.924 189.094 214.959 187.371C215.28 185.178 218.662 183.551 219.603 183.305Z" fill="white" stroke="#263238" stroke-linecap="round" stroke-linejoin="round"/>
<path d="M219.613 185.509C219.613 185.509 221.625 189.714 221.379 185.509C221.379 185.509 222.845 190.72 223.776 186.483C223.776 186.483 223.208 191.351 225.188 188.623C225.188 188.623 224.353 190.078 224.728 190.763C225.102 191.448 226.162 190.324 226.162 190.324" fill="white"/>
<path d="M219.613 185.509C219.613 185.509 221.625 189.714 221.379 185.509C221.379 185.509 222.845 190.72 223.776 186.483C223.776 186.483 223.208 191.351 225.188 188.623C225.188 188.623 224.353 190.078 224.728 190.763C225.102 191.448 226.162 190.324 226.162 190.324" stroke="#263238" stroke-width="0.75" stroke-linecap="round" stroke-linejoin="round"/>
<path d="M186.765 223.526L208.315 223.976L216.404 201.506L223.52 204.01C223.52 204.01 219.871 232.461 216.222 234.152C212.574 235.842 190.35 238.25 190.35 238.25C190.35 238.25 183.437 230.621 186.765 223.526Z" fill="#0A2B51"/>
<mask id="mask12_871_2" style="mask-type:luminance" maskUnits="userSpaceOnUse" x="185" y="201" width="39" height="38">
<path d="M186.765 223.526L208.315 223.976L216.404 201.506L223.52 204.01C223.52 204.01 219.871 232.461 216.222 234.152C212.574 235.842 190.35 238.25 190.35 238.25C190.35 238.25 183.437 230.621 186.765 223.526Z" fill="white"/>
</mask>
<g mask="url(#mask12_871_2)">
<path opacity="0.2" d="M194.417 229.978C193.462 228.235 192.161 226.705 190.593 225.484C189.026 224.262 187.225 223.374 185.301 222.874C188.607 225.014 190.576 229.294 191.871 232.792C192.393 234.21 192.79 235.671 193.058 237.158C197.73 237.147 202.389 236.674 206.968 235.746C203.608 235.564 197.114 234.622 194.417 229.978Z" fill="black"/>
</g>
<path d="M186.765 223.526L208.315 223.976L216.404 201.506L223.52 204.01C223.52 204.01 219.871 232.461 216.222 234.152C212.574 235.842 190.35 238.25 190.35 238.25C190.35 238.25 183.437 230.621 186.765 223.526Z" stroke="#263238" stroke-linecap="round" stroke-linejoin="round"/>
<path d="M215.129 203.239L223.518 206.096L224.085 202.276L216.145 199.751L215.129 203.239Z" fill="#0A2B51" stroke="#263238" stroke-linecap="round" stroke-linejoin="round"/>
<path d="M226.898 193.021C226.128 193.198 225.332 193.222 224.553 193.091C223.774 192.96 223.029 192.677 222.36 192.257C221.692 191.838 221.112 191.29 220.655 190.647C220.198 190.003 219.872 189.275 219.697 188.505L211.383 152.179L223.153 149.493L231.424 185.82C231.6 186.59 231.622 187.387 231.49 188.165C231.357 188.944 231.073 189.689 230.653 190.358C230.232 191.026 229.684 191.606 229.04 192.063C228.396 192.52 227.668 192.845 226.898 193.021Z" fill="white" stroke="#263238" stroke-width="0.75" stroke-linecap="round" stroke-linejoin="round"/>
<path d="M221.364 151.743L213.812 153.471L215.044 158.853L222.596 157.125L221.364 151.743Z" fill="#0A2B51"/>
<mask id="mask13_871_2" style="mask-type:luminance" maskUnits="userSpaceOnUse" x="213" y="151" width="10" height="8">
<path d="M221.364 151.743L213.812 153.471L215.044 158.853L222.596 157.125L221.364 151.743Z" fill="white"/>
</mask>
<g mask="url(#mask13_871_2)">
<path opacity="0.7" d="M221.364 151.743L213.812 153.471L215.044 158.853L222.596 157.125L221.364 151.743Z" fill="#A1FFA1"/>
</g>
<path d="M222.895 158.403L215.344 160.131L216.575 165.513L224.127 163.785L222.895 158.403Z" fill="#0A2B51"/>
<mask id="mask14_871_2" style="mask-type:luminance" maskUnits="userSpaceOnUse" x="215" y="158" width="10" height="8">
<path d="M222.895 158.403L215.344 160.131L216.575 165.513L224.127 163.785L222.895 158.403Z" fill="white"/>
</mask>
<g mask="url(#mask14_871_2)">
<path opacity="0.3" d="M222.895 158.403L215.344 160.131L216.575 165.513L224.127 163.785L222.895 158.403Z" fill="#A1FFA1"/>
</g>
<path d="M224.419 165.076L216.867 166.804L218.099 172.186L225.65 170.458L224.419 165.076Z" fill="#A1FFA1"/>
<path d="M225.942 171.725L218.391 173.453L219.622 178.835L227.174 177.107L225.942 171.725Z" fill="#0A2B51"/>
<mask id="mask15_871_2" style="mask-type:luminance" maskUnits="userSpaceOnUse" x="218" y="171" width="10" height="8">
<path d="M225.942 171.725L218.391 173.453L219.622 178.835L227.174 177.107L225.942 171.725Z" fill="white"/>
</mask>
<g mask="url(#mask15_871_2)">
<path opacity="0.2" d="M225.942 171.725L218.391 173.453L219.622 178.835L227.174 177.107L225.942 171.725Z" fill="#A1FFA1"/>
</g>
<path d="M227.466 178.398L219.914 180.126L221.146 185.508L228.697 183.78L227.466 178.398Z" fill="#0A2B51"/>
<mask id="mask16_871_2" style="mask-type:luminance" maskUnits="userSpaceOnUse" x="219" y="178" width="10" height="8">
<path d="M227.466 178.397L219.914 180.125L221.146 185.508L228.697 183.779L227.466 178.397Z" fill="white"/>
</mask>
<g mask="url(#mask16_871_2)">
<path opacity="0.3" d="M227.466 178.397L219.914 180.125L221.146 185.508L228.697 183.779L227.466 178.397Z" fill="#A1FFA1"/>
</g>
<path d="M216.734 186.601C216.765 186.359 216.865 186.132 217.02 185.946C217.176 185.759 217.382 185.621 217.614 185.548C217.846 185.475 218.094 185.47 218.329 185.533C218.563 185.596 218.775 185.725 218.939 185.905C220.672 187.178 223.219 187.596 222.93 188.387C222.641 189.179 221.977 189.661 219.495 188.655C219.495 188.655 219.056 188.922 219.677 189.725C220.511 190.598 221.082 191.688 221.325 192.871" fill="white"/>
<path d="M216.734 186.601C216.765 186.359 216.865 186.132 217.02 185.946C217.176 185.759 217.382 185.621 217.614 185.548C217.846 185.475 218.094 185.47 218.329 185.533C218.563 185.596 218.775 185.725 218.939 185.905C220.672 187.178 223.219 187.596 222.93 188.387C222.641 189.179 221.977 189.661 219.495 188.655C219.495 188.655 219.056 188.922 219.677 189.725C220.511 190.598 221.082 191.688 221.325 192.871" stroke="#263238" stroke-width="0.75" stroke-linecap="round" stroke-linejoin="round"/>
<path d="M146.65 223.997L153.38 284.174L149.1 302.268C149.1 302.268 153.605 303.284 166.091 299.357C178.578 295.43 191.943 296.607 191.943 296.607C191.943 296.607 197.475 256.546 195.26 244.027C194.001 236.647 191.106 229.641 186.785 223.526C186.785 223.526 162.807 213.04 148.158 221.055C147.643 221.34 147.224 221.772 146.955 222.296C146.687 222.82 146.58 223.412 146.65 223.997Z" fill="#0A2B51"/>
<mask id="mask17_871_2" style="mask-type:luminance" maskUnits="userSpaceOnUse" x="146" y="218" width="50" height="85">
<path d="M146.65 223.997L153.38 284.174L149.1 302.268C149.1 302.268 153.605 303.284 166.091 299.357C178.578 295.43 191.943 296.607 191.943 296.607C191.943 296.607 197.475 256.546 195.26 244.027C194.001 236.647 191.106 229.641 186.785 223.526C186.785 223.526 162.807 213.04 148.158 221.055C147.643 221.34 147.224 221.772 146.955 222.296C146.687 222.82 146.58 223.412 146.65 223.997Z" fill="white"/>
</mask>
<g mask="url(#mask17_871_2)">
<path opacity="0.12" d="M159.479 258.783C159.982 251.293 156.644 238.977 156.644 238.977L154.151 239.309C153.653 246.557 153.717 253.834 154.343 261.073C154.6 263.972 156.13 266.99 156.034 269.868C155.948 272.425 154.482 274.148 153.241 276.288C153.027 276.652 152.835 277.016 152.621 277.358C153.232 278.309 153.472 279.451 153.295 280.568C153.155 281.927 152.931 283.264 152.685 284.591C152.762 285.26 152.719 285.938 152.556 286.592C151.807 289.738 151.144 292.852 150.566 296.029C150.002 298.142 149.562 300.285 149.25 302.449C153.961 302.309 158.644 301.678 163.224 300.566C165.105 300.112 166.931 299.455 168.671 298.608C151.347 301.165 157.286 289.963 157.81 285.308C158.334 280.654 175.058 274.972 175.893 269.889C176.728 264.807 158.966 266.241 159.479 258.783Z" fill="black"/>
</g>
<path d="M146.65 223.997L153.38 284.174L149.1 302.268C149.1 302.268 153.605 303.284 166.091 299.357C178.578 295.43 191.943 296.607 191.943 296.607C191.943 296.607 197.475 256.546 195.26 244.027C194.001 236.647 191.106 229.641 186.785 223.526C186.785 223.526 162.807 213.04 148.158 221.055C147.643 221.34 147.224 221.772 146.955 222.296C146.687 222.82 146.58 223.412 146.65 223.997Z" stroke="#263238" stroke-linecap="round" stroke-linejoin="round"/>
<path d="M161.82 218.359L164.977 212.195C168.61 213.422 172.307 214.451 176.051 215.277C182.118 216.604 180.652 218.359 180.652 218.359L179.101 223.034C179.101 223.034 176.715 225.41 161.82 218.359Z" fill="#0A2B51" stroke="#263238" stroke-linecap="round" stroke-linejoin="round"/>
<path d="M150.094 265C150.094 265 153.528 262.293 154.374 263.448C155.219 264.604 153.411 264.219 152.052 268.156" stroke="#263238" stroke-linecap="round" stroke-linejoin="round"/>
<path d="M180.89 293.526C180.651 292.272 180.919 290.974 181.635 289.918C182.351 288.861 183.457 288.131 184.71 287.887L213.985 282.259L215.804 291.707L186.529 297.335C185.276 297.577 183.978 297.311 182.921 296.597C181.864 295.883 181.133 294.778 180.89 293.526Z" fill="white" stroke="#263238" stroke-width="0.75" stroke-linecap="round" stroke-linejoin="round"/>
<path d="M214.051 290.247L212.879 284.152L208.539 284.987L209.712 291.081L214.051 290.247Z" fill="#0A2B51"/>
<mask id="mask18_871_2" style="mask-type:luminance" maskUnits="userSpaceOnUse" x="208" y="284" width="7" height="8">
<path d="M214.051 290.247L212.879 284.152L208.539 284.987L209.712 291.081L214.051 290.247Z" fill="white"/>
</mask>
<g mask="url(#mask18_871_2)">
<path opacity="0.7" d="M214.051 290.247L212.879 284.152L208.539 284.987L209.712 291.081L214.051 290.247Z" fill="white"/>
</g>
<path d="M208.68 291.287L207.508 285.192L203.168 286.027L204.341 292.122L208.68 291.287Z" fill="#0A2B51"/>
<mask id="mask19_871_2" style="mask-type:luminance" maskUnits="userSpaceOnUse" x="203" y="285" width="6" height="8">
<path d="M208.68 291.287L207.508 285.192L203.168 286.027L204.341 292.122L208.68 291.287Z" fill="white"/>
</mask>
<g mask="url(#mask19_871_2)">
<path opacity="0.3" d="M208.68 291.287L207.508 285.192L203.168 286.027L204.341 292.122L208.68 291.287Z" fill="white"/>
</g>
<path d="M203.303 292.307L202.133 286.223L197.793 287.058L198.964 293.142L203.303 292.307Z" fill="#0A2B51"/>
<path d="M197.932 293.338L196.762 287.254L192.422 288.089L193.593 294.173L197.932 293.338Z" fill="#0A2B51"/>
<mask id="mask20_871_2" style="mask-type:luminance" maskUnits="userSpaceOnUse" x="192" y="287" width="6" height="8">
<path d="M197.932 293.338L196.762 287.254L192.422 288.089L193.593 294.173L197.932 293.338Z" fill="white"/>
</mask>
<g mask="url(#mask20_871_2)">
<path opacity="0.2" d="M197.932 293.338L196.762 287.254L192.422 288.089L193.593 294.173L197.932 293.338Z" fill="black"/>
</g>
<path d="M192.561 294.367L191.391 288.284L187.051 289.119L188.222 295.202L192.561 294.367Z" fill="#0A2B51"/>
<mask id="mask21_871_2" style="mask-type:luminance" maskUnits="userSpaceOnUse" x="187" y="288" width="6" height="8">
<path d="M192.561 294.367L191.391 288.284L187.051 289.119L188.222 295.202L192.561 294.367Z" fill="white"/>
</mask>
<g mask="url(#mask21_871_2)">
<path opacity="0.3" d="M192.561 294.367L191.391 288.284L187.051 289.119L188.222 295.202L192.561 294.367Z" fill="black"/>
</g>
<path d="M182.054 294.788C181.639 294.311 181.323 293.756 181.123 293.156C180.922 292.556 180.842 291.922 180.887 291.291C180.932 290.66 181.1 290.044 181.383 289.479C181.666 288.913 182.058 288.408 182.536 287.994L205.07 268.477L211.372 275.753L188.838 295.27C188.361 295.684 187.807 296.001 187.208 296.201C186.609 296.401 185.976 296.481 185.346 296.436C184.716 296.391 184.101 296.223 183.536 295.94C182.971 295.657 182.468 295.266 182.054 294.788Z" fill="white" stroke="#263238" stroke-width="0.75" stroke-linecap="round" stroke-linejoin="round"/>
<path d="M209.118 275.362L205.062 270.679L201.722 273.571L205.777 278.255L209.118 275.362Z" fill="#0A2B51"/>
<mask id="mask22_871_2" style="mask-type:luminance" maskUnits="userSpaceOnUse" x="201" y="270" width="9" height="9">
<path d="M209.118 275.362L205.062 270.679L201.722 273.571L205.777 278.255L209.118 275.362Z" fill="white"/>
</mask>
<g mask="url(#mask22_871_2)">
<path opacity="0.7" d="M209.118 275.362L205.062 270.679L201.722 273.571L205.777 278.255L209.118 275.362Z" fill="white"/>
</g>
<path d="M205 278.945L200.938 274.253L197.597 277.146L201.659 281.838L205 278.945Z" fill="#0A2B51"/>
<mask id="mask23_871_2" style="mask-type:luminance" maskUnits="userSpaceOnUse" x="197" y="274" width="8" height="8">
<path d="M204.996 278.945L200.934 274.253L197.593 277.146L201.655 281.838L204.996 278.945Z" fill="white"/>
</mask>
<g mask="url(#mask23_871_2)">
<path opacity="0.3" d="M204.996 278.945L200.934 274.253L197.593 277.146L201.655 281.838L204.996 278.945Z" fill="white"/>
</g>
<path d="M200.852 282.527L196.797 277.843L193.456 280.736L197.512 285.419L200.852 282.527Z" fill="#0A2B51"/>
<path d="M196.723 286.117L192.668 281.433L189.327 284.326L193.383 289.009L196.723 286.117Z" fill="#0A2B51"/>
<mask id="mask24_871_2" style="mask-type:luminance" maskUnits="userSpaceOnUse" x="189" y="281" width="8" height="9">
<path d="M196.72 286.117L192.664 281.433L189.323 284.326L193.379 289.009L196.72 286.117Z" fill="white"/>
</mask>
<g mask="url(#mask24_871_2)">
<path opacity="0.2" d="M196.72 286.117L192.664 281.433L189.323 284.326L193.379 289.009L196.72 286.117Z" fill="black"/>
</g>
<path d="M192.59 289.689L188.527 284.997L185.187 287.89L189.249 292.581L192.59 289.689Z" fill="#0A2B51"/>
<mask id="mask25_871_2" style="mask-type:luminance" maskUnits="userSpaceOnUse" x="185" y="284" width="8" height="9">
<path d="M192.59 289.689L188.527 284.997L185.187 287.89L189.249 292.581L192.59 289.689Z" fill="white"/>
</mask>
<g mask="url(#mask25_871_2)">
<path opacity="0.3" d="M192.59 289.689L188.527 284.997L185.187 287.89L189.249 292.581L192.59 289.689Z" fill="black"/>
</g>
<path d="M182.967 294.96C181.763 294.54 180.775 293.66 180.22 292.512C179.664 291.365 179.586 290.044 180.003 288.839L189.761 260.72L198.846 263.866L189.087 292.039C188.661 293.236 187.778 294.216 186.63 294.763C185.483 295.311 184.166 295.382 182.967 294.96Z" fill="white" stroke="#263238" stroke-width="0.75" stroke-linecap="round" stroke-linejoin="round"/>
<path d="M196.712 264.615L190.848 262.583L189.401 266.759L195.265 268.791L196.712 264.615Z" fill="#0A2B51"/>
<mask id="mask26_871_2" style="mask-type:luminance" maskUnits="userSpaceOnUse" x="189" y="262" width="8" height="7">
<path d="M196.708 264.615L190.844 262.583L189.397 266.759L195.261 268.791L196.708 264.615Z" fill="white"/>
</mask>
<g mask="url(#mask26_871_2)">
<path opacity="0.7" d="M196.708 264.615L190.844 262.583L189.397 266.759L195.261 268.791L196.708 264.615Z" fill="white"/>
</g>
<path d="M194.905 269.773L189.051 267.745L187.604 271.921L193.458 273.949L194.905 269.773Z" fill="#0A2B51"/>
<mask id="mask27_871_2" style="mask-type:luminance" maskUnits="userSpaceOnUse" x="187" y="267" width="8" height="7">
<path d="M194.905 269.773L189.051 267.745L187.604 271.921L193.458 273.949L194.905 269.773Z" fill="white"/>
</mask>
<g mask="url(#mask27_871_2)">
<path opacity="0.3" d="M194.905 269.773L189.051 267.745L187.604 271.921L193.458 273.949L194.905 269.773Z" fill="white"/>
</g>
<path d="M193.12 274.938L187.266 272.91L185.819 277.086L191.673 279.114L193.12 274.938Z" fill="#0A2B51"/>
<path d="M191.341 280.118L185.477 278.086L184.03 282.262L189.894 284.293L191.341 280.118Z" fill="#0A2B51"/>
<mask id="mask28_871_2" style="mask-type:luminance" maskUnits="userSpaceOnUse" x="184" y="278" width="8" height="7">
<path d="M191.341 280.118L185.477 278.086L184.03 282.262L189.894 284.293L191.341 280.118Z" fill="white"/>
</mask>
<g mask="url(#mask28_871_2)">
<path opacity="0.2" d="M191.341 280.118L185.477 278.086L184.03 282.262L189.894 284.293L191.341 280.118Z" fill="black"/>
</g>
<path d="M189.537 285.275L183.684 283.247L182.237 287.423L188.091 289.451L189.537 285.275Z" fill="#0A2B51"/>
<mask id="mask29_871_2" style="mask-type:luminance" maskUnits="userSpaceOnUse" x="182" y="283" width="8" height="7">
<path d="M189.534 285.275L183.68 283.247L182.233 287.423L188.087 289.451L189.534 285.275Z" fill="white"/>
</mask>
<g mask="url(#mask29_871_2)">
<path opacity="0.3" d="M189.534 285.275L183.68 283.247L182.233 287.423L188.087 289.451L189.534 285.275Z" fill="black"/>
</g>
<path d="M171.72 277.337L179.831 283.254C179.831 283.254 189.033 283.254 190.702 285.769C192.371 288.283 192.842 291.118 191.344 292.135C189.846 293.151 192.125 289.417 187.963 287.523C187.963 287.523 190.103 297.228 186.39 295.152C186.39 295.152 185.908 296.8 184.507 295.292C184.75 294.084 184.568 292.829 183.993 291.739C183.827 291.335 183.559 290.982 183.216 290.712C182.873 290.442 182.466 290.265 182.035 290.198C182.035 290.198 184.646 293.761 182.923 294.735C181.532 295.516 180.783 290.391 178.921 289.813C177.915 289.746 176.944 289.414 176.108 288.85C175.272 288.286 174.6 287.511 174.16 286.603L167.879 283.19L171.72 277.337Z" fill="white" stroke="#263238" stroke-linecap="round" stroke-linejoin="round"/>
<path d="M186.709 293.644C186.916 291.837 186.409 290.021 185.297 288.583" stroke="#263238" stroke-width="0.75" stroke-linecap="round" stroke-linejoin="round"/>
<path d="M188.723 285.854C188.723 285.854 188.552 286.592 186.883 286.432C185.652 286.314 183.844 288.797 181.961 288.422" stroke="#263238" stroke-width="0.75" stroke-linecap="round" stroke-linejoin="round"/>
<path d="M148.406 222.339C148.309 222.207 148.178 222.103 148.028 222.039C147.877 221.975 147.712 221.953 147.55 221.975C147.388 221.997 147.235 222.062 147.107 222.164C146.979 222.265 146.88 222.4 146.822 222.553C145.057 227.09 140.327 242.251 142.874 269.13C142.874 269.13 144.917 274.619 168.928 285.105L173.497 278.043L155.746 263.63C155.746 263.63 158.068 244.37 156.313 237.18" fill="#0A2B51"/>
<path d="M148.406 222.339C148.309 222.207 148.178 222.103 148.028 222.039C147.877 221.975 147.712 221.953 147.55 221.975C147.388 221.997 147.235 222.062 147.107 222.164C146.979 222.265 146.88 222.4 146.822 222.553C145.057 227.09 140.327 242.251 142.874 269.13C142.874 269.13 144.917 274.619 168.928 285.105L173.497 278.043L155.746 263.63C155.746 263.63 158.068 244.37 156.313 237.18" stroke="#263238" stroke-linecap="round" stroke-linejoin="round"/>
<path d="M172.436 276.417L166.926 285.34L171.249 286.892L175.892 279.092L172.436 276.417Z" fill="#0A2B51" stroke="#263238" stroke-linecap="round" stroke-linejoin="round"/>
<path d="M75.7995 135.722C75.8958 138.59 76.1954 147.193 76.1954 147.193L93.2512 157.422L94.3212 137.927L94.9097 111.177L97.7131 107.282C97.7131 107.282 101.908 100.862 94.9097 98.3687C87.912 95.8756 89.8593 100.509 82.9043 101.29C75.9493 102.071 59.6425 113.06 67.0255 122.615C74.4085 132.17 75.6283 130.929 75.7995 135.722Z" fill="white"/>
<mask id="mask30_871_2" style="mask-type:luminance" maskUnits="userSpaceOnUse" x="65" y="97" width="34" height="61">
<path d="M75.7995 135.722C75.8958 138.59 76.1954 147.193 76.1954 147.193L93.2512 157.422L94.3212 137.927L94.9097 111.177L97.7131 107.282C97.7131 107.282 101.908 100.862 94.9097 98.3687C87.912 95.8756 89.8593 100.509 82.9043 101.29C75.9493 102.071 59.6425 113.06 67.0255 122.615C74.4085 132.17 75.6283 130.929 75.7995 135.722Z" fill="white"/>
</mask>
<g mask="url(#mask30_871_2)">
<path d="M82.3378 130.619C83.3369 131.482 84.536 132.081 85.826 132.363C85.826 132.363 88.4689 139.853 89.7957 140.858C91.1225 141.864 95.8519 142.667 95.8519 142.667L97.2429 132.791L87.4203 126.371L82.0703 124.766L82.3378 130.619Z" fill="#F5F5F5" stroke="#263238" stroke-linecap="round" stroke-linejoin="round"/>
</g>
<path d="M75.7995 135.722C75.8958 138.59 76.1954 147.193 76.1954 147.193L93.2512 157.422L94.3212 137.927L94.9098 111.177L97.7131 107.282C97.7131 107.282 101.908 100.862 94.9098 98.3687C87.912 95.8756 89.8593 100.509 82.9043 101.29C75.9493 102.071 59.6425 113.06 67.0255 122.615C74.4085 132.17 75.6283 130.929 75.7995 135.722Z" stroke="#263238" stroke-linecap="round" stroke-linejoin="round"/>
<path d="M94.896 111.198L97.6994 107.303C97.6994 107.303 101.894 100.883 94.896 98.3897C87.8982 95.8966 89.8456 100.53 82.8906 101.311C75.9356 102.092 59.6395 113.059 67.0225 122.615C71.8161 128.863 74.0203 130.5 75.0154 132.245C75.8016 131.739 76.7387 131.521 77.6672 131.629C78.5957 131.736 79.4584 132.162 80.1086 132.833C82.8906 135.604 85.7261 120.121 85.7261 120.121L94.8425 113.648L94.896 111.198Z" fill="#263238" stroke="#263238" stroke-linecap="round" stroke-linejoin="round"/>
<path d="M82.475 121.502C82.475 121.502 75.6056 121.684 79.265 126.852C82.9244 132.02 86.755 131.036 86.755 131.036L90.9387 139.007C90.9387 139.007 105.501 141.062 108.936 140.077C112.371 139.093 106.432 127.087 106.432 127.087L108.711 124.477C108.838 124.334 108.935 124.166 108.995 123.985C109.054 123.803 109.077 123.611 109.06 123.421C109.043 123.23 108.987 123.045 108.896 122.877C108.804 122.709 108.68 122.562 108.529 122.444L103.094 118.078C103.554 115.392 97.6155 107.314 97.6155 107.314C97.6155 107.314 88.7987 107.218 87.9855 110.192C87.4866 111.952 87.0829 113.738 86.7764 115.542L81.7688 117.586L82.475 121.502Z" fill="white"/>
<mask id="mask31_871_2" style="mask-type:luminance" maskUnits="userSpaceOnUse" x="78" y="107" width="33" height="34">
<path d="M82.475 121.502C82.475 121.502 75.6056 121.684 79.265 126.852C82.9244 132.02 86.755 131.036 86.755 131.036L90.9387 139.007C90.9387 139.007 105.501 141.062 108.936 140.077C112.371 139.093 106.432 127.087 106.432 127.087L108.711 124.477C108.838 124.334 108.935 124.166 108.995 123.985C109.054 123.803 109.077 123.611 109.06 123.421C109.043 123.23 108.987 123.045 108.896 122.877C108.804 122.709 108.68 122.562 108.529 122.444L103.094 118.078C103.554 115.392 97.6155 107.314 97.6155 107.314C97.6155 107.314 88.7987 107.218 87.9855 110.192C87.4866 111.952 87.0829 113.738 86.7764 115.542L81.7688 117.586L82.475 121.502Z" fill="white"/>
</mask>
<g mask="url(#mask31_871_2)">
<path d="M85.8243 113.423L86.8943 115.563C86.8943 115.563 91.3027 118.581 91.5381 120.207C91.8377 122.347 89.5586 123.824 94.2131 128.371C98.8676 132.919 103.329 127.633 106.572 127.077C109.814 126.52 112.51 134.781 112.51 134.781L112.146 142.271L94.2131 142.827L90.329 140.42L85.2465 131.86C85.2465 131.86 90.757 131.367 88.0071 126.51C84.1979 119.801 79.7467 120.753 79.7467 120.753L76.6758 118.024L84.5724 112.343L85.8243 113.423Z" fill="#F5F5F5"/>
</g>
<path d="M82.475 121.502C82.475 121.502 75.6056 121.684 79.265 126.852C82.9244 132.02 86.755 131.036 86.755 131.036L90.9387 139.007C90.9387 139.007 105.501 141.062 108.936 140.077C112.371 139.093 106.432 127.087 106.432 127.087L108.711 124.477C108.838 124.334 108.935 124.166 108.995 123.985C109.054 123.803 109.077 123.611 109.06 123.421C109.043 123.23 108.987 123.045 108.896 122.877C108.804 122.709 108.68 122.562 108.529 122.444L103.094 118.078C103.554 115.392 97.6155 107.314 97.6155 107.314C97.6155 107.314 88.7987 107.218 87.9855 110.192C87.4866 111.952 87.0829 113.738 86.7764 115.542L81.7688 117.586L82.475 121.502Z" stroke="#263238" stroke-linecap="round" stroke-linejoin="round"/>
<path d="M101.843 118.784C102.121 119.608 102.079 120.378 101.736 120.496C101.394 120.614 100.891 120.036 100.613 119.201C100.335 118.367 100.388 117.618 100.72 117.5C101.051 117.382 101.544 117.96 101.843 118.784Z" fill="#263238"/>
<path d="M100.472 114.911C100.472 114.911 97.9679 114.354 97.2617 117.789" stroke="#263238" stroke-linecap="round" stroke-linejoin="round"/>
<path d="M105.446 128.756C105.446 128.756 104.58 131.175 101.273 129.955" stroke="#263238" stroke-linecap="round" stroke-linejoin="round"/>
<path d="M165.838 128.296C166.908 128.756 166.994 130.693 166.994 130.693C169.284 129.762 168.727 133.764 168.727 133.764C171.284 133.154 169.262 137.231 169.262 137.231C169.262 137.231 170.921 137.98 169.391 139.628C167.379 141.768 160.574 145.085 160.574 145.085L151.885 152.831L145.84 146.989L154.55 139.852C154.55 139.852 154.967 137.53 155.513 134.502C155.513 134.502 156.315 130.779 158.241 128.821C160.167 126.862 164.672 127.836 165.838 128.296Z" fill="#F5F5F5" stroke="#263238" stroke-linecap="round" stroke-linejoin="round"/>
<path d="M164.203 130.479C164.203 130.479 163.015 136.15 165.947 131.785C165.947 131.785 163.486 138.034 167.584 134.556C167.584 134.556 163.357 138.932 167.381 137.691C167.381 137.691 165.476 138.504 165.326 139.446C165.176 140.388 167.07 140.088 167.07 140.088" fill="#999999"/>
<path d="M164.203 130.479C164.203 130.479 163.015 136.15 165.947 131.785C165.947 131.785 163.486 138.034 167.584 134.556C167.584 134.556 163.357 138.932 167.381 137.691C167.381 137.691 165.476 138.504 165.326 139.446C165.176 140.388 167.07 140.088 167.07 140.088" stroke="#263238" stroke-linecap="round" stroke-linejoin="round"/>
<path d="M75.3711 176.19C75.3711 176.19 90.854 179.795 124.024 174.906C124.024 174.906 149.501 161.595 156.006 149.343L149.961 142.399L118.663 159.968C118.663 159.968 86.0711 154.939 80.0363 155.688L75.3711 176.19Z" fill="#A1FFA1" stroke="#263238" stroke-linecap="round" stroke-linejoin="round"/>
<path d="M209.668 92.9822L157.383 102.211L164.24 141.061L216.525 131.833L209.668 92.9822Z" fill="#F5F5F5" stroke="#263238" stroke-width="0.75" stroke-linecap="round" stroke-linejoin="round"/>
<path d="M166.682 103.157L161.203 104.124L161.921 108.191L167.4 107.224L166.682 103.157Z" fill="#0A2B51" stroke="#263238" stroke-linecap="round" stroke-linejoin="round"/>
<path d="M171.242 131.1L180.294 109.989L196.023 126.724L171.242 131.1Z" fill="#0A2B51"/>
<mask id="mask32_871_2" style="mask-type:luminance" maskUnits="userSpaceOnUse" x="171" y="109" width="26" height="23">
<path d="M171.242 131.1L180.294 109.989L196.023 126.724L171.242 131.1Z" fill="white"/>
</mask>
<g mask="url(#mask32_871_2)">
<path opacity="0.5" d="M171.242 131.1L180.294 109.989L196.023 126.724L171.242 131.1Z" fill="#A1FFA1"/>
</g>
<path d="M171.242 131.1L180.294 109.989L196.023 126.724L171.242 131.1Z" stroke="#263238" stroke-width="0.75" stroke-linecap="round" stroke-linejoin="round"/>
<path d="M187.613 128.211L194.525 112.097L206.542 124.872L187.613 128.211Z" fill="#A1FFA1" stroke="#263238" stroke-width="0.75" stroke-linecap="round" stroke-linejoin="round"/>
<path d="M192.609 107.816C192.72 108.442 192.643 109.086 192.388 109.668C192.133 110.25 191.71 110.743 191.175 111.085C190.639 111.426 190.014 111.601 189.379 111.588C188.744 111.574 188.127 111.372 187.607 111.008C187.087 110.643 186.686 110.133 186.456 109.541C186.226 108.948 186.177 108.301 186.315 107.681C186.453 107.061 186.772 106.496 187.231 106.057C187.691 105.618 188.27 105.326 188.896 105.216C189.733 105.07 190.594 105.262 191.29 105.749C191.986 106.236 192.46 106.98 192.609 107.816Z" fill="#0A2B51"/>
<mask id="mask33_871_2" style="mask-type:luminance" maskUnits="userSpaceOnUse" x="186" y="105" width="7" height="7">
<path d="M192.609 107.816C192.72 108.442 192.643 109.086 192.388 109.668C192.133 110.25 191.71 110.743 191.175 111.085C190.639 111.426 190.014 111.601 189.379 111.588C188.744 111.574 188.127 111.372 187.607 111.008C187.087 110.643 186.686 110.133 186.456 109.541C186.226 108.948 186.177 108.301 186.315 107.681C186.453 107.061 186.772 106.496 187.231 106.057C187.691 105.618 188.27 105.326 188.896 105.216C189.733 105.07 190.594 105.262 191.29 105.749C191.986 106.236 192.46 106.98 192.609 107.816Z" fill="white"/>
</mask>
<g mask="url(#mask33_871_2)">
<path opacity="0.7" d="M192.609 107.816C192.72 108.442 192.643 109.086 192.388 109.668C192.133 110.25 191.71 110.743 191.175 111.085C190.639 111.426 190.014 111.601 189.379 111.588C188.744 111.574 188.127 111.372 187.607 111.008C187.087 110.643 186.686 110.133 186.456 109.541C186.226 108.948 186.177 108.301 186.315 107.681C186.453 107.061 186.772 106.496 187.231 106.057C187.691 105.618 188.27 105.326 188.896 105.216C189.733 105.07 190.594 105.262 191.29 105.749C191.986 106.236 192.46 106.98 192.609 107.816Z" fill="#A1FFA1"/>
</g>
<path d="M192.609 107.816C192.72 108.442 192.643 109.086 192.388 109.668C192.133 110.25 191.71 110.743 191.175 111.085C190.639 111.426 190.014 111.601 189.379 111.588C188.744 111.574 188.127 111.372 187.607 111.008C187.087 110.643 186.686 110.133 186.456 109.541C186.226 108.948 186.177 108.301 186.315 107.681C186.453 107.061 186.772 106.496 187.231 106.057C187.691 105.618 188.27 105.326 188.896 105.216C189.733 105.07 190.594 105.262 191.29 105.749C191.986 106.236 192.46 106.98 192.609 107.816Z" stroke="#263238" stroke-width="0.75" stroke-linecap="round" stroke-linejoin="round"/>
<path d="M160.521 128.318C160.734 128.105 161.004 127.957 161.298 127.892C161.593 127.827 161.899 127.848 162.183 127.951C162.466 128.054 162.714 128.236 162.897 128.476C163.08 128.715 163.191 129.002 163.217 129.302C163.977 131.849 167.262 133.122 166.363 133.668C165.464 134.213 163.399 135.283 161.698 132.427C161.698 132.427 161.067 132.362 161.109 133.593C161.163 135.091 161.109 136.963 160.371 137.926" fill="#F5F5F5"/>
<path d="M160.521 128.318C160.734 128.105 161.004 127.957 161.298 127.892C161.593 127.827 161.899 127.848 162.183 127.951C162.466 128.054 162.714 128.236 162.897 128.476C163.08 128.715 163.191 129.002 163.217 129.302C163.977 131.849 167.262 133.122 166.363 133.668C165.464 134.213 163.399 135.283 161.698 132.427C161.698 132.427 161.067 132.362 161.109 133.593C161.163 135.091 161.109 136.963 160.371 137.926" stroke="#263238" stroke-linecap="round" stroke-linejoin="round"/>
<path d="M42.286 388.938C39.4907 392.525 37.5248 396.687 36.5294 401.125C36.4293 401.564 36.4185 402.018 36.4974 402.461C36.5764 402.904 36.7436 403.327 36.9891 403.704C37.2346 404.082 37.5535 404.406 37.9267 404.657C38.2999 404.909 38.7198 405.083 39.1616 405.169L60.8826 409.599C65.6548 410.584 72.9629 410.38 76.6544 410.198C77.0802 410.183 77.4978 410.077 77.8794 409.887C78.2609 409.697 78.5976 409.429 78.867 409.098C79.1363 408.768 79.3322 408.385 79.4415 407.973C79.5507 407.561 79.5709 407.13 79.5006 406.71C79.2987 405.887 78.9113 405.12 78.368 404.469C77.8246 403.818 77.1397 403.3 76.3655 402.955C71.2295 400.108 59.0208 398.193 53.9918 390.478L42.286 388.938Z" fill="#263238" stroke="#263238" stroke-linecap="round" stroke-linejoin="round"/>
<path d="M107.054 255.305C107.054 255.305 95.6267 287.052 80.9998 317.43C80.9998 317.43 78.1643 330.783 71.7764 339.9L55.7264 391.142C55.7264 391.142 48.6858 394.042 40.3398 389.002C40.3398 389.002 44.3202 356.217 54.4959 332.431L60.4986 313.588L67.9886 275.646C67.9886 275.646 61.6435 264.668 63.3341 248.554L91.5072 248.168L107.054 255.305Z" fill="#0A2B51"/>
<mask id="mask34_871_2" style="mask-type:luminance" maskUnits="userSpaceOnUse" x="40" y="248" width="68" height="144">
<path d="M107.054 255.305C107.054 255.305 95.6267 287.052 80.9998 317.43C80.9998 317.43 78.1643 330.783 71.7764 339.9L55.7264 391.142C55.7264 391.142 48.6858 394.042 40.3398 389.002C40.3398 389.002 44.3202 356.217 54.4959 332.431L60.4986 313.588L67.9886 275.646C67.9886 275.646 61.6435 264.668 63.3341 248.554L91.5072 248.168L107.054 255.305Z" fill="white"/>
</mask>
<g mask="url(#mask34_871_2)">
<path opacity="0.2" d="M70.8786 250.34C68.9847 251.41 67.1871 252.619 65.2611 253.625C64.2591 254.106 63.2904 254.653 62.3614 255.262C62.4256 255.262 62.2972 255.359 62.1688 255.476C62.1882 255.651 62.1882 255.826 62.1688 256.001C62.1153 256.325 62.0219 256.641 61.8906 256.942C62.3891 257.428 62.7719 258.02 63.0108 258.674C63.2498 259.327 63.3386 260.027 63.2709 260.719C63.2709 261.212 63.2709 261.704 63.1853 262.196L63.3244 262.41C63.9479 263.798 64.3695 265.268 64.5763 266.776C65.0298 269.021 65.7744 271.197 66.7912 273.249C67.0076 273.725 67.1692 274.224 67.2727 274.736L67.9896 275.646C67.9896 275.646 74.9232 322.041 80.0913 321.003C85.2594 319.965 88.6513 295.248 88.6513 295.248L70.8786 250.34Z" fill="black"/>
</g>
<path d="M107.054 255.305C107.054 255.305 95.6267 287.052 80.9998 317.43C80.9998 317.43 78.1643 330.783 71.7764 339.9L55.7264 391.142C55.7264 391.142 48.6858 394.042 40.3398 389.002C40.3398 389.002 44.3202 356.217 54.4959 332.431L60.4986 313.588L67.9886 275.646C67.9886 275.646 61.6435 264.668 63.3341 248.554L91.5072 248.168L107.054 255.305Z" stroke="#263238" stroke-linecap="round" stroke-linejoin="round"/>
<path d="M90.8443 394.031C90.8443 394.031 87.4203 398.6 87.2384 406.753C87.2342 407.226 87.3238 407.695 87.5022 408.133C87.6806 408.571 87.9441 408.969 88.2775 409.305C88.6109 409.64 89.0076 409.906 89.4445 410.087C89.8815 410.268 90.35 410.36 90.8229 410.359H114.363C119.531 410.359 127.075 408.594 130.873 407.62C131.315 407.51 131.729 407.306 132.087 407.024C132.445 406.741 132.738 406.385 132.948 405.98C133.157 405.575 133.278 405.131 133.302 404.675C133.327 404.22 133.253 403.765 133.088 403.34C132.696 402.535 132.128 401.829 131.426 401.273C130.724 400.717 129.906 400.327 129.033 400.13C123.083 398.279 109.997 398.889 103.128 391.944L90.8443 394.031Z" fill="#263238" stroke="#263238" stroke-linecap="round" stroke-linejoin="round"/>
<path d="M105.019 245.525C105.019 245.525 109.738 279.669 105.019 313.085C105.019 313.085 105.308 326.995 101.97 337.588L104.634 392.447C104.634 392.447 98.9094 396.898 89.4399 394.673C89.4399 394.673 79.6922 360.144 81.9499 335.363L80.8799 315.589L73.2936 274.629C73.2936 274.629 64.5945 268.209 61.3203 252.352L88.0703 243.439L105.019 245.525Z" fill="#0A2B51" stroke="#263238" stroke-linecap="round" stroke-linejoin="round"/>
<path d="M73.5744 146.283C73.5744 146.283 61.8793 155.196 60.1994 177.474C58.5195 199.751 54.9136 246.253 62.1575 258.505C62.1575 258.505 69.1125 245.996 106.712 251.015C106.712 251.015 110.607 232.354 104.754 195.878C98.9013 159.401 92.2245 150.189 73.5744 146.283Z" fill="#A1FFA1" stroke="#263238" stroke-linecap="round" stroke-linejoin="round"/>
<path d="M73.5742 147.396L74.6442 140.441C80.2595 140.732 85.6304 142.83 89.9559 146.422C94.9314 150.617 96.5043 154.64 92.877 159.369L73.5742 148.231V147.396Z" fill="#A1FFA1" stroke="#263238" stroke-linecap="round" stroke-linejoin="round"/>
<path d="M92.6191 156.758C88.5424 151.483 83.3315 148.669 76.2695 146.882" stroke="#7F7F7F" stroke-width="0.75" stroke-linecap="round" stroke-linejoin="round"/>
<path d="M101.649 178.95C99.6696 170.583 97.444 164.377 94.6406 159.69" stroke="#7F7F7F" stroke-width="0.75" stroke-linecap="round" stroke-linejoin="round"/>
<path d="M133.652 226.498L80.5586 226.572L80.6137 266.023L133.707 265.949L133.652 226.498Z" fill="#999999" stroke="#263238" stroke-width="0.75" stroke-linecap="round" stroke-linejoin="round"/>
<path d="M89.5601 229.106L83.9961 229.114L84.0019 233.244L89.5659 233.237L89.5601 229.106Z" fill="#263238" stroke="#263238" stroke-linecap="round" stroke-linejoin="round"/>
<path d="M89.2148 257.435L101.777 238.196L114.381 257.392L89.2148 257.435Z" fill="#0A2B51"/>
<mask id="mask35_871_2" style="mask-type:luminance" maskUnits="userSpaceOnUse" x="89" y="238" width="26" height="20">
<path d="M89.2148 257.435L101.777 238.196L114.381 257.392L89.2148 257.435Z" fill="white"/>
</mask>
<g mask="url(#mask35_871_2)">
<path opacity="0.5" d="M89.2148 257.435L101.777 238.196L114.381 257.392L89.2148 257.435Z" fill="white"/>
</g>
<path d="M89.2148 257.435L101.777 238.196L114.381 257.392L89.2148 257.435Z" stroke="#263238" stroke-width="0.75" stroke-linecap="round" stroke-linejoin="round"/>
<path d="M105.844 257.413L115.431 242.722L125.061 257.381L105.844 257.413Z" fill="#0A2B51" stroke="#263238" stroke-width="0.75" stroke-linecap="round" stroke-linejoin="round"/>
<path d="M114.287 238.175C114.287 238.81 114.099 239.43 113.746 239.958C113.393 240.486 112.892 240.898 112.306 241.14C111.719 241.383 111.074 241.447 110.451 241.323C109.828 241.199 109.256 240.894 108.807 240.445C108.358 239.996 108.053 239.424 107.929 238.801C107.805 238.178 107.869 237.533 108.112 236.946C108.354 236.36 108.766 235.859 109.294 235.506C109.822 235.153 110.442 234.965 111.077 234.965C111.929 234.965 112.745 235.303 113.347 235.905C113.949 236.507 114.287 237.323 114.287 238.175Z" fill="#0A2B51"/>
<mask id="mask36_871_2" style="mask-type:luminance" maskUnits="userSpaceOnUse" x="107" y="234" width="8" height="8">
<path d="M114.287 238.175C114.287 238.81 114.099 239.43 113.746 239.958C113.393 240.486 112.892 240.898 112.306 241.14C111.719 241.383 111.074 241.447 110.451 241.323C109.828 241.199 109.256 240.894 108.807 240.445C108.358 239.996 108.053 239.424 107.929 238.801C107.805 238.178 107.869 237.533 108.112 236.946C108.354 236.36 108.766 235.859 109.294 235.506C109.822 235.153 110.442 234.965 111.077 234.965C111.929 234.965 112.745 235.303 113.347 235.905C113.949 236.507 114.287 237.323 114.287 238.175Z" fill="white"/>
</mask>
<g mask="url(#mask36_871_2)">
<path opacity="0.7" d="M114.287 238.175C114.287 238.81 114.099 239.43 113.746 239.958C113.393 240.486 112.892 240.898 112.306 241.14C111.719 241.383 111.074 241.447 110.451 241.323C109.828 241.199 109.256 240.894 108.807 240.445C108.358 239.996 108.053 239.424 107.929 238.801C107.805 238.178 107.869 237.533 108.112 236.946C108.354 236.36 108.766 235.859 109.294 235.506C109.822 235.153 110.442 234.965 111.077 234.965C111.929 234.965 112.745 235.303 113.347 235.905C113.949 236.507 114.287 237.323 114.287 238.175Z" fill="white"/>
</g>
<path d="M114.287 238.175C114.287 238.81 114.099 239.43 113.746 239.958C113.393 240.486 112.892 240.898 112.306 241.14C111.719 241.383 111.074 241.447 110.451 241.323C109.828 241.199 109.256 240.894 108.807 240.445C108.358 239.996 108.053 239.424 107.929 238.801C107.805 238.178 107.869 237.533 108.112 236.946C108.354 236.36 108.766 235.859 109.294 235.506C109.822 235.153 110.442 234.965 111.077 234.965C111.929 234.965 112.745 235.303 113.347 235.905C113.949 236.507 114.287 237.323 114.287 238.175Z" stroke="#263238" stroke-width="0.75" stroke-linecap="round" stroke-linejoin="round"/>
<path d="M130.864 223.262L78.2227 230.174L83.3584 269.289L136 262.377L130.864 223.262Z" fill="white" stroke="#263238" stroke-width="0.75" stroke-linecap="round" stroke-linejoin="round"/>
<path d="M87.4893 231.533L81.9727 232.257L82.5103 236.352L88.027 235.628L87.4893 231.533Z" fill="#263238" stroke="#263238" stroke-linecap="round" stroke-linejoin="round"/>
<path d="M90.8008 259.65L100.784 238.956L115.764 256.365L90.8008 259.65Z" fill="#0A2B51"/>
<mask id="mask37_871_2" style="mask-type:luminance" maskUnits="userSpaceOnUse" x="90" y="238" width="26" height="22">
<path d="M90.8008 259.65L100.784 238.956L115.764 256.365L90.8008 259.65Z" fill="white"/>
</mask>
<g mask="url(#mask37_871_2)">
<path opacity="0.5" d="M90.8008 259.65L100.784 238.956L115.764 256.365L90.8008 259.65Z" fill="#A1FFA1"/>
</g>
<path d="M90.8008 259.65L100.784 238.956L115.764 256.365L90.8008 259.65Z" stroke="#263238" stroke-width="0.75" stroke-linecap="round" stroke-linejoin="round"/>
<path d="M107.289 257.478L114.907 241.685L126.346 254.974L107.289 257.478Z" fill="#A1FFA1" stroke="#263238" stroke-width="0.75" stroke-linecap="round" stroke-linejoin="round"/>
<path d="M113.185 237.319C113.269 237.948 113.163 238.588 112.883 239.158C112.603 239.727 112.16 240.201 111.611 240.519C111.061 240.837 110.43 240.984 109.796 240.944C109.163 240.903 108.556 240.675 108.052 240.289C107.548 239.903 107.169 239.377 106.965 238.776C106.76 238.175 106.738 237.527 106.901 236.913C107.065 236.3 107.406 235.749 107.883 235.33C108.36 234.911 108.95 234.642 109.579 234.558C109.997 234.503 110.422 234.53 110.83 234.639C111.237 234.747 111.619 234.935 111.954 235.191C112.289 235.448 112.57 235.768 112.781 236.133C112.993 236.498 113.13 236.901 113.185 237.319Z" fill="#0A2B51"/>
<mask id="mask38_871_2" style="mask-type:luminance" maskUnits="userSpaceOnUse" x="106" y="234" width="8" height="7">
<path d="M113.185 237.319C113.269 237.948 113.163 238.588 112.883 239.158C112.603 239.727 112.16 240.201 111.611 240.519C111.061 240.837 110.43 240.984 109.796 240.944C109.163 240.903 108.556 240.675 108.052 240.289C107.548 239.903 107.169 239.377 106.965 238.776C106.76 238.175 106.738 237.527 106.901 236.913C107.065 236.3 107.406 235.749 107.883 235.33C108.36 234.911 108.95 234.642 109.579 234.558C109.997 234.503 110.422 234.53 110.83 234.639C111.237 234.747 111.619 234.935 111.954 235.191C112.289 235.448 112.57 235.768 112.781 236.133C112.993 236.498 113.13 236.901 113.185 237.319Z" fill="white"/>
</mask>
<g mask="url(#mask38_871_2)">
<path opacity="0.7" d="M113.185 237.319C113.269 237.948 113.163 238.588 112.883 239.158C112.603 239.727 112.16 240.201 111.611 240.519C111.061 240.837 110.43 240.984 109.796 240.944C109.163 240.903 108.556 240.675 108.052 240.289C107.548 239.903 107.169 239.377 106.965 238.776C106.76 238.175 106.738 237.527 106.901 236.913C107.065 236.3 107.406 235.749 107.883 235.33C108.36 234.911 108.95 234.642 109.579 234.558C109.997 234.503 110.422 234.53 110.83 234.639C111.237 234.747 111.619 234.935 111.954 235.191C112.289 235.448 112.57 235.768 112.781 236.133C112.993 236.498 113.13 236.901 113.185 237.319Z" fill="#A1FFA1"/>
</g>
<path d="M113.185 237.319C113.269 237.948 113.163 238.588 112.883 239.158C112.603 239.727 112.16 240.201 111.611 240.519C111.061 240.837 110.43 240.984 109.796 240.944C109.163 240.903 108.556 240.675 108.052 240.289C107.548 239.903 107.169 239.377 106.965 238.776C106.76 238.175 106.738 237.527 106.901 236.913C107.065 236.3 107.406 235.749 107.883 235.33C108.36 234.911 108.95 234.642 109.579 234.558C109.997 234.503 110.422 234.53 110.83 234.639C111.237 234.747 111.619 234.935 111.954 235.191C112.289 235.448 112.57 235.768 112.781 236.133C112.993 236.498 113.13 236.901 113.185 237.319Z" stroke="#B5BFCB" stroke-width="0.75" stroke-linecap="round" stroke-linejoin="round"/>
<path d="M99.9498 245.526L105.567 253.529L111.987 255.017C114.619 255.627 116.01 256.205 117.016 258.73C117.733 260.538 117.252 261.094 115.946 261.565C115.946 261.565 119.777 268.916 115.786 268.199C115.786 268.199 116.117 271.57 112.137 270.339C112.137 270.339 110.864 272.618 108.103 270.767C108.103 270.767 105.963 272.404 102.989 266.872L98.7085 258.997L92.4062 251.892L99.9498 245.526Z" fill="white" stroke="#263238" stroke-linecap="round" stroke-linejoin="round"/>
<path d="M115.452 265.824C115.452 265.824 115.987 268.049 113.794 267.964C111.6 267.878 111.996 270.104 106.871 269.323" fill="white"/>
<path d="M115.452 265.824C115.452 265.824 115.987 268.049 113.794 267.964C111.6 267.878 111.996 270.104 106.871 269.323" stroke="#263238" stroke-linecap="round" stroke-linejoin="round"/>
<path d="M69.6688 165.49C69.6688 165.49 64.1048 182.192 67.165 218.99C67.165 218.99 80.8717 247.944 94.8994 256.022L103.641 248.779L86.6604 214.25C86.6604 214.25 95.3488 178.886 94.8994 172.209" fill="#A1FFA1"/>
<path d="M69.6688 165.49C69.6688 165.49 64.1048 182.192 67.165 218.99C67.165 218.99 80.8717 247.944 94.8994 256.022L103.641 248.779L86.6604 214.25C86.6604 214.25 95.3488 178.886 94.8994 172.209" stroke="#263238" stroke-linecap="round" stroke-linejoin="round"/>
<path d="M92.9062 186.569C94.1795 180.149 95.0462 174.478 94.9499 172.188" stroke="#7F7F7F" stroke-width="0.75" stroke-linecap="round" stroke-linejoin="round"/>
<path d="M87.6322 216.079L86.7227 214.228C86.7227 214.228 89.9327 201.142 92.3509 189.383" stroke="#7F7F7F" stroke-width="0.75" stroke-linecap="round" stroke-linejoin="round"/>
<path d="M92.3413 225.688L88.7461 218.369" stroke="#7F7F7F" stroke-width="0.75" stroke-linecap="round" stroke-linejoin="round"/>
<path d="M66.918 215.02C67.0036 216.315 67.0999 217.62 67.2176 218.968C70.5533 225.798 74.3536 232.39 78.5917 238.699" stroke="#7F7F7F" stroke-width="0.75" stroke-linecap="round" stroke-linejoin="round"/>
<path d="M69.7206 165.49C69.7206 165.49 64.8735 180.052 66.7139 211.885" stroke="#7F7F7F" stroke-width="0.75" stroke-linecap="round" stroke-linejoin="round"/>
<path d="M425.58 105.142C424.587 95.7241 422.431 86.4657 419.16 77.5786" stroke="#263238" stroke-linecap="round" stroke-linejoin="round"/>
<path d="M392.656 36.1484C392.708 36.1932 392.755 36.2436 392.796 36.2988" stroke="#263238" stroke-linecap="round" stroke-linejoin="round"/>
<path d="M389.637 33.3235C389.156 32.8848 388.674 32.4675 388.193 32.0609C376.273 21.821 366.964 19.5419 363.059 19.0283" stroke="#263238" stroke-linecap="round" stroke-linejoin="round"/>
<path d="M361.982 16.8364L359.578 18.0103L360.752 20.4139L363.156 19.24L361.982 16.8364Z" stroke="#263238" stroke-linecap="round" stroke-linejoin="round"/>
<path d="M426.306 104.794L423.902 105.968L425.076 108.371L427.48 107.198L426.306 104.794Z" stroke="#263238" stroke-linecap="round" stroke-linejoin="round"/>
<path d="M405.421 48.6568L406.844 50.0906C406.798 50.2709 406.702 50.4343 406.566 50.5614C406.444 50.693 406.288 50.7891 406.116 50.8396L404.672 49.3844L392.035 36.7905L392.763 36.0415L405.421 48.6568Z" fill="#263238" stroke="#263238" stroke-linecap="round" stroke-linejoin="round"/>
<path d="M407.124 48.9456C407.323 49.1423 407.464 49.3907 407.53 49.6628C407.596 49.9349 407.585 50.2201 407.498 50.4863C407.437 50.7292 407.311 50.951 407.134 51.1284C406.96 51.2931 406.752 51.4173 406.525 51.4921C406.254 51.5817 405.964 51.5951 405.687 51.5309C405.41 51.4668 405.155 51.3275 404.952 51.1284C404.75 50.9243 404.608 50.6685 404.542 50.3892C404.476 50.1098 404.488 49.8176 404.577 49.5447C404.652 49.3145 404.78 49.1054 404.952 48.9348C405.124 48.7549 405.342 48.6254 405.583 48.5603C405.85 48.4762 406.136 48.4676 406.408 48.5356C406.68 48.6036 406.927 48.7455 407.124 48.9456Z" fill="#263238" stroke="#263238" stroke-linecap="round" stroke-linejoin="round"/>
<path d="M389.468 33.3236L377.066 21.0293" stroke="#263238" stroke-linecap="round" stroke-linejoin="round"/>
<path d="M377.302 19.6703C377.401 19.8848 377.435 20.1239 377.398 20.3575C377.362 20.591 377.257 20.8086 377.098 20.9829C376.938 21.1572 376.731 21.2804 376.501 21.337C376.272 21.3936 376.03 21.3811 375.808 21.3011C375.586 21.221 375.392 21.077 375.251 20.8871C375.111 20.6972 375.029 20.4699 375.017 20.2339C375.005 19.9978 375.063 19.7635 375.184 19.5604C375.305 19.3574 375.483 19.1946 375.697 19.0925C375.84 19.024 375.995 18.9846 376.154 18.9766C376.312 18.9686 376.471 18.9922 376.62 19.0459C376.769 19.0997 376.906 19.1826 377.023 19.2898C377.14 19.3969 377.235 19.5263 377.302 19.6703Z" stroke="#263238" stroke-linecap="round" stroke-linejoin="round"/>
<path d="M392.816 33.3237L392.795 35.9987L392.655 36.1485L392.495 36.3197L391.928 36.8975L389.242 36.8761L389.253 33.3237H392.816Z" stroke="#263238" stroke-linecap="round" stroke-linejoin="round"/>
<path d="M392.796 35.9985V36.6298V36.8973H391.93L392.497 36.3195L392.657 36.1483L392.796 35.9985Z" stroke="#5C5C5C" stroke-miterlimit="10"/>
<path d="M417.018 42.7608L421.512 54.595L411.069 65.0596L399.235 60.6084L390.867 37.9565L392.494 36.3194L392.654 36.1482L394.334 34.4683L417.018 42.7608Z" stroke="#263238" stroke-linecap="round" stroke-linejoin="round"/>
<path d="M435.445 62.1066L419.502 78.0817L411.07 65.0705L421.514 54.5952L435.445 62.1066Z" stroke="#263238" stroke-linecap="round" stroke-linejoin="round"/>
<path d="M416.27 63.872L422.7 57.4199L428.692 60.6192" stroke="#263238" stroke-linecap="round" stroke-linejoin="round"/>
<path d="M414.27 65.8837L414.912 65.231" stroke="#263238" stroke-linecap="round" stroke-linejoin="round"/>
<path d="M105.702 46.72C104.926 44.6692 103.749 42.7935 102.24 41.2025C100.731 39.6114 98.9203 38.3368 96.9134 37.4532C94.9066 36.5695 92.7438 36.0945 90.5514 36.0558C88.359 36.0171 86.1808 36.4155 84.1441 37.2278C82.1073 38.0401 80.2528 39.25 78.6887 40.7868C77.1246 42.3236 75.8824 44.1566 75.0344 46.1788C74.1865 48.201 73.7498 50.3718 73.75 52.5646C73.7502 54.7573 74.1871 56.9281 75.0354 58.9501C77.4857 65.0919 84.0341 67.2962 89.0631 70.9235C90.6253 72.0577 92.7653 77.7287 92.7653 77.7287L105.819 72.5498C105.819 72.5498 103.465 66.9644 103.829 65.0598C104.92 58.9822 108.152 52.8725 105.702 46.72Z" stroke="#263238" stroke-linecap="round" stroke-linejoin="round"/>
<path d="M93.1158 78.5941L106.126 73.4062L106.261 73.7441C106.439 74.1917 106.527 74.6702 106.52 75.152C106.512 75.6338 106.409 76.1094 106.217 76.5513C106.025 76.9931 105.747 77.3925 105.4 77.7264C105.052 78.0603 104.642 78.3221 104.193 78.4967L97.9613 80.9816C97.0625 81.34 96.058 81.3267 95.169 80.9446C94.2799 80.5624 93.5791 79.8427 93.2207 78.9439L93.0859 78.606L93.1158 78.5941Z" stroke="#263238" stroke-linecap="round" stroke-linejoin="round"/>
<path opacity="0.5" d="M93.1158 78.5941L106.126 73.4062L106.261 73.7441C106.439 74.1917 106.527 74.6702 106.52 75.152C106.512 75.6338 106.409 76.1094 106.217 76.5513C106.025 76.9931 105.747 77.3925 105.4 77.7264C105.052 78.0603 104.642 78.3221 104.193 78.4967L97.9613 80.9816C97.0625 81.34 96.058 81.3267 95.169 80.9446C94.2799 80.5624 93.5791 79.8427 93.2207 78.9439L93.0859 78.606L93.1158 78.5941Z" stroke="#263238" stroke-linecap="round" stroke-linejoin="round"/>
<path d="M98.4102 81.8281L104.493 79.4037L104.604 79.682C104.896 80.4148 104.885 81.2337 104.574 81.9584C104.262 82.6832 103.675 83.2544 102.942 83.5465L102.396 83.7644C101.663 84.0565 100.844 84.0455 100.119 83.7338C99.3943 83.4221 98.8231 82.8353 98.531 82.1025L98.4201 81.8242L98.4102 81.8281Z" stroke="#263238" stroke-linecap="round" stroke-linejoin="round"/>
<path opacity="0.2" d="M98.4102 81.8281L104.493 79.4037L104.604 79.682C104.896 80.4148 104.885 81.2337 104.574 81.9584C104.262 82.6832 103.675 83.2544 102.942 83.5465L102.396 83.7644C101.663 84.0565 100.844 84.0455 100.119 83.7338C99.3943 83.4221 98.8231 82.8353 98.531 82.1025L98.4201 81.8242L98.4102 81.8281Z" stroke="#263238" stroke-linecap="round" stroke-linejoin="round"/>
<path d="M81.3359 17.8086L85.113 31.9326" stroke="#263238" stroke-linecap="round" stroke-linejoin="round"/>
<path d="M79.8086 12.1055L80.579 14.9838" stroke="#263238" stroke-linecap="round" stroke-linejoin="round"/>
<path d="M64.9557 58.9927L50.5 62.8661" stroke="#263238" stroke-linecap="round" stroke-linejoin="round"/>
<path d="M70.3253 57.5591L67.875 58.2118" stroke="#263238" stroke-linecap="round" stroke-linejoin="round"/>
<path d="M125.872 42.6646L110.742 46.7199" stroke="#263238" stroke-linecap="round" stroke-linejoin="round"/>
<path d="M130.557 41.4126L128.406 41.9904" stroke="#263238" stroke-linecap="round" stroke-linejoin="round"/>
<path d="M80.0738 70.2598L69.8125 88.0325" stroke="#263238" stroke-linecap="round" stroke-linejoin="round"/>
<path d="M111.253 16.2466L100.992 34.0193" stroke="#263238" stroke-linecap="round" stroke-linejoin="round"/>
<path d="M72.4026 41.6803L54.6406 31.4189" stroke="#263238" stroke-linecap="round" stroke-linejoin="round"/>
<path d="M111.353 64.1608L108.656 62.5986" stroke="#263238" stroke-linecap="round" stroke-linejoin="round"/>
<path d="M126.428 72.86L113.812 65.584" stroke="#263238" stroke-linecap="round" stroke-linejoin="round"/>
</svg>
