<svg width="32" height="32" viewBox="0 0 32 32" fill="none" xmlns="http://www.w3.org/2000/svg">
<g clip-path="url(#clip0_744_3)">
<path d="M16 28C14.4241 28 12.8637 27.6896 11.4078 27.0866C9.95189 26.4835 8.62902 25.5996 7.51472 24.4853C6.40042 23.371 5.5165 22.0481 4.91345 20.5922C4.31039 19.1363 4 17.5759 4 16C4 14.4241 4.31039 12.8637 4.91345 11.4078C5.5165 9.95189 6.40042 8.62902 7.51472 7.51472C8.62902 6.40042 9.95189 5.5165 11.4078 4.91345C12.8637 4.31039 14.4241 4 16 4C19.1826 4 22.2348 5.12381 24.4853 7.12419C26.7357 9.12458 28 11.8377 28 14.6667C28 16.0812 27.3679 17.4377 26.2426 18.4379C25.1174 19.4381 23.5913 20 22 20H18.6667C18.0718 19.9904 17.4908 20.18 17.0162 20.5387C16.5415 20.8973 16.2004 21.4044 16.0471 21.9792C15.8938 22.5541 15.9371 23.1637 16.1702 23.711C16.4033 24.2584 16.8127 24.7121 17.3333 25C17.5996 25.2457 17.7821 25.5685 17.8554 25.9233C17.9287 26.278 17.8889 26.6468 17.7418 26.9778C17.5947 27.3089 17.3476 27.5855 17.0352 27.7688C16.7227 27.9521 16.3607 28.033 16 28Z" stroke="#0A2B51" stroke-width="2" stroke-linecap="round" stroke-linejoin="round"/>
<path d="M10.0007 14.6666C10.3688 14.6666 10.6673 14.3682 10.6673 14C10.6673 13.6318 10.3688 13.3333 10.0007 13.3333C9.63246 13.3333 9.33398 13.6318 9.33398 14C9.33398 14.3682 9.63246 14.6666 10.0007 14.6666Z" fill="black" stroke="#0A2B51" stroke-width="2" stroke-linecap="round" stroke-linejoin="round"/>
<path d="M16.0007 10.6667C16.3688 10.6667 16.6673 10.3682 16.6673 10C16.6673 9.63185 16.3688 9.33337 16.0007 9.33337C15.6325 9.33337 15.334 9.63185 15.334 10C15.334 10.3682 15.6325 10.6667 16.0007 10.6667Z" fill="black" stroke="#0A2B51" stroke-width="2" stroke-linecap="round" stroke-linejoin="round"/>
<path d="M22.0007 14.6666C22.3688 14.6666 22.6673 14.3682 22.6673 14C22.6673 13.6318 22.3688 13.3333 22.0007 13.3333C21.6325 13.3333 21.334 13.6318 21.334 14C21.334 14.3682 21.6325 14.6666 22.0007 14.6666Z" fill="black" stroke="#0A2B51" stroke-width="2" stroke-linecap="round" stroke-linejoin="round"/>
</g>
<defs>
<clipPath id="clip0_744_3">
<rect width="32" height="32" fill="white"/>
</clipPath>
</defs>
</svg>
