<svg width="32" height="32" viewBox="0 0 32 32" fill="none" xmlns="http://www.w3.org/2000/svg">
<g clip-path="url(#clip0_744_25)">
<path d="M16 28C22.6274 28 28 22.6274 28 16C28 9.37258 22.6274 4 16 4C9.37258 4 4 9.37258 4 16C4 22.6274 9.37258 28 16 28Z" stroke="#0A2B51" stroke-width="2" stroke-linecap="round" stroke-linejoin="round"/>
<path d="M12 13.3333H12.0133" stroke="#0A2B51" stroke-width="2" stroke-linecap="round" stroke-linejoin="round"/>
<path d="M20 13.3333H20.0133" stroke="#0A2B51" stroke-width="2" stroke-linecap="round" stroke-linejoin="round"/>
<path d="M12.666 20C13.1005 20.4435 13.6191 20.7958 14.1915 21.0363C14.7639 21.2768 15.3785 21.4007 15.9993 21.4007C16.6202 21.4007 17.2348 21.2768 17.8072 21.0363C18.3796 20.7958 18.8982 20.4435 19.3327 20" stroke="#0A2B51" stroke-width="2" stroke-linecap="round" stroke-linejoin="round"/>
</g>
<defs>
<clipPath id="clip0_744_25">
<rect width="32" height="32" fill="white"/>
</clipPath>
</defs>
</svg>
