<svg width="755" height="298" viewBox="0 0 755 298" fill="none" xmlns="http://www.w3.org/2000/svg">
<g opacity="0.02">
<path d="M544.158 264.129C544.158 271.911 542.829 287.376 538.33 293.462C495.795 350.332 471.869 418.178 399.068 418.178C348.251 418.178 303.568 390.641 277.699 348.736L273.303 341.253C260.829 318.505 253.773 292.265 253.773 264.029C253.773 209.253 280.562 161.262 321.155 134.024L391.808 254.65V254.949L394.365 259.04C394.467 259.739 395.08 260.337 395.285 260.936C396.001 262.133 396.819 263.33 397.534 264.428L519.823 178.423C535.16 202.968 544.158 232.401 544.158 263.929V264.129Z" fill="#0A2B51"/>
<path d="M701.927 50.2979L542.522 287.159L540.068 290.851L538.227 293.445C529.945 299.032 521.254 303.322 512.052 306.216C498.351 310.606 484.036 312.102 469.926 310.506C441.807 307.413 415.018 292.148 397.432 264.61L519.72 178.606L701.824 50.3976L701.927 50.2979Z" fill="#0A2B51"/>
<path d="M397.54 264.509L277.705 348.717L273.308 341.234L245.19 292.844L221.571 251.937L190.283 197.76L186.398 190.976L150.406 128.618H317.889L321.058 134.005L391.712 254.631V254.93L394.268 259.021C394.37 259.72 394.984 260.318 395.188 260.917C395.904 262.114 396.722 263.311 397.438 264.409L397.54 264.509Z" fill="#0A2B51"/>
<path d="M753.875 103.387L752.751 84.7299L739.049 71.061C736.8 68.7662 734.448 66.5712 732.199 64.5757L642.118 179.814C626.167 335.959 525.146 473.745 374.228 543.287H374.024C212.063 467.26 108.485 309.918 108.485 135.913V128.331L109.405 127.433C119.324 118.453 129.651 109.873 140.387 101.991C206.746 52.5032 287.931 25.764 373.921 25.5645V25.8638C452.857 25.8638 527.498 47.4148 590.994 87.9226L689.97 28.2583C601.628 -39.9865 489.564 -78 374.228 -78C238.647 -78 107.872 -23.8232 15.4395 70.8614L2.04496 84.5304L0.920233 103.188C0.306744 113.864 0 124.938 0 135.814C0 358.906 138.546 559.949 353.063 648.049L374.024 656.729H374.228L395.7 648.049C613.795 560.049 755 359.106 755 136.213C755 125.238 754.489 114.363 753.875 103.487V103.387Z" fill="#0A2B51"/>
</g>
</svg>
