<svg width="36" height="36" viewBox="0 0 36 36" fill="none" xmlns="http://www.w3.org/2000/svg">
<path d="M17.9984 20.1004L10.3859 27.7129C10.0859 28.0129 9.73594 28.1629 9.33594 28.1629C8.93594 28.1629 8.58594 28.0129 8.28594 27.7129C7.98594 27.4129 7.83594 27.0629 7.83594 26.6629C7.83594 26.2629 7.98594 25.9129 8.28594 25.6129L15.8984 18.0004L8.28594 10.3879C7.98594 10.0879 7.83594 9.73789 7.83594 9.33789C7.83594 8.93789 7.98594 8.58789 8.28594 8.28789C8.58594 7.98789 8.93594 7.83789 9.33594 7.83789C9.73594 7.83789 10.0859 7.98789 10.3859 8.28789L17.9984 15.9004L25.6109 8.28789C25.9109 7.98789 26.2609 7.83789 26.6609 7.83789C27.0609 7.83789 27.4109 7.98789 27.7109 8.28789C28.0109 8.58789 28.1609 8.93789 28.1609 9.33789C28.1609 9.73789 28.0109 10.0879 27.7109 10.3879L20.0984 18.0004L27.7109 25.6129C28.0109 25.9129 28.1609 26.2629 28.1609 26.6629C28.1609 27.0629 28.0109 27.4129 27.7109 27.7129C27.4109 28.0129 27.0609 28.1629 26.6609 28.1629C26.2609 28.1629 25.9109 28.0129 25.6109 27.7129L17.9984 20.1004Z" fill="#0A2B51"/>
</svg>
