<svg width="484" height="409" viewBox="0 0 484 409" fill="none" xmlns="http://www.w3.org/2000/svg">
<path d="M106.323 409.499C106.323 409.499 163.167 439.049 228.131 407.896C293.095 376.744 314.241 316.336 347.9 271.014C365.558 247.263 394.443 234.031 416.483 214.062C486.94 150.199 461.5 43.4332 397.059 14.134C341.24 -11.2303 276.767 -2.13974 196.88 40.7954C116.994 83.7305 59.4314 111.449 17.4882 197.014C-24.455 282.579 35.6476 368.09 106.323 409.499Z" fill="#0A2B51"/>
<path d="M106.323 409.499C106.323 409.499 163.167 439.049 228.131 407.896C293.095 376.744 314.241 316.336 347.9 271.014C365.558 247.263 394.443 234.031 416.483 214.062C486.94 150.199 461.5 43.4332 397.059 14.134C341.24 -11.2303 276.767 -2.13974 196.88 40.7954C116.994 83.7305 59.4314 111.449 17.4882 197.014C-24.455 282.579 35.6476 368.09 106.323 409.499Z" fill="#F3F4F6"/>
<path d="M10.9609 336.403H450.285" stroke="#263238" stroke-miterlimit="10"/>
<path d="M10.9609 253.226H450.285" stroke="#263238" stroke-miterlimit="10"/>
<path d="M10.9609 170.048H450.285" stroke="#263238" stroke-miterlimit="10"/>
<path d="M10.9609 86.8698H450.285" stroke="#263238" stroke-miterlimit="10"/>
<path d="M110.848 39.64V336.6" stroke="#263238" stroke-miterlimit="10"/>
<path d="M374.91 39.64V336.6" stroke="#263238" stroke-miterlimit="10"/>
<path d="M120.657 149.719L117.387 153.164" stroke="#263238" stroke-miterlimit="10"/>
<path d="M176.347 90.9899L124.594 145.566" stroke="#263238" stroke-miterlimit="10"/>
<path d="M179.57 99.8734L150.5 129.75" stroke="#263238" stroke-miterlimit="10"/>
<path d="M386.215 149.719L382.945 153.164" stroke="#263238" stroke-miterlimit="10"/>
<path d="M441.891 90.9899L390.148 145.566" stroke="#263238" stroke-miterlimit="10"/>
<path d="M445.129 99.8734L416.059 129.75" stroke="#263238" stroke-miterlimit="10"/>
<path d="M4.37547 317.688L1.10547 321.133" stroke="#263238" stroke-miterlimit="10"/>
<path d="M60.0548 258.948L8.3125 313.535" stroke="#263238" stroke-miterlimit="10"/>
<path d="M63.2921 267.832L34.2109 297.719" stroke="#263238" stroke-miterlimit="10"/>
<path d="M47.1693 78.662L43.9102 82.1064" stroke="#263238" stroke-miterlimit="10"/>
<path d="M102.856 19.9219L51.1133 74.4982" stroke="#263238" stroke-miterlimit="10"/>
<path d="M106.082 28.8054L77.0117 58.6823" stroke="#263238" stroke-miterlimit="10"/>
<path d="M289.15 78.662L285.891 82.1064" stroke="#263238" stroke-miterlimit="10"/>
<path d="M344.836 19.9219L293.094 74.4982" stroke="#263238" stroke-miterlimit="10"/>
<path d="M348.062 28.8054L318.992 58.6823" stroke="#263238" stroke-miterlimit="10"/>
<path d="M214.333 236.123L211.062 239.568" stroke="#263238" stroke-miterlimit="10"/>
<path d="M270.008 177.394L218.266 231.971" stroke="#263238" stroke-miterlimit="10"/>
<path d="M273.246 186.278L244.176 216.155" stroke="#263238" stroke-miterlimit="10"/>
<path d="M437.435 397.868C437.435 397.868 410.446 340.36 416.31 338.703C422.175 337.046 434.47 346.202 434.47 346.202C434.47 346.202 398.391 249.519 407.732 242.02C417.073 234.521 434.513 272.9 434.513 272.9C434.513 272.9 415.885 213.68 418.076 191.15C420.267 168.62 443.931 190.322 443.931 190.322C443.931 190.322 424.976 109.476 442.579 105.302C460.183 101.127 459.594 197.81 459.594 197.81C459.594 197.81 465.371 128.628 472.424 147.801C479.476 166.974 464.652 231.142 464.652 231.142C464.652 231.142 474.32 209.473 479.694 229.474C485.068 249.476 469.012 330.321 469.012 330.321C469.012 330.321 482.659 316.99 483.934 333.657C485.209 350.323 455.681 402 455.681 402L438.972 403.7L437.435 397.868Z" fill="#0A2B51"/>
<path d="M437.435 397.868C437.435 397.868 410.446 340.36 416.31 338.703C422.175 337.046 434.47 346.202 434.47 346.202C434.47 346.202 398.391 249.519 407.732 242.02C417.073 234.521 434.513 272.9 434.513 272.9C434.513 272.9 415.885 213.68 418.076 191.15C420.267 168.62 443.931 190.322 443.931 190.322C443.931 190.322 424.976 109.476 442.579 105.302C460.183 101.127 459.594 197.81 459.594 197.81C459.594 197.81 465.371 128.628 472.424 147.801C479.476 166.974 464.652 231.142 464.652 231.142C464.652 231.142 474.32 209.473 479.694 229.474C485.068 249.476 469.012 330.321 469.012 330.321C469.012 330.321 482.659 316.99 483.934 333.657C485.209 350.323 455.681 402 455.681 402L438.972 403.7L437.435 397.868Z" fill="#A1FFA1"/>
<path d="M443.198 400.43C443.198 400.43 420.7 360.427 424.864 352.917C429.028 345.407 441.53 362.923 441.53 362.923C441.53 362.923 413.19 292.073 417.365 285.413C421.54 278.753 434.87 307.922 434.87 307.922C434.87 307.922 429.867 210.41 438.195 213.735C446.523 217.059 447.329 263.689 447.329 263.689C447.329 263.689 442.337 152.847 449.836 156.183C457.335 159.518 456.507 282.863 456.507 282.863C456.507 282.863 471.505 235.35 474.001 257.019C476.498 278.688 454.839 337.036 454.839 337.036C454.839 337.036 475.669 291.19 478.209 315.41C480.749 339.63 461.499 384.538 461.499 384.538C461.499 384.538 468.998 366.204 468.998 376.199C468.998 386.195 463.167 398.708 463.167 398.708" stroke="#263238" stroke-linecap="round" stroke-linejoin="round"/>
<path d="M381.299 276.432L411.655 342.682L392.558 348.066L370.039 320.032L381.299 276.432Z" fill="#0A2B51"/>
<mask id="mask0_1046_9" style="mask-type:luminance" maskUnits="userSpaceOnUse" x="370" y="276" width="42" height="73">
<path d="M381.299 276.432L411.655 342.682L392.558 348.066L370.039 320.032L381.299 276.432Z" fill="white"/>
</mask>
<g mask="url(#mask0_1046_9)">
<g opacity="0.1">
<path d="M375.814 297.643L374.527 302.646L399.739 346.039L403.358 345.025L375.814 297.643Z" fill="black"/>
<path d="M392.699 348.034L396.339 347.009L372.882 309.001L371.629 313.873L392.699 348.034Z" fill="black"/>
<path d="M378.931 285.577L377.602 290.743L406.552 344.121L410.127 343.107L378.931 285.577Z" fill="black"/>
</g>
</g>
<path d="M381.299 276.432L411.655 342.682L392.558 348.066L370.039 320.032L381.299 276.432Z" stroke="#263238" stroke-linecap="round" stroke-linejoin="round"/>
<path d="M320.921 257.978L281.387 276.192L302.467 361.724L295.753 397.705H370.756L363.333 358.607L381.536 276.432L340.083 259.417L320.921 257.978Z" fill="#0A2B51"/>
<mask id="mask1_1046_9" style="mask-type:luminance" maskUnits="userSpaceOnUse" x="281" y="257" width="101" height="141">
<path d="M320.921 257.978L281.387 276.192L302.467 361.724L295.753 397.705H370.756L363.333 358.607L381.536 276.432L340.083 259.417L320.921 257.978Z" fill="white"/>
</mask>
<g mask="url(#mask1_1046_9)">
<g opacity="0.1">
<path d="M321.283 397.705L322.798 363.632C322.814 363.472 322.814 363.311 322.798 363.152L307.266 264.278L302.688 266.382L317.948 363.664L316.432 397.705H321.283Z" fill="black"/>
<path d="M330.373 355.478C330.373 355.478 330.373 355.391 330.373 355.348L318.056 259.297L313.445 261.477L325.544 355.947L328.662 397.759H333.523L330.373 355.478Z" fill="black"/>
<path d="M307.57 397.705L311.93 364.449C311.968 364.203 311.968 363.953 311.93 363.708L295.307 269.804L290.762 271.897L307.112 364.187L302.752 397.705H307.57Z" fill="black"/>
<path d="M379.813 275.723L375.246 273.848L358.58 360.035C358.531 360.316 358.531 360.604 358.58 360.885L364.575 397.705H369.491L363.398 360.536L363.539 359.827L363.299 358.607L366.951 342.159L379.813 275.723Z" fill="black"/>
<path d="M336.129 267.766L331.289 267.908L335.311 397.705H340.151L336.129 267.766Z" fill="black"/>
<path d="M353.119 359.904L369.219 271.374L364.641 269.488L348.291 359.457C348.236 359.734 348.236 360.019 348.291 360.296L354.678 397.705H359.594L353.119 359.904Z" fill="black"/>
<path d="M344.324 356.895L356.565 266.175L351.933 264.278L339.485 356.547C339.458 356.742 339.458 356.94 339.485 357.135L343.997 397.705H348.87L344.324 356.895Z" fill="black"/>
</g>
</g>
<path d="M320.921 257.978L281.387 276.192L302.467 361.724L295.753 397.705H370.756L363.333 358.607L381.536 276.432L340.083 259.417L320.921 257.978Z" stroke="#263238" stroke-linecap="round" stroke-linejoin="round"/>
<path d="M281.387 276.192L250.246 343.63L270.128 347.827L292.647 319.792L281.387 276.192Z" fill="#0A2B51"/>
<mask id="mask2_1046_9" style="mask-type:luminance" maskUnits="userSpaceOnUse" x="250" y="276" width="43" height="72">
<path d="M281.387 276.192L250.246 343.63L270.128 347.827L292.647 319.792L281.387 276.192Z" fill="white"/>
</mask>
<g mask="url(#mask2_1046_9)">
<g opacity="0.1">
<path d="M289.574 307.889L267.883 347.358L270.128 347.827L275.317 341.363L290.893 313.023L289.574 307.889Z" fill="black"/>
<path d="M287.622 300.346L286.205 294.853L261.996 346.115L265.648 346.889L287.622 300.346Z" fill="black"/>
<path d="M254.094 344.437L257.745 345.211L284.527 288.345L283.099 282.83L254.094 344.437Z" fill="black"/>
</g>
<path d="M280.571 287.419L291.558 316.903L280.527 300.019" stroke="#263238" stroke-miterlimit="10"/>
</g>
<path d="M281.387 276.192L250.246 343.63L270.128 347.827L292.647 319.792L281.387 276.192Z" stroke="#263238" stroke-linecap="round" stroke-linejoin="round"/>
<path d="M271.555 337.766L310.849 382.576L303.219 391.198L253.701 351.761C253.701 351.761 246.91 348.491 250.987 341.842" fill="#0A2B51"/>
<mask id="mask3_1046_9" style="mask-type:luminance" maskUnits="userSpaceOnUse" x="249" y="337" width="62" height="55">
<path d="M271.555 337.766L310.849 382.576L303.219 391.198L253.701 351.761C253.701 351.761 246.91 348.491 250.987 341.842" fill="white"/>
</mask>
<g mask="url(#mask3_1046_9)">
<g opacity="0.1">
<path d="M306.731 385.693L310.415 382.543L290.599 359.479L271.557 337.766L266.434 338.78L306.731 385.693Z" fill="black"/>
<path d="M298.882 387.764L302.163 390.38L305.248 387.666L262.869 339.488L257.375 340.567L298.882 387.764Z" fill="black"/>
</g>
</g>
<path d="M271.555 337.766L310.849 382.576L303.219 391.198L253.701 351.761C253.701 351.761 246.91 348.491 250.987 341.842" stroke="#263238" stroke-linecap="round" stroke-linejoin="round"/>
<path d="M304.54 380.886C305.63 380.276 324.585 375.742 324.846 378.063C325.108 380.385 330.754 382.946 333.326 382.946C335.899 382.946 338.471 380.886 338.984 383.971C339.496 387.056 336.673 387.317 334.362 387.568C332.051 387.819 324.072 385.257 324.072 385.257C324.072 385.257 316.617 391.427 313.532 392.964C310.447 394.5 304.812 394.054 302.741 392.451C300.67 390.849 297.869 384.483 304.54 380.886Z" fill="white" stroke="#263238" stroke-linecap="round" stroke-linejoin="round"/>
<path d="M322.035 377.802C322.035 377.802 329.229 375.742 330.755 376.515C332.281 377.289 333.077 392.713 333.077 392.713C333.077 392.713 332.303 394.25 330.755 392.713C329.207 391.176 324.073 379.633 324.073 379.633" fill="white"/>
<path d="M322.035 377.802C322.035 377.802 329.229 375.742 330.755 376.515C332.281 377.289 333.077 392.713 333.077 392.713C333.077 392.713 332.303 394.25 330.755 392.713C329.207 391.176 324.073 379.633 324.073 379.633" stroke="#263238" stroke-linecap="round" stroke-linejoin="round"/>
<path d="M318.427 378.314C318.427 378.314 325.883 376.515 327.43 379.339C328.978 382.162 332.826 394.762 329.741 395.285C326.656 395.808 325.632 391.677 325.632 391.677L320.749 382.685L317.402 382.173" fill="white"/>
<path d="M318.427 378.314C318.427 378.314 325.883 376.515 327.43 379.339C328.978 382.162 332.826 394.762 329.741 395.285C326.656 395.808 325.632 391.677 325.632 391.677L320.749 382.685L317.402 382.173" stroke="#263238" stroke-linecap="round" stroke-linejoin="round"/>
<path d="M315.863 380.625C315.863 380.625 319.46 379.088 321.259 380.374C323.057 381.66 331.287 394.762 329.739 395.285C328.191 395.808 324.594 395.536 324.082 394.511C323.57 393.487 316.888 384.701 316.888 384.701" fill="white"/>
<path d="M315.863 380.625C315.863 380.625 319.46 379.088 321.259 380.374C323.057 381.66 331.287 394.762 329.739 395.285C328.191 395.808 324.594 395.536 324.082 394.511C323.57 393.487 316.888 384.701 316.888 384.701" stroke="#263238" stroke-linecap="round" stroke-linejoin="round"/>
<path d="M313.262 384.996C313.262 384.996 316.597 381.911 318.396 382.946C320.194 383.982 327.65 393.737 326.113 394.762C324.576 395.787 323.54 394.762 322.004 392.713C320.901 391.331 319.601 390.119 318.145 389.116L315.06 390.14" fill="white"/>
<path d="M313.262 384.996C313.262 384.996 316.597 381.911 318.396 382.946C320.194 383.982 327.65 393.737 326.113 394.762C324.576 395.787 323.54 394.762 322.004 392.713C320.901 391.331 319.601 390.119 318.145 389.116L315.06 390.14" stroke="#263238" stroke-linecap="round" stroke-linejoin="round"/>
<path d="M389.213 339.205L376.133 383.709L385.594 390.315L406.969 355.958C406.969 355.958 415.754 346.039 410.239 340.458" fill="#0A2B51"/>
<mask id="mask4_1046_9" style="mask-type:luminance" maskUnits="userSpaceOnUse" x="376" y="339" width="37" height="52">
<path d="M389.213 339.205L376.133 383.709L385.594 390.315L406.969 355.958C406.969 355.958 415.754 346.039 410.239 340.458" fill="white"/>
</mask>
<g mask="url(#mask4_1046_9)">
<g opacity="0.1">
<path d="M385.889 389.781L386.053 389.508L404.158 340.098L399.1 339.793L381.605 387.557L383.567 388.92L385.889 389.781Z" fill="black"/>
<path d="M376.156 383.742L380.266 386.62L397.161 339.815L396.692 339.652L392.168 339.379L376.156 383.742Z" fill="black"/>
<path d="M411.732 343.063C411.443 342.079 410.911 341.183 410.185 340.458L407.59 340.306L393.922 376.919L406.915 356.012L411.732 343.063Z" fill="black"/>
</g>
</g>
<path d="M389.213 339.205L376.133 383.709L385.594 390.315L406.969 355.958C406.969 355.958 415.754 346.039 410.239 340.458" stroke="#263238" stroke-linecap="round" stroke-linejoin="round"/>
<path d="M382.716 380.886C381.626 380.276 362.66 375.742 362.409 378.063C362.158 380.385 356.49 382.946 353.929 382.946C351.367 382.946 348.784 380.886 348.272 383.971C347.76 387.056 350.583 387.317 352.893 387.568C355.204 387.819 363.183 385.257 363.183 385.257C363.183 385.257 370.639 391.427 373.723 392.964C376.808 394.5 382.443 394.054 384.514 392.451C386.585 390.849 389.398 384.483 382.716 380.886Z" fill="white" stroke="#263238" stroke-linecap="round" stroke-linejoin="round"/>
<path d="M365.23 377.802C365.23 377.802 358.036 375.742 356.51 376.515C354.984 377.289 354.199 392.713 354.199 392.713C354.199 392.713 354.973 394.25 356.51 392.713C358.047 391.176 363.203 379.633 363.203 379.633" fill="white"/>
<path d="M365.23 377.802C365.23 377.802 358.036 375.742 356.51 376.515C354.984 377.289 354.199 392.713 354.199 392.713C354.199 392.713 354.973 394.25 356.51 392.713C358.047 391.176 363.203 379.633 363.203 379.633" stroke="#263238" stroke-linecap="round" stroke-linejoin="round"/>
<path d="M368.85 378.314C368.85 378.314 361.406 376.515 359.858 379.339C358.31 382.162 354.408 394.762 357.547 395.285C360.686 395.808 361.656 391.677 361.656 391.677L366.54 382.685L369.886 382.173" fill="white"/>
<path d="M368.85 378.314C368.85 378.314 361.406 376.515 359.858 379.339C358.31 382.162 354.408 394.762 357.547 395.285C360.686 395.808 361.656 391.677 361.656 391.677L366.54 382.685L369.886 382.173" stroke="#263238" stroke-linecap="round" stroke-linejoin="round"/>
<path d="M371.4 380.625C371.4 380.625 367.803 379.088 366.005 380.374C364.206 381.66 355.977 394.762 357.525 395.285C359.073 395.808 362.659 395.536 363.182 394.511C363.705 393.487 370.376 384.701 370.376 384.701" fill="white"/>
<path d="M371.4 380.625C371.4 380.625 367.803 379.088 366.005 380.374C364.206 381.66 355.977 394.762 357.525 395.285C359.073 395.808 362.659 395.536 363.182 394.511C363.705 393.487 370.376 384.701 370.376 384.701" stroke="#263238" stroke-linecap="round" stroke-linejoin="round"/>
<path d="M373.973 384.996C373.973 384.996 370.637 381.9 368.85 382.99C367.062 384.08 359.596 393.781 361.143 394.806C362.691 395.83 363.716 394.806 365.253 392.756C366.355 391.374 367.655 390.162 369.111 389.159L372.196 390.184" fill="white"/>
<path d="M373.973 384.996C373.973 384.996 370.637 381.9 368.85 382.99C367.062 384.08 359.596 393.781 361.143 394.806C362.691 395.83 363.716 394.806 365.253 392.756C366.355 391.374 367.655 390.162 369.111 389.159L372.196 390.184" stroke="#263238" stroke-linecap="round" stroke-linejoin="round"/>
<path d="M323.789 253.422C323.789 253.422 317.565 255.34 314.927 259.177C312.289 263.014 315.407 292.716 315.407 292.716L335.299 281.696L356.14 294.874C356.14 294.874 354.221 264.453 352.543 260.136C350.864 255.82 340.324 250.795 336.727 251.274C333.13 251.754 323.789 253.422 323.789 253.422Z" fill="#0A2B51" stroke="#263238" stroke-linecap="round" stroke-linejoin="round"/>
<path d="M320.922 236.897V264.452L334.1 299.91L345.36 263.733V236.657L320.922 236.897Z" fill="white" stroke="#263238" stroke-linecap="round" stroke-linejoin="round"/>
<path d="M320.891 246.794C324.61 249.404 329.045 250.802 333.589 250.795C337.743 250.798 341.812 249.627 345.328 247.416V236.657L320.891 236.93V246.794Z" fill="#263238" stroke="#263238" stroke-linecap="round" stroke-linejoin="round"/>
<path d="M333.62 244.56C327.734 244.56 322.088 242.222 317.924 238.061C313.76 233.899 311.42 228.254 311.417 222.368L307.504 191.15C307.504 184.212 310.26 177.558 315.166 172.652C320.072 167.746 326.726 164.99 333.664 164.99C340.602 164.99 347.256 167.746 352.162 172.652C357.068 177.558 359.824 184.212 359.824 191.15L355.769 222.324C355.775 225.238 355.206 228.125 354.097 230.82C352.987 233.515 351.357 235.964 349.3 238.029C347.243 240.094 344.8 241.733 342.11 242.854C339.419 243.975 336.535 244.554 333.62 244.56Z" fill="white" stroke="#263238" stroke-linecap="round" stroke-linejoin="round"/>
<path d="M339.32 213.822C339.32 213.822 344.977 209.08 351.735 214.193" stroke="#263238" stroke-linecap="round" stroke-linejoin="round"/>
<path d="M329.099 213.277C327.418 212.207 325.418 211.756 323.441 212.002" stroke="#263238" stroke-linecap="round" stroke-linejoin="round"/>
<path d="M341.512 202.508C341.512 202.508 347.539 199.587 351.191 205.244" stroke="#263238" stroke-linecap="round" stroke-linejoin="round"/>
<path d="M331.789 226.422C331.789 226.422 334.351 228.428 336.541 226.422" stroke="#263238" stroke-linecap="round" stroke-linejoin="round"/>
<path d="M329.281 230.804C329.281 230.804 334.579 234.074 337.674 230.804" stroke="#263238" stroke-linecap="round" stroke-linejoin="round"/>
<path d="M344.784 187.88C344.784 187.88 322.896 208.089 316.792 222.814C310.688 237.54 316.16 252.92 319.528 257.346C322.896 261.771 324.978 262.392 324.978 262.392C324.978 262.392 313.402 266.818 305.827 255.242C298.251 243.666 300.137 230.608 302.459 221.561C304.781 212.514 304.137 185.983 309.402 177.143C314.667 168.304 322.242 161.774 334.875 163.246C347.509 164.717 354.234 171.247 358.234 179.454C362.234 187.662 360.338 201.559 361.602 207.663C362.867 213.767 368.338 232.079 369.603 243.023C370.867 253.967 355.945 261.76 353.591 262.817C351.991 263.49 350.279 263.86 348.544 263.907C348.544 263.907 353.591 238.652 354.648 224.122C355.705 209.593 355.771 200.96 355.771 200.96C355.771 200.96 345.841 188.512 344.784 187.88Z" fill="#263238"/>
<mask id="mask5_1046_9" style="mask-type:luminance" maskUnits="userSpaceOnUse" x="300" y="163" width="70" height="101">
<path d="M344.784 187.88C344.784 187.88 322.896 208.089 316.792 222.814C310.688 237.54 316.16 252.92 319.528 257.346C322.896 261.771 324.978 262.392 324.978 262.392C324.978 262.392 313.402 266.818 305.827 255.242C298.251 243.666 300.137 230.608 302.459 221.561C304.781 212.514 304.137 185.983 309.402 177.143C314.667 168.304 322.242 161.774 334.875 163.246C347.509 164.717 354.234 171.247 358.234 179.454C362.234 187.662 360.338 201.559 361.602 207.663C362.867 213.767 368.338 232.079 369.603 243.023C370.867 253.967 355.945 261.76 353.591 262.817C351.991 263.49 350.279 263.86 348.544 263.907C348.544 263.907 353.591 238.652 354.648 224.122C355.705 209.593 355.771 200.96 355.771 200.96C355.771 200.96 345.841 188.512 344.784 187.88Z" fill="white"/>
</mask>
<g mask="url(#mask5_1046_9)">
<path d="M342.222 173.71C342.222 173.71 339.639 180.828 321.054 201.222C302.47 221.615 297.423 241.072 303.069 260.082" stroke="#707070" stroke-miterlimit="10"/>
<path d="M337.633 166.603C337.633 166.603 327.409 175.072 314.743 187.76C306.958 195.614 300.31 204.519 294.992 214.214" stroke="#707070" stroke-miterlimit="10"/>
<path d="M346.801 175.421C346.801 175.421 354.562 189.526 358.791 197.995C363.02 206.464 367.969 254.065 353.155 271.025" stroke="#707070" stroke-miterlimit="10"/>
<path d="M341.512 163.78L344.782 187.88" stroke="#707070" stroke-miterlimit="10"/>
</g>
<path d="M344.784 187.88C344.784 187.88 322.896 208.089 316.792 222.814C310.688 237.54 316.16 252.92 319.528 257.346C322.896 261.771 324.978 262.392 324.978 262.392C324.978 262.392 313.402 266.818 305.827 255.242C298.251 243.666 300.137 230.608 302.459 221.561C304.781 212.514 304.137 185.983 309.402 177.143C314.667 168.304 322.242 161.774 334.875 163.246C347.509 164.717 354.234 171.247 358.234 179.454C362.234 187.662 360.338 201.559 361.602 207.663C362.867 213.767 368.338 232.079 369.603 243.023C370.867 253.967 355.945 261.76 353.591 262.817C351.991 263.49 350.279 263.86 348.544 263.907C348.544 263.907 353.591 238.652 354.648 224.122C355.705 209.593 355.771 200.96 355.771 200.96C355.771 200.96 345.841 188.512 344.784 187.88Z" stroke="#263238" stroke-linecap="round" stroke-linejoin="round"/>
<path d="M305.347 201.985H302.121C300.339 201.985 298.895 203.429 298.895 205.211V218.128C298.895 219.909 300.339 221.354 302.121 221.354H305.347C307.129 221.354 308.574 219.909 308.574 218.128V205.211C308.574 203.429 307.129 201.985 305.347 201.985Z" fill="white" stroke="#263238" stroke-linecap="round" stroke-linejoin="round"/>
<path d="M364.5 201.985H361.273C359.491 201.985 358.047 203.429 358.047 205.211V218.128C358.047 219.909 359.491 221.354 361.273 221.354H364.5C366.282 221.354 367.726 219.909 367.726 218.128V205.211C367.726 203.429 366.282 201.985 364.5 201.985Z" fill="white" stroke="#263238" stroke-linecap="round" stroke-linejoin="round"/>
<path d="M363.727 201.985V191.455C363.727 183.306 360.489 175.49 354.727 169.728C348.965 163.965 341.149 160.728 333 160.728C324.849 160.728 317.033 163.965 311.269 169.727C305.504 175.489 302.265 183.305 302.262 191.455V201.985" stroke="#263238" stroke-width="2" stroke-linejoin="round"/>
<path d="M362.886 221.256C362.886 221.256 361.524 231.796 348.629 236.091" stroke="#263238" stroke-linecap="round" stroke-linejoin="round"/>
<path d="M348.139 235.633C348.684 237.213 347.147 239.175 344.694 239.993C342.242 240.81 339.833 240.254 339.244 238.674C338.656 237.093 340.236 235.131 342.678 234.314C345.119 233.496 347.626 234.052 348.139 235.633Z" stroke="#263238" stroke-linecap="round" stroke-linejoin="round"/>
<path d="M127.527 249.225L82.4883 270.687L95.4811 397.967H185.264L197.963 268.573L155.638 248.92L127.527 249.225Z" fill="#A1FFA1" stroke="#263238" stroke-linecap="round" stroke-linejoin="round"/>
<path d="M145.577 288.062C146.42 288.062 147.103 287.379 147.103 286.536C147.103 285.693 146.42 285.01 145.577 285.01C144.734 285.01 144.051 285.693 144.051 286.536C144.051 287.379 144.734 288.062 145.577 288.062Z" fill="#263238"/>
<path d="M147.103 295.692C147.103 295.994 147.013 296.289 146.846 296.54C146.678 296.791 146.44 296.986 146.161 297.102C145.882 297.217 145.575 297.248 145.279 297.189C144.983 297.13 144.711 296.984 144.498 296.771C144.284 296.558 144.139 296.286 144.08 295.99C144.021 295.694 144.051 295.387 144.167 295.108C144.282 294.829 144.478 294.591 144.729 294.423C144.98 294.256 145.275 294.166 145.577 294.166C145.982 294.166 146.37 294.327 146.656 294.613C146.942 294.899 147.103 295.287 147.103 295.692Z" fill="#263238"/>
<path d="M161.194 255.722L148.888 269.445L143.634 282.776L137.977 269.249L126.074 255.722V231.698H161.194V255.722Z" fill="white" stroke="#263238" stroke-linecap="round" stroke-linejoin="round"/>
<path d="M126.074 242.38C128.391 245.196 131.303 247.464 134.602 249.019C137.9 250.574 141.503 251.378 145.149 251.373C151.035 251.38 156.728 249.276 161.194 245.443V231.698H126.074V242.38Z" fill="#263238" stroke="#263238" stroke-linecap="round" stroke-linejoin="round"/>
<path d="M147.624 164.467H142.676C130.383 164.467 120.418 174.432 120.418 186.725V222.357C120.418 234.649 130.383 244.614 142.676 244.614H147.624C159.917 244.614 169.882 234.649 169.882 222.357V186.725C169.882 174.432 159.917 164.467 147.624 164.467Z" fill="white" stroke="#263238" stroke-linecap="round" stroke-linejoin="round"/>
<path d="M149.89 200.001L149.16 217.517C149.146 218.276 148.899 219.013 148.452 219.627C148.006 220.241 147.382 220.703 146.664 220.951C145.345 221.354 143.841 220.951 143.023 217.975" stroke="#263238" stroke-linecap="round" stroke-linejoin="round"/>
<path d="M135.59 224.428H155.21C155.21 224.428 151.776 231.905 145.116 231.905C138.457 231.905 135.59 224.428 135.59 224.428Z" fill="#263238" stroke="#263238" stroke-linecap="round" stroke-linejoin="round"/>
<path d="M136.985 227.055H153.509C154.138 226.234 154.685 225.354 155.144 224.428H135.59C135.962 225.35 136.43 226.23 136.985 227.055Z" fill="white" stroke="#263238" stroke-linecap="round" stroke-linejoin="round"/>
<path d="M135.362 207.882C136.145 207.882 136.779 206.388 136.779 204.546C136.779 202.704 136.145 201.211 135.362 201.211C134.58 201.211 133.945 202.704 133.945 204.546C133.945 206.388 134.58 207.882 135.362 207.882Z" fill="#263238"/>
<path d="M156.554 207.882C157.336 207.882 157.971 206.388 157.971 204.546C157.971 202.704 157.336 201.211 156.554 201.211C155.771 201.211 155.137 202.704 155.137 204.546C155.137 206.388 155.771 207.882 156.554 207.882Z" fill="#263238"/>
<path d="M152.117 195.761C152.117 195.761 156.957 192.731 162.418 197.581" stroke="#263238" stroke-linecap="round" stroke-linejoin="round"/>
<path d="M145.15 164.467C138.591 164.467 132.3 167.072 127.662 171.711C123.024 176.349 120.418 182.64 120.418 189.199V211.729H120.625H122.642V202.442C122.642 202.442 132.735 202.442 144.649 195.99C156.562 189.537 159.571 179.007 159.571 179.007C159.571 179.007 162.198 191.728 165.021 194.147L167.855 196.567V211.914H169.871V189.199C169.871 182.641 167.267 176.352 162.631 171.715C157.995 167.077 151.708 164.47 145.15 164.467Z" fill="#263238" stroke="#263238" stroke-linecap="round" stroke-linejoin="round"/>
<path d="M115.787 199.805H120.42V218.171H115.787C114.608 218.171 113.476 217.703 112.642 216.869C111.808 216.035 111.34 214.903 111.34 213.724V204.23C111.346 203.054 111.817 201.929 112.65 201.1C113.483 200.27 114.611 199.805 115.787 199.805Z" fill="white" stroke="#263238" stroke-linecap="round" stroke-linejoin="round"/>
<path d="M174.221 218.171H169.588V199.805H174.221C174.805 199.805 175.383 199.92 175.923 200.143C176.462 200.367 176.952 200.694 177.365 201.107C177.778 201.52 178.106 202.01 178.329 202.55C178.553 203.09 178.668 203.668 178.668 204.252V213.746C178.662 214.921 178.191 216.047 177.358 216.876C176.524 217.706 175.396 218.171 174.221 218.171Z" fill="white" stroke="#263238" stroke-linecap="round" stroke-linejoin="round"/>
<path d="M116.387 199.805V188.087C116.387 180.484 119.407 173.193 124.783 167.817C130.159 162.44 137.451 159.42 145.054 159.42C152.656 159.423 159.946 162.444 165.321 167.82C170.697 173.195 173.718 180.485 173.721 188.087V199.805" stroke="#263238" stroke-width="2" stroke-linejoin="round"/>
<path d="M173.741 218.171C173.741 218.171 172.324 229.071 159.004 233.518" stroke="#263238" stroke-linecap="round" stroke-linejoin="round"/>
<path d="M158.482 233.039C159.048 234.674 157.457 236.701 154.928 237.584C152.399 238.467 149.892 237.846 149.326 236.211C148.759 234.576 150.35 232.548 152.879 231.665C155.408 230.782 157.947 231.404 158.482 233.039Z" stroke="#263238" stroke-linecap="round" stroke-linejoin="round"/>
<path d="M82.4861 270.687L44.3906 351.293L60.1084 365.005L88.5247 329.34L82.4861 270.687Z" fill="#A1FFA1" stroke="#263238" stroke-linecap="round" stroke-linejoin="round"/>
<path d="M79.3581 295.398L88.6122 326.615L77.625 308.685" stroke="#263238" stroke-miterlimit="10"/>
<path d="M197.96 268.573L234.235 349.592L211.868 359.272L191.91 327.226L197.96 268.573Z" fill="#A1FFA1" stroke="#263238" stroke-linecap="round" stroke-linejoin="round"/>
<path d="M64.9483 349.287L97.5938 379.818L88.525 390.402L41.0664 360.961L46.5164 346.453" fill="#A1FFA1"/>
<path d="M64.9483 349.287L97.5938 379.818L88.525 390.402L41.0664 360.961L46.5164 346.453" stroke="#263238" stroke-linecap="round" stroke-linejoin="round"/>
<path d="M92.1564 378.009C93.4862 377.289 115.733 371.959 116.038 374.684C116.344 377.409 122.993 380.429 126.012 380.429C129.031 380.429 132.061 378.009 132.661 381.638C133.26 385.268 129.947 385.562 127.211 385.868C124.475 386.173 115.123 383.143 115.123 383.143C115.123 383.143 106.403 390.402 102.729 392.222C99.0561 394.043 92.4507 393.421 90.0309 391.612C87.6111 389.803 84.2975 382.238 92.1564 378.009Z" fill="white" stroke="#263238" stroke-linecap="round" stroke-linejoin="round"/>
<path d="M112.703 374.379C112.703 374.379 121.172 371.959 122.982 372.875C124.791 373.79 125.707 391.917 125.707 391.917C125.707 391.917 124.791 393.727 122.982 391.917C121.172 390.108 115.134 376.45 115.134 376.45" fill="white"/>
<path d="M112.703 374.379C112.703 374.379 121.172 371.959 122.982 372.875C124.791 373.79 125.707 391.917 125.707 391.917C125.707 391.917 124.791 393.727 122.982 391.917C121.172 390.108 115.134 376.45 115.134 376.45" stroke="#263238" stroke-linecap="round" stroke-linejoin="round"/>
<path d="M108.483 374.989C108.483 374.989 117.203 372.875 119.056 376.199C120.909 379.524 125.411 394.337 121.781 394.936C118.152 395.536 116.942 390.707 116.942 390.707L111.197 380.123L107.273 379.524" fill="white"/>
<path d="M108.483 374.989C108.483 374.989 117.203 372.875 119.056 376.199C120.909 379.524 125.411 394.337 121.781 394.936C118.152 395.536 116.942 390.707 116.942 390.707L111.197 380.123L107.273 379.524" stroke="#263238" stroke-linecap="round" stroke-linejoin="round"/>
<path d="M105.453 377.703C105.453 377.703 109.693 375.894 111.808 377.409C113.922 378.924 123.602 394.337 121.781 394.98C119.961 395.623 115.732 395.285 115.132 394.075C114.533 392.865 106.663 382.587 106.663 382.587" fill="white"/>
<path d="M105.453 377.703C105.453 377.703 109.693 375.894 111.808 377.409C113.922 378.924 123.602 394.337 121.781 394.98C119.961 395.623 115.732 395.285 115.132 394.075C114.533 392.865 106.663 382.587 106.663 382.587" stroke="#263238" stroke-linecap="round" stroke-linejoin="round"/>
<path d="M102.434 382.848C102.434 382.848 106.368 379.219 108.483 380.429C110.598 381.638 119.383 393.127 117.552 394.337C115.721 395.547 114.522 394.337 112.712 391.917C111.417 390.289 109.889 388.86 108.178 387.677L104.548 388.887" fill="white"/>
<path d="M102.434 382.848C102.434 382.848 106.368 379.219 108.483 380.429C110.598 381.638 119.383 393.127 117.552 394.337C115.721 395.547 114.522 394.337 112.712 391.917C111.417 390.289 109.889 388.86 108.178 387.677L104.548 388.887" stroke="#263238" stroke-linecap="round" stroke-linejoin="round"/>
<path d="M206.386 341.57L187.246 381.965L199.563 388.473L235.762 350.116L225.374 338.616" fill="#0A2B51"/>
<path d="M206.386 341.57L187.246 381.965L199.563 388.473L235.762 350.116L225.374 338.616" stroke="#263238" stroke-linecap="round" stroke-linejoin="round"/>
<path d="M196.827 378.009C195.497 377.289 173.239 371.959 172.945 374.684C172.65 377.409 165.991 380.429 162.96 380.429C159.93 380.429 156.922 378.009 156.311 381.638C155.701 385.268 159.036 385.562 161.761 385.868C164.486 386.173 173.849 383.143 173.849 383.143C173.849 383.143 182.569 390.402 186.243 392.222C189.916 394.043 196.521 393.421 198.941 391.612C201.361 389.803 204.686 382.238 196.827 378.009Z" fill="white" stroke="#263238" stroke-linecap="round" stroke-linejoin="round"/>
<path d="M176.269 374.379C176.269 374.379 167.8 371.959 165.991 372.875C164.181 373.79 163.266 391.917 163.266 391.917C163.266 391.917 164.17 393.727 165.991 391.917C167.811 390.108 173.85 376.45 173.85 376.45" fill="white"/>
<path d="M176.269 374.379C176.269 374.379 167.8 371.959 165.991 372.875C164.181 373.79 163.266 391.917 163.266 391.917C163.266 391.917 164.17 393.727 165.991 391.917C167.811 390.108 173.85 376.45 173.85 376.45" stroke="#263238" stroke-linecap="round" stroke-linejoin="round"/>
<path d="M180.5 374.989C180.5 374.989 171.78 372.875 169.916 376.199C168.052 379.524 163.572 394.337 167.202 394.98C170.832 395.623 172.031 390.751 172.031 390.751L177.775 380.167L181.71 379.567" fill="white"/>
<path d="M180.5 374.989C180.5 374.989 171.78 372.875 169.916 376.199C168.052 379.524 163.572 394.337 167.202 394.98C170.832 395.623 172.031 390.751 172.031 390.751L177.775 380.167L181.71 379.567" stroke="#263238" stroke-linecap="round" stroke-linejoin="round"/>
<path d="M183.553 377.703C183.553 377.703 179.323 375.894 177.209 377.409C175.094 378.924 165.382 394.337 167.203 394.98C169.023 395.623 173.241 395.285 173.852 394.075C174.462 392.865 182.31 382.587 182.31 382.587" fill="white"/>
<path d="M183.553 377.703C183.553 377.703 179.323 375.894 177.209 377.409C175.094 378.924 165.382 394.337 167.203 394.98C169.023 395.623 173.241 395.285 173.852 394.075C174.462 392.865 182.31 382.587 182.31 382.587" stroke="#263238" stroke-linecap="round" stroke-linejoin="round"/>
<path d="M186.547 382.848C186.547 382.848 182.612 379.219 180.498 380.429C178.383 381.638 169.598 393.127 171.429 394.337C173.26 395.547 174.448 394.337 176.269 391.917C177.564 390.289 179.091 388.86 180.803 387.677L184.433 388.887" fill="white"/>
<path d="M186.547 382.848C186.547 382.848 182.612 379.219 180.498 380.429C178.383 381.638 169.598 393.127 171.429 394.337C173.26 395.547 174.448 394.337 176.269 391.917C177.564 390.289 179.091 388.86 180.803 387.677L184.433 388.887" stroke="#263238" stroke-linecap="round" stroke-linejoin="round"/>
<path d="M254.029 118.349H183.179C179.894 118.349 176.743 119.653 174.419 121.975C172.095 124.297 170.788 127.446 170.785 130.731V151.441C170.777 153.072 171.09 154.689 171.708 156.199C172.325 157.709 173.235 159.082 174.384 160.239C175.534 161.397 176.9 162.316 178.406 162.944C179.911 163.572 181.526 163.897 183.157 163.9H191.877L179.985 179.454L206.723 163.9H254.029C255.656 163.896 257.267 163.571 258.769 162.944C260.271 162.317 261.635 161.401 262.782 160.247C263.93 159.093 264.84 157.724 265.458 156.219C266.077 154.714 266.394 153.101 266.389 151.474V130.764C266.395 127.479 265.096 124.326 262.779 121.998C260.461 119.67 257.314 118.358 254.029 118.349Z" fill="white" stroke="#263238" stroke-miterlimit="10"/>
<path d="M208.871 142.547C208.873 143.119 208.705 143.678 208.389 144.155C208.073 144.631 207.623 145.003 207.095 145.223C206.568 145.444 205.986 145.502 205.425 145.392C204.864 145.282 204.349 145.008 203.944 144.604C203.539 144.201 203.262 143.686 203.15 143.125C203.038 142.565 203.094 141.983 203.313 141.455C203.531 140.927 203.901 140.475 204.376 140.157C204.852 139.839 205.41 139.669 205.982 139.669C206.746 139.669 207.479 139.972 208.021 140.511C208.562 141.051 208.868 141.783 208.871 142.547Z" fill="#263238"/>
<path d="M221.468 142.547C221.471 143.119 221.303 143.679 220.986 144.156C220.67 144.632 220.219 145.004 219.69 145.224C219.162 145.444 218.58 145.502 218.019 145.391C217.458 145.28 216.942 145.005 216.537 144.6C216.133 144.196 215.857 143.68 215.746 143.119C215.635 142.557 215.693 141.976 215.913 141.447C216.133 140.919 216.505 140.468 216.982 140.152C217.459 139.835 218.019 139.667 218.591 139.669C219.354 139.669 220.086 139.973 220.626 140.512C221.165 141.052 221.468 141.784 221.468 142.547Z" fill="#263238"/>
<path d="M234.072 142.547C234.072 143.116 233.903 143.672 233.587 144.146C233.27 144.619 232.821 144.988 232.295 145.205C231.769 145.423 231.191 145.48 230.633 145.369C230.074 145.258 229.562 144.984 229.159 144.582C228.757 144.179 228.483 143.666 228.372 143.108C228.261 142.55 228.318 141.972 228.535 141.446C228.753 140.92 229.122 140.47 229.595 140.154C230.069 139.838 230.625 139.669 231.194 139.669C231.957 139.669 232.689 139.972 233.229 140.512C233.768 141.052 234.072 141.784 234.072 142.547Z" fill="#263238"/>
<path d="M398.769 394.686H266.727V400.016H398.769V394.686Z" fill="white" stroke="#263238" stroke-linecap="round" stroke-linejoin="round"/>
<path d="M419.054 394.686H303.961V400.016H419.054V394.686Z" fill="white" stroke="#263238" stroke-linecap="round" stroke-linejoin="round"/>
<path d="M421.288 385.214H311.176L323.046 301.142H433.158L421.288 385.214Z" fill="white" stroke="#263238" stroke-linecap="round" stroke-linejoin="round"/>
<path d="M425.846 385.214H315.734L327.604 301.142H437.716L425.846 385.214Z" fill="#263238" stroke="#263238" stroke-linecap="round" stroke-linejoin="round"/>
<path d="M392.097 346.137L403.149 400.005H374.733L363.691 346.137H392.097ZM372.826 362.127C372.88 362.346 373.006 362.541 373.184 362.679C373.362 362.818 373.581 362.892 373.807 362.89L389.906 362.738C390.057 362.736 390.205 362.699 390.34 362.632C390.475 362.564 390.593 362.467 390.685 362.348C390.777 362.228 390.842 362.09 390.873 361.942C390.904 361.794 390.901 361.642 390.865 361.495L389.415 355.457C389.362 355.237 389.236 355.041 389.058 354.901C388.881 354.76 388.661 354.684 388.434 354.683L372.335 354.835C372.184 354.838 372.035 354.874 371.9 354.942C371.765 355.009 371.646 355.106 371.553 355.225C371.46 355.344 371.395 355.483 371.363 355.63C371.33 355.778 371.331 355.931 371.365 356.078L372.826 362.127Z" fill="white" stroke="#263238" stroke-linecap="round" stroke-linejoin="round"/>
<path d="M203.464 394.686H71.4219V400.016H203.464V394.686Z" fill="white" stroke="#263238" stroke-linecap="round" stroke-linejoin="round"/>
<path d="M223.749 394.686H108.656V400.016H223.749V394.686Z" fill="white" stroke="#263238" stroke-linecap="round" stroke-linejoin="round"/>
<path d="M225.983 385.214H115.871L127.741 301.142H237.853L225.983 385.214Z" fill="white" stroke="#263238" stroke-linecap="round" stroke-linejoin="round"/>
<path d="M230.541 385.214H120.43L132.3 301.142H242.412L230.541 385.214Z" fill="#263238" stroke="#263238" stroke-linecap="round" stroke-linejoin="round"/>
<path d="M196.803 346.137L207.845 400.005H179.428L168.387 346.137H196.803ZM177.521 362.127C177.577 362.345 177.703 362.539 177.881 362.677C178.058 362.815 178.277 362.89 178.502 362.89L194.601 362.738C194.752 362.735 194.901 362.699 195.036 362.631C195.171 362.564 195.29 362.467 195.383 362.348C195.476 362.229 195.541 362.091 195.574 361.943C195.606 361.795 195.605 361.642 195.571 361.495L194.111 355.457C194.059 355.236 193.934 355.039 193.756 354.898C193.577 354.758 193.357 354.682 193.13 354.683L177.03 354.835C176.88 354.837 176.731 354.874 176.596 354.941C176.461 355.009 176.343 355.106 176.251 355.225C176.159 355.345 176.095 355.483 176.064 355.631C176.033 355.779 176.035 355.931 176.071 356.078L177.521 362.127Z" fill="white" stroke="#263238" stroke-linecap="round" stroke-linejoin="round"/>
<path d="M473.218 400.005H3.51562V405.281H473.218V400.005Z" fill="#263238" stroke="#263238" stroke-linecap="round" stroke-linejoin="round"/>
</svg>
