<svg width="140" height="32" viewBox="0 0 140 32" fill="none" xmlns="http://www.w3.org/2000/svg">
<g clip-path="url(#clip0_880_1255)">
<path d="M23.7019 14.9004C23.7019 15.2393 23.6441 15.9129 23.4481 16.1779C21.5956 18.6549 20.5535 21.6098 17.3828 21.6098C15.1695 21.6098 13.2234 20.4104 12.0968 18.5853L11.9053 18.2594C11.362 17.2687 11.0547 16.1258 11.0547 14.896C11.0547 12.5104 12.2214 10.4202 13.9894 9.23389L17.0666 14.4876V14.5006L17.1779 14.6788C17.1824 14.7092 17.2091 14.7352 17.218 14.7613C17.2492 14.8135 17.2848 14.8656 17.316 14.9134L22.6421 11.1676C23.3101 12.2366 23.7019 13.5185 23.7019 14.8917V14.9004Z" fill="#1552FF"/>
<path d="M30.5704 5.58838L23.6278 15.9045L23.5209 16.0653L23.4407 16.1783C23.08 16.4216 22.7015 16.6085 22.3007 16.7345C21.704 16.9257 21.0805 16.9909 20.466 16.9213C19.2413 16.7866 18.0746 16.1218 17.3086 14.9224L22.6347 11.1766L30.5659 5.59272L30.5704 5.58838Z" fill="#16D616"/>
<path d="M17.3143 14.918L12.0951 18.5856L11.9036 18.2597L10.679 16.1521L9.65025 14.3705L8.28755 12.0109L8.11833 11.7154L6.55078 8.99951H13.8452L13.9833 9.23417L17.0605 14.4878V14.5009L17.1718 14.679C17.1763 14.7095 17.203 14.7355 17.2119 14.7616C17.2431 14.8137 17.2787 14.8659 17.3099 14.9137L17.3143 14.918Z" fill="#00C2FF"/>
<path d="M32.8339 7.90005L32.7849 7.08745L32.1882 6.49212C32.0902 6.39218 31.9878 6.29658 31.8898 6.20967L27.9665 11.2287C27.2718 18.0293 22.8719 24.0304 16.2989 27.0592H16.29C9.23606 23.748 4.72491 16.8952 4.72491 9.31668V8.98642L4.76499 8.94731C5.19695 8.55622 5.64673 8.18251 6.11433 7.83922C9.00449 5.68387 12.5404 4.51928 16.2856 4.51059V4.52363C19.7235 4.52363 22.9744 5.46225 25.7398 7.22651L30.0506 4.62792C26.203 1.65562 21.3222 0 16.2989 0C10.3939 0 4.69819 2.35959 0.672442 6.48343L0.0890652 7.07876L0.0400793 7.89136C0.0133598 8.35633 0 8.83867 0 9.31233C0 19.0288 6.03417 27.7849 15.3771 31.6219L16.29 32H16.2989L17.2341 31.6219C26.7329 27.7892 32.8829 19.0375 32.8829 9.32971C32.8829 8.85171 32.8606 8.37806 32.8339 7.9044V7.90005Z" fill="white"/>
<path d="M45.6724 11.1854C46.5853 10.7161 47.6274 10.4771 48.7808 10.4771C49.6625 10.4771 50.4641 10.6769 51.1677 11.0767C51.907 11.4939 52.7709 12.2587 53.7372 13.3538L54.1291 13.797L54.6101 13.4494C54.7838 13.3233 55.0287 13.1756 55.3449 13.0061C55.4651 12.9409 55.8481 12.7063 56.4938 12.3108L57.0772 11.9502L56.6675 11.4113C55.5185 9.90346 54.3073 8.78667 53.0648 8.08705C51.8001 7.37874 50.3617 7.01807 48.7897 7.01807C47.0128 7.01807 45.3651 7.40916 43.8955 8.17831C42.4215 8.9518 41.2414 10.0251 40.3953 11.3722C39.5447 12.7237 39.1172 14.2489 39.1172 15.9002C39.1172 17.5515 39.5358 19.0202 40.3552 20.363C41.1746 21.7057 42.3146 22.7747 43.7397 23.5352C45.1603 24.2956 46.759 24.6824 48.4913 24.6824C50.2236 24.6824 51.8535 24.2609 53.3186 23.4265C54.7927 22.5879 55.9149 21.445 56.6497 20.0284L56.9169 19.5156L56.4137 19.2158C55.7412 18.8117 55.091 18.4771 54.4809 18.225L54.0846 18.0599L53.7773 18.3597C52.762 19.3505 51.7912 20.0936 50.8916 20.5672C49.0524 21.5363 47.0974 21.4233 45.5299 20.5194C44.6882 20.0327 44.0158 19.3679 43.5215 18.5379C43.0316 17.7123 42.7822 16.7867 42.7822 15.7829C42.7822 14.7791 43.0405 13.9013 43.5482 13.1061C44.0648 12.2935 44.7639 11.6677 45.6768 11.1984L45.6724 11.1854Z" fill="white"/>
<path d="M65.9027 13.6622L61.6676 7.00928H57.4727L64.0412 17.4558V24.6779H67.6929V17.434L74.2882 7.00928H70.1422L65.9027 13.6622Z" fill="white"/>
<path d="M89.0221 8.17386C87.606 7.40037 86.0385 7.00928 84.3551 7.00928C82.6718 7.00928 81.0731 7.40037 79.6525 8.17386C78.2319 8.94735 77.083 10.0163 76.2457 11.3547C75.4041 12.6975 74.9766 14.1836 74.9766 15.7741C74.9766 17.3645 75.3952 18.8507 76.2279 20.2108C77.0562 21.5666 78.2052 22.6616 79.6436 23.4656C81.082 24.2738 82.6762 24.6823 84.3818 24.6823C86.0874 24.6823 87.6416 24.2782 89.0578 23.4786C90.4695 22.6834 91.6006 21.5883 92.42 20.2369C93.2394 18.8767 93.658 17.3776 93.658 15.7784C93.658 14.1793 93.2349 12.6845 92.4022 11.3504C91.5739 10.0207 90.4383 8.95605 89.0221 8.18255V8.17386ZM84.3551 10.477C85.4016 10.477 86.368 10.7116 87.2275 11.1766C88.0825 11.6415 88.7594 12.276 89.2493 13.0712C89.7347 13.8621 89.984 14.7529 89.984 15.7219C89.984 16.691 89.7258 17.6166 89.2225 18.4639C88.7149 19.3156 88.0113 20.0109 87.1384 20.5193C85.4061 21.5362 83.2151 21.5362 81.4961 20.5193C80.6277 20.0066 79.9241 19.3156 79.4076 18.4683C78.8954 17.6296 78.6371 16.7127 78.6371 15.7437C78.6371 14.7746 78.891 13.8838 79.3897 13.0842C79.893 12.2803 80.5877 11.6372 81.4471 11.1722C82.3155 10.7073 83.2908 10.4683 84.3596 10.4683L84.3551 10.477Z" fill="white"/>
<path d="M105.773 17.9077C106.485 17.4254 107.051 16.7822 107.46 15.9914C107.955 15.0397 108.204 13.9707 108.204 12.8235C108.204 11.7806 107.995 10.8116 107.581 9.94247C107.158 9.05165 106.53 8.33464 105.719 7.80884C104.9 7.2787 103.916 7.00928 102.793 7.00928H94.8398V24.6779H98.447L98.398 18.8072H102.148L105.118 24.6779H109.162L105.773 17.9077ZM98.4425 10.377H102.793C103.328 10.377 103.72 10.5639 104.031 10.9593C104.374 11.3982 104.548 12.0239 104.548 12.8235C104.548 13.5579 104.428 14.1185 104.196 14.4444C103.973 14.7659 103.697 14.9658 103.359 15.0614C102.936 15.1831 102.384 15.2439 101.747 15.2439L98.4381 15.2179V10.377H98.4425Z" fill="white"/>
<path d="M115.442 20.2065C116.974 18.8724 118.301 17.4427 119.423 15.9088C120.541 14.3792 121.102 13.0538 121.102 11.937C121.102 10.8203 120.742 9.89901 120.02 9.27761C119.299 8.66055 118.337 8.34768 117.139 8.34768C116.061 8.34768 115.197 8.55192 114.547 8.95605C113.897 9.36017 113.331 10.025 112.855 10.955L111.532 10.2075C112.236 9.1429 113.028 8.33899 113.91 7.80884C114.792 7.2787 115.856 7.00928 117.112 7.00928C118.368 7.00928 119.397 7.25697 120.207 7.7567C121.018 8.25643 121.619 8.84306 122.006 9.5253C122.394 10.2032 122.621 10.8376 122.692 11.4199V11.7806C122.692 13.106 122.158 14.553 121.093 16.1261C120.029 17.6991 118.809 19.1244 117.446 20.3977C116.079 21.6709 115.064 22.4531 114.391 22.7442L114.471 23.1049L122.67 23.0788V24.6519H111.461L111.514 22.9484C112.605 22.4487 113.919 21.5362 115.456 20.2021L115.442 20.2065Z" fill="white"/>
<path d="M135.856 19.7024H139.058V21.1233H135.909V24.6562H134.48V21.1233H125.359C127.212 18.4379 128.739 16.1087 129.946 14.1315C131.153 12.1543 132.489 9.78168 133.954 7.00928H135.86V19.7024H135.856ZM134.506 8.45197C133.362 10.6899 132.289 12.6584 131.296 14.3618C130.298 16.0652 129.149 17.8469 127.844 19.7024L134.506 19.7285V8.45197Z" fill="white"/>
</g>
<defs>
<clipPath id="clip0_880_1255">
<rect width="139.2" height="32" fill="white"/>
</clipPath>
</defs>
</svg>
