<svg width="209" height="48" viewBox="0 0 209 48" fill="none" xmlns="http://www.w3.org/2000/svg">
<g clip-path="url(#clip0_880_726)">
<path d="M35.549 22.3508C35.549 22.8592 35.4622 23.8695 35.1683 24.2672C32.3894 27.9825 30.8263 32.4149 26.0702 32.4149C22.7503 32.4149 19.8312 30.6159 18.1412 27.8782L17.854 27.3894C17.039 25.9032 16.5781 24.1889 16.5781 22.3443C16.5781 18.7658 18.3283 15.6305 20.9802 13.8511L25.596 21.7316V21.7511L25.763 22.0184C25.7697 22.064 25.8097 22.1031 25.8231 22.1422C25.8699 22.2204 25.9233 22.2987 25.9701 22.3704L33.9592 16.7517C34.9612 18.3551 35.549 20.278 35.549 22.3378V22.3508Z" fill="#1552FF"/>
<path d="M45.8537 8.38232L35.4397 23.8565L35.2794 24.0977L35.1591 24.2672C34.6181 24.6322 34.0503 24.9125 33.4491 25.1015C32.554 25.3883 31.6188 25.4861 30.697 25.3818C28.86 25.1797 27.1099 24.1824 25.9609 22.3834L33.9501 16.7647L45.847 8.38884L45.8537 8.38232Z" fill="#16D616"/>
<path d="M25.9695 22.3768L18.1407 27.8782L17.8534 27.3893L16.0165 24.228L14.4734 21.5555L12.4294 18.0161L12.1755 17.5729L9.82422 13.499H20.7659L20.973 13.851L25.5888 21.7315V21.7511L25.7558 22.0183C25.7624 22.0639 25.8025 22.103 25.8159 22.1422C25.8626 22.2204 25.9161 22.2986 25.9628 22.3703L25.9695 22.3768Z" fill="#00C2FF"/>
<path d="M49.2508 11.8501L49.1773 10.6312L48.2822 9.73818C48.1353 9.58827 47.9816 9.44487 47.8347 9.3145L41.9497 16.843C40.9076 27.044 34.3079 36.0456 24.4484 40.5888H24.435C13.8541 35.6219 7.08736 25.3427 7.08736 13.975V13.4796L7.14748 13.421C7.79543 12.8343 8.4701 12.2738 9.17149 11.7588C13.5067 8.5258 18.8106 6.77892 24.4284 6.76589V6.78544C29.5852 6.78544 34.4615 8.19337 38.6098 10.8398L45.0759 6.94188C39.3045 2.48343 31.9833 0 24.4484 0C15.5909 0 7.04728 3.53938 1.00866 9.72515L0.133598 10.6181L0.060119 11.837C0.0200397 12.5345 0 13.258 0 13.9685C0 28.5432 9.05125 41.6773 23.0657 47.4329L24.435 48H24.4484L25.8512 47.4329C40.0994 41.6839 49.3243 28.5562 49.3243 13.9946C49.3243 13.2776 49.2909 12.5671 49.2508 11.8566V11.8501Z" fill="white"/>
<path d="M68.5086 16.7778C69.878 16.0738 71.4411 15.7153 73.1711 15.7153C74.4938 15.7153 75.6961 16.0152 76.7516 16.6149C77.8604 17.2406 79.1563 18.3878 80.6059 20.0304L81.1937 20.6952L81.9151 20.1738C82.1756 19.9848 82.543 19.7631 83.0173 19.5089C83.1977 19.4112 83.7721 19.0592 84.7407 18.466L85.6158 17.925L85.0012 17.1168C83.2778 14.8549 81.4609 13.1798 79.5972 12.1303C77.7001 11.0679 75.5425 10.5269 73.1845 10.5269C70.5192 10.5269 68.0477 11.1135 65.8433 12.2672C63.6323 13.4275 61.8621 15.0374 60.5929 17.0581C59.3171 19.0852 58.6758 21.3731 58.6758 23.8501C58.6758 26.327 59.3037 28.5301 60.5328 30.5442C61.7619 32.5584 63.4719 34.1618 65.6095 35.3025C67.7404 36.4432 70.1385 37.0233 72.737 37.0233C75.3354 37.0233 77.7803 36.3911 79.9779 35.1396C82.189 33.8816 83.8723 32.1673 84.9745 30.0423L85.3753 29.2732L84.6205 28.8234C83.6118 28.2172 82.6365 27.7153 81.7214 27.3373L81.1269 27.0896L80.666 27.5394C79.143 29.0255 77.6867 30.1401 76.3374 30.8506C73.5786 32.3042 70.6461 32.1347 68.2948 30.7789C67.0323 30.0489 66.0237 29.0516 65.2822 27.8066C64.5474 26.5681 64.1733 25.1798 64.1733 23.6741C64.1733 22.1684 64.5608 20.8517 65.3223 19.6588C66.0971 18.4399 67.1459 17.5013 68.5153 16.7974L68.5086 16.7778Z" fill="white"/>
<path d="M98.856 20.493L92.5034 10.5137H86.2109L96.0638 26.1834V37.0167H101.541V26.1508L111.434 10.5137H105.215L98.856 20.493Z" fill="white"/>
<path d="M133.529 12.2605C131.405 11.1003 129.054 10.5137 126.529 10.5137C124.004 10.5137 121.606 11.1003 119.475 12.2605C117.344 13.4208 115.621 15.0243 114.365 17.0319C113.102 19.046 112.461 21.2752 112.461 23.6609C112.461 26.0465 113.089 28.2758 114.338 30.316C115.58 32.3496 117.304 33.9922 119.461 35.1981C121.619 36.4105 124.01 37.0232 126.569 37.0232C129.127 37.0232 131.459 36.417 133.583 35.2176C135.7 34.0248 137.397 32.3822 138.626 30.3551C139.855 28.3149 140.483 26.0661 140.483 23.6674C140.483 21.2687 139.848 19.0264 138.599 17.0254C137.357 15.0308 135.654 13.4338 133.529 12.2736V12.2605ZM126.529 15.7152C128.099 15.7152 129.548 16.0672 130.837 16.7646C132.12 17.4621 133.135 18.4137 133.87 19.6066C134.598 20.7929 134.972 22.1291 134.972 23.5827C134.972 25.0362 134.585 26.4246 133.83 27.6956C133.068 28.9732 132.013 30.0161 130.704 30.7787C128.105 32.304 124.819 32.304 122.24 30.7787C120.938 30.0096 119.882 28.9732 119.107 27.7022C118.339 26.4441 117.952 25.0688 117.952 23.6152C117.952 22.1617 118.333 20.8255 119.081 19.6261C119.836 18.4202 120.878 17.4556 122.167 16.7581C123.469 16.0607 124.932 15.7022 126.535 15.7022L126.529 15.7152Z" fill="white"/>
<path d="M158.661 26.8613C159.73 26.1378 160.578 25.1731 161.193 23.9868C161.934 22.5593 162.308 20.9558 162.308 19.235C162.308 17.6707 161.994 16.2171 161.373 14.9135C160.738 13.5772 159.796 12.5017 158.581 11.713C157.352 10.9178 155.875 10.5137 154.192 10.5137H142.262V37.0167H147.672L147.599 28.2106H153.223L157.679 37.0167H163.744L158.661 26.8613ZM147.666 15.5653H154.192C154.994 15.5653 155.581 15.8456 156.049 16.4387C156.563 17.0971 156.824 18.0357 156.824 19.235C156.824 20.3366 156.644 21.1774 156.296 21.6663C155.962 22.1487 155.548 22.4485 155.04 22.5919C154.406 22.7744 153.577 22.8657 152.622 22.8657L147.659 22.8265V15.5653H147.666Z" fill="white"/>
<path d="M173.163 30.3094C175.461 28.3083 177.452 26.1639 179.135 23.8629C180.812 21.5685 181.653 19.5805 181.653 17.9053C181.653 16.2301 181.112 14.8483 180.03 13.9162C178.948 12.9906 177.505 12.5213 175.708 12.5213C174.092 12.5213 172.796 12.8276 171.821 13.4338C170.845 14.04 169.997 15.0373 169.282 16.4322L167.298 15.3111C168.354 13.7141 169.543 12.5082 170.865 11.713C172.188 10.9178 173.784 10.5137 175.668 10.5137C177.552 10.5137 179.095 10.8852 180.311 11.6348C181.526 12.3844 182.428 13.2644 183.009 14.2877C183.591 15.3045 183.931 16.2562 184.038 17.1296V17.6707C184.038 19.6587 183.237 21.8293 181.64 24.1889C180.044 26.5484 178.213 28.6864 176.169 30.5962C174.118 32.5061 172.595 33.6793 171.587 34.1161L171.707 34.6571L184.005 34.618V36.9776H167.191L167.272 34.4224C168.908 33.6728 170.879 32.304 173.183 30.3029L173.163 30.3094Z" fill="white"/>
<path d="M203.784 29.5533H208.586V31.6848H203.864V36.9841H201.719V31.6848H188.039C190.818 27.6565 193.109 24.1628 194.919 21.197C196.73 18.2312 198.734 14.6723 200.931 10.5137H203.79V29.5533H203.784ZM201.76 12.6777C200.043 16.0346 198.433 18.9873 196.943 21.5425C195.447 24.0976 193.724 26.7701 191.766 29.5533L201.76 29.5924V12.6777Z" fill="white"/>
</g>
<defs>
<clipPath id="clip0_880_726">
<rect width="208.8" height="48" fill="white"/>
</clipPath>
</defs>
</svg>
