<svg width="32" height="32" viewBox="0 0 32 32" fill="none" xmlns="http://www.w3.org/2000/svg">
<g clip-path="url(#clip0_516_92)">
<path d="M13.3333 22.6667C18.488 22.6667 22.6667 18.488 22.6667 13.3333C22.6667 8.17868 18.488 4 13.3333 4C8.17868 4 4 8.17868 4 13.3333C4 18.488 8.17868 22.6667 13.3333 22.6667Z" stroke="#0A2B51" stroke-width="1.5" stroke-linecap="round" stroke-linejoin="round"/>
<path d="M28 28L20 20" stroke="#0A2B51" stroke-width="1.5" stroke-linecap="round" stroke-linejoin="round"/>
<path d="M13.334 17.3335V17.3468" stroke="#0A2B51" stroke-width="1.5" stroke-linecap="round" stroke-linejoin="round"/>
<path d="M13.3325 13.3335C13.6681 13.3337 13.9984 13.2494 14.2928 13.0884C14.5873 12.9274 14.8365 12.6949 15.0176 12.4123C15.1986 12.1298 15.3056 11.8062 15.3288 11.4713C15.3519 11.1365 15.2904 10.8013 15.1499 10.4965C15.0095 10.1917 14.7946 9.92714 14.5251 9.72719C14.2555 9.52725 13.94 9.39835 13.6076 9.35236C13.2751 9.30638 12.9365 9.34478 12.6228 9.46405C12.3091 9.58331 12.0304 9.7796 11.8125 10.0348" stroke="#0A2B51" stroke-width="1.5" stroke-linecap="round" stroke-linejoin="round"/>
</g>
<defs>
<clipPath id="clip0_516_92">
<rect width="32" height="32" fill="white"/>
</clipPath>
</defs>
</svg>
