<svg width="242" height="308" viewBox="0 0 242 308" fill="none" xmlns="http://www.w3.org/2000/svg">
<g opacity="0.5">
<path d="M224.871 143.416C224.871 146.678 224.322 153.161 222.463 155.713C204.885 179.553 194.998 207.994 164.913 207.994C143.913 207.994 125.449 196.45 114.758 178.884L112.942 175.747C107.787 166.211 104.871 155.211 104.871 143.374C104.871 120.412 115.942 100.294 132.716 88.876L161.913 139.443V139.568L162.97 141.283C163.012 141.576 163.266 141.827 163.35 142.078C163.646 142.579 163.984 143.081 164.28 143.541L214.815 107.488C221.153 117.777 224.871 130.116 224.871 143.332V143.416Z" fill="white"/>
<path d="M290.068 53.7882L224.195 153.081L223.181 154.628L222.42 155.716C218.998 158.058 215.406 159.857 211.603 161.07C205.941 162.91 200.026 163.537 194.195 162.868C182.575 161.571 171.505 155.172 164.237 143.628L290.026 53.83L290.068 53.7882Z" fill="white"/>
<path d="M164.282 143.586L114.761 178.886L112.944 175.75L101.324 155.464L78.6338 115.605L77.0282 112.761L62.1549 86.6203H131.366L132.676 88.8789L161.873 139.445V139.571L162.93 141.286C162.972 141.578 163.225 141.829 163.31 142.08C163.606 142.582 163.944 143.084 164.239 143.544L164.282 143.586Z" fill="white"/>
<path d="M311.535 76.038L311.07 68.2167L305.408 62.4867C304.479 61.5247 303.507 60.6046 302.577 59.7681L265.352 108.076C258.761 173.532 217.014 231.293 154.648 260.445H154.563C87.6338 228.574 44.831 162.616 44.831 89.673V86.4943L45.2113 86.1179C49.3099 82.3536 53.5775 78.7567 58.0141 75.4525C85.4366 54.7072 118.986 43.4981 154.521 43.4144V43.5399C187.141 43.5399 217.986 52.5741 244.225 69.5551L285.127 44.5437C248.62 15.9354 202.31 0 154.648 0C98.6197 0 44.5775 22.711 6.38028 62.403L0.84507 68.1331L0.380282 75.9544C0.126761 80.4297 0 85.0722 0 89.6312C0 183.152 57.2535 267.43 145.901 304.361L154.563 308H154.648L163.521 304.361C253.648 267.471 312 183.236 312 89.7985C312 85.1977 311.789 80.6388 311.535 76.0798V76.038Z" fill="white"/>
</g>
</svg>
