<svg id="Ebene_1" data-name="Ebene 1" xmlns="http://www.w3.org/2000/svg" width="300" height="115" viewBox="0 0 300 115">
  <defs>
    <style>
      .cls-1 {
        fill: #2594CE;
      }

      .cls-2 {
        fill: #636362;
      }
    </style>
  </defs>
  <title>web</title>
  <g>
    <path class="cls-1" d="M81.2,14.32,77.46,4.93l-3.74,9.39Zm1.1,2.74H72.63l-3.12,7.86H66.22L75.88,1.4H79l9.67,23.52H85.42Z"/>
    <polygon class="cls-1" points="106.42 4.41 99.15 4.41 99.15 1.67 116.77 1.67 116.77 4.41 109.51 4.41 109.51 25.19 106.42 25.19 106.42 4.41"/>
    <polygon class="cls-1" points="135.16 4.41 127.89 4.41 127.89 1.67 145.51 1.67 145.51 4.41 138.24 4.41 138.24 25.19 135.16 25.19 135.16 4.41"/>
    <polygon class="cls-1" points="161.23 1.67 164.31 1.67 164.31 11.2 176.66 11.2 176.66 1.67 179.74 1.67 179.74 25.19 176.66 25.19 176.66 13.94 164.31 13.94 164.31 25.19 161.23 25.19 161.23 1.67"/>
    <rect class="cls-1" x="197.77" y="1.67" width="3.09" height="23.52"/>
    <path class="cls-1" d="M231.31,14.59,227.57,5.2l-3.74,9.39Zm1.09,2.74h-9.66l-3.12,7.86h-3.29L226,1.67h3.16l9.67,23.52h-3.3Z"/>
    <g>
      <path class="cls-1" d="M251.23,17.09h2.92c0,3.43,2.94,5.7,7.33,5.7,4,0,6.65-1.72,6.65-4.29,0-1.89-1.95-3.05-7-4.22-6-1.4-8.33-3.18-8.33-6.37,0-3.95,3.46-6.59,8.64-6.59a9,9,0,0,1,9,6.76l-2.81.68a6.11,6.11,0,0,0-6.21-4.69c-3.32,0-5.55,1.54-5.55,3.84,0,1.57,1.64,2.57,5.86,3.53,6.79,1.61,9.43,3.6,9.43,7.06,0,4.22-3.91,7-9.74,7-6.13,0-10.25-3.36-10.25-8.44"/>
      <path class="cls-1" d="M22.5,63.6h7c.16,4.27,4.21,7.11,10.17,7.11,5.64,0,9.41-2.08,9.41-5.14,0-7.66-24.45-3-24.45-16.3,0-6.62,6-11.06,15-11.06,7.55,0,13.74,4.33,15.49,10.78l-6.73,1.7c-.88-3.56-4.38-5.91-8.76-5.91-4.65,0-7.77,1.8-7.77,4.49,0,5.8,24.46,2.57,24.46,16.3,0,7-6.67,11.71-16.69,11.71s-17-5.47-17.12-13.68"/>
      <path class="cls-1" d="M102,46a17.91,17.91,0,0,0-14.76-7.74c-11.71,0-19.53,7.83-19.53,19.54s7.82,19.53,19.53,19.53A17.78,17.78,0,0,0,103,68l-6.53-2.42a11.06,11.06,0,0,1-9.29,5.14c-7.33,0-12.2-5.2-12.2-13s4.87-13,12.2-13a11,11,0,0,1,8,3.69Z"/>
    </g>
    <polygon class="cls-1" points="117.8 38.98 125.13 38.98 125.13 53.97 142.42 53.97 142.42 38.98 149.75 38.98 149.75 76.51 142.42 76.51 142.42 60.54 125.13 60.54 125.13 76.51 117.8 76.51 117.8 38.98"/>
    <rect class="cls-1" x="219.25" y="38.98" width="7.33" height="37.53"/>
    <path class="cls-1" d="M256.41,69.94c7,0,11.76-4.87,11.76-12.2s-4.71-12.19-11.76-12.19h-7.28V69.94ZM241.8,39h14.61c11.43,0,19.09,7.49,19.09,18.76s-7.66,18.77-19.09,18.77H241.8Z"/>
    <polygon class="cls-2" points="26.01 90.84 26.01 93.5 38.98 93.5 26.01 111.37 26.01 113.71 42.9 113.71 42.9 111.04 29.95 111.04 42.9 93.21 42.9 90.84 26.01 90.84"/>
    <path class="cls-2" d="M67,94.27l3.58,9.14H63.37Zm-1.51-3.43-9.27,22.87h3.16l3-7.64h9.26l3,7.64h3.16L68.46,90.84Z"/>
    <polygon class="cls-2" points="105.79 90.84 105.79 100.11 93.96 100.11 93.96 90.84 91 90.84 91 113.71 93.96 113.71 93.96 102.77 105.79 102.77 105.79 113.71 108.74 113.71 108.74 90.84 105.79 90.84"/>
    <polygon class="cls-2" points="140.75 90.84 140.75 109.54 128.1 90.84 124.84 90.84 124.84 113.71 127.8 113.71 127.8 95.04 140.42 113.71 143.71 113.71 143.71 90.84 140.75 90.84"/>
    <path class="cls-2" d="M168.09,94.27l3.58,9.14H164.5Zm-1.51-3.43-9.27,22.87h3.15l3-7.64h9.27l3,7.64h3.15L169.6,90.84Z"/>
    <path class="cls-2" d="M201.9,100.11c2.2,0,3.64-1.34,3.64-3.3s-1.44-3.31-3.64-3.31h-6.81v6.61Zm-9.76-9.27h9.76c4,0,6.6,2.4,6.6,6a5.76,5.76,0,0,1-5.29,5.89l6.74,11h-3.49l-6.7-10.94h-4.67v10.94h-3Z"/>
    <polygon class="cls-2" points="222.96 90.84 222.96 93.5 235.94 93.5 222.96 111.37 222.96 113.71 239.84 113.71 239.84 111.04 226.9 111.04 239.84 93.21 239.84 90.84 222.96 90.84"/>
    <polygon class="cls-2" points="252.99 90.84 252.99 93.5 259.95 93.5 259.95 113.71 262.91 113.71 262.91 93.5 269.88 93.5 269.88 90.84 252.99 90.84"/>
    <polygon class="cls-1" points="48.23 1.32 39.76 21.18 31.28 1.32 27.08 1.32 27.08 25.14 30.21 25.14 30.21 5.14 38.58 25.14 40.94 25.14 49.3 5.14 49.3 25.14 52.43 25.14 52.43 1.32 48.23 1.32"/>
    <path class="cls-1" d="M205.69,76.51h-7.42V51.83A6.25,6.25,0,0,0,192,45.59c-3.65,0-7.62,4.13-7.62,4.13s-4-4.13-7.62-4.13a6.25,6.25,0,0,0-6.25,6.24V76.51h-7.42V51.83A13.66,13.66,0,0,1,184.4,40.5a13.66,13.66,0,0,1,21.29,11.33Z"/>
  </g>
</svg>
