<svg width="48" height="50" viewBox="0 0 48 50" fill="none" xmlns="http://www.w3.org/2000/svg">
<path d="M24 26.9193C25.1046 26.9193 26 25.9922 26 24.8486C26 23.7049 25.1046 22.7778 24 22.7778C22.8954 22.7778 22 23.7049 22 24.8486C22 25.9922 22.8954 26.9193 24 26.9193Z" stroke="#2C3E50" stroke-width="1.85" stroke-linecap="round" stroke-linejoin="round"/>
<path d="M24 35.2023C29.5228 35.2023 34 30.5668 34 24.8487C34 19.1306 29.5228 14.4951 24 14.4951C18.4772 14.4951 14 19.1306 14 24.8487C14 30.5668 18.4772 35.2023 24 35.2023Z" stroke="#2C3E50" stroke-width="1.85" stroke-linecap="round" stroke-linejoin="round"/>
<path d="M24 43.4851C33.9411 43.4851 42 35.1413 42 24.8486C42 14.556 33.9411 6.21216 24 6.21216C14.0589 6.21216 6 14.556 6 24.8486C6 35.1413 14.0589 43.4851 24 43.4851Z" stroke="#2C3E50" stroke-width="1.85" stroke-linecap="round" stroke-linejoin="round"/>
</svg>
