<svg width="110" height="20" viewBox="0 0 110 20" fill="none" xmlns="http://www.w3.org/2000/svg">
<path d="M9.99937 14.7915L4.85604 17.4957L5.83854 11.7682L1.67188 7.71238L7.42187 6.87905L9.99354 1.66821L12.5652 6.87905L18.3152 7.71238L14.1485 11.7682L15.131 17.4957L9.99937 14.7915Z" fill="#D9D9D9"/>
<path d="M9.99937 14.7915L4.85604 17.4957L5.83854 11.7682L1.67188 7.71238L7.42187 6.87905L9.99354 1.66821L12.5652 6.87905L18.3152 7.71238L14.1485 11.7682L15.131 17.4957L9.99937 14.7915Z" fill="#A1FFA1"/>
<path fill-rule="evenodd" clip-rule="evenodd" d="M9.99276 1.61841C10.0118 1.61841 10.0292 1.62921 10.0376 1.64628L12.5976 6.83353L18.3216 7.66309C18.3404 7.66582 18.3561 7.67902 18.362 7.69713C18.3679 7.71524 18.3629 7.73512 18.3493 7.7484L14.2015 11.7859L15.1795 17.4875C15.1828 17.5062 15.175 17.5252 15.1596 17.5364C15.1442 17.5476 15.1238 17.549 15.107 17.5401L9.99857 14.8482L4.87853 17.5402C4.86168 17.549 4.84127 17.5475 4.82587 17.5364C4.81047 17.5252 4.80276 17.5062 4.80598 17.4875L5.78403 11.7859L1.63622 7.7484C1.62257 7.73512 1.61766 7.71524 1.62354 7.69713C1.62942 7.67902 1.64508 7.66582 1.66392 7.66309L7.3879 6.83353L9.94792 1.64628C9.95635 1.62921 9.97373 1.61841 9.99276 1.61841ZM9.99276 1.78139L7.46593 6.90137C7.45865 6.91613 7.44456 6.92636 7.42827 6.92873L1.77867 7.74751L5.87264 11.7326C5.88444 11.7441 5.88983 11.7606 5.88704 11.7769L4.92167 17.4045L9.97533 14.7475C9.98991 14.7398 10.0073 14.7398 10.0219 14.7475L15.0638 17.4044L14.0985 11.7769C14.0957 11.7606 14.1011 11.7441 14.1129 11.7326L18.2069 7.74751L12.5573 6.92873C12.541 6.92636 12.5269 6.91613 12.5196 6.90137L9.99276 1.78139Z" fill="#0A2B51"/>
<path d="M32.4994 14.7915L27.356 17.4957L28.3385 11.7682L24.1719 7.71238L29.9219 6.87905L32.4935 1.66821L35.0652 6.87905L40.8152 7.71238L36.6485 11.7682L37.631 17.4957L32.4994 14.7915Z" fill="#D9D9D9"/>
<path d="M32.4994 14.7915L27.356 17.4957L28.3385 11.7682L24.1719 7.71238L29.9219 6.87905L32.4935 1.66821L35.0652 6.87905L40.8152 7.71238L36.6485 11.7682L37.631 17.4957L32.4994 14.7915Z" fill="#A1FFA1"/>
<path fill-rule="evenodd" clip-rule="evenodd" d="M32.4928 1.61841C32.5118 1.61841 32.5292 1.62921 32.5376 1.64628L35.0976 6.83353L40.8216 7.66309C40.8404 7.66582 40.8561 7.67902 40.862 7.69713C40.8679 7.71524 40.8629 7.73512 40.8493 7.7484L36.7015 11.7859L37.6795 17.4875C37.6828 17.5062 37.675 17.5252 37.6596 17.5364C37.6442 17.5476 37.6238 17.549 37.607 17.5401L32.4986 14.8482L27.3785 17.5402C27.3617 17.549 27.3413 17.5475 27.3259 17.5364C27.3105 17.5252 27.3028 17.5062 27.306 17.4875L28.284 11.7859L24.1362 7.7484C24.1226 7.73512 24.1177 7.71524 24.1235 7.69713C24.1294 7.67902 24.1451 7.66582 24.1639 7.66309L29.8879 6.83353L32.4479 1.64628C32.4563 1.62921 32.4737 1.61841 32.4928 1.61841ZM32.4928 1.78139L29.9659 6.90137C29.9586 6.91613 29.9446 6.92636 29.9283 6.92873L24.2787 7.74751L28.3726 11.7326C28.3844 11.7441 28.3898 11.7606 28.387 11.7769L27.4217 17.4045L32.4753 14.7475C32.4899 14.7398 32.5073 14.7398 32.5219 14.7475L37.5638 17.4044L36.5985 11.7769C36.5957 11.7606 36.6011 11.7441 36.6129 11.7326L40.7069 7.74751L35.0573 6.92873C35.041 6.92636 35.0269 6.91613 35.0196 6.90137L32.4928 1.78139Z" fill="#0A2B51"/>
<path d="M54.9994 14.7915L49.856 17.4957L50.8385 11.7682L46.6719 7.71238L52.4219 6.87905L54.9935 1.66821L57.5652 6.87905L63.3152 7.71238L59.1485 11.7682L60.131 17.4957L54.9994 14.7915Z" fill="#D9D9D9"/>
<path d="M54.9994 14.7915L49.856 17.4957L50.8385 11.7682L46.6719 7.71238L52.4219 6.87905L54.9935 1.66821L57.5652 6.87905L63.3152 7.71238L59.1485 11.7682L60.131 17.4957L54.9994 14.7915Z" fill="#A1FFA1"/>
<path fill-rule="evenodd" clip-rule="evenodd" d="M54.9928 1.61841C55.0118 1.61841 55.0292 1.62921 55.0376 1.64628L57.5976 6.83353L63.3216 7.66309C63.3404 7.66582 63.3561 7.67902 63.362 7.69713C63.3679 7.71524 63.3629 7.73512 63.3493 7.7484L59.2015 11.7859L60.1795 17.4875C60.1828 17.5062 60.175 17.5252 60.1596 17.5364C60.1442 17.5476 60.1238 17.549 60.107 17.5401L54.9986 14.8482L49.8785 17.5402C49.8617 17.549 49.8413 17.5475 49.8259 17.5364C49.8105 17.5252 49.8028 17.5062 49.806 17.4875L50.784 11.7859L46.6362 7.7484C46.6226 7.73512 46.6177 7.71524 46.6235 7.69713C46.6294 7.67902 46.6451 7.66582 46.6639 7.66309L52.3879 6.83353L54.9479 1.64628C54.9563 1.62921 54.9737 1.61841 54.9928 1.61841ZM54.9928 1.78139L52.4659 6.90137C52.4586 6.91613 52.4446 6.92636 52.4283 6.92873L46.7787 7.74751L50.8726 11.7326C50.8844 11.7441 50.8898 11.7606 50.887 11.7769L49.9217 17.4045L54.9753 14.7475C54.9899 14.7398 55.0073 14.7398 55.0219 14.7475L60.0638 17.4044L59.0985 11.7769C59.0957 11.7606 59.1011 11.7441 59.1129 11.7326L63.2069 7.74751L57.5573 6.92873C57.541 6.92636 57.5269 6.91613 57.5196 6.90137L54.9928 1.78139Z" fill="#0A2B51"/>
<path d="M77.4994 14.7915L72.356 17.4957L73.3385 11.7682L69.1719 7.71238L74.9219 6.87905L77.4935 1.66821L80.0652 6.87905L85.8152 7.71238L81.6485 11.7682L82.631 17.4957L77.4994 14.7915Z" fill="#D9D9D9"/>
<path d="M77.4994 14.7915L72.356 17.4957L73.3385 11.7682L69.1719 7.71238L74.9219 6.87905L77.4935 1.66821L80.0652 6.87905L85.8152 7.71238L81.6485 11.7682L82.631 17.4957L77.4994 14.7915Z" fill="#A1FFA1"/>
<path fill-rule="evenodd" clip-rule="evenodd" d="M77.4928 1.61841C77.5118 1.61841 77.5292 1.62921 77.5376 1.64628L80.0976 6.83353L85.8216 7.66309C85.8404 7.66582 85.8561 7.67902 85.862 7.69713C85.8679 7.71524 85.8629 7.73512 85.8493 7.7484L81.7015 11.7859L82.6795 17.4875C82.6828 17.5062 82.675 17.5252 82.6596 17.5364C82.6442 17.5476 82.6238 17.549 82.607 17.5401L77.4986 14.8482L72.3785 17.5402C72.3617 17.549 72.3413 17.5475 72.3259 17.5364C72.3105 17.5252 72.3028 17.5062 72.306 17.4875L73.284 11.7859L69.1362 7.7484C69.1226 7.73512 69.1177 7.71524 69.1235 7.69713C69.1294 7.67902 69.1451 7.66582 69.1639 7.66309L74.8879 6.83353L77.4479 1.64628C77.4563 1.62921 77.4737 1.61841 77.4928 1.61841ZM77.4928 1.78139L74.9659 6.90137C74.9586 6.91613 74.9446 6.92636 74.9283 6.92873L69.2787 7.74751L73.3726 11.7326C73.3844 11.7441 73.3898 11.7606 73.387 11.7769L72.4217 17.4045L77.4753 14.7475C77.4899 14.7398 77.5073 14.7398 77.5219 14.7475L82.5638 17.4044L81.5985 11.7769C81.5957 11.7606 81.6011 11.7441 81.6129 11.7326L85.7069 7.74751L80.0573 6.92873C80.041 6.92636 80.0269 6.91613 80.0196 6.90137L77.4928 1.78139Z" fill="#0A2B51"/>
<path d="M99.9994 14.7915L94.856 17.4957L95.8385 11.7682L91.6719 7.71238L97.4219 6.87905L99.9935 1.66821L102.565 6.87905L108.315 7.71238L104.149 11.7682L105.131 17.4957L99.9994 14.7915Z" fill="#D9D9D9"/>
<path d="M99.9994 14.7915L94.856 17.4957L95.8385 11.7682L91.6719 7.71238L97.4219 6.87905L99.9935 1.66821L102.565 6.87905L108.315 7.71238L104.149 11.7682L105.131 17.4957L99.9994 14.7915Z" fill="#A1FFA1"/>
<path fill-rule="evenodd" clip-rule="evenodd" d="M99.9928 1.61841C100.012 1.61841 100.029 1.62921 100.038 1.64628L102.598 6.83353L108.322 7.66309C108.34 7.66582 108.356 7.67902 108.362 7.69713C108.368 7.71524 108.363 7.73512 108.349 7.7484L104.201 11.7859L105.18 17.4875C105.183 17.5062 105.175 17.5252 105.16 17.5364C105.144 17.5476 105.124 17.549 105.107 17.5401L99.9986 14.8482L94.8785 17.5402C94.8617 17.549 94.8413 17.5475 94.8259 17.5364C94.8105 17.5252 94.8028 17.5062 94.806 17.4875L95.784 11.7859L91.6362 7.7484C91.6226 7.73512 91.6177 7.71524 91.6235 7.69713C91.6294 7.67902 91.6451 7.66582 91.6639 7.66309L97.3879 6.83353L99.9479 1.64628C99.9563 1.62921 99.9737 1.61841 99.9928 1.61841ZM99.9928 1.78139L97.4659 6.90137C97.4586 6.91613 97.4446 6.92636 97.4283 6.92873L91.7787 7.74751L95.8726 11.7326C95.8844 11.7441 95.8898 11.7606 95.887 11.7769L94.9217 17.4045L99.9753 14.7475C99.9899 14.7398 100.007 14.7398 100.022 14.7475L105.064 17.4044L104.098 11.7769C104.096 11.7606 104.101 11.7441 104.113 11.7326L108.207 7.74751L102.557 6.92873C102.541 6.92636 102.527 6.91613 102.52 6.90137L99.9928 1.78139Z" fill="#0A2B51"/>
</svg>
