<svg width="28" height="20" viewBox="0 0 28 20" fill="none" xmlns="http://www.w3.org/2000/svg">
<path d="M27.4155 3.23475C27.0829 2.05401 26.1621 1.12798 24.9761 0.800629C22.7923 0.216825 14.0134 0.216825 14.0134 0.216825C14.0134 0.216825 5.25106 0.20282 3.04451 0.800629C1.86464 1.12885 0.939486 2.05401 0.610385 3.23475C0.196383 5.47281 -0.00930499 7.73801 0.000322967 10.0137C-0.00405337 12.2745 0.200759 14.5362 0.610385 16.7603C0.939486 17.941 1.86464 18.867 3.04451 19.1996C5.2283 19.7835 14.0134 19.7835 14.0134 19.7835C14.0134 19.7835 22.7704 19.7835 24.9761 19.1996C26.1621 18.867 27.0829 17.9419 27.4155 16.7603C27.8172 14.5362 28.0133 12.2745 27.9993 10.0137C28.0133 7.73801 27.8216 5.47281 27.4155 3.23475ZM11.209 14.2036V5.80541L18.5166 10.0137L11.209 14.2036Z" fill="#0A2B51"/>
</svg>
